<?xml version="1.0" encoding="UTF-8" standalone="no"?>
<!DOCTYPE svg PUBLIC "-//W3C//DTD SVG 1.1//EN" "http://www.w3.org/Graphics/SVG/1.1/DTD/svg11.dtd">
<svg width="100%" height="100%" viewBox="0 0 624 577" version="1.1" xmlns="http://www.w3.org/2000/svg" xmlns:xlink="http://www.w3.org/1999/xlink" xml:space="preserve" xmlns:serif="http://www.serif.com/" style="fill-rule:evenodd;clip-rule:evenodd;">
    <g>
        <path d="M231,32.11C190.773,45.943 155.783,68.017 126.03,98.33C125.959,98.406 125.919,98.506 125.919,98.61C125.919,98.831 126.099,99.015 126.32,99.02L511.19,99.01C511.537,99.01 511.587,98.887 511.34,98.64C483.1,70.047 450.52,48.787 413.6,34.86C355.27,12.86 290.05,11.8 231,32.11" style="fill:none;fill-rule:nonzero;stroke:rgb(231,154,146);stroke-width:2px;"/>
        <path d="M533.12,182.57C543.907,182.563 554.99,182.533 566.37,182.48C566.371,182.48 566.373,182.48 566.374,182.48C566.66,182.48 566.894,182.245 566.894,181.96C566.894,181.888 566.879,181.816 566.85,181.75C555.117,154.563 539.443,129.907 519.83,107.78C518.52,106.3 514.25,106.54 512.13,106.54C382.357,106.533 252.99,106.55 124.03,106.59C122.337,106.59 120.667,106.637 119.02,106.73C118.68,106.743 118.38,106.86 118.12,107.08C116.813,108.153 115.59,109.357 114.45,110.69C96.19,132.003 81.48,155.543 70.32,181.31C70.147,181.697 70.117,182 70.23,182.22C70.322,182.414 70.521,182.539 70.74,182.54C225.287,182.633 379.413,182.643 533.12,182.57" style="fill:none;fill-rule:nonzero;stroke:rgb(249,163,152);stroke-width:2px;"/>
        <path d="M50.37,257.8C50.283,258.587 50.633,258.98 51.42,258.98C225.227,259.027 399.253,259.02 573.5,258.96C577.853,258.96 582.013,259.05 585.98,259.23C586.507,259.25 586.743,258.997 586.69,258.47C584.917,241.163 581.31,223.813 575.87,206.42C574.163,200.96 572.227,195.577 570.06,190.27C569.947,189.997 569.74,189.86 569.44,189.86L67.74,189.99C67.242,189.989 66.791,190.296 66.61,190.76C58.283,212.047 52.87,234.393 50.37,257.8" style="fill:none;fill-rule:nonzero;stroke:rgb(255,187,154);stroke-width:2px;"/>
        <path d="M586.05,266.53C408.943,266.603 234.013,266.607 61.26,266.54C57.367,266.54 53.457,266.613 49.53,266.76C49.253,266.772 49.032,267.003 49.032,267.28C49.032,267.31 49.035,267.34 49.04,267.37C49.3,268.817 49.383,270.303 49.29,271.83C48.397,286.957 48.673,301.68 50.12,316C50.513,319.887 51.11,323.96 51.91,328.22C52.001,328.721 52.446,329.089 52.96,329.09L584,329.09C584.873,329.09 585.363,328.653 585.47,327.78C586.923,315.407 587.807,303.697 588.12,292.65C588.367,284.023 588.08,275.68 587.26,267.62C587.187,266.893 586.783,266.53 586.05,266.53" style="fill:none;fill-rule:nonzero;stroke:rgb(255,212,154);stroke-width:2px;"/>
        <path d="M574.03,373.78C577.69,363.32 580.577,352.8 582.69,342.22C583.01,340.63 583.76,339.04 584.44,337.56C584.483,337.466 584.505,337.364 584.505,337.26C584.505,336.867 584.183,336.542 583.79,336.54L53.75,336.55C53.33,336.553 52.985,336.9 52.985,337.32C52.985,337.37 52.99,337.421 53,337.47C55.753,350.21 59.15,362.76 63.19,375.12C65.94,383.55 69.17,391.14 72.8,399.09C72.947,399.403 73.193,399.537 73.54,399.49C75.507,399.23 77.467,399.1 79.42,399.1C240.367,399.08 401.397,399.087 562.51,399.12C563.917,399.12 564.877,398.463 565.39,397.15C568.457,389.29 571.337,381.5 574.03,373.78" style="fill:none;fill-rule:nonzero;stroke:rgb(249,234,211);stroke-width:2px;"/>
        <path d="M89.58,430.41C94.507,438.51 101.627,448.467 110.94,460.28C113.06,462.97 114.96,461.98 117.73,461.98C253.137,461.993 388.453,461.997 523.68,461.99C524.149,461.99 524.597,461.777 524.9,461.41C538.553,445.163 550.237,427.287 559.95,407.78C560.016,407.646 560.051,407.499 560.051,407.35C560.051,406.821 559.619,406.385 559.09,406.38C543.863,406.247 529,406.183 514.5,406.19C370.413,406.217 224.72,406.24 77.42,406.26C76.627,406.26 76.41,406.613 76.77,407.32C81.11,415.807 85.38,423.503 89.58,430.41" style="fill:none;fill-rule:nonzero;stroke:rgb(191,228,223);stroke-width:2px;"/>
        <path d="M471.15,510.19C486.77,499.457 501.527,486.8 515.42,472.22C515.907,471.707 516.313,471.163 516.64,470.59C516.704,470.477 516.738,470.35 516.738,470.22C516.738,469.809 516.401,469.471 515.99,469.47L119.97,469.48C119.969,469.48 119.967,469.48 119.966,469.48C119.746,469.48 119.566,469.661 119.566,469.88C119.566,469.985 119.607,470.085 119.68,470.16C133.773,485.32 149.207,498.707 165.98,510.32C167.167,511.14 168.5,511.55 169.98,511.55C269.207,511.517 368.32,511.503 467.32,511.51C468.7,511.51 470.02,510.97 471.15,510.19" style="fill:none;fill-rule:nonzero;stroke:rgb(141,212,210);stroke-width:2px;"/>
        <path d="M182.86,521.04C233.3,549.86 287.377,561.57 345.09,556.17C351.83,555.537 358.433,554.653 364.9,553.52C396.78,547.913 426.713,536.993 454.7,520.76C456.767,519.567 456.607,518.97 454.22,518.97L192.71,519.09" style="fill:none;fill-rule:nonzero;stroke:rgb(144,194,205);stroke-width:2px;"/>
        <path d="M192.71,519.09L181.2,519.2C180.833,519.207 180.757,519.36 180.97,519.66C181.37,520.22 182,520.68 182.86,521.04" style="fill:none;fill-rule:nonzero;stroke:rgb(141,212,210);stroke-width:2px;"/>
        <path d="M192.71,519.09C189.957,519.21 187.203,519.237 184.45,519.17C183.85,519.157 183.433,519.29 183.2,519.57C182.913,519.923 182.8,520.413 182.86,521.04" style="fill:none;fill-rule:nonzero;stroke:rgb(30,151,160);stroke-width:2px;"/>
    </g>
    <path d="M231,32.11C290.05,11.8 355.27,12.86 413.6,34.86C450.52,48.787 483.1,70.047 511.34,98.64C511.587,98.887 511.537,99.01 511.19,99.01L126.32,99.02C126.099,99.015 125.919,98.831 125.919,98.61C125.919,98.506 125.959,98.406 126.03,98.33C155.783,68.017 190.773,45.943 231,32.11Z" style="fill:rgb(206,53,37);fill-rule:nonzero;"/>
    <path d="M533.12,182.57C379.413,182.643 225.287,182.633 70.74,182.54C70.521,182.539 70.322,182.414 70.23,182.22C70.117,182 70.147,181.697 70.32,181.31C81.48,155.543 96.19,132.003 114.45,110.69C115.59,109.357 116.813,108.153 118.12,107.08C118.38,106.86 118.68,106.743 119.02,106.73C120.667,106.637 122.337,106.59 124.03,106.59C252.99,106.55 382.357,106.533 512.13,106.54C514.25,106.54 518.52,106.3 519.83,107.78C539.443,129.907 555.117,154.563 566.85,181.75C566.879,181.816 566.894,181.888 566.894,181.96C566.894,182.245 566.66,182.48 566.374,182.48C566.373,182.48 566.371,182.48 566.37,182.48C554.99,182.533 543.907,182.563 533.12,182.57Z" style="fill:rgb(242,71,49);fill-rule:nonzero;"/>
    <path d="M50.37,257.8C52.87,234.393 58.283,212.047 66.61,190.76C66.791,190.296 67.242,189.989 67.74,189.99L569.44,189.86C569.74,189.86 569.947,189.997 570.06,190.27C572.227,195.577 574.163,200.96 575.87,206.42C581.31,223.813 584.917,241.163 586.69,258.47C586.743,258.997 586.507,259.25 585.98,259.23C582.013,259.05 577.853,258.96 573.5,258.96C399.253,259.02 225.227,259.027 51.42,258.98C50.633,258.98 50.283,258.587 50.37,257.8Z" style="fill:rgb(254,119,53);fill-rule:nonzero;"/>
    <path d="M586.05,266.53C586.783,266.53 587.187,266.893 587.26,267.62C588.08,275.68 588.367,284.023 588.12,292.65C587.807,303.697 586.923,315.407 585.47,327.78C585.363,328.653 584.873,329.09 584,329.09L52.96,329.09C52.446,329.089 52.001,328.721 51.91,328.22C51.11,323.96 50.513,319.887 50.12,316C48.673,301.68 48.397,286.957 49.29,271.83C49.383,270.303 49.3,268.817 49.04,267.37C49.035,267.34 49.032,267.31 49.032,267.28C49.032,267.003 49.253,266.772 49.53,266.76C53.457,266.613 57.367,266.54 61.26,266.54C234.013,266.607 408.943,266.603 586.05,266.53Z" style="fill:rgb(255,168,52);fill-rule:nonzero;"/>
    <path d="M574.03,373.78C571.337,381.5 568.457,389.29 565.39,397.15C564.877,398.463 563.917,399.12 562.51,399.12C401.397,399.087 240.367,399.08 79.42,399.1C77.467,399.1 75.507,399.23 73.54,399.49C73.193,399.537 72.947,399.403 72.8,399.09C69.17,391.14 65.94,383.55 63.19,375.12C59.15,362.76 55.753,350.21 53,337.47C52.99,337.421 52.985,337.37 52.985,337.32C52.985,336.9 53.33,336.553 53.75,336.55L583.79,336.54C584.183,336.542 584.505,336.867 584.505,337.26C584.505,337.364 584.483,337.466 584.44,337.56C583.76,339.04 583.01,340.63 582.69,342.22C580.577,352.8 577.69,363.32 574.03,373.78Z" style="fill:rgb(243,212,166);fill-rule:nonzero;"/>
    <path d="M89.58,430.41C85.38,423.503 81.11,415.807 76.77,407.32C76.41,406.613 76.627,406.26 77.42,406.26C224.72,406.24 370.413,406.217 514.5,406.19C529,406.183 543.863,406.247 559.09,406.38C559.619,406.385 560.051,406.821 560.051,407.35C560.051,407.499 560.016,407.646 559.95,407.78C550.237,427.287 538.553,445.163 524.9,461.41C524.597,461.777 524.149,461.99 523.68,461.99C388.453,461.997 253.137,461.993 117.73,461.98C114.96,461.98 113.06,462.97 110.94,460.28C101.627,448.467 94.507,438.51 89.58,430.41Z" style="fill:rgb(126,201,190);fill-rule:nonzero;"/>
    <path d="M471.15,510.19C470.02,510.97 468.7,511.51 467.32,511.51C368.32,511.503 269.207,511.517 169.98,511.55C168.5,511.55 167.167,511.14 165.98,510.32C149.207,498.707 133.773,485.32 119.68,470.16C119.607,470.085 119.566,469.985 119.566,469.88C119.566,469.661 119.746,469.48 119.966,469.48C119.967,469.48 119.969,469.48 119.97,469.48L515.99,469.47C516.401,469.471 516.738,469.809 516.738,470.22C516.738,470.35 516.704,470.477 516.64,470.59C516.313,471.163 515.907,471.707 515.42,472.22C501.527,486.8 486.77,499.457 471.15,510.19Z" style="fill:rgb(26,169,165);fill-rule:nonzero;"/>
    <path d="M192.71,519.09C189.957,519.21 187.203,519.237 184.45,519.17C183.85,519.157 183.433,519.29 183.2,519.57C182.913,519.923 182.8,520.413 182.86,521.04C182,520.68 181.37,520.22 180.97,519.66C180.757,519.36 180.833,519.207 181.2,519.2L192.71,519.09Z" style="fill:rgb(26,169,165);fill-rule:nonzero;"/>
    <path d="M192.71,519.09L454.22,518.97C456.607,518.97 456.767,519.567 454.7,520.76C426.713,536.993 396.78,547.913 364.9,553.52C358.433,554.653 351.83,555.537 345.09,556.17C287.377,561.57 233.3,549.86 182.86,521.04C182.8,520.413 182.913,519.923 183.2,519.57C183.433,519.29 183.85,519.157 184.45,519.17C187.203,519.237 189.957,519.21 192.71,519.09Z" style="fill:rgb(33,132,154);fill-rule:nonzero;"/>
</svg>
