<svg xmlns="http://www.w3.org/2000/svg" width="97" height="194" viewBox="0 0 96.55 193.8"><path fill="#3e3a39" d="M41.4 4.55q2.85-2.8 6.85-2.8 4 0 6.85 2.8 2.8 2.85 2.8 6.85v88.35q16.15 3.35 26.7 16.2 10.7 13 10.7 29.85 0 19.45-13.8 33.25t-33.25 13.8q-19.45 0-33.25-13.8T1.2 145.8q0-16.85 10.7-29.85 10.6-12.85 26.7-16.2V11.4q0-4 2.8-6.85"/><path fill="#fff" d="M75.95 145.95q-.05 11.45-8.2 19.55-8.15 8.1-19.65 8-11.5-.05-19.55-8.2-8.05-8.2-8-19.65.1-11.5 8.25-19.55 8.15-8.1 19.6-8.05 11.5.1 19.55 8.25 8.1 8.2 8 19.65"/><path fill="#0d131a" d="M59 146.25q0 4.35-3.05 7.45-3.05 3.05-7.4 3.05-4.3 0-7.4-3.05-3.05-3.1-3.05-7.45 0-4.3 3.05-7.4 3.1-3.05 7.4-3.05 4.35 0 7.4 3.05 3.05 3.1 3.05 7.4"/><path fill="#fff" d="M46.45 145.35q1.6 0 2.7 1.1 1.1 1.15 1.1 2.7 0 1.6-1.1 2.75-1.1 1.1-2.7 1.1t-2.7-1.1q-1.1-1.15-1.1-2.75 0-1.55 1.1-2.7 1.15-1.1 2.7-1.1"/><path fill="#3e3a39" d="M48.4 118.05q10.65.1 18.5 7.25 7.8 7.1 8.9 17.55H20.7q1.1-10.55 9-17.65 8-7.2 18.7-7.15"/><path fill="#dbdcdc" d="M49 173.3q-12-.1-19.85-7.35-9.05-8.4-8.6-23.65 1.4 12.6 9.8 19.7 7.6 6.4 18.1 6.45 10.3 0 18.05-6.05 8.4-6.55 9.8-17.55.5 11.55-8 20.15-8.3 8.4-19.3 8.3"/><path fill="#0d131a" d="M56.85 11.4q-.1-4.2-2.75-6.65-2.45-2.2-5.85-2.2-3.45 0-5.8 2.2Q39.8 7.2 39.8 11.4l-.3 42.9q-.25 32.2-.2 45.3l-1.9.25q-.15-18.8-.15-45.1.05-27.8.25-43.35.05-5.4 3.4-8.55Q43.9 0 48.2 0q4.25 0 7.3 2.85Q58.85 6 59 11.4l.35 38.95v49.6l-2.15-.55q.5-36.7-.35-88"/><path fill="#0d131a" d="M53.25 99q.1-.65 1.5-.55 17.55 1.6 29.75 15.6 12.05 13.8 12.05 31.75 0 19.75-14.25 33.9-14.25 14.1-34.05 14.1-20.3 0-34.3-14.1Q0 165.7 0 145.75q0-18 11.6-31.4Q23.4 100.6 41.55 98.5q1.4-.15 1.5.5.1.7-1.3.95-17 2.9-28.1 15.75Q2.5 128.65 2.5 145.8q0 19.15 13.3 32.6 13.35 13.45 32.45 13.45 19.15 0 32.5-13.45 13.3-13.45 13.3-32.65 0-17.2-11.3-30.15-11.15-12.85-28.2-15.7-1.4-.2-1.3-.9"/><path fill="#0d131a" d="M77.2 145.85q-.05 11.6-8.25 19.9-8.4 8.45-20.7 8.45-12.6-.05-20.85-8.5-8.05-8.2-7.95-20.05.1-12.15 8.45-20.3 8.25-8 20.35-8 12.2 0 20.65 8.5 8.35 8.35 8.3 20M48.25 119.1q-11.1-.05-18.85 7.75-7.75 7.75-7.8 18.85-.05 11.3 7.7 18.95 7.7 7.55 18.95 7.6 11.1.1 18.85-7.6 7.8-7.7 7.85-18.8.1-11.15-7.7-18.9-7.8-7.75-19-7.85"/><path fill="#0d131a" d="M75.9 143.6q-10.65.65-28.45.65-17.85 0-26.85-.65l.35-1.8q9.95.35 26.75.35t27.8-.35l.4 1.8"/></svg>