<svg xmlns="http://www.w3.org/2000/svg" width="169" height="179" viewBox="0 0 168.95 179.05"><path fill="#3e3a39" d="m162.4 57.45-42.5 43.65Q117 104 113 104q-4.1 0-6.9-2.9L87.5 82.05Q82.2 88.3 75.15 92.5q-7.2 4.3-15.4 5.95v15.5H82q3.95 0 6.8 2.85 2.8 2.8 2.8 6.8t-2.8 6.8q-2.8 2.8-6.8 2.8H59.75v14.7q0 3.8 4.2 7.25 3.55 2.95 6 3.1 3.95.1 6.75 2.95t2.75 6.8q-.05 3.95-2.8 6.7-2.8 2.8-6.75 2.8-4.65 0-9.95-2.4-5.4-2.4-9.85-6.6-4.4 4.2-9.8 6.6-5.35 2.4-10 2.4-3.95 0-6.7-2.8-2.75-2.75-2.8-6.7-.05-3.95 2.75-6.8 2.8-2.85 6.75-2.95 2.5-.2 6-3.1 4.2-3.45 4.2-7.25V98.45q-17-3.4-28.2-16.85Q1 67.95 1 50.25q0-20.3 14.4-34.7 14.4-14.4 34.7-14.4 17.8 0 31.5 11.45 13.5 11.35 16.75 28.5h57.15q2.9 0 5.3 1.6 2.4 1.65 3.55 4.3 1.15 2.7.6 5.55-.5 2.85-2.55 4.9M113 80.6l19.7-20.25H93.3L113 80.6M50.1 20.4q-12.35 0-21.1 8.75-8.75 8.75-8.75 21.1 0 12.35 8.75 21.15 8.75 8.75 21.1 8.75 12.4 0 21.15-8.75Q80 62.65 80 50.25q0-12.35-8.75-21.1-8.8-8.75-21.15-8.75"/><path fill="#fff" d="M50.1 20.4q12.35 0 21.15 8.75Q80 37.9 80 50.25q0 12.4-8.75 21.15-8.75 8.75-21.15 8.75-12.35 0-21.1-8.75-8.75-8.8-8.75-21.15 0-12.35 8.75-21.1 8.75-8.75 21.1-8.75"/><path fill="#dbdcdc" d="M51.6 80.05q-15.05.1-23.45-9.35-7.9-8.85-8-23.6 2.9 12.6 11.2 20 7.7 6.85 17.55 7.2 9.95.35 18.15-6.1 8.85-7 12.8-20Q81.2 58.6 74 68.55 65.7 80 51.6 80.05"/><path fill="#0d131a" d="M57.25 134.15q-1.75 0-1.8-.9 0-.95 1.75-.95 16.4 0 24.7-.35 4.05-.15 6.4-2.7 2.15-2.3 2.2-5.6 0-3.3-2.15-5.65-2.35-2.55-6.4-2.75-9.8-.45-24.6-.55-2 0-2.05-.8 0-.85 2-.85 11.5-.45 24.7-.15 5.35.15 8.5 3.55 2.85 3.05 2.85 7.4 0 4.35-2.85 7.35-3.15 3.35-8.5 3.4-14.35.2-24.75-.45"/><path fill="#0d131a" d="m58.8 98.6 2-.25.25 15.65-2.35.05.1-15.45M166.75 46.5q2.2 6.15-3.5 11.95l-42.65 43.6q-3.25 3.35-7.65 3.3-4.4 0-7.6-3.3L86.7 82.95l1.35-1.45 18.85 18.55q2.6 2.6 6.05 2.75 3.6.15 6.3-2.6l42.35-43.5q4.45-4.5 2.3-9.45-2.15-4.85-8.35-5.1-10.1-.4-27.25-.45-17.25-.1-29.75.15l-.25-1.8q39.35-.7 57.3-.15 8.9.25 11.15 6.6M72.6 29Q81 38 81 50.25q0 12.8-8.25 21.55-8.7 9.2-22.55 9.3-12.95.1-22.1-9.05Q19 63 19 50.3q0-12.55 8.9-21.6 9.05-9.25 22.2-9.25 13.55 0 22.5 9.55m-22.5-7.75q-12 0-20.4 8.5-8.35 8.45-8.35 20.55 0 12.05 8.35 20.45 8.4 8.45 20.4 8.45 12 0 20.4-8.45 8.35-8.45 8.35-20.5 0-12.1-8.35-20.55-8.35-8.45-20.4-8.45"/><path fill="#0d131a" d="M92.7 61.2q-.85-.9-.5-1.4.3-.35 1.15-.4Q100 59 112.9 59q11.25.05 19.8.35 1.05.05 1.2.6.1.5-.6 1.25-14.2 15.85-19.3 20.6l-.7.45q-.35.05-.8-.45L92.7 61.2m3.2.15q9 9.2 17.1 18.2 6.2-6.05 16.9-18.1-5.85-.3-16.95-.35-10.35 0-17.05.25M57.55 42.85q3.05 3.1 3.05 7.4 0 4.35-3.05 7.45-3.1 3.05-7.45 3.05-4.3 0-7.4-3.05-3.05-3.1-3.05-7.45 0-4.3 3.05-7.4 3.1-3.05 7.4-3.05 4.35 0 7.45 3.05"/><path fill="#fff" d="M48.7 43.55q1.6 0 2.7 1.1 1.15 1.15 1.15 2.7 0 1.55-1.15 2.7-1.1 1.1-2.7 1.1-1.55 0-2.7-1.1-1.1-1.1-1.1-2.7 0-1.55 1.1-2.7 1.15-1.1 2.7-1.1"/><path fill="#0d131a" d="M61 147.85q.1 3 3.3 6 3 2.9 5.8 3.15 5.25.4 8.2 3.95 2.7 3.15 2.6 7.5-.1 4.35-2.9 7.3-3.05 3.3-8.15 3.3-9.85 0-20.4-9.85l1.45-1.4q4.3 4 9.35 6.35 5.1 2.35 9.6 2.35 3.85 0 6.15-2.6 2.05-2.3 2.1-5.7.05-3.4-2-5.85-2.25-2.75-6.1-3-4.4-.3-8.1-4.05-3.5-3.6-3.55-7.1-.05-3.65.25-15l2.4.05v14.6"/><path fill="#0d131a" d="m39.55 98.25 1.9.6.15 49q0 4.75-4 8.3-3.55 3.15-7.3 3.4-3.85.25-6.15 2.9-2.05 2.4-2.1 5.7-.05 3.3 2 5.6 2.25 2.5 6.1 2.5 4.8 0 10.55-2.55 6.05-2.7 10-6.85 1.1-1.1 1.55-.65.45.45-.5 1.7-3.7 4.85-10.2 8.05-6.1 3.05-11.2 3.05-5.2 0-8.35-3.15-2.9-2.9-3.05-7.15-.15-4.25 2.6-7.5 3.05-3.55 8.55-4.3 2.7-.35 5.55-2.6 3.55-2.8 3.55-6.35l.35-49.7"/><path fill="#0d131a" d="M98 43.2q-4.2-18.25-17.15-29.4Q67.7 2.45 50 2.45q-20 0-34 13.9Q2 30.3 2 50.3q0 17.85 11.55 31.35Q25.1 95.05 43 98.15q1.7.3 1.6.95-.1.65-1.8.5-18.55-1.9-30.75-16.1Q0 69.4 0 50.25q0-22.2 15.65-36.7Q30.2 0 50 0q18.65 0 32.65 12 14.25 12.2 16.8 31 .25 1.8-.4 1.9-.65.1-1.05-1.7M88.85 81.2Q84.3 88.3 75.2 93.65q-9.5 5.6-18.05 5.55-.95 0-1-.55-.05-.6 1.15-.65 7.5-.5 16.75-5.95 8.7-5.1 13.8-11.45.7-.8 1.1-.55.45.25-.1 1.15"/></svg>