<svg xmlns="http://www.w3.org/2000/svg" width="117" height="173" viewBox="-0.05 -0.15 117.05 172.9"><path fill="#3e3a39" d="M79.6 37.3q-8.75-8.75-21.1-8.75-12.35 0-21.15 8.75-8.75 8.8-8.75 21.15 0 12.35 8.75 21.1 8.8 8.75 21.15 8.75 12.35 0 21.1-8.75 8.75-8.75 8.75-21.1 0-12.35-8.75-21.15m33.05-33.05q2.8 2.8 2.8 6.8t-2.8 6.85l-13.3 13.3q8.25 12.4 8.25 27.25 0 17.7-11.3 31.3-11.15 13.45-28.2 16.85v35.25q0 3.8 4.2 7.25 3.5 2.9 6 3.1 3.95.1 6.75 2.95t2.75 6.8q-.05 3.95-2.8 6.7-2.75 2.8-6.7 2.8-4.65 0-9.95-2.35-5.45-2.45-9.85-6.6-4.45 4.15-9.85 6.6-5.3 2.35-9.95 2.35-3.95 0-6.75-2.8-2.75-2.75-2.8-6.7-.05-3.95 2.75-6.8 2.8-2.85 6.75-2.95 2.45-.15 6-3.1 4.2-3.45 4.2-7.25V106.6q-17.05-3.4-28.2-16.85-11.3-13.6-11.3-31.3 0-14.9 8.3-27.25L4.3 17.9q-2.8-2.85-2.8-6.8 0-4 2.8-6.85 2.8-2.8 6.8-2.8t6.8 2.8L31.25 17.6Q43.6 9.3 58.5 9.3q14.85 0 27.2 8.3L99.05 4.25q2.8-2.8 6.8-2.8t6.8 2.8"/><path fill="#fff" d="M79.6 37.3q8.75 8.8 8.75 21.15 0 12.35-8.75 21.1-8.75 8.75-21.1 8.75-12.35 0-21.15-8.75-8.75-8.75-8.75-21.1 0-12.35 8.75-21.15 8.8-8.75 21.15-8.75 12.35 0 21.1 8.75"/><path fill="#dbdcdc" d="M28.6 56.95Q30.65 67.9 39 74.4q7.7 6.05 18.05 6.5 10.35.5 18.7-4.85 9.15-5.75 12.6-16.55-.5 11.75-8.7 20.1-8.6 8.75-21.25 8.75-12.15 0-20.9-8.55-9.3-9.1-8.9-22.85"/><path fill="#0d131a" d="m105.85 23.6 5.85-6.25q2.75-2.95 2.55-6.5-.2-3.15-2.55-5.55-2.35-2.35-5.5-2.5-3.5-.2-6.45 2.55-8.15 7.7-13.35 13.05L84.7 17Q90.6 10.7 98 3.6q3.8-3.65 8.4-3.5 4.15.2 7.25 3.25 3.05 3.05 3.2 7.25.15 4.65-3.65 8.6L99.9 32.1l-1.1-1.85 7.05-6.65M30.25 18.35Q21.15 8.8 17.4 5.3q-3-2.8-6.55-2.65-3.25.1-5.65 2.5-2.4 2.35-2.55 5.6-.2 3.55 2.6 6.6 5.35 5.8 12.8 12.9l-1 1.95q-7.1-6.6-13.25-13-3.85-4.05-3.75-8.7Q.1 6.25 3.2 3.2 6.25.15 10.45 0q4.65-.15 8.5 3.6Q29.3 13.55 32.4 16.85l-2.15 1.5M80.8 36.7q8.8 8.95 8.8 21.75 0 12.65-8.9 21.6-9.05 9.15-22.2 9.15-12.8 0-21.8-8.85-9.15-8.9-9.15-21.9 0-13.1 9.2-22.05 9-8.8 21.75-8.8 13.3 0 22.3 9.1m-22.3-7.15q-12.05 0-20.45 8.4-8.45 8.45-8.45 20.5t8.45 20.45q8.4 8.45 20.45 8.45 12.05 0 20.35-8.45 8.3-8.4 8.3-20.5t-8.3-20.45q-8.3-8.4-20.35-8.4M67.2 107.05l2.1-.5v17.95l.1 17.35q.1 3.7 2.65 6.25 2.55 2.6 6.65 2.95 5.1.5 8 3.95 2.65 3.15 2.6 7.4-.1 4.25-2.8 7.15-3.05 3.2-8.15 3.2-10 0-19.45-8.95-3.9 4.05-9.85 6.6-5.55 2.35-10.2 2.35-5.2 0-8.25-3-2.75-2.7-2.8-6.75-.05-4.05 2.65-7.35 2.95-3.6 8.2-4.65 9-1.85 9-9.35l.1-35.2 2.25.4v34.7q0 4.9-3.05 7.9-2.85 2.85-8.1 3.8-3.9.75-6.2 3.5-2.05 2.5-2.1 5.65-.05 3.15 1.95 5.3 2.25 2.3 6.2 2.3 4.25 0 9.1-1.85 5.35-2.05 9.15-5.6 1.35-1.25 1.85-1.25.55-.05 2.1 1.25 3.8 3.65 8.4 5.7 4.65 2.1 9.1 2 3.85-.1 6.1-2.6 2-2.3 1.95-5.6 0-3.3-2.05-5.7-2.2-2.7-6-3-4.8-.45-8-3.4-3.45-3.2-3.55-8l.05-17.6.3-17.3"/><path fill="#0d131a" d="M68.95 58.45q0 4.3-3.05 7.4-3.1 3.05-7.4 3.05-4.35 0-7.4-3.05-3.1-3.1-3.1-7.4 0-4.35 3.1-7.4Q54.15 48 58.5 48q4.3 0 7.4 3.05 3.05 3.05 3.05 7.4"/><path fill="#fff" d="M57.1 51.7q1.6 0 2.7 1.1 1.1 1.15 1.1 2.7 0 1.6-1.1 2.75-1.1 1.1-2.7 1.1t-2.75-1.1q-1.1-1.15-1.1-2.75t1.1-2.7q1.15-1.1 2.75-1.1"/><path fill="#0d131a" d="M86.7 19.1q-12.65-8.65-28.2-8.65-15.85 0-28.5 8.85-1.1.8-1.55.3-.5-.55.65-1.45 5.9-4.8 13.75-7.4 7.6-2.5 15.7-2.5 8 0 15.35 2.4 7.55 2.5 13.65 7.3 1.3 1 .95 1.55-.4.55-1.8-.4M19.45 29.85Q12 40.7 10.85 54.1 9.7 66.7 14.4 77.4q4.85 11.25 14.4 18.8 9.65 7.65 22.25 10.05 1.25.25 1.2.95-.05.65-1.3.5-12.8-1.65-22.95-9.3-10.3-7.7-15.65-20-4.85-11.25-3.7-24.35Q9.9 39.55 18.3 29q.85-1.1 1.35-.7.55.4-.2 1.55M97.5 29.85q-.8-1.25-.3-1.65.55-.4 1.5.8 8.15 10.6 9.45 25.1 1.2 13.25-3.6 24.35-5.4 12.4-15.55 20.1-10.15 7.75-23 9.15-1.4.15-1.45-.5-.05-.7 1.35-.95 12.5-2.3 22.2-10 9.55-7.6 14.45-18.9 4.65-10.65 3.5-23.4-1.25-13.4-8.55-24.1"/></svg>