<svg xmlns="http://www.w3.org/2000/svg" width="97" height="196" viewBox="0 -2.65 96.7 196.15"><path fill="#3e3a39" d="M95.3 48.35q0 18.55-12.9 32.1-11 11.55-24.7 13.9v5q16.25 3.35 26.85 16.2 10.75 13 10.75 29.9 0 19.45-13.8 33.25t-33.25 13.8q-19.45 0-33.25-13.8T1.2 145.45q0-16.8 10.65-29.8 10.5-12.8 26.6-16.2V85.7q0-4 2.8-6.85 2.85-2.8 6.85-2.8 11.7 0 19.85-8.25 8-8.1 8-19.3 0-12.75-9.15-20.8-9.2-8.1-22.5-6.65-4 .45-7.15-1.9-3.2-2.4-3.75-6.3-.55-3.95 1.85-7.2 2.4-3.2 6.35-3.75 21.35-3 37.5 10.85 16.2 13.95 16.2 35.6"/><path fill="#fff" d="M75.95 145.6q-.05 11.45-8.2 19.55-8.15 8.1-19.65 8-11.5-.05-19.55-8.2-8.05-8.2-8-19.65.05-11.45 8.2-19.55 8.15-8.1 19.65-8.05 11.5.1 19.55 8.25 8.1 8.2 8 19.65"/><path fill="#0d131a" d="M58.95 145.55q0 4.3-3.05 7.4-3.05 3.05-7.4 3.05-4.35 0-7.4-3.05-3.05-3.1-3.05-7.4 0-4.35 3.05-7.4 3.05-3.1 7.4-3.1 4.35 0 7.4 3.1 3.05 3.05 3.05 7.4"/><path fill="#fff" d="M46.4 144.6q1.55 0 2.7 1.15 1.1 1.1 1.1 2.7t-1.1 2.7q-1.1 1.1-2.7 1.1t-2.7-1.1q-1.15-1.15-1.15-2.7 0-1.55 1.15-2.7 1.15-1.15 2.7-1.15"/><path fill="#3e3a39" d="M48.4 117.7q10.65.1 18.5 7.25 7.8 7.1 8.9 17.55H20.7q1.1-10.55 9-17.65 8-7.2 18.7-7.15"/><path fill="#dbdcdc" d="M48.6 173.2q-11.95-.15-19.6-7.4-8.8-8.35-8.35-23.65 1.6 12.45 10 19.25 7.55 6.15 17.9 5.9 10.15-.25 17.75-6.45 8.25-6.7 9.65-17.65.5 12-7.3 20.95-8.05 9.25-20.05 9.05"/><path fill="#0d131a" d="M54.4 98.05q17.8 1.7 30 15.55 12.1 13.75 12.1 31.8 0 20.05-13.55 33.9-13.85 14.15-34.7 14.15-21.05.05-34.85-14.15Q0 165.5 0 145.4q0-18.1 12-31.6 12.05-13.55 30.3-15.75 1.35-.15 1.45.55.1.7-1.25.9-17.35 2.55-28.7 15.5-11.4 13.05-11.4 30.45 0 19.15 13.35 32.55 13.35 13.4 32.5 13.4T80.7 178Q94 164.65 94 145.45q0-17.4-11.25-30.3Q71.5 102.25 54.2 99.5q-1.3-.2-1.2-.85.1-.7 1.4-.6"/><path fill="#0d131a" d="M76.95 145.55q-.05 12.05-8.6 20.35-8.4 8.2-20.2 8.2-13.05 0-21.1-8.8-7.5-8.2-7.45-20.05.1-12.3 8.55-20.55 8.25-8.1 20.1-8.1 12.1 0 20.4 8.35 8.35 8.35 8.3 20.6m-28.7-27.1q-11.05-.05-18.9 7.8-7.8 7.85-7.85 19-.1 11.05 7.45 18.95 7.75 8.15 19.3 8.2 11.05.1 18.85-7.8 7.8-7.8 7.85-18.95.05-11.2-7.75-19.15-7.8-7.95-18.95-8.05"/><path fill="#0d131a" d="M75.9 143.25q-8.6.65-26.8.65-18.45 0-28.45-.65l.2-1.9q12.95.5 29.45.45 16.55 0 25.4-.55l.2 2M94.45 48.35q0-20.85-15.2-34.45Q63.65-.1 41.85 3q-4.05.55-6 3.45-1.8 2.6-1.3 5.95.55 3.35 3.05 5.4 2.8 2.3 6.9 1.85 13.65-1.55 23.2 6.95 9.5 8.4 9.5 21.8 0 11.6-8.15 20.05-8.45 8.8-20.9 8.8-3.55 0-5.9 2.1-2.5 2.3-2.65 6.3V99.2l-2.1.4-.15-13.8q0-4.9 3.25-7.9 3.05-2.8 7.55-2.8 11.25 0 19.05-7.85Q75 59.4 75 48.4q0-11.2-7.95-18.9-8.75-8.55-22.45-7.05-5.25.6-8.85-2.45-3.2-2.7-3.85-7.1-.6-4.4 1.7-7.85 2.55-3.75 7.75-4.5 22.55-3.2 38.9 10.95 16.45 14.1 16.4 36.85-.05 19.3-12.9 32.85-11.1 11.75-26.05 14.3l-.1-1.85Q71.05 91.4 81.8 80.1q12.65-13.25 12.65-31.75"/><path fill="#0d131a" d="m58.5 91.75.35 7.95-1.9-.5.1-7.45q0-1.5.7-1.5.7.05.75 1.5"/></svg>