<svg xmlns="http://www.w3.org/2000/svg" width="127" height="198" viewBox="-0.05 0 126.75 198.2"><path fill="#3e3a39" d="M79.7 133.45q-7.6-7.6-18.25-7.6-10.7 0-18.25 7.6-7.6 7.55-7.6 18.25t7.6 18.25q7.55 7.6 18.25 7.6 10.65 0 18.25-7.6 7.55-7.55 7.55-18.25t-7.55-18.25m2.8-57.05q8.75-8.75 8.75-21.05 0-12.35-8.75-21.1-8.75-8.75-21.05-8.75-12.35 0-21.1 8.75Q31.6 43 31.6 55.35q0 12.3 8.75 21.05t21.1 8.75q12.3 0 21.05-8.75m13.6-55.75q10.55 10.55 13.45 25.05h5.95q4 0 6.8 2.8 2.8 2.85 2.8 6.85 0 4-2.8 6.8t-6.8 2.8h-5.95Q106.65 79.45 96.1 90q-10.55 10.55-25.05 13.45v4.2q15.3 3.35 25.3 15.6 10.15 12.45 10.15 28.45 0 18.65-13.2 31.85-13.2 13.25-31.85 13.25-16.05 0-28.45-10.15-12.25-10-15.6-25.35h-6.05q-4 0-6.8-2.8-2.85-2.85-2.85-6.8 0-4 2.85-6.85 2.8-2.8 6.8-2.8h6.05q2.8-12.85 12.2-22.2 9.35-9.4 22.2-12.2v-4.2q-17-3.4-28.15-16.85-11.3-13.6-11.3-31.25 0-17.7 11.3-31.3Q34.8 10.6 51.8 7.2V1.3h19.25v5.9q14.5 2.95 25.05 13.45"/><path fill="#fff" d="M82.5 76.4q-8.75 8.75-21.05 8.75-12.35 0-21.1-8.75-8.75-8.75-8.75-21.05 0-12.35 8.75-21.1 8.75-8.75 21.1-8.75 12.3 0 21.05 8.75t8.75 21.1q0 12.3-8.75 21.05"/><path fill="#dbdcdc" d="M84.5 74.55q-8.6 10.65-23 10.65-14.15 0-22.5-9.8-8.45-9.9-6.85-25.05.9 13.25 9.45 21.4 7.8 7.5 18.7 7.9 11 .4 19.3-6.75 9.2-8 11.2-22.65 2.05 13.95-6.3 24.3"/><path fill="#0d131a" d="M71 .2q1.15.2 1.1 1.25l-.3 5.75-1.9-.3.3-4.7q-2.55-.25-9.05-.2l-8.35.25.25 4.75-1.9.4q-.35-3.1-.25-6.15.1-1 1-1.05l9.95-.2Q68.8 0 71 .2M115.5 46.95h-5.55l-.5-2.1 5.95-.1q5.35 0 8.45 3.3 2.85 3 2.85 7.35t-2.8 7.3q-3.15 3.35-8.5 3.3l-5.85-.15.2-1.85h5.65q4.05 0 6.45-2.65 2.15-2.45 2.15-5.9t-2.1-5.85q-2.35-2.65-6.4-2.65M71.85 109.55q-.15 1.55-.8 1.5-.7-.05-.7-1.5l-.2-5.75 1.95-.4-.25 6.15"/><path fill="#0d131a" d="M71.2 106.6q15.8 3.55 26.05 15.9 10.5 12.6 10.55 29.2.1 19.25-13.15 32.75-13.55 13.75-33.25 13.4-16.8-.3-29.1-10.2-12.4-10-15.85-26.15l1.85-.1q3.35 15 15.55 24.65Q46 195.7 61.5 195.7q18.3 0 31.1-12.85 12.75-12.8 12.75-31.15 0-15.45-9.6-27.45-9.6-12.1-24.6-15.5l.05-2.15"/><path fill="#0d131a" d="M2.85 144.6q3.15-3.35 8.5-3.55 4.15-.15 7.55 0 1.8.1 1.75.9-.1.75-1.75.85l-7.6.35q-4 .3-6.3 3-2.1 2.4-2.05 5.75 0 3.3 2.1 5.7 2.3 2.6 6.3 2.8l8.15.2q1.5.05 1.5.7.05.7-1.55.85-3.1.3-8.15.2-5.4-.1-8.5-3.35-2.85-2.95-2.8-7.15 0-4.25 2.85-7.25"/><path fill="#0d131a" d="M51.55 108.75q-12.45 2.8-21.35 11.75-8.95 8.95-11.75 21.35l-2 .05Q19 128.65 28.8 119q9.6-9.45 22.85-12.35l-.1 2.1"/><path fill="#0d131a" d="m50.85 103.35 1.95.6q-.25 2.05-.25 5.45-.05 1.55-.7 1.55-.65 0-.75-1.55-.25-2.7-.25-6.05M80.5 132.55q7.85 7.75 7.85 19.15 0 11.2-7.5 18.85-7.7 7.85-19.5 7.85-11.65 0-19.3-7.9-7.45-7.7-7.45-18.8 0-11.4 7.85-19.15 7.8-7.65 18.95-7.65 11.3 0 19.1 7.65m-19.1-5.8q-10.35 0-17.55 7.3-7.2 7.25-7.2 17.65 0 10.4 7.25 17.6 7.2 7.25 17.6 7.25 10.35 0 17.55-7.25 7.15-7.2 7.15-17.6 0-10.4-7.2-17.65-7.25-7.3-17.6-7.3M83.9 76.85q-8.75 9.2-22.5 9.2-14 0-22.8-9.4-8.25-8.8-8.25-21.35 0-12.8 8.8-21.7 9-9.1 22.3-8.95 13.3.2 22.15 9.15 8.65 8.75 8.65 21.55 0 12.7-8.35 21.5m6.25-21.5q0-12.05-8.35-20.5-8.4-8.45-20.4-8.45-12 0-20.3 8.45-8.3 8.4-8.3 20.45 0 12.05 8.3 20.5 8.35 8.45 20.35 8.45 12 0 20.35-8.45 8.35-8.4 8.35-20.45"/><path fill="#0d131a" d="M68.85 47.95q3.05 3.05 3.05 7.4 0 4.3-3.05 7.4-3.1 3.05-7.4 3.05-4.35 0-7.4-3.05-3.1-3.1-3.1-7.4 0-4.35 3.1-7.4 3.05-3.1 7.4-3.1 4.3 0 7.4 3.1"/><path fill="#fff" d="M62.75 49.7q1.1 1.15 1.1 2.7 0 1.6-1.1 2.75-1.1 1.1-2.7 1.1t-2.75-1.1Q56.2 54 56.2 52.4t1.1-2.7q1.15-1.1 2.75-1.1t2.7 1.1"/><path fill="#0d131a" d="M54.25 7.45q-17.6 3.15-29.1 16.6Q13.6 37.6 13.6 55.35q0 18 11.65 31.65 11.65 13.7 29.35 16.25 1.4.2 1.3.9-.1.65-1.5.55-18.3-1.9-30.85-15.95-12.7-14.25-12.6-33.4.15-19.25 12.3-33 12-13.65 30.8-16.3 1.8-.25 1.9.4.1.7-1.7 1M97.05 90.55q-11.7 11.8-28.15 14.1-1.4.2-1.5-.5-.15-.7 1.25-.95 15.9-3.05 27.05-14.3 11.15-11.3 13.75-27.1.25-1.45.95-1.4.65.1.5 1.6-1.95 16.6-13.85 28.55M109.35 48.1q-3.05-15.85-13.7-26.75-10.9-11.1-26.6-13.8-1.4-.25-1.3-.95.15-.7 1.55-.5 16.5 2.25 28.05 14.05 11.35 11.6 13.4 27.7.2 1.25-.5 1.35-.65.1-.9-1.1"/></svg>