<svg xmlns="http://www.w3.org/2000/svg" width="174" height="138" viewBox="0 0 174.45 137.9"><path fill="#3e3a39" d="M117.25 87.2q0-12.35-8.75-21.15-8.75-8.75-21.1-8.75-12.35 0-21.15 8.75-8.75 8.8-8.75 21.15 0 12.35 8.75 21.1 8.8 8.75 21.15 8.75 12.35 0 21.1-8.75 8.75-8.75 8.75-21.1M164 10.55q2.8 2.8 2.8 6.8t-2.8 6.8l-9.4 9.4q9 11.3 13.8 24.75 5 13.95 5 28.9 0 11.55-3.05 22.7-3 11.15-8.9 21.05-2 3.4-5.9 4.4-3.85 1-7.25-1.05-3.45-2-4.45-5.9-1-3.85 1.05-7.25 9.25-15.65 9.25-33.95 0-25.05-16.45-43.9Q121.4 24.65 97 21.1V39q17 3.4 28.2 16.85 11.3 13.65 11.3 31.35 0 20.3-14.4 34.7-14.4 14.4-34.7 14.4-20.3 0-34.75-14.4-14.4-14.4-14.4-34.7 0-17.7 11.3-31.35Q60.75 42.4 77.75 39V21.1Q53.4 24.65 37.1 43.3 20.6 62.2 20.6 87.2q0 18.3 9.25 33.95 2.05 3.4 1.05 7.25-1 3.9-4.4 5.9-3.45 2.05-7.3 1.05-3.85-1-5.9-4.4Q7.45 121 4.4 109.9 1.35 98.75 1.35 87.2q0-14.95 5-28.9 4.8-13.45 13.8-24.75l-9.4-9.4q-2.8-2.8-2.8-6.8t2.8-6.8q2.8-2.8 6.8-2.8t6.8 2.8l9.4 9.4q11.3-9 24.75-13.8 13.95-5 28.9-5 14.9 0 28.85 5 13.45 4.8 24.75 13.8l9.4-9.4q2.8-2.8 6.8-2.8t6.8 2.8"/><path fill="#fff" d="M117.25 87.2q0 12.35-8.75 21.1-8.75 8.75-21.1 8.75-12.35 0-21.15-8.75-8.75-8.75-8.75-21.1 0-12.35 8.75-21.15 8.8-8.75 21.15-8.75 12.35 0 21.1 8.75 8.75 8.8 8.75 21.15"/><path fill="#dbdcdc" d="M87.2 117.15q-14.1 0-22.5-10.15-8.25-10-6.75-24.25Q59 94.95 67.7 102.4q7.9 6.8 19 7.35 11 .6 19.35-5.3 9.15-6.45 11-18.3 1 11.6-7.3 21-8.85 10-22.55 10"/><path fill="#0d131a" d="m25.1 9.7 5.35 5.25 5.2 5.65q1.25 1.3.7 1.95-.55.6-1.8-.65-5-5.25-10.95-10.45Q20.55 8.8 17.05 9q-3.2.15-5.5 2.45-2.35 2.3-2.5 5.45-.2 3.5 2.5 6.5l10.4 10.85q1 1 .4 1.6-.6.55-1.6-.45-5.1-4.4-10.7-10.3-3.65-3.8-3.5-8.4.15-4.1 3.2-7.2 3-3.1 7.1-3.25 4.5-.2 8.25 3.45M163.25 23.3q2.65-3 2.4-6.5-.2-3.1-2.55-5.4-2.4-2.25-5.55-2.35-3.55-.1-6.5 2.6-8.4 7.7-10.85 10.3-1.45 1.4-2 .8-.6-.65.8-2.05l10.45-11q3.8-3.8 8.4-3.65 4.2.1 7.35 3.15 3.15 3.05 3.3 7.25.15 4.65-3.7 8.6-5.55 5.7-10.95 10.2-1.3 1.3-1.95.7-.65-.55.65-1.85l5.35-5.1 5.35-5.7M118.3 87.25q0 13.2-8.9 22.05-8.85 8.8-22 8.8-12.9 0-21.9-8.8-9.1-8.9-9.1-22.1 0-13.2 9.2-22.1 9-8.7 21.8-8.7 13.1 0 22.1 9.2 8.8 9 8.8 21.65M87.4 58.4q-12.1 0-20.45 8.35-8.4 8.4-8.4 20.45 0 12.05 8.4 20.4 8.4 8.4 20.45 8.4 12.05 0 20.4-8.4 8.35-8.35 8.35-20.4 0-12.05-8.35-20.4-8.35-8.4-20.4-8.4M78.5 18.9q.4 8.15.2 20.05l-2 .3.25-10.55.1-9.8q0-1.85.75-1.85.7 0 .7 1.85"/><path fill="#0d131a" d="M77.9 22.05q-24.15 3.5-40.15 22.1-16 18.55-16 43 0 9.3 1.95 16.85 2.15 8.2 7.1 16.55 2.85 4.75 1.55 9.15-1.2 3.9-5 6-3.8 2.15-7.9 1.2-4.5-1-7.15-5.4-5.95-10.05-9.1-21.3Q0 98.8 0 87.2q0-14.75 5.05-28.75 5-13.7 14.4-25.45l1.45 1.2Q11.75 45.65 7.1 59.05q-4.7 13.35-4.7 28 0 11.5 3 22.5 3.05 11.1 8.9 20.85 1.95 3.25 5.45 3.9 3.15.6 6.1-1.05 3-1.7 4-4.7 1.1-3.35-1-6.85-4.55-7.75-6.95-16.6-2.4-8.85-2.4-17.95 0-25.2 16.3-44.2 16.5-19.3 41.85-22.85l.25 1.95"/><path fill="#0d131a" d="M140.3 20.65q-11.4-9.1-24.85-13.7Q102.15 2.4 87.4 2.4T59.3 7q-13.6 4.6-24.95 13.7l-1.25-1.5Q44.8 9.85 58.65 4.95 72.6 0 87.4 0t28.65 4.95q13.75 4.9 25.45 14.3l-1.2 1.4"/><path fill="#0d131a" d="M174.45 87.2q0 22.95-11.95 44.3-2.5 4.45-7 5.45-4.05.95-7.9-1.2-3.95-2.2-5.15-6.15-1.35-4.4 1.45-9.2 9.15-15.5 9.15-33.25 0-24.45-16-43-16-18.6-40.15-22.1l.25-1.85q25.5 3.5 41.9 22.8 16.15 18.95 16.15 44.2 0 9.15-2.35 18-2.35 9-6.9 16.75-2.1 3.65-1.05 6.95.95 2.95 3.95 4.55 3 1.55 6.15.85 3.45-.75 5.4-4 11.9-19.8 11.9-43.15 0-14.65-4.65-28.05-4.7-13.45-13.85-24.85l1.55-1.35q9.35 11.6 14.2 25.5 4.9 13.9 4.9 28.8"/><path fill="#0d131a" d="M97.75 18.9q0 13.3.3 20.25l-2.1-.45q0-13.4.35-19.8 0-1.85.75-1.85.7 0 .7 1.85M97.85 87.2q0 4.3-3.05 7.4-3.1 3.05-7.45 3.05-4.3 0-7.4-3.05-3.05-3.1-3.05-7.4 0-4.35 3.05-7.4 3.1-3.1 7.4-3.1 4.35 0 7.45 3.1 3.05 3.05 3.05 7.4"/><path fill="#fff" d="M86 80.45q1.6 0 2.7 1.1 1.1 1.15 1.1 2.7 0 1.6-1.1 2.7-1.15 1.15-2.7 1.15-1.6 0-2.75-1.15-1.1-1.1-1.1-2.7t1.1-2.7q1.15-1.1 2.75-1.1"/><path fill="#0d131a" d="M95.3 37.95q18.05 2.25 30.2 16.5 12.05 14.15 12.05 32.75.05 21.8-14.6 36.2-14.4 14.2-35.6 14.2-21.1 0-35.5-14Q37.1 109.2 37.1 87.2q0-19.1 12.55-33.35 12.35-14 30-15.9 1.45-.2 1.6.5.1.7-1.4.9-16.35 2.8-28.2 16.3Q39.3 69.6 39.3 87.2q0 20 14.05 34 14.05 14.05 34.05 14.05 20 0 34-14.05 13.95-14 13.95-34 0-17.7-11.7-31.3Q112.2 42.55 95.1 39.4q-1.7-.3-1.6-.95.1-.7 1.8-.5"/></svg>