<svg xmlns="http://www.w3.org/2000/svg" width="101" height="195" viewBox="0 0 100.5 194.65"><path fill="#3e3a39" d="M29.2 76.1q-8.75 8.8-8.75 21.15 0 12.35 8.75 21.1 8.75 8.75 21.1 8.75 12.35 0 21.15-8.75 8.75-8.75 8.75-21.1 0-12.35-8.75-21.15-8.75-8.75-21.15-8.75-12.35 0-21.1 8.75m58.95-10.2q11.3 13.65 11.3 31.35 0 17.65-11.3 31.3-11.2 13.45-28.2 16.85v38.2q0 4-2.8 6.8-2.85 2.85-6.85 2.85-3.95 0-6.8-2.85-2.8-2.8-2.8-6.8v-38.2q-17-3.4-28.2-16.85Q1.2 114.9 1.2 97.25q0-17.7 11.3-31.35 11.2-13.45 28.2-16.85v-38.2q0-3.95 2.8-6.8 2.85-2.8 6.8-2.8 4 0 6.85 2.8 2.8 2.8 2.8 6.8v38.2q17 3.4 28.2 16.85"/><path fill="#fff" d="M29.2 76.1q8.75-8.75 21.1-8.75 12.4 0 21.15 8.75 8.75 8.8 8.75 21.15 0 12.35-8.75 21.1-8.8 8.75-21.15 8.75-12.35 0-21.1-8.75-8.75-8.75-8.75-21.1 0-12.35 8.75-21.15"/><path fill="#dbdcdc" d="M51.45 127.1q-15 0-23.35-9.5-8.35-9.4-7.25-24.85 2.3 13.9 11.25 21.45 8.05 6.9 18.8 6.65 10.55-.25 18.55-7.15 8.65-7.45 10.5-19.85 1.4 11.9-6.1 22.05-8.3 11.2-22.4 11.2"/><path fill="#0d131a" d="M50.4 0q4.3 0 7.3 2.75 3.35 3.05 3.4 8.3.2 18.95-.2 38.35l-1.95-.35.1-20.15-.15-17.8q-.1-4-2.75-6.35-2.4-2.15-5.75-2.15-3.4-.05-5.8 2.05Q41.95 7 41.85 11q-.55 19.55-.2 38.1l-2 .3q-.6-25.5-.2-38.35.15-5.25 3.55-8.3Q46.05 0 50.4 0M59 145.6l1.95-.45q-.2 6.7 0 19.8l.25 18.7q.05 5.2-3.35 8.25-3.1 2.75-7.55 2.75-4.5 0-7.55-2.75-3.35-3.1-3.25-8.3.55-21 .2-38.35l1.95.35q.25 17.8.05 38-.05 4 2.6 6.4 2.4 2.1 5.9 2.1 3.45 0 5.85-2.1 2.65-2.4 2.65-6.4-.1-18.95.3-38M28.45 75.2q8.95-8.85 21.85-8.85 13.15 0 22.2 9.1 8.95 9 8.95 21.9 0 12.7-8.85 21.65-9.05 9.15-22.3 9.15-13.55 0-22.45-9.3-8.5-8.9-8.5-21.6 0-13.05 9.1-22.05m-6.9 22.05q0 12.05 8.35 20.45 8.35 8.4 20.4 8.4 12.05 0 20.4-8.4 8.35-8.35 8.35-20.45 0-12.05-8.35-20.5T50.3 68.3q-12.05 0-20.4 8.45-8.35 8.4-8.35 20.5"/><path fill="#0d131a" d="M60.8 97.25q0 4.3-3.05 7.4-3.1 3.05-7.45 3.05-4.3 0-7.4-3.05-3.05-3.1-3.05-7.4 0-4.35 3.05-7.4 3.1-3.1 7.4-3.1 4.35 0 7.45 3.1 3.05 3.05 3.05 7.4"/><path fill="#fff" d="M48.9 90.5q1.6 0 2.75 1.1 1.1 1.1 1.1 2.7t-1.1 2.75q-1.15 1.1-2.75 1.1t-2.7-1.1q-1.1-1.15-1.1-2.75 0-1.55 1.1-2.7 1.15-1.1 2.7-1.1"/><path fill="#0d131a" d="M43.05 49.4Q25.4 52.7 13.9 66.05 2.3 79.55 2.3 97.25q0 17.8 11.7 31.35 11.6 13.45 29.3 16.5 1.55.3 1.45.95-.1.7-1.65.5-18.3-2.3-30.75-16.55Q0 115.75 0 97.25 0 78.6 12.1 64.5q12.2-14.25 30.7-16.55 1.4-.2 1.5.5.1.7-1.25.95M100.5 97.25q0 18.75-12.15 32.9-12.35 14.4-31 16.45-1.55.15-1.65-.5-.15-.65 1.45-.95Q75.2 141.8 86.7 128.5q11.6-13.4 11.6-31.25 0-17.9-11.4-31.2Q75.65 52.9 57.8 49.4q-1.35-.25-1.25-.95.1-.65 1.5-.45Q76.95 50.6 89 65.3q11.5 14 11.5 31.95"/></svg>