<svg xmlns="http://www.w3.org/2000/svg" width="177" height="199" viewBox="-0.2 0 176.65 199"><path fill="#3e3a39" d="M136.1 78.3h18.4q-3.6-24.7-22.3-41.2-19-16.7-44.25-16.7-11.15 0-21.65 3.6-10.15 3.45-18.8 9.9l13.2 13.2q12.35-8.3 27.25-8.3 17.7 0 31.3 11.3 13.45 11.15 16.85 28.2m-18.3 9.65q0-12.35-8.75-21.15-8.75-8.75-21.1-8.75-12.35 0-21.1 8.75-8.75 8.8-8.75 21.15 0 12.35 8.75 21.1 8.75 8.75 21.1 8.75 12.35 0 21.1-8.75 8.75-8.75 8.75-21.1m50.05-33.75q6.85 16.1 6.85 33.75 0 4-2.8 6.8t-6.8 2.8h-29q-3.4 17.05-16.85 28.2-13.6 11.3-31.3 11.3-20.3 0-34.7-14.4-14.4-14.4-14.4-34.7 0-14.85 8.25-27.25L33.9 47.5q-6.45 8.6-9.9 18.75-3.55 10.5-3.55 21.7 0 27.9 19.8 47.7 9.35 9.35 21.45 14.5 12.55 5.3 26.25 5.3 4 0 6.8 2.8 2.8 2.85 2.8 6.8v22.8q0 4-2.8 6.8-2.85 2.85-6.8 2.85-3.95 0-6.8-2.85-2.85-2.8-2.85-6.8v-13.7q-32.65-3.65-54.8-28.2-22.3-24.75-22.3-58 0-17.6 6.85-33.75 6.55-15.55 18.6-27.6 12-12 27.55-18.6 16.15-6.85 33.75-6.85T121.7 8q15.55 6.6 27.55 18.6 12.05 12.05 18.6 27.6"/><path fill="#fff" d="M117.8 87.95q0 12.35-8.75 21.1-8.75 8.75-21.1 8.75-12.35 0-21.1-8.75-8.75-8.75-8.75-21.1 0-12.35 8.75-21.15 8.75-8.75 21.1-8.75 12.35 0 21.1 8.75 8.75 8.8 8.75 21.15"/><path fill="#dbdcdc" d="M89.05 117.85q-14.2 0-22.9-9.2-9.5-10.05-7.4-26.45.65 13.25 9.35 21.05 7.9 7.05 19.15 7.3 11.25.2 19.7-6.4 9.3-7.3 10.9-20 2 12.2-6.8 22.85-8.95 10.85-22 10.85"/><path fill="#0d131a" d="M31.85 46.2q-.9-.95-.4-1.45.55-.55 1.4.45l7.05 7.25 7.75 7.4-1.35 1.5Q37 51.9 31.85 46.2"/><path fill="#0d131a" d="m33.2 47 1.4 1.1Q22.1 64.8 21.35 85.25q-.7 19.6 9.45 36.55 8.9 14.9 23.8 23.6 15.4 8.9 33.35 8.9 4.5 0 7.5 2.9 3.1 3.05 3.1 7.9l.1 22.8q-.05 5.2-3.3 8.3-2.95 2.8-7.2 2.8t-7.25-2.75q-3.35-3.1-3.55-8.4-.3-8.2.25-16.45.1-1.6.8-1.6.7 0 .65 1.6-.2 7.65.3 16.45.2 4.05 2.9 6.4 2.4 2.15 5.8 2.15t5.75-2.1q2.6-2.35 2.65-6.4v-22.85q-.05-3.7-2.45-6.05-2.4-2.4-6.05-2.4-18.35 0-34.35-9.3Q38.1 138.25 29 123q-10.4-17.4-9.75-37.15Q19.9 64.7 33.2 47"/><path fill="#0d131a" d="M173.4 95.75q-3.1 3.15-8.1 3.35l-14.4-.05-14.8-.45.2-2.1 14.5.2q10.35-.05 14.3-.3 4.25-.25 6.5-2.55 2.15-2.25 2.15-6.05 0-17.45-6.75-33.35-6.5-15.35-18.35-27.15-11.85-11.8-27.3-18.25-15.9-6.7-33.4-6.7-17.9 0-34.05 7.1-15.35 6.75-27.2 19-11.6 12-18 27.35-6.5 15.6-6.5 32.15 0 32.95 21.75 57.25 21.75 24.35 54.45 28l-.15 1.9q-34.35-3.55-56.45-28.2Q-.2 122.3 0 87.95q.1-18.75 7.35-35.4 6.9-15.8 19.4-27.8 12.25-11.8 28-18.2Q70.75 0 87.95 0q18.3 0 34.8 6.9 15.9 6.65 28.1 18.85 12.15 12.15 18.75 28 6.85 16.3 6.85 34.25 0 4.65-3.05 7.75"/><path fill="#0d131a" d="M118.9 87.9q0 12.55-8.75 21.55-9 9.3-22.15 9.3-13.4 0-22.35-9.15-8.7-8.9-8.7-21.65 0-13.9 9.65-22.75 9-8.2 21.35-8.05 12.8.15 21.8 8.95 9.15 8.9 9.15 21.8M87.95 59q-12.05 0-20.5 8.45-8.4 8.4-8.4 20.5 0 12.05 8.45 20.5T88 116.9q12 0 20.35-8.45 8.35-8.45 8.35-20.5 0-12.1-8.35-20.5Q100 59 87.95 59M157.05 79.05l-20.75.35-.3-2.1 21.05.3q1.7 0 1.7.65 0 .7-1.7.8"/><path fill="#0d131a" d="M115.45 25.1q17.05 7.65 27.75 22.6 9.85 13.7 12.25 30.4l-1.95.05q-3.05-17.35-13.35-30.75-10.25-13.35-25.6-20.2-15.25-6.85-32.1-5.45-18.4 1.55-34.3 12.85l-1.25-1.45q16.65-12.5 36.3-13.85 16.8-1.15 32.25 5.8"/><path fill="#0d131a" d="M59.85 47.5q-5.1-5.7-14.5-14.75-.95-.95-.5-1.45.5-.5 1.5.4 8.8 7.6 15.2 14.65l-1.7 1.15M98.4 87.95q0 4.3-3.05 7.4-3.05 3.05-7.4 3.05-4.35 0-7.4-3.05-3.05-3.1-3.05-7.4 0-4.35 3.05-7.4 3.05-3.1 7.4-3.1 4.35 0 7.4 3.1 3.05 3.05 3.05 7.4"/><path fill="#fff" d="M86.55 81.2q1.6 0 2.7 1.1 1.1 1.15 1.1 2.7 0 1.6-1.1 2.7-1.15 1.15-2.7 1.15-1.55 0-2.7-1.15-1.1-1.1-1.1-2.7 0-1.55 1.1-2.7 1.15-1.1 2.7-1.1"/><path fill="#0d131a" d="M137.25 95.25q-2.6 18.5-16.75 30.7-14 12.1-32.5 12.1-20.85 0-35.45-14.4-14.8-14.5-14.8-35.7 0-16.45 10.7-30.45 1.1-1.4 1.65-1 .5.45-.5 1.9-9.75 13.95-9.75 29.55 0 19.35 13.95 33.55 14.25 14.45 34.2 14.45 17.7 0 31.05-11.65 13.15-11.45 16.8-29.3.3-1.6.95-1.45.7.1.45 1.7M109.65 42.75Q121 48.35 128.15 58q7.3 9.85 9.1 22.55.25 1.65-.45 1.75-.65.05-1-1.55-2.3-12.2-9.45-21.6-7.05-9.3-17.65-14.45-10.8-5.25-23.7-4.5-14.25.8-26 8.95-1.4.95-1.8.4-.4-.55.9-1.55 12.05-9.15 27.45-9.9 13.25-.7 24.1 4.65"/></svg>