<svg xmlns="http://www.w3.org/2000/svg" width="176" height="176" viewBox="0 0 175.6 175.85"><path fill="#3e3a39" d="M122.55 53.2q14.4 14.45 14.4 34.75 0 17.65-11.35 31.3-11.15 13.45-28.15 16.85v18.65q24.65-3.55 41.2-22.45 16.7-19.05 16.7-44.35 0-27.95-19.8-47.75T87.8 20.4q-27.9 0-47.7 19.8Q20.3 60 20.3 87.95q0 25.3 16.7 44.35 16.5 18.9 41.2 22.45V136.1q-17-3.4-28.2-16.85-11.3-13.65-11.3-31.3 0-20.3 14.4-34.75 14.4-14.4 34.7-14.4 20.35 0 34.75 14.4m-4.85 34.75q0-12.35-8.75-21.15-8.75-8.75-21.15-8.75-12.35 0-21.1 8.75-8.75 8.8-8.75 21.15 0 12.35 8.75 21.1 8.75 8.75 21.1 8.75 12.35 0 21.15-8.75 8.75-8.75 8.75-21.1m50.05-33.75q6.85 16.15 6.85 33.75 0 17.65-6.85 33.75-6.6 15.55-18.6 27.55-12.05 12.05-27.6 18.6-16.1 6.85-33.75 6.85t-33.75-6.85q-15.55-6.55-27.55-18.6-12.05-12-18.6-27.55-6.85-16.1-6.85-33.75 0-17.6 6.85-33.75 6.55-15.55 18.6-27.6 12-12 27.55-18.6Q70.2 1.15 87.8 1.15T121.55 8q15.55 6.6 27.6 18.6 12 12.05 18.6 27.6"/><path fill="#fff" d="M117.7 87.95q0 12.35-8.75 21.1-8.8 8.75-21.15 8.75-12.35 0-21.1-8.75-8.75-8.75-8.75-21.1 0-12.35 8.75-21.15 8.75-8.75 21.1-8.75 12.4 0 21.15 8.75 8.75 8.8 8.75 21.15"/><path fill="#dbdcdc" d="M87.85 117.9q-14.25 0-23.05-10.7-8.3-10.15-6.55-22.55 1.85 12.6 10.7 19.85 8 6.55 18.9 6.7 10.75.15 19-5.95 9-6.65 11.1-18.2.25 11.35-7.55 20.55-8.7 10.3-22.55 10.3"/><path fill="#0d131a" d="M175.6 87.9q0 18.2-6.85 34.6-6.65 15.85-18.8 27.9-12.05 12.1-27.85 18.65-16.3 6.8-34.25 6.8-17.65 0-33.85-6.7-15.8-6.55-27.95-18.5Q13.75 138.55 7 122.8 0 106.3 0 88q0-18.55 7.1-35.1 6.8-15.8 19.2-27.85 12.2-11.9 28-18.4Q70.4 0 87.85 0q18 0 34.3 6.75 15.8 6.55 27.85 18.6 12.15 12.05 18.75 27.85 6.85 16.4 6.85 34.7m-8.85-33.3q-6.5-15.4-18.35-27.25Q136.55 15.45 121.1 9q-15.9-6.75-33.4-6.75t-33.4 6.7q-15.4 6.5-27.2 18.35Q15.25 39.15 8.75 54.55q-6.7 15.9-6.7 33.4t6.75 33.4q6.5 15.4 18.4 27.25 11.85 11.85 27.25 18.35 15.95 6.7 33.45 6.7 17.5 0 33.4-6.7 15.35-6.5 27.2-18.35 11.8-11.8 18.3-27.2 6.7-15.9 6.7-33.4t-6.75-33.4"/><path fill="#0d131a" d="m96.35 136.4 2.25-.55q-.45 7.25-.45 20.8 0 1.45-.75 1.4-.75-.1-.8-1.55-.45-8.75-.25-20.1"/><path fill="#0d131a" d="M149 62.7q-5.05-11.85-14.25-21.15Q115.05 21.5 87.8 21.5q-27.6 0-47.25 20.1-9.05 9.3-14.05 21.2-5.15 12.2-5.15 25.15 0 24.75 16.25 43.55 16.2 18.8 40.7 22.3l-.3 1.85Q52.65 152 36 132.9q-16.75-19.2-16.75-44.95 0-28.85 20.05-48.75 19.95-19.85 48.5-19.85 28.3 0 48.4 20 20.15 20.1 20.15 48.65 0 25.95-15.9 44.65-16.3 19.2-42.95 23l-.15-1.85Q122 150.3 138 131.9q16.2-18.6 16.2-43.95 0-13-5.2-25.25"/><path fill="#0d131a" d="m77.2 135.9 1.95.45q.3 13.5.1 20.3-.05 1.8-.95 1.8-.9 0-.85-1.8.15-9.5-.25-20.75M98.25 87.95q0 4.3-3.05 7.4-3.05 3.05-7.4 3.05-4.3 0-7.4-3.05-3.05-3.1-3.05-7.4 0-4.35 3.05-7.4 3.1-3.1 7.4-3.1 4.35 0 7.4 3.1 3.05 3.05 3.05 7.4"/><path fill="#fff" d="M86.4 81.2q1.6 0 2.7 1.1 1.15 1.15 1.15 2.7 0 1.6-1.15 2.75-1.1 1.1-2.7 1.1t-2.7-1.1Q82.6 86.6 82.6 85q0-1.55 1.1-2.7 1.15-1.1 2.7-1.1"/><path fill="#0d131a" d="M118.85 87.9q0 12.7-9 21.75-9.1 9.1-22.05 9.1-13.2 0-22.2-9.2-8.75-8.95-8.75-21.6 0-13.35 9.05-22.15 8.9-8.65 21.9-8.65 13.35 0 22.4 9.35 8.65 9 8.65 21.4m-31-28.95q-12.05 0-20.5 8.45-8.4 8.45-8.4 20.55 0 12.05 8.4 20.45 8.4 8.4 20.45 8.4 12.05 0 20.45-8.4 8.4-8.4 8.4-20.45 0-12.05-8.4-20.5-8.4-8.5-20.4-8.5"/><path fill="#0d131a" d="M138.1 87.9q.3 18.6-12.05 32.65-12.35 14-31.3 16.75-1.4.2-1.5-.5-.1-.65 1.3-.95 18-3.8 29.5-16.8 11.85-13.35 11.85-31.1 0-20-14-34Q107.85 39.9 87.85 39.9q-20 0-34.05 14-14.05 14-14.05 34 0 17.5 11.8 31.15 11.5 13.3 28.85 16.7 1.4.25 1.25.95-.1.75-1.45.5-18.9-2.85-30.75-16.75-11.8-13.75-11.8-32.5 0-22.6 15.2-36.8 14.35-13.4 35-13.4 21 0 35.45 14.35 14.5 14.4 14.8 35.8"/></svg>