<svg xmlns="http://www.w3.org/2000/svg" width="104" height="174" viewBox="-1.85 0 104.35 173.65"><path fill="#3e3a39" d="M29.35 65.6q-8.75 8.75-8.75 21.1 0 5.75 2.15 11.05 2.05 5.1 5.8 9.2l1.7 1.7q4.1 3.75 9.2 5.8 5.3 2.15 11.05 2.15 12.35 0 21.1-8.75 8.75-8.8 8.75-21.15 0-5.75-2.15-11.1-2.1-5.15-5.95-9.25L70.7 64.8q-4.1-3.75-9.2-5.8-5.3-2.15-11-2.15-12.35 0-21.15 8.75M84.4 51.3q7.15 6.85 11.1 15.85 4.1 9.3 4.1 19.55 0 18.55-12.3 32.45-12.2 13.8-30.3 16.2L74.65 153h11.6q4 0 6.8 2.8 2.8 2.85 2.8 6.85 0 4-2.8 6.8t-6.8 2.8h-15.6q-4 0-6.8-2.8l-49.65-49.7q-6.1-6.7-9.4-15-3.45-8.7-3.45-18.05 0-18.5 12.3-32.4 12.2-13.8 30.3-16.2L26.3 20.45H14.75q-4 0-6.85-2.8-2.8-2.85-2.8-6.85 0-4 2.8-6.8 2.85-2.8 6.85-2.8H30.3q4 0 6.8 2.8l47.3 47.3"/><path fill="#fff" d="M29.35 65.6q8.8-8.75 21.15-8.75 5.7 0 11 2.15 5.1 2.05 9.2 5.8l1.55 1.55q3.85 4.1 5.95 9.25 2.15 5.35 2.15 11.1 0 12.35-8.75 21.15-8.75 8.75-21.1 8.75-5.75 0-11.05-2.15-5.1-2.05-9.2-5.8l-1.7-1.7q-3.75-4.1-5.8-9.2-2.15-5.3-2.15-11.05 0-12.35 8.75-21.1"/><path fill="#dbdcdc" d="M50.75 116.65q-14.15 0-23.05-10.5-8.3-9.85-6.95-22.05 2.05 12.4 10.95 19.35 8.05 6.3 18.9 6.3 10.75 0 18.95-6 8.9-6.55 11-17.65 0 11.5-7.5 20.45-8.55 10.1-22.3 10.1"/><path fill="#0d131a" d="M28.65 64.8q9-8.9 21.8-8.9 12.75 0 21.75 8.75 9.25 8.95 9.25 22.1 0 13.1-9.05 22-8.95 8.75-21.85 8.75-12.95 0-21.95-9-9-8.95-9-21.75 0-13 9.05-21.95m-7.05 22q0 12.05 8.45 20.4 8.4 8.4 20.45 8.4 12.05 0 20.45-8.4 8.4-8.4 8.4-20.45 0-12.1-8.4-20.55-8.4-8.45-20.45-8.45-12.05 0-20.45 8.5Q21.6 74.7 21.6 86.8"/><path fill="#0d131a" d="M60.95 86.7q0 4.35-3.05 7.45-3.1 3.05-7.4 3.05-4.35 0-7.4-3.05-3.1-3.1-3.1-7.45 0-4.3 3.1-7.4 3.05-3.05 7.4-3.05 4.3 0 7.4 3.05 3.05 3.1 3.05 7.4"/><path fill="#fff" d="M49.1 80q1.6 0 2.7 1.1 1.1 1.15 1.1 2.7 0 1.6-1.1 2.7-1.15 1.15-2.7 1.15-1.6 0-2.75-1.15-1.1-1.1-1.1-2.7t1.1-2.7Q47.5 80 49.1 80"/><path fill="#0d131a" d="M42.6 38.15 24.8 20.5l2.75-.3 17.5 17.55-2.45.4"/><path fill="#0d131a" d="M85.15 50.45q11.45 11.3 14.5 26.3 2.85 13.95-2.1 27.55-4.9 13.45-15.8 22.1-11.6 9.15-26.6 9.95-1.75.1-1.8-.6-.05-.65 1.7-.85 14.2-1.55 25.15-10.55Q90.6 115.8 95.25 103q4.75-12.95 2.1-26.1-2.9-14.15-13.8-24.85L59.75 28.3 36.35 4.8q-1.4-1.4-2.75-1.95t-3.35-.55l-15.6.05q-4.05 0-6.4 2.65-2.15 2.4-2.1 5.9.05 3.45 2.2 5.85 2.4 2.65 6.45 2.65l14.3-.05q1.85.05 1.75.85-.05.85-1.9.95l-14.2.45q-5.4 0-8.55-3.4-2.85-3.05-2.85-7.4 0-4.4 2.85-7.45Q9.35 0 14.75 0L30.3.05q2.4 0 4.2.8 1.7.75 3.45 2.45l47.2 47.15"/><path fill="#0d131a" d="m58.35 135.3 17.8 17.65-2.7.3L55.9 135.7l2.45-.4"/><path fill="#0d131a" d="M45.7 36.8q2.3-.2 2.45.7.1.85-2.2 1.05Q31.7 39.7 20.7 48.65 10.3 57.1 5.6 70q-4.7 13.1-2 26.35 2.9 14.3 13.8 25l47.2 47.3q1.4 1.4 2.75 1.95l3.35.55 15.65-.05q4 0 6.3-2.65 2.1-2.4 2.05-5.85-.05-3.5-2.15-5.9-2.4-2.65-6.4-2.65l-14.3.05q-1.85-.05-1.9-.95-.1-.9 1.75-1l14.5-.55q5.25 0 8.35 3.45 2.8 3.05 2.8 7.5t-2.8 7.5q-3.05 3.4-8.35 3.4l-15.45.2q-4.7 0-7.9-3.2l-47.2-47q-11.45-11.3-14.6-26.3Q-1.85 83.2 3 69.6q4.9-13.55 15.8-22.35 11.65-9.3 26.9-10.45"/></svg>