<svg xmlns="http://www.w3.org/2000/svg" width="118" height="181" viewBox="-0.05 -0.15 118.45 180.6"><path fill="#3e3a39" d="M80.75 37.6q-8.75-8.75-21.1-8.75-12.35 0-21.15 8.75-8.75 8.8-8.75 21.15 0 12.35 8.75 21.1 8.8 8.75 21.15 8.75 12.35 0 21.1-8.75 8.75-8.75 8.75-21.1 0-12.35-8.75-21.15M113.8 4.55q2.8 2.8 2.8 6.8t-2.8 6.8L100.5 31.5q8.25 12.4 8.25 27.25 0 17.65-11.3 31.3-11.2 13.45-28.2 16.85v38.5q0 14.05-9.95 23.95-9.9 9.95-23.95 9.95-14 0-23.95-9.95-9.95-9.9-9.95-23.95 0-4 2.8-6.8 2.85-2.8 6.85-2.8 4 0 6.8 2.8 2.8 2.85 2.8 6.8 0 6.05 4.3 10.35t10.35 4.3q6.1 0 10.35-4.3Q50 151.5 50 145.4v-38.5q-17-3.4-28.2-16.85-11.3-13.65-11.3-31.3 0-20.3 14.4-34.75Q39.35 9.6 59.65 9.6q14.85 0 27.2 8.3L100.2 4.55q2.8-2.8 6.8-2.8t6.8 2.8"/><path fill="#fff" d="M80.75 37.6q8.75 8.8 8.75 21.15 0 12.35-8.75 21.1Q72 88.6 59.65 88.6q-12.35 0-21.15-8.75-8.75-8.75-8.75-21.1 0-12.35 8.75-21.15 8.8-8.75 21.15-8.75 12.35 0 21.1 8.75"/><path fill="#dbdcdc" d="M81.8 79.05q-8.85 9.7-21.65 9.8-11.9.15-20.8-8.15-10-9.3-9.7-24.5 3 12.95 11.8 19.95 8.05 6.35 18.4 6.05 10.15-.25 18.2-6.85 8.6-7.05 11.25-18.9 1.4 12.8-7.5 22.6"/><path fill="#0d131a" d="M113.1 17.35q2.8-3.05 2.65-6.6-.15-3.2-2.5-5.6-2.35-2.35-5.55-2.5-3.55-.1-6.55 2.7-8.9 8.4-13.35 13.05l-1.7-1.2q7-7.5 13.3-13.6 3.85-3.75 8.5-3.6 4.15.15 7.25 3.2 3.05 3.05 3.15 7.3.1 4.65-3.75 8.7l-13.5 13-1-1.65q7.75-7.4 13.05-13.2M81.4 80.95q-8.95 8.65-21.75 8.65-12.85 0-21.9-9.05-9.05-9-9.05-21.8 0-12.75 8.85-21.65 9-9.05 22.1-9.05 12.6 0 21.55 8.55 9.3 8.85 9.3 22.2 0 13.25-9.1 22.15m-21.75-51.1q-12.05 0-20.5 8.45-8.4 8.4-8.4 20.5 0 12.05 8.4 20.4 8.45 8.4 20.5 8.4T80 79.2q8.35-8.35 8.35-20.4 0-12.1-8.35-20.5-8.35-8.45-20.35-8.45M70.35 145.45q-.2 15.5-10.05 25.3-9.8 9.7-24.95 9.7-15.3 0-25.25-10Q.15 160.55 0 145.3q-.05-5.15 3.35-8.2 3.1-2.75 7.55-2.7 4.45 0 7.55 2.75 3.45 3.05 3.45 8.2 0 5.8 3.85 9.75 3.9 4 9.6 4 5.65 0 9.45-4 3.7-3.85 4-9.7.75-17.1.2-38.55l1.95.25q.8 21.3.1 38.3-.3 7.35-4.95 11.8-4.35 4.1-10.65 4.1-7.35-.05-11.75-4.5-4.35-4.4-4.35-11.4 0-4.05-2.6-6.45-2.4-2.15-5.8-2.15t-5.75 2.15q-2.65 2.4-2.65 6.45 0 13.75 9.55 23.35 9.55 9.6 23.25 9.6 13.6 0 23.05-9.6 9.3-9.5 9.7-23.35.6-18.4.05-38.3l2.1-.45q.45 16.5.1 38.8"/><path fill="#0d131a" d="M70.1 58.75q0 4.3-3.05 7.4-3.1 3.05-7.4 3.05-4.35 0-7.4-3.05-3.1-3.1-3.1-7.4 0-4.35 3.1-7.4 3.05-3.1 7.4-3.1 4.3 0 7.4 3.1 3.05 3.05 3.05 7.4"/><path fill="#fff" d="M58.25 52q1.6 0 2.7 1.1 1.1 1.15 1.1 2.7 0 1.6-1.1 2.7-1.15 1.15-2.7 1.15-1.6 0-2.75-1.15-1.1-1.1-1.1-2.7t1.1-2.7q1.15-1.1 2.75-1.1"/><path fill="#0d131a" d="M88.35 19.75q-13.3-9.05-28.7-9.05-19.9 0-34.05 14.3-14.05 14.15-14.05 33.75 0 17.95 10.95 30.9 11 13.05 29.95 16.95 1.4.25 1.25.95-.1.65-1.45.5-18.75-2.05-30.8-15.7Q9.25 78.5 9.3 58.7q.05-22 15.5-36.45Q39.45 8.5 59.7 8.5q8.15 0 15.75 2.6 7.7 2.6 13.75 7.5 1.2 1 .8 1.5-.35.5-1.65-.35M107.4 43.1q2.5 7.5 2.5 15.7 0 19.8-12.35 33.5-11.85 13.1-30.3 15.7-1.6.25-1.75-.45-.1-.65 1.5-1 18.35-3.75 29.5-16.9 11.1-13.1 11.1-30.9 0-7.9-2.15-14.8-2.2-7.05-6.9-14-.8-1.25-.3-1.65.5-.4 1.45.75 5.1 6.3 7.7 14.05"/></svg>