<svg xmlns="http://www.w3.org/2000/svg" width="109" height="172" viewBox="-0.25 -0.2 109.05 171.75"><path fill="#3e3a39" d="M79.65 37.5q-8.75-8.75-21.15-8.75-12.35 0-21.1 8.75-8.75 8.8-8.75 21.15 0 12.35 8.75 21.1 8.75 8.75 21.1 8.75 12.35 0 21.15-8.75Q88.4 71 88.4 58.65q0-12.35-8.75-21.15m28 21.15q0 20.3-14.4 34.7-14.45 14.4-34.75 14.4-8.25 0-16.05-2.7-7.45-2.6-13.8-7.5v62.8q0 4-2.8 6.85Q23 170 19 170q-4 0-6.8-2.8-2.8-2.85-2.8-6.85V58.65q0-14.85 8.25-27.25L4.35 18.05q-2.85-2.8-2.85-6.8t2.85-6.8q2.8-2.8 6.8-2.8t6.8 2.8l13.3 13.35q12.4-8.3 27.25-8.3 20.35 0 34.75 14.4 14.4 14.45 14.4 34.75"/><path fill="#fff" d="M79.65 37.5q8.75 8.8 8.75 21.15 0 12.35-8.75 21.1-8.8 8.75-21.15 8.75-12.35 0-21.1-8.75-8.75-8.75-8.75-21.1 0-12.35 8.75-21.15 8.75-8.75 21.1-8.75 12.4 0 21.15 8.75"/><path fill="#dbdcdc" d="M28.9 53.15q1.05 14.2 10.15 22.15 8.1 7.1 19.65 7 11.3-.1 19.65-6.95Q87.4 67.9 88.4 55.6q.75 13.5-8 23.35-8.8 9.85-21.65 9.85-13.4 0-22.4-10.1-9.4-10.55-7.45-25.55"/><path fill="#0d131a" d="m32.1 17.25-1.65 1.35-13.3-13.35q-2.9-2.9-6.45-2.7-3.2.2-5.6 2.65-2.45 2.45-2.6 5.7-.15 3.55 2.7 6.45L18.25 30.5l-1.3 1.8L3.45 19Q-.25 15.25 0 10.65q.15-4.2 3.25-7.3Q6.35.2 10.45 0q4.6-.2 8.3 3.5L32.1 17.25M89.65 58.65q0 12.55-8.95 21.65-9.15 9.25-22.2 9.25-13.25 0-22.3-9.1-8.9-8.95-8.9-21.8 0-12.35 8.3-21.3 8.9-9.65 22.9-9.65 13.55 0 22.55 9.45 8.6 9 8.6 21.5M58.4 29.7q-12.3 0-20.5 8.65-8 8.35-8 20.3 0 12.05 8.3 20.45 8.3 8.4 20.3 8.4 12.05 0 20.4-8.4 8.3-8.4 8.3-20.45 0-12.1-8.4-20.5-8.35-8.45-20.4-8.45"/><path fill="#0d131a" d="M68.95 58.65q0 4.3-3.05 7.4-3.05 3.05-7.4 3.05-4.3 0-7.4-3.05-3.05-3.1-3.05-7.4 0-4.35 3.05-7.4 3.1-3.1 7.4-3.1 4.35 0 7.4 3.1 3.05 3.05 3.05 7.4"/><path fill="#fff" d="M57.1 51.9q1.6 0 2.7 1.1 1.15 1.15 1.15 2.7 0 1.6-1.15 2.7-1.1 1.15-2.7 1.15-1.55 0-2.7-1.15-1.1-1.1-1.1-2.7 0-1.55 1.1-2.7 1.15-1.1 2.7-1.1"/><path fill="#0d131a" d="M10.75 42.85Q13.3 34.95 18.3 29q1.15-1.4 1.8-.95.65.4-.5 1.8-9.2 11.25-9.2 28.85l.3 101.65q0 4 2.6 6.35 2.35 2.1 5.75 2.1t5.75-2.1q2.6-2.35 2.6-6.35l.3-63.5 1.9 1.6.2 61.9q0 5.3-3.35 8.4-3.05 2.8-7.4 2.8-4.4 0-7.45-2.8-3.35-3.1-3.35-8.4L8.3 58.6q0-8.3 2.45-15.75"/><path fill="#0d131a" d="M93.8 94.9q-14.55 14-35.3 14-8.85 0-17.2-3.2t-15.05-9.1q-1.3-1.1-.9-1.6.45-.5 1.8.5 15.1 11.1 31.35 11.1 20.05 0 34.05-14 14-14 14-34 0-20.05-14.05-34.2-14.05-14.2-34.05-14.2-15.3 0-28.7 9.5-1.3.95-1.75.35-.4-.65.9-1.65 12.95-9.95 29.6-9.95 20.65 0 35.35 14.35 14.95 14.6 14.95 35.85 0 21.75-15 36.25"/></svg>