<svg xmlns="http://www.w3.org/2000/svg" width="139" height="177" viewBox="0 0 138.85 177.35"><path fill="#3e3a39" d="M29.1 67.5q-8.75 8.75-8.75 21.15 0 12.35 8.75 21.1 8.75 8.75 21.1 8.75 12.35 0 21.1-8.75 8.75-8.75 8.75-21.1 0-12.35-8.75-21.15-8.75-8.75-21.1-8.75-12.35 0-21.1 8.75M84.25 8.05q15.65 6.65 27.8 18.75 12.1 12.1 18.75 27.8 6.9 16.3 6.9 34.05 0 17.75-6.9 34.05-6.65 15.7-18.75 27.8-12.1 12.1-27.8 18.75-16.3 6.9-34.05 6.9-4 0-6.8-2.8-2.85-2.85-2.85-6.85 0-3.95 2.85-6.8 2.8-2.8 6.8-2.8 28.25 0 48.25-20 20-20.05 20-48.25 0-25.55-16.95-44.75-16.7-18.95-41.7-22.55v19.1q17 3.4 28.2 16.85 11.3 13.65 11.3 31.35 0 20.3-14.4 34.7-14.4 14.4-34.7 14.4-20.3 0-34.7-14.4-14.4-14.4-14.4-34.7 0-17.7 11.3-31.35 11.15-13.45 28.15-16.85v-29.7q0-3.95 2.85-6.8 2.8-2.8 6.8-2.8 17.75 0 34.05 6.9"/><path fill="#fff" d="M29.1 67.5q8.75-8.75 21.1-8.75 12.35 0 21.1 8.75 8.75 8.8 8.75 21.15 0 12.35-8.75 21.1-8.75 8.75-21.1 8.75-12.35 0-21.1-8.75-8.75-8.75-8.75-21.1 0-12.4 8.75-21.15"/><path fill="#dbdcdc" d="M50.9 118.45q-12.65.1-21.15-7.7Q20.2 102 20.2 86.5q2.25 11.7 10.45 18.85 7.65 6.65 17.75 7.2 10.25.55 18.6-5.55 9.2-6.65 13.15-19.35.4 13.45-8.85 22.4-8.6 8.3-20.4 8.4"/><path fill="#0d131a" d="M111.35 27.55Q99.4 15.6 83.9 9.1 67.85 2.35 50.2 2.35q-3.75 0-6.1 2.2-2.5 2.35-2.5 6.3v29.3l-2.15.35-.2-29.75q0-5.1 3.4-8.05Q45.75 0 50.3 0q18.2 0 34.65 6.95 15.9 6.7 28.15 18.95 12.2 12.25 18.85 28.15 6.9 16.5 6.9 34.6 0 18.4-6.85 34.9-6.6 16-18.8 28.15-12.15 12.2-28.1 18.8-16.5 6.85-34.9 6.85-5.3 0-8.4-3.4-2.8-3.05-2.8-7.4 0-4.4 2.85-7.45 3.1-3.4 8.4-3.4 27.95 0 47.5-19.6 19.6-19.55 19.6-47.5 0-24.9-16.35-43.75t-41.15-22.4l.05-1.8q27 3.6 43.75 23.5 15.95 19 15.95 44.45 0 28.75-19.85 48.9-20.05 20.4-49.5 20.65-4.1.05-6.5 2.65-2.15 2.35-2.15 5.75t2.15 5.75q2.4 2.6 6.5 2.6 17.65 0 33.7-6.75 15.5-6.55 27.4-18.45 11.95-11.95 18.5-27.45 6.75-16 6.75-33.65t-6.75-33.65q-6.55-15.5-18.5-27.4"/><path fill="#0d131a" d="m60.55 18.85.25 21.65-2-.4q.1-15.7.3-21.25.05-1.7.75-1.7.65 0 .7 1.7M28.35 66.5q8.95-8.7 21.85-8.7 13.3 0 22.25 9.35 8.65 9 8.65 21.45 0 12.75-8.6 21.7-8.9 9.25-22.25 9.25-13.1 0-22.1-8.95-8.95-8.9-8.95-21.9 0-13.3 9.15-22.2M21.3 88.65q0 12.05 8.4 20.45 8.4 8.45 20.45 8.45 12 0 20.3-8.4 8.3-8.35 8.3-20.45 0-12.05-8.3-20.5-8.3-8.5-20.3-8.5-12.05 0-20.45 8.45-8.4 8.45-8.4 20.5"/><path fill="#0d131a" d="M60.65 88.65q0 4.3-3.05 7.4-3.1 3.05-7.4 3.05-4.35 0-7.4-3.05-3.05-3.1-3.05-7.4 0-4.35 3.05-7.4 3.05-3.1 7.4-3.1 4.3 0 7.4 3.1 3.05 3.05 3.05 7.4"/><path fill="#fff" d="M48.8 81.9q1.6 0 2.7 1.1 1.1 1.15 1.1 2.7 0 1.6-1.1 2.75-1.1 1.1-2.7 1.1t-2.7-1.1q-1.15-1.15-1.15-2.75 0-1.55 1.15-2.7 1.1-1.1 2.7-1.1"/><path fill="#0d131a" d="M100.35 88.65q-.1 21.65-14.65 36-14.4 14.2-35.5 14.2-20.95 0-35.4-14Q0 110.45 0 88.6q0-18.65 12.35-32.9 12.45-14.35 30.8-16.4 1.75-.2 1.85.45.1.65-1.65.95Q25.45 44 13.9 57.3 2.15 70.8 2.15 88.6q0 20 14.05 34t34.1 14q20 0 33.95-14Q98.2 108.65 98.2 88.65q0-17.8-11.55-31.25Q75.2 44.05 57.3 40.75q-1.4-.25-1.3-.95.15-.65 1.55-.45Q75.9 41.8 88.1 55.75q12.35 14.05 12.25 32.9"/></svg>