<svg xmlns="http://www.w3.org/2000/svg" width="172" height="161" viewBox="-0.35 -0.2 171.9 160.6"><path fill="#3e3a39" d="M115.5 80q0-12.35-8.75-21.1Q98 50.15 85.6 50.15q-12.35 0-21.1 8.75-8.75 8.75-8.75 21.1 0 12.35 8.75 21.1 8.75 8.75 21.1 8.75 12.35 0 21.15-8.75 8.75-8.75 8.75-21.1m52.3-75.2q2.55 3 2.2 7l-11.35 130.8q-.2 2.75-1.9 5t-4.35 3.2l-5.4.35q-2.75-.6-4.7-2.6l-28.45-28.45q-6.1 4.3-13.2 6.6-7.3 2.4-15.05 2.4-20.3 0-34.7-14.4Q36.5 100.3 36.5 80q0-14.2 7.6-26.15l-14.15-14.2-9.55 110.2q-.35 3.95-3.4 6.55-3.05 2.55-7.05 2.2-3.95-.35-6.5-3.4-2.6-3.05-2.25-7L12.55 17.4q.25-2.8 1.95-5t4.35-3.2q2.6-.95 5.35-.35 2.75.6 4.75 2.6l28.4 28.4q6.1-4.3 13.2-6.6 7.3-2.35 15.05-2.35 20.35 0 34.75 14.4 14.4 14.4 14.4 34.7 0 14.05-7.65 26.15l14.2 14.2 9.5-110.2q.4-4 3.45-6.55 3.05-2.55 7-2.2 3.95.35 6.55 3.4"/><path fill="#fff" d="M115.5 80q0 12.35-8.75 21.1-8.8 8.75-21.15 8.75-12.35 0-21.1-8.75-8.75-8.75-8.75-21.1 0-12.35 8.75-21.1 8.75-8.75 21.1-8.75 12.4 0 21.15 8.75 8.75 8.75 8.75 21.1"/><path fill="#dbdcdc" d="M115.65 81.4q.4 10.7-8.55 19.6-9.4 9.25-21.95 8.95-12.75-.25-21.25-9.05-8.85-9.25-8.2-23.4 2.35 12.05 11.15 18.85 7.95 6.15 18.6 6.35 10.45.15 18.75-5.3 8.85-5.9 11.45-16"/><path fill="#0d131a" d="M116.55 80q0 13.35-9.3 22.3-9 8.7-21.65 8.7-13.1 0-22.1-8.9-9.05-8.95-9.05-22.1 0-12.8 9-21.85 9.05-9.1 22.15-9.1 12.65 0 21.65 8.7 9.3 9 9.3 22.25M85.6 51.15q-12 0-20.3 8.4-8.25 8.4-8.25 20.45 0 12.05 8.25 20.35t20.3 8.3q12.1 0 20.45-8.3T114.4 80q0-12.05-8.35-20.45-8.4-8.4-20.45-8.4M30.15 38.45l14.4 14.4-1.05 1.65-13.8-13.6.45-2.45"/><path fill="#0d131a" d="m56.65 40.65-28.4-28.4q-3.6-3.6-8.8-1.95-5.35 1.7-5.8 7.25l-5.7 68.4L2.3 148.2q-.4 4.25 2 6.9 2.1 2.4 5.55 2.6 3.45.2 6.05-1.8 2.9-2.2 3.4-6.25 2.05-17.55 5.45-56.9 3.1-35.85 4.4-55.35.15-1.75 1-1.7.85 0 .75 1.75-.7 16.3-3.8 53.45-2.95 34.95-5.5 59.1-.55 5.05-4.15 7.85-3.3 2.55-7.65 2.25-4.35-.3-7.1-3.25-3.05-3.35-2.65-8.7l6-68.55 5.45-62.25q.55-7.2 7-9.4 6.35-2.1 11.15 2.7L58.1 39l-1.45 1.65M141.55 119.15l-.15 2.75-14.8-14.85 1.1-1.7 13.85 13.8"/><path fill="#0d131a" d="M171.05 11.85q-1.75 17.8-6.25 71.1l-4.95 59.8q-.6 7.4-7.3 9.4-6.5 1.95-11.25-2.8l-28.15-28.5 1.35-1.35 28.6 28.3q3.75 3.75 8.95 1.85 5.15-1.95 5.55-7.2 1.85-23.65 5.75-68.45 3.9-45.2 5.55-62.3.4-4.2-2-6.8-2.15-2.35-5.6-2.6-3.45-.2-6.1 1.8-2.9 2.2-3.35 6.15-1.55 13.8-5.15 55.2-3.6 41.05-4.65 57.15-.1 1.65-.9 1.6-.8-.1-.75-1.75.85-15.6 4.15-56.15 3.3-40.45 5-56.2.55-5 4.2-7.8 3.35-2.5 7.7-2.25t7.05 3.2q3.05 3.3 2.55 8.6M96.05 80q0 4.3-3.05 7.4-3.05 3.05-7.4 3.05-4.3 0-7.4-3.05-3.05-3.1-3.05-7.4 0-4.35 3.05-7.4 3.1-3.05 7.4-3.05 4.35 0 7.4 3.05 3.05 3.05 3.05 7.4"/><path fill="#fff" d="M84.2 73.25q1.6 0 2.7 1.1Q88 75.5 88 77.1t-1.1 2.7q-1.1 1.1-2.7 1.1-1.55 0-2.7-1.1-1.1-1.1-1.1-2.7t1.1-2.75q1.1-1.1 2.7-1.1"/><path fill="#0d131a" d="M121.2 44.5q13.15 13.15 14.2 32.25.95 18-8.9 31.75-.9 1.25-1.5.9-.55-.35.3-1.75 8.95-14.5 7.9-31.1-1.1-17.65-13.45-30.2Q106.8 33.2 88.4 32.25q-17.6-.9-32.4 9.45-1.15.85-1.55.3-.45-.55.65-1.45Q68.9 29.2 87.75 29.9q19.6.75 33.45 14.6M45.9 52.3q-8.9 14.15-7.8 31 1.2 17.8 13.5 30.35 13 13.2 31.35 14.1 17.5.9 32.25-9.5 1.1-.75 1.5-.2.45.55-.6 1.35-14.3 11.65-32.95 10.85-19.2-.8-33.15-14.75-13.3-13.35-14.55-31.8-1.15-17.8 9.25-32.2.95-1.3 1.5-.95.6.35-.3 1.75"/></svg>