<svg xmlns="http://www.w3.org/2000/svg" width="139" height="139" viewBox="0 0 139.4 139.35"><path fill="#3e3a39" d="M71.45 29.05Q62.7 20.3 50.3 20.3q-12.35 0-21.1 8.75-8.75 8.8-8.75 21.15 0 12.35 8.75 21.1 8.75 8.75 21.1 8.75 12.35 0 21.15-8.75 8.75-8.75 8.75-21.1 0-12.35-8.75-21.15m28 21.15q0 14.85-8.3 27.25l21.9 21.9 8-8q2.8-2.8 6.8-2.8t6.8 2.8q2.8 2.85 2.8 6.85 0 4-2.8 6.8l-7.95 7.95 8.2 8.2q2.8 2.8 2.8 6.8t-2.8 6.8q-2.85 2.8-6.8 2.8-4 0-6.8-2.8l-43.75-43.7Q65.2 99.3 50.3 99.3q-20.3 0-34.7-14.4Q1.2 70.5 1.2 50.2q0-20.3 14.4-34.75Q30 1.05 50.3 1.05q20.35 0 34.75 14.4 14.4 14.45 14.4 34.75"/><path fill="#fff" d="M71.45 29.05q8.75 8.8 8.75 21.15 0 12.35-8.75 21.1-8.8 8.75-21.15 8.75-12.35 0-21.1-8.75-8.75-8.75-8.75-21.1 0-12.35 8.75-21.15 8.75-8.75 21.1-8.75 12.4 0 21.15 8.75"/><path fill="#dbdcdc" d="M49.65 80.15q-12.9 0-21.25-9.55-7.8-8.95-7.9-21.3Q22.9 60.55 31.65 67q8.05 5.95 18.6 6.1 10.55.1 18.75-5.6 8.9-6.25 11.55-17.35-.55 12.4-8.2 20.7-8.55 9.3-22.7 9.3"/><path fill="#0d131a" d="M136.55 97.6q-.2-3.15-2.6-5.4-2.4-2.3-5.65-2.45-3.65-.15-6.7 2.55-5.9 5.15-9.4 8.75-1 1.05-1.55.55-.6-.5.35-1.6 5.4-6.05 9.2-9.5 3.9-3.6 8.55-3.4 4.15.2 7.2 3.25 3 3 3.15 7.1.15 4.55-3.6 8.35-5.3 5.3-9.55 8.75-1.15 1-1.7.55-.6-.45.5-1.55l9.2-9.5q2.75-3 2.6-6.45M72.15 28q9.25 8.8 9.25 22.2 0 13.05-8.95 22T50.3 81.15q-12.8 0-21.75-8.7-9.2-8.95-9.2-22.2 0-13.3 8.85-22.05 8.8-8.75 22.25-8.75 12.75 0 21.7 8.55m-21.9-6.7q-12.05 0-20.4 8.45-8.4 8.4-8.4 20.5 0 12.05 8.45 20.4 8.4 8.4 20.45 8.4 12.05 0 20.45-8.4 8.4-8.4 8.4-20.45 0-12.05-8.45-20.5-8.4-8.4-20.5-8.4"/><path fill="#0d131a" d="m76.75 91.8 1.7-1.25 43.55 43.3q2.85 2.85 6.35 2.7 3.2-.15 5.65-2.5 2.45-2.4 2.65-5.6.25-3.5-2.5-6.45l-8.15-8.4 1.3-1.55 8.4 8.45q3.7 3.7 3.5 8.25-.2 4.1-3.3 7.2-3.1 3.05-7.2 3.25-4.6.15-8.3-3.55L76.75 91.8M90.7 78.35l1.1-1.6 21.9 21.65-1.4 1.6-21.6-21.65M57.75 42.8q3.05 3.05 3.05 7.4 0 4.3-3.05 7.4-3.1 3.05-7.45 3.05-4.3 0-7.4-3.05-3.05-3.1-3.05-7.4 0-4.35 3.05-7.4 3.1-3.05 7.4-3.05 4.35 0 7.45 3.05"/><path fill="#fff" d="M48.9 43.45q1.6 0 2.75 1.1 1.1 1.1 1.1 2.7T51.65 50q-1.15 1.1-2.75 1.1T46.2 50q-1.1-1.15-1.1-2.75 0-1.55 1.1-2.7 1.15-1.1 2.7-1.1"/><path fill="#0d131a" d="M98.55 53.05q.7-13.05-5.45-24.8Q87 16.55 76 9.55 64.35 2.2 50.3 2.2q-20 0-34.05 14-14 14.05-14 34.05 0 14.05 7.4 25.65 7.05 10.95 18.8 17Q40.3 99 53.4 98.3q13.95-.75 25.85-9.3 1.35-.95 1.8-.4.4.55-.9 1.55-11.8 9.1-26.3 10.05-13.5.85-26-5.45Q15.4 88.45 7.95 77 0 64.9 0 50.25q0-21.9 14.95-36.3Q29.45 0 50.35 0q15.4 0 27.7 7.9Q89.5 15.3 95.6 27.75q6.05 12.35 4.95 25.9-1.1 14.3-10.05 26-.9 1.2-1.45.8-.55-.4.3-1.65 8.5-11.85 9.2-25.75"/></svg>