<svg xmlns="http://www.w3.org/2000/svg" width="110" height="201" viewBox="-0.1 0 109.85 200.8"><path fill="#3e3a39" d="M34.8 62.35q-8.75 8.8-8.75 21.15 0 12.35 8.75 21.1 8.8 8.75 21.15 8.75 12.35 0 21.1-8.75 8.75-8.75 8.75-21.1 0-12.35-8.75-21.15-8.75-8.75-21.1-8.75-12.35 0-21.15 8.75m21.15-28q11.75 0 22.4 5.45l7.05-12.05Q71.55 20.4 55.95 20.4T26.5 27.75l7.05 12.05q10.6-5.45 22.4-5.45M81.25 5.1q12.25 3.95 22.8 11.55 3.05 2.15 3.8 5.8.8 3.65-1.1 6.85l-13.2 22.65q5.5 6.55 8.45 14.5 3.05 8.2 3.05 17.05 0 13.8-7.15 25.5-6.95 11.4-18.7 17.75l-46.1 22.2 62.55 31q2.5 1.25 3.95 3.65 1.4 2.3 1.4 5 0 2.25-1 4.25-1.75 3.55-5.55 4.85-3.8 1.25-7.35-.5L6.9 157.45q-2.5-1.25-3.95-3.6-1.45-2.35-1.4-5.1 0-2.8 1.45-5.1 1.5-2.35 4-3.5l26.8-12.9q-12.2-6.2-19.5-17.75-7.5-11.9-7.5-26 0-8.85 3.05-17.05 3-7.95 8.45-14.5L5.1 29.3Q3.25 26.1 4 22.45q.8-3.6 3.8-5.8Q18.35 9.05 30.65 5.1q12.25-3.95 25.3-3.95t25.3 3.95"/><path fill="#fff" d="M34.8 62.35q8.8-8.75 21.15-8.75 12.35 0 21.1 8.75 8.75 8.8 8.75 21.15 0 12.35-8.75 21.1-8.75 8.75-21.1 8.75-12.35 0-21.15-8.75-8.75-8.75-8.75-21.1 0-12.35 8.75-21.15"/><path fill="#dbdcdc" d="M36.1 98.8q7.85 7.2 18.3 8.2 10.75 1 19.05-5.15 9.3-6.8 12.4-20.6.5 12.9-7.6 22.25-8.55 9.8-22.05 9.8-13.95 0-22.35-9.35-8.5-9.45-7.7-24.45 1.6 11.6 9.95 19.3"/><path fill="#0d131a" d="M33.7 61.95q9.05-9.4 22.3-9.4 13.45 0 22.45 9.5Q87 71.05 87 83.5q0 12.95-8.65 21.75-8.85 9-22.4 9.05-13.3.05-22.25-9.1-8.8-8.95-8.8-21.7 0-12.45 8.8-21.55M27.05 83.5q0 12.05 8.45 20.5 8.4 8.4 20.45 8.4 12.05 0 20.4-8.45 8.3-8.45 8.3-20.55 0-12.05-8.35-20.45-8.35-8.45-20.4-8.45-12 0-20.45 8.5-8.4 8.45-8.4 20.5"/><path fill="#0d131a" d="M81.55 4.1q12.4 4.05 23.3 11.75 3.55 2.5 4.25 6.4.65 3.7-1.45 7.7-7.1 13.2-13.25 22.65l-1.3-1.35q5.35-8.45 12.6-22.45 1.6-3.15 1-6.2-.6-3.15-3.4-5.05Q81.1 2.3 55.95 2.3q-13 0-25 3.85-12 3.9-22.45 11.45-2.8 2-3.45 5.1-.65 3.05.95 6.1Q12.85 41.5 18.85 51l-1.3 1.5Q8.4 37.9 4.1 30q-2.15-3.95-1.3-7.75.8-3.8 4.4-6.4Q17.9 8.15 30.3 4.1 42.8 0 55.95 0 69 0 81.55 4.1M6.55 139.25q15.4-7.45 26.35-12.45l1.85 1.3q-13.5 6.1-27.45 12.95-4.75 2.35-4.9 7.45-.2 5.35 5.2 7.9 12.2 5.8 39.75 19.55 29.85 14.8 40.15 20.3 4 2.1 7.45.9 3.05-1.05 4.5-4.2 1.45-3.15.45-6.4-1.05-3.6-4.75-5.5-11.2-5.85-33-16.8-20.9-10.55-31.55-15.7-1.35-.65-1.05-1.3.3-.65 1.7 0 13.2 6 31.55 14.9 21.6 10.45 33.35 16.7 4.85 2.55 6.25 7.1 1.3 4.1-.55 8.05-1.9 3.95-5.85 5.3-4.35 1.5-9.4-1.05-11-5.65-40-20.05L6.4 158.45q-6.5-3.1-6.4-9.6.1-6.5 6.55-9.6"/><path fill="#0d131a" d="M84.25 26.05q1.45.8 1.6 1.35.15.6-.7 2.05-2.1 3.5-5.95 10.85l-1.7-.95q3.65-6.5 6.75-11.35Q71.7 21.55 56 21.55q-15.45 0-28.4 6.5l6.8 11.35-1.6.85-6.5-11.4q-.65-1.1-.5-1.5.2-.55 1.8-1.4Q40.65 19.2 56 19.2q7.4 0 14.7 1.75 7.4 1.8 13.55 5.1M66.4 83.5q0 4.3-3.05 7.4-3.1 3.05-7.4 3.05-4.35 0-7.4-3.05-3.1-3.1-3.1-7.4 0-4.35 3.1-7.4 3.05-3.1 7.4-3.1 4.3 0 7.4 3.1 3.05 3.05 3.05 7.4"/><path fill="#fff" d="M54.55 76.75q1.6 0 2.7 1.1 1.1 1.15 1.1 2.7 0 1.6-1.1 2.7-1.15 1.15-2.7 1.15-1.55 0-2.7-1.15-1.15-1.1-1.15-2.7 0-1.55 1.15-2.7 1.1-1.1 2.7-1.1"/><path fill="#0d131a" d="M7.95 83.5q0 14.25 7.7 26.05 7.6 11.6 20.9 18.25 1.4.7 1.15 1.35-.3.6-1.75 0-13.8-5.75-22.1-18.3-8.2-12.5-8.2-27.4 0-9.65 3.5-18.4 3.55-9 10.35-15.55 1-1 1.5-.55.5.4-.45 1.5-6.1 7.15-9.3 15.45-3.3 8.5-3.3 17.6M55.95 35.45q-12.25 0-24.3 6.15-1.4.75-1.75.15-.3-.55 1-1.4 11.5-7.2 25.05-7.2 13.2 0 24.85 7.1 1.45.85 1.1 1.45-.35.6-1.85-.2-11.8-6.05-24.1-6.05M106.2 83.5q0 14.65-5.85 25.4-6.55 12-20.25 18.7l-45.5 22.05-2.3-1.1q7.75-3.85 22.55-11.05l23.85-11.7q13-6.45 19.35-17.85 5.8-10.45 5.8-24.5 0-9.45-3.25-18-3.2-8.35-9.1-14.75-1-1.1-.55-1.55.45-.5 1.55.5Q99 55.5 102.65 64.6q3.55 8.9 3.55 18.9"/></svg>