<svg xmlns="http://www.w3.org/2000/svg" width="158" height="202" viewBox="-0.75 0 157.55 201.55"><path fill="#3e3a39" d="M77.95 70.7q-12.35 0-21.1 8.75-8.75 8.75-8.75 21.1 0 12.35 8.75 21.15 8.75 8.75 21.1 8.75 12.4 0 21.15-8.75 8.75-8.75 8.75-21.15 0-12.35-8.75-21.1-8.8-8.75-21.15-8.75M84.8 4.1q2.8 2.85 2.8 6.85v17.4q0 4-2.8 6.8-2.85 2.8-6.85 2.8-4.2 0-7-3.05-14.35 1.55-26.7 8.85Q31.9 51.1 23.7 62.95l14.05 9.5q6.8-9.7 17.2-15.25 10.8-5.75 23-5.75 20.3 0 34.75 14.4 14.4 14.4 14.4 34.7 0 5.05-1.1 10.15l24.6 16.65q3.05 2.05 3.95 5.6.9 3.55-.8 6.8-9.9 19.1-27.5 31.15-17.5 12-38.65 14.35v4.95q0 4-2.8 6.8-2.85 2.8-6.85 2.8-3.95 0-6.8-2.8-2.8-2.8-2.8-6.8v-17.4q0-4 2.8-6.85 2.8-2.8 6.8-2.8 4.1 0 7 3.05 14.35-1.5 26.7-8.85t20.55-19.2l-14-9.5q-6.8 9.7-17.2 15.3-10.8 5.75-23.05 5.75-20.3 0-34.7-14.4-14.4-14.45-14.4-34.75 0-5.2 1.05-10.15L5.35 73.8Q2.3 71.75 1.4 68.2q-.9-3.55.8-6.8 9.9-19.1 27.5-31.15 17.5-12.05 38.65-14.4v-4.9q0-4 2.8-6.85 2.8-2.8 6.8-2.8t6.85 2.8"/><path fill="#fff" d="M77.95 70.7q12.35 0 21.15 8.75 8.75 8.75 8.75 21.1 0 12.4-8.75 21.15-8.75 8.75-21.15 8.75-12.35 0-21.1-8.75-8.75-8.8-8.75-21.15 0-12.35 8.75-21.1 8.75-8.75 21.1-8.75"/><path fill="#dbdcdc" d="M48.2 99.6q1.9 11.4 10.55 18.15 8 6.2 18.65 6.35 10.7.15 18.95-6 9-6.75 11.5-18.9 0 12.35-7.35 21.15-8.45 10.05-23.2 10.05-13.1 0-21.6-9.9-7.95-9.2-7.5-20.9"/><path fill="#0d131a" d="M77.95 69.85q13.45 0 22.5 9.45 8.6 9 8.6 21.3 0 13.05-9.25 22.05-9.1 8.85-21.85 8.85-13.1 0-22.05-9.15-8.8-9-8.8-21.8 0-13.2 9.05-22 8.9-8.7 21.8-8.7M57.5 80.05q-8.45 8.45-8.45 20.5 0 12.1 8.4 20.5 8.45 8.45 20.5 8.45t20.4-8.4q8.4-8.4 8.4-20.5 0-12.05-8.35-20.5-8.4-8.5-20.45-8.5-12.05 0-20.45 8.45M68.4 16.9q-21.05 2.35-38.25 14.2Q12.95 42.9 3.2 61.75q-1.55 3-.8 6.1.75 3.1 3.55 5l10.8 7.4 13.35 9-.5 2.35L4.75 74.75Q1.3 72.35.3 68.6q-1.05-3.8.95-7.65Q11.2 41.8 29 29.55 46.85 17.3 68.25 14.9l.15 2"/><path fill="#0d131a" d="m88.7 10.95.05 17.45q0 7-6.8 9.75-6.75 2.8-11.3-2.2-14.1 1.6-26.05 8.75-12.05 7.15-20.1 18.8l-1.65-1.1q8.35-12 20.95-19.5 12.65-7.5 27.1-9.05l.6.25q4 3.75 9.4 1.85 5.45-1.95 5.45-7.65l.15-17.4q0-3.95-2.6-6.3-2.4-2.1-5.8-2.1-3.45 0-5.9 2.1-2.7 2.35-2.85 6.3-.1 4.2.15 6.7.15 1.5-.75 1.6-.9.05-1.1-1.6-.4-3.2-.35-6.7.2-5.15 3.55-8.2Q73.9 0 78.2 0t7.25 2.75q3.25 3.05 3.25 8.2"/><path fill="#0d131a" d="M21.5 62.4q-1.35-1-.95-1.6.4-.6 1.8.4l7.55 5.25q4.7 3.1 8.4 5.25l-1.1 1.65Q30.85 69.5 21.5 62.4M151.2 126.4q3.4 2.55 4.45 6.15 1.15 3.85-.8 7.6-9.95 19.3-27.65 31.6-17.95 12.45-39.6 14.75l-.05-2.1q21-2.35 38.25-14.25 17.2-11.9 26.95-30.75 1.55-3 .75-6.05-.8-3-3.55-5.05-10.65-8-24.1-16.4l.45-2.35 13.3 8.65 11.6 8.2"/><path fill="#0d131a" d="m67.25 190.2-.1-18q0-6.95 7-9.5 6.95-2.5 11.55 2.5 13.9-1.5 25.75-8.85 11.6-7.15 19.75-18.95l1.85 1.35q-8.3 12-20.9 19.5-12.65 7.5-27.15 9l-.6-.2q-4-3.75-9.35-1.85-5.5 1.95-5.5 7.65l-.1 17.4q0 3.95 2.65 6.3 2.4 2.1 5.9 2.15 3.5 0 5.95-2.05 2.75-2.35 2.9-6.3.1-4-.15-6.9-.15-1.5.65-1.6.75-.1.95 1.55.5 3.7.35 7.1-.15 5.25-3.55 8.3-3.05 2.75-7.3 2.7-4.3-.05-7.25-2.9-3.3-3.15-3.3-8.4"/><path fill="#0d131a" d="M133.6 139.9q-8.5-6.3-15.8-10.55l1.25-1.65q9.9 6.1 15.5 10.85 1.3 1.15.85 1.75-.45.65-1.8-.4M77.95 90.1q4.35 0 7.45 3.05 3.05 3.1 3.05 7.4 0 4.35-3.05 7.45-3.1 3.05-7.45 3.05-4.3 0-7.4-3.05-3.05-3.1-3.05-7.45 0-4.3 3.05-7.4 3.1-3.05 7.4-3.05"/><path fill="#fff" d="M76.55 93.85q1.6 0 2.7 1.1 1.15 1.15 1.15 2.7 0 1.55-1.15 2.7-1.1 1.1-2.7 1.1-1.55 0-2.7-1.1-1.1-1.1-1.1-2.7 0-1.55 1.1-2.7 1.15-1.1 2.7-1.1"/><path fill="#0d131a" d="M123.85 80.5q6.9 15.85 2.35 32.65-.35 1.3-1 1.2-.7-.15-.4-1.55 3.6-16.9-3.05-31.7-6.4-14.3-20.25-22.25-14.75-8.55-32.45-5.5Q48.9 56.8 37.1 74.6q-.85 1.3-1.4.9-.6-.35.2-1.65 11.9-19 32.7-22.75 18.3-3.3 34.2 5.85 14.4 8.25 21.05 23.55M31.1 88.35q-3.55 16.35 3.1 31.35 6.55 14.75 20.25 22.65 14.7 8.45 32.5 5.35 20.2-3.55 31.85-21.2.85-1.3 1.45-.9.6.35-.2 1.7-11.7 18.9-32.65 22.7-18.5 3.4-34.35-5.7-14.25-8.2-20.8-23.65Q25.5 104.85 29.7 88q.4-1.5 1.1-1.35.65.15.3 1.7"/></svg>