<svg xmlns="http://www.w3.org/2000/svg" width="151" height="179" viewBox="-0.2 0 150.8 179.05"><path fill="#3e3a39" d="M41.4 149.9q8.75 8.75 21.1 8.75 12.35 0 21.1-8.75 8.75-8.8 8.75-21.15 0-12.35-8.75-21.1-8.75-8.75-21.1-8.75-12.35 0-21.1 8.75-8.75 8.75-8.75 21.1 0 12.35 8.75 21.15m63.3-111.05q0-6.45-10.9-12.05-12.5-6.4-31.3-6.4t-31.3 6.4q-10.9 5.6-10.9 12.05 0 16.65 11.95 27.5 11.9 10.8 30.25 10.8t30.25-10.8q11.95-10.85 11.95-27.5M147.35 8.2q1.6 3.65.15 7.35-1.45 3.7-5.1 5.3-4.35 1.9-9.9 5.35-5.35 3.3-9.35 6.5.8 3.2.8 6.15 0 16.7-8.7 30.35-8.45 13.25-23.1 20.5 9.05 6.9 14.15 16.95 5.3 10.4 5.3 22.1 0 20.35-14.4 34.75-14.4 14.4-34.7 14.4-20.3 0-34.7-14.4-14.4-14.4-14.4-34.75 0-11.7 5.3-22.1Q23.8 96.6 32.85 89.7 18.2 82.45 9.75 69.2q-8.7-13.65-8.7-30.35 0-16.4 17.4-27.05Q35.8 1.15 62.5 1.15q15.95 0 29.15 4.1 12.9 3.95 21.15 11.15 5.05-3.85 11.15-7.5 5.9-3.55 10.75-5.7 3.65-1.6 7.35-.1 3.7 1.45 5.3 5.1"/><path fill="#fff" d="M41.4 149.9q-8.75-8.8-8.75-21.15 0-12.35 8.75-21.1 8.75-8.75 21.1-8.75 12.35 0 21.1 8.75 8.75 8.75 8.75 21.1 0 12.35-8.75 21.15-8.75 8.75-21.1 8.75-12.35 0-21.1-8.75"/><path fill="#dbdcdc" d="M41.6 150.2q-9.05-8.7-9.4-22.3 2.1 10.45 11 16.95 8.25 6 18.95 6.45 10.9.5 19-5.15 9-6.25 11.15-18.1 0 11.8-7.9 20.95-8.45 9.75-20.8 9.75-13.1 0-22-8.55"/><path fill="#0d131a" d="M42.05 108.3q-8.4 8.45-8.4 20.55 0 12.05 8.4 20.45 8.45 8.45 20.5 8.45 12 0 20.25-8.5 8.25-8.45 8.25-20.55 0-12.05-8.25-20.45-8.25-8.4-20.25-8.4-12.05 0-20.5 8.45m-1.55-1.45q9-8.8 22.05-8.8 14.15 0 23.1 10.1 8 9 8 20.7 0 12.65-8.75 21.6-9 9.2-22.4 9.2-13.3 0-22.35-9.4-8.65-9.05-8.65-21.45 0-13.05 9-21.95M112.1 17.05q-8.2-7.15-21.2-11-12.8-3.8-28.4-3.8-26.4 0-43.4 10.3-17 10.25-17 26.3 0 16.3 8.25 29.5t23 20.5l-1.4 1.5q-14.05-6.4-22.85-20Q-.2 56 0 38.8q.25-17.7 18.25-28.45Q35.65 0 62.55 0q15.9 0 29.1 4.05 13.5 4.1 21.85 11.65l-1.4 1.35"/><path fill="#0d131a" d="M143 21.85q-4.45 1.95-10.75 5.7-6.4 3.85-10.1 6.85-1.3 1-1.8.3-.55-.65.8-1.8 4.25-3.65 10.35-7.5 5.85-3.65 10.5-5.7 3.65-1.6 4.75-4.95.95-3-.45-6.15-1.4-3.15-4.35-4.5-3.25-1.5-6.9.1-9.1 3.95-23.15 14.35-1.5 1.1-2.05.4-.6-.75.85-1.9 5.85-4.75 12.5-8.9 6.2-3.9 11.05-6.05 4.8-2.1 9-.25 3.8 1.65 5.6 5.7 1.75 4 .45 7.85-1.5 4.35-6.3 6.45"/><path fill="#0d131a" d="M124.05 32.15q3.45 13.15-3.25 29.05-8.15 19.25-27.75 29.15l-1.4-1.55q19.2-9.45 27.1-28.85 6.15-15 3.55-26.65l1.75-1.15M105.7 38.8q0 17.55-12.2 28.5-12.05 10.8-30.9 10.8-18.55 0-30.8-10.7-12.55-11.05-12.55-28.55 0-7.45 11.45-13.25 12.6-6.35 31.8-6.35 19.2 0 31.85 6.55 11.35 5.85 11.35 13M93.05 27.45q-12-5.95-30.55-5.95t-30.6 5.95q-10.6 5.25-10.6 11.4 0 16.3 11.6 26.85 11.55 10.5 29.55 10.5 18.05 0 29.6-10.5 11.55-10.55 11.55-26.9 0-6.15-10.55-11.35M72.95 128.75q0 4.35-3.05 7.45-3.1 3.05-7.4 3.05-4.35 0-7.4-3.05-3.05-3.1-3.05-7.45 0-4.3 3.05-7.4 3.05-3.05 7.4-3.05 4.3 0 7.4 3.05 3.05 3.1 3.05 7.4"/><path fill="#fff" d="M61.1 122.05q1.6 0 2.7 1.1 1.1 1.15 1.1 2.7 0 1.6-1.1 2.7t-2.7 1.1q-1.6 0-2.7-1.1-1.15-1.15-1.15-2.7 0-1.55 1.15-2.7 1.1-1.1 2.7-1.1"/><path fill="#0d131a" d="M91.25 88.05q9.95 6.8 15.65 17.7 5.75 10.9 5.75 23 0 21.4-14.25 35.8-14.35 14.5-35.9 14.5-20.55 0-35.15-14.2-15.05-14.6-15.05-36.05 0-12.45 5.75-23.5 5.9-11.35 16-17.45 1.15-.7 1.55-.15.4.5-.7 1.3-9.8 7.15-15.15 17.5-5.35 10.4-5.35 22.25 0 20 14.05 34.05 14 14 34.05 14 20.05 0 34.05-14 14.05-14 14.05-34 0-11.6-5.3-21.8-5.15-9.9-14.85-17.75-.95-.8-.6-1.35.4-.55 1.4.15"/></svg>