<svg xmlns="http://www.w3.org/2000/svg" width="132" height="133" viewBox="-0.2 -0.25 132.45 132.75"><path fill="#3e3a39" d="M87.15 87.3q8.75-8.75 8.75-21.1 0-12.35-8.75-21.1-8.75-8.8-21.1-8.8-12.35 0-21.1 8.8-8.75 8.75-8.75 21.1 0 12.35 8.75 21.1 8.75 8.75 21.1 8.75 12.35 0 21.1-8.75m40.5-82.7q2.8 2.8 2.8 6.8t-2.8 6.8L106.9 38.95q8.3 12.45 8.3 27.25t-8.3 27.25l20.75 20.75q2.8 2.8 2.8 6.8t-2.8 6.8q-2.8 2.8-6.8 2.8t-6.8-2.8L93.3 107.05q-12.35 8.25-27.25 8.25-14.85 0-27.25-8.25L18.1 127.8q-2.85 2.8-6.85 2.8-4 0-6.8-2.8t-2.8-6.8q0-4 2.8-6.8L25.2 93.45Q16.95 81.1 16.95 66.2q0-14.85 8.25-27.25L4.45 18.2q-2.8-2.8-2.8-6.8t2.8-6.8q2.8-2.8 6.8-2.8t6.8 2.8L38.8 25.35q12.45-8.3 27.25-8.3t27.25 8.3L114.05 4.6q2.8-2.8 6.8-2.8t6.8 2.8"/><path fill="#fff" d="M87.15 87.3q-8.75 8.75-21.1 8.75-12.35 0-21.1-8.75-8.75-8.75-8.75-21.1 0-12.35 8.75-21.1 8.75-8.8 21.1-8.8 12.35 0 21.1 8.8 8.75 8.75 8.75 21.1 0 12.35-8.75 21.1"/><path fill="#dbdcdc" d="M87.75 86.95Q78.95 96 66.4 96t-21.65-9.3q-9-9.15-8.75-21.2 2.25 10.2 10.95 16.45 8.1 5.8 18.55 6.2 10.6.45 18.7-4.9 8.9-5.9 11.45-16.9.75 11.65-7.9 20.6"/><path fill="#0d131a" d="M17.25 5.55Q14.4 2.7 10.9 2.9q-3.2.15-5.6 2.55Q2.85 7.85 2.65 11q-.2 3.5 2.65 6.35 8.05 8.55 20.45 20.7l-1.1 1.8L3.7 19.05Q-.05 15.3.1 10.7q.15-4.15 3.25-7.25Q6.45.3 10.55.15q4.6-.2 8.35 3.55 6.6 6.45 20.6 20.95l-1.5 1.2Q26.5 14.2 17.25 5.55M24.55 92.45l1.15 1.8Q15 104.8 5.4 115q-2.85 2.85-2.7 6.45.15 3.2 2.55 5.6 2.35 2.45 5.55 2.6 3.55.2 6.4-2.7 8.55-8.05 20.7-20.45l1.55.9-10.5 11.1-9.9 10.25q-3.75 3.75-8.4 3.55-4.15-.15-7.3-3.3-3.1-3.15-3.3-7.3-.25-4.6 3.5-8.35l21-20.9M106.35 94.35l1.1-1.8q13.55 12.95 21.05 20.6 3.75 3.75 3.5 8.35-.2 4.2-3.4 7.35-3.15 3.2-7.35 3.4-4.6.25-8.35-3.5l-10.1-10.4-10.2-10.6 1.75-1.3 10.3 10.45 10.2 9.95q2.85 2.8 6.35 2.65 3.2-.2 5.65-2.55 2.4-2.4 2.6-5.55.2-3.5-2.6-6.35-9.6-10.1-20.5-20.7M126.7 17.4q2.9-2.9 2.75-6.45-.15-3.2-2.55-5.65t-5.55-2.6q-3.55-.2-6.45 2.7L94.4 26.05l-2-1.25q13.1-13.55 21-21.35 3.7-3.7 8.25-3.45 4.1.25 7.15 3.4 3.1 3.15 3.25 7.3.2 4.65-3.5 8.35L107.75 40l-1.35-1.85 20.3-20.75M88.15 88.05Q79.15 97 65.9 97q-12.7 0-21.7-8.75Q35 79.3 35 66.15q0-13 9-21.9 9-8.95 22.15-8.95 12.8 0 21.7 8.65 9.2 8.95 9.2 22.3 0 12.9-8.9 21.8M94.8 66.2q0-12.1-8.3-20.45-8.3-8.4-20.3-8.4-12.1 0-20.5 8.4T37.3 66.2q0 12.05 8.4 20.45 8.4 8.45 20.45 8.45 12 0 20.35-8.45 8.3-8.4 8.3-20.45"/><path fill="#0d131a" d="M76.5 66.2q0 4.3-3.05 7.4-3.05 3.05-7.4 3.05-4.35 0-7.4-3.05-3.05-3.1-3.05-7.4 0-4.35 3.05-7.4 3.05-3.05 7.4-3.05 4.35 0 7.4 3.05 3.05 3.05 3.05 7.4"/><path fill="#fff" d="M64.65 59.45q1.6 0 2.7 1.1 1.1 1.15 1.1 2.7 0 1.6-1.1 2.75-1.1 1.1-2.7 1.1t-2.7-1.1q-1.1-1.15-1.1-2.75 0-1.55 1.1-2.7 1.15-1.1 2.7-1.1"/><path fill="#0d131a" d="M94.3 26.85Q81.2 18.1 66.15 18.1q-15.3 0-28.6 9-1.4.9-1.8.4-.45-.5.95-1.6 6.3-4.95 13.9-7.5 7.4-2.5 15.5-2.5 7.9 0 15.6 2.6 7.7 2.6 13.4 7.2 1.4 1.1 1 1.65-.35.5-1.8-.5M26.75 37.95q-8.8 12.3-8.8 28.25 0 16.25 9 28.5.85 1.2.35 1.65-.5.4-1.55-.8-9.95-12-9.95-29.35 0-8 2.5-15.6 2.55-7.8 7.25-13.5 1-1.2 1.55-.8.55.4-.35 1.65M37.85 105.5q13.1 8.75 28.25 8.75 7.55 0 15-2.4 7.1-2.3 13.45-6.55 1.35-.9 1.75-.4.4.45-.9 1.6-11.8 9.85-29.3 9.85-17.3 0-29.1-9.65-.95-.8-.55-1.35.4-.5 1.4.15M106.35 36.85q4.85 6 7.45 13.75 2.45 7.5 2.45 15.6 0 17.05-9.7 29.05-1.05 1.3-1.55.95-.55-.35.35-1.8 4.5-6.8 6.65-13.65 2.15-6.9 2.15-14.55 0-15.25-9-28.5-.8-1.25-.3-1.65.5-.45 1.5.8"/></svg>