<svg xmlns="http://www.w3.org/2000/svg" width="113" height="157" viewBox="0 0 113.15 156.6"><path fill="#3e3a39" d="M77.6 85.3q-8.75-8.75-21.1-8.75-12.35 0-21.1 8.75-8.75 8.75-8.75 21.1 0 12.35 8.75 21.1 8.75 8.8 21.1 8.8 12.35 0 21.1-8.8 8.75-8.75 8.75-21.1 0-12.35-8.75-21.1m24.35-84.1q4 0 6.85 2.8 2.8 2.85 2.8 6.85 0 4-2.8 6.8-2.85 2.8-6.85 2.8H66.1v37.8q17.05 3.4 28.2 16.85 11.3 13.6 11.3 31.3 0 20.35-14.4 34.75-14.4 14.4-34.7 14.4-20.3 0-34.7-14.4-14.4-14.4-14.4-34.75 0-17.7 11.3-31.3 11.15-13.45 28.15-16.85v-37.8h-35.8q-4 0-6.85-2.8-2.8-2.8-2.8-6.8T4.2 4q2.85-2.8 6.85-2.8h90.9"/><path fill="#fff" d="M77.6 85.3q8.75 8.75 8.75 21.1 0 12.35-8.75 21.1-8.75 8.8-21.1 8.8-12.35 0-21.1-8.8-8.75-8.75-8.75-21.1 0-12.35 8.75-21.1 8.75-8.75 21.1-8.75 12.35 0 21.1 8.75"/><path fill="#dbdcdc" d="M56.25 136.55q-14.95.15-23.4-11.45-7.3-10.05-6.15-21.8 2.15 12.25 10.8 19.3 7.9 6.4 18.45 6.55 10.5.2 18.75-5.8 8.95-6.5 11.65-17.9.25 11.2-6.9 20.2-8.45 10.7-23.2 10.9"/><path fill="#0d131a" d="M78.95 84.95q8.55 9.1 8.55 21.45 0 12.6-8.3 21.5-8.85 9.5-22.7 9.5-12.8 0-21.85-8.85-9.3-9-9.3-22.25 0-12.7 9.2-21.85 9.15-9.1 21.95-9.1 13.45 0 22.45 9.6m-22.45-7.7q-12 0-20.35 8.55-8.3 8.5-8.3 20.6 0 12.05 8.4 20.45 8.35 8.35 20.4 8.35 12.05 0 20.3-8.35 8.2-8.35 8.2-20.45t-8.3-20.6q-8.35-8.55-20.35-8.55M47.6 18.2q.6 18.55.3 39.7l-2.1.45q.55-17.2.35-40.15 0-1.5.7-1.5.7-.05.75 1.5"/><path fill="#0d131a" d="m101.95 21.65-35.7.05-.05-2.2 35.75-.1q4.05-.05 6.4-2.7 2.1-2.35 2.1-5.75T108.3 5.2q-2.35-2.6-6.35-2.65-14.5-.2-90.9-.2-4 0-6.35 2.6-2.1 2.4-2.1 5.8t2.1 5.8q2.35 2.65 6.35 2.7l35.75.25.05 2.15-35.8-.1q-5.2.05-8.3-3.25Q0 15.3 0 11t2.75-7.35Q5.85.3 11.05.2 20.95 0 56.4.05l45.55.05q5.3 0 8.4 3.35 2.8 3 2.8 7.35t-2.8 7.4q-3.1 3.4-8.4 3.45"/><path fill="#0d131a" d="m66.65 38 .2 20.25-1.75-.35q-.35-25.9.3-39.7.1-1.8.8-1.8.7 0 .65 1.8l-.2 19.8M66.95 106.4q0 4.35-3.05 7.4-3.1 3.05-7.4 3.05-4.35 0-7.4-3.05-3.05-3.05-3.05-7.4 0-4.3 3.05-7.4 3.05-3.05 7.4-3.05 4.3 0 7.4 3.05 3.05 3.1 3.05 7.4"/><path fill="#fff" d="M55.1 99.65q1.55 0 2.7 1.15 1.1 1.1 1.1 2.7t-1.1 2.7q-1.1 1.1-2.7 1.1t-2.7-1.1q-1.15-1.15-1.15-2.7 0-1.55 1.15-2.7 1.15-1.15 2.7-1.15"/><path fill="#0d131a" d="M64 57.15q18.45 2.4 30.7 17 11.9 14.2 11.9 32.25 0 21.8-15.2 36.3-14.55 13.9-34.9 13.9-21 0-35.55-14.4Q6.3 127.7 6.3 106.45q0-19.1 11.9-33 11.95-14 30.55-16.3 1.6-.2 1.7.5.1.65-1.5.95-17.9 3.25-29.15 16.55Q8.5 88.45 8.5 106.4q0 20 14 33.95 14 14 34 14 20.05 0 34-13.95 14-14 14-34 0-17.6-11.75-31.2Q81.2 61.9 63.8 58.55q-1.5-.25-1.4-.95.1-.65 1.6-.45"/></svg>