<svg xmlns="http://www.w3.org/2000/svg" width="166" height="160" viewBox="0 0 165.9 160.3"><path fill="#3e3a39" d="M104 88.9q-8.75-8.75-21.1-8.75-12.35 0-21.15 8.75Q53 97.7 53 110.05q0 12.35 8.75 21.1 8.8 8.75 21.15 8.75 12.35 0 21.1-8.75 8.75-8.75 8.75-21.1 0-12.35-8.75-21.15M145 44q0-4 2.8-6.85 2.8-2.8 6.8-2.8t6.85 2.8q2.8 2.85 2.8 6.85 0 16.55-9.4 31.9-9.3 15.15-24.1 23.3 1.25 5.45 1.25 10.85 0 20.3-14.4 34.7-14.4 14.4-34.7 14.4-20.3 0-34.75-14.4-14.4-14.4-14.4-34.7 0-5.4 1.25-10.85-14.8-8.15-24.05-23.3-9.4-15.35-9.4-31.9 0-4 2.8-6.85 2.8-2.8 6.8-2.8t6.85 2.8Q20.8 40 20.8 44q0 10.9 6.25 21.4 6.15 10.25 15.9 16.15Q48.4 74 56.1 68.9q7.95-5.2 17.15-7.05V11.5q0-4 2.85-6.85 2.8-2.8 6.8-2.8t6.8 2.8q2.8 2.85 2.8 6.85v50.35q9.25 1.85 17.15 7.05 7.75 5.1 13.2 12.65 9.75-5.9 15.9-16.15Q145 54.9 145 44"/><path fill="#fff" d="M104 88.9q8.75 8.8 8.75 21.15 0 12.35-8.75 21.1-8.75 8.75-21.1 8.75-12.35 0-21.15-8.75Q53 122.4 53 110.05q0-12.35 8.75-21.15 8.8-8.75 21.15-8.75 12.35 0 21.1 8.75"/><path fill="#dbdcdc" d="M52.9 108q1.4 11.2 9.75 18.15 7.75 6.45 18.4 7.1 10.75.6 19.35-5.1 9.4-6.25 12.6-18.25-.2 11.5-7 19.8-8.15 10.05-22.9 10.3-11.55.25-20.8-8.1-10.45-9.4-9.4-23.9"/><path fill="#0d131a" d="M91.8 11.5q0-4.3-2.8-6.8-2.5-2.25-6.1-2.25-3.6 0-6.1 2.25Q74 7.2 74 11.5v50.3l-2.2.25V10.5q0-4.95 3.45-7.85Q78.4 0 82.9 0t7.6 2.65q3.45 2.9 3.45 7.85v51.55l-2.15-.25V11.5M104.85 88.15q9.05 9 9.05 21.9 0 12.85-8.7 21.8Q96.25 141 82.9 141q-12.85 0-21.8-8.75-9.2-9-9.2-22.25 0-13.3 9.05-22.15Q69.8 79.2 82.9 79.2q12.9 0 21.95 8.95M82.9 81.2q-12.05 0-20.5 8.4t-8.45 20.45q0 12.05 8.45 20.4 8.4 8.35 20.5 8.35 12.05 0 20.4-8.35 8.35-8.4 8.35-20.45 0-12.05-8.35-20.4-8.35-8.4-20.4-8.4M2.65 44.2q0 16.2 8.85 31t23.55 23l-.45 1.95Q18.85 91.7 9.35 76.05.1 60.75 0 44.1q0-5.25 3.45-8.4 3.1-2.8 7.6-2.85 4.5-.05 7.65 2.7 3.55 3.05 3.6 8.35.15 11.65 5.8 21.4 5.55 9.6 15.3 15.45l-1.05 1.65q-10.65-6.2-16.6-16.5Q20 56 19.6 44q-.15-4-2.8-6.3-2.45-2.1-5.8-2.05-3.4.05-5.75 2.15-2.6 2.4-2.6 6.4M162.45 35.9q3.45 3.4 3.35 9.05-.35 17.75-10 32.55-9.2 14.05-24.6 22.35l-.6-2.25q15.4-8.55 24.05-22.9 8.5-14.15 8.5-30.5 0-4-2.6-6.4-2.35-2.1-5.75-2.15-3.4-.05-5.8 2.05-2.7 2.3-2.85 6.3-.4 11.9-6.15 21.75-5.9 10.05-16.7 16.65l-1.3-1.9q9.8-5.9 15.5-15.4 5.85-9.8 6-21.35.05-5.3 3.6-8.35 3.2-2.75 7.75-2.65 4.55.15 7.6 3.15"/><path fill="#0d131a" d="M75.5 102.65q3.05-3.1 7.4-3.1 4.3 0 7.4 3.1 3.05 3.05 3.05 7.4 0 4.3-3.05 7.4-3.1 3.05-7.4 3.05-4.35 0-7.4-3.05-3.05-3.1-3.05-7.4 0-4.35 3.05-7.4"/><path fill="#fff" d="M78.8 109.8q-1.15-1.1-1.15-2.7 0-1.55 1.15-2.7 1.1-1.1 2.7-1.1t2.7 1.1q1.1 1.15 1.1 2.7 0 1.6-1.1 2.7-1.15 1.15-2.7 1.15-1.55 0-2.7-1.15"/><path fill="#0d131a" d="M131.05 97.15q3.25 11.6.85 23.25-2.25 11.1-9.15 20.2-6.95 9.15-17.05 14.3-10.65 5.4-22.8 5.4-12.65 0-23.4-5.75-10.1-5.4-16.95-14.85-6.65-9.3-8.75-20.45-2.15-11.5 1.05-22.5.35-1.25 1-1.05.7.2.4 1.45-2.7 11.2-.35 22.4 2.35 10.7 8.9 19.45 6.65 8.8 16.3 13.8 10.1 5.2 21.8 5.2 12 0 22.25-5.35 9.65-5.05 16.2-13.95 6.45-8.75 8.65-19.45 2.3-10.95-.35-21.75-.3-1.25.4-1.45.65-.15 1 1.1M41.25 82.6q5.5-9.15 14.6-14.9 8.85-5.6 19.25-6.9 1.45-.2 1.55.45.1.65-1.35 1-10.15 2.15-18.5 7.5-8.5 5.4-14.35 13.65-.85 1.3-1.45.95-.55-.35.25-1.75M90.5 62.25q-1.65-.35-1.55-1 .1-.65 1.75-.45 10.35 1.25 19.3 7.05 8.9 5.75 14.5 14.75.8 1.25.25 1.6-.6.35-1.45-.8-12.55-16.95-32.8-21.15"/></svg>