<svg xmlns="http://www.w3.org/2000/svg" width="136" height="170" viewBox="0 0 136.4 169.85"><path fill="#3e3a39" d="M29.15 63.8q-8.75 8.8-8.75 21.15 0 12.35 8.75 21.1 8.8 8.75 21.15 8.75 12.35 0 21.1-8.75 8.75-8.75 8.75-21.1 0-12.35-8.75-21.15-8.75-8.75-21.1-8.75-12.35 0-21.15 8.75m95.95-21.7q4 0 6.8 2.8t2.8 6.8q0 4.05-2.8 6.8l-26.4 26.45 26.4 26.4q2.8 2.8 2.8 6.8 0 4.05-2.8 6.8-2.8 2.85-6.8 2.85t-6.8-2.85L96.05 102.7q-4.55 11.65-14.15 19.75-9.65 8.2-22 10.65v25.65q0 4-2.8 6.8-2.85 2.85-6.8 2.85-4 0-6.85-2.85-2.8-2.8-2.8-6.8V133.1q-17-3.4-28.2-16.85-11.3-13.65-11.3-31.3 0-17.7 11.3-31.35 11.2-13.45 28.2-16.8V11.1q0-4 2.8-6.8 2.85-2.8 6.85-2.8 4 0 6.8 2.8 2.8 2.85 2.8 6.8v25.7q12.35 2.45 22 10.65 9.6 8.1 14.15 19.7L118.3 44.9q2.8-2.8 6.8-2.8"/><path fill="#fff" d="M29.15 63.8q8.8-8.75 21.15-8.75 12.35 0 21.1 8.75 8.75 8.8 8.75 21.15 0 12.35-8.75 21.1-8.75 8.75-21.1 8.75-12.35 0-21.15-8.75-8.75-8.75-8.75-21.1 0-12.35 8.75-21.15"/><path fill="#dbdcdc" d="M50.35 115.1q-14 0-22.8-10.9-8.6-10.6-6.75-24.05.7 12.4 9.25 20.25 7.85 7.2 18.95 7.85 11.2.65 19.7-5.8 9.45-7.25 11.6-20.85.65 13.85-7.55 23.45-8.5 10.05-22.4 10.05"/><path fill="#0d131a" d="M131.2 45.55q-2.4-2.35-5.6-2.45-3.55-.1-6.5 2.75l-22.55 22.2-.85-1.75 11.75-12 10.1-10.15q3.85-3.7 8.4-3.55 4.15.15 7.15 3.2 3.05 3.05 3.15 7.2.15 4.55-3.6 8.4-12.2 12.55-25.9 25.3l13.6 13.35 12.3 12.45q3.7 3.85 3.55 8.4-.15 4.1-3.2 7.15-3.05 3.05-7.2 3.2-4.55.15-8.4-3.55-8.85-8.5-21.6-21.9l.65-2q10.55 10.8 22.65 22.25 2.9 2.7 6.35 2.5 3.15-.15 5.5-2.55 2.35-2.35 2.55-5.5.2-3.5-2.5-6.4l-11.9-12.25-13.35-13.55q-1.1-1.1-1.05-1.55 0-.4 1.15-1.55l25.25-25.6q2.8-3 2.65-6.55-.2-3.15-2.55-5.5M59.05 133.2l1.9-.4q-.15 10.15.05 26 .05 5.2-3.3 8.3-3.05 2.75-7.45 2.75-4.45 0-7.45-2.75-3.4-3.1-3.3-8.3l.2-26 1.95.45.2 25.55q0 4.05 2.65 6.45 2.4 2.15 5.85 2.15 3.45 0 5.8-2.15 2.7-2.4 2.7-6.45l.2-25.6M41.85 11.05l-.2 25.55-1.95.45-.2-26q-.1-5.2 3.3-8.3Q45.8 0 50.25 0q4.4 0 7.45 2.75 3.35 3.1 3.3 8.3-.2 15.9-.05 26l-1.9-.35-.15-12-.05-13.65q0-4.05-2.7-6.45-2.35-2.15-5.8-2.15-3.45 0-5.85 2.15-2.65 2.4-2.65 6.45M28.45 62.95Q37.4 54.1 50.3 54.1q13.25 0 22.3 9.4 8.75 9.1 8.75 21.55 0 12.95-8.75 21.85-8.9 9-22.3 9-12.95 0-21.95-9.1-8.95-9.05-8.95-21.9 0-13 9.05-21.95m-7 22.05q0 12.05 8.5 20.45 8.45 8.45 20.5 8.45t20.35-8.4q8.3-8.35 8.3-20.45 0-12.05-8.4-20.55T50.3 56q-12.05 0-20.45 8.5-8.4 8.45-8.4 20.5"/><path fill="#0d131a" d="M60.75 84.95q0 4.3-3.05 7.4-3.1 3.05-7.4 3.05-4.35 0-7.4-3.05-3.05-3.1-3.05-7.4 0-4.35 3.05-7.4 3.05-3.05 7.4-3.05 4.3 0 7.4 3.05 3.05 3.05 3.05 7.4"/><path fill="#fff" d="M48.9 78.2q1.6 0 2.7 1.1 1.1 1.15 1.1 2.7 0 1.6-1.1 2.75-1.1 1.1-2.7 1.1t-2.7-1.1Q45.05 83.6 45.05 82q0-1.55 1.15-2.7 1.1-1.1 2.7-1.1"/><path fill="#0d131a" d="M42.85 37.1Q24.9 40.55 13.6 53.85 2.3 67.2 2.3 84.95q0 17.8 11.65 31.3 11.55 13.4 29.35 16.6 1.35.25 1.3.9-.05.65-1.4.5-17.9-1.55-30.45-15.75Q0 104.15 0 84.95q0-19.2 12.35-33.15 12.1-13.8 30.3-16.1 1.55-.2 1.65.45.1.65-1.45.95M57.25 132.85q13.45-2.4 23.85-11.05 10.45-8.7 15.1-21.5.55-1.6 1.2-1.4.65.2.2 1.85-3.8 13.55-14.95 22.8-11.1 9.25-25.2 10.7-1.35.15-1.45-.5-.15-.65 1.25-.9M96.15 69.5q-4.85-12.65-15.1-21.25-10.35-8.7-23.65-11.2-1.65-.3-1.55-.95.1-.65 1.75-.45 13.85 1.65 24.8 10.8Q93.3 55.55 97.55 69q.5 1.75-.1 1.95-.65.2-1.3-1.45"/></svg>