<svg xmlns="http://www.w3.org/2000/svg" width="177" height="147" viewBox="-0.2 0 176.95 147.35"><path fill="#3e3a39" d="M98.05 107.2v18.9q17.1-2.45 30.95-12.85L115.65 99.9q-8.05 5.35-17.6 7.3m-19.25 0q-9.55-1.95-17.6-7.3l-13.4 13.35q13.9 10.4 31 12.85v-18.9m30.75-69.3q-8.75-8.75-21.15-8.75-12.35 0-21.1 8.75-8.75 8.8-8.75 21.15 0 12.35 8.75 21.1 8.75 8.75 21.1 8.75 12.35 0 21.15-8.75 8.75-8.75 8.75-21.1 0-12.35-8.75-21.15m63.05 14.3q2.85 2.85 2.85 6.85 0 17.65-6.85 33.8-6.6 15.65-18.65 27.7-12.1 12.05-27.7 18.65-16.15 6.85-33.85 6.85-17.65 0-33.8-6.85-15.65-6.6-27.7-18.65-12.05-12.05-18.65-27.7Q1.4 76.7 1.4 59.05q0-4 2.8-6.85 2.85-2.8 6.85-2.8 4 0 6.8 2.8 2.8 2.85 2.8 6.85 0 11.2 3.6 21.75 3.45 10.15 9.95 18.85l13.35-13.4Q39.3 73.9 39.3 59.05q0-17.7 11.3-31.35 11.2-13.45 28.2-16.85.15-3.9 2.95-6.6 2.75-2.7 6.65-2.7 3.9 0 6.7 2.7 2.8 2.7 2.9 6.6 17.05 3.4 28.2 16.85 11.35 13.65 11.35 31.35 0 14.85-8.3 27.2l13.4 13.4q6.5-8.7 9.95-18.85 3.6-10.55 3.6-21.75 0-4 2.8-6.85 2.8-2.8 6.8-2.8t6.8 2.8"/><path fill="#fff" d="M109.55 37.9q8.75 8.8 8.75 21.15 0 12.35-8.75 21.1-8.8 8.75-21.15 8.75-12.35 0-21.1-8.75-8.75-8.75-8.75-21.1 0-12.35 8.75-21.15 8.75-8.75 21.1-8.75 12.4 0 21.15 8.75"/><path fill="#dbdcdc" d="M88.7 89.1q-13.65 0-22.4-9.95Q58 69.8 58.6 57.4q2.55 12 11.2 18.65 7.85 6 18.25 5.95 10.3-.05 18.5-5.9 8.9-6.3 11.85-17-.1 11.5-7.8 20.25-8.55 9.75-21.9 9.75"/><path fill="#0d131a" d="M110.95 37.55q8.45 8.95 8.45 21.5 0 13.05-8.85 21.9-8.95 8.95-22.15 8.95-13.1 0-22.15-9.2-8.9-9-8.9-21.65 0-12.35 8.8-21.4Q75.2 28.2 88.4 28.2q13.65 0 22.55 9.35M88.4 30.2q-12.05 0-20.35 8.4-8.35 8.35-8.35 20.45 0 12.05 8.35 20.5T88.4 88q12.05 0 20.4-8.45 8.35-8.45 8.35-20.5 0-12.1-8.35-20.45-8.35-8.4-20.4-8.4M46.95 85.45l1.2 1.75q-6.6 5.95-15 14.35-.9.95-1.45.5-.5-.5.45-1.55 5.75-6.4 14.8-15.05M97.05 10.65q-.1-3.8-2.75-6.05-2.4-2-5.75-2-3.4 0-5.8 2-2.6 2.2-2.75 6l-2.25.4q.15-5.2 3.45-8.2Q84.15.05 88.35 0q4.2 0 7.2 2.7Q98.8 5.75 99 10.9l-1.95-.25M128.7 87.15l1.3-1.75q6.25 5.95 14.6 15.15 1.05 1.2.55 1.65-.55.4-1.6-.65l-14.85-14.4"/><path fill="#0d131a" d="M169.45 94.85q-6.95 15.85-19.55 27.9-12.3 11.75-28.25 18.15-16.05 6.45-33.25 6.45-17.9 0-34.3-6.75-16-6.6-28.25-18.65-12.35-12.15-19.05-28-7-16.5-6.8-34.85.05-5.3 3.45-8.45 3.1-2.8 7.5-2.8t7.45 2.8q3.4 3.15 3.4 8.45 0 22.4 13.05 39.85l-1.5 1.4Q19.5 82.35 19.5 59.1q0-4-2.65-6.4-2.4-2.1-5.85-2.1-3.5 0-5.9 2.1-2.65 2.4-2.65 6.4 0 17.55 6.75 33.5 6.5 15.45 18.4 27.35 11.9 11.85 27.35 18.35 15.95 6.75 33.5 6.75t33.5-6.75q15.45-6.5 27.35-18.4 11.85-11.9 18.35-27.35 6.75-16 6.75-33.5 0-3.95-2.65-6.25-2.4-2.1-5.85-2.1-3.5 0-5.9 2.1-2.65 2.3-2.65 6.25 0 11.15-3.65 21.75-3.6 10.5-10.35 19.5L141.9 99q13.15-17.5 13.15-40 0-5.25 3.4-8.35 3.05-2.75 7.45-2.75 4.4.05 7.45 2.85 3.4 3.1 3.4 8.35 0 19-7.3 35.75"/><path fill="#0d131a" d="M61.95 100.6q-7.45 6.65-14.9 14.6-1.15 1.2-1.65.75-.55-.45.6-1.8 5.8-6.5 14.4-14.95l1.55 1.4"/><path fill="#0d131a" d="M48.4 112.45q13.5 10.15 30.5 12.6l-.1 2.05q-17.35-2.4-31.6-13.1l1.2-1.55M79.7 107.25l-.2 20.6q0 1.45-.7 1.45-.65 0-.75-1.45-.4-11.8-.25-21l1.9.4M99.05 107.15l-.3 20.7q-.05 1.45-.7 1.45-.65 0-.75-1.45-.3-11.6-.3-20.55l2.05-.15"/><path fill="#0d131a" d="M129.7 113.95q-14.6 11-31.55 13.2l-.2-2.05q16.85-2.45 30.5-12.6l1.25 1.45"/><path fill="#0d131a" d="M131 114.15q1.05 1.1.5 1.65-.6.5-1.7-.45-7.2-6.35-14.9-14.75l1.65-1.3q7 7.5 14.45 14.85M98.9 59.05q0 4.3-3.05 7.4-3.1 3.05-7.45 3.05-4.3 0-7.4-3.05-3.05-3.1-3.05-7.4 0-4.35 3.05-7.4 3.1-3.1 7.4-3.1 4.35 0 7.45 3.1 3.05 3.05 3.05 7.4"/><path fill="#fff" d="M87 52.3q1.6 0 2.7 1.1 1.15 1.15 1.15 2.7 0 1.6-1.15 2.7-1.1 1.15-2.7 1.15-1.55 0-2.7-1.15-1.1-1.1-1.1-2.7 0-1.55 1.1-2.7 1.15-1.1 2.7-1.1"/><path fill="#0d131a" d="M58.05 97.65q.4-.55 1.55.25 8.1 5.55 19.5 8.7 2.2.6 2.2 1.4 0 .75-2.5.3-4.75-.95-10.45-3.55-5.65-2.6-9.6-5.7-1.1-.8-.7-1.4M117 98.1q1.15-.8 1.55-.25.45.55-.7 1.4-9.15 6.95-20.2 9.1-2.25.45-2.3-.45 0-.85 2.15-1.25 9.6-1.75 19.5-8.55M44.6 34.55Q50.15 24.45 59.25 18q9.65-6.85 21.4-8.2 1.25-.15 1.4.55.1.65-1.15.85-11.25 1.8-20.35 8.5-8.75 6.4-14.1 16.2-6.5 11.9-5.8 25.6.75 14 8.9 26.15.85 1.3.3 1.65-.6.4-1.5-.8Q38.7 76.1 38.2 60.85q-.5-13.85 6.4-26.3M117.55 18.1q9.25 6.55 14.8 16.6 6.9 12.55 6.45 26.15-.55 15.15-10.35 27.65-.9 1.2-1.45.8-.6-.4.3-1.65 8.5-12.1 9.1-26.2.6-13.4-6-25.5-5.35-9.8-14.1-16.25-9.1-6.7-20.35-8.5-1.4-.2-1.3-.9.1-.7 1.5-.5 11.75 1.45 21.4 8.3"/></svg>