<svg xmlns="http://www.w3.org/2000/svg" width="150" height="172" viewBox="0 0 149.75 172.4"><path fill="#3e3a39" d="M104.7 86.25q0-12.35-8.75-21.1-8.75-8.75-21.1-8.75-12.35 0-21.15 8.75-8.75 8.75-8.75 21.1 0 12.4 8.75 21.15 8.8 8.75 21.15 8.75 12.35 0 21.1-8.75 8.75-8.8 8.75-21.15m23.6-85q4 0 6.85 2.8 2.8 2.8 2.8 6.8t-2.8 6.8q-2.85 2.85-6.85 2.85H97.35q-6.5 0-10.25 4.65t-3.75 12.7v.1q14.9 2.65 25.8 13.25 10.9 10.65 13.85 25.45h15.45q4 0 6.8 2.8 2.8 2.85 2.8 6.8 0 4-2.8 6.85-2.8 2.8-6.8 2.8H123q-2.95 14.8-13.85 25.45-10.9 10.65-25.8 13.25v.1q0 8.05 3.75 12.7 3.75 4.65 10.25 4.65h30.95q4 0 6.85 2.85 2.8 2.8 2.8 6.8t-2.8 6.8q-2.85 2.8-6.85 2.8H97.35q-14.45 0-23.85-10.35-9.4-10.35-9.4-26.25v-.55Q49.95 131 39.75 120.6q-10.25-10.45-13.1-24.7H11.2q-4 0-6.8-2.8-2.8-2.85-2.8-6.85 0-3.95 2.8-6.8 2.85-2.8 6.8-2.8h15.45q2.85-14.25 13.1-24.7 10.2-10.4 24.35-13.6v-.5q0-15.9 9.4-26.25T97.35 1.25h30.95"/><path fill="#fff" d="M104.7 86.25q0 12.35-8.75 21.15-8.75 8.75-21.1 8.75-12.35 0-21.15-8.75-8.75-8.75-8.75-21.15 0-12.35 8.75-21.1 8.8-8.75 21.15-8.75 12.35 0 21.1 8.75 8.75 8.75 8.75 21.1"/><path fill="#dbdcdc" d="M104.25 91.65q-1.3 6.4-5.2 12Q90.1 116.4 75.4 116.4q-15.15 0-24.2-11.9-8.95-11.7-5.35-25.75.65 15.3 9.6 23.85 8 7.7 19.4 7.45 11.25-.25 19.4-8.05 8.9-8.55 9.55-22.55 1.8 5.65.45 12.2"/><path fill="#0d131a" d="M138.5 97.05q-9.45.25-15.65.1l.7-2.25 15-.05q4-.05 6.35-2.7 2.1-2.35 2.1-5.7-.05-3.4-2.15-5.8-2.35-2.6-6.35-2.75-7.5-.25-15-.1l-.6-2.15q9.85-.25 15.55-.1 5.3.15 8.45 3.45 2.8 3 2.85 7.25 0 4.25-2.8 7.3-3.15 3.3-8.45 3.5M65.05 134.55q0 15.6 9.2 25.7 9.15 10.05 23.3 10.05h30.8q4 0 6.35-2.65 2.15-2.4 2.15-5.85 0-3.45-2.15-5.85-2.35-2.65-6.35-2.65l-31-.05q-6.85 0-10.8-4.6-4.2-4.85-4.2-13.8l1.95-.35q0 7.7 3.45 12.05 3.5 4.3 9.6 4.3l31.05-.1q5.25 0 8.35 3.4 2.8 3.05 2.8 7.45 0 4.35-2.8 7.4-3.1 3.4-8.4 3.4h-30.9q-15.25 0-24.9-10.55-9.8-10.7-9.8-28l2.3.7M11.2 97.15q-5.3-.1-8.4-3.4Q0 90.8 0 86.5q0-4.25 2.85-7.3Q6 75.8 11.3 75.6q4.3-.2 15.45 0l-.25 2.15q-8.35-.25-15.25 0-4.1.15-6.45 2.75-2.15 2.35-2.15 5.7t2.15 5.7q2.4 2.65 6.5 2.85 7.85.3 15 .05l.45 2.15q-6.45.4-15.55.2M128.3 19.35q4.05 0 6.45-2.6 2.15-2.4 2.15-5.8t-2.15-5.75q-2.4-2.65-6.45-2.65L97.35 2.3Q83.2 2.3 73.9 12.55q-9.25 10.3-8.9 25.5l-1.85.45q-.7-16.55 9.35-27.55Q82.35.15 97.35.15l31-.15q5.25 0 8.3 3.4 2.8 3.05 2.8 7.45-.05 4.4-2.8 7.45-3.1 3.4-8.35 3.4l-31-.15q-13.45 0-13.1 16.4l-1.75-.1q-.6-8.7 3.45-13.6 3.95-4.8 11.4-4.85l31-.05M105.8 86.3q0 12.6-9.15 21.7t-21.8 9.1q-12.65 0-21.8-9.1-9.2-9.1-9.2-21.75 0-12.6 9.2-21.7 9.15-9.1 21.8-9.1t21.8 9.1q9.15 9.1 9.15 21.75M95.25 65.75q-8.4-8.5-20.4-8.5-12.05 0-20.45 8.5Q46 74.25 46 86.3t8.4 20.45q8.4 8.4 20.45 8.4 12.05 0 20.4-8.4 8.35-8.4 8.35-20.45 0-12.1-8.35-20.55"/><path fill="#0d131a" d="M85.3 86.3q0 4.3-3.05 7.4-3.1 3.05-7.45 3.05-4.3 0-7.4-3.05-3.05-3.1-3.05-7.4 0-4.35 3.05-7.4 3.1-3.1 7.4-3.1 4.35 0 7.45 3.1 3.05 3.05 3.05 7.4"/><path fill="#fff" d="M73.45 79.55q1.6 0 2.7 1.1 1.1 1.15 1.1 2.7 0 1.6-1.1 2.7-1.15 1.15-2.7 1.15-1.6 0-2.75-1.15-1.1-1.1-1.1-2.7t1.1-2.7q1.15-1.1 2.75-1.1"/><path fill="#0d131a" d="M66.85 38.55q-15.65 3.3-26.4 14.15-10.75 10.9-13.5 26.45-.3 1.75-.95 1.65-.65-.1-.5-1.85 1.4-16 13.3-27.85 11.6-11.65 27.8-14 1.8-.25 1.9.4.1.7-1.65 1.05M26.95 93.3q3.05 16.25 13.7 27 10.4 10.6 25.8 13.65 1.35.25 1.25.9-.15.65-1.5.5-15.75-1.75-27.45-13.8Q27.1 109.5 25.5 93.5q-.15-1.65.5-1.75.65-.1.95 1.55M124.15 93.5q-1.85 16.8-14.1 28.7-12.2 11.85-29.35 13.55-1.45.15-1.6-.5-.15-.65 1.45-.9 16.55-2.7 27.9-13.8 11.2-11 14.25-27.25.25-1.4.95-1.3.65.1.5 1.5M122.65 79q-2.8-15.9-14.25-27.1-11.5-11.2-27.55-13.65-1.7-.25-1.65-.95.1-.7 1.8-.5 16.45 1.7 28.75 13.55 12.4 11.95 14.35 28.4.25 2.15-.4 2.25-.65.1-1.05-2"/></svg>