<svg xmlns="http://www.w3.org/2000/svg" width="130" height="171" viewBox="-0.25 -0.2 130.4 171.1"><path fill="#3e3a39" d="M79.6 37.5q-8.75-8.75-21.1-8.75-12.35 0-21.1 8.75-8.75 8.75-8.75 21.1 0 12.35 8.75 21.1 8.75 8.75 21.1 8.75 12.35 0 21.1-8.75 8.75-8.75 8.75-21.1 0-12.35-8.75-21.1m28 21.1q0 17.7-11.3 31.3-11.15 13.45-28.2 16.85v37.6q2.3-3.2 7.15-6.4 9.65-6.4 22.25-6.4 14.1 0 22.95 9.5 7.85 8.35 7.85 19.05 0 4-2.8 6.85-2.85 2.8-6.85 2.8H58.5q-4 0-6.8-2.8-2.85-2.85-2.85-6.85v-53.35q-17-3.4-28.15-16.85Q9.4 76.3 9.4 58.6q0-14.85 8.25-27.25L4.3 18.05q-2.8-2.8-2.8-6.8t2.8-6.8Q7.15 1.6 11.15 1.6q3.95 0 6.8 2.85l13.3 13.3Q43.65 9.5 58.5 9.5q20.35 0 34.7 14.4 14.4 14.4 14.4 34.7"/><path fill="#fff" d="M79.6 37.5q8.75 8.75 8.75 21.1 0 12.35-8.75 21.1-8.75 8.75-21.1 8.75-12.35 0-21.1-8.75-8.75-8.75-8.75-21.1 0-12.35 8.75-21.1 8.75-8.75 21.1-8.75 12.35 0 21.1 8.75"/><path fill="#dbdcdc" d="M28.6 55.85q2.05 11.7 10.95 18.45 8.1 6.1 18.95 6.3 10.8.2 19.05-5.55 8.95-6.2 11.15-17.1.1 12.75-8.45 21.55-8.65 8.85-21.55 8.85-13.1 0-21.7-9.05-8.7-9.25-8.4-23.45"/><path fill="#0d131a" d="M30.1 18.4q-7.7-7.9-13.05-12.9-3-2.75-6.5-2.6-3.15.15-5.5 2.45Q2.7 7.7 2.6 10.8q-.15 3.5 2.6 6.45L18.4 30.6l-1.3 1.75-13.7-13.5Q-.25 15.1 0 10.55.25 6.4 3.35 3.3 6.45.2 10.55.05 15.1-.2 18.8 3.5l13.35 13.65-2.05 1.25M80.7 36.9q8.85 8.9 8.85 21.7 0 13-8.85 21.9-8.9 9-22.2 9-12.85 0-21.8-8.75-9.1-8.95-9.1-22.15t8.8-22q8.85-8.8 22.1-8.8 13.25 0 22.2 9.1m-22.2-7.3q-12 0-20.45 8.5-8.4 8.45-8.4 20.5t8.4 20.4q8.4 8.35 20.45 8.35 12.05 0 20.35-8.35t8.3-20.4q0-12.05-8.3-20.5-8.35-8.5-20.35-8.5M47.8 106.7l2.15.6.15 52.8q0 4 2.2 6.25 2.2 2.3 6.2 2.3h60.05q3.7 0 6.15-2.45 2.5-2.5 2.5-6.15 0-10.1-7.05-18.05-8.4-9.35-22.65-9.35-9.6 0-17.8 4-6.05 2.95-10.6 7.65-2.4 2.55-2.6 1.75-.2-.75 1.9-3.5 3.15-4.15 9.6-7.5 8.85-4.55 19.5-4.55 15.45 0 24.65 9.75 8 8.5 8 19.9 0 4.8-2.85 7.65-3.05 3.1-8.7 3.1l-60.1-.15q-4.8 0-7.5-2.3-3.2-2.7-3.2-8.35v-53.4"/><path fill="#0d131a" d="M68.8 143.1q-1 .8-1.45 1.5-.65-23.8-.15-37.65l1.9-.15q-.4 14.4-.3 36.3M68.95 58.6q0 4.35-3.05 7.4-3.1 3.05-7.4 3.05-4.35 0-7.4-3.05-3.05-3.05-3.05-7.4 0-4.35 3.05-7.4 3.05-3.05 7.4-3.05 4.3 0 7.4 3.05 3.05 3.05 3.05 7.4"/><path fill="#fff" d="M57.1 51.85q1.55 0 2.7 1.15 1.1 1.1 1.1 2.7t-1.1 2.7q-1.1 1.1-2.7 1.1t-2.7-1.1q-1.15-1.15-1.15-2.7 0-1.55 1.15-2.7 1.15-1.15 2.7-1.15"/><path fill="#0d131a" d="M19.8 29.55q-9.3 12.4-9.3 29.1 0 17.65 11.65 31.2 11.5 13.4 29 16.6 1.3.25 1.2.9-.1.7-1.4.55-17.75-2.4-29.8-15.5-12.8-13.9-12.8-33.8 0-17.4 10.3-29.9.95-1.15 1.5-.75.55.4-.35 1.6M96.65 91.55q-12.25 14.2-31.3 16.4-1.6.25-1.7-.45-.1-.65 1.5-.95 18.5-3.4 29.95-16.7 11.5-13.25 11.5-31.3 0-20-14.05-33.95-14-13.95-34.05-13.95-15.6 0-28.75 9-1.15.8-1.55.25-.4-.55.7-1.4 6.25-5.05 14-7.65 7.45-2.5 15.65-2.5 20.5 0 35.1 13.95 15.2 14.5 15.05 36.3-.1 19.05-12.05 32.95"/></svg>