<svg xmlns="http://www.w3.org/2000/svg" width="180" height="172" viewBox="-2.15 -0.95 179.7 171.65"><path fill="#fff" d="M117.6 84.85q0 12.35-8.75 21.1-8.75 8.75-21.1 8.75-12.35 0-21.1-8.75-8.75-8.75-8.75-21.1 0-12.35 8.75-21.15 8.75-8.75 21.1-8.75 12.35 0 21.1 8.75 8.75 8.8 8.75 21.15"/><path fill="#3e3a39" d="M106.2 20.1q-3.85-1.05-5.8-4.55-1.95-3.45-.85-7.3 1.1-3.85 4.55-5.8 3.5-1.95 7.35-.85 29.5 8.35 47.2 33.7 17.7 25.35 15.4 55.95-2 26.95-19.2 48.15-17.2 21.15-43.2 28.6-3.85 1.15-7.3-.8-3.5-1.95-4.6-5.8-1.1-3.8.8-7.3 1.95-3.45 5.8-4.6 17.75-5.1 30.45-18.7 12.6-13.5 16.6-31.4l1.4-19.2q-1.45-21.05-14.75-37.6-13.4-16.7-33.85-22.5M63.85 1.65q3.85-1.1 7.3.85 3.5 1.95 4.6 5.75 1.15 3.85-.8 7.3-1.9 3.5-5.75 4.6-17.8 5.1-30.5 18.75-12.6 13.5-16.6 31.4l-1.4 19.2q1.45 21 14.75 37.55 13.45 16.7 33.9 22.5 3.85 1.1 5.75 4.55 1.95 3.5.85 7.35-1.1 3.85-4.55 5.75-3.45 1.95-7.3.85-29.5-8.3-47.2-33.7Q-.8 109 1.5 78.4q2-26.95 19.2-48.1Q37.9 9.1 63.85 1.65"/><path fill="#3e3a39" d="M117.6 84.85q0-12.35-8.75-21.15-8.75-8.75-21.1-8.75-12.35 0-21.1 8.75-8.75 8.8-8.75 21.15 0 12.35 8.75 21.1 8.75 8.75 21.1 8.75 12.35 0 21.1-8.75 8.75-8.75 8.75-21.1M87.75 35.7q17.7 0 31.3 11.3 13.45 11.15 16.85 28.2h23.05l.05 19.25h-23.1q-3.4 17.05-16.85 28.2-13.6 11.3-31.3 11.3-17.7 0-31.3-11.3Q43 111.5 39.6 94.45H16.25L16.2 75.2h23.4Q43 58.15 56.45 47q13.6-11.3 31.3-11.3"/><path fill="#dbdcdc" d="M88.2 114.65q-14.8.05-23.65-10.7-8.5-10.45-6.3-24.1.8 13.25 9.5 20.85 7.85 6.8 19.1 6.95 11.1.15 19.7-6.15 9.35-6.9 11.3-18.7.15 12.2-7.15 21.35-8.35 10.45-22.5 10.5"/><path fill="#0d131a" d="M118.7 84.8q0 13.05-8.65 21.9-8.8 9.05-22.3 9.05-13.35 0-22.35-9.3-8.75-9.05-8.75-21.6 0-12.65 8.75-21.6 9-9.2 22.35-9.2 14.05 0 22.95 9.95 8 8.95 8 20.8M87.75 55.9q-12 0-20.4 8.45Q59 72.8 59 84.85q0 12.1 8.4 20.5t20.45 8.4q12 0 20.35-8.45 8.35-8.4 8.35-20.5 0-12.05-8.35-20.45-8.4-8.45-20.45-8.45M156.45 75.95q-10-.15-20.25.3l-.3-2.1q12.15-.1 20.55.35 1.8.1 1.8.75 0 .7-1.8.7"/><path fill="#0d131a" d="M111.2 2.65q-4-1.1-6.95.85-2.6 1.7-3.4 5.1-.85 3.3.55 6.2 1.5 3.2 5.05 4.2 19.3 5.45 32.65 20.85 13.25 15.3 16.15 35.2h-2.2q-2.75-19.25-15.55-33.7-12.8-14.45-31.7-19.8-4.95-1.4-7-5.55-1.9-3.75-.8-8.05 1.1-4.3 4.6-6.5 3.9-2.4 9.15-.9 30.85 8.95 48.4 34.15 17.4 25.05 15.05 56.65-2.05 27.35-19.15 48.55-17.3 21.45-44.2 29.25-4.95 1.45-8.8-.95-3.5-2.15-4.75-6.35-1.25-4.2.6-7.9 2.05-4.1 7.15-5.55 23.3-6.7 36.55-26.5 9.6-14.25 10.5-27.4l1.95.1q-.05 4.7-2.3 11.55-2.75 8.55-7.7 16.3-13.7 21.35-38.5 28.45-3.8 1.1-5.3 4.2-1.3 2.8-.35 6.05 1 3.25 3.65 4.9 3 1.85 6.8.75 25.75-7.4 42.65-28.1 16.9-20.75 18.9-47.5 2.3-30.4-15.1-55.35-17.35-24.95-46.6-33.2"/><path fill="#0d131a" d="m135.9 95.55.45-2.1q8.95.4 20.1.3 1.35-.05 1.35.65-.05.75-1.35.8-7.55.35-20.55.35M19 95.2q-1.7-.1-1.7-.8 0-.7 1.7-.65 8.3.1 20.4-.4l.25 2.15q-10.95.15-20.65-.3"/><path fill="#0d131a" d="M72.75 1.45q3.6 2.15 4.85 6.35 1.2 4.2-.7 7.9-2.1 4.1-7.25 5.6-21.9 6.3-35.4 25.2-10.7 15-11.5 28.85l-2.25.05q-.25-3.75 1.9-10.6Q25 56.3 30 48.45q13.85-22.1 39-29.3 3.9-1.1 5.45-4.35 1.4-2.85.4-6.2-.95-3.3-3.7-5-3.05-1.9-6.95-.8Q38.45 10.2 21.55 31 4.65 51.75 2.65 78.5q-2.3 30.35 15.1 55.3 17.4 25 46.65 33.25 3.75 1.05 6.8-.85 2.75-1.7 3.8-4.95 1.05-3.35-.35-6.2-1.55-3.15-5.6-4.3-19.8-5.55-33-21-12.9-15.05-15.75-35.1h1.95q2.9 19.3 15.75 33.9 12.85 14.7 31.65 20 5.25 1.5 7.45 5.6 2 3.7.85 7.85-1.15 4.2-4.8 6.35-4 2.35-9.35.9-30.05-8.15-47.9-33.45Q-2.15 110.25.25 78.3 2.35 50 19.55 29 36.65 8.1 63.6.55q5.15-1.45 9.15.9"/><path fill="#0d131a" d="M18.95 75.95q-1.55.05-1.55-.65 0-.7 1.55-.8l10.2-.35q6.65-.1 10.55.05l-.2 2.1q-10.8-.6-20.55-.35M98.2 84.85q0 4.3-3.05 7.4-3.05 3.05-7.4 3.05-4.35 0-7.4-3.05-3.05-3.1-3.05-7.4 0-4.35 3.05-7.4 3.05-3.1 7.4-3.1 4.35 0 7.4 3.1 3.05 3.05 3.05 7.4"/><path fill="#fff" d="M86.35 78.1q1.6 0 2.7 1.1 1.1 1.15 1.1 2.7 0 1.6-1.1 2.75-1.1 1.1-2.7 1.1t-2.7-1.1q-1.1-1.15-1.1-2.75 0-1.55 1.1-2.7 1.15-1.1 2.7-1.1"/><path fill="#0d131a" d="M120.4 46.65q14.25 12.35 16.65 30.9.2 1.25-.5 1.3-.65.1-.9-1.1-3.45-17.75-16.7-29.2-13.45-11.6-31.2-11.6-17.6 0-31.05 11.55-13.25 11.35-16.8 28.95-.2 1.2-.9 1.1-.7-.1-.5-1.3Q40.95 59 54.5 46.9q13.95-12.5 33.25-12.5 18.55 0 32.65 12.25M137.1 91.95q-1.45 17.65-16.15 30.45-14.65 12.7-33.2 12.7-18.8 0-33-12.25Q40.3 110.4 38.4 91.75q-.15-1.45.5-1.55.7-.1.9 1.35 3.15 17.9 16.5 29.35 13.5 11.55 31.45 11.55 17.85 0 31.45-11.6 13.5-11.55 16.45-29.1.25-1.35.9-1.25.65.05.55 1.45"/></svg>