<svg xmlns="http://www.w3.org/2000/svg" width="76" height="140" viewBox="-0.05 -0.05 75.6 139.6"><path fill="#f09cb4" d="M44.15 37q4.65.4 6.7 4.3 5.1-1.15 8.95 1.9 3.7 3 4.3 8.2 5.7 1.65 6.9 6.45.95 4.05-1.35 8.9 3.95 2.7 4.7 7.3.9 5.45-4.4 9.35 3.15 3.65 2.4 6.75-.5 2.15-3.5 5.1 1.95 4.45-.35 8-2 3.2-6.35 4.55-1.5-2.05-7.3-8.4-.9-.9-1.75-.95-.8-.05-1.4.55-1.45 1.45.2 3.3l5.25 5.9q1.75 2 1.85 4.05.25 2.65 1.05 4.65-2 2.3-7.45 2.65-1 3.1-3.7 4.3-2.5 1.15-5.85.45 2.6 3.1 5 5.05 1.7 1.45.8 3.2-.4.75-1.15.8-.75.05-2.05-.5-2.3-.85-5.85-5.95.35 1.9 1.45 4.35 1 2.3 2.15 4 1.15 1.75 0 2.75-.9.85-1.85.8-.75 0-1.85-.65-1.55-.85-2.55-4.45-.85-3.15-.95-6.8-1.8 3.15-4.95 6.05-1 .9-2.05.7-1-.2-1.5-1.05-.5-.8-.2-1.45.35-.7 1.75-1.55 3.8-2.35 4-6.2-4.75 2.25-8.5.25-3.55-1.9-3.85-5.95-2.55-.3-4.75-1.45-2.2-1.1-3.3-2.65l.3-3.25q.05-1 .25-1.5.25-.7.95-1.35 3.75-3.4 6.25-5.3 2-1.45.75-3.05-.45-.7-1.4-.6-.95.05-2.15 1l-7.6 6.7-.1-3.2q-4.25-2.35-5.65-6.9-1.6-5.1 1.75-9.95-5.15-5.8-4.3-12.45.75-6.5 6.45-9.35.05-5.45 2.25-9 2.05-3.3 5.65-4.6.15-7.4 6.5-10.1 5.35-2.3 11.9-.5 4.7-3.65 9.5-3.2"/><path fill="#717071" d="M54.7.8q-.4 2.5-1.9 6.1-1.4 3.3-3 6.1 2.15 1.4 2.75 3.85.55 2.25-.4 4.25 1.9 1.55 1.8 4.2-.05 2.6-1.95 4.8 2.45 1.6 3.25 4.65.9 3.25-.55 6.55-1.35-.25-3.85 0-3.5-4.55-8.75-4.15-4 .3-7.7 3.1l-6.95-.85q.85-3.6 5-7.5-2.1-4.7 2.7-8.7-1.05-3.15.8-5.9 1.3-1.95 4.3-3.9-2.2-5.2 4.1-9.25Q49.65.8 54.7.8M27.2 47.9q6.05-3.6 13.25-3.1 7.4.5 12.9 4.85Q59.7 54.6 58.8 61.7q-.85 6.9-8.2 10.15-5.6 2.5-12.9 2.25-7.8-.3-13.1-4.1-5.9-4.2-5.15-10.65.85-7.3 7.75-11.45"/><path fill="#d3d9db" d="M21.8 100.65q-.05.55-.9 1.3l-6.55 5.55-.95 1.2q-.2.4-.25 1.15l-.3 3.75-.35 1.55-.95 1.25-2.85 2.65-3.95 3.2q-.95.7-1.9.65-.9-.1-1.45-.75-.5-.55-.35-1.4.2-.8 1-1.6l6.9-6.5.35-5.15q4.85-4.7 9.05-7.95 1-.8 1.6-.85.65-.05 1.3.65.65.7.55 1.3M60.95 106.05q1.35 1.3 1.7 2.8l.1 2.2q-.2 2.2 1 3.8 2.05 2.65 3.85 4.35.95.95.95 2.05 0 1.1-.9 1.95-1.5 1.45-3.35-.7-1.8-2-3.75-4.8-1.35-1.85-1.45-4.9-.15-2.2-1.95-4.6-1.25-1.85-5.35-6.25-.8-.95-.75-1.7.05-.6.65-1.25.5-.55 1.55-.3 1.05.25 1.95 1.2l5.75 6.15"/><path fill="#d0879d" d="M57.3 108.5q1.8 2.6 1.8 4.95 0 1 .25 1.8l.7 1.65q-4.05 3-7.25 2.6-1.35 3.05-3 4.1-2.2 1.4-6.5.85 2.6 3.2 5.15 5.05.8.6.85 1.5 0 .75-.55 1.4-.5.6-1.35.8-.95.2-1.9-.3-2.05-1.1-5.6-5.85.55 3.9 3.6 8.35.5.75.45 1.5-.05.85-.85 1.3-1 .65-2.1.55-1.4-.15-2.5-1.5-1.05-1.35-1.6-4.3l-.7-5.75-2.65 3.65q-1.45 1.8-2.85 2.45l-1.65.3q-.85-.1-1.3-.75-1-1.45.8-2.8l2.6-2.05q1.7-1.85 2.15-4.5-4.45 1.45-7.65.45-4-1.2-4.75-6.15-5.15-1.5-8.05-4.15l.2-2.8.5-2.25q.7-1.05 7.55-6.95 2.7 4.1 9.35 4.35 6.55.2 9.5-3.35.7-.8 1.5.15 1.8 2.2 5.3 1.85 3.35-.4 5-2.5l3 3.3 2.55 3.05M55.65 100.5q2.05.55 4.55-.55l2-.2q1.45.9 3.75-.6 2.45-1.6 2.9-4.1 1.65 3.35.45 6.65-1.45 4-6.75 6.15l-6.9-7.35"/><path fill="#595757" d="M54.5 1.55q-.35 2.25-1.85 5.75l-2.9 5.8q-.9-.65-3.1-.95 1.8-.95 4.45-4.7 2.25-3.25 3.4-5.9"/><path fill="#595757" d="M48 12.65q3.15.55 4.2 3.25.85 2.25.15 5.15-1.7-1.3-4.15-1.5l-4.6.3q3.6-1.25 4.7-3.95.9-2.3-.3-3.25"/><path fill="#595757" d="M46.45 19.75q6.05-.5 7.3 3.5 1.15 3.6-2 6.65-3.4-2.45-9.35-2 5-1.2 6.2-4.2 1.2-2.9-2.15-3.95"/><path fill="#595757" d="M45.95 28.2q6.85.5 8.85 5.25 1.6 3.8-.2 7.8l-3.7.1q-1.8-2.45-4.15-3.5-1.75-.8-4.55-1 5.5-1.6 6.45-4.65.95-2.9-2.7-4"/><path fill="#0d131a" d="M59.7 44.25q-3.45-3-8.65-2.2-.3.1-.65-.25-2.25-3.25-6.35-3.85-4.65-.65-9 2.75-.3.3-.7.2-8.55-2-13.4 1.6-3.85 2.85-4.05 8.4l-.3.55q-4 1.75-5.85 4.95Q8.9 59.65 9 64.65q0 .35-.4.55-2.15.85-3.6 2.8-1.5 1.9-2.05 4.6-.75 3.55.3 7.15 1 3.55 3.45 6.1.35.4.1.75-1.4 1.9-1.85 4.25-.45 2.4.15 4.8 1.15 4.85 5.3 6.95l.4.5.1 2.7-1.1.9q-.35-1.55-.35-3.15-2.1-1.15-3.7-3.1-1.6-2-2.2-4.4-.5-2.1-.2-4.45.4-2.95 2.05-5.35-3.1-3.1-4.05-7.6-.7-3.4-.1-6.45.6-2.8 2.4-5 1.8-2.15 4.1-2.95-.85-5 1.5-8.75 2.3-3.75 6.4-5-.05-3 1.1-5.5 1.1-2.35 3.15-3.85 2.55-1.9 6.4-2.35 3.95-.5 8.15.7 4.95-4.15 10-3.3 4.4.7 6.9 4.5 2.75-.55 5.25.05 2.6.6 4.4 2.25 2.9 2.7 3.55 7.75 2.05.45 3.7 1.6 1.8 1.3 2.75 3.25 2.65 5.85-.65 10.95 2 1.2 3.35 3.4t1.5 4.6q.35 5.2-4.15 8.95 2.5 2.55 2.3 6.05-.1 1.65-1.15 3.25-1.05 1.55-2.6 2.5.95 1.75.95 3.85 0 2.2-1.05 4.15-1.05 2.1-3.2 3.55-1.95 1.35-3.8 1.5l-.7-1.05q1.5 0 3.4-1.4 1.9-1.45 2.9-3.4 1.95-3.95.2-7.05-.25-.45.2-.85 2.8-2.05 3.1-5.15.3-3-2.05-5.6-.4-.5.1-.85 1.85-1.45 2.85-3.7 1-2.3.9-4.75-.25-4.75-4.2-7.35-.55-.35-.2-.85 1.3-2.1 1.45-4.8.15-2.75-.95-5.15-1.75-3.95-5.5-4.5-.5-.1-.55-.5-.75-4.55-3.75-7.15"/><path fill="#0d131a" d="M39.6 45.4q-7.1-.2-12.75 3.4-6.15 3.85-6.7 10.1-.55 6.15 4.1 10.1 4.85 4.05 14 4.5 7.9.35 13.8-3.35 6.25-3.95 6.1-10.25-.15-6.9-6.7-11-5.35-3.3-11.85-3.5m-13.55 2.4q6.1-3.9 13.6-3.7 7.3.2 12.95 3.9 6.9 4.55 7.05 12.3.1 6.7-6.15 10.85-6.15 4.1-15.25 3.7-10.6-.5-15.7-5.45-4.4-4.25-3.8-10.75.65-6.65 7.3-10.85M50.45 13.4l-1.25-.8q1.7-2.65 3.05-5.95Q53.5 3.6 54 1.4q-3.3.2-7.1 2.2-4.05 2.15-5.7 4.9-1.5 2.5-.25 4.8l-1.4.55q-.9-1.25-.9-3.05 0-1.7.9-3.2 1.85-3.05 6.3-5.3Q50 .25 54.1 0q1.65-.05 1.5 1.1-.35 2.15-1.75 5.6-1.55 3.75-3.4 6.7"/><path fill="#0d131a" d="m52.95 21.55-1.15-.85q.9-3.7-1.1-6-1.85-2.1-5.55-1.65-4.95.55-7.85 3.7-2.95 3.2-1.45 6.55l-1.25.65q-2-4.05 1.4-8.1 3.4-4 9.1-4.5 2.45-.2 4.45.7 1.6.75 2.5 1.95 1.05 1.35 1.35 3.5.3 2.25-.45 4.05"/><path fill="#0d131a" d="m52.45 30.45-1.15-.9q3.25-2.95 1.65-6.4-1.65-3.65-7.55-2.8-7.8 1.1-11.25 5.05-3.1 3.45-1.05 6.4l-1.25.8q-2.8-3.95 1.15-8.4 4.05-4.7 12.25-5.7 6.9-.85 9.05 4.05 2.05 4.65-1.85 7.9"/><path fill="#0d131a" d="m55.15 41.5-1.35-.25q2.75-4.7-.55-8.9-3.45-4.4-10.5-3.55-7.25.9-11.5 5.25-2.9 3-3.2 5.55h-1.6q.75-4 4.55-7.5 4.65-4.3 11.55-5.15 8.5-1.1 12.3 4.65 3.5 5.25.3 9.9M22.1 98.6q.75.8.6 1.9-.15 1-.8 1.5-5.25 4.2-7.3 6.25-.75.75-.85 2.15l-.3 4.1q-.05.6-.5 1.4l-.85 1.15q-6.2 5.65-7.4 6.3-1 .55-2.2.4-1.3-.15-1.95-1-.6-.8-.55-1.9.05-1.2.85-1.9L7.6 113q.55-.5.8-1.45l.1-3.8q.05-.8 1.15-1.9l8.8-7.6q.8-.7 1.85-.6 1.05.1 1.8.95m-1.15.95-1.7-.1q-1.15.75-4.25 3.45l-3.85 3.4q-1.4 1.1-1.4 1.7l-.25 4.2q-.1.85-.4 1.15l-6.8 6.3q-.45.45-.55 1.05-.1.6.15 1.05.8 1.05 2.1.15l4.2-3.3 3.15-2.85q.8-.8.9-1.55l.5-5.1q.15-.9 1.1-1.75l7.1-6.25q.8-.75 0-1.55M23.55 69.2l1.25 1.25q-2.8 0-5.3 2.4t-3.95 6.55q-.4 1.2-.75 1.05-.4-.2-.05-1.4 1.2-4.35 3.45-6.95 2.3-2.6 5.35-2.9M25.4 70.7l1.45.7q-6.25 5.15-6.65 11.9-.05 1.25-.4 1.15-.35-.05-.45-1.25-.15-3.45 1.5-6.85 1.6-3.25 4.55-5.65M29 72.4l1.6.45q-1.9 1.4-3.2 3.85-1.25 2.5-1.6 5.35-.2 1.5-.55 1.55-.3 0-.3-1.5-.05-6.35 4.05-9.7M45.15 73.6l1.55-.4q1.85 1.9 2.75 4.15.8 2.15 1.05 5.3.1 1.4-.2 1.45-.3.05-.55-1.3-.9-5.5-4.6-9.2M48.9 72.75l1.4-.9q5.45 3.7 4.8 11.6-.1 1.3-.45 1.3t-.35-1.3q0-7.1-5.4-10.7M52.5 70.85l1.25-1.1q2.7 1.85 4.05 3.9 1.3 1.9 1.85 4.5.25 1.3-.05 1.5-.35.2-.75-1.05-1.4-4.3-6.35-7.75M55.1 98.65l6.9 7.5 1.25 1.8q.6 1.25.35 2.75-.3 2.1 1.2 4.1l4.15 4.8q.75.9.55 2.15-.15 1.35-1.25 2.25-.8.7-2.05.7-1.15 0-1.7-.55l-4.7-6q-1.35-2-1.4-4.35 0-1.75-.55-2.8L56 108l-5.55-6.05q-.55-.65-.4-1.75.15-1.15 1.15-1.9 1.1-.9 2.25-.65.9.2 1.65 1m5.75 8.4-6.6-7.2q-1.25-1.25-2.2-.55-.5.45-.45 1.1 0 .55.4 1.05l5.25 5.9q1.15 1.25 2 3.25l.5 3.15q.25 2.05 1 3.15 1.45 2.2 4.4 5.55.45.55 1.1.55.6.05 1.05-.4l.55-1.05q.05-.65-.4-1.15l-4.1-5.15q-1.55-1.8-1.15-4.3.2-1.35-.2-2.3-.3-.75-1.15-1.6"/><path fill="#0d131a" d="M20.85 117q.75.1.7.9-.1 2.85 3.1 4.8 1.75 1.05 3.85 1.2 2.5.15 4.7-1.05 1.4-.8 1.6-.4.2.45-1.15 1.35-2.1 1.4-4.75 1.55-2.7.15-5.05-1.05-1.65-.85-2.7-2.7-1-1.8-.9-3.4-2.6-.4-4.4-1.2-1.75-.85-3.25-2.3l.45-2.05q2.9 3.7 7.8 4.35M57.15 119.65l-4 .4q-.7 2.9-2.6 4.1-2.65 1.7-7 .75l-1-1.2q4.6 1.05 7.15-.75 1.95-1.35 2.25-3.4.15-.8.8-.75 1.8.2 3.85-.55 2.1-.8 2.95-2.1l.9 1.4q-.95 1.5-3.3 2.1"/><path fill="#0d131a" d="M41.9 122.65q.3-.25.95.55 1.45 1.9 6.1 5.9.9.8 1.05 1.9.2 1.15-.65 2.15-.7.95-1.9 1.1-1.1.15-2.05-.4-2.65-1.35-5.2-5.65l-.35-2.35q1.25 2.15 2.95 4.05 1.75 1.95 2.8 2.4l2.5-.15q.4-.5.2-1.2l-.65-1.1q-3.9-3.55-5.5-6.05-.55-.9-.25-1.15M32.7 123.65l1.2-.65q-.05 1.8-1.3 3.9-1.2 2.05-2.55 2.8-2.8 1.45-1.65 2.9.4.5 1.15.4.8-.05 1.65-.8 2.95-2.45 5-6.25l.15 1.65-2.05 3.25-2.6 2.75q-1.1.9-2.45.9t-2.05-.9q-.95-1.25-.4-2.6.5-1.35 2.35-2.3l2.15-1.85q1.2-1.5 1.4-3.2"/><path fill="#0d131a" d="M42.15 138.05q.9-.3 1.25-.85.3-.45 0-.9l-2.6-4.65q-1.25-2.7-1.4-5.9-.05-.95.35-.95.35 0 .45.9.5 4.85 4.5 10.15.75.95.05 2.05-.65 1.05-2.05 1.55l-2.35.1q-1.35-.4-2.45-1.8-1.15-1.45-1.75-5.2-.45-3-.45-6.6-.05-1.1.35-1.1.35-.05.45.95.85 9 2.45 10.95 1.55 1.85 3.2 1.3"/><path fill="#fcd13e" d="M27.95 52.6q1.55.25 2.15 2.1.5 1.55.2 3.15-.3 1.65-1.2 2.8-1.1 1.45-2.7 1.15-1.6-.3-2.15-2.1-.5-1.4-.2-3.15.2-1.55 1.3-2.8 1.2-1.35 2.6-1.15M50.25 53.5q1.35.2 2.15 1.9.7 1.65.45 3.5-.25 1.8-1.45 3.2-1.25 1.4-2.55 1.15-1.35-.25-2.1-1.6-.85-1.4-.75-3.55.1-2.1 1.5-3.5 1.3-1.3 2.75-1.1"/><path fill="#0d131a" d="M49.95 57.8q-.15 1.15-.55 1.05-.45 0-.35-1.15.1-1.05.55-1.05.45.05.35 1.15M27.75 56.65q-.15 1.1-.55 1-.4 0-.25-1.1.15-1.05.55-.95.4 0 .25 1.05"/><path fill="#0d131a" d="M28 53q-1.05-.2-2.05.9-1.05 1.15-1.35 2.9-.35 1.75.25 3.2.55 1.4 1.65 1.5 1.05.15 2-.85.95-1.05 1.3-2.85.3-1.85-.2-3.2-.55-1.4-1.6-1.6m2.45 1.4q.65 1.65.3 3.55-.4 2.2-1.7 3.45-1.25 1.1-2.7.85-1.65-.3-2.35-2-.7-1.55-.3-3.65.35-2.15 1.7-3.35 1.3-1.15 2.75-.95 1.6.25 2.3 2.1M51.1 61.8q.95-1.2 1.2-3.05.25-1.85-.4-3.3-.65-1.5-1.9-1.7-1.1-.1-2.05 1-1.05 1.2-1.35 3.25-.2 1.85.5 3.3.75 1.45 1.9 1.6 1.15.15 2.1-1.1m1.65-6.65q.9 1.7.6 3.7-.3 2.3-1.55 3.65-1.3 1.35-2.95 1.1-1.6-.25-2.5-1.8-1-1.6-.7-3.9.3-2.4 1.6-3.75 1.25-1.3 2.85-1.05 1.7.2 2.65 2.05M31.75 61.85l.05-1.1q3.8.15 7.9 1.65 1.15.5 1 .75l-1.2-.05q-3.75-1.1-7.75-1.25"/><path fill="#0d131a" d="M30.8 61.1q.05-.3.65-.6l5.45-3.05q.95-.55 1.1-.25.15.3-.55.8l-4.9 3.35 5 5.6q.7.9.5 1.1-.15.2-1-.6L31.3 61.9q-.55-.5-.5-.8"/></svg>