<svg xmlns="http://www.w3.org/2000/svg" width="76" height="135" viewBox="-0.35 -0.5 75.85 134.9"><path fill="#fff1ac" d="M44.25 38.65q1.7-.8 3.65-.45 1.95.35 2.9 1.7.65.95 1.45 1.1l1.4-.15q3.05-.55 4.35.35.9.65 1.45 2.65.35 1.3 1.2 2 .55.5 1.85 1 2.25.85 3.1 3.05.7 1.75.4 3.5-.15 1.25.25 2.05.35.65 1.35 1.3 2.7 1.8 3.1 4.3.3 1.8-.7 4.4-.7 1.7.6 2.5 1.15.8.8 2.35-.35 1.7.85 3.05 3.25 3.7.2 7.85-.8 1.1-.75 1.8.05.5.7 1.25 1.3 1.5.8 3.6-.4 1.75-1.8 3.05-1.2 1.1-.75 2.85.5 1.95 0 3.25t-2.45 3.1l-.9 1.05q-.25.5-.2 1.4l-.25 2.2q-.35 1.3-.85 1.6-.95.55-.8 1.9.55 3.5-.55 5.45-1.05 1.85-3.75 2.6-.7.2-1 .8l-.45 1.55q-.3 1.3-1.4 2.25-.95.85-1.8.9-1.1.05-1.6.5-.5.35-.95 1.4-.85 1.95-2.5 3.15-1.85 1.35-3.4.75l-1.9.15-1.15 1.65q-2.45 3.55-6.55 3.35-3.05-.15-5.55-2-1.1-.85-2.75-.75-1.7.15-2.75-.7-.85-.7-.95-1.75-.1-.85-.65-1.05l-1.1-.1q-3.35 0-3.6-3-.05-1.1-.7-1.45l-1.25-.25q-3.2 0-3.4-3.15-.1-1-1.05-1.8-.8-.6-1.7-.85-4.95-1.4-3.65-6 .3-1-.15-1.6l-1.05-.85q-1.95-1.3-2.1-3.1-.1-1 .45-2.55.45-1.25-.95-1.9-2.35-1.2-2.55-3.45-.2-1.6.75-4.4l.15-1.45-.8-.95Q.85 88 1 85.55q.15-2 1.6-4 .4-.55.2-1.1l-.7-1.1q-1.7-2.5-.65-5.1.8-1.95 2.75-3.35 1.3-.9.45-2.55-.55-1.15-.5-1.8Q4.2 65.8 5 65l.75-1.35-.3-1.45q-.8-2.2.1-4.05.8-1.65 2.8-2.55 1.05-.45 1.25-1.15.15-.45-.1-1.25-1.2-3.6 2.6-4.95l1.35-.75.3-1.05q0-1.8 1.4-2.6 1.3-.7 3.25-.4 1.25.15 1.95-1.35.95-2.05 3.05-2.35 1.9-.3 3.3.75 1.9 1.4 3.55-.2 2.9-2.65 6.35-2.9 2.95-.2 4.55 1.2.7.6 1.55.55l1.55-.5"/><path fill="#717071" d="M48.95 8.9q-2.65.95-6.75 1.35 1.15 1.35 1.6 3.45.5 2.35-.2 4.75 1.8 1.95 2.05 4.65.2 2.65-1.05 5.2 2.25 1.05 3.55 3.6 1.65 3.15-.05 6.25l-3.2.2q-2 1.25-4 0-4.7-2.8-10.25 1.7-1.45 1.2-2.4 1.1-.65 0-2.3-1-1.4-.9-3.15-.25-1.7.65-2.6 2.3-2.65-5.25 2.75-10.3-1.45-3.1-.45-5.9.55-1.65 2.7-4.35-1.7-2.8-.5-6.25 1.05-2.95 3.8-5.45-1.6-3.25.75-5.85 1.8-2 4.5-2.75L43 1.6q3.05 1.1 6.8 4.15 1.15.9.85 1.8-.3.85-1.7 1.35M41.6 47.25q1.95-2.2 4.05-1.65 1.8.45 2.95 2.55.55 1 1.5 1 .6 0 1.7-.55 2.8-1.45 4.65-.5 1.4.7 1.8 2.3.3 1.1.95 1.5l1.6.25q2.3.05 2.6 1.6.15.85-.35 2.7l-.45 1.95q-.05 1 .65 2.65.75 1.7.25 3.3-.45 1.3-1.35 1.9-1.15.85-1.7 1.85l-.95 2.3q-.55 1.35-2.25 2.1-1.6.7-3.3.6-1.45-.05-2.3.45-.4.25-1.5 1.35-1.9 1.8-3.65 1.7-1.1-.1-2.95-1.25-1.4-.9-2.7-.95-1.25 0-3.2.75-2.1.85-4 .3Q31.5 74.8 31 72.6q-.35-1.55-1.15-1.95l-1.8-.3q-3.5-.25-4.7-1.95-.9-1.3-.35-3.2.4-1.25.15-2l-.95-1.35q-1.55-1.55-1.15-3.35.25-1.45 1.65-2.75l1.25-1.55q.3-.7.25-1.85-.05-1.85 1.65-2.6l3.4-.25q1.95.55 2.7-1.05 1.15-2.5 3.25-2.4 1.65.1 3.45 1.7.85.8 1.65.55l1.3-1.05"/><path fill="#d3d9db" d="m60.95 92.45-3.4 4.95-3.8-2.8q.9-2.25 2.35-4.05.75.05 2.35.65 1.65.6 2.5 1.25M31.75 89.75q-1.95 4-4.9 7.25l-3.5-2.05q-2.4-1.5-3.7-2.55.1-2.9 1.05-6.65l5.4-1.7 5.65 5.7"/><path fill="#595757" d="M47.55 30.95q2.65 3.9.4 7.25-1.75-.9-3.55.35-.85.6-1.95.5-1-.1-1.8-.75-2.15-1.7-5.35-.75-2.4.7-4.8 2.65-1.6 1.3-2.9.8-.45-.15-1.9-1.3 11.05-1.55 14.6-6.75 1.3-1.95 1.05-3.85-.25-1.7-1.65-2.35 5.1.2 7.85 4.2"/><path fill="#595757" d="M44.8 20.25q2.15 3.95-.25 8-1.95-1.35-5.5-1.6l-6.05.3q4.6-1.75 6.25-5.55 1.6-3.9-2.05-5.3 5.35.05 7.6 4.15"/><path fill="#595757" d="M42.7 11.1q2.2 3.55.8 7.1-2.05-1.55-4.3-1.95l-5.2.15q3.8-.95 4.85-4.45 1-3.45-2.05-4.05 3.65-.35 5.9 3.2"/><path fill="#595757" d="M50.45 8 46.2 9.55l-4.1.8q-.95-1.15-3.6-2.6Q44.1 9 50.45 8"/><path fill="#dcd096" d="M61.35 116.1q-1.55.3-1.8 1.8-.6 3.35-3.4 3.9-1.8.35-2.5 1.9-.7 1.6-2.2 2.8-1.75 1.45-3.4 1.15-2.1-.4-2.9 1-1.45 2.8-4.6 3.9-3.9 1.35-7.65-1.6-.9-.7-1.75-.9l-1.35-.1q-3.3 0-3.6-2.2-.15-1.35-1.35-1.5-3.9-.3-3.9-2.85 0-.85-.6-1.35-.55-.45-1.4-.45l-2.05-.35q-1.25-.6-1.4-2.5l-.3-1.25q-.35-.7-1.35-1.15l-3.55-1.5q-2.2-1.5-1.45-4.35.35-1.35.2-1.9-.25-.65-1.45-1.4-2.65-1.65-1.5-4.25 2.5 3.2 8 3.8 5.7.6 9.9-2.25 1.15-.75 2.1-.15 4.3 3.15 11.05 2.5 7.1-.65 10.75-5.15.6-.75 1.2-.3 2.25 1.45 5.1 1.2 2.45-.25 4.2-1.65.65-.5 1.2-.2 2.1 1.15 4.25.9l.75.05.15.6q-.15 2.35 1.25 3.85-.5.5-.65 1.1-.1.4-.05 1.25.4 6.7-3.95 7.6"/><path fill="#adb2b4" d="m46.15 107.95 2 5.25-3.4 5.45-3.85.65-4.5-2.8-.45-6.1 4.2-2.9 6 .45"/><path fill="#0d131a" d="m48.1 38.75-3.1.05q-2.4 1.5-4.25.05-1.55-1.15-4.65-.75-3.1.45-4.95 2.1l-1.95 1.35q-1.35.55-2.55-.45-1.45-1.2-3.55-.65-1.85.5-2.4 1.95-.35.95-.9 1.3l-1.5.2q-1.95-.4-3.2.6-.8.7-.8 1.85 0 1.7-1.45 2.1-2.15.6-2.85 1.95-.6 1.2 0 2.75.75 1.9-1.1 2.7-2.25 1-3.05 3-.6 1.75.35 3.7.65 1.4-.35 2.2-.7.6-1 1.65-.3 1.15.2 1.75 1.4 1.8-.55 3.1-.8.5-1.55 1.65-.8 1.3-1 2.7-.45 2.3.95 4 1 1.15.1 2.3-1 1.25-1.3 2.85-.45 2.65 1.7 4.65 1.25 1.2.7 2.65-2.25 5.5 1.75 7.6 1.65.95.9 2.4-.6 1.2-.45 2.35.25 1.8 2.35 2.95.85.5 1 1.15l-.15 1.45q-1.1 3.95 3.1 5.4 3.1 1.25 3.3 2.9.15 1.6.65 2.1.65.75 2.55.75 2.3 0 2.2 1.95 0 1.25.7 1.9.9.95 2.8.95l1.5.25q.45.3.4 1.15 0 1.05.7 1.6 1.05.9 2.85.6 1.5-.3 2.35.55 1.15 1.15 3.1 1.65l3.8.25q3.65-.55 5.45-3.85.9-1.6 2.5-1l2.4-.25q1.2-.55 2.25-1.7 1-1.1 1.35-2.15.6-1.5 2-1.65 1.25-.1 2.35-1.15 1.2-1.15 1.3-2.5.05-1.6 1.9-1.95 1.8-.3 2.85-1.9 1.55-2.2.85-5.5-.3-1.75.85-2.3.85-.35 1.05-1.25l-.05-1.95q-.15-1.2.3-1.95.3-.55 1.4-1.55 2.85-2.5 1.9-5.8-.55-1.6.5-2.6 2.1-1.75 2.15-4.1 0-1.45-1.05-2.6-1.45-1.4-.15-2.8 1.7-1.8 1.7-3.9.05-2.1-1.6-4.1-1.3-1.65-.75-3.35.2-.75 0-1.15l-.75-.65q-1.55-1-.75-3 2.1-5.45-1.95-8.1-1.45-1-1.85-1.85-.4-.85-.15-2.5.3-1.5-.55-3.15-1-1.9-2.95-2.55-1.35-.5-1.9-1-.8-.75-1.05-2.2-.25-1.3-1.4-2.1-1.5-1-4.15-.45-1.75.45-2.65-.75-1-1.25-2.75-1.9m-6.6-.9q.7.55 1.45.5l1.7-.7q2.55-1.5 4.95-.35l1.2 1.1.85 1.3q.35.45.9.5l1.15-.1 2.6-.4q1.3-.05 2.3.6 1.1.65 1.55 3.3.2 1.1.85 1.7.5.45 1.7.85 2.6.85 3.6 2.4 1.05 1.7.6 4.35-.25 1.4 0 1.95t1.55 1.4l2.1 1.65q1 1.05 1.35 2.4.3 1.05-.05 2.45l-1.05 2.7q-.4.85-.3 1.25l.55.65 1.35 1.05q.2.45-.25 1.9-.35 1.2.7 2.55L74.4 75q.65 1.15.65 2.45.05 2.1-2.3 4.55-.75.85.2 1.8l1.2 1.35q.55.75.5 1.6-.1 2.5-2.8 4.85-.75.7-.4 1.9l.5 1.75-.05 1.85q-.2.85-1.05 1.7l-1.65 1.4-1.2 1.25q-.3.5-.2 1.4l.2 1.5-.05 1.55q-.25.5-1.75 1.15-.55.25-.25 1.5.8 4.1-.55 6.1-1.05 1.6-4 2.25-.7.1-.95.4-.2.25-.25.85-.1 2.2-1.15 3.25l-1.65.95-1.55.15q-.9.1-1.3 1.15-1.25 3.55-3.7 4.7l-3.55-.1q-.85-.3-1.45.7-1.2 2.25-2.6 3.35-1.35 1-3.4 1.35-4.65.75-7.95-2.55-.6-.6-1.6-.4-2.75.5-3.85-.5-1.05-.9-.95-2.55 0-.65-1.2-.6-2.3.25-3.3-.75-1.05-1.05-.95-2.85.1-1.15-1.35-1.15l-3.05-.45q-.5-.4-.7-1.5l-.2-1.85q-.15-1.25-2.55-2.1-2.9-.95-3.45-1.6-1.4-1.5-.5-4.85l.05-1.15-.7-.6q-2.15-1.3-2.6-2.25-.75-1.65.5-4.05.35-.8-.6-1.35L3 99.3q-.7-.6-1.1-1.55-.45-1.05-.15-2.6l1.1-3.2q.4-1.05-.5-1.75Q.4 88.65.05 86.7q-.4-2.25 1.85-5.15.5-.7-.1-1.45-2.05-2.4-1.65-5 .45-2.85 3.5-4.75l.7-.7-.4-.9q-1.15-1.5-.75-2.6.3-1.15 1.6-2.05.6-.5.1-1.4-1.55-2.5-.75-4.55.75-2 3.95-3.2 1.1-.4.65-1.65-.95-2.45-.1-3.95.65-1.4 3.75-1.95.65-.15.65-1.2 0-2.05 1.1-2.95 1.15-1.05 3.95-.6 1.35.2 1.85-1 .85-2.2 2.75-2.75l2.5.1q1.25.35 2.15 1.1.8.65 1.6.3l1.65-1.2q2.85-2.65 5.4-2.95l3.05.4q1.5.5 2.45 1.2"/><path fill="#0d131a" d="m25.9 85-4.45 1.35q-.9 3.15-1.05 5.8 2.45 1.85 6.35 3.9 1.7-1.65 3.95-6.15-3.15-3.6-4.8-4.9m-6.55 7.85-.2-.4q.1-4.15 1-6.95.05-.25.35-.35 1.8-.3 5.5-1.8l.45.1 3.05 3 2.7 2.95q.2.3.05.55-2.75 5.35-4.9 7.45l-.65.05q-4.2-2.15-7.35-4.6M53.1 95.15q-.3-.15-.2-.55 1.05-2.7 2.7-4.55.2-.3.45-.2 3.65.5 5.55 2.2l.15.5q-.9 2.05-3.7 5.5l-.65.1-4.3-3m6.75-2.35q-1.3-1.1-3.55-1.5-1.25 1.55-1.9 3.15l3 2.05q1.5-1.8 2.45-3.7M48.25 48.45q-1.15-2.25-3.3-2.35-1.85-.15-3.15 1.75-.7 1-1.6 1.1-.95.1-1.85-.8-1.7-1.65-3.5-1.4-1.5.2-2.4 1.9l-1.1 1.3-1.85.15q-2.4-.5-3.95.8-.8.7-.8 1.5l-.15 1.7q-.25.8-1.1 1.6-1.9 1.85-1.85 3.9 0 1.25 1.1 2.1l1.05 1.2q.35.75-.1 1.85-.75 1.8.2 3.2 1.15 1.75 4.45 1.85 1.5.05 2.25.75.6.55 1.05 1.95.4 1.3 1.9 2 1.95.95 4 .05 3.65-1.55 7.1.75 2.8 1.75 5.75-1.35 1.3-1.35 3-1.3 2.6.05 4.3-1.2 1.35-1 1.7-2.4.35-1.45 2.25-3 1.15-.95 1.5-2.25.35-1.3-.15-2.3l-.75-1.85q-.2-1.05.15-2.15 1-3.2.05-4.35-.55-.75-1.55-.6-2.65.25-3-1.6-.35-1.6-1.8-2.2L54 48.4q-1.2.05-2.2.7-1.4.85-2.2.7-.8-.25-1.35-1.35m-7.3-1.5q.95-1.35 2.3-1.95 1.05-.55 1.95-.45 2.3.15 3.85 3.05l.9 1q.4.1 1.45-.5 2.85-1.8 5-.9 1.9.8 2.45 3.15.25 1.35 2.1 1.15 2.1-.1 2.75.75 1.2 1.6-.25 5.55-.5 1.5.65 3.5.9 1.55.4 3t-2.1 2.55q-1.65 1.2-1.95 2.85-.4 2.25-1.95 3.2-1.65.95-5.05.9l-1.4.2-1.05.9q-1.95 2.35-3.9 2.55-1.45.1-3.3-1.1-1.6-1.05-2.95-1.2-1.4-.15-2.95.6-2.85 1.3-5.05.25-1.85-.9-2.55-3.05-.35-1.2-.8-1.55-.45-.4-1.65-.45l-3.35-.4q-1.1-.4-1.85-1.6-1.15-2-.25-4.35l.15-1.15q-.1-.5-.8-1.05-1.8-1.4-1.75-2.95.05-1.45.8-2.6.55-.8 1.75-1.9l.9-1.1.1-1.4q-.25-2 1.1-2.95.95-.55 2.25-.75l2.65.1 1.25.05.7-1q1-2.45 3.35-2.75 1.8-.25 4.1 2.05.45.5 1 .4.6-.05 1-.65M42.65 11.05 41.6 9.8q6.05-1 7.9-1.75 1.15-.45-.4-2-4.05-3.8-9.05-4.45-4.15-.55-7.6 1.15-3 1.5-3.7 3.95-.65 2.05.45 3.2l-1.25.9q-1.75-1.85-.8-4.8 1-3.15 4.4-4.75Q35.3-.5 40.2.15 46 .9 50.15 5q1.2 1.2 1.35 2.3.15 1.2-1.15 1.75-2.9 1.3-7.7 2"/><path fill="#0d131a" d="M43.15 10.1q1.35 1.7 1.6 4.25.3 2.7-.8 4.65l-1.1-.75q1.35-4.2-1.1-7.25-2.55-3.15-6.6-2.6-5.9.8-9 5.7-2.95 4.55-.6 7l-.95 1.05q-3.25-2.95-.15-8.6Q27.75 7.6 34.9 6.7q2.2-.3 4.6.7 2.3 1 3.65 2.7"/><path fill="#0d131a" d="m45.1 28.55-1-.65q1.1-1.75 1.05-3.9 0-2.2-1.15-3.95-.95-1.5-2.65-2.4-2.4-1.2-5.85-.8-3.75.5-7 2.65t-4.8 5.3q-1.95 4-.2 7l-1 .85q-1.2-1.75-1.15-4.1 0-2.2 1.05-4.45 1.7-3.45 5.3-5.9 3.6-2.45 7.55-2.95 3.1-.4 5.9.75 2.8 1.15 4.2 3.3 1.25 2.05 1.25 4.65-.05 2.75-1.5 4.6"/><path fill="#0d131a" d="m48.65 38.45-1.15-.35q.95-1.85.8-3.75-.15-1.85-1.45-3.45-1.95-2.45-5.55-3.3-3.55-.85-7.4.1-7.95 2-11.6 6.05-3.55 3.95-1.8 8.2L19.6 43q-2.75-5.25 1.5-10.2 4.15-4.8 12.35-6.7 4.2-.95 8.2.1 4.2 1.1 6.4 3.9 1.4 1.8 1.6 4.1.15 2.35-1 4.25M46.25 107.35l.4.3 2 5.5-.05.3-3.35 5.4-.35.2-3.8.8-.35-.05-4.8-2.8-.2-.35-.35-6.1.2-.4 4.25-3.25.25-.05 6.15.5m-.5 1.15-5.15-.2-3.75 2.75.2 5.05 3.95 2.55q2.2-.65 3.35-.8l2.9-4.7-1.5-4.65"/><path fill="#fcd13e" d="M33 54.8q1.65-.15 2.75 1.4.9 1.35 1 3.15.1 1.85-.7 3.3-.9 1.75-2.7 1.8-1.7.05-2.65-1.65-.75-1.35-.8-3.1-.05-1.65.65-3.05.9-1.7 2.45-1.85M54.9 54.15q1.95-.1 2.85 1.65.65 1.15.7 2.8.05 1.4-.5 2.75-.75 1.7-2.05 1.85-1.35.1-2.4-1.2-.9-1.15-1.2-2.85-.25-1.7.4-3.2.7-1.7 2.2-1.8"/><path fill="#0d131a" d="M33.85 59.2q0 1.1-.4 1.1-.45 0-.45-1.1t.45-1.1q.4 0 .4 1.1M55.75 58.35q.05 1.05-.35 1.05-.4 0-.45-1.05 0-1.05.4-1.05t.4 1.05"/><path fill="#0d131a" d="M36.15 59.65q0-1.85-.8-3.2-.85-1.35-2.05-1.35-1.1 0-1.95 1.2-.9 1.3-.9 3.35 0 1.9.85 3.25t2 1.35q1.2 0 2.05-1.35.8-1.35.8-3.25m-5.6-3.8q1.2-1.6 2.8-1.6 1.6 0 2.7 1.6 1.15 1.65 1.15 3.95 0 2.15-1.15 3.7-1.15 1.6-2.7 1.6-1.8 0-2.95-1.8-1.05-1.6-1.05-3.6 0-2.25 1.2-3.85M52.65 55.1q.9-1.45 2.35-1.55 1.4-.1 2.5 1.25 1.2 1.45 1.35 3.7.15 2.05-.75 3.6-.95 1.5-2.4 1.6-1.45.1-2.6-1.4-1.2-1.45-1.3-3.35-.15-2.3.85-3.85m2.45-.7q-.95.1-1.65 1.25-.75 1.25-.65 3.15.15 1.85 1.05 3.05.8 1.1 1.75 1.05 1.15-.05 1.8-1.45.6-1.25.5-2.95-.15-1.95-1-3.1-.8-1.05-1.8-1"/><path fill="#0d131a" d="M48.3 58.6q-.4-.75-.2-.95.2-.25.8.5 1.75 2.2 5 4.75.5.4-.05 1.05-2.6 3.3-5.05 5.15l-.65.1q-.15-.25.25-.65 2.5-2.6 4.2-5-2.85-2.5-4.3-4.95"/><path fill="#0d131a" d="m53.4 63.1-.1 1.2-8 .3q-.9.1-.9-.25-.05-.35.85-.55 5.3-1.1 8.15-.7"/></svg>