<svg xmlns="http://www.w3.org/2000/svg" width="190" height="178" viewBox="-0.45 -0.1 190.45 178.4"><path fill="#f9dbe1" d="M44.95 135.45q1.2-.9 7.5.05 6 .9 8.7 2.1l12.2 3.05q14.45 2.6 25.55.3l6 .45q6.1.6 6.4 1.15.55.9-12.65 10.2l4.35 7.3q4.4 7.75 4.6 9.85.2 2.15-11.6-2.25l-11.8-4.85q-11.75 9-12.8 8.5-1.05-.45-8-12.1-15.45 4.85-18 4.65.95-2.35 2.6-5.45 3.3-6.15 6.85-9.7l-5.6-6.15q-5.35-6.3-4.3-7.1"/><path fill="#ffe45f" d="m53.35 162 10.05-2.8 5.8 9.4-1.9.1-2.15 2.7q-2.5 2.8-4.3 3-2.55.15-5.3-6.1l-2.2-6.3M83.7 162.9l11 4.7-2.65 4.85q-3.15 4.85-5.55 4.85-1.7 0-3.65-3.75l-1.6-3.8-5.8-.05 8.25-6.8"/><path fill="#009f50" d="m70.5 142.35 9.2.75q-3.05 4.45-5.1 8.3-1.6-1.7-3-5.55l-1.1-3.5"/><path fill="#008c46" d="m70.5 142.35 9.2.75q-1.05 1.5-2.5 4.35l-2.7.05-2.65-.55q-.6-1.5-1.05-3.2l-.3-1.4"/><path fill="#f9dbe1" d="M46.2 127.75q6.1 6.4 12.25 9.35-4.55-1.45-8.3-2.05-4.45-.7-4.85.4-.5 1.4 3.8 6.85-10.9 7.7-26.3 7.6-7.7-.1-13.2-1.7l8-13.85-16.35.65q2.7-18.65 17.05-29.2 7.6-5.55 16.35-7.65-.55 16.9 11.55 29.6M126.05 115.35Q145.1 124 151.1 140.7q3.85 10.8 1.75 19.35l-18-8.8L138.7 168q-9.8.95-24.3-6.5-1.3-.7-2.45-1.55l-.9-.7q-2.8-2.05-5.8-5.8l-2.45-3.3q8.5-6.55 8.5-7.4 0-.55-6.55-1.05l-6.55-.45q5.7-.8 14.8-8 10.9-8.6 13.05-17.9"/><path fill="#dcc552" d="M79.9 169.65h-5.1l9.4-6.85 10.7 4.65-1.45 2.45q-1.05-.1-3.3-.95l-2.05-.85q-2.55 1.3-8.2 1.55M69.2 168.6l-2.65-.25q-3.05-.55-5.25-2.1-3.8.8-6.85.05l-1.15-4.25 10.1-2.85 5.8 9.4"/><path fill="#d7bdc4" d="m53.5 136 6.8 1.25 9.15 3.25 3 6.65Q63.2 145.45 53.5 136M77.1 147.6l3.35-5 13.85-.45q-4.6 2.9-11.35 4.45l-5.85 1M47.1 139.3l2.3 3.1q-7.65 4.1-16.05 6-11.95 2.8-23.4-.25l.25-.55 12.7-.8q14.65-1.9 24.2-7.5M119.1 163.7q-10.25-4.35-15.8-13.75l1.5-1.3q1-.75 1.95-1.15 5.7 7.15 13 12.2 9.05 6.2 19 7.95l-.15.65-5.8-.65q-7.1-1.25-13.7-3.95"/><path fill="#0d131a" d="M34.05 97.65q.35-.05.35.7 0 .8-.3.85-15.95 4-24.95 18.05-5.1 7.95-6.95 17l10.9-.75 5.65.15q.4.6-2.25 5.1l-5.6 8.95q8.3 1.55 18.1.25 11.1-1.4 20-6.1l1.1 1.1q-18 11.25-41.65 5.85-.2-.4 3.35-5.9l4.95-7.9-8.85.65-7.75.3q-.6-.5.6-5.4 1.45-5.95 4.6-11.6 9.6-17.15 28.7-21.3"/><path fill="#0d131a" d="M48.7 140.5q3.45 4.65 9.4 10.1 1.35 1.2.75 1.45-.6.25-2.1-.95-5.9-4.75-9.95-10.45-3.5-4.95-2.85-6.1.45-.7 5.5-.05 5.6.65 10.35 2.45l1.6.9q.3.45-1.1.45-5.05-1.55-9.75-2.1l-4.2-.15q-.4.7 2.35 4.45"/><path fill="#0d131a" d="M54.55 147.55q.25-.25 1 .8.75 1 .55 1.15-3.45 2.35-6.8 8-3.05 4.95-2.65 5.55.15.25 5.65-1.4l11.1-3.2q.55-.1.9.35l2.8 5q3.1 5.3 4.75 6.75l5.4-3.9 7.2-5.3 1.2-.7 1.15-.25q.5.35-3.25 3.5L73 171.75q-1.1.75-1.5.7-.35-.05-1.1-.95-1.45-1.6-4-5.85l-3.1-5.45-12.15 3.2q-6.35 1.7-6.75 1.15-.7-.95 2.5-6.8 3.5-6.45 7.65-10.2M107.95 147.5q-5.55 4.55-11.95 7.05-3 1.2-3.2.55-.2-.6 1.85-1.45 4.15-1.65 10-5.95 5.4-3.9 5.3-4.55-.05-.45-5.05-.9l-7.45-.4q-1 .05-.9-.75.1-.8 2.2-.7l8.95.75q4.8.65 4.85 1.35.05 1.15-4.6 5"/><path fill="#0d131a" d="M106.6 164.75q2.2 5.1 1.4 6.05-.75.85-7.25-.85-7.85-2.05-17.25-6.5-.35-.2.25-.75.55-.55.9-.35 6.9 3.3 14.7 5.6 6.7 1.95 7 1.5.3-.4-1.8-4.6-2.5-5.15-6.75-11.95l1.55-1.15q4.8 7.4 7.25 13M74.8 170.65q-.4-.05-.05-.85.3-.85.7-.8h5.05l2.2-.05q1.85 0 1.9.35.05.35-1.2.7l-1.6.35-7 .3M65.1 168.6q-.8-.4-.75-.75.05-.35 1.05-.25l1.4.2 2.05.2q-.3 0 0 .85l.4.95-2.95-.8-1.2-.4"/><path fill="#0d131a" d="M67.9 168.3q.85.6.6.95-2.5 3-4.7 4.65-2.2 1.65-3.45 1.4-2-.2-4.65-4.95-2.5-4.45-3.05-8-.05-.4.9-.6.95-.25 1 .15.55 3.4 2.55 7.45 2.05 4.1 3.4 4.25.9.15 2.5-1.25 1.7-1.5 3.8-4.35.25-.35 1.1.3M94.05 167.2l1.05.1q.85.4.65.75-2.55 5.05-5.15 7.65-2.55 2.6-4.6 2.35-1.4-.15-3.2-2.55-1.7-2.35-2.5-5.1-.15-.35.75-.65l1.05.1q.95 2.95 2.1 4.75 1.1 1.8 1.95 1.85 1.4.2 3.45-2.15 2.1-2.45 4.45-7.1M68.8 140.25l1.1-.1q1.2.3 1.25.65.4 2.35 1.3 5.1 1 3.15 1.95 4.75 1.65-1.8 4.65-8.75.15-.35 1.2-.15 1.1.25.9.6-5.15 8.65-6.1 9.55l-.75.5-.65-.5q-1.4-2.1-3-5.95-1.55-3.75-1.85-5.7M151.2 145.5q-2.15-7.7-6.45-13.75-4.4-6.15-11.25-11.05-3.9-2.8-7.35-4.4-.25-.1-.1-.95.15-.8.45-.65 4.8 2.2 8.05 4.3 7.55 4.9 12.1 11.45 6.5 9.35 7.7 20.4.45 4 .1 7.1-.35 2.75-1 3.1-.65.35-8.65-3.9l-9.1-4.75q1.45 4.05 2.95 10 1.6 6.45 1.1 6.8-.7.45-5.1.1-5.3-.45-10.55-2.05-15.75-4.6-21.65-16.05l1.25-1.4q4.6 7.75 13.75 12.5 9.15 4.8 20.45 5.3l-2.3-9.9q-1.65-7.15-1.1-7.5.4-.2 6.45 2.95l11.15 5.9q1.3-5.65-.9-13.55"/><path fill="#f9dbe1" d="M172.15 98.5q-21.05 16.4-44.45 5.8l-1.2-12.15 1.35-.7q1.6-1 2.85-2.35 4.1-4.25 3.5-10.3-.3-6.3-3.75-10.25-2.3-2.6-4.25-3.05l4.1-3.15q5.35-3.6 11.55-5.65 19.85-6.55 40.7 4.55L171.1 75.4l17.45 4.6q-5.85 10.3-16.4 18.5M32.35 27.1q16.9 5.65 26.1 20.35-4.15.35-8.25 2.5-8.1 4.35-7.65 13.55.25 5.45 1.9 8.4.8 1.45 1.55 1.8l-4.2 6.4q-4.3 6.95-4.75 9.75Q12.45 79.1 5.75 56.3 2.4 44.9 3.95 35.65l17 8.95-3.6-20.15q6.6-.15 15 2.65"/><path fill="#d7bdc4" d="M19.05 78.45Q6.1 65.95 4.5 46.45q1.85 6.6 7.15 14.5 10.65 15.85 28 22.6l-1.7 6.5q-10.75-3.7-18.9-11.6M168.05 101.7q-18.55 11.5-40.35 2.8l.05-7.85L132.4 99q5.95 2.5 12.35 3.25 20.45 2.4 37.55-13.75-4.95 7.5-14.25 13.2"/><path fill="#0d131a" d="M59.5 47.45q.2.35-.55.85l-.95.15q-7.75-11.5-19.9-17.6-10.05-5-19.95-5.1Q19.7 31.25 21 38q1.4 7.2.85 7.55-.5.3-17.1-8.8-1.2 16.8 5.8 29.4 8.1 14.55 26.5 22.5.3.1-.1 1-.4.85-.7.75-18.45-7.6-26.7-20.85Q4 60.55 2.8 47.2q-.45-4.9-.15-8.8.3-3.55.9-3.95.5-.3 7.9 3.8 7.25 3.95 8.85 5.25l-2.7-11.05q-1.9-8-1.55-8.35l5.05-.2q5.6.4 11.35 2.25 17.5 5.65 27.05 21.3M176.2 67.05q3.85-4.3 5.45-5.6-20-9.3-39-3.45-6 1.8-11.15 4.95l-4.05 2.85-1.5-.25q-1.25-.5-.95-.75l4-3.1q5.15-3.45 11.2-5.5 19.25-6.55 40.65 3 2.6 1.15 2.75 1.75.15.55-1.65 2.55-9.1 10.15-9.85 11.4l14.6 3.35q2.65.8 2.9 1.15.4.55-.9 2.75-2.4 4.1-7.65 9.55-6.4 6.65-13.25 10.8-9.8 6.05-20.45 6.75-10.55.7-19.75-3.95-.35-.15-.05-.95.35-.85.7-.7 9.1 3.8 18.4 3.3 9.45-.6 18.55-5.6 8.35-4.6 15.5-12.2 5.45-5.8 6.7-8.85l-15.95-3.75q-2.15-.5-2.25-.85-.1-.3 1.35-1.95 2.1-2.75 5.65-6.7"/><path fill="#ffe45f" d="M109.2 64.9q7.8 5.65 12.65 14.05 10.6 18.4 3.2 39-5.4 14.95-22.45 21.9-16.15 6.5-32.85 2.4-17.6-4.3-28-20.05-9.65-14.65-6.85-28.35 3.95-19.05 19.45-29.6 16.2-11.05 37.4-7 9.5 1.85 17.45 7.65"/><path fill="#dcc552" d="M54.6 128.55q11.6 6.6 26 7.25 14.1.65 26.1-4.6 12.7-5.55 19-15.95-.35 2.95-3.05 7.2-3 4.8-7.6 9-12 10.9-27.6 11.75-21.8 1.15-36.35-10.45-12.1-9.7-15-23.8 5.9 12.45 18.5 19.6"/><path fill="#0d131a" d="M121.05 80.55q-9.9-18.35-32.2-22.6-18.6-3.55-33.85 7.2-14.7 10.4-18.15 27.9-2.95 15 6.3 29.35 10 15.45 28.25 19.05 17 3.35 32.45-3.95 16.1-7.7 20.75-22.75 2.5-8.15 1.65-17.1-.9-9.15-5.2-17.1m-31.3-24.5q9.5 1.65 17.7 7.05 8.2 5.35 13.65 13.4 12.1 17.9 5.75 39.45-4.65 15.8-22.45 23.55-16.45 7.15-33.4 3.6-19.95-4.2-30.4-21.2-4.4-7.2-6-15.25-1.5-7.75-.1-14.4 3.7-17.4 18.35-28.15 16.05-11.75 36.9-8.05"/><path fill="#ee848c" d="M55.75 89.3q2.05.2 2.8 2.3.65 1.85.05 4.4-.45 2.1-1.95 3.4-1.45 1.25-2.9 1.05-1.2-.15-2.05-1.6-.9-1.5-.9-3.55.2-3.05 1.65-4.7 1.35-1.5 3.3-1.3M103.5 99.6q1.75.4 2.55 2.6.8 2.15.2 4.5-.65 2.35-2.05 3.65-1.35 1.3-3.1 1.1-1.55-.2-2.7-1.95-1.4-2.15-.65-5.25.7-2.75 2.2-3.95 1.5-1.15 3.55-.7"/><path fill="#922f00" d="M66.05 105.8q3.3 2.3 11.7 3.35l7.75.65-2.8 9q-4.6-4.1-9.65-3.45-3.9.5-7.3 3.55-.6-3.35-.2-8.55l.5-4.55"/><path fill="#ed8599" d="M66.15 118.6q2.8-2.45 5.95-3.25 5.65-1.5 10.15 3.1-.75 4.1-3.8 7.8-3.4 4.1-6.65 3.45-3.1-.75-4.65-5.25-1.15-3.25-1-5.85"/><path fill="#fff" d="M100.1 102.4q.2-.95.75-1.5t1.3-.5q.75.05 1.05.8.25.65.05 1.5t-.8 1.4q-.6.55-1.3.45-.65-.05-.95-.7-.3-.65-.1-1.45M53.7 93.65q-.6-.2-.7-.9-.15-.65.15-1.35.25-.7.9-1.05.6-.4 1.15-.2.6.25.75 1l-.15 1.3q-.8 1.7-2.1 1.2"/><path fill="#ce7486" d="M67 117.95q6.35-4.05 11.65-2 2.65 1 4.05 2.85-.9 2.05-3.55 5.8-.95-3.1-5.25-5.25-4.05-2-6.9-1.4"/><path fill="#0d131a" d="M65.3 104.45q3.8 2.1 7.85 3.05l11.65 1.4q1.4.1 1.65.65.2.45-.3 1.8-2.85 9.75-6.95 14.95-3.9 4.9-7.55 4.1-3.35-.75-5.4-7.05-2.35-7.1-1.35-17.6-1.65-1.05-1.45-1.6.25-.6 1.85.3m1.25 2.25q-1.05 8.3.7 15.2 1.7 6.65 4.7 7.3 3 .65 6.75-4.75 3.85-5.65 5.65-13.85-7.4-.35-11.7-1.4-3.6-.85-6.1-2.5"/><path fill="#0d131a" d="M65.7 118.15q3.9-3.45 7.65-3.8 4.45-.35 9.25 3.4.25.2-.05.75-.3.5-.55.3-5.15-4.05-10.75-2.3-1.8.55-3.45 1.65-.85.6-1.45 1.1-.25.25-.6-.3-.3-.55-.05-.8M105.55 106.6q.7-2.35-.05-4.3-.75-2-2.5-2.35-1.45-.25-2.75 1.1-1.25 1.3-1.7 3.45-.45 2.1.15 4 .7 2.15 2.45 2.45 1.3.25 2.55-1 1.3-1.25 1.85-3.35m1.25.5q-.65 2.3-2.45 3.7-1.8 1.45-3.55 1.05-2.15-.4-3.2-2.8-.9-2.1-.5-4.35.45-2.7 2.25-4.35 1.85-1.7 4.05-1.2 2.15.45 3.2 2.85 1 2.4.2 5.1M51.65 93.9q-.55 2.3.1 4.1.55 1.7 1.85 2 1.25.3 2.5-.85 1.3-1.2 1.85-3.45.6-2.3-.15-4.1-.7-1.55-1.9-1.85-1.55-.4-2.8 1.05-1 1.2-1.45 3.1m-1.05 4.05q-.75-2.1-.2-4.4.5-2.2 2.1-3.55 1.7-1.5 3.6-1.05 2.2.55 2.95 3.05.6 2.05.05 4.1-.6 2.4-2.15 3.75-1.6 1.35-3.4.95-2.1-.45-2.95-2.85"/><path fill="#ee848c" d="M64.9 50.15q7.15 4.5 7.15 13.15 0 5.6-4 9.95-3.95 4.25-9.1 4.5-7 .4-11.1-2.8-3.7-2.9-4.8-8.65-1.45-7.5 2.7-12.7 2.1-2.65 4.45-3.75 7.45-4.25 14.7.3M120.5 93.9l-2.35.05q-3.3-.35-6.65-2.4-6.75-4.1-7-12.7.6-11.4 9.4-14l8.7-.3 1.95.6q2.3.95 4.2 2.4Q134.8 72.3 134.2 81q-.6 8.7-8.4 11.7-2.4.95-5.3 1.2"/><path fill="#f9dbe1" d="m100.2.5 1.7 16.4 14.55-13q8 22.7 1.05 42.7-7.95 22.9-33.8 35.3-4.75-5.1-7.45-16.3Q73.5 54 74.5 41.65q1.15-13.9 6.95-24.2Q88.15 5.6 100.2.5"/><path fill="#f6c6c5" d="M120.05 73.2q-1 .65-2.3.45-1.4-.2-2.1-1.15-.75-.9-.65-2.25.1-1.55 1.25-2.45 1.1-.9 2.6-.7 1.35.2 2.15 1.4.75 1.15.5 2.4-.3 1.55-1.45 2.3M57.95 55.35q-.25 1.55-1.35 2.3-1.05.7-2.55.5Q53 58 52.2 57.1q-.95-1.05-.8-2.5.5-3.3 3.85-3 1.3.1 2.1 1.2.8 1.1.6 2.55"/><path fill="#ce737b" d="M71 69.4q-3 7.35-11.55 8.2-9.15.9-13.5-4.05-3.3-3.7-3.05-9.05l4.6 4q5.85 3.8 12.1 2.7Q66.3 70 69.95 66q1.85-2 2.3-3.75l-.05 2.2q-.3 2.65-1.2 4.95M120.75 86.9q5.1-.1 8.85-2.2 4.05-2.2 4.95-5.95-.05 3.5-1.85 7.15-3.55 7.3-12 8.05-9.55.25-13.5-5.2-2.85-4-2.3-9.7 1.9 3.9 6.5 6 4.2 1.95 9.35 1.85"/><path fill="#0d131a" d="M115.05 4.25q1.4-1.05 1.75-.95.35.05.85 1.55 8.55 24.65-1.15 46.25-8.75 19.55-28.5 29.35-3.6 1.8-4.65 1.65-1-.15-2.35-2.45-5.35-8.9-7.05-20.85-1.6-11.7.6-23.35 2.25-12.05 8.1-20.95Q88.95 4.85 98.3.7q1.85-.8 2.15-.65.3.1.55 1.65.6 3.35 1.45 14 8.85-8.6 12.6-11.45m1.1.7-9.7 9.65q-4.85 4.7-5.25 4.55-.45-.15-.9-5.85l-.75-11.5q-9.9 4.85-16 15.25-5.5 9.3-7.3 21.65-1.65 11.35.15 22.45 1.8 10.9 6.25 17.8 1 1.5 1.45 1.5.45 0 3.1-1.5 19.1-10.65 27.3-28.7 9.2-20.45 1.65-45.3M70.75 62.75q0-5.15-4.1-9.45-4.25-4.4-9.65-4.35-5.8.1-9.7 4.6-4 4.7-3.5 11.35.8 6.3 5 9.5 3.7 2.85 8.95 2.65 4.55-.2 8.3-3.45 4.7-4.1 4.7-10.85m1.65-2.5q1.45 7.5-3.15 12.9-4.6 5.45-12.45 5.5-4.9.05-8.95-2.75-5.25-3.6-6.1-10.75-.75-7.3 3.95-12.65 4.6-5.15 11.3-5.25 4.35-.05 8.55 2.65 5.55 3.6 6.85 10.35"/><path fill="#0d131a" d="M105.3 80q0 6.05 4.7 9.75 4.15 3.3 9.7 3.3 5.55 0 9.4-3.85 4.05-4.05 4.15-10.45-.3-7.05-4.95-10.7-3.85-3.1-9.5-3.1-5.25 0-9.2 3.95-4.3 4.35-4.3 11.1m14.3 15.1q-6.5 0-11.1-3.95-5.15-4.4-5.15-11.9 0-6.7 4.95-11.45 4.65-4.55 10.45-4.55 6.65 0 11.15 3.9 5 4.3 5.45 12.1-.15 6.95-4.7 11.45-4.5 4.4-11.05 4.4"/></svg>