<svg xmlns="http://www.w3.org/2000/svg" width="100" height="133" viewBox="-1.55 -0.65 99.7 133.35"><path fill="#8cc456" d="M15.95 64.45q10.3 2.8 19.3-6.3 4.5-4.5 6.9-9.6 2.3 3.75 2.5 10.3.2 4.7-.8 16.75.75 10.2 4.3 19.55 3.35 8.85 8.4 14.8 6.6 7.75 10.8 3.55.95-.95 2.35-.95l1.25.15q4.35 3.5 6.9 4.3-1.45 5.15-3.1 6.45-1.1.9-4.05.7l-4.85.15q-2.45.6-4.05 2.7-2.45 3.3-3.6 3.9l-7.25-.2q-10-3.1-13.35-3.9-4.5-1.05-10.9-1.5-2.65-.15-9.25 1.15l-8.95 1.1q-3.1-.2-3.35-3.35-.2-2 .55-3.7l3.85-8.5Q4.9 101.1 15.8 84.8q3.95-5.8 4.75-12.75.3-2.45-2.15-5.3l-2.45-2.3"/><path fill="#ffe33f" d="M85.25 49.95q3.45.95 5.35 4.15 1.95 3.25 1.6 7.85l-.85 6.15q-.05 2.45 2.65 7.35 3.5 5.95.2 10.05-3.3 4.05-11 3.3-5.05-.5-7.4 2.7-1.2 1.6-1.4 3.3 2.75 3.8 3.55 8.9.4 2.6.25 4.4l2.7 2.9q1.5 2.25.35 3.75-1.45 1.9-3.2 1.95-2 0-4.7-2.3-2.4-2.05-4.15-1.7-.7.1-2.5 1.4-2.1 1.45-4.05.85-3.8-1.15-8.85-8.65-5.45-8.15-7.8-17.1-2.75-10.55-1.5-23 .85-8.35-.65-14.1l-1.65-4.05q.55-.55 1.6-4.05 2.45 4.9 3.05 11.45l.9 11.55q.7 5.1 6.75 10.65 3 2.75 5.9 4.5 1.6-2.1 1-4.9-.55-2.45-2.5-4.6-1.65-1.8-2.75-4.75-1-2.6-1-4.3 0-4.1 2.3-6.25 2.3-2.2 6.25-1.7 4.3.55 8-1.35l3.75-2.5q5.4-3 9.8-1.85"/><path fill="#00aee5" d="M85.55 55.05q2.65 1.85 2.35 7.35l-.65 7.85q.35 2.85 2.1 4.6 1.7 1.75 2 4.7.4 3.7-3.95 5l-4.4.6-2.45.1q-3.05.4-5.8 1.6-2.5 1.65-3.35 5.9-.9 4.2.8 5.15.9.55 2.5-2.6 2.65 3.1 3.35 9.45.55 5.8-.45 6.2-.65.2-1.9-.75l-3.35-3q-1.8-1.65-3.85-.85l-1.7 1.1q-.95 1.7-2.7 1.95-3.55.5-7.65-6.65-6.75-10.4-8.75-22-1.25-7.4-.45-14.05Q49.2 72.45 55 77.9q2.9 2.7 5.4 4.25l-.4.6-.75.95-1.2 1.05q-.75.85-.2 1.45 1.1 1.45 3.35.05 2.5-1.55 3.65-5.45.9-3.2-1.65-7.4-3.25-5.4-3.6-7-.7-3.3.95-5.65 1.7-2.35 4.5-1.95 4.85.7 8.55-1.15l4.9-2.75q4.25-1.8 7.05.15M61.25 11.35q.65 2.6.05 6.8-.45 3.35-2.9 6.1l-2.9 2.6q-.75.6-6.1.7 3.95 4.65 4.7 10.15.6 4.8-1.2 9.1-2.25 5.2-5.35 13.05 0-4.9-1.85-10.85l-1.9-5-40.15 9.75Q-1.55 46.4 1.5 37.8q.95-2.7 2.6-5.2l1.5-1.95q-.9-.35-1.9-1.45-2-2.25-2.3-6.2.2-6.85 6.15-10.9 3-2 5.9-2.65 4.8-.35 9.25.85 2.25.6 3.5 1.25Q30.15-.6 43.35.9q4.5.55 9.4 2.6 3.85 1.65 5.5 3.05 2.3 1.95 3 4.8"/><path fill="#fff" d="m21.9 10.05 4.3 1.5q-.45 3.45.5 5.85.5 1.25 1.1 1.75l-4.05.75q1.35-3.2.45-6.15-.65-2.3-2.3-3.7M79.05 13.55q-4.95 7.3-14.75 11-3.05 1.2-6.25 1.85l-2.55.45q4.1-2.45 5.95-9.45.95-3.55-.75-7.55L58.85 6.6l4.95 2.1q5.75 2 9.8 1.55 4.45-.5 5.6.55.95.8-.15 2.75"/><path fill="#ffe33f" d="M16.3 65.05q4.95 3.6 4.1 9.55-.45 2.95-1.85 5.2.35-1.6-.6-3.5l-2.4-4.85q-1.1-2.8-.3-4.85l1.05-1.55M7.35 96.15q1.25-2.45 3.4-4.45l1.9-1.55Q8.4 96.8 8.2 103.75q-.15 4.6 1.55 9.05l-.45.55q-6.05-9.3-1.95-17.2"/><path fill="#00aee5" d="M18.7 67.35q1.8 1.3 1.7 4 0 1.35-.4 2.4-1.55-1.9-1.6-4.35l.3-2.05"/><path fill="#ffe33f" d="M7.25 49.15q-2.45 2.5-3.65 4.3-.35-.3-.8-1.2-.85-1.8-1.25-4.85-.7-5 1.3-7.7L5 38l.6-.05q.7.1 1.35.7 2 1.9 2.55 8.4l-2.25 2.1M28 38.45q-.9-1.85-1.15-4.35-.55-5.1 2.65-8.55 1.85-2 4.2-1.9 2.25.05 3.95 2Q41.8 30.2 38.95 38l-4-.2q-4.5-.1-6.95.65"/><path fill="#ffe33f" d="M43.5 41.7q1 4.25-3.9 11.5-4.3 6-9.2 9.1-2.5 1.55-4.1 1.9-4.85 1.8-13.05-.7-8.4-2.55-9.8-6.55-1.35-4.05 5.3-9.4 3.35-2.65 6.95-4.5 4.45-2.75 11.15-4.25 8.45-1.9 14.7.05l.8.6q.85.9 1.15 2.25"/><path fill="#ed8599" d="M39.5 44.45q-2.05 6.1-6.15 10.75-7 7.9-16.55 5.75-.65-1.65-.2-4.05.95-4.7 6.6-8.1 5.7-3.4 11.55-4.2l4.75-.15"/><path fill="#922f00" d="M22.2 49.25q-5 3.65-5.7 8.05-.35 2.2.3 3.65l-2.5-.6q-3-.9-5.55-2.55-1.1-.45-1.35-1.8-.35-1.7 1.15-3.3 3.55-3.65 10.65-7 8.9-4.25 16.65-4.05 2.95.25 3.5 1.7.3.7-.05 1.35-1.5-.65-4.4-.45-5.75.45-12.7 5"/><path fill="#fff" d="M20.9 10.3q-.2-.05.3-.15h.65Q24 11 24.9 14.2q1 3.5-1.25 5.6l-.45.05q-.3-.15-.15-.3 1.75-1.7 1-5-.8-3.3-3.15-4.25M61.4 10.35q1.25 3.3.6 7.15-.6 3.6-2.65 6.25-2.45 3.15-6.2 4l-.4-.25q-.15-.3.05-.4 3.4-.75 5.7-3.85 1.9-2.65 2.45-6 .6-3.6-.55-6.7-1.15-3.05-3.65-4.6-.2-.1.1-.4.25-.25.45-.15 2.8 1.75 4.1 4.95"/><path fill="#79aa4a" d="M75.55 122.35q-1.85 2.1-4.3 1.75-3.7-.5-5.7.05-2.4.7-4.2 3.3-2.5 3.5-4 3.85-3.2.7-13-2.65-9.2-3.1-16.8-3.2l-8.1.6-6.6 1q-5.5.6-7.3-1.1-2-1.9 1.8-8.95l.85 2.35q1.4 2.25 4.3 1.55 5.9-2.5 10.65-3.65 8.85-2.1 17.25 1.7 8.75 3.95 18.25-.3 5-2.2 11.2-6.45 1.45.3 3.4 2.05 1.9 1.8 5.2 2.45-1.3 3.85-2.9 5.65"/><path fill="#ce7486" d="M32.9 44.65q3.85-.7 6.3-.05-.8 4.25-4.2 8.4l-3.25 3.25q-3.45-3.1-8.8-3.55l-4.6.2q6.9-6.8 14.55-8.25"/><path fill="#0098c7" d="m54 36.15.05 5.4Q53.8 45.1 52.3 49l-4.75 10.8q.05-4.2-1.55-9.85l-1.6-4.8q1.9-.3 5.15-2.8 3.95-3.05 4.45-6.2M78.05 104.3q.6 6.45-.15 6.65-.5.1-1.45-.4l-1.65-1.25-1.7-1.5-.95-.7q2.95-1.4 3.4-6.2l-.2-4.5q2.05 1.15 2.7 7.9"/><path fill="#79aa4a" d="m19.6 68.4-3.15-3.7q10.9 2.25 19.45-6.6 4.25-4.45 6.35-9.35 1.7 2.45 2.2 9.4l.15 6.45q-9.5 8.5-18.2 7-2.7-.45-5.05-1.9l-1.75-1.3"/><path fill="#dcc437" d="m48.85 96.6-1.3-3.4 6.1 10.15q6.9 10.1 10.75 9.75 1.05.05 2.95-1.9 2.4-2.3 5.55.55 2.5 2.2 3.3 2.6 3 1.4 5.35-1.5.1 1.45-.55 2.35-.7.9-2.55 1.5-1.15.35-3.6-1.05-1.8-1.05-3.05-2.15-1-.9-1.75-1-1.15-.2-2.5 1.05-2.1 1.9-3.35 1.8-5.85-.2-11.85-11.2-1.85-3.45-3.5-7.55M81.7 87.25l3.95.15q7.35-.1 9.9-4-.25 1.3-1.45 2.65-2.35 2.6-7.05 2.65l-7.8.35q-2.3.45-3.5 2.4-.55.9-1.65 4.15-.7 2-1.75 2.1-.35.05-.5-.2l-.1-.25q.7-.15.9-1.85.4-2.15 1.5-4.05 1.4-2.35 3.35-3.25 1.9-.85 4.2-.85M42.3 48.2q1.05-.9 1.3-4.05 3.2 5.25 3.8 13.1.35 3.9 0 6.75-1.2 1.55-2.35 1.55l-.85-.35q.9-6.95-.4-12.65l-1.5-4.35"/><path fill="#0098c7" d="M18.85 67.65q1.4 1.05 1.5 3.85.1 1.45-.15 2.65-1.8-2.2-1.75-4.6l.4-1.9"/><path fill="#dcc437" d="m17 65.7 1.85 1.95q-.9 1.9.05 4.45.45 1.25 1.1 2.15l-.4 2.9q-.25-1.25-2.3-5.75-1.05-2.2-.8-4.2l.5-1.5M5.4 59.3q3.15 1.55 7.2 2.75 8.15 2.4 12.8.75 5.25-1.9 10.8-7.65 5.05-5.3 7.4-10.5-1 3.85-3.8 8.25-5.55 8.8-14.6 11.75-7.85 1.15-14.6-2L5.4 59.3M5.75 105.1H6.8q1.1-.35 1.65-2.1v3.55q.2 3.9 1.05 5.5l-.5.75q-.65-.7-1.35-2-1.45-2.65-1.9-5.7"/><path fill="#0098c7" d="M52.8 27.1q-.25.1-.05.4l-3.25.15-2.4-2.25q-2.05-2.05-2.75-2.25l13.7.6Q55.9 26.4 52.8 27.1M23.05 19.55q-.2.2.35.35l-3.75.95q1.95-2.8 4.55-3.7-.25 1.55-1.15 2.4"/><path fill="#ccc" d="M23.4 19.9q-.55-.15-.35-.35.9-.85 1.15-2.4l2.25-.6q.5 1.8 1.35 2.6l-1.15.2-2.9.45.1-.15-.2.15-.05.05-.2.05M58.05 23.75 68.4 22.3q-5.65 2.75-9.3 3.85l-3.3.65-.9.4-2.15.3q-.2-.3.05-.4 3.1-.7 5.25-3.35"/><path fill="#0d131a" d="M26.85 11.7q.2.1-.1.55l-.45.35q-4.5-2.55-9.9-2.55-7.7 0-12.05 6.25-3.6 5.35-1.45 10.35 1.05 2.5 3 4.05.2.15-.1.55l-.5.3Q3.15 30 1.8 27.25q-2.65-5.55 1.4-11.7 4.35-6.15 12-6.6 6.25-.35 11.65 2.75"/><path fill="#0d131a" d="M64.1 8.3q5.85 1.95 11.8 1.35 3.6-.4 4.2 1.35.65 2-1.95 4.95Q75.5 19 70.5 21.8q-6.2 3.5-12.15 5.25-5.3 1.5-8.9 1.25-.2 0-.3-.7-.05-.7.15-.65 3.65.2 8.6-1.1 5.9-1.55 11.85-4.95 5.15-2.9 7.6-5.8 2-2.3 1.6-3.6-.4-1.25-3.05-1-6.4.7-11.75-.95Q60.3 8.3 52.85 4.2q-7.55-3.8-14-2.85-5.5.75-8.9 4.65-2.65 3-3.15 6.7-.45 3.7 1.45 6.5l-1 .3q-2.15-3.2-1.65-7.25.5-4.2 3.65-7.4 3.55-4 9.45-4.7 6.8-.8 14.8 3.2Q60.55 7.1 64.1 8.3M74.1 95.55q-.1-.15.3-.8.4-.7.5-.5 5.3 7.55 3.4 16.8l-.55.1-.45-.3q.8-4.5.05-8.1-.75-3.65-3.25-7.2"/><path fill="#0d131a" d="M44.4 23.85q-1.05-.8-.8-1.05.25-.3 1.3.4 5 3.1 7.85 8.65Q55.8 37.7 54.7 43.3q-.75 3.7-3.9 10.25-2.7 5.6-2.85 9.9-.2 4.8 2.75 8.9 2.85 4 10 9.2.2.1-.2.7l-.55.5q-6.75-4.9-9.7-8.95-3.6-4.85-3.4-10.45.15-4.75 2.75-10.2 3.05-6.35 3.7-9.95 1.8-10.5-8.9-19.35M20.05 20.5q5.2-2.2 10.35-1.8 1.15.1 1.25.4.1.35-1.1.35-5.4.15-10.05 1.75l-1.8.2q-.2-.25 1.35-.9M12.3 24.2q1.3-.7 1.55-.4.25.25-.85 1-4.55 2.8-7.5 6.75-2.9 3.95-3.9 8.55-.75 3.65-.2 7.1.6 3.55 2.45 6.25l-.25.45-.45.1Q1.1 51.05.35 47.4q-.75-3.75 0-7.5 1-4.75 4.3-9.05 3.3-4.3 7.65-6.65M12 63.45q-.2-.05.4-.2l.85-.1q2.65.8 4.55 2.3 1.95 1.6 2.75 3.65 2.1 5.35-3 13.75-7.4 12.2-8.4 17.3-1.45 7.15 3.45 17.75.75 1.6.3 1.65-.5.05-1.25-1.55-4.8-9.1-4-15.85.8-6.75 8.1-18.45 3.1-4.9 3.9-8.45.75-3.2-.25-5.85-1.55-4-7.4-5.95"/><path fill="#0d131a" d="M70.05 123.45q2.85.45 4-.35 1.9-1.25 3.2-6.55l.6-.1q.5.15.4.35-.95 5.2-2.9 7-1.6 1.4-4.65.95-3.55-.55-5.1-.05-1.85.6-3.75 3.4l-1.5 2.25q-1 1.2-2.2 1.65-1.65.7-5.05-.1-2.55-.55-7.15-2.2-6.95-2.45-12.2-3.25-7.75-1.15-15.65.4-5.55 1.1-8.6 1.05-3.45-.05-4.6-1.55-1.6-2.25.95-7.35l2.2-4.5 1.15-2.55.6-.05.4.4-1 2.4-2 4.4q-2.25 4.4-.85 6.25.95 1.25 3.7 1.3l7.5-.9q7.1-1.35 13.7-.65 6.4.65 15.9 3.7l6.15 1.75q2.9.65 4.3.05l1.9-1.45 1.4-2.05q1.55-2.25 4.15-3.2 2.35-.85 5-.45"/><path fill="#0d131a" d="M14.55 85.95 15 86q.3.25.2.45l-1.65 2.45-1.95 2.3q-4.25 5.45-5.05 8.65-1.45 5.55 2.85 12.6l-.2.7-.45.3q-4.75-7.85-3.7-13.3.75-3.8 5.65-9.45l2.1-2.4 1.75-2.35M16.65 64.3l.35.3q.15.45-.05.55-1.4.8-1.45 2.95-.05 2.4 1.7 5.3l1.45 2.8q.6 1.6.55 3.4l-.35.45q-.4.2-.4 0 .05-1.6-.65-3.3l-1.6-2.9q-2-3.2-1.9-5.7.1-2.55 2.35-3.85"/><path fill="#0d131a" d="m18.45 67.1.5.05.25.45-.35 1.1q-.2 1.75.4 3.05L20.4 74l-.1.55q-.25.4-.35.2l-1.45-2.8q-.75-1.5-.5-3.4.15-.85.45-1.45M42.2 49.15q-.1-.2.1-.9.2-.75.3-.55 3.55 5.85 2.05 23.8-1.05 10.45 3.75 22.8 4.1 10.55 9.5 16.2 5.85 6.05 8.85 2.9 1.9-1.85 3.2-1.65 1.1.15 3.7 2.25 3.35 2.7 5.55 1.9 1.75-.65 1.8-2.75.05-1.25-.95-2.7-.85-1.35-2.15-2.25-.2-.15.1-.5.25-.35.45-.2 1.55 1.05 2.6 2.65 1.25 1.8 1.2 3.4-.1 2.5-2.65 3.35-2.9 1-6.4-1.85-2.4-1.95-3.3-2.1-.85-.1-2.4 1.35-3.95 3.6-10.3-2.75-5.25-5.15-9.55-16.25-5.05-12.9-4.05-23.5 1.7-16.4-1.4-22.65"/><path fill="#0d131a" d="m43.2 44.3.25-.65q.35-.5.45-.3 2.4 3.8 3.45 11.05 1.1 7.4.2 14.95Q46.5 79.2 51.3 91.3q4.15 10.35 9.6 16.05 1.55 1.65 2.55 1.7 1.05.05 2.7-1.5 2.1-1.9 3.8-1.7 1.8.15 4.65 2.6 2.65 2.3 3.5 2.15l.75-.2.4.05q.1.25-.6.65l-1.9.05q-1.05-.4-2.8-1.9-2.4-2.05-4.1-2.15-1.4-.05-2.95 1.3-2 1.85-3.5 1.8-1.55-.05-3.4-1.95-5.85-6.1-10.05-17.7-4.45-12.2-3.5-21.15.95-8.05-.15-15.25-.95-6.55-3.1-9.85"/><path fill="#0d131a" d="M85.05 54.2q4.55 2.45 3.1 10.7-.65 3.8-.45 5.1.2 1.95 2.1 4.7 2.8 4 1.85 7.15-1.1 3.75-7.45 3.85-6.6.1-9.35 2.15-2.35 1.75-2.95 5.9-.4 2.65.3 3.65.7.95 1.5-2.25 1.1-4.5 3.7-6.1 2.05-1.3 5.95-.95 8.25.7 10.8-3.45 2.35-3.85-1-9.6-1.95-3.35-2.25-5.75-.25-1.9.5-5.65 1.6-8.3-4.3-11.85-5.9-3.5-12.75 1.3-2.75 1.95-4.1 2.45-2 .75-5 .6-7.35-.5-9.1 4.55-1.85 5.2 3.95 12.7 2.55 3.1 1.85 6.55-.55 2.8-2.65 4.4-1.75 1.25-.75 1.85 1 .6 2.95-.85 2.35-1.8 2.8-5.1.6-3.95-1.9-7.25-2.6-3.4-3.35-6.45-.8-3.05.4-5.2.9-1.6 2.75-2.35 1.8-.75 4.25-.55l5-.35q1.9-.6 4.5-2.5 4.95-3.6 9.1-1.4m1.6 15.85q-.2-1.95.35-5.05 1.35-7.55-2.4-9.65-3.35-1.85-8.3 1.2-3.4 2.15-4.65 2.55l-5.05.4q-4.35-.4-5.9 2.45-1.05 1.9-.35 4.8.7 2.95 2.85 5.75 2.6 3.6 2.35 7.35-.25 3.9-3.45 6.3-2.55 1.95-4.2.65-1.65-1.3.75-3.25 2.3-1.7 2.45-4.4.15-2.8-2.05-5.55Q52.9 65.65 55 59.9q2-5.5 9.9-4.9l4.95-.45q1.25-.5 4.35-2.7 7.2-4.95 13.6-1.25 6.5 3.85 4.7 12.85-.75 4.05-.5 5.95.3 2.05 2.25 5.45 3.9 6.1 1.05 10.5-2.95 4.7-11.7 3.9-3.6-.35-5.5.75-2.4 1.4-3.4 5.4-.95 3.75-2.75 2.95-1.8-.8-1.1-5.25.6-4.1 2.7-5.9 3-2.5 10.3-2.6 5-.1 6.25-2.55 1.4-2.65-1.5-6.85-1.65-2.45-1.95-5.15M38.25 38.5q-9.65-.95-19.9 3.75-9 4.1-12.9 9.45Q3.1 54.95 4 57q1.15 2.8 7.55 5.4 6.55 2.65 11.55 2.05 6.65-.75 13.55-8.5 6.6-7.5 6.5-13.05-.05-4-4.9-4.4m-21.2 3.25q10.5-5.15 21.2-4.1 5.75.45 5.9 5.15 0 5.9-6.35 13.5-6.9 8.25-14.6 9.2-4.65.55-11.65-2.2-7.1-2.8-8.45-5.9-1-2.55 1.6-6.15 3.9-5.35 12.35-9.5"/><path fill="#0d131a" d="M37.65 48.1q1.85-3.55 1.15-4.8-.65-1.25-4.45-1.2-5.45.1-12.7 3.05-7.55 3.05-12 7.2-2.1 2-1.9 3.35.25 1.4 3.05 2.75 2.75 1.3 6.05 2l5.55.45q4.4-.55 8.85-4.55 3.9-3.55 6.4-8.25m-3.7-6.8q4.35-.2 5.5 1.45 1.15 1.75-1 5.85-2.6 4.95-6.3 8.4-4.5 4.15-9.55 4.95-2.55.35-6.75-.8-4.05-1.05-6.9-2.65-1.95-1.1-2-2.9-.05-1.75 1.65-3.5 4.2-4.3 11.1-7.35 7.3-3.2 14.25-3.45"/><path fill="#0d131a" d="M27.1 46.05q6.3-2.8 12.5-2.1.25.05.15.45l-.3.4q-5.25-.6-11.4 2.15-6.05 2.7-9.25 6.95-1.4 1.85-1.8 3.75-.35 1.75.15 3 .1.2-.35.15-.4-.1-.5-.3-.65-1.5-.2-3.5.45-2.1 1.95-4.1 3.2-4.25 9.05-6.85M39.45 33.2q.05-4-1.65-6.55-1.65-2.45-4.2-2.5-2.5-.1-4.25 2.3-1.85 2.45-1.9 6.5-.05 2.85.95 5.2l-.3.35-.55-.05q-1.25-3-1.2-5.5.05-4.4 2.4-7.15 2.1-2.5 4.9-2.45 2.9.05 4.9 2.7 2.1 2.85 2 7.15 0 1.55-1.05 4.7l-.55.1-.45-.3q.85-2.15.95-4.5"/><path fill="#0d131a" d="m35.8 37.75-4.7.25q-1.2-1.7-1.2-4.75 0-2.85 1.2-4.6 1.1-1.55 2.55-1.45 1.45.1 2.4 1.75.95 1.7.9 4.4-.05 2.65-1.15 4.4"/><path fill="#fff" d="M32 29.95q0-.9.45-1.55t1.05-.65q.6.05 1 .7.45.65.4 1.55 0 .9-.45 1.55l-1.05.6-1-.65q-.45-.65-.4-1.55"/><path fill="#0d131a" d="M3.9 38.95q-.95 1-1.5 3-.5 2-.45 4.3.1 4.8 2.1 7.05l-.05.5q-.25.35-.4.2-2.55-2.9-2.6-7.45-.15-5.6 2.15-7.9 2.6-2.7 4.85.5 2.15 3.05 1.85 7.7 0 .25-.4.25-.45.05-.45-.2-.15-4.7-1.8-7.2-1.65-2.5-3.3-.75"/><path fill="#0d131a" d="M3.75 46.15q-.15-2.55.5-4.1.55-1.45 1.45-1.45.9.05 1.6 1.5.7 1.5.8 3.9L8 48.25l-2.55 3Q4 50.1 3.75 46.15"/><path fill="#fff" d="M4.85 43.1q-.05-.8.2-1.35.25-.6.6-.6.35-.05.65.55l.35 1.35-.2 1.4-.6.6-.65-.55q-.3-.55-.35-1.4"/><path fill="#0d131a" d="M15.15 40q-.15-.2.5-.55l.75-.1q.15.3-.5.6l-.75.05"/></svg>