<svg xmlns="http://www.w3.org/2000/svg" width="203" height="276" viewBox="-0.85 -1 203.1 275.9"><path fill="#009a63" d="M166.35 166.65q3-4 7.25-14.45 2.8 3.5 5.9 9 2.6 4.6 4.65 9.1l5.05 11.6q2.85 6.1 3.95 16.6.2 1.95-.55 2.6-.4.4-2.2.75-12.2 2.5-22.4 8.85-5.5 3.4-13.55 2.95-5.95-.35-14.35-2.95-6.15-1.95-12.4-1.35-4.55.5-9.85 2.5l-10.05 4.3q-6.85 2.95-10.8 4.15-4.7 1.45-9.6-.25-4.25-1.5-7.2-4.7l-5.45-5.9-5.6-5.3q-3.05-2.55-9.4-3.8l-11.3-1.8q-4.85-.85-8.05-5.4-1.6-2.25-3.95-7.95-1.4-3.4-4.3-4.25-2.55-.8-7.15.15-3.8.8-6.65-1.15-2-1.35-3.25-3.8-2.3-4.45-2.1-9.6.3-7.7 6.4-15.5 6.5-8.35 15.1-17.4l14.85-15.3q6.65-7 10.95-17Q63.15 94.7 65.5 85q1.25-5.1 1-17.5-.25-13.5.55-18.7.9-5.9 3-10.05 2.45-4.85 6.05-6.1 4.75-16 21.45-20 12.2-2.95 24.2.7Q127.6 15.2 135.5 15l11.4-.85 3.35.25q1.2.4 1.2 1.2 0 2.15-4.45 3.65-10.2 3.4-16.85 9.1-3.05 2.6-8.65 9.65-3.95 5.75-6.75 8.9-4.95 5.65-12.15 9.2.9 5.2-3.95 16.3-2.7 6.1-8 16.1-2.7 5.45-3.4 9.55-.55 3.15 0 6.35.55 3 2.95 6.5 2.75 4.05 7.35 7.7l20.55 3q16.75.1 31.25 17.3 8.4 10 17 27.75"/><path fill="#00aee5" d="M10.35 183.25q1.55 4.15 5.4 5.4l7.65.4q4.6-.55 7.15 2.35 1.1 1.3 2.9 5.6 3.1 7.65 8.75 10.3 4.15 1.95 11.45 1.7 9.15-.3 17.7 10.55 4.9 6.2 11.05 9 7.9 3.5 16.75 1.05 2.35-.65 15.55-6.55 7.65-3.4 15.95-3.5 7.65-.15 17.7 2.6 8.75 2.4 15.55.95 4.9-1.05 10.6-4.75 4.5-2.9 9.8-4.7 4.85-1.7 9.5-2.2-.2 2.3-.95 5.1-.45 2-.05 3.65.6 2.4 3.2 5.85 2.95 3.9 3.65 6.2.75 2.35-.4 4.85-3.6 7.85-23.3 7.6-9.05-.15-11.9.1-6.85.55-14.3 3.4-7.5 2.85-17.65 9.95-7.3 5.1-14.4 11.25-5.35 4.7-14.75 3.05-9.15-1.65-14.65-7.85-5.85-6.55-8.25-8.65-3.05-2.6-7.8-4.75-3.9-1.75-12.1-.95-4.45.4-12.9 2.1-5.6 1.15-8.8.9-4.35-.4-7.75-3.35-3.5-3.05-3.8-7.35-.25-3.6 1.75-12.2-2.3-1.2-8.3-2.05l-9.45-1.45q-7.45-1.8-9.5-6.25-1.65-3.65 11.1-18.5 1.75-2.05 1.85-3.95 0-1.2-.9-3.55l-1.7-4.8q-.9-3.05-1.4-6.55M35.85 85.35q-1.95-3.5-4.35-12.25-2.35-8.7-2.9-14.25 3.05-5.85 10.85-5.8 7.9.05 15 6.3 1.85 8.55 2.3 15.35.65 9.55-1.05 19.4-1.55 9.35-8.7 21.35-6.4 10.95-15.9 21.65 9.75-14.9 10.05-30.1.2-12.05-5.3-21.65"/><path fill="#ffe33f" d="M19.95 48.6q1.45-9.65 7.85-16.2Q33.05 27 43.55 22q-12 7.85-14.9 27.3-1 7 .85 16.2 1.5 7.5 5.35 18-8.1-9.45-11.4-16.05-4.9-9.6-3.5-18.85M80.55 22.95q-1.3 1.3-2.45 3.95-.75 1.85-2 5.75-6.4 2.7-8.5 13.3-1.5 7.4-.9 20.3.35 8.25-.45 14.6-1.2 8.85-5 18.45-3.7 9.3-12.25 19.15-5.25 6.05-14.6 14.45 6.05-7 10.7-14.5 3.7-6 7.6-14.25 3.45-7.35 4.25-17.8.8-10.5-1.3-20.95-2-10.1-1.1-17.5.85-6.7 4.35-12.9 3.25-5.75 9.15-8.95 5.7-3.1 12.5-3.1M198.4 196.75q2.1 2.55 2.2 6.05.1 3.5-1.6 5.75-1.85 2.4-5.6 2.95-4.3.65-9 2.3-5.45 1.9-9.6 4.5-5.75 3.6-10.8 4.7-7.5 1.6-16.55-1.1-9.95-2.95-18.6-2.35-8.3.6-16.8 4.65l-9.95 4.5q-7.35 2.75-12 1.95-11.65-2.05-18.75-10.9-4.5-5.5-8-7.8-4.55-3-10.8-3.15-8-.25-10.85-1.55-4.45-1.95-7.75-8.75-1.95-5.4-3.45-7.15-2.4-2.9-8.35-2.05-10.7 1.55-13.15-10-1.45-6.8 1.2-13.85 2-5.3 5.25-8.85-2.25 6.55-2.55 10.45-.45 4.95 1.75 8.55 2.35 3.75 4.8 4.95 2.3 1.1 6.1.55 4.45-.6 6.5-.05 2.95.8 4.4 4.15 3.2 7.35 3.8 8.15 3.5 4.6 11 5.65 10.25 1.45 13.3 2.65 5 2.05 11 8.6 7.2 7.95 11.8 9.75 5.95 2.35 15.1-1.2l11.25-5.15q7.1-3.3 11.2-3.85l8.55-.45q3.55.35 9.3 2.1 7.9 2.45 12.4 2.6 7.35.3 13.55-3.75 10.95-7.05 21.7-8.45 1.6-.2 2.2-.8.7-.7.55-2.55l-.7-5.25q3.8.9 5.95 3.5"/><path fill="#ffe33f" d="M181.4 175.15q3.45-1.8 2.95-4.6-.15-.9-2.3-4.8 9.85 1.2 11.85 7.05 1.75 5-7.3 10.2-7.45 4.3-17.95 6.7-16.6 3.9-31.2 3.3-12.15-.5-27-4.45-8.65-2.3-15.35-3-6.4-.7-15.5-.35-8.25.35-14.7-2.85-4.6-2.25-8.75-6.7-2.8-3-4.4-8.4-.75-2.6-1.85-9.2-.65-3.65-3.25-4.8-1.45-.65-5.25-.75-2.45-.05-3.95-2.6-1.25-2.1-1.25-4.65 0-5.7 4.2-8.5-.8 5.4 2.45 6.9l7.35 1.15q5.8.75 8 5.05 1.05 2.15 1.8 8.2 2.3 18.9 19.05 18 6.75-.4 12.25.25 6.05.65 16.15 3.1 24.25 6 47.85 2.9 16.45-2.15 26.1-7.15"/><path fill="#ffe33f" d="M113.7 112.15q4.45 1.95 4.35 11.25-.05 6.5-2.1 14.25-1 3.6.75 5.1.7.6 3.7 1.45 2.3.65 3.2 1.75 1.15 1.45.45 4.4l-2.95 9.05-3.5 9.2q-2.55-6.5-7.45-14.4-4.75-7.7-9.15-12.55-6.65-7.25-10.4-10.15-7-5.45-13.65-5.5 2.6-8.35 7.05-10.25 3.95-1.7 6.15 2.05 1.7 2.85 4.05 2.5 1.45-.25 3.75-2 5.6-4.3 8.2-5.55 4.25-2.05 7.55-.6"/><path fill="#ffe33f" d="M165 127.05q.65 4.15.05 8.55-.4 2.9.7 4.6 1.2 1.9 4.3 2.8 3 .9 4 3.35.85 2.15 0 4.9-.75 2.5-3.15 7.25-2.35 4.8-4.55 8.15-7.85-18.25-18.85-29.95-13.65-14.5-29.4-15.45l-.5-2.65q5.7-4.45 9.65-4.6 3.35-.15 5.75 2.85 2 2.45 4.2 2.4 1.4 0 5.1-1.55 6.9-2.8 10.7-2.45 3.05.25 7.45 3.25 3.6 2.4 4.55 8.55"/><path fill="#00aee5" d="M68.4 133.2q3.4-1.8 7.25.75 2.8 1.85 4.45 4.75 1.5 2.75 1.7 5.65.25 3.85-2.4 5.65-3.3 2.2-7.25-.1-3.55-2.1-5.3-6.3-1.6-3.75-1.15-6.5.45-2.7 2.7-3.9M87.3 147.15q1.45-1.45 3.85-1.05 2.25.4 3.35 1.85 1.25 1.6 1.7 3.6.6 2.45-.7 3.75-1.4 1.35-3.25 1.05-1.75-.25-3.6-1.9-1.7-1.55-2.15-3.85-.4-2.25.8-3.45"/><path fill="#009a63" d="M84.85 1q4.35-1.55 5 .2.6 1.7-1.85 3.2-3.7 2.25-7.65 6.2-4.6 4.45-6.35 8.25-4.9-1.05-11.1-.85-6.4.2-12.9 1.65-6.75 1.5-13.4 5.45-6.85 4.05-11.05 9.3-2.85-6.35-.75-12.45 1.85-5.4 7.4-10.3 4.45-3.9 14.5-4.9l17.25-.7q6.75-.2 12.9-2.1l8-2.95"/><path fill="#009a63" d="M43.15 22.25q8.05-3.5 19.1-3.95 11.9-.5 19.8 3.2l-1.5 1.65q-14.75-.5-22.05 12.5-6.2 11.05-4.05 23.7-9.45-7-17.25-6.1-6.65.75-8.6 6.15-.95-13.7 3.8-23.95 3.9-8.4 10.75-13.2"/><path fill="#0098c7" d="M29.35 190.85q1.15 1.15 5.2 8.85 2.95 5.6 8.4 7.9 3.45 1.45 7.65 1.45 5.25 0 8.35.9 6.45 1.75 10.6 7.3 4.8 6.4 9.9 9.6 5 3.15 11.35 3.9 5.25.6 13.25-2.65l14.9-6.55q7-2.85 16.5-1.95 5.55.55 17.1 3.35 6.6 1.55 12.45 0 4.2-1.15 10.05-4.7 11.75-7.15 18.75-6.65-1.95 5.05-.8 9.1.7 2.45 3.3 5.95-8.35.8-15.4 6.9-6.4 5.6-7.25 11.05-8.7-1.25-20.05 2.25-12.3 3.8-22.15 11.65-7.5-4.45-24.1-4.2-16.75.25-24.15 5.1-2.1-3.05-5.45-5.4-4.2-3-9.4-4-4.25-.8-8.45-4.15l-7.2-6.35q-9.8-8.1-24.45-6.4 1.35-6.85-.4-8.6 0-6.7-6.05-13.5-6.05-6.75-11.65-6.45L13.1 201q.8-1.15 1.05-2.45.25-1.05-1.25-5.9l-2.75-8.8q2.15 3.5 5.8 4.85 3 1.15 6.1.6 5-.8 7.3 1.55"/><path fill="#008756" d="M25.15 22.2q2.4 1.75 5.1 2.4 3.25.75 7.65.1-7.95 4.35-12.25 9.75-1.45-2-1.6-5.5-.2-3.6 1.1-6.75M93.35 44.05Q108.9 45.9 124.6 33.3q-10.75 16.15-18.35 20.75-11.25 6.85-20.6.1-3.4-2.5-5.25-5.9-1.75-3.2-.95-4.7 1.05-1.95 4.75-1.3l9.15 1.8"/><path fill="#dcc437" d="M81.65 126.5q9.55 2.15 17.95 9.35 6.6 5.65 11.75 13.7 4.85 7.65 7.3 7.55 1.8-.05 5.4-5.85l-3.3 8.95q-2 5.45-2.85 8.3-6.3-12.3-11.95-20.2-12-16.95-24.3-21.8M166.45 166.55q-4.35-8.75-9.4-16.75-7.1-11.2-13.2-17.05 6.4 4.3 11.75 10.7 3.05 3.55 7.7 9.85 3.1 3.75 5.1 3.2 2.35-.7 5.95-7.6-.4 3.4-3.1 9.05-2.1 4.45-4.8 8.6M7.9 176.3l2.15 5q3.25 4.95 8.8 4.65l9.85.5q3.35 1.2 5.55 6.15 3.7 8.25 8.2 11 4 2.4 12.75 2.65 6.4.15 11.55 4.25 2.6 2 8.9 9.3 5.3 6.1 13.8 6.6 7.95.45 17.35-3.95 13.7-6.35 19.95-7.1 5.25-.6 15.3 2.1 11.4 3.1 19.65 2.15 6.9-.8 12.4-4.5 6.3-4.25 10.45-5.4l8.45-1.35q3.8-.65 5.6-2.1 1.6-1.4 1.8-3.65l-.05 2.75q-.85 4.1-4.6 5.45l-9.35 2.3q-6.15 1.55-11.35 5.15-6.25 4.25-12.8 5.15-5.75.75-12.75-1-10.65-2.65-15.1-2.9-10.2-.55-21 4.2-14.5 6.45-17.85 7.1-6.2 1.2-14.45-2.8-3.85-1.9-7.05-5.25l-5-5.9q-5.8-6.95-13.85-7.45-11.6-.75-14.75-2.2-4.2-1.95-6.85-9.15-2.6-7-5.8-8.55-2.15-1.05-7.5-.05-4.6.85-8.75-3.55-4.15-4.4-3.65-9.6"/><path fill="#008756" d="M89.95 56.25q3.15 1.9 8.5 1 2.7-.4 4.75-1.25.6 2.1-1.15 8.6-1.6 6.05-3.25 9.05-1.95 3.6-10.2 20.15 5.85-16.9 4.2-28.9-.55-3.75-1.75-6.6l-1.1-2.05"/><path fill="#dcc437" d="M188.4 180.15q5.45-3.4 5.75-6.25-.25 3.3-2.5 6.05-1.1 1.4-2.2 2.1-20.8 10.4-45.2 10.8-14.5.2-28.3-3.05l-12.65-2.9q-6.25-1.35-11.6-1.75l-12.35.1q-7.7-.05-14.3-2.7-12-4.85-14.7-22.8-.65-4.45-3.15-6.1-1.75-1.15-5.1-1.15-2.2 0-4.15-1.95l-.75-1q1.6 1.6 4.7 1.6 4.85-.05 6.5.9 3.25 1.9 4 8.05 1.05 8.05 4.25 13.25 4 6.4 11.35 8.45 6.85 1.9 21.85 1.4 6.05-.2 18.1 2.75 14.65 3.6 23.5 4.5 21.35 2.2 42.55-4.2 8.9-2.7 14.4-6.1"/><path fill="#008756" d="M173.55 151.8q6.5 9.2 11.5 20-6.65 7.4-21.15 8.85 3.9-7 4.35-16.8 1.75-2.85 3-5.9l2.3-6.15M189.4 182.45q2.3 6.35 3.5 11.75 1 4.55.75 5.8-.25 1.35-3.75 2.3l-8.25 2.15q-3.65 1.2-6.1 2.35-3.1 1.45-9.75 5.2-5.8 3.2-14.6 1.45-11-3.05-17.65-4.3 16.5-5.3 25.05-17.75 17.8-2.4 30.8-8.95"/><path fill="#0d131a" d="M12.75 195.25q-3-8.45-3.8-13.4l2.7 3.3q.3 2.1 1.35 5.45l1.65 4.9q.6 1.85.4 3.1-.2 1.55-1.65 3.3-5.2 6.2-7.5 9.6-4.3 6.35-3.45 8.8 1.25 3.4 6.3 5.1 3.2 1.1 10.3 2.05l5.6.85q2.8.55 4.3 1.3l-.4 1.6q-2.3-1.3-9.9-2.25-7.85-1-11.2-2.1-5.8-1.95-7.3-5.9-1-2.7 3.6-9.4 1.75-2.5 8.2-10.45 1.2-1.5 1.35-2.95.1-1.15-.55-2.9M43.5 41.35q-3.65.3-5.1-2.3-1.2-2.1-.35-5.3.85-3.25 3.3-6.1 2.8-3.15 6.35-4.6 3.65-1.45 6.15-.1 3.2 1.7 2.4 6.2-.8 4.55-5.2 8.5-3.8 3.4-7.55 3.7"/><path fill="#fff" d="M44.05 29.15q1.55-1.7 3.3-2.35l2.8.05q1.15.85.6 2.85-.6 2-2.45 3.85-1.75 1.7-3.55 2.15-1.75.4-2.5-.65-.7-.95-.15-2.65.5-1.7 1.95-3.25"/><path fill="#0d131a" d="M54.7 47.65q.45-3.7 2.5-6.15 2.1-2.4 4.55-2.15 2.5.3 3.95 3.1 1.45 2.85 1.05 6.55-.45 3.7-2.5 6.15-2.1 2.4-4.55 2.1-2.45-.25-3.95-3.1-1.45-2.8-1.05-6.5"/><path fill="#fff" d="M57.45 47.95q.2-1.75 1.15-2.9 1-1.1 2.15-1 1.15.15 1.85 1.45.7 1.35.5 3.1-.2 1.75-1.15 2.85-1 1.15-2.15 1-1.15-.1-1.85-1.45-.7-1.3-.5-3.05"/><path fill="#0d131a" d="M20.25 48.15q.4-3.3 1.9-5.5 1.45-2.2 3.2-2 1.7.2 2.7 2.65.95 2.5.55 5.8-.35 3.3-1.85 5.5t-3.25 2q-1.7-.2-2.65-2.7-.95-2.45-.6-5.75"/><path fill="#fff" d="M22.15 48.35q.2-1.55.9-2.55.7-1.05 1.5-.95.8.1 1.25 1.25.45 1.15.3 2.7-.2 1.6-.9 2.6-.65 1.05-1.5.95-.8-.1-1.25-1.25-.45-1.15-.3-2.75"/><path fill="#0d131a" d="m131.15 14.15 15.25-.65q5.75-.5 6.3 1.9.5 2.35-4.65 4.15-9.6 3.35-16.1 8.45-6 4.6-11.15 12.15-7.65 11.15-14.9 15.35-10.4 6-20.9-1.15-.85-.55-.65-.9l1.1.15q10.65 5.75 20 .1 6.4-3.85 13.8-14.7 4.85-7.15 12.65-12.85 7.45-5.4 15.45-7.9 3.75-1.15 3.35-2.45-.4-1.25-4.3-.85l-15.4.75q-4.8-.25-12.75-2-9.15-2-17.65-.6-8.2 1.4-14.05 5.65-4.8 3.55-7.6 8.45-2.9 5.05-3.3 10.95-.05.9-.45.9-.4-.05-.4-.95-.15-6.3 2.75-11.6 2.7-4.95 7.8-8.75 13.65-10.2 33.3-5.6 7.35 1.75 12.5 2M90.6.55q2.45 1.6-1.45 3.95-12.1 7.45-14.35 15.15l-1.85-.45q.9-4.05 6.5-9.25Q83.5 6.1 88 3.35q2.1-1.3.3-1.8-1.8-.6-5.2 1-6.2 2.95-13.85 4.1L51.2 7.5q-9.65-.15-16.1 3.5-4.5 2.55-7.15 6.7-2.4 3.85-2.95 8.15-.55 4.35 1 8l-.95 1.45q-2.4-3.7-1.95-9.05.4-5.1 3.05-9.35 2.7-4.3 7.95-7.25 7.25-4.05 17.2-3.9l17.5-.5q6.4-.85 13.9-4Q88.1-1 90.6.55"/><path fill="#0d131a" d="m83.15 20.6-1.25 1.7q-10.75-4.1-23.05-3-12.25 1.1-22.1 7.05-7 4.25-11.15 9.9-4.3 5.8-5 12.2-.85 7.55 2.2 15.3 3.15 7.9 10.6 16.5 8.45 9.7 8.6 24.35.15 15-8.4 29.45l-4.4 4.85q10.45-16.5 11.05-31.95.55-15-8.15-25.35-7.45-8.9-10.65-16.5-3.5-8.4-2.65-16.85Q20.1 34.7 35.75 25.2q10.15-6.2 23.3-7.55 13.5-1.45 24.1 2.95"/><path fill="#0d131a" d="m44.2 21.65 6.4-1.4Q42.4 22.5 37.75 28q-3.7 4.3-6.35 12.4-3.5 10.65-1.35 24.1 2.05 12.9 8.5 24.05l-2.5-2.65q-6.25-11-7.85-23.35-1.6-12.35 1.85-22.9Q32.3 33 35.45 28.8q3.5-4.6 8.75-7.15"/><path fill="#0d131a" d="M28.75 58.3Q30.7 51.5 40 52.2q8.85.65 14.6 6.6l.4 2.55q-5.6-6.55-14.85-7.1-9.6-.6-11.1 6.6l-.3-2.55M192.4 193.9l-.55-1.95q5.65 1.4 8.3 5.45 2.1 3.15 1.75 6.65-.25 3.05-2.15 5.25-2.05 2.3-5.3 2.8-7.35 1.15-10.2 2.2-3.65 1.35-10.4 5.7-6.85 4.4-14.35 4.6-4.75.1-13.35-1.95-12.35-2.95-19-2.15-7.6.9-20.5 7.5-12.25 6.35-23.15 2.1-7.8-2.95-13.4-10.35-4.8-6.3-8.8-8.2-3.75-1.8-10.8-1.5-7.5.3-11.8-3.05-3.95-3.05-6.9-10.65-2-5.15-4.1-6.15-1.35-.6-5.95.1-3.15.45-6.05-.6t-4.7-3.3q-6.85-8.75-1.75-21.35 2.7-6.65 13.35-19.3 9.7-11.55 22.4-24 12.8-12.5 17.9-29.4 3.6-11.95 3-24.25-.8-16.05 1.25-24.1 2.25-8.75 8.75-12.4l-.15 1.85q-4.6 2.85-6.55 9.15-2.65 8.55-1.8 25.65.65 12.65-2.95 24.6-5.2 17.2-18.55 30.05-12.15 11.65-21.85 23.7-9.95 12.25-12.7 19.1-2.1 5.1-1.8 10.65.3 5.65 2.9 8.95 3.2 4.05 9.45 3.15 4.5-.7 6.9.5 2.85 1.4 4.65 6.1 2.5 6.45 5.6 9.35 4.25 4 11.3 3.75 5.85-.25 10.1 1.4 6.05 2.3 10.95 8.75 5.5 7.2 12.4 10 10.1 4.05 21.95-2.05 12-6.2 20.05-7.3 8.05-1.1 20.35 1.8 8.55 2.05 12.9 1.95 7.2-.05 13.85-4.35 6-3.85 12.05-5.8 3.45-1.1 9-2.05 2.3-.4 3.85-2.25 1.6-1.9 1.8-4.5.25-2.9-1.35-5.4-1.85-3-5.85-4.45"/><path fill="#0d131a" d="m188.45 181.8 1.55-.75q1.6 3.7 3.05 9.6 1.25 5.05 1.45 7.35.2 2.15-.15 3-.45 1.2-2.25 1.6l-10.35 2.6q-6.4 2-10.95 5.1-5.4 3.7-10.6 4.3-7.45.9-19.5-2.8-7.1-2.2-13.45-1.4-6.3.8-14.95 5-11.6 5.65-17.5 6.15-10 .9-17.65-8-5.95-6.95-9.05-9-4.65-3.1-12.95-4.05-6.95-.85-9.85-2.1-5.2-2.25-7.5-7.9-2.5-6.05-4-7.45-2.75-2.45-8.8-1.15l-5.4-.25q-2.45-.9-4.15-3.25-2.8-3.8-3.35-8.45-.65-5.75 2.35-12.25l3.55-3.95q-4.1 7.2-4.05 14 0 5.8 2.85 9.6 2.85 3.95 8.3 2.8 6.25-1.35 8.9.65 2.3 1.75 5.3 9.15 2.15 5.25 7.05 7.05l9.3 1.6q8 1 12.15 3.55 3.95 2.45 10.65 10.25 7.35 8.55 16.35 7.55 4.9-.5 16.7-6.25 9.15-4.45 14.5-5.25 6.55-1 15.15 1.65 11.8 3.6 18.7 2.7 4.7-.6 10-4.25 4.6-3.1 11-5.1l10.35-2.75q.95-.25 1.15-.85v-1.75q-.2-2.65-1.25-7.4-1.2-5.55-2.65-8.9"/><path fill="#0d131a" d="M120 269.3q-6.65 5.6-15.95 4.45-10.55-1.3-19-11.3-8.2-9.7-16.35-11.25-6.75-1.25-22.65 2.25-5.6 1.2-10.35.1-4.3-1.05-6.9-3.8-1.85-2-2.5-5.15-.65-3.15.1-6.55l1.6-7.7q.6-3.95-.35-5.3-.65-.9-.2-1.15.45-.2 1.15.65 1.35 1.65 1 5.65-.2 2.3-1.35 7.95-1.4 6.35 2.2 10.15 2.45 2.55 6.05 3.55 4.15 1.1 9.35-.05 16.65-3.55 23.65-2.25 8.65 1.55 17 11.55 7.5 9.05 17.25 10.4 8.8 1.25 15.05-4 13-11 22.1-15.9 15.9-8.6 31.75-7.7l13.65-.5q9.15-1.35 11.6-5.45 2.35-3.9-1-9.25-4.15-6.45-4.7-7.8-.85-2.05-.2-5 .75-3.15.6-4.6l2.15-.2q.2 2.45-.65 5.1-.9 2.65-.1 4.7.75 1.9 4.75 7.3 2.25 3.05 2.4 5.8.15 2.45-1.4 5.05-2.55 4.3-11.8 5.85l-15.1.6q-16.1-.9-31.5 7.85-7.2 4.1-21.35 15.95M189.8 169.05q-2.6-1.75-6.2-2.4l1.5 3.1q1 2.4-1.2 4.8-2.6 2.9-10.85 5.3-8.2 2.4-19.25 3.5-26.35 2.65-47.35-3.2-13.4-3.8-22.1-3.55-11.7.35-16.5-2.25-8.25-4.45-9.2-19.15-.3-4.5-2.85-7.1-2.6-2.6-7.15-2.75l-4.5-.45q-2.35-.6-3.5-2-1.5-1.95-1.2-4.5-2.05 2.65-2.35 5.7-.25 2.45.6 4.55 1.4 3.25 5.15 3.15 3.25-.15 5.4 1.7 2.85 2.4 3.45 8.05 1.2 11.6 9.2 17.75 8 6.1 20.55 5.05 6.7-.55 14.3.25 8.2.9 15.65 3.15 15.8 4.85 34.2 4.25 22.5-.7 41.05-9.8 3.6-1.75 5.3-4 1.6-2.2 1.25-4.5-.4-2.65-3.4-4.65m-7-3.9q5.1.5 8.45 2.8 3.4 2.35 3.9 5.65.4 2.6-1.6 5.45-2.1 2.95-5.9 4.85-18.65 9.35-41.85 9.95-18.65.5-34.9-4.45-7.35-2.25-15.7-3.1-7.65-.75-14.35-.2-12.7 1.05-21.25-5.55-8.6-6.65-9.85-18.75-.5-4.7-2-6.6-1.6-2-5.05-1.9-2.15.1-4-.9-1.95-1.05-2.7-2.85-1.25-3-.4-6.9.9-4 3.45-6.1 1.05-.85 1.6-.65.6.2.4 1.35-.5 3.25.85 5 .95 1.2 2.95 1.5l4.05.2q5.25.2 8.4 3.3 3.05 3 3.35 7.9.95 14.2 8.1 18.15 4.1 2.3 15.55 1.95l11.25.7q4.35.7 11.4 2.65 21.75 6.05 47.45 3.05 10.35-1.2 18.2-3.6 7.5-2.35 9.75-4.9 1.25-1.4.55-3.15l-3.85-8q-3.4-6.5-5.65-9.25l.75-2.25q2.75 4 6.7 11.05l1.95 3.6"/><path fill="#0d131a" d="M117.25 122.95q-.2-7.6-3.35-9.6-5.1-3.3-15.15 5.25-3.15 2.65-5.3 2.5-2.05-.15-3.95-3-1.45-2.1-3.65-1.75-2.2.4-4.4 2.75-2.4 2.5-3.65 6.3 9.9.45 21.9 13.6 11.25 12.3 17.95 28.25.6-1.85 2.95-8.15l2.45-7.15q.8-3.15-.05-5.1-.9-2.1-3.5-2.2-4.5-.2-4.5-4.65 0-1.2.5-3.3 1.95-7.2 1.75-13.75m-39.5 3.85q-1.05.05-1.3-.35-.3-.4.05-1.55 1.35-4.3 3.85-7.2 2.45-2.75 5.25-3.35 1.55-.3 2.8.55.95.65 2.1 2.3 1.65 2.5 3.25 2.65 1.65.1 4.35-2.35 4.6-4.15 8.6-5.85 5-2.15 8.3 0 3.65 2.35 3.9 10.25.2 6.95-2.1 15-1.7 6.05 3.45 6.3 2.95.15 4.15 2.5 1.15 2.15.4 5.35l-2.75 7.95-2.9 8.35q-.65 2.45-1.3 2.4-.6 0-1.55-2.3-5.25-13.35-17.1-26.55-12.75-14.25-21.45-14.1"/><path fill="#0d131a" d="M175.25 146.4q.85 2.75-1.05 6.8l-6.45 12.95-1.1 1.7q-.6.3-1.45-1.65-7.45-16.2-16.8-27-14.05-16.15-30.15-17.1l-.05-1.4q16.35.35 30.5 16.3 9.95 11.2 17.7 28.55 5-9.15 6.4-12.85 1.25-3.3.3-5.8t-3.6-3.3q-2.45-.7-3.7-1.85-1.75-1.65-1.6-4.45.35-6.95-.05-9.6-1-6.5-5.65-9.55-4-2.6-9.85-1.5-2.6.5-7.95 2.65-2.65 1.1-4.2.9-2.2-.25-4.1-2.85-2-2.65-6-2.15-4.15.6-8.25 4.3l-.3-1.75q5.1-4.3 9.15-4.6 4-.3 6.6 3.35 1.3 1.85 2.9 2.25 1.6.35 3.75-.65 12.45-6.15 19.35-1.65 4.8 3.15 6.1 8.95.95 4.3.15 11.55-.3 2.65 1.1 3.85.75.65 3.35 1.4 4.05 1.2 4.95 4.2M92.1 84.3q5-9.7 6.25-12.7 3.25-8 3.55-15.35l2.6-.55q-.3 7.8-4.05 16.3-2.1 4.8-6.7 13-6.35 12.3-6.1 17.6.35 7.15 10.7 15.4l-1.6 1.05Q85.9 110.55 86 101.6q.05-5.5 6.1-17.3M61.15 30.8q3.8-4.45 9.15-6.7 5.35-2.2 11.05-1.75l-1.4 1.4q-5 0-9.55 1.95-4.8 2.05-8.2 5.95-4.35 5.05-6.15 11.8-2.45 9-.1 20.25 4 19.3-.6 35.2-4.85 16.65-20.15 33.65l-1.9 1.3 1.4-3q14.5-16.9 19.1-32.5 4.55-15.4.8-34.2-4.25-20.85 6.55-33.35"/></svg>