<svg xmlns="http://www.w3.org/2000/svg" width="428" height="557" viewBox="-0.644 -0.386 427.897 556.556"><path fill="#7fcdec" d="M252.913 153.533q-6.892-4.83-15.522-8.437l-9.402-3.284-6.119-1.997q-3.091-1.288-2.898-2.64.58-3.285 12.88-3.671 13.783-.451 24.925 5.216.45 2.319-.515 6.44-1.095 4.508-3.35 8.373M289.816 342.872l6.698-11.399 6.633-1.352q8.244-2.319 16.23-7.406-11.077 22.926-11.27 24.859-.387 2.704-.194 5.731.258 4.573 1.804 6.118l15.006 14.04-12.237 12.236-12.044-10.497-4.765-12.623q-4.96-13.782-5.861-19.707M254.265 388.726q-.322.644-.773 6.118l-.45 5.28q-3.607.58-8.309.13-5.023-.58-.322-4.186l9.854-7.342"/><path fill="#eef4f7" d="m329.94 313.505-.065.065q-11.786 14.361-28.53 17.195l-10.37.515-4.057-.515 4.122 16.68q5.023 18.805 9.853 29.238 4.315 7.084 3.865 13.91 7.921-5.087 15.907-12.75 11.593-11.142 21.318-25.89.708-3.156 2.898-7.664 4.38-9.145 11.593-16.165l-8.373-5.603q-9.982-6.182-18.162-9.016M421.78 1.03q3.542.065 3.735.773.193.58-2.125 2.319-8.695 6.697-17.325 16.422-9.66 10.884-15.457 21.446-8.308 15.198-15.778 20.672-9.403 6.827-34.005 13.074-23.637 5.925-29.369 7.792-19.127 6.312-26.019 14.104-2.19 3.736-1.996 10.24.129 5.088 1.546 10.111 3.477 4.315 14.941 8.63l16.874 5.345q5.539 1.675 6.762 3.8 1.03 1.674-.58 4.38l-14.554 20.8q-.451 3.607.708 8.115 1.095 4.186 2.898 6.891l17.196 6.891q6.955 2.64 7.922 3.542 2.06 1.932-1.675 5.668-3.478 3.477-9.016 12.622l-4.766 8.437q.901 7.985 6.054 19.707l7.921 18.096 1.482 4.25q28.723 1.482 30.27 5.024 1.094 2.64-.71 14.941l-2.06 11.786 9.918 9.209q10.755 9.725 15.07 12.687 17.067 11.463 20.094 17.195 1.997 3.735 3.156 13.782 1.095 10.175-.386 12.623-1.16 1.803-8.63 5.538-7.858 3.864-9.081 5.281l-1.997 4.122q-2.125 4.508-2.834 6.504-2.318 6.505-9.21 7.728-4.25.773-10.11 3.414-6.377 2.898-10.627 6.247-13.396 10.433-28.531 28.143-22.799 26.662-31.107 51.457.193 12.687 1.03 39.542.258 12.107 1.675 32.845.773 10.883-.58 10.948-3.993.193-15.134-9.596-10.176-9.016-14.813-15.52-4.186-6.054-10.691-23.507-6.698-18.097-6.698-24.666 0-5.732 1.16-32.265l1.094-25.374q-7.664-18.805-2.383-37.353 1.61-5.796 4.38-10.884l2.382-3.928q-5.538-14.49-11.785-29.367l-5.153-11.979-8.372 1.61.773 6.827q.837 7.213 1.352 9.08.773 3.092-.193 5.475l.515 1.803q.773 2.06 2.061 3.67 2.06 2.512 1.546 5.153l-3.156 7.921q-3.671 8.501-3.542 35.356.064 19.128 1.61 35.164 1.932 20.028-.129 20.608-3.478.902-12.108-4.186-8.243-4.83-13.525-10.304-4.057-4.315-10.24-17.131-6.89-14.297-6.505-20.737.451-7.535-.45-20.93-1.095-17.067-3.865-24.151-7.535-10.498-5.796-23.829 1.481-11.978 8.501-18.16-9.274-6.634-16.165-17.325l-5.088-9.402-17.196 3.542q-10.69 17.775-18.87 39.993-4.122 11.077-6.118 18.612l-12.237 16.229q-3.606 3.8-7.6 10.948-3.735 6.57-4.765 7.406-.773.644-10.498 3.671-10.884 3.414-17.196 6.827-6.89 3.67-28.53 34.905-11.207 16.294-25.44 37.997l-7.47 10.047q-2.448 1.674-4.767-5.99-2.576-8.887-3.413-20.093-.837-11.72.837-19.707 1.61-7.857 8.63-24.279 6.763-15.843 9.596-19.192l8.05-8.822 8.824-10.176q2.963-3.67 7.535-10.948l4.058-6.569q3.413-22.283 15.714-33.424 3.865-3.478 8.18-5.41 2.125-1.03 3.477-1.288l17.26-7.406q.194-5.41 2.448-17.904l2.19-11.399q-6.892-12.365-11.078-21.123l-2.77-6.247-13.33-.644q-11.4-2.319-21.254-13.91-7.213-8.502-10.949-18.098-5.925-15.263-14.168-24.923-5.603-6.569-11.27-9.531-4.316-2.254-12.173-4.508-6.183-1.804-6.183-2.448 0-1.996 4.96-4.121 6.053-2.64 15.327-2.64 15.78 0 34.971 14.683 7.214 5.538 12.366 11.334 4.83 5.474 4.959 7.793 8.759 4.057 24.666-.966 7.793-2.383 15.457-3.413 12.108-1.61 19.965.966l44.246 23.828 20.222-6.633q22.928-6.827 36.775-7.406 13.782-.58 27.242 8.694 6.698 4.637 10.627 9.338.386-3.349.193-7.6l-.322-3.541q-4.122-4.315-12.816-8.115-7.149-3.156-7.278-4.637-.193-2.06 5.153-10.175 2.64-4.058 5.345-7.664-.45-.902-1.996-5.86l-1.482-4.83q-9.725-1.74-14.62-3.35-3.284-1.03-3.67-2.704-.194-1.03.773-3.156l12.43-23.57q2.06-4.123 1.738-8.76-2.962-10.175-10.562-13.781-2.318-1.095-4.895-1.417l-2.06-.129-11.464 1.224-11.27 1.996-3.736.064q-.644-.386.064-2.64.58-1.868 3.8-6.89l3.027-4.573-2.383-3.35-2.898-.321q-22.606 4.637-24.538 3.413-1.03-.644-.902-5.603.13-5.732 1.932-12.623 5.217-19.32 19.772-33.295 8.824-8.437 21.833-14.168l5.86-17.904q3.865-11.785 5.733-11.656 2.06.128 4.186 8.179l3.027 15.134q15.843-3.929 35.1-4.766l41.283 1.61q21.768 2.383 30.462.451 13.718-3.091 27.05-18.29Q402.844.644 421.779 1.03"/><path fill="#7fcdec" d="M194.112 105.554q2.963-.194 7.471-3.092l-2.125 5.474 2.447.644-4.38 4.573-3.284.515q-3.478.322-4.637-.515-1.352-.966-.708-8.179.644-7.084 2.318-10.82l.322 5.797q.709 5.731 2.576 5.603M300.25 496.534l3.413 50.683q.257 6.891-1.482 7.278-.966.193-5.603-3.092-4.83-3.413-12.494-10.175l-6.698-6.054 4.122 1.095 4.895-.129q.515-.901.772-19.642.258-20.093.516-22.218l1.803-17.84q1.739-15.198 3.864-20.801l2.576 12.236q2.898 15.006 4.315 28.659M235.846 420.669l2.254 33.36q0 6.44-1.03 7.664l-4.766-.13q-2.061-.643-8.824-4.83-6.311-3.863-8.05-5.28l4.186.966 5.281-.193q.773-.709 1.16-19.707.386-20.866 1.094-24.73l1.804-9.21q.772-3.22 1.61-3.349.837-.064 3.155 12.687l2.126 12.752M56.224 422.987q-8.694 13.01-10.82 18.162Q26.6 472.512 21.06 480.498q-4.057 5.86-6.118 5.86t-5.024-14.49l-2.512-14.49q4.315 5.667 5.797 5.345.773-.193 6.247-7.986 7.084-10.046 10.304-13.91 9.983-12.108 20.996-21.575 10.627-9.274 12.687-7.921.387.257-7.213 11.656M301.087 447.073q4.894-9.145 13.589-20.222 17.324-22.154 36.259-31.685l-3.671 7.277q-8.437 7.6-18.548 19.965-20.287 24.73-28.918 48.752l-.128-7.471q.064-8.952 1.417-16.616M124.878 195.071l-2.898-.58q-3.22-.321-4.83.58-11.528 6.956-18.613 42.956-6.633 33.682-3.542 56.415 2.77 20.222 16.81 43.278 13.846 22.67 22.154 21.768 4.444-5.024 10.498-13.267 12.044-16.551 19.9-32.78-2.704-1.739-5.538-5.796-5.667-8.115-6.054-19.45l-4.057-4.572q-4.058-5.152-4.122-8.179-.129-3.027 4.186-7.986l4.315-4.379q.129-2.447 1.417-6.826 2.576-8.823 8.566-18.677l-38.192-42.505m117.215 27.886q3.413 4.444 2.254 5.152-1.03.58-6.376-1.288-4.122-1.417-15.457-3.67-13.653-2.641-18.355-2.126-4.572.58-11.077 5.088-6.827 4.701-12.752 11.785-14.942 17.582-13.847 35.55 9.274 5.796 22.22 10.175 6.31 2.125 15.07 4.315 4.38 1.03 5.023 1.932.644.837-1.61 2.576-4.508 3.349-15.135 4.38l-20.738-.773q3.865 10.24 12.366 18.933 7.6 7.793 15.908 11.593 6.376 2.833 14.812 4.315l7.15.837q-3.8 1.159-13.976 1.739-8.566.45-11.529.193-1.61-.129-3.091-1.224l-3.478-2.769q-1.868-1.417-4.186-1.095l-1.932.58q-31.43 39.8-31.88 41.217-.386 1.094.129 3.155.515 2.125 1.61 3.671 1.095 1.61 14.233 9.66 12.945 7.857 17.84 10.111 7.213 3.285 7.084 5.474-.193 2.061-7.084 2.576-8.759.644-22.67-3.864-12.108-3.864-19.192-8.372l-3.993.065q-3.092.58-3.607 1.223l-19.643 25.246q-1.803 2.125-6.44 5.602-5.41 4.058-6.57 3.092-1.288-1.095-.644-6.891.58-5.539 2.255-9.982.966-2.577 16.422-32.523-17.26-19.771-30.334-43.213-12.945-23.25-14.555-37.095-2.125-18.677 1.288-47.013 3.092-26.212 8.373-42.054 2.576-7.664 10.24-21.253l7.149-12.043q-.13-1.223-12.366-15.843l-13.46-16.1q-2.319-3.22-3.736-8.243-1.416-5.152-.128-6.376 1.803-1.674 8.372 1.417 5.99 2.77 7.922 5.023 2.511 2.834 14.04 12.623 12.945 10.948 15.263 10.884 4.509-4.25 14.427-9.21 6.89-3.349 11.979-5.152 3.284-1.159 10.562-2.383l11.528-.966q3.542.451 3.285 1.546-.258.902-3.671 2.962-8.501 5.088-17.647 12.365-14.104 11.206-13.396 16.294.902 6.311 18.033 24.15 16.745 17.389 24.602 21.124 5.088-4.444 14.62-7.406 4.83-1.481 8.566-2.125 2.125-1.417 4.572-2.77 4.895-2.833 6.57-2.833 6.569 0 16.036 6.504 7.922 5.474 12.752 11.528M239.26 216.066l22.67-29.238 2.124 5.152-5.86 8.243q-5.732 8.566-4.96 9.79 1.16 1.996 9.854 5.796l-3.477 6.375q-2.834-1.417-6.827-2.898-7.986-2.962-13.525-3.22M320.472 121.268q1.03.386.708 4.508-.322 3.993-1.48 6.762l-12.238-3.736 5.153-4.25q5.667-4.057 7.857-3.284"/><path fill="#00a5e3" d="M275.454 210.399q4.122 5.088 11.593 9.596 7.535 4.508 10.82 3.8 2.575-.516 6.118-9.983 3.8-9.918 2.576-15.65l3.8 9.983q4.25 10.82 6.311 15.134l14.813 27.306q8.501 15.779 9.21 22.605.708 7.342.257 12.365-.386 5.152-2.06 9.725l3.864 3.606q4.057 4.122 5.152 6.827 1.417 3.413 1.996 7.148.58 3.864-.193 4.96-1.16 1.416-7.277 1.416l-12.881-6.247q-3.607 5.217-10.756 10.111-14.297 9.725-31.88 7.921l-1.61-9.338q3.607-2.254 6.248-7.213 3.864-7.341 4.701-19.384.902-13.138-9.403-47.98-10.82-33.552-11.4-36.708M203.58 339.781q-1.61 0-4.122-2.383-.709-.708-1.095-1.996l-.193-1.224 13.524-.708q-6.762 6.311-8.114 6.311M79.023 247.687l-1.674 7.986q-4.187-.258-10.047-3.993-11.722-7.47-19.965-25.052l8.5 8.308q10.95 9.08 23.186 12.751M217.49 110.384q-1.287-.837-18.483-2.061 2.962-10.047 17.389-22.605 13.331-11.657 21.768-13.653.13 22.347-1.417 24.794l-8.05 8.05q-7.47 7.02-8.888 9.403-1.03-3.155-2.318-3.928M423.775 3.67q-10.562 9.34-18.033 17.904-6.955 7.986-14.748 20.544-7.664 12.43-9.403 14.362-4.96 5.603-13.718 10.175-11.786 6.247-28.66 9.467-10.82 2.126-23.056 5.86-24.473 7.536-31.558 15.843.515-2.962 3.092-7.985l2.447-4.508q-4.38-.065-10.949 1.545-13.01 3.285-23.7 11.786-.322-26.083-1.74-33.94 4.058-1.674 8.051-3.413 12.366-4.122 33.812-7.857 10.884-1.868 41.476-2.254 22.284-.322 30.978-5.796 7.664-4.895 17.196-15.65 12.559-14.426 15.457-17.066 4.508-4.122 9.79-6.89 7.406-3.865 14.683-4.058l-1.417 1.932"/><path fill="#0f141b" d="M237.907 77.732q.386-.193.772.451.323.644-.064.837-7.278 3.285-17.196 12.559-10.304 9.66-14.49 17.646-.194.386-.773-.13-.644-.515-.451-.9 4.637-8.695 14.297-17.776 9.532-8.887 17.905-12.687M237.07 89.582q.386-.193.772.45.451.58 0 .774-4.959 2.576-10.948 8.694-6.183 6.247-8.63 11.399-.194.386-.902 0-.709-.322-.515-.773 2.77-5.86 8.308-11.528 5.667-5.796 11.914-9.016"/><path fill="#fff" d="M209.827 92.094q4.057-5.152 11.464-10.433 3.67-2.705 6.569-4.315 1.739 3.22 1.352 7.277-.386 4.315-3.22 7.02-3.349 3.156-8.308 3.22-4.83.064-7.857-2.77M227.473 97.568q-1.352-1.224-1.417-3.413 0-2.126 1.16-3.414 1.159-1.288 3.027-1.674 1.867-.386 3.284.322 1.481.708 1.997 2.64.515 1.997-.516 3.993-1.094 2.19-3.606 2.64-2.383.387-3.929-1.094"/><path fill="#e83921" d="M221.355 90.355q-1.224-1.16-1.16-2.963 0-1.932 1.675-3.22 1.095-.837 2.705-.772 1.739.128 2.898 1.416.838 1.095.773 2.705-.064 1.74-1.16 2.77-1.158 1.159-2.897 1.159-1.675 0-2.834-1.095"/><path fill="#cbd0d3" d="M211.888 85.074q13.91-11.914 26.663-13.782-6.376 2.898-14.233 8.308-15.65 10.884-22.67 23.506-3.607 2.254-6.57 1.997 4.895-9.854 16.81-20.029"/><path fill="#6eb3cd" d="m202.163 108.71-4.122 4.121q-3.607 0-4.315-1.352-.966-1.868 1.352-6.376 2.963.257 6.57-1.997-1.353 2.383-2.512 5.281l3.027.322"/><path fill="#cbd0d3" d="m205.318 111.93-7.277.901 4.122-4.122 13.138 1.353-9.983 1.867M248.92 86.104q4.315-5.924 6.247-11.914 1.223 4.702.901 15.199l-.515 9.531q9.146-7.728 20.931-11.27 8.18-2.512 14.105-2.254-6.634 7.47-6.763 20.866-.064 6.698 1.224 11.914-1.03.258-2.254-1.545-.902-1.353-1.417-2.898-2.512-7.793-6.698-4.573-2.77 2.19-7.857 11.4-5.732 10.432-7.6 12.622-3.8 4.637-5.732-.837-3.091-4.187-7.47-6.119-2.577-1.159-6.376-1.674l-12.43 1.16-9.596 1.545q-2.383-1.932 7.084-13.975 10.755-13.653 11.013-14.555 7.793-5.345 13.203-12.623M373.025 42.183q-8.308 6.054-17.195 7.535l-19 1.481-23.442.902q-32.202 2.125-59.058 12.88l-.451-4.701 10.626-3.478q13.139-3.864 25.633-5.796l21.833-1.868 20.48-.515q23.379-.837 35.422-7.47 5.603-3.092 16.745-14.426 12.043-12.301 18.484-16.68-14.62 15.456-19.321 21.638-4.573 5.99-10.756 10.498"/><path fill="#0090c6" d="M379.144 59.25q-4.96 5.022-14.105 9.144-10.82 4.83-25.826 7.728-10.82 2.126-23.056 5.86-24.473 7.536-31.558 15.843.515-2.962 3.092-7.985l2.447-4.508q-4.38-.065-10.949 1.545-13.01 3.285-23.7 11.786-.322-26.083-1.74-33.94 4.058-1.674 8.051-3.413 12.366-4.122 33.812-7.857 10.884-1.868 41.476-2.254 22.284-.322 30.978-5.796 7.664-4.895 17.196-15.65 12.559-14.426 15.457-17.066-9.66 12.172-12.817 26.984-1.61 7.535-2.576 10.047-1.932 5.216-6.182 9.531"/><path fill="#cbd0d3" d="m242.801 176.073 6.054-.45q6.763-.645 10.627-1.804l1.095 7.342-6.763-1.16q-7.535-1.61-11.013-3.928M295.677 159.2l9.982-6.891q11.593-8.437 19.45-16.551l-24.924 36.193-2.512-7.921q-1.16-3.349-1.996-4.83M335.156 192.56l-5.732 6.762q-2.19 2.834-5.088 9.145-1.417 3.155-2.383 5.732-1.352-3.35-1.996-7.471-.709-4.766.45-6.44.709-1.03 8.244-5.86 7.6-4.895 9.403-7.278.129 1.674-2.898 5.41M304.758 184.896q1.48 5.603 1.61 9.596.257 10.368-2.577 19.835-2.833 9.21-6.053 9.79-1.61.321-6.376-1.868-5.732-2.576-11.142-7.02-15.006-12.3-19.128-31.492 2.254 9.274 13.074 17.066 10.69 7.664 16.165 5.99 4.508-1.353 7.986-9.081 4.444-9.79 2.448-22.863 2.318 3.671 3.993 10.047M364.91 288.002l-8.5-8.436q2.575-1.739 7.341-10.176l4.25-8.05q.516 5.668-3.09 26.662M257.743 252.002q-1.224-2.383 2.705-4.637 4.895-3.67 10.69-5.28 1.933-5.926 2.255-12.108.386-6.054-.902-9.21-12.494-7.148-19.192-9.982l9.79.709 12.945.515 6.118 20.093 6.054 20.029q-12.172 6.44-24.41 3.349-4.894-1.224-6.053-3.478"/><path fill="#0090c6" d="M303.147 215.809q3.478-8.244 3.8-17.196 3.8 19.836-2.318 34.713-5.281 12.944-16.423 18.805l-6.054-20.029-6.118-20.093 1.61.258q.515 1.996 7.02 6.504 7.535 5.152 13.202 4.637 2.19-.193 5.281-7.6"/><path fill="#cbd0d3" d="M272.105 280.532q3.607 5.474 10.24 10.175 7.084 5.024 13.332 6.054-.58 17.388-10.176 25.245-3.156-21.639-4.122-24.73-.966-3.091-5.41-10.562l-3.864-6.182"/><path fill="#0090c6" d="m338.054 258.635 1.61 6.634q1.546 8.243 1.288 16.293-.708 25.76-18.806 39.736-10.11 7.792-23.25 9.982l-8.5.515q-3.285-.129-3.671-.837l-1.224-8.952q9.596-7.857 10.176-25.245l.257.064q15.908 2.448 28.273-3.993 17.711-9.273 13.847-34.197"/><path fill="#cbd0d3" d="M338.698 294.893q11.593 10.433 31.043 30.977 14.104 14.877 18.097 16.487 8.244 3.156 13.847 3.478 11.335.515 11.077-9.918l.966 7.277q.451 7.664-2.06 9.66-2.126 1.74-27.05 15.908v3.155q-.258 3.413-1.481 4.315-1.482 1.224-9.081 3.8-7.6 2.64-7.922 1.996-.258-.515 6.634-5.216l6.182-4.186q-1.674.901-4.508 1.288-4.186.45-5.474-1.546-2.64-3.993-4.315-3.928-2.126 0-5.346 5.667l1.095-3.478q.58-2.511.193-6.826-4.186-8.244-6.118-18.612-2.318-12.494 1.61-16.81-3.027-2.575-7.857-5.73-9.66-6.312-18.548-9.275 2.254-2.511 4.508-6.118 4.508-7.148 4.508-12.365M341.017 352.854l.644 14.62q-5.797 1.738-8.824 3.284-7.277 3.67-17.582 12.172 11.207-11.335 14.942-15.714 4.057-4.701 10.82-14.362M301.666 445.141q1.675-7.985 4.766-15.134 1.481-3.413 4.766-9.531 2.512-4.702 1.224-9.918l-1.868-4.25 16.23-8.115q16.744-8.243 19.192-9.08 1.996-.645 9.403.128 6.311.709 10.755-2.254-7.793 5.603-18.226 14.812l1.352-3.864.773-2.576q-12.752 6.247-26.792 21.446-11.657 12.623-21.575 28.336"/><path fill="#6eb3cd" d="M312.808 429.492q13.525-17.388 22.67-23.829-6.956 8.695-13.396 20.094-6.44 11.463-10.433 22.218l-4.573 7.535q-4.959 8.823-6.827 15.005-.257-4.83-.322-10.368-.064-11.077 1.16-14.555 4.959-7.406 11.721-16.1"/><path fill="#cbd0d3" d="M216.847 307.645q7.02 3.284 22.54 5.023l18.034 1.095q4.444 0 3.285 5.538l-1.417 5.346q-.902 3.413-.902 5.538 0 9.467 8.952 36.838 9.21 28.207 13.59 29.173 9.724 2.126 15.134 1.095 8.63-1.674 7.922-10.884 1.288 11.528-2.77 17.84l2.061 4.443q1.997 4.83 1.804 6.827-.258 2.511-3.543 9.789-3.284 7.342-3.542 5.667-1.352-9.596 1.61-21.896l-2.962 4.572q-3.543 4.573-6.376 4.444-3.35-.129-12.173-6.054-2.833-1.867-3.22-1.674-.515.322 1.868 4.186 1.996 3.22 3.671 4.894l2.447 2.19q-4.186-2.576-9.016-7.02-9.66-8.952-12.88-18.354 1.094 8.5 4.12 14.748 3.35 7.02 11.916 17.581 1.48 1.804 2.576 9.21 1.223 8.758 2.705 12.622-1.675-.257-4.573-3.155l-2.64-2.834q-1.546 9.918 2.704 43.47 4.38 34.391 8.63 41.218l.773 1.288q0 5.28-.966 5.731l-9.21-.837q-5.152-5.603-7.02-9.338-4.186-8.115-9.467-24.086-5.088-15.456-5.345-20.029-.193-3.606 1.03-31.299l1.224-26.984q-4.25-13.267-4.444-23.506-.258-16.23 8.63-28.981-2.705-8.952-7.084-18.676-2.834-6.247-7.02-17.131l-3.607-9.596q-23.185-13.524-27.05-18.032"/><path fill="#6eb3cd" d="m303.663 541.679.322 5.86q0 5.99-1.804 6.763-1.674.772-9.982-5.41-8.437-6.376-15.2-13.589l9.21.837q.966-.45.966-5.731 7.986 12.493 12.495 14.748 3.8 1.867 3.993-3.478"/><path fill="#cbd0d3" d="M198.492 306.872q10.304.902 17.453-.064-.064 1.738 14.04 10.561 7.084 4.444 14.169 8.501l.386 4.058q-23.314 5.216-43.086-3.35-21.189-9.144-30.72-31.17 1.545 2.061 12.43 1.933 12.172-.194 22.927-3.8-4.38 3.8-11.4 6.182-7.277 2.448-15.07 2.448 6.183 3.606 18.87 4.7M225.799 224.052l12.172 3.22q-6.891-1.674-16.23-2.254-12.043-.708-18.548 1.61-12.172 4.38-22.799 18.032-11.721 15.135-11.721 30.72l-2.19-2.19q-.129-8.372 2.64-16.165 2.834-7.985 9.404-17.066 5.023-7.02 12.558-12.494 8.566-6.247 15.328-6.44 6.054-.129 19.386 3.027M193.146 332.504q.773.515 2.77.837l17.582-.58q-.322 3.993 1.095 10.24 1.48 6.633 3.477 8.694 1.288 1.353 4.637 2.576 3.736 1.288 7.15 1.288 9.402-.064 8.63-10.11l.386 2.897q.064 3.478-1.417 6.312l-3.671 7.084 1.288 1.996q1.224 2.319 1.03 3.8l-3.027 7.277q-2.962 6.312-3.284 8.759-.515-8.888.515-12.108-2.125 6.119-5.023 5.796-2.705-.322-6.505-6.568 0-1.16-1.16-2.834-2.318-3.285-8.05-5.603-3.8-1.481-8.501-5.99-4.895-4.7-7.793-9.917 1.868 7.857 10.305 17.775l9.145 9.724q1.288 1.803 1.996 6.762.838 6.118 2.705 10.82l-4.572-2.963-1.417-1.223q.515 10.948 4.315 29.817 4.572 22.412 9.338 29.367l.516.709q-.387 5.152-1.03 5.41h-2.706l-5.217-.838-3.67-2.962q-5.604-4.573-12.43-20.995l-5.732-15.52q1.159-14.749-1.16-31.88l-2.511-14.168q-7.729-12.171-5.797-25.438.58-4.122 2.061-7.857l1.353-2.962 3.67 2.447.323-.322.386.45"/><path fill="#6eb3cd" d="M235.073 455.51q1.996.322 2.898-.966.837 1.932.515 4.83-.322 2.963-1.545 3.091-2.64.322-8.502-2.898-5.28-2.898-11.786-7.857l5.217.838h2.705q.644-.258 1.03-5.41 5.54 7.792 9.468 8.372"/><path fill="#0090c6" d="M203.58 339.781q-1.61 0-4.122-2.383-.709-.708-1.095-1.996l-.193-1.224 13.524-.708q-6.762 6.311-8.114 6.311"/><path fill="#6eb3cd" d="M63.437 411.266q.516.322-5.796 10.047L43.794 442.63q-12.88 13.846-17.13 19.191-9.404 11.786-13.461 22.476-4.058-14.04-5.088-24.408 3.478 2.898 4.895 2.898 1.223 0 2.125-1.288l2.705-4.508Q23.958 446.945 35.744 434q9.403-10.175 18.484-17.324 7.986-6.182 9.21-5.41"/><path fill="#cbd0d3" d="M67.56 357.942q-.58 3.929-1.031 10.948-.58 5.99-2.64 9.596-3.865 6.891 1.674 7.02 5.28.129 7.664-2.512 2.125-2.254 3.091-6.054.773-3.22.451-5.538-1.61-11.013-.386-21.317 1.61-12.816 7.406-19.256-13.911 12.236-16.23 27.113m49.977 16.165-1.48 2.125q-1.031-.258-6.57 1.095l-5.281 1.417-3.22 6.633q-1.675 3.413-3.607 4.701l-9.08 5.925-10.885 7.278q-5.667 4.7-10.305 10.175-4.315 5.023-11.592 15.263-3.414 4.895-11.722 13.91l13.847-21.316q6.312-9.725 5.796-10.047-1.223-.772-9.21 5.41-9.08 7.149-18.483 17.324-11.786 12.945-17.904 22.991l-2.705 4.508q-.902 1.288-2.125 1.288-1.417 0-4.895-2.898-1.481-14.361 2.318-23.12 1.288-2.898 7.536-12.043L31.107 405.6q18.806-28.465 24.473-46.755.451-7.149 4.186-15.585 7.342-16.745 23.508-22.798l9.79 18.483q12.236 21.252 24.472 35.163M126.682 285.426q1.03 1.546-.322 2.64l-4.122 2.384q-7.664 4.508-10.047 13.975-3.285 13.009-5.474 24.021l-7.085-15.327 4.509-30.269q-5.475-9.724-9.21-17.452l.837-3.092q5.925 6.054 18.677 14.555 11.722 7.793 12.237 8.565M45.404 222.957q-9.402-18.676-14.297-24.859-7.535-9.531-23.894-13.524 16.616.515 27.436 11.013 6.57 6.375 19.128 23.764 8.952 10.69 26.663 13.782l-1.095 7.212-1.095 7.213-.386-.128q-5.474-1.546-12.237-5.346-13.589-7.663-20.223-19.127M97.185 251.551l-.644-.129q1.288-5.731 2.962-17.195 9.79-.386 19.128-2.511 8.373-1.868 12.881-4.25l-4.895 5.151q-5.023 5.603-5.86 7.728l-23.572 11.206"/><path fill="#0090c6" d="m79.023 247.687-1.674 7.986q-4.187-.258-10.047-3.993-11.722-7.47-19.965-25.052l8.5 8.308q10.95 9.08 23.186 12.751"/><path fill="#6eb3cd" d="m220.196 138.85 11.013 1.996q13.267 2.769 24.795 6.762l-3.413 6.247-9.339-5.475q-11.657-6.182-23.056-9.53M244.025 228.11q-17.067-4.702-28.402-6.183-8.759-1.16-12.623-.258-11.464 2.705-22.992 16.1-13.976 16.23-13.525 35.421l-3.606-2.318q0-11.27 5.474-23.056 5.796-12.494 15.521-20.35 10.755-8.695 17.067-11.657 4.895-2.254 8.695-1.675 8.436 1.288 22.219 7.793 6.955 3.22 12.172 6.182M165.646 309.126l-1.224 3.735q-2.254-1.288-4.83-5.023-5.217-7.406-7.02-19.32-2.512-2.512-4.573-5.797-4.186-6.633-1.867-10.69-.966 2.576 2.511 6.311 3.027 3.22 8.244 6.118 11.013 6.054 25.761 7.986 12.881 1.739 24.925-.129-4.38 1.803-11.013 3.22-13.396 2.834-24.925.838l2.19 5.023q3.156 6.118 7.922 11.399 15.135 16.873 40.38 19.256l-10.368 1.288q-11.27 1.095-15.843 0-4.251-1.03-5.732-2.447-1.482-1.482-2.19-1.675l-2.963-.644q-1.03-.064-1.803.644l-31.75 40.38-1.418 5.603q-.837 6.182 2.383 9.402 2.77 2.77 21.318 11.979 16.423 8.114 14.877 8.243l-14.426-.515q-17.132-2.383-30.27-11.528l-3.285-.129q-3.606.065-5.088 1.417-1.159 1.095-12.816 16.938-12.559 15.714-19.579 17.388l-.644-1.095q-.515-1.739 0-4.701.258-1.546 9.983-18.097 9.403-16.164 9.79-21.188.321-2.254-1.289-4.508-18.87-25.116-24.86-34.326-15.328-23.57-18.741-40.122l-1.674-6.44q-.773-3.22-.387-6.311.258-2.125 4.058.773 3.284 2.447 5.216 5.023l7.342 18.548q7.278 18.547 12.752 25.953 8.115 11.013 16.552 17.453 2.834 2.19 7.47 2.125l7.15-.901q7.148-1.288 19.127-16.938 11.593-15.199 12.752-23.506.387-2.898-.322-6.44-.708-3.414-1.803-4.573M125.072 194.943l-3.929-.773q-2.318-.129-3.993 1.095-3.8 2.769-8.566 10.819-2.318 3.993-3.928 7.47 1.417-7.792 3.928-13.266 2.512-5.667 5.668-7.664 2.447-1.61 9.145-1.417 6.763.13 8.695 1.997 5.216 5.087 18.226 19.256 14.426 15.714 15.521 18.096 1.288 2.834.773 5.153-.322 1.61-2.705 6.762l-1.16-5.346q-.45-1.932-37.675-42.182M136.02 179.873q-3.542-3.671-3.67-6.505-.13-1.996.579-4.38.773-2.897 2.318-4.765 4.895-6.054 15.972-11.914 9.79-5.217 18.806-7.6-7.792 3.478-19.45 12.752-14.04 11.206-14.04 17.388 0 3.607 2.834 7.535l2.383 2.898-5.732-5.41M73.227 132.538q.386 1.352 2.962 4.315l5.54 6.182 16.229 17.453q8.952 9.402 9.21 10.24 1.03 2.833 0 6.44-1.031 3.413-2.963 4.572-1.997 1.16-6.698 7.278-4.766 6.311-6.891 10.82l3.993-8.824q4.83-9.853 8.887-15.199-12.365-16.55-22.798-27.563-2.448-2.512-4.573-6.312-2.898-5.216-2.898-9.402M301.924 334.564l2.125-4.765 2.834-.515q4.508-1.482 12.494-6.57-11.077 22.927-11.27 24.86-1.74 3.026-1.546 10.11.193 6.891 1.739 8.437l13.074 11.077-8.888 8.501-12.044-10.497-4.508-11.721q-4.701-12.88-5.603-18.806l3.027-.322q1.997-.837 3.156-1.932 2.77-2.64 5.41-7.857"/><path fill="#0090c6" d="M329.553 312.99q4.444-4.057 7.342-11.27l1.996-6.44 3.865 3.606q4.057 4.122 5.152 6.827 1.417 3.413 1.996 7.148.58 3.864-.193 4.96-1.16 1.416-7.277 1.416l-12.881-6.247"/><path fill="#6eb3cd" d="m253.428 394.522-.387 5.603-5.474.386q-4.315.13-3.993-.837l5.925-2.64q2.963-1.546 3.929-2.512M320.987 122.878l-.257 3.542-.773 5.989-4.444-1.03 5.474-8.501M253.106 219.286l4.508-6.247q3.156 1.675 6.054 2.705l-4.508 6.698-6.054-3.156"/><path fill="#fff" d="M117.536 182.32q-3.284-3.67-3.993-7.728-.58-3.671 1.03-4.702l4.574-.257q3.22 1.03 6.182 4.508 2.64 3.156 3.35 6.569.643 3.284-.838 5.152-1.03 1.288-3.929.58-3.413-.773-6.376-4.122M141.688 382.221q-2.319 4.315-5.732 5.732l-4.637.129q-1.546-.966-1.61-4.25-.065-3.414 1.61-6.44 1.803-3.35 4.83-5.153 3.027-1.867 5.152-.708 1.997 1.095 1.932 4.637-.064 3.155-1.545 6.053M296.643 365.67l-5.668-16.808q3.027.901 6.505 3.67 3.413 2.898 4.895 6.827 1.416 3.864 0 5.603-1.417 1.803-5.732.708"/><path fill="#dcdddd" d="M117.536 182.32q-1.094-1.16-2.898-4.959 5.603 6.569 10.176 5.152 4.573-1.417.515-8.372 2.64 3.156 3.35 6.569.643 3.284-.838 5.152-1.03 1.288-3.929.58-3.413-.773-6.376-4.122M141.688 382.221q-2.319 4.315-5.732 5.732l-4.637.129q-1.546-.902-1.417-4.701.064-3.864 1.803-6.956-.708 2.512.837 3.607l3.607.257q5.796-1.803 5.152-8.758 1.997 1.095 1.932 4.637-.064 3.155-1.545 6.053M294.453 359.552q2.705 1.16 3.864-.257 1.417-1.74-.837-6.763 3.413 2.898 4.895 6.827 1.416 3.864 0 5.603-1.417 1.803-5.732.708l-2.19-6.118"/><path fill="#0f141b" d="M261.028 185.282q.257-.322.772 1.224l.516 1.546q-14.17 19.256-21.447 27.692h-1.739q-1.674-.129-1.417-.45 15.006-17.582 23.315-30.012M321.18 120.946q.966.644.709 4.186l-1.095 7.921q-.064.644-2.125-.966l1.03-4.573.451-3.09q.258-1.997-.258-2.32-.58-.45-2.705.774-2.705 1.61-9.21 6.89l-1.48-.386q-1.095-.708-.773-.966 12.107-9.789 15.456-7.47M260.512 222.893l-1.223-.193q-1.095-.451-1.095-.838l4.637-6.955q.708 0 1.546 1.352l-3.865 6.634M240.483 20.995q1.803-4.25 3.993-4.122 2.19.129 3.735 4.701 4.508 13.653 7.471 46.434 3.027 33.36 0 40.444-.773 1.739-7.149 6.118-6.698 4.508-7.986 6.698-.45 1.03-.193 2.833.064.451-.58.644l-.837-.064q-.773-1.03-.966-2.254-.129-1.095.258-1.997.773-1.48 7.342-6.569 6.504-5.023 7.342-6.955 3.027-7.084-.13-40.702-3.026-32.522-7.148-44.5-.902-2.577-1.546-2.577t-1.48 2.319q-.774 2.06-7.343 23.506-6.183 20.35-6.891 21.574l-1.61 2.448-1.997 1.674q-1.996 1.61-3.091 1.675-1.288.064 1.481-2.963l3.156-4.766 6.698-20.737q6.376-20.35 7.47-22.862"/><path fill="#0f141b" d="M209.247 60.795q9.596-9.21 24.667-15.328l-.516 3.414q-13.331 5.86-21.897 14.103-11.721 11.27-17.453 26.276-4.122 10.755-4.122 19.707 0 2.834.644 3.478l2.77.193 19.127-3.671q.515-.064 2.834.773l1.868.966-13.01 2.447-11.142 1.481q-2.898.258-4.057-.58-1.095-.837-1.353-3.284-.772-8.372 3.027-20.286 5.54-17.131 18.613-29.69M421.843.064q4.573.13 4.96 1.095.45 1.03-3.35 4.186-18.999 15.585-31.686 38.641-7.471 13.589-16.423 19.771-10.562 7.278-34.263 13.202-21.51 5.41-27.565 7.407-22.09 7.341-29.303 16.358-.258.322-.065-1.804.13-2.125.516-2.511 8.308-8.566 29.046-14.941l26.856-6.634q22.863-5.731 33.232-13.46 8.244-6.053 15.843-19.9 6.183-11.141 17.067-23.12 9.403-10.368 17.325-16.229Q403.875.644 386.099 20.93q-14.04 15.972-30.076 19.128-8.244 1.61-28.402-.58l-41.283-1.481q-19.192.837-35.1 4.894l-.901-2.64q32.459-7.922 77.541-2.963 20.416 2.19 28.145.58 14.233-3.027 28.08-18.74 7.857-9.017 15.779-13.59Q410.186-.385 421.843.065"/><path fill="#0f141b" d="M423.71 1.03q.645-.064.902.644.258.709-.386.773-11.786 1.61-20.48 9.016-5.153 4.315-21.704 23.571-9.403 10.884-20.867 14.362-10.691 3.284-33.49 2.962-20.48-.322-43.472 4.83-17.132 3.8-29.948 9.016-.386.13-.773-1.223-.45-1.417 0-1.546 12.881-5.28 29.433-8.758 22.219-4.637 44.631-4.315 23.379.322 33.683-3.091 9.79-3.285 19.128-14.04 15.844-18.354 22.542-23.635 8.694-6.827 20.802-8.566"/><path fill="#0f141b" d="m337.99 50.941 1.417.516q.901.515.45.515-22.348.773-49.14 7.857-22.927 6.053-36.13 12.88-.386.193-.322-.902.065-1.094.387-1.223 13.589-6.762 35.615-12.365 25.504-6.505 47.723-7.278"/><path fill="#0f141b" d="m423.131 1.868 1.61.064q.13.644-1.288 1.224-9.79 4.057-23.056 18.934-5.217 5.86-16.359 20.415-9.596 11.206-19.707 14.168-6.57 1.932-30.978 3.478-18.742 1.159-39.286 7.277-20.223 5.99-38.578 15.714-.387.193-.451-.773-.129-1.03.064-1.159 18.42-9.596 38.771-15.585 20.48-5.925 39.35-7.149 23.637-1.48 29.627-3.155 10.433-3.027 20.029-14.233 11.077-14.426 16.165-20.093 13.59-15.006 24.087-19.127M344.688 74.126q.45-.065.644.45.257.58-.193.645l-30.592 5.345q-20.094 3.993-27.436 11.335-.386.386.129-1.417.58-1.868 1.223-2.319 8.824-6.44 27.179-9.66l29.046-4.38"/><path fill="#0f141b" d="M256.004 100.466q-.322.322-.45-1.16-.065-1.48.321-1.867 5.024-4.637 13.01-8.179 7.535-3.349 15.263-4.637l7.793-.708q.644.515-1.996 5.023-9.081 15.585-3.092 30.333.194.45-1.159-.386-1.288-.773-1.546-1.353-2.511-6.89-1.48-15.263 1.03-8.436 5.216-15.263-9.017.966-17.39 4.25-9.53 3.8-14.49 9.21"/><path fill="#0f141b" d="M278.738 107.808q-.064-2.963.645-2.77.708.194 1.416 3.542 1.61 7.535 9.983 12.559 8.63 5.216 27.887 9.789 6.44 1.481 7.535 3.284.966 1.546-1.481 5.474l-11.142 16.036-11.206 15.07q-2.383 2.834-2.705 1.739-.387-1.16 2.06-4.573l20.03-29.173q1.546-2.383.966-3.285-.773-.966-5.281-2.06-19.385-4.573-28.788-10.627-9.66-6.311-9.919-15.005M307.14 174.85q-2.704-1.675-2.125-2.32.515-.643 2.64.58 3.543 1.933 27.115 10.047 4.443 1.61 4.959 3.8.386 1.739-1.932 4.766-6.376 7.534-9.597 12.171-5.925 8.373-4.959 12.816.13.644-.901-1.223-1.03-1.804-.902-2.576.644-4.766 5.668-12.301 1.738-2.576 7.342-9.854 1.545-1.996 1.352-3.09-.129-1.224-2.512-2.126-7.793-2.705-15.65-5.925-8.243-3.284-10.498-4.766"/><path fill="#0f141b" d="M303.985 165.511q.128-.45 1.417-1.03 1.223-.644 1.094-.193l-.515 1.803q-.515 2.06-.58 3.413-.064 2.06-.901 1.61-.773-.386-.837-2.64l.128-1.997.194-.966M307.72 160.81q.064-.45 1.03-.837l.967.128q-.966 9.339 4.315 16.487.257.387-.709.515l-1.288-.257q-3.156-3.735-3.993-7.149-.837-3.22-.322-8.887M319.764 207.694q-.451-5.023.58-4.959.965 0 1.674 5.088 1.223 8.694 4.186 17.453 2.318 6.826 7.02 17.388 9.467 21.446 9.016 39.607-.45 18.29-10.884 31.234-7.921 9.854-20.545 15.263-12.623 5.41-23.25 3.607-.321-.065-.965-1.417-.644-1.352-.258-1.288 9.983 2.383 22.477-2.834 12.494-5.152 20.287-14.876 10.047-12.494 10.627-30.14.515-17.71-8.695-38.448-5.345-11.914-7.277-17.581-3.092-9.08-3.993-18.097M283.182 141.232q-1.867-2.512-1.095-2.705.838-.193 3.35 2.512 3.026 3.284 6.182 8.372 4.315 6.955 7.213 14.877 1.03 2.898.58 3.928-.45.966-1.546-1.546-6.504-14.103-14.684-25.438"/><path fill="#0f141b" d="M306.239 199.901q-.258-.708.129-2.962.322-2.19.45-1.674 3.8 13.524 10.305 26.79 2.898 5.99 11.077 20.416 7.278 12.88 9.919 19.9 3.928 10.497 3.8 21.38 0 .452-.967.452-1.03 0-1.03-.451.322-12.108-4.186-22.412l-9.854-17.839q-6.698-11.914-10.111-18.998-5.668-11.979-9.532-24.602M303.856 212.846q-.129-.386.386-1.481.516-1.16.644-.773 2.126 7.986 6.183 16.873 2.705 5.796 7.728 14.877 14.62 26.276 16.552 43.986 2.19 20.415-11.592 33.875l-1.03-.193q-.645-.451-.323-.773 15.006-14.104 9.918-38.77-3.027-14.747-15.07-37.095l-7.342-14.361q-3.929-8.501-6.054-16.165M285.823 219.093l.837.129q1.03.515 1.16.966l6.247 17.388q6.44 18.419 8.308 24.795 6.247 21.316 5.538 37.481-.837 20.737-13.202 31.75l-1.546.193q-1.288-.129-.902-.45 13.783-11.013 13.654-35.614-.129-15.006-5.281-32.716-1.804-6.247-8.502-25.632l-6.311-18.29"/><path fill="#0f141b" d="m273.844 208.66 1.481 1.03 1.739 1.804q3.091 11.399 7.02 24.086 11.593 37.16 12.945 51.392 2.447 24.15-11.4 36.387l-.515-1.03q-.386-1.096-.193-1.289 11.593-11.012 9.403-33.94-1.481-15.97-12.365-50.876-5.088-16.358-8.115-27.564M255.81 136.337q1.997 3.993 1.933 4.702-.45 6.182-2.64 10.755l-4.573 8.372-6.054 11.592q-1.03 2.061-.837 2.898.128.902 1.738 1.61 5.861 2.512 15.135 3.993.387.064.258 1.16-.193 1.094-.644 1.03-11.593-1.932-16.23-3.929-3.284-1.417-3.67-2.962-.387-1.353 1.223-4.573l6.827-12.043 4.83-8.179q2.06-4.057 2.576-8.565.322-2.447.129-5.86M256.004 205.762q-1.674 2.705-1.417 3.67.193 1.031 2.834 2.126 6.311 2.576 9.918 4.895 4.057 2.576 5.99 5.667-.451 2.512-.773 1.996-1.868-3.155-7.278-6.118-3.027-1.674-8.823-4.057-4.122-1.739-4.766-3.156-.773-1.996 2.125-6.826 2.834-4.573 9.274-12.752.258-.322 1.095.387l.709.901q-4.573 6.054-8.888 13.267"/><path fill="#0f141b" d="M271.203 220.188q-1.223-4.315-.129-4.122 1.095.129 2.512 4.573 1.546 4.959 1.16 10.175-.387 5.088-2.705 11.528-1.289 3.542-2.448 3.993-1.223.45-.193-2.834 2.576-8.114 2.898-13.717.258-4.83-1.095-9.596"/><path fill="#0f141b" d="M259.933 249.168q-3.736 2.448-4.573 1.932-.902-.45 2.319-3.09 7.084-5.733 13.331-7.343.386-.064 0 1.353l-.708 1.481q-3.736 1.481-10.37 5.667M336.83 253.548l13.332.966 12.752 1.932q3.607.837 4.895 2.125 1.352 1.352 1.288 4.508-.13 4.895-1.224 13.975l-1.739 12.236q-.064.451-1.417-.837-1.288-1.352-1.223-1.739 2.64-14.426 3.22-22.154.257-2.898-.58-3.993-.708-.966-2.898-1.352l-11.4-1.546-14.62-1.094q-.45 0-.643-1.482-.193-1.545.257-1.545"/><path fill="#0f141b" d="M374.313 294.25q12.752 11.076 18.742 15.07 6.505 4.378 12.043 9.466 5.668 5.217 6.956 8.244 1.996 4.765 2.64 13.588.709 9.79-1.674 12.687-1.03 1.224-5.088 3.671l-8.823 4.959q-11.27 6.118-13.976 7.986-4.701 3.22-5.796 2.833-1.16-.386 3.027-3.542 5.538-4.186 15.65-9.789 2.962-1.545 8.308-4.443l4.83-3.22q1.74-2.126.709-10.691-1.03-8.05-3.156-13.01-1.353-3.348-7.729-9.015-4.894-4.315-9.725-7.6-4.701-3.09-18.29-14.876-16.165-14.04-24.86-23.7-2.512-2.898-1.481-3.156 1.095-.322 3.993 2.576 10.24 10.305 23.7 21.961M338.44 296.246q-.193-.193.516-1.03.708-.838 1.03-.58l3.736 3.542q3.8 3.8 5.023 6.053 1.353 2.512 2.125 7.729.773 5.474-.386 6.633-1.095 1.095-5.925 1.352-1.03.065-2.898-1.223-1.997-1.288-1.288-1.16l5.28.258q2.641-.193 3.028-.901.386-.709-.451-5.024-.902-4.508-1.932-6.44-1.095-2.06-4.573-5.86l-3.284-3.35"/><path fill="#0f141b" d="M329.166 314.02q-.45-.193 0-1.159.387-1.03.838-.837 12.043 4.573 21.833 11.077 9.724 6.505 15.328 13.589 2.64 3.349 2.125 4.443-.451 1.16-2.898-1.932-4.702-5.86-14.105-12.43-10.562-7.405-23.12-12.75"/><path fill="#0f141b" d="M358.856 348.733q.838-6.827 5.088-13.91.258-.387 1.03.45.838.837.645 1.224-3.607 6.633-4.315 16.293-.515 7.406.58 14.04.257 1.48-.387 3.735-.58 2.318-1.932 4.508-2.319 3.864-3.22 3.735-.902-.193.901-3.864 2.77-5.538 2.448-7.921-1.74-11.657-.838-18.29M355.443 327.223q.322-.322 1.16.386.837.709.515 1.095-8.437 9.66-11.657 18.548-2.641 7.212-3.22 18.483-.194 4.121-.902 4.508-.644.386-.902-3.414-.966-12.622 1.997-20.544 3.091-8.5 13.01-19.062M318.669 322.457l1.932-1.095 1.481-.193-5.667 11.785-6.763 14.426q-.966 2.254-.58 5.732.387 3.8 2.19 6.054 3.156 3.735 14.877 14.04.323.321-.58 1.094-.9.837-1.223.515-11.721-10.046-14.941-13.91-1.675-1.997-2.319-7.02-.644-5.152.515-8.05l5.99-12.816 5.088-10.562"/><path fill="#0f141b" d="M343.013 348.282q.258-.45.322 1.288.129 1.739-.257 2.254-7.986 12.88-17.84 23.442-10.37 11.141-20.61 17.195-.386.258-.579-.966-.258-1.16.129-1.417 9.016-5.28 21.124-18.934 9.854-11.141 17.711-22.862M385.455 377.713q2.319-1.932 4.25-6.697 1.868-4.315 3.994-6.827 1.417-1.61 4.959-4.25l1.417-.322q1.03 0 .708.257-2.834 2.125-4.701 4.83-1.868 2.64-3.8 7.149-2.512 6.054-5.346 8.308-2.06 1.61-6.826 2.704-5.024 1.16-11.013 4.186-6.247 3.092-9.468 6.119-18.612 17.066-28.337 28.594-22.348 26.34-31.494 53.646-.128.515-.45-1.996-.258-2.448-.065-3.156 9.918-27.628 32.009-53.131 13.074-15.07 26.792-25.76 4.572-3.543 10.626-6.634 5.925-3.027 10.627-4.315 4.315-1.223 6.118-2.705"/><path fill="#0f141b" d="M300.571 450.165q-.193.45-.386-1.482-.129-1.867.193-2.447 9.339-16.1 16.101-24.408 13.267-16.293 31.493-26.662 3.929-2.254 4.444-1.932.644.45-1.868 4.83l-3.864 6.376-3.542 1.481 5.41-8.565q-17.582 10.304-34.456 32.458-8.437 11.077-13.525 20.35M237.842 281.24q2.834-2.19 2.834-1.095-.064 1.16-3.027 3.736-9.596 8.307-18.677 19.578-1.352 1.674-1.352 2.254 0 .773 1.803 2.254 3.993 3.284 12.623 8.952 9.145 6.053 18.999 11.785 2.705 1.61 1.868 2.06-.902.452-3.8-1.158-23.185-12.816-31.687-19.707-3.413-2.77-3.477-4.38-.065-1.61 3.09-5.28 3.479-3.993 10.048-9.854l10.755-9.145M268.563 277.376q-2.512-3.284-1.482-3.349 1.03-.129 4.058 3.35 10.562 11.978 12.301 19.448 1.03 4.315 4.38 30.011 5.216 28.659 16.165 52.81 2.19 4.572 1.996 9.917-.193 6.311-3.67 14.62-2.19 5.924-3.35 6.31-1.16.387.709-5.28 2.962-8.888 3.349-14.877.386-5.732-1.61-9.789-10.24-22.67-15.393-48.752-3.929-25.631-5.99-34.519-1.03-4.25-5.28-11.077-2.899-4.572-6.183-8.823"/><path fill="#0f141b" d="M303.405 393.04q-.064-.128.708-1.352.709-1.288.838-.966.901 2.705 3.027 7.406 2.254 5.024 4.186 8.373 2.512 4.315 2.318 8.179-.257 3.928-3.413 9.789-2.705 4.894-4.25 8.5-1.61 3.671-3.736 9.596-2.64 7.213-1.352 47.206.901 29.174 3.09 58.606.323 5.28-1.223 6.504-1.674 1.288-6.182-1.481-11.593-7.149-19.708-15.778-7.664-8.18-11.593-17.002-4.83-10.949-8.5-22.992-3.543-11.527-3.865-16.68l1.224-26.146q1.352-25.117.837-35.872 2.318 3.607 2.383 4.25.58 5.99-.451 27.178-1.095 21.896-.515 30.526.45 6.633 3.8 17.26 3.155 10.304 8.179 21.638 7.47 16.874 29.368 31.428l3.091 1.803q.709-.128.387-4.057l-1.868-27.242q-1.803-30.719-1.803-50.876 0-10.498.515-16.81.58-6.761 1.932-11.591 2.447-8.308 7.535-18.934 2.447-5.153 2.705-8.695.258-3.348-1.417-6.633-1.481-3.027-3.8-8.823l-2.447-6.311"/><path fill="#0f141b" d="M290.846 459.825q1.482-6.376 2.383-6.569 1.095-.322 2.319 7.213l2.705 14.748q2.383 13.717 2.64 18.87l-.837 1.352q-.837.901-.902.45l-5.796-37.223q-.966 4.186-2.447 16.68-1.417 12.043-1.804 19.127-.386 7.213-.644 26.984-.193 13.653-1.03 14.812-1.932 2.705-9.08.193-.452-.128-1.225-1.61-.772-1.48-.322-1.352l5.41 1.546 3.542.064.13-18.548q-.065-19.127.321-22.798 2.19-23.12 4.637-33.94M261.285 369.341q.258-.386.709.902.45 1.223.193 1.61-9.983 15.842-7.278 35.485 1.675 12.236 7.6 23.249 2.834 5.28 1.803 5.216-1.095 0-4.38-5.474-8.114-13.202-8.179-28.852-.064-16.873 9.532-32.136"/><path fill="#0f141b" d="M259.482 379.13q.515-2.962 1.288-2.383.708.515.258 3.736-1.16 8.05 2.125 16.808 3.413 8.952 10.111 14.684l9.21 7.792q2.898 3.156 2.834 6.827-.065 4.122-.966 4.637-.902.515-.902-2.963.064-4.315-2.898-7.406l-8.695-7.084q-7.6-6.505-10.948-15.005-3.8-9.532-1.417-19.643"/><path fill="#0f141b" d="M241.32 324.39q-.129-.387 1.675.514l1.867 1.224q1.868 5.088 7.535 18.225 5.668 12.88 8.244 20.094 8.823 24.472 4.186 38.06-.128.387-1.03-1.223l-.902-1.996q3.542-14.426-5.41-37.16-11.85-25.631-16.165-37.739M235.588 331.73q0-.45 1.095-.45 1.16 0 1.095.45-.129 1.418.515 5.797.58 4.637 1.417 7.857.708 2.77.515 4.38-.193 2.382-1.996 5.538-5.153 9.789-6.57 14.554-.966 3.35-1.738 3.542-.709.258-.194-2.962.644-3.542 2.834-9.08 1.74-4.38 3.092-6.892 2.382-4.186 1.416-8.565-1.223-5.088-1.48-10.047v-4.121"/><path fill="#0f141b" d="m187.414 360.132 1.932 2.06q2.255 2.577 2.577 3.671 2.318 7.664 3.606 22.283 1.095 13.01.837 23.442 1.288 8.115 7.02 19.9 5.797 11.786 11.013 16.745 8.115 7.792 16.745 11.399 4.444 1.803 5.281 1.352.838-.515.387-5.023-1.804-24.666-2.19-42.956-.837-34.776 4.702-45.338 1.545-2.77 1.674-4.702.193-1.738-.708-3.22l-1.804-4.057-1.03-3.8q-.065-.45.773-1.03l.901-.129 1.16 3.542q1.03 2.512 2.254 4.444 1.417 2.125 1.288 4.057-.193 2.125-2.19 5.925-5.023 9.532-4.25 45.66l2.125 41.217q.322 5.99-1.675 7.278-1.932 1.288-7.535-1.03-10.305-4.187-17.969-11.657-5.28-5.088-12.43-19.836-6.955-14.361-6.44-18.29 1.095-8.758-.708-26.533-1.932-19.127-5.346-25.374"/><path fill="#0f141b" d="m188.058 328.897 1.095.129q.902.515.644.837-5.216 8.244-3.478 20.029 1.868 12.365 10.627 21.124 1.997 1.996.902 2.125-1.16.129-3.285-1.997-9.016-8.951-10.949-20.35-1.996-11.786 4.444-21.897"/><path fill="#0f141b" d="M191.73 338.815q-.065-3.091.772-4.25.902-1.095.966 3.09.129 6.892 5.668 13.59 5.41 6.568 15.328 12.171 2.383 1.353 3.735 3.478 1.481 2.383 2.383 7.084.902 4.508.322 5.217-.58.708-1.739-3.478-1.352-4.895-2.576-7.149-1.224-2.19-3.156-3.284-12.236-6.827-16.745-12.172-4.83-5.732-4.959-14.297"/><path fill="#0f141b" d="M197.848 338.3q1.223 3.155 1.223 4.121 0 2.383-.773 8.437l-1.352-.193q-1.224-.644-1.095-1.095.902-3.8 1.03-7.149.065-1.738-4.25-9.853-.193-.386 1.352 0 1.546.45 1.804.966l2.06 4.766M197.14 333.727q.128-.45 1.416-.386 1.288.129 1.224.58 0 1.996.193 2.447l1.61 1.61q1.288.966 1.739.966l2.963-2.061 4.121-3.671 1.546.064q1.224.387.902.709l-5.861 4.766q-2.319 1.61-3.22 1.803-1.288.193-3.35-.966-2.06-1.16-2.64-2.319l-.515-1.867-.129-1.675M227.216 400.383q1.61-6.956 3.091-6.698 1.288.193 2.64 6.376l2.126 9.917 1.674 7.728q.13.451-.708 1.675l-.902.708-1.803-8.823-1.868-10.046q-.837-4.122-1.095-4.186-.386-.13-1.159 4.379-1.288 6.569-1.932 19.514l-.708 21.123q-.258 9.982-.773 10.69-.709.967-3.414.838l-5.99-1.095q-.45-.129-1.223-1.739-.773-1.545-.386-1.417l5.474 1.675 3.735.515.13-10.626q-.13-12.365.45-20.093.709-9.403 1.353-13.718.322-2.576 1.288-6.697M236.683 216.646q-.515 0-1.932-1.095-1.481-1.095-.966-1.095 15.585.451 27.05 7.02 8.565 4.83 12.88 11.657.258.386-.322 1.223-.58.773-.837.387-3.929-6.183-14.362-11.593-10.949-5.731-21.511-6.504"/><path fill="#0f141b" d="M213.305 203.766q6.955 0 16.68 6.633 9.532 6.504 14.62 14.361 1.996 3.092.45 3.993l-5.28-.257q-28.725-7.342-35.745-6.183-4.894.837-12.107 6.311-8.18 6.247-14.298 14.942-10.176 14.683-9.79 30.14-1.287-.774-2.511-1.096.129-16.55 9.596-30.268 6.44-9.274 15.65-15.843 7.728-5.474 13.138-6.376 7.278-1.159 20.159 1.61 9.145 1.933 16.68 4.702l2.705.708q.644-.193-.515-1.803-5.088-7.342-14.49-13.138-9.017-5.538-14.942-5.538-3.156 0-9.661 4.25-3.8 2.383-4.96 2.125-1.158-.322 2.255-2.769l5.925-4.057q3.993-2.447 6.44-2.447M178.913 311.573q-5.667-7.277-9.145-16.1l1.417.129 1.416.064q3.478 8.18 8.76 14.877 5.216 6.569 11.012 10.368 10.37 6.956 23.83 9.017 13.524 2.06 28.466-1.095.45-.065.644.773.258.901-.193.966-14.62 3.477-28.917 1.61-14.427-1.997-25.053-9.081-6.634-4.38-12.237-11.528"/><path fill="#0f141b" d="M164.229 273.254q-3.22-2.382-2.254-2.769.966-.386 4.508 1.932 10.562 6.827 37.805 14.49 5.41 1.482 5.86 3.22.387 1.74-4.185 4.187-8.115 4.379-21.382 4.25-12.108-.129-19.708-3.477-3.478-1.482-3.8-2.705-.322-1.16 2.705.193 7.085 3.091 20.738 3.091 14.169.065 20.738-3.478 2.383-1.223 2.061-1.867-.193-.451-2.963-1.095-9.338-1.996-19.45-5.667-13.46-4.895-20.673-10.305M192.309 89.067l1.095-1.224q1.03-.773.901-.322-1.803 6.57-1.803 11.464 0 4.701 1.675 5.41 1.223.515 4.508-1.16l3.67-2.511q.323-.322.13.837l-.516 1.417q-3.413 2.898-6.311 3.928-2.061.837-3.413-.322-1.546-1.352-1.482-6.762.065-5.217 1.546-10.755M200.424 108.13l1.545.064q1.289.386 1.03.773-2.189 2.576-4.958 4.315l-1.932.129q-1.417-.258-.966-.451 2.511-.966 4.122-2.963l1.159-1.867"/><path fill="#0f141b" d="m239.195 73.224-.065 11.914q-.386 8.952-1.61 11.85l-10.626 10.884q-10.24 10.369-13.01 18.676l21.833-2.769q7.535-.837 13.718 3.413 4.315 2.899 6.505 6.827 2.962 5.41 3.8 23.12.966 20.286 2.254 25.18 5.087 19.643 19.385 32.073 5.217 4.508 10.305 6.89 4.443 2.062 6.118 1.353 1.868-.902 4.573-8.565 3.22-8.888 3.027-17.195-.13-5.797.966-5.281 1.159.515 1.223 6.569.193 10.24-3.478 18.547-2.898 6.634-5.474 7.728-2.19.966-7.342-1.159-5.667-2.318-11.464-7.148-15.392-12.816-20.351-33.038-1.546-6.505-2.125-26.018-.451-16.745-3.35-22.026-2.06-3.67-5.345-6.182-5.474-4.122-12.687-3.285l-10.112 1.482-10.82 1.674q-3.67.515-4.186.064-.644-.58.644-3.928 1.932-4.83 7.085-11.013l-1.546-2.704-5.474-.773-10.24-.709-3.156-.58q-.387-.45.708-2.897 5.668-12.172 16.68-21.64 9.275-7.92 20.932-12.88 1.996-.837 2.318-.643.322.193.387 2.19m-2.254 12.429.58-12.559q-9.983 4.25-19.901 12.752-11.98 10.24-17.26 21.574 16.165 1.03 17.968 2.319l1.868 2.19 4.637-4.96 10.498-10.819q.966-2.447 1.61-10.497"/><path fill="#0f141b" d="M226.7 77.861q-.257-.386 1.095-.966 1.288-.644 1.546-.258 1.932 3.414 1.288 7.857-.708 4.702-3.864 7.729-3.671 3.477-8.888 3.8-5.345.321-8.952-2.899-.322-.257.644-1.288 1.03-.966 1.353-.708 3.09 2.705 7.277 2.705 4.25 0 7.213-2.834 2.512-2.383 2.705-6.505.194-3.67-1.417-6.633"/><path fill="#0f141b" d="M224.704 84.044q-1.546-.258-2.64.644-1.289.966-1.224 2.833.064 1.675.901 2.448 1.03 1.03 2.512 1.03 1.417.064 2.383-.902.837-.772 1.03-2.19.194-1.61-.644-2.64-.837-1.03-2.318-1.223m-3.735 6.826q-1.353-1.288-1.289-3.349.13-2.06 1.61-3.349 1.61-1.352 3.672-1.159 1.932.193 2.962 1.481.902 1.095.837 3.027 0 1.997-1.288 3.156-1.481 1.481-3.349 1.481-1.867 0-3.155-1.288"/><path fill="#0f141b" d="M223.545 88.616q-.451-.45-.387-1.03 0-.644.58-1.095l.902-.258q.58.065.966.515l.322.902-.451.902q-.387.45-.966.45-.58 0-.966-.386M230.5 89.969q-1.674.193-2.511 1.352-.902 1.16-.902 2.77 0 1.738 1.095 2.704 1.352 1.16 3.22.902 1.868-.258 2.834-1.932.708-1.224.45-2.834-.257-1.739-1.674-2.576-1.03-.644-2.512-.386m-5.152 4.83q-.129-2.383 1.288-4.186 1.546-1.997 3.8-2.512 1.932-.45 3.478.386 2.06 1.03 2.511 3.414.451 2.318-.901 4.7-1.288 2.384-4.122 2.963-2.77.516-4.573-1.159-1.417-1.224-1.481-3.606M162.426 235.902q.644 1.095.644 3.8-5.925 9.853-8.63 21.059l-.773 2.833-1.675 1.74q-2.19 2.253-3.8 4.7-1.932 3.027-1.867 4.83.129 3.027 2.576 6.827l4.573 6.054.193.515q1.03 7.149 2.962 12.172 2.77 6.955 7.986 12.236-.386 2.318-.837 1.932-5.667-5.216-8.308-10.755-2.77-5.603-4.122-14.941l-4.701-5.86q-3.736-5.281-3.414-8.244.258-3.091 3.993-7.664 2.19-2.576 4.766-4.959 2.77-14.425 10.434-26.275M202.356 209.562q.45-.065-.258.901l-1.223 1.16q-11.271 2.576-20.803 9.53l-2.06-2.06q9.724-6.633 24.344-9.531M152.765 370.758q-.322 1.352.129 3.22.45 1.932 1.417 2.77 5.539 4.7 20.094 12.944l16.294 9.016q3.349 2.06 2.705 4.38-.773 2.575-6.183 2.833-13.074.58-24.28-3.091-5.732-1.868-19.45-8.694l-3.8-.258q-2.705.258-3.478 1.224-18.805 24.537-20.287 25.825l-7.084 6.053q-4.315 3.22-6.118 2.448-1.74-.773-1.353-7.407.322-6.053 1.74-10.046 1.352-4.058 9.08-18.934l7.922-15.006q.193-.386 1.159.516.902.837.708 1.223l-7.6 14.941q-7.728 15.263-8.63 17.968-1.352 3.993-2.06 8.823-.644 4.701 0 5.41.966.322 4.186-2.254 3.22-2.512 5.86-5.539l20.996-25.76q1.03-1.288 4.895-1.739l4.83.193q11.206 5.603 18.484 8.05 13.01 4.444 24.344 3.864 3.35-.128 4.058-.966.773-.901-1.546-2.125-6.955-3.478-15.006-7.986-16.165-9.016-21.897-13.91-1.352-1.16-2.06-4.058-.774-2.962-.194-5.216.58-2.19 15.843-21.639 14.877-18.805 16.101-19.707l3.735-.386q2.834.322 4.058 1.352 2.898 2.448 6.633 3.22l9.79.322 14.233-1.416 2.898.386q2.383.45 1.932.515-6.633 1.417-16.745 2.319l-12.558.386q-3.671-.773-7.6-4.122-.515-.45-2.512-.708l-2.512.064q-30.205 37.997-31.17 40.702"/><path fill="#0f141b" d="M102.852 174.463q.838 1.095.966 3.542-7.664 10.82-15.07 27.693-5.474 12.493-9.532 47.463-4.057 35.035-1.352 46.884 4.637 20.416 20.995 46.24 11.4 18.033 22.864 30.977 1.288 1.417 1.417 4.509.064 2.576-.58 3.864-1.224 2.383-2.383 2.576-1.095.193.064-1.804 1.03-1.803.902-4.057-.129-2.254-1.417-3.67-13.331-15.006-23.185-30.334-15.908-24.794-21.189-47.85-2.898-12.751.515-45.66 3.607-34.455 10.498-49.976 8.63-19.578 16.487-30.397M166.097 145.676q3.284-1.61 3.478-2.061.386-.709-4.251-.709l-8.823.902q-6.57 1.03-10.756 2.576-15.135 5.603-25.44 13.782-.836-.193-2.51-1.16 11.463-9.273 27.177-15.005 3.8-1.417 10.434-2.318l9.725-.773q6.569 0 6.89 1.739.323 1.545-4.379 4.25-10.24 6.054-19.965 14.748-10.175 9.21-10.175 12.945.966 5.28 18.87 24.086 18.612 19.513 27.371 22.927 2.77 1.03 2.19 1.739-.644.708-3.671-.387-9.983-3.67-28.917-23.7-18.226-19.256-18.226-24.214 0-5.153 10.755-15.006 10.176-9.402 20.223-14.361"/><path fill="#0f141b" d="M117.987 195.844q-11.592 8.244-17.775 42.44-4.766 26.019-4.508 49.718.257 19.385 15.07 45.017 5.668 9.789 11.593 17.066 5.603 6.891 8.243 7.728 3.092 1.03 4.573.902 1.352-.064 3.735-1.417 2.448-1.417 2.641-.644.193.709-2.576 2.834-1.868 1.417-3.993 1.545-2.19.13-5.152-1.159-3.414-1.417-9.146-8.308-6.183-7.213-11.914-17.002-14.62-25.052-15.457-46.497-.902-25.117 3.735-50.62 6.118-33.681 19.45-43.213.837-.644 4.122-.901 3.606-.258 5.088.644l18.033 19.835L161.91 234.1q2.383 2.125 2.577 5.087.193 2.898-.387 3.607-.644.644-1.03-1.482l-.773-2.769q-.644-1.417-2.19-2.833l-18.162-20.03-17.775-19.448q-1.16-.709-3.285-.838l-2.898.451"/><path fill="#0f141b" d="M163.843 311.509q1.223-3.929 1.932-3.091.708.901-.58 5.216-4.38 14.297-29.626 46.498l-1.674-.065q-1.417-.515-1.095-.837 13.396-17.195 20.738-28.336 8.05-12.172 10.305-19.385M81.406 129.64q5.796 2.576 9.918 5.86l14.684 13.138q11.142 9.725 15.586 10.626 3.22.709 2.512 1.353-.709.708-4.315.064-4.058-.708-15.457-10.433L89.585 137.24q-3.8-3.091-8.759-5.603-5.216-2.64-6.311-1.803-1.095.837.193 5.152 1.224 4.186 3.35 7.535.9 1.546 13.588 16.422 11.98 13.975 12.752 16.358 1.417 4.637.709 5.41-.773.837-2.061-3.027-.58-1.803-2.383-4.315l-12.108-14.104L75.61 143.68q-1.932-3.22-2.963-8.372-1.03-5.41.322-6.89 1.74-1.74 8.437 1.223M154.053 297.34q.193-.45.837 1.289l.451 2.06q-6.376 11.528-14.04 30.205-7.47 18.29-9.982 28.272l-1.61-.13q-1.417-.579-1.353-1.03 5.925-23.055 25.697-60.665M117.15 373.785q.45-.065 1.288 1.223.837 1.288.387 1.353-5.926 1.095-11.593 3.156-8.501 3.026-13.718 7.212-3.027 2.448-2.963.966.13-1.416 3.35-4.25 7.792-6.762 23.249-9.66"/><path fill="#0f141b" d="m115.669 375.137 1.867-.064q1.546.193 1.224.515-2.962 2.898-5.152 6.311-.966 1.417-4.83 8.18l-2.512 3.67q-1.224.902-5.99 2.254l-9.531 2.898q-7.342 2.448-11.915 4.96-7.664 4.185-30.14 37.159l-27.694 41.41q-4.122 5.603-6.44 5.28-2.062-.321-3.543-5.538-3.671-12.43-4.508-22.218-.773-9.854 1.03-19.836 1.417-7.857 8.308-23.893 6.763-15.714 10.37-20.093 9.853-10.11 15.392-16.873 9.918-12.236 14.748-27.693l.193 1.868.065 2.64q0 7.407-12.237 23.636-8.759 11.528-15.457 18.032-2.898 2.77-10.562 20.995-7.342 17.26-8.115 21.768-3.349 18.29 3.414 41.088 1.094 3.542 1.738 3.735 1.03.257 3.543-3.993 9.531-16.358 25.954-40.122 23.572-34.197 32.846-39.285 8.244-4.572 21.382-8.372 3.864-1.095 5.474-2.512l2.254-3.22q5.153-9.145 8.824-12.687"/><path fill="#0f141b" d="M83.403 319.108q.45-.064.708.902.258 1.03-.193 1.095-9.017 2.06-17.325 13.588-10.176 14.104-10.498 33.618-.064 3.735-1.03 3.22-.966-.515-1.03-4.508-.13-20.158 10.433-34.197 8.566-11.335 18.935-13.718M86.945 327.416q.837.708.515 1.03-8.372 9.532-9.79 24.344-.515 5.603.58 20.608.258 5.024-3.349 8.823-2.447 2.705-3.928 3.092-1.482.322 1.481-3.478 1.546-1.996 2.447-4.25.902-2.319.773-4.058-1.803-13.524-.837-21.574Q76.51 337.59 85.85 327.03q.322-.322 1.095.386"/><path fill="#0f141b" d="M91.131 335.015q.386-.193 1.095 1.224.708 1.417.322 1.674l-15.135 8.952q-.386.193-.644-.902-.322-1.094.064-1.352l14.298-9.596M55.773 413.971q7.15-5.087 8.63-4.186 1.417.837-2.447 6.376L48.69 436.254q-14.04 21.96-18.29 30.913l-2.32.386q5.41-11.592 16.553-29.238 10.047-15.972 15.843-23.12 2.125-2.576 1.352-2.383-.515.064-3.735 2.19-8.501 5.731-20.48 18.998-12.044 13.331-20.223 26.082-1.417 2.255-2.512 3.027l-1.481.451q-1.417.129-3.607-1.61l-2.318-2.254q-.258-.386.129-2.318.45-1.997.708-1.61 3.864 5.474 4.702 5.667.58.193 2.511-2.898 7.986-12.365 13.847-19.643 11.915-14.554 26.405-24.923M99.31 311.38q1.74-19.642 3.864-29.947l2.383 3.607q-2.833 14.233-4.508 30.01-.064.452-.902-1.416-.901-1.803-.837-2.254M133.315 225.211q2.898-1.674 5.217-1.867 2.383-.194-3.156 3.22-7.406 4.572-13.202 13.202l-3.994 1.03q6.698-10.69 15.135-15.585"/><path fill="#0f141b" d="m98.215 252.195-1.61.902.58-3.929 1.224-.58q7.084-3.412 15.714-6.89 8.695-3.542 15.328-5.732 4.96-1.61 4.637-.386-.386 1.159-5.539 3.091-15.392 5.732-30.334 13.524M108.778 287.165q2.511 3.8 1.48 3.864-1.03.065-4.121-3.8-4.959-6.31-11.206-18.16l.45-6.183q5.861 12.945 13.397 24.28M68.01 204.538q7.02 5.99 17.518 5.152l-.58 2.448q-6.698.386-11.979-1.74-4.38-1.738-7.084-4.765-2.576-2.962-1.803-3.413.772-.386 3.928 2.318M135.054 205.504q.644.258 1.16 1.868.58 1.546.128 1.288-6.762-4.701-28.08-1.095l1.74-3.284 12.816-1.16q6.633.194 12.236 2.383"/><path fill="#0f141b" d="M18.226 189.855q-5.474-2.834-13.138-4.766-4.315-1.095-4.895-2.254-.837-1.481 3.156-4.057 9.21-5.796 21.833-4.25 13.847 1.738 27.758 11.27 14.168 9.66 23.507 24.021.258.387-1.095.451-1.288 0-1.546-.386-8.372-12.687-22.154-21.768-13.718-9.016-27.114-10.69-11.528-1.417-19.128 2.769-2.447 1.417-2.383 1.867.064.451 2.963 1.224 9.08 2.318 13.846 4.701 7.471 3.736 12.817 10.626 3.67 4.83 7.342 11.27 2.318 3.994 6.182 11.722 7.793 15.198 12.688 21.123 8.243 9.854 19.579 11.915.064 2.254-.58 2.19-12.172-2.255-20.674-11.98-5.41-6.182-13.138-21.38l-6.054-11.98q-3.8-7.019-7.278-11.527-4.765-6.183-12.494-10.111"/><path fill="#0f141b" d="M43.988 221.733q-.451-.644-.709-3.09-.257-2.512 0-1.933 4.315 9.982 15.586 19.063 10.626 8.63 20.287 10.948.45.129.193 1.03-.322.902-.708.773-10.756-2.447-20.03-9.789-8.759-6.955-14.62-17.002M124.492 174.85q-2.705-3.156-5.603-4.122l-3.735.064q-1.16.773-.58 3.864.708 3.542 3.735 6.956 2.448 2.704 5.281 3.67l3.414-.128q1.159-1.482.58-4.315-.645-3.027-3.092-5.99m-4.637-5.796q3.542 1.16 6.312 4.38 2.898 3.413 3.349 7.534.45 3.607-1.16 5.346-1.739 1.803-5.345.708-3.478-1.03-6.312-3.928-3.735-3.993-4.25-8.437-.451-3.993 1.738-5.345l5.668-.258M140.722 381.706q1.352-2.576 1.417-5.474.128-2.962-1.353-3.735-1.674-.902-4.25.773-2.641 1.674-4.251 4.637-1.417 2.704-1.417 5.731 0 2.834 1.03 3.542l3.993-.193q2.705-1.352 4.83-5.28m-10.368-4.895q2.318-4.186 5.925-5.668 3.091-1.223 5.345-.064 2.126 1.095 2.512 4.701.322 3.542-1.481 6.956-2.254 4.314-5.99 5.796-3.22 1.288-5.538-.065-2.061-1.223-2.19-4.959-.193-3.67 1.417-6.697M295.226 331.151l1.481.129q1.288.45 1.03.837l-6.182 10.24q-.258.386-1.03-.258-.838-.708-.645-1.094l5.346-9.854"/><path fill="#0f141b" d="m295.741 341.391 1.868-.129q.193.773-2.061 2.705-1.095.837-2.125.644-1.675-.322-4.251-3.091-.258-.322-.451-2.061-.129-1.739.129-1.417l3.22 3.285q.773.772 1.675.708.708 0 1.996-.644M300.765 377.005l-.323-1.868q-.257-1.867 0-1.61l12.688 11.592-1.481 1.546-10.884-9.66M291.877 350.343q-.387-.129-.644-1.288-.322-1.16.064-1.095 4.122 1.03 7.02 3.542 3.736 3.091 5.152 7.535 1.353 4.25-.386 6.44-.837 1.095-2.77 1.481l-3.864-.193q-.45-.129-.193-1.224.258-1.094.644-.901l2.834.45q1.546-.064 1.997-.643 1.03-1.288-.322-4.766-1.482-3.67-4.638-6.311-2.64-2.126-4.894-3.027M256.906 137.24q.386.192.193 1.738-.129 1.481-.58 1.288-10.175-4.057-19.385-5.023-5.925-.644-10.498.064-5.152.773-6.054 1.546-.966.772 2.19 1.738 6.505 2.061 13.847 5.024 11.206 4.572 17.26 8.758l-.322 1.353q-.58 1.223-.966.966-6.247-4.315-17.132-8.952-6.955-2.898-13.01-4.894-5.28-1.675-4.7-3.929.579-2.512 8.951-3.8 14.362-2.06 30.206 4.122M279.19 397.227q-.902-1.932-.194-2.447.709-.451 2.383 1.996.644.966.773 2.19.129 1.159-.387 1.288-1.03.193-2.576-3.027M235.524 274.865q1.674-3.543 2.705-3.8.966-.322-.258 2.898-1.481 3.67-3.156 11.463-.129.644-1.739 1.417-1.674.773-1.545.322 2.06-8.243 3.993-12.3M254.587 386.73q.322-.323.193 1.223-.128 1.481-.515 1.868l-4.38 3.349-4.958 3.477q-1.417 1.03-1.417 1.675.064.773 1.996.837l7.793-.708q-.45.128-.193 1.352.258 1.16.644 1.16-5.152.514-8.888.192-3.027-.257-3.22-2.125-.129-1.739 2.512-4.057l10.433-8.244"/></svg>