<svg xmlns="http://www.w3.org/2000/svg" width="342" height="383" viewBox="-0.654 -0.467 341.659 382.709"><path fill="#d4edfa" d="M313.219 50.156q-3.456 8.36-7.145 12.095-2.382 2.382-6.865 3.596-4.437 1.215-8.78.748-1.448-.14-3.83 1.728-2.1 1.68-4.67.934-2.568-.794-5.51-4.624-2.849-3.69-2.849-5.79 0-1.262.747-2.336l1.775-1.914q-.28-.374-7.145-4.203-5.744-3.223-6.118-6.258-.373-3.316 1.915-5.931 2.382-2.755 6.445-3.363-.7-1.12-3.036-1.727l-4.436-.514q-3.41 0-8.593-2.989-4.39-2.522-5.277-1.728-7.332 6.024-10.928 7.519-5.651 2.335-12.843.233-1.681-.513-5.184 1.261-4.296 2.195-9.573 2.335-2.475.047-5.137 1.822-2.522 1.634-2.242 2.428 2.288 6.631 1.121 10.414-1.168 3.55-5.838 5.464-2.148.887-2.008 3.456.234 3.035-.513 3.783-8.453 8.826-20.362 11.768-10.227 2.522-17.886 0-4.016-1.354-2.475-5.324l1.26-2.615q.515-1.167 0-1.214-8.592-.7-19.66 2.382-10.087 2.848-16.345 7.005-3.876 2.568-3.97 6.538-.046 2.101.608 5.23-.094 1.401-9.574 11.208-8.64 8.92-12.422 12.142-2.849 2.382-4.484 2.522-1.307.093-3.642-1.494-3.643-2.476-4.764-2.569-1.307-.14-2.008 2.288-3.642 12.423-7.565 17.373-4.717 5.93-14.29 7.892-1.401.28-3.316 2.195l-4.11 4.437q-6.771 6.865-16.065 9.994-3.082 1.027-4.81-.748-2.382-2.335-3.222-2.521-2.522-.514-6.305 2.428-4.016 3.082-4.81 3.082-7.005-.187-10.507-3.596-3.41-3.315-4.11-10.18-2.055-19.288 6.678-26.48 1.354-1.12 7.192-4.436 4.063-2.335 5.37-4.95 1.261-2.475-6.117-5.51-8.873-3.69-9.76-4.858-2.102-2.708 4.576-14.15Q16.86 72.34 26.48 63.98q6.491-5.604 18.12-8.733 11.675-3.128 16.251-7.005 1.915-1.634 2.382-2.615.887-1.961.14-5.884-.467-2.428 1.401-4.016 1.541-1.261 3.456-1.355l4.577-5.837q5.137-6.071 7.799-7.425 10.554-5.324 26.012-4.764 19.053.747 31.102 11.769 3.316 3.035 9.947.793 5.51-1.868 8.173-4.81l1.728-5.417q1.681-5.324 4.903-8.313 4.11-3.782 11.208-5.697 7.332-1.915 21.015-2.662 10.321-.56 16.672 3.222 2.522 1.542 6.072 5.745 1.54 1.774 5.417 2.194 2.148.234 8.733.094 3.082-.094 10.18-3.643 7.66-3.782 10.321-4.25 2.475-.42 6.398.608l8.593 2.381q3.222.794 3.55 4.203l.233 2.102q.233.934 1.214.84 4.483-.373 12.189 3.316 8.266 3.923 9.293 8.033-2.522-.514-5.51 3.035-3.13 3.643-1.215 6.351 1.448 2.055 12.142 2.429 12.33.467 15.225 1.588 2.708 1.027-.981 9.9"/><path fill="#83cef2" d="M273.243 68.836q.7-2.989 2.802-4.763 2.99 3.83 5.885 5.184 1.634.747 2.802.373.7-.233 1.868-1.26.794 2.474.093 4.903-.747 2.522-2.849 3.736-2.568 1.54-5.464.747-2.942-.794-4.483-3.41-1.354-2.38-.654-5.51"/><path fill="#83cef2" d="M286.6 68.37q1.26-1.075 2.148-1.402 1.494 2.475 1.868 5.65.42 3.597-.794 7.24-1.494 4.576-30.495 36.753-2.709 2.101-6.352 1.68-3.362-.373-6.257-2.708-2.943-2.288-4.11-5.464-1.214-3.502.233-6.771 2.476-5.604 10.788-18.634 9.247-14.57 14.57-20.128 2.382-2.428 6.118-3.222.608 1.308 1.728 2.709-2.101 1.774-2.802 4.763-.7 3.13.654 5.51 1.541 2.616 4.483 3.41 2.896.794 5.464-.747 2.102-1.214 2.85-3.736.7-2.429-.094-4.904"/><path fill="#fff" d="m309.856 170.643-3.455 1.4q-.56.281-1.448 3.13-.794 2.708-.934 4.203-.14 1.54.093 5.557.28 4.297.7 5.23 2.382 5.371 7.8 9.014 5.183 3.549 9.76 3.362.887-.047 3.41-3.456 2.147-2.942 4.856-7.472 3.83 3.736 4.67 10.741.794 6.538-1.26 13.59-2.102 7.145-6.305 11.722-4.577 5.044-10.274 5.23l-1.588-.14q-3.41-.654-4.95-4.857-1.261-3.409-1.121-8.733-6.865 6.772-19.288 5.651-13.122-1.214-19.1-10.74-7.425 11.067-17.84 15.27-11.534 4.67-24.05-.467-4.343 6.632-10.835 8.453-7.145 2.008-13.216-3.222-2.195 7.705-10.087 12.188-7.752 4.437-13.823 1.775-5.838 9.994-16.766 12.562-12.609 2.99-26.292-6.21-2.662 9.853-7.752 17.138-6.725 9.62-14.898 9.574 2.009 5.51 1.355 9.713-.654 4.344-3.97 6.071-1.307.7-2.849.888-9.153 1.12-17.092-7.379-8.36-8.966-7.519-21.108l5.838 2.848q1.541.7 6.118-1.214 4.763-2.008 6.07-4.203 1.122-1.821 1.075-8.266-.047-6.211-.934-9.153-.607-2.148-2.382-4.904-2.148-3.315-4.39-4.95-.747-.56-6.444-.14l1.26-1.961q-3.689-20.035-2.288-41.517 1.822-28.814 12.983-47.167-8.033-6.632-5.79-16.299 2.147-9.386 11.861-13.73-4.296-5.323 5.324-12.655 9.153-7.005 20.08-8.406 4.017-.514 4.811.607.607.84-.654 2.522-1.774 2.568-3.269 6.164-1.447 3.41-1.774 5.79 12.749-1.494 20.08 5.231 7.613 6.959 4.344 18.54 16.252 9.247 28.347 31.663-1.494-12.843 1.494-25.592 2.99-12.702 9.527-21.202-10.04-4.296-9.713-14.15.373-9.854 10.834-15.364l-8.173-3.503q-5.277-2.475-6.397-3.409-1.261-1.12 4.343-3.736 5.93-2.755 13.31-4.063 20.921-3.69 26.338 8.827 6.632.934 11.302 4.343 4.81 3.549 6.07 8.733-.746 1.4-1.774 4.016-1.12 2.802-1.12 3.55-.094 6.023 6.117 9.853 6.305 3.876 11.115.187l1.354-1.261q13.823 9.106 25.078 23.49 10.928 13.963 15.411 27.553l8.686 4.25"/><path fill="#83cef2" d="M309.856 219.398q-.14 5.324 1.121 8.733 1.495 4.203 4.95 4.857-3.175 9.386-10.367 17.98-7.519 9.012-17.606 15.037-.047 9.854-1.401 16.672-1.354 6.911-3.456 7.565-2.662.84-8.032-4.063-4.857-4.436-10.321-11.862l-8.733 1.261q1.915 27.74 2.755 52.678 1.214 34.325-.327 47.214-.56 4.764-3.082 5.51-2.335.748-5.464-2.38-5.93-5.932-27.413-34.7l-33.017-44.925q-4.623 2.335-10.554 4.063.093 19.848-2.475 21.155-1.588.794-8.22-4.997-5.93-5.137-12.936-12.889-11.581.047-23.07-2.522-10.647-2.475-18.913-6.631 3.316-1.728 3.97-6.071.607-4.156-1.355-9.714 8.126.047 14.85-9.573 5.185-7.332 7.753-17.14 13.73 9.2 26.339 6.212 10.881-2.569 16.765-12.563 6.025 2.662 13.777-1.774 7.892-4.483 10.087-12.189 6.071 5.23 13.216 3.222 6.538-1.821 10.882-8.452 12.469 5.137 24.004.467 10.414-4.203 17.84-15.271 5.977 9.526 19.1 10.74 12.422 1.121 19.333-5.65M104.002 249.333q.887 2.942.887 9.153.047 6.445-1.074 8.266-1.308 2.148-6.025 4.156-4.623 1.962-6.164 1.215-21.015-10.788-21.482-12.33l-2.942-6.77q-2.242-4.718-2.102-5.698.14-.747 5.604-2.942l7.893-3.036q1.447-.654 9.9-1.448l8.686-.467q2.289 1.635 4.39 4.95 1.728 2.71 2.429 4.95M304.953 175.173q.887-2.849 1.448-3.13 1.26-.606 7.238-2.474 6.818-2.148 9.293-2.382 3.036-.327 8.36-.14 6.911.28 7.612 1.634.747 1.355-.84 6.725l-2.336 6.959q-1.54 4.203-5.884 11.441-5.184 8.64-7.425 8.733-4.624.14-9.807-3.409-5.418-3.69-7.753-9.013-.42-.934-.7-5.23-.28-3.97-.14-5.511.14-1.495.934-4.203"/><path fill="#d4edfa" d="M310.93 281.93q.327 1.074-.14 2.662-.467 1.587-1.074 1.868-1.12.513-2.568-.514-1.448-.98-1.635-2.148-.093-.794.467-2.289.56-1.54 1.261-1.774.747-.28 2.055.42 1.354.747 1.635 1.775M313.079 297.107l5.977-.187q3.876 1.261 4.857 4.063.56 1.588-.233 4.67-.888 3.456-2.709 4.203-1.588.654-4.577-.326-2.895-.981-4.156-2.382-2.101-2.242-1.728-5.51.374-3.083 2.569-4.53"/><path fill="#83cef2" d="M109.98 249.1q-.795-1.168.793-8.734 1.635-7.799 3.596-7.845 1.168-.047 7.005 3.782 5.79 3.736 5.79 4.344 0 .653-2.24 7.051-2.289 6.538-2.85 7.005-1.167.934-5.884-1.214-4.716-2.195-6.21-4.39M197.963 226.216q-3.83 7.332-5.698 7.612-1.961.327-8.172-4.81-6.072-5.043-6.352-6.771-.327-2.429 2.942-9.34 3.27-7.005 5.464-8.266 1.401-.84 7.986 4.67 6.538 5.51 7.099 7.799.467 1.868-3.27 9.106M211.926 195.814q2.055-.28 9.433 4.25 7.239 4.437 7.286 5.697.093 1.448-2.522 8.78-2.802 7.846-4.343 8.453-1.355.56-7.846-2.662-6.491-3.27-7.332-5.044-.747-1.587 1.401-10.32 2.195-8.967 3.923-9.154M289.168 172.698q1.962-.047 6.258 3.782 4.577 4.063 4.577 6.725 0 2.102-3.55 7.379-3.549 5.277-5.137 5.37-1.167.094-5.604-4.063-4.53-4.25-4.67-5.93-.14-1.635 2.896-7.239 3.269-5.978 5.23-6.024M273.57 132.349q.747-.094 4.157 2.615 3.315 2.708 3.549 3.409.28.794-.607 4.997-.888 4.203-1.401 4.53-.234.14-8.687-5.931-.14-.234 1.261-4.857 1.401-4.717 1.728-4.763M204.874 161.21l-2.382 5.697q-2.288 5.043-2.755 5.277-.514.233-4.016-2.335-3.503-2.569-3.643-3.316-.14-.747 1.588-6.164 1.728-5.464 2.288-5.604.608-.14 4.81 2.989 4.204 3.082 4.11 3.455"/><path fill="#a69bc9" d="M218.884 172.23q1.868-4.39 8.08-1.26 5.136 2.615 17.325-.42 12.936-3.27 22.043-10.368 3.269-2.569 6.07.14 2.85 2.709.094 6.351-7.192 9.574-25.078 14.197-17.98 4.67-25.919-1.074-1.961-1.448-2.708-3.69-.654-2.1.093-3.875"/><path fill="#83cef2" d="M166.44 165.412q.654-.046 4.53 2.99 3.83 3.035 3.876 3.595.093.654-1.775 4.764-1.868 4.156-2.428 4.25-.56.14-4.343-2.476-3.69-2.522-4.063-3.082-.467-.747 1.494-5.37 1.962-4.577 2.709-4.67M97.09 193.433q.327-.187 3.876 2.895l3.596 3.456q.187.56-1.494 5.043-1.635 4.53-2.102 4.624-.514.14-3.503-2.522-2.942-2.662-3.035-3.362-.047-.42 1.167-5.137 1.215-4.81 1.495-4.997"/><path fill="#a69bc9" d="M133.656 220.192q-11.815 3.035-17.092 0-6.445-3.69-4.53-8.5.747-1.868 2.569-2.475 2.008-.607 4.11.7 5.51 3.457 21.808-3.922 16.112-7.285 19.427-14.197 1.121-2.335 3.316-2.989 2.055-.56 3.923.607 1.961 1.168 2.522 3.503.607 2.709-.934 5.93l-1.868 2.803-2.242 2.522q-1.027.98-.747 2.988l.56 3.083q.14 1.961-1.214 2.802L160.37 213l-2.475-1.635q-1.682-.934-2.942-.186-10.415 6.164-21.296 9.013"/><path fill="#d4edfa" d="M105.916 175.5q1.355-6.165 5.884-7.239 3.596-.84 7.38 2.569 4.436 4.016 7.238 12.655 2.568 7.846 1.354 13.17-1.12 5.044-5.23 6.398-4.81 1.588-9.527-3.036-4.343-4.25-6.305-11.114-2.148-7.426-.794-13.403"/><path fill="#a69bc9" d="M114.65 177.18q1.914-.606 4.015 1.495 2.102 2.055 3.55 6.118 1.494 3.97 1.214 7.192-.28 3.362-2.382 4.343-1.821.84-4.343-1.681-2.475-2.569-3.643-6.492-1.214-4.016-.747-7.191.42-3.223 2.335-3.783"/><path fill="#d4edfa" d="M136.178 159.155q4.904-1.401 9.527 2.802 4.483 4.11 6.538 11.535 1.868 6.818.56 12.422-1.447 6.024-5.977 7.192-4.39 1.12-8.5-2.569-4.11-3.642-6.444-10.834-2.242-6.865-1.121-12.936 1.214-6.398 5.417-7.612"/><path fill="#a69bc9" d="M135.991 178.348q-1.074-4.11-.327-7.332.748-3.222 2.896-3.736 2.101-.467 4.343 2.055 2.288 2.569 3.362 6.678 1.028 4.11.28 7.286-.747 3.175-2.895 3.642-2.148.467-4.343-2.008-2.242-2.475-3.316-6.585"/><path fill="#d4edfa" d="M244.336 48.008q1.634.373 3.222 2.288 1.775 2.195 2.195 5.184.467 2.942-2.522 5.604-2.942 2.615-6.491 2.522-2.755-.094-4.53-3.223-1.541-2.755-1.027-4.81.467-1.821 4.063-4.856 3.642-3.036 5.09-2.71M161.07 86.582q1.447.327 2.194 2.896.794 2.615-.187 4.016-1.868 2.709-5.65 2.709-3.55.046-4.203-1.775-.56-1.728 2.755-4.997 3.316-3.222 5.09-2.849M67.575 151.262q0-1.961 1.635-4.53 1.774-2.755 3.736-3.129 2.195-.327 5.137 1.915 3.082 2.382 3.269 4.997.14 2.195-1.821 5.277-2.055 3.316-4.203 3.363-1.915.093-4.81-2.85-2.943-2.941-2.943-5.043M67.435 178.629q1.308 0 2.429.794 1.214.934 1.214 2.335 0 .887-.84 1.96-.981 1.262-2.196 1.262-1.494 0-2.475-.98-.98-.935-1.074-2.383-.047-1.12.84-2.054.935-.934 2.102-.934M22.65 166.346q5.323-.326 12.002 8.266 6.398 8.313 5.137 11.862-1.355 3.69-8.453 8.686-7.379 5.184-11.302 4.67-1.12-.14-2.848-4.856l-2.102-5.698q-.747-1.074-4.763-2.475-3.55-1.167-3.83-3.175-.373-3.363 4.67-9.76 5.651-7.193 11.489-7.52M42.264 216.316q5.744-4.904 8.266-4.764 2.522.14 7.612 9.387 4.81 8.733 4.81 11.021 0 1.168-5.978 5.324-6.164 4.343-8.686 4.483-2.055.094-6.771-3.409-4.53-3.409-6.212-6.07-.7-1.122-.56-4.53.093-3.503.934-4.764 1.635-2.429 6.585-6.678"/><path fill="#c9e8f9" d="M265.164 74.394q4.11-5.23 5.417-3.83 1.355 1.354-2.802 7.659-4.95 7.472-14.523 19.567-9.434 11.862-9.9 11.395-.841-.84-.281-1.961 2.335-4.53 9.994-15.832 7.472-11.114 12.095-16.998M76.495 249.8q.607.887-12.75-2.569l7.286-3.035q7.986-3.082 11.535-3.596-4.81 2.428-6.07 5.65-.842 2.242 0 3.55M329.75 167.747l5.278-.046q5.09.046 4.156.794-3.596 2.895-12.842 7.098l-8.126.467q4.67-.794 8.5-4.25 3.035-2.802 3.035-4.063M199.457 312.238q-.84-1.634 4.25-5.744 5.09-4.156 6.771-1.354 4.857 8.126 17.98 33.344 13.963 26.806 21.435 39.742-47.774-60.617-50.436-65.988"/><path fill="#71b3d2" d="M273.243 68.836q.7-2.989 2.802-4.763 2.99 3.83 5.885 5.184 1.634.747 2.802.373.7-.233 1.868-1.26.794 2.474.093 4.903-.747 2.522-2.849 3.736-2.568 1.54-5.464.747-2.942-.794-4.483-3.41-1.354-2.38-.654-5.51M243.542 109.419q7.005 1.774 19.894-5.37 7.286-4.064 19.24-12.937l-14.336 15.832-9.013 9.667q-4.017 3.082-9.854.84-6.071-2.381-5.931-8.032"/><path fill="#dcdddd" d="M322.419 202.54q1.634-.048 8.219-10.929 3.876 3.736 4.717 10.741.747 6.538-1.308 13.543-2.101 7.146-6.258 11.722-4.623 5.044-10.32 5.277l-1.542-.14q-3.455-.654-4.95-4.903-1.26-3.41-1.12-8.733-6.912 6.771-19.335 5.65-13.076-1.167-19.1-10.74-7.425 11.114-17.84 15.317-11.534 4.67-24.003-.514-4.344 6.632-10.882 8.453-7.145 2.008-13.216-3.222-2.195 7.705-10.087 12.189-7.752 4.483-13.777 1.774-5.884 10.04-16.765 12.61-12.61 2.988-26.339-6.212-2.568 9.76-7.752 17.14-6.725 9.573-14.85 9.526 1.96 5.557 1.353 9.76-.653 4.344-3.97 6.025-1.4.7-2.895.887-9.153 1.12-17.092-7.379-8.36-8.966-7.472-21.061l5.791 2.802q1.541.747 6.164-1.215 4.717-2.008 6.025-4.156 1.074-1.775 1.214-6.912.14-4.623-.467-7.799 22.042-.56 56.974-9.993 30.075-8.126 64.4-21.342 30.775-11.816 53.659-23.21 22.603-11.255 24.704-15.645-1.868 8.546 5.79 15.178 6.492 5.697 12.33 5.51"/><path fill="#71b3d2" d="M309.856 219.118q-.14 5.324 1.121 8.733 1.495 4.25 4.95 4.903-3.222 9.387-10.32 17.98-7.52 9.153-17.513 15.13l-.14 8.313q-4.67-1.26-10.274-.747-6.024.56-10.835 3.036l-1.027-1.168-1.074-1.214-8.733 1.214.887 10.228 1.028 12.469q-13.637-3.55-29.281-.654-19.007 3.549-28.768 15.55l-10.414-14.15q-4.95 2.43-10.554 4.064v4.67q-4.343-1.448-10.18-1.074-5.745.373-10.789 2.335l-2.662-2.662q-11.628.046-23.07-2.569-10.694-2.428-18.913-6.631 3.316-1.681 3.97-6.025.607-4.203-1.355-9.76 8.126.047 14.85-9.527 5.185-7.378 7.753-17.139 13.73 9.2 26.339 6.211 10.881-2.568 16.765-12.609 6.025 2.709 13.777-1.774 7.892-4.484 10.087-12.19 6.071 5.231 13.216 3.223 6.538-1.821 10.882-8.453 12.469 5.184 24.004.514 10.414-4.203 17.84-15.318 6.023 9.574 19.1 10.741 12.422 1.121 19.333-5.65M86.863 259.7q10.133.187 17.98-3.549.14 3.456-.094 6.305-.28 3.175-.934 4.296-1.308 2.148-6.025 4.156-4.623 1.962-6.164 1.215-21.015-10.788-21.482-12.33l-1.401-3.502q9.06 3.222 18.12 3.41M323.446 184.886q9.107-5.977 15.691-14.804-.046 2.149-1.494 6.632l-1.915 5.65q-1.54 4.204-5.884 11.442-5.184 8.64-7.425 8.733-4.39.14-9.34-3.082-5.09-3.316-7.706-8.266 8.126.28 18.073-6.305M126.511 243.028q-3.55 10.928-4.436 11.675-.981.794-4.81-.747-3.737-1.54-6.118-3.596 7.425-.794 15.364-7.332M201.278 217.53q-.093 2.568-3.596 9.2-3.642 6.818-5.417 7.098-1.167.187-4.296-1.868-2.802-1.868-5.791-4.576 11.581-2.289 19.1-9.854M225.796 215.382q-2.569 7.005-4.016 7.612-1.028.42-5.651-1.635-4.483-2.008-7.519-4.11 13.59-2.568 19.988-11.02-.514 2.988-2.802 9.153M296.22 190.91q-3.41 4.951-4.904 5.044-.84.094-4.203-2.802-3.362-2.942-5.09-5.277 10.928.14 17.933-4.25-.374 2.429-3.736 7.286"/><path fill="#b8cdd9" d="M310.323 302.805q2.009 2.101 7.052 2.988 4.623.841 6.211.047 0 1.074-.327 1.775-.467 1.074-1.774 1.915-1.261.793-4.67-.42-2.382-.888-3.736-1.729-1.028-.654-2.756-4.576M309.436 280.996q2.802 1.354 1.821 3.502-.887 1.962-1.82 1.962l-1.309-.467q-1.12-.654-1.914-1.635.84 0 2.101-1.448 1.261-1.4 1.121-1.914M53.425 213.327q1.868.84 6.071 10.134l3.783 9.106-5.604 4.577q-6.305 4.577-9.714 4.577-3.456 0-8.5-5.137L35.12 231.4l-.514-3.55q-.42-3.408.28-2.848 1.168.887 5.51 2.008l6.165.28q2.102-1.4 4.297-5.183 2.708-4.67 2.568-8.78M28.72 167.56q4.81 4.437 8.08 9.668 3.69 5.977 2.895 9.34-.84 3.642-8.219 8.826-7.379 5.184-12.142 5.324l-1.961-6.538q-1.402-4.81-1.915-5.324l3.175 2.522q2.149.84 5.278-.934 3.782-2.148 5.837-10.835 2.102-8.92-1.027-12.048M67.295 152.056q.7 1.074 3.55 2.335l3.642 1.354q.887.187 3.876-1.914 2.942-2.102 3.27-3.13.14 1.869-2.71 5.371-2.708 3.316-3.689 3.316-.794 0-4.016-2.942-3.222-2.989-3.923-4.39M157.006 91.86q3.69-3.596 4.203-5.184 1.962.327 2.382 3.315.327 2.85-1.027 4.577-1.168 1.494-4.624 1.494-3.222 0-4.53-.934l3.596-3.269M249.847 55.807q.093 2.942-3.13 5.79-3.549 3.176-7.378 1.822-1.775-.607-3.222-3.176-1.215-2.101-1.215-3.315 0-2.149 1.448-3.363.7-.56 1.401-.747 0 1.448 1.681 3.036 1.541 1.494 3.13 1.868l4.202-.28q2.756-.654 3.083-1.635M106.523 79.67q3.036-6.257 33.625-9.153-7.566 2.429-13.357 5.09-5.837 2.71-7.892 4.764-1.168 1.121-1.401 3.176-.28 2.475.7 7.145l-16.391 18.306q-7.893 8.033-10.882 7.286-1.634-.374-3.549-1.495l-2.942-1.961q-1.4-1.028-2.288-.467-.794.514-1.401 2.475-2.382 7.425-3.83 11.021-2.802 7.052-4.95 8.593-2.522 1.821-9.2 4.156l-3.222.888q-1.635.42-2.008.84-6.351 7.146-12.142 11.582-7.893 6.118-12.563 5.277-.887-.187-2.942-2.568-1.821-2.055-3.923-1.728-1.494.28-5.464 2.989-3.97 2.755-4.623 2.848-1.915.28-5.697-.747-4.67-1.308-5.698-3.69-2.848-6.444-2.288-9.853.28-1.728 3.643-2.242l9.853-1.167q6.211-.98 11.722.887 5.23 1.821 5.417 4.343.187 2.662 5.978 1.588 6.024-1.12 8.92-5.464 8.032-12.048 14.15-15.084 1.494-.747 1.915-4.25.56-5.09 2.662-9.293 1.494-2.942 5.557-6.398 4.483-3.83 6.351-2.755 2.569 1.494 6.071 2.708 4.203 1.448 6.071.981 2.008-.514 11.722-7.752 9.62-7.239 9.807-8.266.047-.42-1.168-1.775l-2.568-2.895q-3.456-4.483-1.775-7.94M303.599 45.253q11.768-.094 12.095-3.036-.467 5.65-4.063 12.236-3.503 6.397-7.519 9.246-1.588 1.121-5.65 2.055l-7.613.84q-3.596-.093-3.922 1.028-.467 1.635-2.149 1.961-1.54.327-3.222-.42-1.915-.84-4.857-4.296-3.269-3.83-3.129-6.025.14-1.961 1.681-3.455.794-.748 1.542-1.121-7.146-2.942-10.461-5.37-4.297-3.13-4.297-6.586-.093-1.4 2.849-4.016 3.082-2.708 6.164-3.456.327.56 1.401 4.344.794 2.755 2.242 3.455 1.261.56 5.37 2.896 4.157 1.821 7.473.513l16.065-.793"/><path fill="#0f141b" d="M105.403 143.743q2.148-2.661 3.549-3.455 1.4-.794-.794 1.868-12.843 15.878-16.859 41.096-3.923 24.844 1.494 53.985L91.16 239.9q.187-.28-.934-.653l-1.401-.094 1.728-1.681q-5.838-25.312-1.775-51.65 4.157-26.713 16.626-42.078M170.41 144.164q10.04 8.966 15.784 22.323.467 1.12.28 2.521-.14 1.401-.7.374-7.986-14.99-16.86-23.677-9.012-8.78-20.454-12.562-3.035-.981-2.055-1.261.934-.327 3.97.653 11.161 3.69 20.034 11.629"/><path fill="#0f141b" d="M204.034 113.995q3.128-1.68 4.483-1.774 1.354-.14-1.775 1.588-10.694 5.837-16.298 21.809-5.651 15.971-3.176 33.297.374 2.709-.233 2.709-.654 0-1.401-2.616-3.83-13.543 1.914-31.195 5.838-18.027 16.486-23.818M237.938 104.936l4.483 1.12.14 1.401q-3.923-1.167-7.565-1.634-3.27-.42-1.681-.98 1.54-.515 4.623.093M310.464 169.942l-.514.748q-.747.607-1.074.513l-4.484-2.241-3.829-2.102q-4.623-14.197-15.084-27.553-10.928-13.963-25.452-23.444l1.588-1.4q14.15 8.592 25.452 23.023 10.694 13.683 15.598 28.347l3.736 2.008 4.063 2.101M115.677 116.938q1.027.28-1.682.84-12.095 2.522-15.55 13.076-1.495 4.577-.374 9.06 1.167 4.623 4.903 7.752.234.234-.233.794-.514.607-.748.374-4.716-3.13-6.117-8.173-1.355-4.623.373-9.713 1.728-4.997 5.791-8.687 4.297-3.876 9.9-5.043l3.737-.28M155.559 117.638q7.752 7.799 2.848 19.194l-.887.047q-.7-.187-.607-.514 3.55-11.302-3.876-18.073-7.379-6.772-20.969-4.717-2.895.467-2.054-.327.887-.747 3.782-1.214 14.01-2.148 21.763 5.604"/><path fill="#0f141b" d="M134.077 96.81q4.483-.607 5.65.7 1.074 1.168-.747 3.643-1.915 2.662-3.129 6.258-1.214 3.502-.887 5.23l-1.214.234q-1.261-.047-1.261-.374.14-2.288 1.634-5.838 1.541-3.549 3.596-6.397 1.915-2.616-3.456-1.915-7.892 1.027-15.831 5.697-7.892 4.624-9.667 9.294-1.12 2.848.747 4.95.234.233-.7.747-.888.514-1.121.28-2.522-2.802-1.074-6.538 1.914-5.043 10.507-9.994 8.5-4.856 16.953-5.977M200.064 90.645q2.802-.887 3.503-.7.7.187-2.009 1.167-12.002 4.577-12.375 15.318-.187 4.53 2.101 8.36 2.289 3.875 6.305 5.557.28.093-.327.84l-.887.607q-4.297-1.494-6.819-5.79-2.428-4.11-2.241-9.2.14-5.324 3.175-9.48 3.363-4.67 9.574-6.679M217.577 86.816l-1.915-.094q.56-.56 3.035-.98 9.854-1.681 17.84 1.821 8.313 3.596 8.826 10.508l-.7 1.26q-.654.935-.7.608-.748-6.959-8.64-10.882-7.893-3.876-17.746-2.241"/><path fill="#0f141b" d="M228.551 85.882q.14.28-.7.373l-.981-.186q-4.437-11.022-23.864-8.406-6.865.934-13.03 3.269-5.697 2.148-5.79 3.362 1.027.84 6.865 3.456l8.64 3.596q.326.093-.514.654-.84.56-1.121.467-3.176-1.168-9.013-3.783-6.492-2.942-7.752-3.97-2.336-1.868 7.798-5.557 10.275-3.783 19.288-3.97 6.444-.14 11.535 2.102 6.257 2.755 8.64 8.593M84.714 269.134q.047-.327 1.168 0 1.12.28 1.074.607-.98 10.881 7.379 19.8 7.939 8.454 15.971 7.426 4.437-.56 5.744-4.95 1.308-4.343-.98-10.601-.094-.28.607-.56l.84.046q2.475 6.678.934 11.815-1.634 5.511-7.052 6.165-9.2 1.167-17.746-7.706-9.106-9.527-7.939-22.042"/><path fill="#0f141b" d="M138.98 255.59q-4.296 15.038-11.348 21.576-6.958 6.445-15.551 3.736-2.055-.654-2.149-1.26l1.915.046q7.986 2.522 15.411-5.23 7.052-7.332 10.508-20.268.187-.654.467-.7l.7.28q12.376 8.312 25.125 5.79 11.769-2.288 16.999-11.815l.84.093q.654.374.514.654-5.697 10.368-17.139 12.936-12.655 2.896-26.292-5.837"/><path fill="#0f141b" d="M330.03 192.172q-.233-.187.281-.748.56-.56.794-.373 4.904 4.717 5.604 12.375.607 6.865-2.195 14.337-2.708 7.146-7.472 11.956-4.997 4.997-10.18 5.183-7.426.234-7.8-14.103-8.265 6.585-19.847 4.95-11.628-1.634-17.793-10.414-8.313 11.909-19.007 15.551-10.554 3.643-22.556-1.12-5.09 7.378-11.395 8.826-6.305 1.494-12.61-3.27-3.035 8.594-11.207 12.703-7.986 4.016-13.637.42-1.868-1.167-2.008-2.054-.093-.888 1.775.327 5.417 3.455 13.45-.654 8.265-4.25 10.507-12.189.327-1.214 1.261-.374 5.417 4.624 12.095 3.083 6.492-1.541 10.835-8.173.327-.56.934-.28 11.488 4.717 22.323.887 10.834-3.83 18.586-15.41.7-.982 1.308 0 5.464 8.732 17.84 10.32 12.282 1.634 19.38-5.37.7-.701 1.027-.608.327.047.28 1.168-.093 5.884 1.402 9.246 1.774 3.877 5.417 3.736 5.277-.186 9.62-5.137 3.923-4.483 5.931-11.441 2.008-6.865 1.308-13.17-.7-6.771-4.25-10.18M114.089 296.407q8.453 4.203 18.82 6.678 11.161 2.662 22.183 2.662.56.887 2.148 2.101-11.815.28-23.91-2.615-11.536-2.709-21.39-7.799-.28-.14.841-.654l1.308-.373M189.276 298.041q.327-.187.84.7.561.888.234 1.028-5.23 2.615-11.068 4.437l.187-2.289q5.37-1.68 9.807-3.876"/><path fill="#0f141b" d="M317.562 233.501q-3.69 10.321-11.115 18.82-7.892 9.06-19.194 15.132l.748-2.85q9.106-4.576 16.999-14.336 7.191-8.873 10.227-17.933.093-.327 1.26.28 1.168.56 1.075.887M255.684 274.551l8.5-1.12.934 1.68-9.247 1.121q-.327.047-.42-.794-.094-.84.233-.887"/><path fill="#0f141b" d="M254.517 265.07q-.187-2.428.42-1.213.607 1.167 1.074 3.782 2.989 17.42 4.25 54.36 1.307 37.313-.654 53.565-.654 5.417-4.016 6.07-3.176.608-6.865-3.081-6.445-6.445-31.85-40.116-26.245-34.745-32.503-45.72-1.355-2.381-1.214-2.988.186-.608 1.587 1.307l29.889 40.443q30.868 41.376 35.819 46.326 3.082 3.083 4.997 2.149 1.727-.841 2.194-4.857 1.728-14.384.047-55.2-1.167-28.394-3.175-54.826M241.86 260.774q2.756.234 2.009.7l-3.456.281q-6.678-.56-14.757-4.39-7.893-3.782-10.741-7.612-1.121-1.541-.981-2.522.14-.98 1.214.7 2.242 3.55 10.975 7.846 9.013 4.437 15.738 4.997M206.088 251.06q.7-2.007.934-1.354.28.608-.467 2.616-1.868 5.23-6.024 10.694-4.483 5.884-9.06 8.546-2.101 1.214-2.849 1.168-.793-.047 1.308-1.261 4.296-2.475 9.48-9.107 4.857-6.351 6.678-11.301M258.02 264.93q-1.168-2.1-1.075-3.362.093-1.307 1.26.84 5.558 10.182 13.31 18.821 8.126 9.06 11.349 8.033 2.521-.794 3.642-13.824 1.121-13.496-.467-27.973-.233-2.429.374-1.728.607.654.98 3.129 1.915 13.496.981 26.946-.98 14.477-4.716 15.691-4.344 1.354-13.03-8.5-7.285-8.312-12.609-18.072"/><path fill="#0f141b" d="M274.644 252.041q.748-1.54 1.541-1.447.794.093-.046 1.588l-4.25 8.125q-.98 1.588-1.681 1.822-.7.187.233-1.588l4.203-8.5M278.427 251.901q-.98-1.167-.467-1.587.467-.374 1.448.793 2.428 2.943 3.642 5.23.654 1.262.374 1.635-.233.374-1.074-.747l-3.923-5.324M270.255 266.612q-.934-1.868-.374-2.195.607-.28 1.541 1.588 1.308 2.615 9.293 15.691 1.215 1.962.608 2.242-.56.28-1.775-1.681-7.986-13.03-9.293-15.645M285.76 282.49q.233-.187.653.28.467.467.28.654l-2.802 2.195q-1.074.654-1.354.28-.28-.373.654-1.214l2.568-2.195M210.572 253.209q1.68-.374 11.955 12.235 9.714 11.909 13.31 17.98.42.747-2.055 11.955-2.569 11.442-3.83 11.956-1.681.653-11.301-5.978-9.48-6.538-9.62-7.94-.374-5.09 0-21.761.42-18.214 1.54-18.447m11.209 13.59q-8.126-9.947-10.741-12.049-.327 1.868-.56 8.873-.234 6.725-.234 14.384 0 10.367.373 14.804 4.157 4.016 10.975 8.78 6.445 4.436 7.799 4.53.794-1.075 2.615-9.247 1.775-8.126 2.288-13.03-3.736-6.257-12.515-17.045M231.213 310.884q1.681-.42 7.612 4.623 5.51 4.717 7.239 7.332-.234 29.234-1.635 29.608-1.588.42-17.652-21.575-.654-.981 1.214-10.275 1.915-9.386 3.222-9.713m.467 1.307q-.794 1.495-2.055 6.865-1.494 6.445-1.634 11.255l7.799 10.414q6.21 8.033 8.032 9.76.467-2.895.607-13.402l-.046-13.73q-1.775-2.662-6.538-6.818-4.717-4.063-6.165-4.344M249.473 358.425l3.736 6.07q1.167 1.915 1.401 3.13.233 1.214-.934-.748l-3.55-5.417-3.268-4.343v4.904l.233 6.538v.046q0 1.962-.42.841-.467-1.074-.607-3.129-.514-6.491-.514-8.313 0-2.148.654-2.475.934-.467 3.269 2.896M146.172 295.94q-1.915-2.896-2.055-4.203-.14-1.261 1.775 1.588 5.417 8.125 16.812 19.427 11.395 11.255 13.356 10.46.98-.42 1.541-5.79 1.028-9.294.14-30.075-.093-2.615.56-1.962.701.701.795 3.223 1.4 21.529.28 30.915-.654 5.511-2.102 6.258-3.035 1.541-15.27-11.114-10.648-11.022-15.832-18.727"/><path fill="#0f141b" d="M150.702 296.127q-.094-1.261.187-3.83.327-2.989.887-4.063.56-1.12.98-1.074.374.047 0 1.214-.373 1.121-.793 4.483-.42 3.316-.374 4.437.094 1.354-.327.747-.467-.56-.56-1.914M154.952 286.133q-1.728-.14-1.261-.654.467-.56 2.195-.374 1.634.14 4.576 1.401 2.896 1.214 4.016 2.242 1.728 1.541 1.962 2.335.187.794-1.541-.654-1.588-1.308-4.717-2.709-3.316-1.447-5.23-1.587M169.055 296.874q-.654-2.008-.093-1.401.607.56 1.354 2.755 1.167 3.456 2.475 11.302 1.401 8.732.327 9.526-.98.748-5.324-1.26l-4.156-2.195q-.234-.14.093-.654.374-.56.607-.42l4.25 2.194q2.849 1.261 3.643 1.308l.046-.794q0-2.989-1.027-9.9-1.12-7.332-2.195-10.461M119.132 281.042q-.186-.186.234-.7.42-.514.607-.327 1.494 1.308 5.277 3.035 3.97 1.868 6.071 2.102 1.495.187.84.514l-2.1.186q-2.289-.28-5.885-1.914-3.362-1.495-5.044-2.896M140.334 281.463q1.074-1.168 1.215-.607.14.607-.934 1.774l-2.102 2.055q-1.26.98-2.989 1.401l-1.354-.187q-.327-.42.7-.7 1.728-.514 2.943-1.401l2.521-2.335M135.337 263.81q-.186-.187.327-.654.467-.42.654-.233 2.008 2.195 3.082 5.23 1.261 3.41 1.074 7.285-.046 1.168-.467 2.055-.373.84-.326-.373.14-3.69-1.261-7.613-1.261-3.689-3.083-5.697M236.303 230.513l.701.093q.56.374.374.607-1.635 2.569-1.775 3.83-.047.98 1.541 7.565 1.635 6.678 2.102 7.379 1.68 1.12 2.895 1.54 2.288.795 2.288 1.262l-2.288-.187q-2.242-.607-3.643-1.588-.84-.607-2.615-8.08-1.681-7.144-1.588-7.985.187-1.634 2.008-4.436M251.107 230.092q.047-.233.7-.186.655.093.608.373-.233 2.055-1.728 7.332-1.681 5.931-3.362 10.18-.981 2.523-1.868 2.85-.888.326.046-1.869 1.822-4.11 3.69-10.647 1.68-5.838 1.914-8.033M102.274 244.056q1.82 2.848 2.475 5.043.887 2.99 1.074 9.48.233 7.099-.98 9.06-1.449 2.429-6.632 4.297-4.997 1.774-6.912.934-5.37-2.429-10.694-5.184-10.695-5.464-11.302-7.332l-3.456-6.771q-3.175-5.978-3.082-6.632.094-.654 8.08-3.97 3.969-1.634 7.938-3.128 2.522-1.121 10.04-1.541 7.566-.42 8.827.513 2.429 1.681 4.624 5.23m-1.308.841q-2.008-3.269-4.156-4.81l-8.173.234q-7.379.7-9.76 1.728l-6.211 2.475q-6.305 2.522-6.772 3.035 0 .514 2.382 5.838l2.615 6.164q.514 1.121 8.593 5.558 6.912 3.736 12.469 6.304 1.214.56 5.557-1.26 4.483-1.916 5.65-3.83.982-1.635.982-7.846 0-6.07-.888-8.966-.653-2.008-2.288-4.624M109.325 249.52q-1.027-1.401.7-9.387 1.775-8.36 4.344-8.406 1.494-.047 7.472 3.97 5.79 3.875 6.118 4.763 0 .794-2.242 7.519-2.335 7.051-3.082 7.658-1.541 1.261-6.725-1.307-4.997-2.475-6.585-4.81m2.242-8.967q-1.354 6.912-.98 8.126 1.4 1.961 5.837 4.063 4.296 1.961 5.09 1.401.514-.607 2.522-6.305l2.288-7.005q-1.027-1.074-5.884-4.25-5.044-3.222-6.071-3.315-1.308 0-2.802 7.285"/><path fill="#0f141b" d="M113.762 236.35q.467-1.4 1.074-1.448.654-.093.187 1.308l-.42 2.428-.14 2.009q0 1.634-.42 1.447-.468-.187-.561-1.821-.14-2.522.28-3.923M114.976 246.998q-.747-1.401-.467-1.962.28-.56 1.028.841l2.194 2.849 2.522 2.381q1.355.794.747 1.075-.607.233-1.914-.608l-2.242-2.008-1.868-2.568M194.6 208.797q6.912 5.744 7.519 8.173.56 2.381-3.69 9.9-4.203 7.425-6.024 7.752-1.961.327-8.686-4.576-6.818-4.997-7.145-7.286-.374-2.568 3.129-9.9 3.549-7.472 6.024-8.92 1.775-1.027 8.873 4.857m5.884 8.5q-.513-2.102-6.584-7.192-5.978-4.95-7.426-4.81-2.008 1.214-5.043 7.658-2.943 6.305-2.943 8.873l.047.327q.28 1.448 6.118 6.258 5.93 4.95 7.472 4.67.794-.187 2.755-3.129 2.195-3.316 4.017-7.565 1.82-4.157 1.587-5.09"/><path fill="#0f141b" d="M193.76 220.192q.046-1.775.56-1.728.56 0 .56 1.775-.093 3.549-1.914 7.799-.7 1.634-1.355 1.82-.654.14.047-1.4 2.008-4.297 2.101-8.266M193.666 214.541q.934 1.448.42 1.868-.513.42-1.354-.934l-2.522-3.642-3.035-3.737q-1.261-1.26-.514-1.26.747-.047 2.008 1.447 3.69 4.157 4.997 6.258M212.066 196.562q-1.448.653-3.41 8.873-1.96 7.985-1.353 9.526.7 1.495 6.911 4.624 6.071 3.035 7.285 2.708 1.075-.467 3.783-7.705 2.522-6.912 2.615-8.733-.747-1.401-7.378-5.417-6.725-4.063-8.453-3.876m17.793 9.106q.093 1.588-2.756 9.107-3.082 8.172-4.996 8.966-1.728.7-8.5-2.662-6.725-3.362-7.705-5.417-1.121-2.428 1.307-11.348 2.475-9.013 4.624-9.294 2.241-.28 10.087 4.344 7.892 4.623 7.939 6.304"/><path fill="#0f141b" d="M212.02 199.177q-.094-1.635.513-1.868.654-.234.747 1.26l.607 7.006q.234 1.68-.233 1.68t-.7-1.727q-.795-4.577-.935-6.351M214.541 213.467q-.747-1.354-.373-1.681.373-.374 1.167.98 1.448 2.522 4.81 6.445 1.074 1.261.84 1.962-.233.653-1.213-.42-2.943-3.316-5.23-7.286M289.121 171.95q2.102-.046 6.725 3.97 4.904 4.296 4.904 7.285 0 2.242-3.596 7.986-3.736 5.978-5.79 6.118-1.542.093-6.212-4.577-4.717-4.717-4.857-6.725-.093-1.494 2.989-7.425 3.456-6.585 5.837-6.632m10.088 11.255q0-2.335-4.437-6.164-4.203-3.596-5.604-3.55-1.448.047-4.483 5.558-2.942 5.324-2.849 6.818.094 1.308 4.203 5.277 4.016 3.83 5.23 4.063 1.168-.093 4.53-5.043 3.41-4.997 3.41-6.959"/><path fill="#0f141b" d="M289.869 175.78q-.794-1.074-.234-1.261.514-.14 1.261.98 1.12 1.635 1.915 3.737.514 1.447.187 1.774-.374.28-.934-1.074-.841-2.148-2.195-4.156M293.932 185.96q-.094 3.69-.42 4.764-.421 1.634-.935 1.681-.513.094-.28-1.588l.7-5.23q.187-1.821.608-1.681.42.093.327 2.055M302.571 178.535q.094-1.167 1.214-3.97 1.308-3.222 2.382-3.829 1.448-.84 7.519-2.428 6.07-1.541 9.153-1.915l8.126-.373q8.22 0 9.2 1.82.84 1.635-1.168 7.753l-2.568 7.005q-10.835 21.062-13.87 21.155-4.717.187-10.32-3.502-5.979-3.97-8.547-9.667-.467-1.074-.84-5.931-.42-4.623-.28-6.118m4.249-5.837q-.467.467-1.168 2.895-.747 2.428-.84 3.83l.187 4.95q.28 4.81.56 5.417 2.335 5.23 7.612 8.78 4.904 3.315 9.153 3.175 1.261-.373 6.538-8.78 5.09-8.079 6.118-10.88l2.148-6.585q1.682-5.418 1.121-6.445-.56-.887-6.538-1.167-5.417-.28-8.686.046-3.363.374-8.22 1.822-4.576 1.4-7.985 2.942"/><path fill="#0f141b" d="m317.188 175.406 3.083.187q.7.514-1.542.7-4.576.42-10.414 2.336l-2.055.046q-.186-.513 1.448-1.074 4.67-1.588 9.48-2.195M323.96 180.357q.654-1.822 1.074-1.402.374.468-.327 2.382-3.269 9.107-5.93 14.104-.748 1.494-1.449 1.68-.7.188 0-1.167l3.503-7.799 3.129-7.798M333.674 171.063l1.82-.14q0 .56-1.727 1.354-6.351 3.083-6.678 3.27-1.915.98-2.008.373-.094-.607 1.634-1.588 3.83-2.148 6.959-3.269M250.173 144.958q1.355-2.99 4.437-4.577 2.942-1.494 6.398-1.26 8.126.606 10.414 8.359.374 1.214-.327 1.634-.7.374-1.074-.84-2.101-6.912-9.387-7.192-3.082-.094-5.65 1.214-2.71 1.4-3.783 3.782-.607 1.308-1.121.748t.093-1.868M211.552 165.693q-.887-10.181 5.838-14.524 6.304-4.11 14.757-.56 1.495.607 1.541 1.4.047.794-1.447.187-7.8-3.269-13.777.934-6.118 4.343-5.324 13.357.187 1.774-.607 1.4-.794-.42-.98-2.194"/><path fill="#0f141b" d="M271.095 136.552q1.541-5.09 2.008-5.184 1.121-.14 4.904 2.849 3.69 2.942 4.016 3.922.327.888-.654 5.418-.98 4.716-1.821 5.277-.56.373-9.574-6.445-.467-.654 1.121-5.837m6.585-.607q-2.615-2.149-3.736-2.71-.467 1.075-1.401 4.25l-1.12 4.157 3.548 2.522 3.97 2.662 1.027-4.67.607-3.456q-.373-.654-2.895-2.755M195.814 154.018q.981-.187 5.464 3.175 4.483 3.41 4.343 4.156-4.203 10.835-5.557 11.535-.747.374-4.717-2.568-3.923-2.895-4.016-3.69-.093-.56 1.821-6.444 2.008-6.024 2.662-6.164m.42 1.634q-.7 1.168-2.008 5.464-1.307 4.203-1.354 5.23.374.7 2.942 2.616 2.522 1.914 3.596 2.335l2.429-4.904 2.148-5.044q-.794-.84-3.736-2.988l-4.016-2.709M220.706 180.824q-2.476-1.775-3.13-4.904-.653-2.895.561-4.857.887-1.541 2.802-2.008 2.709-.654 6.398 1.214 4.857 2.429 16.625-.42 12.75-3.176 21.903-10.274 1.914-1.495 4.11-1.448 2.007.047 3.315 1.308 1.261 1.26 1.354 3.269.094 2.288-1.494 4.436-7.519 9.994-25.872 14.804-8.173 2.149-15.13 1.962-7.473-.187-11.442-3.082m5.93-9.154q-2.335-1.214-4.156-1.074-1.774.094-2.615 1.495-.934 1.494-.374 3.502.56 2.195 2.475 3.596 7.66 5.557 25.265.98 17.606-4.576 24.658-13.963 1.168-1.54 1.074-3.082-.093-1.26-1.027-2.195-.934-.934-2.289-1.027-1.494-.14-2.848.887-9.06 7.099-22.183 10.414-12.562 3.223-17.98.467M163.124 169.756q2.195-5.044 3.27-5.137.933-.094 5.043 3.128 4.11 3.27 4.203 4.157-3.223 9.527-4.81 9.854-1.541.326-9.2-5.885-.7-1.074 1.494-6.117m-.187 5.277 3.55 2.662q2.988 2.054 3.922 2.428.654-.794 2.102-3.97l1.541-3.969-3.503-3.082q-2.942-2.289-3.922-2.802-.794.887-2.242 4.296-1.448 3.363-1.448 4.39v.047M96.156 199.364l-.934 4.11q.373.653 2.382 2.568l3.082 2.475 1.821-4.343 1.261-4.11-2.802-2.662-3.503-2.895-1.307 4.857m.56-6.585q.747-.467 4.67 2.989 3.736 3.222 3.923 3.782.187.56-1.541 5.698-1.775 5.324-2.568 5.557-.888.187-4.204-3.082-3.222-3.222-3.315-4.11-.094-.233 1.12-5.23 1.215-5.23 1.915-5.604M118.946 208.75q1.68 1.028 4.81 1.074 3.409.047 7.519-1.167 8.359-2.429 16.905-7.752 8.826-5.464 10.928-9.854.747-1.588 2.055-2.569 1.307-.98 2.895-1.12 3.41-.234 5.65 2.708 2.616 3.456.188 8.5l-2.102 3.222-2.568 2.942q-.56.56-.607 1.728 0 1.027.326 2.008.608 1.728.234 3.129-.327 1.354-1.448 2.055-2.148 1.4-4.903-.747-2.242-1.775-3.456-1.074-10.695 6.35-22.043 9.293-12.375 3.222-17.792.093-2.429-1.4-3.83-3.596-1.308-2.054-1.308-4.25.047-3.128 2.802-4.763l5.745.14m12.749 1.401q-9.667 2.756-13.403.42-2.195-1.4-4.016-.373-1.728.934-1.822 3.222 0 1.635 1.168 3.27 1.167 1.587 3.316 2.801 5.043 2.896 16.718-.14 10.788-2.848 20.922-8.826 2.195-1.308 5.137 1.074 1.868 1.541 3.129.56 1.308-.98.607-3.315-.374-1.121-.327-2.429 0-1.868 1.028-2.802l2.148-2.428q1.26-1.635 1.774-2.662 2.055-4.343.047-7.052-1.681-2.195-3.923-2.008-2.382.14-3.549 2.662-2.242 4.717-11.442 10.227-8.64 5.23-17.512 7.8M105.216 174.706q1.821-6.118 6.444-7.192 3.97-.934 8.08 2.802 4.716 4.203 7.518 12.936 2.662 8.08 1.495 13.543-1.168 5.51-5.978 7.098-4.483 1.495-9.247-2.101-5.323-4.063-7.799-12.703-2.335-8.079-.513-14.383m6.771-5.651q-3.502.84-5.043 5.931-1.775 5.744.513 13.683 2.195 7.706 6.865 11.535 4.157 3.363 7.986 2.102 3.923-1.308 4.763-6.305.841-4.95-1.54-12.282-2.616-8.08-6.632-12.002-3.55-3.456-6.912-2.662"/><path fill="#0f141b" d="M114.462 176.527q2.102-.607 4.484 1.494 2.521 2.289 3.97 6.492 1.587 4.623 1.213 8.032-.42 3.55-2.802 4.25-2.428.7-5.23-2.008-2.709-2.615-3.876-6.491-1.261-4.344-.607-7.753.653-3.362 2.848-4.016m3.83 2.802q-1.821-2.008-3.456-1.541-1.588.467-1.915 3.456-.327 2.989.747 6.725.981 3.175 3.27 5.65 2.381 2.522 3.969 2.009 1.635-.56 1.868-3.363.234-3.035-1.308-7.238-1.354-3.69-3.175-5.698M135.991 158.407q4.483-1.307 9.247 2.149 5.604 4.016 8.032 12.795 2.055 7.332.467 13.123-1.68 6.071-6.724 7.379-4.67 1.214-9.154-2.615-4.483-3.876-6.911-11.302-2.522-7.519-.888-13.963 1.588-6.305 5.931-7.566m9.06 4.11q-4.296-3.876-8.64-2.615-3.315.934-4.67 6.21-1.54 5.932.888 13.357 2.241 6.818 6.118 10.368 3.829 3.596 7.892 2.521 3.783-.98 5.23-6.117 1.588-5.417-.373-12.563-2.055-7.238-6.445-11.161"/><path fill="#0f141b" d="M135.15 170.41q1.028-3.27 3.27-3.783 2.428-.514 5.043 2.195 2.615 2.755 3.736 7.145 1.168 4.436.187 7.799-.934 3.175-3.316 3.922-2.428.748-5.137-2.148-2.662-2.802-3.782-7.005-1.168-4.53 0-8.126m3.549-2.475q-1.588.327-2.288 3.27-.794 3.128.233 7.004.98 3.736 2.989 6.118 2.008 2.382 3.876 1.961 1.961-.42 2.522-3.642.514-2.989-.42-6.445-.981-3.783-3.036-6.211-2.055-2.475-3.876-2.055M273.99 60.524q.327-.047.514.84t-.14.934q-3.456.654-5.604 2.849-4.623 4.857-13.356 18.166-8.733 13.31-11.862 20.362-1.308 2.942 0 6.164 1.12 2.895 3.83 4.997 2.615 2.055 5.603 2.522 3.41.514 5.885-1.401 3.082-2.335 15.878-17.466 13.356-15.738 14.337-18.867 2.288-7.098-.934-11.955-.187-.28.467-.7.654-.421.84-.14 4.017 5.883 1.541 13.402-1.12 3.456-14.897 19.52-13.076 15.225-16.158 17.56-2.942 2.288-7.005 1.915-3.643-.327-6.585-2.615-3.036-2.382-4.39-6.165-1.448-4.11.094-7.612 3.315-7.379 11.955-20.875 8.733-13.59 13.45-18.54 1.914-1.961 6.538-2.895"/><path fill="#0f141b" d="m285.852 68.463 1.495-.374q.934 2.849.093 5.417-.84 2.615-3.129 3.97-2.755 1.634-6.07.794-3.363-.84-5.044-3.783-1.588-2.709-.934-5.744.653-3.036 3.175-4.857l.888 1.26q-2.009 1.449-2.522 4.017-.514 2.569.747 4.764 1.354 2.335 3.97 3.082 2.615.747 4.95-.654 2.055-1.214 2.615-3.783.42-2.101-.234-4.11M268.994 97.043q-1.448-1.074-1.355-1.634.094-.514 1.541.513 1.822 1.308 3.877 1.868 1.587.467 1.167.841l-1.961-.047q-1.775-.42-3.27-1.54M262.362 71.638q.047-.327.794-.887t.7-.28q-2.054 12.329 1.075 19.8.887 2.102.28 1.822-.607-.28-1.541-2.335-1.588-3.643-1.868-7.94-.327-4.296.56-10.18M258.626 110.026q-1.354-.7-1.307-1.308l1.354.047q1.728.934 3.923 1.074 1.307.093 1.12.654-.186.56-1.494.467l-1.915-.234q-.7-.186-1.68-.7M250.734 89.524q0-.467.7-1.307.7-.887.654-.56-.467 9.293 1.635 14.897 1.027 2.708.233 2.288-.794-.373-1.588-2.615-.98-2.709-1.354-5.51-.374-2.99-.28-7.193"/><path fill="#0f141b" d="M314.947 50.063q-3.876 8.266-8.313 12.702-4.39 4.39-16.158 4.624-1.074.046-1.962.513-.513.28-1.4 1.074l-2.102 1.635q-1.401.654-3.27-.234-2.848-1.354-5.883-5.137-3.083-3.876-3.083-6.398 0-2.148 2.149-4.203l-2.102-1.074-2.615-1.214q-7.379-3.876-8.593-7.565-1.027-3.176 2.288-7.052 2.149-2.522 5.698-3.222-2.102-1.121-5.884-1.121-2.382 0-5.138-1.121-1.54-.654-4.343-2.242-3.409-2.008-3.922-1.588-7.052 6.632-10.928 8.173-4.857 1.915-12.796.14-2.615-.607-4.717.514-2.148 1.167-3.923 1.728-2.895.934-6.585 1.027-2.054.047-4.343 1.401-1.961 1.168-2.288 1.962 2.382 6.865 1.868 9.947-.654 4.39-6.538 6.771-2.242.934-2.008 3.27.327 3.128-1.074 4.623-8.827 9.2-20.688 11.861-10.088 2.242-18.727-.653-3.41-1.121-3.223-4.017.14-2.008 2.195-5.183-8.406-.56-18.913 2.381-9.807 2.756-15.972 6.865-2.848 1.868-3.222 4.717-.187 1.308.42 4.53l.234 2.195q-.094 1.775-10.368 12.282-8.593 8.733-12.469 12.096-3.129 2.615-4.903 2.708-1.541.094-3.876-1.821-3.036-2.475-4.017-2.709-1.214-.373-1.727 1.448-4.204 14.43-8.126 19.007-4.017 4.67-14.337 6.771-.888.187-2.102 1.261l-2.475 2.522q-3.923 4.39-7.239 6.959-5.697 4.53-12.468 6.771-2.429.84-3.877-.047l-1.774-2.054q-1.401-2.102-3.41-1.822-1.96.28-5.276 2.99-3.27 2.614-4.67 2.614-7.286-.233-10.975-3.502-3.83-3.363-4.577-10.601-1.074-10.274.56-16.159 2.71-9.807 12.797-15.317 6.444-3.503 6.49-5.464.048-2.288-7.938-5.464-3.596-1.401-4.997-2.055-2.615-1.214-3.41-2.195-2.428-3.129 3.924-14.383 6.771-12.05 17.466-21.343 4.343-3.782 10.227-6.024 2.522-.934 9.947-2.942 4.717-1.26 8.546-2.895 4.717-2.008 6.678-3.97 1.355-1.4 1.728-2.849.327-1.354-.14-3.269-.84-3.455.514-5.277 1.307-1.821 4.997-2.288 3.549-4.904 5.184-6.865 4.67-5.79 7.238-7.098 10.648-5.371 26.48-4.67 19.333.84 31.569 12.001 2.288 2.149 4.856 2.009 3.55-.187 7.566-2.242 3.83-2.008 4.623-3.783.56-2.989 1.495-5.79 1.82-5.511 5.137-8.173 4.903-3.83 12.002-5.931Q182.13.747 195.067.047q9.714-.514 16.252 3.736 2.615 1.68 6.21 6.07 1.729 2.102 5.558 2.57 2.382.28 8.173-.094 2.288-.14 5.417-1.495l5.697-2.802 7.706-3.876q3.456-.98 10.508 1.121l7.425 2.382q2.288.56 3.082 3.876.747 3.176.934 3.176 10.835.56 19.007 7.145 2.989 2.335 3.97 4.25.98 1.867-.747 1.54-2.71-.56-5.558 2.662-2.849 3.223-1.26 5.464.84 1.168 5.043 1.682l8.406.513q11.675.42 15.037 1.728 3.223 1.261-.98 10.368m-1.028-9.107q-1.914-.747-5.744-1.074l-7.332-.374-9.293-.607q-4.203-.607-5.37-2.195-1.915-2.661.56-6.398 2.335-3.549 5.744-4.11-1.821-3.548-9.2-7.004-7.099-3.27-11.161-2.942-.841.046-1.448-.374-.7-.654-.794-2.522-.093-1.728-.514-2.522-.654-1.26-2.475-1.727l-5.79-1.588-4.81-1.261-4.064-.14q-2.802.513-9.153 3.736-8.22 4.11-11.488 4.156l-8.22.14q-4.67-.42-7.051-3.316-2.849-3.502-6.118-5.277-6.118-3.269-15.458-2.802-13.356.748-20.548 2.569-7.192 1.868-11.208 5.604-2.335 2.195-3.783 5.557-.794 1.822-1.728 5.23-.653 2.476-1.074 2.943-1.634 1.821-5.23 3.642-4.297 2.149-7.94 2.289-3.735.233-6.024-1.915-11.815-10.834-30.588-11.535-15.271-.607-25.639 4.67-2.568 1.308-7.565 7.239-4.297 5.137-4.53 5.79l-.607.28q-2.288.187-3.55 1.775-.887 1.121-.607 2.709.794 3.97-.093 6.164-.56 1.308-2.335 2.802l-.327.28q-3.175 2.71-7.472 4.39-2.662 1.074-8.032 2.475-6.211 1.682-9.34 2.99-5.278 2.194-9.527 5.883-9.34 8.126-16.345 20.128Q4.11 95.83 5.884 98.117q.607.794 2.709 1.822l4.296 1.82q8.967 3.503 9.154 6.632.14 2.896-7.52 7.052-6.864 3.736-9.293 7.892-4.062 7.099-2.568 21.436.7 6.678 4.016 9.76 3.27 3.082 9.854 3.27.654.046 3.129-1.962 3.83-3.13 6.258-3.55 2.615-.466 4.856 2.102 1.028 1.168 1.682 1.401l2.895-.187q6.585-2.195 11.582-6.024 2.849-2.195 6.631-6.351l2.756-2.849q1.354-1.167 2.615-1.448 9.2-1.868 13.683-7.285 3.97-4.857 7.612-17.372.84-2.943 2.288-2.943 1.448-.046 5.651 2.756 2.102 1.448 3.13 1.354 1.353-.047 4.062-2.335 3.69-3.082 12.282-12.002 9.06-9.34 9.434-10.788l-.234-1.868q-.56-3.129-.187-4.997.748-3.222 4.157-5.51 6.491-4.297 16.718-7.099 11.115-3.129 19.755-2.381.934.093 1.027.513.187.654-.747 2.475-1.355 2.71-1.074 4.157.327 1.354 2.241 2.008 7.145 2.382 16.812.187 11.956-2.756 20.595-11.722.607-.654.374-2.522-.14-1.775.093-2.615.467-1.541 2.289-2.288 4.156-1.728 5.277-4.624 1.4-3.596-.934-10.274-.187-.607.28-1.4.887-1.308 3.129-2.476 2.475-1.354 4.67-1.401 3.456-.093 6.164-.934l3.69-1.634q1.54-.841 2.428-1.075l2.709.047q6.958 2.008 12.375-.233 3.456-1.448 10.648-7.379.934-.747 2.428-.234.934.28 3.27 1.635 2.614 1.494 4.062 2.101 2.522 1.075 4.624 1.075 3.409 0 5.744.887 2.755 1.027 2.755 2.989 0 1.588-.56 1.634-.56.047-.934-1.494v.047q-1.355.046-2.756.84-1.447.747-2.522 2.055-2.988 3.502-1.26 6.445 1.587 2.661 7.845 5.93 3.83 2.009 4.623 2.943.327.373.28.607l-.326.467-1.635 1.728q-.607.887-.607 1.914 0 1.915 2.662 5.23 2.662 3.27 5.23 4.484 1.355.607 2.195.327l1.588-1.074 1.728-1.261q1.214-.654 2.662-.7 11.161-.234 15.084-4.157 3.13-3.176 6.678-11.441 3.643-8.547 1.728-9.294"/><path fill="#0f141b" d="M250.547 55.387q.374 2.428-2.055 5.23-1.588 1.728-3.596 2.755-2.148 1.028-4.203.981-2.895-.047-4.857-3.222-1.868-2.99-1.214-5.651.514-2.102 4.25-5.324 3.83-3.316 5.604-2.895 1.868.42 3.55 2.428 2.054 2.382 2.521 5.698m-1.541.186q-.374-2.662-2.008-4.716-1.401-1.775-2.849-2.102-1.027-.233-4.39 2.569-3.409 2.802-3.83 4.436-.466 1.868 1.122 4.39 1.634 2.615 3.689 2.662 1.775.093 3.596-.747 1.821-.84 3.082-2.289 1.868-2.054 1.588-4.203M155.512 88.917q3.643-3.549 5.697-3.082 1.635.374 2.616 3.456.98 3.082-.094 4.623-2.055 2.942-6.398 2.942-4.11 0-4.857-2.195-.7-2.148 3.036-5.744m6.958.7q-.747-2.1-1.588-2.287-1.4-.28-4.343 2.755-2.942 2.989-2.568 4.063.467 1.4 3.55 1.307 3.268-.046 4.903-2.428.794-1.168.046-3.41M75.374 159.948q-1.914.094-5.137-2.895-3.456-3.176-3.456-5.79 0-2.102 1.868-4.904 2.102-3.083 4.484-3.456 2.521-.42 5.884 2.148 3.502 2.615 3.643 5.324.093 2.195-2.429 5.79-2.709 3.737-4.857 3.783m-7.005-8.686q0 1.495 2.522 4.297 2.615 2.895 4.437 2.848 1.54-.046 3.455-2.942 1.868-2.895 1.775-4.903-.14-2.102-2.942-4.343-2.709-2.102-4.53-1.822-1.635.28-3.222 2.756-1.495 2.381-1.495 4.11M63.746 181.71q-.094-1.4 1.074-2.568 1.168-1.167 2.802-1.167 1.681 0 2.942 1.027 1.308 1.074 1.308 2.756 0 1.12-1.121 2.428-1.214 1.448-2.662 1.448-1.775 0-2.989-1.074-1.26-1.121-1.354-2.85m1.541-.14q.093 1.075.747 1.822.747.794 2.008.794.888 0 1.635-.98.654-.888.654-1.448 0-1.075-1.028-1.775-.84-.607-1.868-.607-.84 0-1.54.7-.655.7-.608 1.495M23.023 165.086q6.071-.327 12.61 9.153 2.568 3.69 3.969 7.332 1.448 3.642.887 5.137-1.448 4.016-9.153 9.527-7.892 5.697-12.002 5.183-1.027-.14-1.915-2.662l-1.821-5.93q-.654-2.756-1.12-3.316-.468-.607-3.69-1.681-2.335-.794-3.223-1.401-1.634-1.028-1.82-2.71-.515-4.062 5.556-11.067 6.352-7.239 11.722-7.565m11.022 10.133q-6.352-8.406-11.349-8.079-4.997.28-10.6 6.959-5.231 6.21-4.81 9.433.14.98 1.213 1.635l2.802 1.167q3.083 1.028 4.063 2.102.7.84 1.728 3.876 2.242 6.491 3.036 6.771 3.596.42 10.694-4.53 6.959-4.856 8.22-8.359 1.074-2.942-4.997-10.975M79.344 250.827q2.055.654 1.961 1.168l-2.148-.094-9.387-2.662q-1.307-.467-1.494-1.027-.14-.56 1.494-.187l9.574 2.802M97.604 248.212q2.195-.14 2.521.374.327.467-1.868.607l-11.208 1.4q-1.868.234-1.68-.28.186-.513 2.054-.887l5.137-.747 5.044-.467M84.294 256.711q-1.167-1.68-1.12-2.568.046-.934 1.213.794 2.009 2.849 6.352 7.379 4.343 4.483 6.024 5.51 1.541.934.98 1.121-.56.14-2.1-.794-1.869-1.167-5.511-4.717-3.783-3.782-5.838-6.725M50.576 210.805q2.943.14 8.22 9.667 4.903 8.873 4.903 11.488 0 1.635-6.585 6.305-6.538 4.67-9.106 4.81-2.335.093-7.145-3.83-4.39-3.642-6.258-6.537-.794-1.355-.7-5.23.093-3.877.98-5.325 1.588-2.335 6.678-6.538 6.118-4.997 9.013-4.81m6.772 10.32q-4.904-8.639-6.865-8.779-2.195-.14-7.706 4.577-4.95 4.203-6.444 6.491-.7 1.074-.84 4.39-.094 3.176.466 4.063 1.588 2.568 6.071 5.884 4.483 3.316 6.211 3.222 2.242-.093 7.893-4.016 5.324-3.736 6.024-5.043-.14-2.429-4.81-10.788M309.483 279.408q1.961.98 2.382 2.335l.14 1.074q0 1.26-.607 2.615-.608 1.354-1.355 1.728-1.26.56-2.895-.327l-1.541-1.214q-.748-.84-.84-1.728-.141-1.027.466-2.709.747-1.82 1.728-2.194.98-.327 2.522.42m.794 3.456-.094-.7q-.233-.795-1.4-1.402-.795-.42-1.308-.28-.374.187-.794 1.4-.467 1.262-.374 1.822.094.934 1.588 1.775l1.494.233.56-1.074.328-1.774M312.658 296.453q1.168-.747 2.943-.84 1.82-.047 3.736.607 2.054.7 3.549 1.868 1.54 1.214 2.055 2.615.607 1.868-.327 5.23-1.121 3.737-3.316 4.67-1.915.795-5.184-.326-3.035-1.028-4.483-2.569-2.288-2.522-1.915-6.118.467-3.455 2.942-5.137m6.212 1.215q-1.588-.514-3.036-.514-1.494.047-2.335.607-1.868 1.26-2.242 4.016l-.046.747q0 2.429 1.588 4.11 1.167 1.261 3.829 2.195 2.755.887 4.063.327 1.494-.654 2.241-3.736.701-2.849.234-4.203-.794-2.335-4.296-3.55"/></svg>