<svg xmlns="http://www.w3.org/2000/svg" width="323" height="458" viewBox="-0.3 -0.4 322.55 457.75"><path fill="#8b694e" d="M75.55 131.05q-7.7-4.15-14-3.65-1.75.15-3.5 4.05-1.55 3.6-2 7.6L24.9 151.7q-.85-1.65-5.75-2.45-4.7-.8-8-.05 5.05-2.55 11.95-6.7 8.15-4.8 12.7-8.2 4.15-3.1 4.5-4.35l.4-4.25q.15-2.65 1.4-4.25 3.15-4.2 9.35-7.65 6.5-3.6 14.25-5.2 18.7-3.8 33 5.6 3.65-4.55 6.8-7.85 3.8-4.05 5.15-4.45 5.05-1.55 20.95-1.05 15.9.55 16.45 2.25.5 1.55-7.15 13-7.7 11.4-9.75 12.2l-9.25.95q-6.75.2-14.1-.1 1 5.3.95 14.2l-.4 17.25q-.35 24.15 4.7 41.95 1 3.45 6.35 7.35 4.8 3.45 9.8 5.05 13.65 4.45 30.95 6.95 20.35 2.9 34.25 1.1 35.2-4.6 47.1 23.05 8 18.55 7.85 38.8-.05 5.9-.95 15.7-.9 9.8-.95 13.8-.1 9.35 4.35 14.8 2.85 3.45 9.3 6.7l8.2 3.85q2.7 2.05 2.55 8.05-.2 5.75.25 12.35-.9 5.15-5.45 12.4-4.2 6.6-7.4 9.1-1.85-8.3-4.35-15.85-2.3-7.05-4.45-11.4-4.65-9.45-16.4-16.05l-10.2-5.4q-6.25-3.3-10.25-6.35-9.4-7.15-17.3-26-3.2-7.6-9.95-28.95-4.3-.85-8.85-2.75-5.4-2.25-7.55-4.7-3.65 3.9-10.75 6.1-7 2.2-14.65 1.95-9.6 15.15-26.15 26.45-14.6 9.95-36.3 17.9.95 3.5 6.2 10.95l5.2 7q-1.7 7.75-5.05 15.55-3.85 8.9-7.05 10.65-2.55-7.55-6.3-14.95-7.1-13.9-18.9-26.65-2.1-2.3-2.3-4.25-.2-1.9 1.45-4.1l5.45-6.35q3.75-4.3 5.7-7.6-.6-.2 5.8-15.45 6.85-16.25 11.75-20.8-6.75-5.25-14.45-22.95-5.7-13.15-10.75-30.25l-5.75-3.8q-2.45-1.7-3.65-3.05-5.1 5.95-8.1 11.15l4.65-25.7q2.15-13.1 1.75-18.65 9.75 3.85 14.45 4.5 3.2.45 5.9-.55 7.65-3.6 12.95-11.5 5.4-8.15 4.65-15.6-.8-8.1-10.15-13.1"/><path fill="#fffcdb" d="M68.95 140.55q4.2 1.15 6.05 5.55 1.7 4.2.55 9.45-1.15 5.5-4.95 9.65-4.3 4.65-10.7 6.15-3.85-.65-12.4-4.2-7.3-3.05-11.15-2.9-3.2.1-11.1 1.8-7.2 1.5-9.3 1.3 3.95-3.15 6.95-8.35 3.05-5.25 2-7.3l17.8-7q13.55-5.55 14.5-6.1 2.5 2.4 6.1 2.75 2.95.25 5.65-.8"/><path fill="#8b694e" d="M38.85 289.35q-3.05-16.55-.55-34.75 1.85 13.3 5.05 19.4 6.1 11.8 23.15 22.8-1.95 3.3-5.7 7.6l-5.45 6.35q-1.65 2.2-1.45 4.1.2 1.95 2.3 4.25 11.8 12.75 18.9 26.65l-2 4.9q-3.65 3.65-8.9 6.6-6.45 3.65-13.1 4.85-.85-.95-1.4-3.9 1.85-10.65 1.9-21.9-.2-.45-4.85-4.3-4.2-3.5-4.2-5.35l.6-9.05q.45-8.55 0-11.05-2.75-8.55-4.3-17.2"/><path fill="#fffcdb" d="m73.1 350.65-8.35 17.1q-5.9 11.85-9.25 20.35-10.4 26.2-8.15 47.95-1.95-.4-4.2-1.6l-3.65-2.55q-.35 1.65-.35 5.1l-.1 4.9q-2.25-5.5-6.6-9.65-4.7-4.4-8.75-4.2l2.15-2.3q-1.35-1.85-2.35-6.25-1.1-4.8-.5-7.8 21.25-22.35 26.7-53.5.55 2.95 1.4 3.9 6.65-1.2 13.1-4.85 5.25-2.95 8.9-6.6"/><path fill="#fdd23f" d="M68.95 140.55q3.1-.05 5.6-3.2 2.2-2.7 2.45-5.35 3.65 2.35 5.9 5.3 2.45 3.25 2.8 6.85.75 7.45-4.65 15.6-5.3 7.9-12.95 11.5-6 .45-8.2.1 6.4-1.5 10.7-6.15 3.8-4.15 4.95-9.65 1.15-5.25-.55-9.45-1.85-4.4-6.05-5.55M61.55 127.4q3.05-.2 6.85.8 3.85 1.05 7.4 3.05-5.05 1.7-19.75 7.8.45-4 2-7.6 1.75-3.9 3.5-4.05M42.1 121.45q-1.25 1.6-1.4 4.25l-.4 4.25q-.35 1.25-4.5 4.35-.1-4.2 1.3-7.55 1.65-4.05 5-5.3"/><path fill="#fffcdb" d="M93.5 334.5q.8 1.15.65 2.95-.7 8.65 2.8 20.7 4 13.85 11.85 27.15 7.75 13.2 15.1 18.6-2.4 1.25-5.3 1.95l-5.15.6q2.1 2.65 5.3 4.45-1.6 3.75-6.3 6.45-5.25 2.95-10.55 1.95-2.8-6-3.7-12.2-2.35-.5-5.25-1.95-2.95-1.45-4.5-2.95-.6-22.6-7.05-41.5 3.2-1.75 7.05-10.65 3.35-7.8 5.05-15.55"/><path fill="#8b694e" d="M158.7 340.75q-8.1-7.4-8.55-8.35-2.1-4.2-2.9-11.75-.7-7.15.1-12.75l9.75-2q4.85-1 8-1l15.15 1.8 19.7 1q-3.75 4.2-10.25 13.8-6.6 9.75-6.95 11.8-.75 4.3 2.8 9.75 3.7 5.7 3.7 6.55-.05 2.45-2 6.8l-4.7 9.2q-9.8 6.15-13.6 7.7l-5.55-.15q3.15-11.85 3-21.55-.45-4.25-7.7-10.85"/><path fill="#fffcdb" d="M182.55 365.6q-8.35 15.75-11.55 27.85-5.25 19.65-1.5 40.25-1.55 0-3.9-1.05-2.2-1-3.15-2.05l.3 5.25q-1.45.15-4-1.1l-4.8-2.65q-6.45-3.4-10.1-1.2l2.3-3.45 1.95-3.65q-1-1.65-2-4.55-1.1-3.35-1.25-5.75 5.6-7.9 10.4-18.2 5.3-11.2 8.15-22.15l5.55.15q3.8-1.55 13.6-7.7M32.7 171.1q-11.05 1.95-15.95-3.7 2.1.25 8.9-1.35 7.5-1.7 10.7-1.8 3.1-.1 7.1 1.1 4 1.2 4.1 2.2-1.7.1-6.45 1.45l-8.4 2.1M259.25 381.6q3.2-2.5 7.4-9.1 4.55-7.25 5.45-12.4 1.25 20.5 7.55 43.7 5.85 21.85 12.75 33.95-1.15.95-4.55 1.3-3.3.35-6.1-.1l.5 3.05q-4.45 0-8.3-2.9-2.15-1.6-4.95-2.05-2.7-.4-4.65.5l1.7-3.25q-3.3-2.2-5.85-5.4 3.4-8 2.75-21.75-.5-11.55-3.7-25.55"/><path fill="#fff" d="M139.45 279.3q5.95 1.5 15.2-.75 8.4-2.1 15.3-6.05 3.3 3.2 9.75 4.9 4.85 1.3 8.95 1.25 5.8 17.7 11 28.4l-18.45-.75-16.1-1.4-26.45 4.15q-20.2 2.55-37.7-.6 24.9-12.35 38.5-29.15"/><path fill="#fdd23f" d="M154.65 278.55q-9.25 2.25-15.2.75l5.1-7.1q7.65.25 14.65-1.95 7.1-2.2 10.75-6.1 2.15 2.45 7.55 4.7 4.55 1.9 8.85 2.75l2.3 7.05q-4.1.05-8.95-1.25-6.45-1.7-9.75-4.9-6.9 3.95-15.3 6.05"/><path fill="#662c1f" d="M124.3 413.3q1.75 5.6-1.25 13-3.05 7.5-7.65 8.4-4.5-1.7-8.8-7.05-5.25-6.6-7.8-16.25 7.2 3.25 15.55 3.35 6.65.1 9.95-1.45M23.7 428.05q4.1-.2 9.1 4.9 4.85 4.95 6.5 10.55-1.45 2.15-8.85 3.8-8.25 1.8-13.25-.5-.55-6.65 1.7-11.7 1.45-3.4 4.8-7.05M264.35 437.55q1.95-.9 4.65-.5 2.8.45 4.95 2.05 3.85 2.9 8.3 2.9.85 5.1.3 6.9-2.3 3.2-8.3 5.3-6.55 2.25-13.15 1.35-1.9-.3-1.15-5.85.8-6.1 4.4-12.15M146.55 426.5q2.65 3.5 9.9 9.3 6.05 4.9 5.85 5.5-5.05 3.2-13.15 4.85l-9.9.35q-.45-10.1 7.3-20M25.05 152.15q.25 3.85-3.85 9.5-4 5.45-6.1 4.8-3-.95-5.2-6.55-2.2-5.55-1.15-9.25.7-2.35 7.75-1.95 7.05.45 8.4 3l.15.45M124.95 108.25q7.7 1.05 7.7 2.1 0 1.5-3.1 7.1-3.2 5.8-4.6 6.2-3.4 1.05-12.95.9l-13.3-.9q2.2-4.45 5.75-8.8 4.95-6.05 9.05-6.9 3.6-.75 11.45.3"/><path fill="#fff" d="m56.6 138.7 19.8-7.45q-.4 6.4-6.8 8.95-6.5 2.6-13-1.5M173.05 242.4q.65-1.6 3.45-1.85 2.8-.25 5.7.85 2.85 1.1 4.4 3 1.55 1.9.9 3.5-.6 1.6-3.05 1.9-2.45.25-5.35-.85-2.95-1.1-4.75-3-1.9-2-1.3-3.55M156.65 226.35q-2.55-2.45-1.8-4.6l11.75 1.4 7.75.65q2.1 2.3 1.45 4.3-.75 2.15-4.35 2.75-3.6.55-7.95-.75t-6.85-3.75M44.85 221.35q4.5-8.95 7.4-12.3 3.85 18 10.6 34.15 8.35 20.05 16.55 24.25-3.5 3.8-8.75 16.8-2.65 6.5-4.6 12.25-19.95-13.05-25.75-30.1-3.55-10.5-2.3-29.15 2.45-7.15 6.85-15.9"/><path fill="#fdd23f" d="m81.15 257.8 2.9 2.75q-2.25 2.95-4.65 6.9-4.4-2.25-9.2-9.65h10.95"/><path fill="#fff" d="M34.3 1.1q2 .95 1.9 2.65-.55 8.6 3.45 30.55 3.8 20.9 6.35 26.3 2.25 4.65 6.65 9.85 4.5 5.3 10.2 9.95.65.85 4.6 12.75l4.65 14.5-12.5 2.5q-5.3-16.4-7.9-21.65-1-.65-1.65-1.55L38.3 72.05q-3.15-2-10.75-5.2Q20.75 64 16.9 62.8q-1.15-.35-.75-2.6.35-2.25 1.3-2.35l5.15.15 6.2.5-.2-.35 1.4-7.2q1.15.6 4.6 4.05-.85-8.2-1.5-10.7-6.8-6.5-14.65-15.95-9.9-11.95-12-17.95Q6 9.1 8.15 8 10.3 6.9 11 7.85q3.6 4.95 7.8 9.85 6.25 7.35 11.2 11.35-.8-5.2-.4-13.9.4-9.55 2-13.35.7-1.6 2.7-.7M181.45 11.3q1.5-.4 1.7 2.6.2 2.9-.8 3.6-3.6 2.55-20.1 19-17.7 17.6-22.25 23.95 3.3.45 10.1.05l6.8-.25-4 6.65q-25.1 6.6-27.7 8.7l-10.1 7.15-7 5q-2.8 2.8-8 12.65-4.5 8.55-5.5 11.5-.85 2.65-6.4 1.2-5.6-1.5-4.95-3.8l3.05-10.6q2.95-9.95 3.8-10.75l7-7.25 1.5-14.15 1.05-12.2 7.55-3.3-.5 21.2 4.1-2.4q6.05-2.6 16.45-11.55 8.4-7.2 12.95-12.4 2.15-2.45 7.2-20 5.6-19.4 6.8-21.95.55-1.2 2.85.25 2.25 1.5 1.95 2.55l-4.3 24.9q4.7-5.55 14.7-12.9 9.15-6.7 12.05-7.45"/><path fill="#8b694e" d="M257.5 266.5q2.05 1.45 4.2 4.05 1.9 2.25 2.25 3.25-2.75 1.55-7.4 1.85-4.7.3-7.7-.85l-15.2-40.65q10.45 3.85 25.4 12.3 16.75 9.5 21.6 15.4-2.95 2.5-9 3.75-6.4 1.35-14.15.9"/><path fill="#fff" d="M74.35 387.6q-.55-27.05 2.85-37.7.7 1.7 3.15 5.1 2.55 3.55 3.5 4 2.95-3.45 6-11.05 2.8-6.9 4.05-13.1 13.25 8.25 22.35 26.3 3.8 7.6 11.95 30.7 5.35.55 12.2 3.4 8.95 3.7 13.1 9.1-1.6 2.45-7.4 4.7-5.9 2.25-11.45 2.45 1.85.85 3.35 2.55 1.45 1.75 1.95 3.75-4.55 1.05-7.8.7-5.6-.55-9-4.75l-11 .7Q103.5 414 99 410.7q.6 2.9 3.9 10.45-.8 2.3-2.75 4.9-2.3 3.1-4.3 3.6-1.5-.8-2.7-3.3-1.05-2.35-1.35-4.85-1.1 3.4-6.05 8.35-5.2 5.2-9.9 7.1-1.6-2.75-1.75-7.85-.2-6.45 2.35-13.75-1.55-3.5-2.1-27.75"/><path fill="#fff" d="M162.65 369.2q-1.3 3.45 1 5.55 2.65-.55 7.45-2.75 5.8-2.65 12.35-6.8 2.2 6.1 1.2 31.05-.95 24.05-3 29.6 5.5 1.7 10.1 6.3 4.4 4.45 5 8.6-3.2 1.1-8.25.6-5.25-.5-8.85-2.4.8 1.1 1.2 2.5l.3 1.7q-3.4.9-9.85-.2-5.9-1-8.7-2.5-3.2-1.75-8.15-6.05-5.65-4.85-8.05-8.55-1.1 1.6-3.9 7.2l-2.7 5.8q-.1.85-2.95.55-3.3-.35-6-2.55-2.3 1.15-5.7 1.5-4.3.45-8.6-.7l-.15-1.65q-.05-1.05.6-1.4 1.85-1.05 4-3.9 2.55-3.5 3.65-7.65 3.05-3 6.1-4.75l13.05-21.4q1.45-5.7 8-15.35 6.55-9.6 10.85-12.35"/><path fill="#8b694e" d="M21.75 91.1q9.55-.75 18.8-.05 8.35.65 10.5 1.85 1.15.65 4.2 7.35 2.6 5.65 4.05 9.75l-14.5 9q-6-.95-10.5-3.65-1.8-1.15-7.2-8.65-6.2-8.6-7.3-13.45-.25-1.2.1-1.65.4-.4 1.85-.5"/><path fill="#662c1f" d="m29.8 96.6 8.35.6q7.85 1.2 9.95 2.55.55.35 3.45 5.75 2.85 5.3 3.5 7.05l-4.9 2.6q-2.8-.05-7.5-1.35-4.05-1.1-4.85-1.65-2.6-1.75-5.7-8.15-3.05-6.15-2.3-7.4"/><path fill="#fdd23f" d="M27.5 56.35q-.9-2.15-.85-3.95.1-1.75 1.1-2.15 1.05-.35 2.4.9 1.35 1.25 2.25 3.4.9 2.2.85 3.95-.1 1.8-1.1 2.15-1 .4-2.4-.9-1.35-1.25-2.25-3.4M105.35 46.75q1.35.25 1.75 2.2.4 2-.4 4.55-.8 2.5-2.15 3.95-1.35 1.45-2.7 1.2t-1.85-2q-.5-1.85.25-4.35.75-2.55 2.25-4.2 1.5-1.6 2.85-1.35M158.35 60.55q.85.4.65 1.65-.2 1.2-1.15 2.25-1.25 1.45-2.75 2.1l-2.5.25q-.45-.1-.15-1.55.3-1.5 1.1-2.6 2.5-3.2 4.8-2.1"/><path fill="#fff" d="M166.15 170.85q4.55.65 4.95 2.3.8 3.3-4.15 8.3-4.8 4.85-14.3 10.65 16.15-.95 28.7 2.6 11.9 3.35 11.9 8 0 3.2-7.55 6.15-7.6 2.9-15.55 2.8-6.55 8.15-19.75 12.45-11.75 3.8-22.5 2.9-7.8 15.95-23.35 24.95-15.9 9.15-35.05 8.15l-28.3-3.3q-11.2-.55-20-11.15-9.65-11.55-6.85-25.75Q9.9 215 8.2 207.3q-1.55-7.05-.45-14.7 1.05-7.45 4.15-12.95 3.3-5.7 7.8-7.25 1.55 1.4 3.65 6.45 2.2 5.25 2.9 9.65 1.4-5.65 5.4-10.95 4.25-5.6 9.8-8.5l5.95-1.35-.8 14.75q-.15 6.65 2.75 12.4 2.55 5.1 6.55 7.85 10.25-13.15 27.05-22.25 16.9-9.15 30.75-8.95 7.45.1 8.9 3.15 1.1 2.2-.85 7.55 15.3-9.3 32.8-11.25 6.85-.8 11.6-.1M74.2 343.6l-.4 2 .6-2.4 2.35 6.15q-3.95 6.35-.5 46.3Q78 415.6 80.5 434.3l-.65 4.15-1.5 5.95q-5.6-.55-11.45-3.15-5.6-2.5-9.8-6.15l1.2 3.75q.5 2.15.35 3.4-9.15 2.55-17.85-.85-9.8-3.85-16.55-14.4-1.15 1.15-3.8 5.8-2.8 4.95-3.45 7.3-2.3-5.45-.5-12.45-1.45 2.1-5.9 3.65-4.35 1.45-9.7 1.85 0-7.25 5.85-14.75 6.35-8.25 15.9-11.3 3.15-14.75 13.3-33.8 9.6-18.1 14.7-20.75 0 1.85.8 4.25 1 3.05 2.55 4.05 7.15-.85 12.95-7.1 2.5-2.65 7.25-10.15M271.9 360.95q10.05 8.8 18.6 30.6 7.2 18.35 9.4 34.1 9.4 4.45 15.55 11.45 5.2 5.95 4.45 8.4-.55 1.75-7.7 1.85-7.7.1-12.8-2.65.55 4.6-.3 5.2-9.65-.7-18.3-4.5-7.7-3.35-15.25-9.4-1.1 1.2-3 5.9l-2.3 5.9-6-.25q-4.25-.85-5.4-2.35l-6.15.85q-4.1.15-6.3-.65.4-3.7 4.25-9.5 4.65-6.95 11.05-10.85.2-8.6 2.55-26.2 2.65-19.85 4.7-21l1.7 2.15q3.9-3.1 7.15-8.65 3.25-5.55 4.1-10.4"/><path fill="#755841" d="M78.9 167.5q-6.9 8.65-16.95 10.6-7.4 1.4-14.4-.95l.45-5.6-.25-4.25q11.05 4.35 17.1 4.45 6.45.15 14.05-4.25M37.65 280.9q-.7-7.2-.65-11.25.05-6.55 1.55-12.9l2 9.2q1.25 5.25 3.4 9.25 5.65 10.7 22.55 21.6-1.7 2.85-4.6 6.3l-4.7 5.4q-8.4-15-19.55-27.6M148.45 327.55q-1.1-4.5-1.4-10.05-.3-5.45.3-9.6l9.75-2q4.85-1 8-1l15.15 1.8 19.7 1q-3.75 4.2-10.25 13.8-6.6 9.75-6.95 11.8-.65 3.65 1.7 7.95 1.3 2.35 3.95 6.1-8.05-7.35-18.4-12.4-10.1-4.95-21.55-7.4"/><path fill="#dcdddd" d="M138.65 309.05q-20.2 2.55-37.7-.6 11.1-5.5 19.8-11.8 12.05 1.1 21.95 0l22.2-2.5 13.9.95q8.85.7 15.1-1.95 3.25 8.7 5.75 13.9l-18.45-.75-16.1-1.4-26.45 4.15M66.05 296.5Q47 284.05 40.95 268.1q13.4 9.8 29.55 16.45-2.6 6.4-4.45 11.95"/><path fill="#501e12" d="M124.3 413.3q1.75 5.6-1.25 13-3.05 7.5-7.65 8.4-1.85-.7-4.85-3.15-3.45-2.8-5.45-5.7 4.1 1.7 8.7-2.4 4.3-3.9 4.95-8.85l3.55-.5q.7-.2 2-.8M31.45 432.4q5.95 4.6 7.85 11.1-1.45 2.15-8.85 3.8-8.25 1.8-13.25-.5l-.1-2.95q6.1-1.4 9.5-3.7 4.35-2.95 4.85-7.75M263.75 438.9l1.5-2.8q2.2 1.95 8.05 5.45 6.25 3.7 7.9 3.7.25 1.3 1.05 2.15.6.6.3 1.5-1.3 1.8-4.1 3.4-2.9 1.65-6.5 2.55-.25-4.85-2.2-8.85-2.15-4.3-6-7.1M150.45 430.6q2.7 3.6 7.9 7.25 4.15 2.9 3.95 3.45-3.7 2.3-11.8 4.25-8.9 2.1-11.6.5 7.1-1.85 9.8-7.45 1.4-2.85 1.75-8"/><path fill="#dab636" d="m82.45 259.15 1.6 1.4q-2.25 2.95-4.65 6.9-3.8-1.9-7.9-7.7l10.95-.6"/><path fill="#dcdddd" d="m72.1 107.65-12.5 2.5-2.05-6.1q6.45-4.4 8.5-14.95 3.95 11.5 6.05 18.55M102.5 391.1q6.8-8.45 14.5-28.45 3.05 6.35 6.25 15l4.95 14.2q5.35.55 12.2 3.4 8.95 3.7 13.1 9.1-1.6 2.45-7.4 4.7-5.9 2.25-11.45 2.45 1.85.85 3.35 2.55 1.45 1.75 1.95 3.75-4.55 1.05-7.8.7-5.6-.55-9-4.75l-11 .7Q103.5 414 99 410.7q.6 2.9 3.9 10.45-.8 2.3-2.75 4.9-2.3 3.1-4.3 3.6-1.5-.8-2.7-3.3-1.05-2.35-1.35-4.85-1.1 3.4-6.05 8.35-5.2 5.2-9.9 7.1-1.6-2.75-1.75-7.85-.2-6.45 2.35-13.75-.7-1.6-1.45-12.8l1.05.25q15.7 1.65 26.45-11.7"/><path fill="#dcdddd" d="M184.65 396.95q-.4 10.05-1.25 18.1-.85 8.4-1.75 10.8 5.5 1.7 10.1 6.3 4.4 4.45 5 8.6-3.2 1.1-8.25.6-5.25-.5-8.85-2.4.8 1.1 1.2 2.5l.3 1.7q-3.4.9-9.85-.2-5.9-1-8.7-2.5-3.2-1.75-8.15-6.05-5.65-4.85-8.05-8.55-1.1 1.6-3.9 7.2l-2.7 5.8q-.1.85-2.95.55-3.3-.35-6-2.55-2.3 1.15-5.7 1.5-4.3.45-8.6-.7l-.15-1.65q-.05-1.05.6-1.4 1.85-1.05 4-3.9 2.55-3.5 3.65-7.65 3.05-3 6.1-4.75l4.05-6.65q13.4 1.8 26.5-2.05 13.3-3.85 23.35-12.65M17 212.9q-2.05 14.2 6.05 26.55 7 10.7 19.5 17.25-4.1.6-9.5-1.55-5.7-2.3-10.2-6.75-11.5-11.3-8.15-28.05-4.15-5-5.45-8.55Q6.6 204.5 7.9 192q1.95 18.6 9.1 20.9M150.4 224.1q-11.75 3.8-22.5 2.9-7.85 16.15-22.85 24.95-16.25 9.6-36.75 7.8 18.7-2.6 34.05-12.55 17.55-11.35 21.7-27.4 13 0 23-2.7 11.75-3.2 21.25-10.6l12.3-.65q6.65-1.05 12.65-3.15 0 3.2-7.55 6.15-7.6 2.9-15.55 2.8-6.55 8.15-19.75 12.45M59.7 389.7q8.8-6.4 15.05-17.15.55 15.9 3.2 40.4l2.55 21.35-.65 4.15-1.5 5.95q-5.6-.55-11.45-3.15-5.6-2.5-9.8-6.15l1.2 3.75q.5 2.15.35 3.4-9.15 2.55-17.85-.85-9.8-3.85-16.55-14.4-1.15 1.15-3.8 5.8-2.8 4.95-3.45 7.3-2.3-5.45-.5-12.45-1.45 2.1-5.9 3.65-4.35 1.45-9.7 1.85 0-7.25 5.85-14.75 6.35-8.25 15.9-11.3 1.05-4.9 2.95-10.35 6.55 1.55 12.45 1.05 12-1.1 21.65-8.1M299.9 425.65q9.4 4.45 15.55 11.45 5.2 5.95 4.45 8.4-.55 1.75-7.7 1.85-7.7.1-12.8-2.65.55 4.6-.3 5.2-9.65-.7-18.3-4.5-7.7-3.35-15.25-9.4-1.1 1.2-3 5.9l-2.3 5.9-6-.25q-4.25-.85-5.4-2.35l-6.15.85q-4.1.15-6.3-.65.4-3.7 4.25-9.5 4.65-6.95 11.05-10.85l.15-3.25q12.7-2.3 23.05-10.6 10.35-8.2 15.45-20.05 3.55 9 6.15 18.6 2.4 8.85 3.4 15.9M85.1 102.55q2.05 3.9 7.95 1.55 5.65-2.25 9.75-8.5-1.65 2.8-4.55 9.35l-3.35 7.8q-6.2-.3-9.2-1.3l-2.55-1.3 1.45-5.5.5-2.1M140.9 60.25l-1.7.05q-1.3-.1-2.2-1.6.55-1.75 15.5-16.25 15.9-15.4 20.75-16.95-6 5.4-18.35 18.8-11.55 12.55-14 15.95"/><path fill="#0f141b" d="M42.5 118.8q9.3-7.7 19.9-10.75 10.55-3.05 21.5-1.2l-1.1 2.55q-20.75-3.7-38.8 11.25-1.8 1.5-2.3 4.85l-.6 4.7q-.7 2.6-11.6 9.55-9.55 6.1-16.9 9.5l-1.95-.05q-1.4-.4-.95-.55 5.1-1.75 17.05-9.45 12.1-7.85 12.65-9.95l.2-4.9q.25-3.35 2.9-5.55M99.9 112.4l-2.1 2.25-3.45-1.8 1.5-2.55q2.25.9 4.05 2.1M107.85 139.8q-.1-6.2-.9-10.4l2.9.2q.55 4.05.6 9.9l-.15 11.35q-.45 13.6-.25 20.75l-2.45.15q-.3-8.2.1-19.8l.15-12.15M156.25 222.1l2.85-1.85q22.35 2.7 37.2.8 35-4.55 47.5 24.25 6.5 15 7.05 31.05.25 6.9-1.45 24.75l-.7 6.85-.4 6.4q-.1 9.25 4.7 14.65 2.8 3.1 9.4 6.25 7.2 3.05 8.25 3.9 2.8 2.4 2.65 8.6-.2 6.25.25 13.4l-2.25-.35q-.35-4.6-.35-9.65 0-7.75-.95-9.15-1.15-1.75-9.25-5.4-5.85-2.55-9.05-6.4-5.05-5.95-5.1-15.85-.05-2.65.85-12.85 1.45-15.2.55-26.05-1.3-15.2-7.3-29.05-5.9-13.65-17.3-19.25-11.45-5.6-28.9-3.3-15.35 2-38.25-1.75"/><path fill="#0f141b" d="M41.85 120.7q.3-.1.05.95-.3 1-.6 1.2-2.1 1.4-3.4 5-1.25 3.25-1.15 6.15.05.35-.8.4-.85.05-.9-.3-.15-4.75 1.25-8.1 1.75-4 5.55-5.3M264.35 435.9l.25-.45 1.35 1.05-.2.35q-3.65 5.6-4.8 12-1.05 5.65.3 5.85 6.4.9 12.75-1.35 5.55-1.95 7.75-4.85.25-.7.15-2l2.05.95q0 1.3-.4 1.9-2.55 3.5-9.2 5.7-7.05 2.3-13.75 1.35-3.05-.45-1.5-7.8 1.5-7 5.25-12.7M183.7 266.35q-.55-2.25 0-3.45.5-1.25 1.15.9 7.85 25.85 14 39.5 7.4 16.6 15.3 22.6 4.55 3.45 14 8.3 9 4.65 13 7.65 6.55 5.05 10.05 12.15 4.65 9.5 8.3 24.8h-1.8q-1.8-7.45-4.15-14.25-2.05-6.1-3.9-9.8-3.25-6.65-10.2-11.55-3.3-2.3-13.25-7.35L219 332q-4.05-2.3-7.1-4.65-8.4-6.4-15.75-22.75-6.8-15.15-12.45-38.25M22.35 158.1q2-3.75 1.85-5.9-.1-1.65-7.15-2.3-7-.65-7.5 1-.65 2.35.2 6.15.9 3.8 2.65 6.3 1.65 2.3 2.65 2.4 1.1.15 3.05-1.8 2.35-2.3 4.25-5.85m3.95-6q.2 2.45-2.15 6.6-2.15 3.75-4.85 6.45-2.35 2.35-4 2.35-2.05 0-4.3-3.2-1.9-2.75-3.1-7.35-1.3-4.85-.35-6.95 1.35-3.15 10-2 8.55 1.1 8.75 4.1"/><path fill="#0f141b" d="M37.3 165.1q-3.2-.2-12.05 1.8l-7.2 1.2q-2.95.1-4.25-1.35-.2-.25.6-.6l1.05-.05q1.15 1.45 9.4-.85 9.4-2.55 12.9-2.45 4.1.1 11.05 3.45 5.45 2.6 8.55 3.5 5 1.5 9.25.9 6.05-.85 13.6-4.85 5.9-3.15 7.95-5.2 1.95-1.95 1.65-.8-.3 1.1-2.25 3.05-2.5 2.5-7.15 5.3-6.9 4.15-13.1 5-4.45.6-10-1.15l-9-3.6q-7.4-3.1-11-3.3"/><path fill="#0f141b" d="M27.95 172.55q-8.25.3-12.65-4.8-.2-.25.7-.65l1.15-.15q4.3 4 11.55 3.65 4.25-.2 12-2.4 4.55-1.25 6.25-1.45.4-.05 1.7.75l.9.75q-2.05-.2-8.4 1.6-9 2.5-13.2 2.7M61.5 126.55q7.55-.6 15.9 4.5 9.1 5.55 9.85 13.05.8 7.9-5.2 16.35-5.95 8.4-14.45 11.65l-1.4-.35q-1.15-.5-.8-.6 8.6-3.15 14.45-11.3 5.8-8.1 5.05-15.6-.7-6.9-8.85-11.9-7.5-4.65-14.4-4.1-1.3.1-2.65 3.3-1.35 3.2-1.7 7.1-.05.35-1.2.55l-1.15-.1q.35-4 2.1-7.85 2-4.5 4.45-4.7"/><path fill="#0f141b" d="M75.4 131.45q.05-.35 1.05-.25 1.05.1 1 .45-.4 6.6-7.2 9.35-7 2.9-14.1-1.55-.3-.2.15-.9.45-.75.75-.55 6.05 3.8 12.1 1.35 5.9-2.35 6.25-7.9"/><path fill="#0f141b" d="M68.75 141.35q-.35-.05.65-.7 1-.65 1.25-.55 4.2 1.6 5.8 6.2 1.55 4.3.25 9.65-1.3 5.5-5.05 9.65-4.15 4.6-10.1 6.1-.35.05-1.75-.5l-1-.6q6.3-.9 10.6-5.2 3.8-3.8 5.1-9.25 1.25-5.15-.25-9.3-1.6-4.4-5.5-5.5M131.1 99.55q16.9.7 17.75 3.3.7 2.05-7.3 14.2-7.85 11.95-9.9 12.75l-15.6.7q-12.15-.4-17.1-1.5-2.25-.45-2.45-1.25-.2-.85 1.5-.4l17.2 1.15q13 .05 15.65-1 1.65-.65 8.9-11.3 7.25-10.6 7.5-12.7-2-1.4-16.7-1.8-14.95-.45-19.65 1-1.6.5-7.4 7.15-5.05 5.75-8.2 10.05-1.2 1.65-1.4.9-.2-.7.9-2.5 2.15-3.6 7.25-9.85 6-7.45 8.25-8.15 4.65-1.45 20.8-.75"/><path fill="#0f141b" d="M124.7 122.8q1.05-.35 3.9-5.45 2.85-4.95 3.15-6.7-1.55-.85-8.05-1.7-6.95-.85-10.05-.2-3.6.75-7.85 5.7-3.2 3.7-5.75 8.5l14 .7 10.65-.85m.5-15.5q8.6 1 8.6 2.75 0 1.65-3.45 7.8-3.65 6.45-5.45 7l-11.7.7-14.65-1.1-.75-.25q-.2-.25.15-.95 2-3.9 4.75-7.65 5.55-7.45 10.6-8.5 3.7-.75 11.9.2M36.35 258.15l-.3-2 3.45.55q2.35 12.15 9.65 22.45 7.1 10.1 18 17.1l-.7 1.25-.75 1.2q-11.75-7.25-19.3-17.45-7.8-10.6-10.05-23.1M47 186.45q-.25 1.45-.95-.7t-.5-3.4q1.45-10.25.85-14.6-.05-.35 1-.45 1.1-.1 1.15.25.7 5.3-1.55 18.9M159.85 306.25l-5.95 1.15q-13.1 2.8-20.8 3.6-16.55 1.65-35.55-.6 3.5-1.75 4.65-2.65 18.25 2 32.3.95 8.15-.6 19.05-2.95 7.85-1.7 11.55-1.7l15.05 1.6 19.1.8q.35-.05 1 1.25.65 1.25.3 1.3-6.3.8-20.65-1.1l-14.8-2.15-5.25.5"/><path fill="#0f141b" d="M148.6 307.95q-.9 5.35-.3 12.4.6 7.65 2.6 11.65.45.85 2.05 2.4l3.4 3.05q4.95 4.4 6.95 6.75 3.6 4.1 3.95 7.4v.9q0 10-3.35 22.1l-1.4-2.1q3.2-11.5 3.05-20.8-.3-2.8-3.85-6.65-1.8-1.95-6.85-6.35l-3.8-3.15q-1.8-1.55-2.3-2.55-2.25-4.5-3.15-11.85-.8-7.1.1-12.7.05-.3 1.5-.45l1.4-.05M199.8 308.2q.85 1.6.6 1.85-3.65 3.9-9.95 12.55-6.55 9-6.85 10.85-.5 2.8.9 6 .85 1.95 3.1 5.1l2.3 3q1.25 1.6 1.2 2.5-.05 2.45-1.9 6.35l-4.65 8.3-.7 1.15-2.4-.05 1.2-2.2 4.05-8.05q1.65-3.75 1.7-5.95 0-.85-2.2-4.05-2.85-4.1-3.8-6.9-1-2.8-.5-5.5.4-2.35 6.95-12.55 6.55-10.2 9.9-13.75.25-.25 1.05 1.35M163.95 441l-.1.45q-.7 2.15-11.6 4.7-11 2.55-14 1-.9-.45-.1-5 1.05-6.1 5.8-12.9l2.6-4.15q.55.55.95 1.8l-2.15 3.3q-3.7 5.35-4.8 9.9-.55 2.4-.45 5.75 2.6.75 9.3-.65 7.4-1.55 12.15-4.45l.3-1.45 2.1 1.7M181.95 242.1q-2.6-1-5.15-.8-2.55.15-3.05 1.4-.4 1.05 1.3 2.8 1.7 1.75 4.3 2.75 2.65 1 4.8.85 2.15-.15 2.65-1.45.45-1.2-1.2-3-1.6-1.75-3.65-2.55m-9.6.05q.75-1.9 4.15-2.1 3.1-.2 6.3 1 2.9 1.1 4.5 3.1 1.65 2.1.9 4.05-.65 1.85-3.35 2.25-2.65.4-5.8-.8-3.25-1.2-5.25-3.3-2.2-2.25-1.45-4.2M155.75 226.35q-2.4-2.6-1.6-4.85l.7.2.7.3q-.6 1.7 1.75 3.95 2.5 2.3 6.4 3.45 4.25 1.3 7.65.75 3.15-.55 3.75-2.3.6-1.6-1.6-4.1l.7-.25.7-.2q2.45 2.6 1.6 5.05-.85 2.45-4.8 3.05-3.9.55-8.65-.9-4.8-1.45-7.3-4.15M158.95 271.45q-7 2.2-14.6 1.9-.35-.05.05-1 .4-1 .75-1 7.5.3 14-1.8 6.55-2.1 10.2-6l1.25.05q2.3 2.6 7.2 4.65 4.2 1.7 7.95 2.2.35.05.3 1.05 0 1.05-.35 1-3.55-.5-7.9-2.3-5.1-2.15-7.85-4.9-4.05 3.9-11 6.15"/><path fill="#0f141b" d="M154.45 279.9q-8.9 2.35-14.75.55-.35-.05-.2-1.05.15-.95.5-.85 5.6 1.7 14.55-.65 7.8-2.05 14.95-6.15.6-.25 1.05.15 3.15 3.1 9.25 4.75 4.9 1.35 8.6 1.15.35-.05.25 1.05-.1 1.05-.45 1.1-3.45.2-8.5-1.3-6.15-1.8-9.85-5.15-7.7 4.35-15.4 6.4M83 259.65l3.75-.65q-11.05 14.8-16.9 32.7-1.35 4.05-4.4 8.3l-5.75 6.9q-4.35 4.9-4.8 7.05-.5 2 1.9 4.55 14.65 15.75 22.4 34-1.2-1-2.5-1.45-4.2-9.65-10.25-18.05-4.85-6.65-11.55-13.25-3.3-3.3-2.5-6.15.65-2.15 5.4-7.5 3.65-4.1 5.85-7.7 2.6-4.2 4.35-9.55 3.25-9.75 6.75-16.55 3.5-6.8 8.25-12.65"/><path fill="#0f141b" d="M147 266.2q1.05-2.05 1.2-.65.15 1.4-.8 3.3-9.5 18.75-27.7 31.1-13.6 9.2-36.3 17.2 1.15 3.55 4.4 8.15 2.6 3.7 5.95 7.15 1.15 1.15 1.5 1.8l-2 1.55q-.15-.7-1.45-2.05-3.3-3.45-6.2-8-3.25-5.05-4.3-9l.1-.5q.15-.45.4-.5 20.8-7.6 36.1-18.1 20.2-13.8 29.1-31.45M123.65 414.15q.9.6 2.25 1.95-.05 3.2-.95 6.85-1 4.1-2.75 7-3.25 5.45-6.25 6-3.3.65-9.1-6.35-6.9-8.35-8.9-20.2l1.8 1.15q1.9 7.95 6.3 14.55 4.45 6.7 9.4 8.7 2.85-.7 5.3-4.75 2.4-4 3-8.85.45-3.6-.1-6.05M36.15 256.5q.1-1.5 1.3.6 1.15 2.1 1.1 4.3-.8 21.65 4.4 41.05l1.05 4.4.25 3.65-.85 16.15q-.05 1.4 4.55 5.1 4.5 3.65 4.5 4.55-.1 11.1-1.5 20.15-1.25-1.9-1.8-3.5 1-7.65 1.15-16.85l-5.05-3.5q-4.6-3.2-4.5-5.3 1.5-12.9 1.5-16.9 0-2.8-1.85-8.95-6-20.05-4.25-44.95M16.05 441q1.3-7.45 8-14.55.2-.2.75.4.6.6.45.75-5.8 6.2-7.1 12.4-.3 1.55-.15 6.15l12 .35q6.5-1.45 7.95-3.4l.25-2.95q1.15 1.15 2.3 1.75 0 1.6-.3 2.15-1.5 2.65-9.4 4.3-8.7 1.75-14.4-.9-.35-.2-.55-1.85-.25-2.1.2-4.6M71.45 139.65Q67.6 141.1 64.6 141q-3.85-.05-7.65-2.55.3-.35 7.2-3.15l6.9-2.7q.65 1.35.8 3.3.15 2.05-.4 3.75"/><path fill="#fff" d="M65.35 135.05q.4 1.4 0 2.65-.4 1.3-1.4 1.75l-2-.15q-1-.65-1.4-2l4.8-2.25"/><path fill="#0f141b" d="M75.05 130.5q.35-.05 1 .6.7.7.35.75-2.35.7-25.35 10.25L25.8 152.4q-.35.1-.6-.7-.3-.8.05-.9l24.6-10.4q22.25-9.45 25.2-9.9M80.4 266.85q.3.1-.3.95t-.95.7q-4.7-2.15-9.15-8.5l2.9-.1q3.7 5.15 7.5 6.95M271.35 359.15q.2-1 .7-.05l.75 1.4q10.65 9.3 19.4 31.15 7.65 19.2 8.75 33.2 10.4 5 16.45 12.75 4.85 6.15 4.05 8.65-.6 2.05-7.7 2.2-7.45.15-13.4-2.45l.3 2.5q.2 2.05-.2 2.35l-3.85.15q-3.75-.35-8.25-1.65-12.7-3.65-22.7-12.1-2.35-2-2.85-3.55-.5-1.55 1.9.35 7 5.7 14.5 9.35 9.8 4.8 19.45 5.6l.05-1.65-.15-2.55v-.1q0-1.45 1.25-.75 4.7 2.55 11.95 2.55 6.4.05 7.35-1.25.5-1.8-4.2-7.3-5.95-7.1-15.4-11.5-.35-.2-.45-.7-2.15-15.65-9.2-33.65-8.05-20.45-17.45-29.5-1.2 4.9-4.35 10-3.2 5.15-6.85 8.05l-1.15-.05-1.15-1.35q-1.7 3.65-4 21.1-2.2 16.55-2.35 24.7l-.45.75q-5.8 3.55-10.25 9.8-3.7 5.25-4.45 9.15l5.7.4 5.5-.8q.5-.15.95.3.95 1.25 4.65 2.05l5.85.25q.35-.05.2.95-.2 1.05-.55 1.1l-5.8-.4q-3.55-.9-5.3-2.5-4.6 1.25-9.35.85-4.4-.4-4.3-1.5.4-3.9 4.35-9.85 4.65-7 11-11 .3-7.85 2.55-24.7 2.65-20.05 4.85-22.7.25-.25.65-.3.45-.05.65.25l1.75 1.65q3.45-3 6.7-9.1 3.15-5.95 3.9-10.55M161.35 371.5q-3.9 2.95-9.65 11.75-5.8 8.85-7.05 13.85-.1.35-1-.35-.85-.65-.75-1 1.45-5.75 8.15-15.15 6.6-9.2 11.1-12.1 1.4-.9 1.7-.75.3.15-.2 1.35-.4.75-.35 2.3.05 1.7.65 2.4 5.55-1.6 11.3-4.95l7.9-5.1q.2-.1.55.25l.55.9q2.4 6.55 2.05 29.1-.35 22.4-2.9 31.65 5.7 2.05 10.45 7.35 4.45 4.9 4.45 8.1 0 1.3-5.65 1.4-6.05.05-11.2-1.85 1 3.15-.1 3.35-11.85 2.05-22.2-4.7-8.45-5.45-15.5-16.4-.9-1.35-.55-1.85.4-.5 1.35.75 9 12.15 17.25 16.85 8.1 4.6 18.5 3.8-.4-1.8-1.25-3t-.45-1.55q.35-.35 1.55.3 3.3 1.75 8.05 2.25l7.6-.35q-.95-3.7-4.75-7.4-3.95-3.95-9-5.8-.7-.25-.9-.7-.2-.5.05-1.5 2.25-8.95 2.8-30.95.55-21.2-.95-27.25-6.05 3.75-11.5 6.3-4.85 2.25-7.65 2.8-.4.1-.75-.25-1.7-1.6-1.7-3.85M281.5 261.9l-.3.6q-3.25 2.7-8.8 4.15-6 1.6-13.1 1.25l-1.25-1.15q-1-1.15-.7-1.15l12.9-.6q5.9-1.05 9.1-3.3-5.05-5.55-19.8-13.95-12.95-7.4-23.7-11.8-.6-.25-1.6-1.9-.95-1.65-.55-1.55 10 3 26 12.6 16.3 9.75 21.6 16.2l.2.6"/><path fill="#0f141b" d="M256.15 266.6q-1.5-.85-.7-1.35.8-.5 2.35.4 2.3 1.35 4.6 4.2 1.9 2.35 2.35 3.7.15.7-.4 1-3 1.65-7.3 2.15-4.5.45-7.6-.7-.35-.1-.5-1.1-.15-1 .2-.9 2.65 1 6.75.8 4.1-.2 6.85-1.4l-2.7-3.45q-2.15-2.3-3.9-3.35M80.65 356.85q-1.75-2.3-3.15-4.65-2.45 9.8-2.35 33.45.1 22.55 2.1 29.35v.6q-1.9 5.55-2.15 11.4-.25 5.65 1.15 8.8 4.35-2.05 9.15-6.85 4.6-4.65 5.55-7.7.35-1.1 1-.95.55.15.65 1.1.3 2.15 1.2 4.2.95 2.25 2.15 3.1 1.7-.65 3.7-3.4 1.7-2.4 2.45-4.45.1-.35.9.3.75.65.65 1-1.15 3.2-4.1 6.1-2.85 2.8-4.1 2.15-1.3-.7-2.4-2.5-1-1.65-1.6-3.8-2.25 3.9-6.7 8.15-4.85 4.65-8.9 6.3-.7.25-1.05-.35-1.65-2.8-1.65-8.75-.05-6.9 2.45-14.1-3-11.7-2.75-33.5.25-21.95 3.55-32.2l.4-.95q.3-.3.85.65l2.85 4.4q2.15 3 3.2 4.05 2.7-3.55 5.5-10.6 2.65-6.65 3.85-12.55l.3-1.05q.3-.5.9-.1 24.1 15.05 34.6 57.6 10.5 1.1 18.85 6.55 6.85 4.5 6.65 6.7-.1 1.9-5.1 4.55-5.7 3-12.05 3.25 1.7 1.35 2.95 3.7 1.3 2.4.35 2.75-3.6 1.4-7.7 1.15-5.95-.4-9.75-4.75l-12.15.7q-8.8-.7-12.85-4.95-1.55-1.6-1.55-2.6.05-.95 1.6.65 3.8 3.95 12.95 4.7l11.9-.6q.55-.1.85.3 2.9 3.55 7.4 4.3l7.6-.35q-.55-1.55-1.75-2.85-1.25-1.35-2.75-2-.8-.35-.8-.95 0-.65 1.1-.7 5.15-.2 10.65-2.2 5.15-1.95 7.1-4.1-4.2-5.05-12.9-8.5-6.5-2.65-11.35-3.15l-.55-.55-.6-1.15q-3.05-11.4-8.3-23.25-10.45-23.45-23.75-31.6-1.4 6.1-4.35 12.9-3.15 7.1-6.05 10.5-.4.5-1 .25-.9-.4-2.85-2.95M73.4 343.35l1.9 1.9q-6.1 10.2-13.8 14.35-5.1 2.75-7.75 2.1-1.35-.3-2.7-3.05-1.2-2.4-1.45-4.45-5.5 4.65-14.05 21.45-9.1 17.85-12.1 31.6l-.55.65q-8.75 2.8-14.85 10.3-5.7 6.95-6.2 14 4.95-.5 8.8-1.9 3.9-1.4 5.15-3.15.8-1.1 1.35-.9.55.15.2 1.6-2.05 7.9.35 11.8.2.3-.55 1.25l-.95.7q-2.4-3.85-1.05-11.2-2.35 1.55-8.2 2.85-5.8 1.25-6.6.5-.65-.6-.2-3.7.5-3.7 2.4-7.5 5.55-11.2 19.35-16.05 2.5-15.65 13.1-34.9 9.6-17.55 15.15-20.5 1-.5 1 1.4 0 1.45.85 3.8 1 2.6 2.2 3.6 6.5-.9 11.95-6.55 3.05-3.15 7.25-10"/><path fill="#0f141b" d="M57.8 441.55q0-1.6-1.15-4.4-1.1-2.6-2-3.65-.15-.15.75-.25l1.05.15q1.2 1.35 2.2 4.05 1.1 2.95.8 4.9-.1.95-3.9 1.65-4.45.85-9.4 0-14.65-2.55-23-18.1-.9-1.65-.7-2.6.2-1 1.1.65 6.15 11.3 16.35 15.85 8.95 4 17.9 1.75"/><path fill="#0f141b" d="M53.4 432.6q-1.7-2.4-1.6-3.7.05-1.25 1.7 1.1 3.45 4.95 10.4 8.8 6.9 3.8 13.85 4.65L79.1 438l.55-3.7q0-.35 1.15-.6l1.15.15q0 1.1-1.45 6.35-1.5 5.25-1.8 5.2-7.7-.75-14.5-4.05-7.15-3.55-10.8-8.75M125.4 437.4q3.1-.35 5.05-1.35l.9.1q2.05 1.7 5.05 2l3.25-.15q.35-.05.35.9 0 .95-.35 1-1.35.3-3.4.05-3.1-.4-5.5-2.15-2.55 1.1-6.05 1.5-4.65.5-8.9-.65-.6-.15-.6-.8-.05-.6.35-1.65l.65-1.85.9.05q.75.3.75.45l-.4 2.1 7.95.45M130.3 417.55q.35-.15.75.6t.1.9q-1.5.85-3.4 2.45-2.1 1.7-3.6 3.45-.2.25-.25-1-.05-1.25.15-1.5 2.9-3 6.25-4.9M31.35 179.55q-4.3 6.5-4.8 12.2-.25 3.05-.95 2.2-.65-.85-.45-3.95.55-6.1 4.2-11.6 4.05-6.15 10.95-9.8l1.3.2q1 .3.7.45-6.3 3.3-10.95 10.3M151.3 193.25q-.35.05.7-1.05 1.05-1.05 1.4-1.1 16.4-1.15 28.8 2.6 11.9 3.6 11.9 9 0 4.05-7.4 7-7.1 2.8-16.15 2.8-7.35 8.8-18.65 12.7-10.15 3.5-22.35 2.65-8.1 16.1-23.6 24.9-15.6 8.85-34.4 7.85-2.45-.1-3.45-.8-1.05-.7 1.45-.55 18.5 1 34.2-7.9 15.7-8.9 23.4-24.7.25-.55.85-.45 10.85.9 22.55-3.05 12.75-4.3 18.95-12.05.35-.35.7-.3 8.65.1 15.9-3.1 6.3-2.75 6.3-5 0-3.7-11.1-6.95-12.85-3.7-30-2.5M21.65 90.25q9.7-.75 18.75-.25 8.85.45 11.15 1.75 1.4.75 3.85 5.85 1.8 3.75 3.2 7.55l-.3 1.3q-.4.95-.55.6-1.25-3.5-3.7-8.1-2.5-4.8-3.45-5.3-1.9-1.05-9.9-1.7-9.25-.7-18.9 0-1.45.05-1.15 1.15 1.1 4.65 7.1 13.05 5.3 7.4 7 8.45 1.7 1.05 4.35 2 2.95 1.1 5.85 1.55.35.1.2.9-.15.85-.5.8l-6.1-1.45q-3.35-1-5.3-2.2-1.85-1.15-7.2-9-5.9-8.8-7.05-13.75-.45-1.95 0-2.5t2.65-.7"/><path fill="#0f141b" d="M29.1 96.15q.7-1.15 9.35.05 8.45 1.2 10.5 2.45.75.45 3.6 6.4 2.65 5.4 3.3 7.25.1.35-.7.6l-.9-.05q-.55-1.65-3.35-6.8-2.7-5.05-3.25-5.6-2.6-1.2-8.6-2.25-5.75-1-8.5-.85.2 2.1 2.75 7.15 2.8 5.5 4.95 6.95l4.6 1.55q4.55 1.25 7.3 1.3.35 0-.4.8l-1.15.75-7.05-1.3-4.45-1.35q-2.75-1.85-5.9-8.6-3.15-6.75-2.1-8.45M50.8 88.9q-.2-.3.55-.75.7-.45.9-.15 2.25 3.6 7.9 21.15l-1.6.5Q52.95 92.4 50.8 88.9M33.9.05q1.3.3 2.25 1.4 1.05 1.15.95 2.45-.85 8.45 3.2 30.3 3.8 20.5 6.45 26 2.2 4.5 6.9 9.8 4.45 5 10.25 9.7.85.65 4.8 13.2l4.4 14.45q.1.35-.8.6l-1-.05-4.65-14.45q-3.75-11.4-4.45-12.5-5.7-4.6-10.2-9.9-4.45-5.3-6.75-10.1-2.2-4.6-6.15-25.3Q34.75 13 35.35 3.7l.05-.1q0-.55-.6-1.15-.6-.55-1.3-.75-.9-.2-1.1.45-1.6 3.8-2.05 13.1-.4 8.6.45 13.35.1.35-.75 0-.8-.3-.9-.65-.9-4.8-.4-13.3.5-8.95 2.2-13Q31.8-.4 33.9.05"/><path fill="#0f141b" d="M5.85 10.35Q5.6 8.55 8.2 7.3q2.55-1.25 3.45.05 13.3 17.85 21.75 23 1.3.85.7 1.2-.65.35-2-.45-9-5.55-21.8-22.7-.55-.45-1.9.4-1.3.8-1.15 1.3Q9.3 16.05 19.2 27.95q7.85 9.45 14.5 15.7.45.45 1.25 5.4l.95 6.65q0 .35-1.15-.45l-1.15-1.2q-.65-6.5-1.25-8.8-7.3-7.05-16.15-18.4-9.7-12.4-10.35-16.5"/><path fill="#0f141b" d="M30.25 52.25q-.3-.15-.5-1.2-.2-1 .15-.9 1.8.45 14.9 14.55l12.7 14.05q1.1 1.25 1.1 2.4l-1.15-.05L45 67.2Q32.15 53.1 30.25 52.25M27.85 58.6q-.2-.3.55-.6.7-.3.9 0 4.8 8.15 21.4 28.4 1.3 1.6 2.75 1.9 1.45.3 3.85-.55 1.45-.5 1.15.35-.25.85-1.7 1.35L53.3 90q-2.2-.3-3.95-2.5L40.4 76.15q-9.5-12.4-12.55-17.55"/><path fill="#0f141b" d="m23.2 57.25 5.75.4q.35.05.2.9-.15.85-.5.75L23 58.8q-4.35-.25-5.35-.1-.5.3-.7 1.75-.25 1.4.25 1.55 4.25 1.35 10.8 4.05 7.9 3.25 10.65 5.2.3.2.55 1.7.2 1.45-.05 1.2-2.75-2.3-11.1-6Q21.1 65 16.65 63.6q-1.7-.5-1.2-3.3t2.1-3q1.3-.2 5.65-.05"/><path fill="#0f141b" d="M31.85 59.85q.55-.2.5-1.65 0-1.55-.75-3.3-.75-1.9-1.9-3.05-1.05-1-1.65-.8-.65.25-.55 1.8.05 1.45.8 3.15.75 1.9 1.95 3.05 1 1 1.6.8M30.4 50.4q1.75 1.35 2.8 3.85 1.15 2.75.9 4.85-.25 1.9-1.45 2.35-1.35.5-3.1-.9-1.8-1.4-2.85-3.9-1-2.5-.85-4.5.2-2.05 1.5-2.55 1.4-.5 3.05.8M106.25 49.4q-.25-1.7-1.05-1.8-.95-.2-2.3 1.3-1.4 1.6-2.1 3.85-.7 2.3 0 3.8.55 1.1 1.25 1.25.9.15 1.95-1 1.2-1.25 1.85-3.55.65-2.1.4-3.85M102 47.6q1.7-1.75 3.4-1.45 1.55.3 2.25 2.45.7 2.3-.15 5.15-.9 2.9-2.5 4.45-1.6 1.6-3.3 1.3-1.25-.2-2.05-1.5-1.25-2.15-.2-5.65.9-3 2.55-4.75M153.45 3.35q.75-1.6 3.6-.05 2.9 1.55 2.65 3.6l-2.1 12.8-2.3 12.9q-.5 1.8-1.3 2.5t-.5-1.25l4.7-27.25q-.05-.75-1.45-1.6-1.3-.85-1.8-.7l-6.1 20.3q-6 19.6-8 21.85-4.65 5.3-13.05 12.55-10.5 9.05-16.65 11.65-1.75.75-4.4 2.65l.6-3.25q1.25-.7 2.3-1.05 6.05-2 16.65-11.3 7.65-6.7 13-12.7 1.7-1.95 7.8-21.25l6.35-20.4M120.3 80.35l-5.15 3.4q-5.65 3.8-6.45 4.6-2.6 2.6-7.55 12.5-4.2 8.4-5.25 11.55-.6 1.75-3.25 2-2.3.2-5.2-.65-2.4-.7-3.9-1.8-1.8-1.35-1.4-2.8l3.15-10.6q3.15-10.2 4.15-11.2 4-4.85 8.25-9.2l-.8 3.95-6.2 6.45Q89.45 90 84.05 109.5v.1q0 .5 1 1.2 1.15.8 2.9 1.35l3.85.5q1.7-.15 2-1 1-3.05 5.6-11.75 5.3-9.95 8.1-12.75.8-.8 6.7-4.8l10.45-7.45q2.6-2.05 27.95-8.8.35-.1 1.2.55.85.7.5.75-7.6 2.1-16.05 4.7-11.65 3.65-13.1 4.8l-4.85 3.45"/><path fill="#0f141b" d="M99.15 54.35q0-.35.65.1l.65.8q-.05 2.8-1.3 14.3l-1.6 12.6q-.55 2-1.35 2.1-.75.15-.2-1.85l1.55-12.75 1.6-15.3M106.3 52.65l.8-1.1q.8-.75.8-.4l-.45 25.95q-.05 2.3-.7 2.8-.7.5-.9-1.7-.15-1.25.45-25.55M181.25 10.45q1.55-.4 2.25 1.25.65 1.4.5 3.6-.2 2.25-1.15 2.9-3.75 2.6-19.9 19.05-17.05 17.3-21.25 23.35-.15.2-1.3 0-1.2-.15-1.05-.45 3.55-5.65 21.9-23.9 17-16.9 20.6-19.4.5-.5.5-2.7-.05-2.25-.7-2.05-3 .8-12.35 7.8-10.3 7.65-14.35 13-.2.3-.15-1.35.05-1.6.25-1.8 4.55-5.55 14.3-12.35 8.7-6.05 11.9-6.95"/><path fill="#0f141b" d="m152.05 61.2-8.3.35q-4.4-.1-6.35-1.15-1-.5-1.1-1.4-.15-.85.85-.25 2.55 1.65 14.8.75 4.7-.3 5.85.1.35.1-.1.7-.45.65-.8.55l-1.85.1-3 .25"/><path fill="#0f141b" d="M157.55 63.85q.85-.9.9-1.8.05-.75-.3-.95-1.75-.8-3.9 2.05-1.05 1.45-1.05 2.9l2.05-.45q1.3-.6 2.3-1.75m-1.8-4.15 2.95.05q1.15.6 1.1 2.2 0 1.65-1.3 3.1-1.25 1.4-3.75 2.25-2.7.9-3.15-.45-.3-.8.1-2.25t1.2-2.45q1.35-1.8 2.85-2.45M7.75 187.45q1.75-6.4 4.9-10.65 3.2-4.25 6.85-5.25l.8.2q1.8 1.65 3.75 6.05 2.15 4.75 2.75 9.05L26 189q-.8 1.75-.85 1.35-.3-4.05-2.25-9.75-1.85-5.4-3.45-7.2-3.05 1.05-5.75 4.95-2.75 3.95-4.3 9.55-2.3 8.35-1.1 16.5 1.3 8.8 6.3 13.9.15.15-.3 1.55-.5 1.4-.75 1.15-5.75-5.9-7-16.45-1.05-8.85 1.2-17.1"/><path fill="#0f141b" d="M18.05 208.75q1.3-2.15 2.15-2.2.85-.05-.45 2.1-10.45 17.3-.45 32.95 4 6.25 10.35 10.25 6 3.85 11.6 4.1 2.65.15 1.9 1.1-.7.9-3.35.8-6.2-.3-12.45-4.3-6.45-4.15-10.4-10.7-9.8-16.05 1.1-34.1M45.45 183.15q-.05-2.2.95-2.6 1-.35 1.05 1.9.15 6.8 3.05 12.45 2.55 5 6.2 7.35.3.2-.15.9-.45.75-.75.55-4.6-2.95-7.4-8.3-2.95-5.65-2.95-12.25M166.45 169.6q5.45.8 5.95 3 1.35 5.6-9.3 13.6-7.9 5.9-19.05 11.05-2.55 1.2-3.6 1.15-1.05 0 1.4-1.25 14.05-7.3 21.7-13.7 7.6-6.4 6.7-10.1-.3-1.25-5.3-1.7l-12.85.55q-20.1 2.85-36.05 14.9-1.85 1.4-1.5.25.3-1.1 2.1-2.5 16-12.05 36.25-14.95 7.95-1.15 13.55-.3"/><path fill="#0f141b" d="M121.1 182.9q-.95.2-.8-.15 2.15-5.4.85-7.75-1.45-2.6-7.45-2.65-15.95-.25-35.05 11.6-19.1 11.9-27.1 27-1.7 3.25-1.5 1.55.2-1.65 1.9-4.85 8.1-15.3 27.3-26.65 18.9-11.15 35.5-10.9 6.95.1 8.45 3.9 1.1 2.85-1 8.35-.1.35-1.1.55M44.9 228.5q.25-2.2 1.05-2.7t.55 1.65q-.9 8.5 1.75 14.8.8 1.9-.05 1.5-.85-.35-1.65-2.25-1-2.35-1.5-5.85-.5-3.8-.15-7.15"/></svg>