<svg xmlns="http://www.w3.org/2000/svg" width="416" height="517" viewBox="0.05 -0.8 416.05 516.65"><path fill="#fffcdb" d="M161.85 229.85q-3.85-.65-12.4-4.2-7.3-3.05-11.15-2.9-3.25.1-11.1 1.8-7.2 1.5-9.3 1.3 4-3.2 6.95-8.35 3.05-5.25 2-7.3 4-1.4 17.8-7 13.55-5.55 14.45-6.1 2.55 2.4 6.15 2.75 2.95.25 5.65-.8 4.2 1.15 6.05 5.55 1.7 4.2.55 9.45-1.15 5.5-4.95 9.65-4.3 4.65-10.7 6.15"/><path fill="#8b694e" d="M140.25 313.1q1.85 13.3 5 19.4 6.15 11.8 23.2 22.8-2 3.3-5.75 7.6l-5.45 6.35q-1.65 2.2-1.45 4.1.2 1.95 2.3 4.25 11.8 12.65 18.95 26.65-.95 3.7-6.4 14.6-7.2 14.45-10.3 21.55-13.45 31.2-11.05 54.15-2-.4-4.2-1.6l-3.65-2.55q-.35 1.65-.4 5.1l-.1 4.9q-2.2-5.5-6.6-9.65-4.65-4.4-8.75-4.2l2.15-2.3q-1.3-1.85-2.3-6.25-1.1-4.8-.5-7.8 15.15-15.95 22.55-38.35 5.85-17.95 6.05-37.05l-4.85-4.3q-4.2-3.5-4.2-5.35l.6-9.05q.45-8.55 0-11.05-2.75-8.55-4.3-17.2-3.05-16.55-.55-34.75"/><path fill="#fdd23f" d="M176.5 195.85q2.2-2.7 2.45-5.35 3.65 2.35 5.85 5.3 2.5 3.3 2.85 6.85.75 7.45-4.65 15.6-5.3 7.9-12.95 11.5-6 .45-8.2.1 6.4-1.5 10.7-6.15 3.8-4.15 4.95-9.65 1.15-5.25-.55-9.45-1.85-4.4-6.05-5.55 3.1-.05 5.6-3.2M163.5 185.9q3.05-.2 6.85.8 3.85 1.05 7.35 3.05-4.75 1.6-19.7 7.8.45-4.05 2-7.6 1.7-3.9 3.5-4.05M142.2 188.45q-.35 1.35-4.5 4.35-.05-4.25 1.3-7.55 1.65-4.05 5.05-5.35-1.25 1.65-1.4 4.3l-.45 4.25"/><path fill="#8b694e" d="M252.1 390.9q-2.1-4.2-2.9-11.75-.7-7.15.1-12.75l9.75-2q4.85-1 8-1l15.15 1.8 19.7 1q-3.75 4.2-10.25 13.8-6.6 9.75-6.95 11.8-.8 4.35 2.55 9.75 3.85 6.1 3.9 6.55.4 3.05-3.7 11.05-7.5 14.65-8.8 17.6-12.25 27.75-7.2 55.45-1.6 0-3.9-1.05-2.2-1-3.15-2.05l.25 5.25q-1.45.15-4-1.1l-4.75-2.65q-6.5-3.4-10.15-1.2l2.35-3.45q1.25-1.95 1.9-3.65-1-1.75-1.95-4.55-1.15-3.35-1.25-5.75 9.1-12.85 15.6-32.3 6.1-18.3 5.95-29.6-.45-4.25-7.7-10.85-8.1-7.4-8.55-8.35"/><path fill="#fffcdb" d="M138.3 222.75q3.05-.1 7.1 1.1 3.95 1.2 4.1 2.2-1.7.1-6.45 1.45l-8.45 2.1q-11 1.95-15.95-3.7 2.1.25 8.9-1.35 7.5-1.7 10.75-1.8"/><path fill="#8b694e" d="M343.4 304.55q8.05 18.6 7.85 38.8-.05 5.9-.95 15.7-.9 9.85-.95 13.8-.1 9.35 4.4 14.8 2.8 3.45 9.3 6.7l8.2 3.85q2.7 2.05 2.5 8.05-.5 16.55 4.75 42.65 6.15 30.35 15.85 47.35-1.15.95-4.55 1.3-3.35.35-6.1-.1l.5 3.05q-4.4 0-8.35-2.9-2.15-1.6-4.95-2.05-2.7-.4-4.65.5l1.75-3.25q-3.15-2-5.85-5.4 5.15-12.3.45-39.1-4.05-22.8-10.25-35.45-4.6-9.45-16.35-16.05l-10.2-5.4q-6.25-3.3-10.25-6.35-9.4-7.15-17.3-26-3.2-7.6-9.95-28.95-4.3-.85-8.85-2.75-5.4-2.25-7.55-4.7-3.7 3.9-10.8 6.1-6.95 2.2-14.6 1.95-9.6 15.2-26.15 26.45-14.6 9.95-36.3 17.9.95 3.5 6.15 10.95l5.25 7q.75 1.15.6 2.95-.9 12.15 7 31.85 8.95 22.45 22.75 34.6-2.35 1.25-5.3 1.95l-5.15.6q2.05 2.6 5.35 4.45-1.6 3.75-6.3 6.45-5.3 2.95-10.6 1.95-2.75-6.05-3.65-12.2-2.4-.55-5.25-1.95-2.95-1.45-4.55-2.95-.7-25.85-8.85-46.5-7.9-19.95-23.4-36.6-2.1-2.3-2.3-4.25-.2-1.9 1.45-4.1l5.45-6.35q3.75-4.3 5.75-7.6-.55-.35 5.8-15.45 6.8-16.25 11.7-20.8-8.65-6.75-18.5-33.05-7.15-19.15-10.1-32.95-2.25 1.35-6.85 7-4.65 5.6-7.2 10.1l4.6-25.7q2.15-13.15 1.75-18.65 9.75 3.85 14.5 4.5 3.2.45 5.9-.55 7.65-3.6 12.95-11.5 5.4-8.15 4.65-15.6-.85-8.1-10.15-13.1-7.7-4.15-14-3.65-1.8.15-3.5 4.05-1.55 3.55-2 7.6L139.95 205l-13.1 5.2q-.85-1.65-5.75-2.45-4.7-.8-8.05-.05 4.95-2.5 12-6.7 8.05-4.8 12.65-8.2 4.15-3 4.5-4.35l.45-4.25q.15-2.65 1.4-4.3 3.15-4.2 9.35-7.65 6.5-3.6 14.25-5.15 18.7-3.8 32.95 5.6 9.4-11.55 11.95-12.3 5.05-1.55 21-1.05 15.9.55 16.45 2.25.5 1.55-7.2 13-7.65 11.4-9.7 12.2l-9.3.95q-6.75.2-14.1-.1 1 5.3.95 14.2l-.4 17.2q-.35 24.15 4.7 42 1 3.45 6.35 7.35 4.8 3.45 9.8 5.05 13.7 4.45 31 6.95 20.35 2.9 34.25 1.1 35.15-4.6 47.05 23.05"/><path fill="#fffcdb" d="M240.55 367.55q-20.2 2.5-37.7-.6 24.9-12.35 38.5-29.15 6 1.5 15.25-.75 8.4-2.1 15.3-6.05 3.25 3.2 9.7 4.9 4.85 1.3 8.95 1.25 5.7 17.25 11 28.4l-18.45-.75-16.05-1.4-26.5 4.15"/><path fill="#fdd23f" d="m288.3 330.1 2.25 7.05q-4.1.05-8.95-1.25-6.45-1.7-9.7-4.9-6.9 3.95-15.3 6.05-9.25 2.25-15.25.75 2.75-3.3 5.15-7.1 7.65.25 14.6-1.95 7.1-2.2 10.8-6.1 2.15 2.45 7.55 4.7 4.55 1.9 8.85 2.75"/><path fill="#662c1f" d="M220.7 469.4q2.35 1.35 5.55 2.4 1.7 5.6-1.3 13-3 7.5-7.6 8.4-3.75-1.4-7.4-5.65-3.55-4.05-6.15-9.75 5.3 1 10.6-1.95 4.7-2.7 6.3-6.45M125.6 486.55q4.15-.2 9.15 4.9 4.8 4.95 6.45 10.55-1.45 2.15-8.85 3.8-8.25 1.8-13.2-.5-.55-6.65 1.65-11.7 1.45-3.45 4.8-7.05M384.2 500.5l.5 3.8q.15 1.95-.25 3.1-2.35 3.2-8.3 5.3-6.55 2.25-13.1 1.35-1.95-.3-1.2-5.85.8-6.1 4.4-12.15 1.95-.9 4.65-.5 2.8.45 4.95 2.05 3.95 2.9 8.35 2.9M245.75 489.4q3.65-2.2 10.15 1.2l4.75 2.65q2.55 1.25 4 1.1.15 3.7-.4 5.45-5.1 3.2-13.2 4.85l-9.85.35q-.25-5.1 1.2-9.25 1-2.85 3.35-6.35M127 210.65q.25 3.85-3.85 9.5-4.05 5.45-6.15 4.8-2.95-.95-5.2-6.55-2.15-5.55-1.15-9.25.7-2.35 7.75-1.95 7.1.45 8.45 3l.15.45M215.4 166.45q3.6-.75 11.5.3 7.7 1.05 7.7 2.1 0 1.5-3.1 7.1-3.25 5.8-4.6 6.2-3.4 1.05-12.95.9l-13.3-.9q2.1-4.35 5.75-8.8 4.9-6.05 9-6.9"/><path fill="#fff" d="m158.5 197.2 19.85-7.45q-.4 6.4-6.8 8.95-6.5 2.6-13.05-1.5"/><path fill="#006532" d="M284.15 299.9q2.85 1.1 4.4 3 1.5 1.9.9 3.5-.65 1.6-3.1 1.9-2.4.25-5.3-.85-2.95-1.1-4.75-3-1.9-1.95-1.3-3.55.6-1.6 3.45-1.85 2.8-.25 5.7.85M256.75 280.25l11.75 1.4 7.8.65q2.1 2.3 1.45 4.3-.75 2.15-4.35 2.75-3.65.55-7.95-.75-4.35-1.3-6.9-3.75-2.55-2.45-1.8-4.6"/><path fill="#fffcdb" d="M139.95 295.75q2.45-7.15 6.8-15.9 4.5-8.95 7.4-12.3 3.95 18.1 10.6 34.15 8.35 20.05 16.6 24.25-3.55 3.8-8.8 16.8-2.65 6.5-4.6 12.25-19.9-13.05-25.7-30.1-3.55-10.5-2.3-29.15"/><path fill="#fdd23f" d="M154.15 267.55q-2.9 3.35-7.4 12.3-4.35 8.75-6.8 15.9.7-10.3 3.35-25.6 2.55-4.5 7.2-10.1 4.6-5.65 6.85-7 2.95 13.8 10.1 32.95 9.85 26.3 18.5 33.05-2.65 3.6-4.6 6.9-8.25-4.2-16.6-24.25-6.65-16.05-10.6-34.15"/><path fill="#094" d="M164.4 85.5q3.45 8.8 9 13.2-5.85-3.2-15.55-2.45-9.1.7-12.4 3.8 4.1 7.4 12.75 13.7 7.75 5.65 14.65 7.4-3.85 2.55-6.4 7.85-2.65 5.55-2.8 12.15l-13.45-12.5-15.85-14.75-4.25 4.9q1.9 2.5 9.35 10.9l11.15 12.45q-5.85 6.1-15.7 11.5-12.05 6.6-23.05 7.7-.05-3.95 1.45-9 1.55-5.2 4.05-9.3 9-5.65 11.8-14.7-5.75-4-14.35-2.8-9.65 1.3-18.75 8.85-10.15.95-20.7-2.25-11.7-3.6-19.95-11.35 2.85-1.7 7.5-3.1 4.95-1.55 10.3-2.25-10.25-2.2-21.8-7.85-12.7-6.2-18.05-12.55Q38.2 91.8 46.4 89.4q6.9-2 14.45-3 5.2.2 8.95-.8 3.55-1 4.1-2.65.65-7.35-10.65-14.95-12.65-8.55-31.5-9.9-6.2-2.95-12.7-9.8-7-7.3-8.85-13.7 2.65-.95 6.95-1l8 .65Q17 28.3 11.3 21.1 4 11.95 1.55 1.7q12-.75 27.35 5.85 13.4 5.75 24.25 14.6-2.15-2.9-4-7Q47.1 10.5 46.1 5.7q9.75-.8 22.75 5.3 13.1 6.2 21.1 15.55-1.75-4.5-2.1-12.95-.35-8.9 1.55-11.9 8 2.4 18.7 12.45 11.85 11.15 16.85 22.9.7 11.7 5.35 21.25 5.05 10.35 12.8 13.7 6.8-12 3.4-27.25.65-4.7 3.85-11.1 3.25-6.6 5.65-7.7 3.8 5.45 5.15 16.05 1.2 9.3.05 16.3 3.05-4.35 8.9-7.65 6.15-3.45 11.7-3.45-2.1 5-2.55 11.05l-3.55 6q-2.6 3.8-4.5 5.6-5.1-2.65-9.3-3.2-1.2 9.3 2.5 18.85"/><path fill="#662c1f" d="M215.6 132.05q2 3.75 5.3 7.4-4 2.45-8.25 6.1-3.95 3.45-6.7 6.65l-5.45 8.1q-3.05 4.9-5.15 10.3-2.6 1.75-6.55.9-4.1-.9-4.65-3.9l3.45-10.5 3.05-8.95q2.7-3.45 6.9-6.5l1.65-13.2 1.1-13.6 8.95-4.6q.2 3.85 0 11.65-.2 8.1-.7 13.4l7.05-3.25M163.65 141.15q-.1 3.55.55 6.75l2.7.1 3.2 11.55 1.75 6.85-10.2 1.85-4.4-7.2-2.25-10q-1.1-4.7-2.2-6.4-19.7-21.9-22.7-25.85l4.25-4.9 15.85 14.75 13.45 12.5"/><path fill="#094" d="M338.65 24.55q13.35-1.85 22.85 1.1-4 2.7-8.85 7.25-4.2 3.95-6.3 6.65 11.85-3.95 36.85-4.05 23.4-.1 31.75 2.65-9.35 9.65-29.3 18-19.65 8.2-35.9 9.55 8.6.4 18.2 4.7 8.2 3.75 12.6 8-9.25 7.05-24.3 11.05-14.3 3.8-28.3 3.45-8.3-2.55-18.1-2.35-11.85.25-17.25 5 4.25 5.4 11.6 9.7 7.05 4.1 15.35 6.25-1.6 3.95-12.4 6.55-10.1 2.4-19.05 1.85 6.7 3.95 13.65 10.9 7.55 7.55 8.1 11.75-12.25 2.05-30.15.55-21.5-1.9-30.8-8.35 3.85 3.3 7.1 9.95 3.5 7.2 3.55 13.35-15.25-1.4-28.4-10.15-11-7.35-15.55-15.85l-7.05 3.25q.5-5.3.7-13.4.2-7.8 0-11.65l-8.95 4.6-1.1 13.6-1.65 13.2q-4.2 3.05-6.9 6.5l-1.25 3.35q-2.2 1.05-4.65 1.3-.55-4.45 1.7-12.5-5 5.05-13.2 6.85l-9.05.75q-1.25-6.6.8-14.35 2.35-8.85 7.85-12.4-6.9-1.75-14.65-7.4-8.65-6.3-12.75-13.7 3.3-3.1 12.4-3.8 9.7-.75 15.55 2.45-5.55-4.4-9-13.2-3.7-9.55-2.5-18.85 5.3.65 11 3.95 5.8 3.35 9.85 8.2 4.65 10.35 13.5 15.5 5.85-11.6 3.95-24.2 1.6-11.5 9.75-23.85 8.15-12.3 17-16.6.45 3.25.35 10.55-.1 7.4-.7 11.95 6.5-13.45 18.65-26.65 12.95-14 24.05-18.35.15 4-5.9 26.2-3.8 8.75-1.35 18.2 8.4.05 17-8.4 6.95-6.85 12.95-18 5.05-5.15 14.65-8.75 9.45-3.55 17.6-3.5-.7 3.45-4.6 10.5-3.75 6.75-6.25 9.5 11.3-6.4 25.25-8.35"/><path fill="#006532" d="M292.6 95.55q2.8-2.45 9.65-3.85 7.55-1.5 15.75-.7 21.6 2.1 32.15 18.1-11.3 7.25-30.1 2.55-18.4-4.6-27.45-16.1M299.15 7.3Q298.3 12 295.2 19q-3.5 7.95-8.15 14.7-12.2 17.95-25 17.85-3.1-12.2 4.2-23.5 9.25-14.35 32.9-20.75M199.4 65.25q3.8 15.2-3.15 29.05-12.85-7.5-16.1-24.4-3-15.6 3.5-26.4 11.95 6.6 15.75 21.75M129.1 14.45q12.35 11.5 16.75 27.25 4.8 17.05-2.75 30.3-13.8-6-17.25-27.35-1.45-8.7-.45-17.15.9-8.3 3.7-13.05M39.65 79.95q-12.7-7.45-19.85-21.9 19.95-2.25 37.5 5.8 8 3.7 12.4 8.6 4.65 5.15 4.2 10.5-.55 1.65-4.1 2.65-3.75 1-8.95.8-11.15-.5-21.2-6.45M83.75 148.45q9.35-14.2 21.15-20.4 13.5-7.15 24.25.3-3.45 11.2-16.05 16.85-12.7 5.7-29.35 3.25"/><path fill="#fdd23f" d="M204.35 107.45q1.85-1.25 3-.85 1.45.5 1.85 2.8.35 2.2-.6 4.7-1.05 2.75-3.15 4.15-1.8 1.15-3.3.95-1.55-.2-1.6-2.9-.05-2.4.9-5 .9-2.4 2.9-3.85M129.25 112.4q1.05-.9 2.6-.3 1.4.55 2.4 1.9 1.15 1.45 1.45 3.15.3 1.75-.5 3-.8 1.2-2.45.55-1.6-.55-2.85-2.3-1.2-1.65-1.35-3.4-.2-1.75.7-2.6"/><path fill="#8b694e" d="m347 295.75 6.2.3q4.8-.7 8.15-3.3-.6 6.75-5.7 12.55-4.45 5.05-9.65 6.85-1.35-11.85-10.35-20.85-9.25-9.2-20.9-9.65 5.35-.95 10.05-6.1 5.25-5.8 5.35-12.75 8.1 5.55 5.35 17.6 5.9-4.1 8.7-10.65 3.4-7.85-.25-14.95 13 7.9 13.4 20.75.35 12.2-10.35 20.2M210.2 191.05q5.4 4.85 13.8 4.1 8.6-.75 13.95-6.9-.25 6-5.7 12.75-5.65 7-12.2 8.8 3.9 1.3 8.35 1.1 4.25-.2 7.05-1.65-3.9 7.3-12.6 10.2-4.1 1.35-11.65 1.9 2.2 2.2 5.55 3.75 3.45 1.5 5.8 1.3-2.3 1.65-6.1 2.15l-6.25-.25q.45-26.3 0-37.25M121 152.15q-.3-1.2.1-1.65.4-.4 1.8-.5 8.6-.05 19.4 2.75 8.25 2.1 11.45 3.85 1.3.7 4 5t3.8 7.35l-15.55 8.6q-6.15-1-10.5-3.65-1.8-1.05-7.25-8.5-6.15-8.45-7.25-13.25"/><path fill="#662c1f" d="M153.5 165.25q2.55 4.3 3.15 5.9l-5.5 2.95q-2.8-.05-7.5-1.35-4.2-1.1-4.95-1.65-1.75-1.25-4.55-6.85-2.8-5.45-2.8-7.3.8-.5 8.7.95 8.15 1.45 10.3 2.8.55.35 3.15 4.55"/><path fill="#755841" d="m149.45 235.65.45-5.6-.25-4.25q11.1 4.35 17.1 4.45 6.45.15 14.05-4.25-6.9 8.65-16.95 10.6-7.4 1.4-14.4-.95M139.6 339.4q-1.2-12.65.65-26.3 1.85 13.3 5 19.4 6.15 11.8 23.2 22.8-1.75 2.9-4.6 6.3l-4.75 5.4q-8.35-14.9-19.5-27.6M271.9 393.45q-10.1-4.95-21.5-7.4-1.15-4.45-1.45-10.05-.25-5.4.35-9.6l9.75-2q4.85-1 8-1l15.15 1.8 19.7 1q-3.75 4.2-10.25 13.8-6.6 9.75-6.95 11.8-.65 3.65 1.7 7.95 1.3 2.35 3.95 6.1-8.1-7.35-18.45-12.4"/><path fill="#dddabe" d="M240.55 367.55q-20.2 2.5-37.7-.6 10.85-5.35 19.85-11.8 12.05 1.1 21.95 0l22.15-2.5 13.9.95q8.85.7 15.1-1.95 3.05 8.2 5.75 13.9l-18.45-.75-16.05-1.4-26.5 4.15"/><path fill="#501e12" d="M139.55 498q1.2 2.3 1.65 4-1.25 1.9-7.8 3.55-7.4 1.85-12.5.4 10.9-1.85 18.65-7.95M374.4 509.35q6.9-3.4 10-7.7.65 4 .05 5.75-2.4 3.25-8.95 5.45-7.25 2.45-13.7 1.15 7.6-2.25 12.6-4.65M264.15 494.35h.5q.15 3.7-.4 5.45-3.8 2.4-9.75 4.05-5.35 1.45-9.6 1.6 10.3-3.35 19.25-11.1"/><path fill="#dddabe" d="M172.4 343.05q-2.55 6.4-4.45 11.95-18.95-12.4-25.1-28.4 13.55 9.85 29.55 16.45"/><path fill="#501e12" d="m204.45 148.4 6.9-6.55q4.15-4 6.75-5.85l2.8 3.45q-4 2.45-8.25 6.1-3.95 3.45-6.7 6.65l-5.45 8.1q-3.05 4.9-5.15 10.3-2.6 1.75-6.55.9-4.1-.9-4.65-3.9l4.5-13.3q7.35 1.35 15.8-5.9M164.2 147.9l2.7.1 3.2 11.55 1.75 6.85-10.2 1.85-5.8-11.95q3.1 2.4 5.65-.85 2.2-2.85 2.7-7.55"/><path fill="#005125" d="m347.8 105.95 2.35 3.15q-9.5 6.05-25.05 3.55-14.9-2.35-25.9-10.75 13.3 4.75 24.45 5.95 13 1.4 24.15-1.9M262.05 51.55q-.75-2.85-.8-5.7 14.2-3.45 24.6-10.4-5.3 7.35-10.9 11.45-6.55 4.7-12.9 4.65M191.35 90.7q6.25-8.5 8.2-24.75 1.6 7 .85 14.2-.8 7.55-4.15 14.15-2.55-1.5-4.9-3.6M147.55 51.35Q148.3 62.8 143.1 72q-1.8-.7-3.45-1.9 3.45-8.1 3.6-19.1.1-8.8-1.95-20.6 5.55 10.4 6.25 20.95M72.95 77.4q1.15 2.8.95 5.55-.55 1.65-4.1 2.65-3.75 1-8.95.8-9.15-.45-17.75-4.6-10.65-5.1-17.95-14.95 26 11.95 47.8 10.55M128.2 127.75l.95.6q-3.35 10.9-15.4 16.55-12.15 5.7-28.2 3.8 13.2-2.1 23.75-7.05 11.55-5.45 18.9-13.9"/><path fill="#00873c" d="M181.3 117.15q-1.6 2.75-4.9 4.85-3.4 2.2-7.45 2.9 1.65-2.25 3.9-3.75-6.25-1.6-13.4-6.5-7.9-5.45-12.45-12.05 9.5 6.3 18 10.35 11.55 5.55 16.3 4.2M185 147.15q3.05-1.05 7.25-4.45l5.95-5.25-.65 4.2q-4.2 3.05-6.9 6.5l-1.25 3.35q-2.2 1.05-4.65 1.3-.3-2.2.25-5.65M163.8 144q5.6.05 14.4-4.4 7.05-3.55 10.3-6.5-1.35 3.7-2.25 7.45-5.05 4.9-13.1 6.6l-8.95.75q-.35-1.9-.4-3.9M356.7 89.8q-14.05 3.45-28.75 3.1-3.45-1.1-9.4-1.7-5.8-.6-10.95-.2 58.85-7.05 73.15-13.25-7.4 7.95-24.05 12.05M231.15 147.9q-11-7.35-15.55-15.85l-7.05 3.25.4-6.55 4.1-3 3.95-3.25q4.45 7.45 13.7 13.7 6.4 4.4 14.05 7.55-2.85-7.5-8.25-16.5 13.1 6.05 31.4 7.2 14.6.95 24.85-1.2-5.9-8.5-19.25-19 10.65.2 20.95-1.6 9.95-1.75 15.25-4.6 4.6 2.1 9.85 3.45-1.6 3.95-12.4 6.55-10.1 2.4-19.05 1.85 6.7 3.95 13.65 10.9 7.55 7.55 8.1 11.75-12.25 2.05-30.15.55-21.5-1.9-30.8-8.35 3.85 3.3 7.1 9.95 3.5 7.2 3.55 13.35-15.25-1.4-28.4-10.15M33.35 95.05l.15-.15q8.95 5.6 23.85 12.1 15.85 6.95 22.65 7.75l-8.2.4q-10.25-2.45-21.25-7.95-12.05-6.05-17.2-12.15M75.5 132.15q-11.6-3.5-19.8-11.1 11.1 4.55 25 6.3 14.35 1.75 27.1 0-6.05 2.35-11.75 7.05-10.1.95-20.55-2.25"/><path fill="#00873c" d="M164.15 117.55q4.7 2.6 8.7 3.6-3.85 2.55-6.4 7.85-2.65 5.55-2.8 12.15l-20.8-19.3 11.35-.35q5.7-1.1 9.95-3.95M123.25 139q-.7 3.35 1.4 5.2 1.95 1.75 5.7 1.55 8.65-.35 15.9-8.45l4.35 4.85q-4.55 4.75-12.3 9.55-2-.85-8.4-1.65-6.9-.85-8.55-.05-1.55.75.05 4.25.85 1.85 2.45 4.35-6.3 2.2-12 2.75-.05-2.15 1.8-8.8 1.5-5.5 2.85-9.3l3.3-1.75 3.45-2.5"/><path fill="#0f141b" d="M163.9 166.65q10.3-3.05 21.05-1.45l-1.05 2.55q-20.3-3.25-37.95 11.4-1.85 1.5-2.35 4.85l-.55 4.7q-.7 2.6-11.6 9.55-9.6 6.15-16.9 9.5l-2-.05q-1.4-.4-.95-.55 5.1-1.7 17.05-9.45 12.1-7.85 12.7-9.95l.2-4.9q.25-3.35 2.9-5.55 9.1-7.55 19.45-10.65M197.45 168.65q2.55 1.05 4.4 2.25l-2.15 2.25q-1.6-1.05-3.9-2-.2-.05.6-1.3.85-1.3 1.05-1.2M349.9 333.95q-1.3-15.2-7.25-29.05-5.9-13.65-17.3-19.25-11.45-5.6-28.9-3.3-14.35 1.85-35.45-1.3-17.15-2.55-30.15-6.8-5.1-1.65-10-5.2-5.6-4-6.7-7.75-3.6-12.7-4.45-27.35-.5-8.55-.1-23.5l.2-12.15q-.15-6.15-.9-10.4l2.9.2q.55 4.05.6 9.9l-.2 11.35q-.45 16.45-.15 23.55.65 14.95 4.15 27.35.95 3.2 5.65 7.05 4.7 3.75 9.55 5.35 13.45 4.4 32.95 6.5 20.2 2.15 33.85.4 17.65-2.3 29.65 3.95 11.75 6.1 17.85 20.3 6.5 15 7.05 31.05.25 6.75-1.4 24.75l-.7 6.85q-.4 4-.45 6.4-.1 9.25 4.7 14.65 2.85 3.15 9.45 6.25 7.2 3.05 8.2 3.9 2.85 2.4 2.65 8.6-.65 22.2 5.7 48.65 6.05 25.15 15.1 40.9.35.6-.2 1.05-1.35 1.2-5.5 1.55-3.7.35-6.55-.1-.35-.05-.25-.9.15-.85.5-.8l5.15.2q2.7-.25 4.05-.9-7.85-14.15-13.9-39.05-6.45-26.3-6.45-47.2 0-7.75-.9-9.15-1.15-1.75-9.3-5.4-5.85-2.65-9-6.4-5.1-6-5.15-15.85 0-3.85.9-12.85 1.4-15.25.5-26.05"/><path fill="#0f141b" d="M143.75 179.2q.3-.1.05.95l-.55 1.2q-2.1 1.4-3.45 5-1.2 3.25-1.1 6.15 0 .35-.85.4-.85.05-.85-.3-.15-4.75 1.25-8.1 1.7-4 5.5-5.3M367.5 487.3q-.2-1.5.45-1.15.65.35.85 1.85l.35 3.15q-.05 2-1.45 4.2-3.65 5.6-4.8 12-1.05 5.65.25 5.85 6.4.9 12.75-1.35 5.6-1.95 7.8-4.85.5-1.6-.4-6.6-.65-3.9-.7-5.6 0-2.25.95-3.9.85-1.5 1.6-1.5.75 0-.1 1.5-.85 1.55-.7 4.2.05 1.6.65 5l.75 4.35q.35 2.5-.3 3.35-2.55 3.5-9.2 5.75-7 2.3-13.7 1.35-3.05-.45-1.5-7.8 1.5-7 5.2-12.7 1.2-1.85 1.4-3.9l-.15-3.2"/><path fill="#0f141b" d="M376.4 496.9q2.25 1.65 4.2 2.15l3.55.15q.35 0 .4 1.05 0 1.05-.35 1.05l-4.05-.45q-2.2-.65-4.8-2.6-2-1.45-5-1.6-2.65-.15-4.45.65-.3.15-.3-.75-.05-.95.25-1.1 2.1-.95 4.95-.7 3.1.35 5.6 2.15M285.65 324.85q-.55-2.25 0-3.45.5-1.25 1.15.9 7.9 25.9 13.95 39.5 7.45 16.6 15.3 22.6l6.95 4.55 7.05 3.75q9.05 4.6 13.05 7.65 6.5 5.05 10 12.15 7.25 14.7 10.85 37.45 4 25-.85 37.25 2.65 3.2 5.3 4.9.25.1-.15.9-.4.75-.7.55-4.45-2.65-6.9-5.8-.35-.4-.15-.85 6-14.15 1.1-40.55-3.8-20.5-10-33.1-3.3-6.65-10.25-11.55-3.25-2.25-13.2-7.35l-7.25-3.85-7.1-4.65q-8.4-6.4-15.75-22.75-6.8-15.2-12.4-38.25M124.25 216.6q2-3.75 1.9-5.9-.1-1.65-7.15-2.3-7.05-.65-7.5 1-.65 2.35.2 6.15.9 3.8 2.65 6.3 1.6 2.3 2.65 2.4 1.1.15 3.05-1.8 2.3-2.35 4.2-5.85m3.95-6q.2 2.45-2.15 6.6-2.1 3.75-4.8 6.45-2.35 2.35-4 2.35-2.05 0-4.3-3.2-1.95-2.7-3.15-7.35-1.25-4.8-.35-6.95 1.4-3.15 10-2 8.55 1.1 8.75 4.1"/><path fill="#0f141b" d="M159.2 230.5q-1.8-.6-8.95-3.6-7.45-3.1-11-3.3-3.25-.2-12.1 1.8l-7.15 1.2q-3 .1-4.3-1.35-.2-.25.6-.6l1.05-.05q1.2 1.45 9.45-.85 9.4-2.55 12.9-2.45 4.05.1 11 3.45 5.45 2.6 8.6 3.5 4.95 1.5 9.2.9 6.05-.85 13.65-4.85 5.95-3.2 7.9-5.2 1.95-1.95 1.65-.8-.3 1.1-2.25 3.05-2.5 2.5-7.15 5.3-6.9 4.15-13.1 5-4.4.6-10-1.15"/><path fill="#0f141b" d="M148.85 225.25q.4-.05 1.7.75 1.3.8.9.75-2-.2-8.35 1.6-9 2.5-13.25 2.7-8.25.3-12.65-4.8-.25-.25.7-.65l1.2-.15q4.3 3.95 11.55 3.65 4.25-.2 11.95-2.4 4.65-1.25 6.25-1.45M163.45 185.05q7.5-.6 15.85 4.5 9.1 5.55 9.85 13.05.8 7.85-5.2 16.35-5.95 8.4-14.4 11.65-.35.15-1.45-.35-1.15-.5-.8-.6 8.6-3.15 14.45-11.3 5.8-8.1 5.05-15.6-.7-6.9-8.8-11.9-7.5-4.65-14.45-4.1-1.3.1-2.65 3.3-1.3 3.2-1.7 7.1 0 .35-1.15.55l-1.15-.1q.35-4 2.1-7.85 2-4.5 4.45-4.7"/><path fill="#0f141b" d="M177.35 189.95q0-.35 1.05-.25 1 .1 1 .45-.45 6.6-7.2 9.35-7.05 2.9-14.15-1.55-.3-.2.15-.9.45-.75.75-.55 6.05 3.8 12.15 1.35 5.9-2.35 6.25-7.9"/><path fill="#0f141b" d="M161.75 229.7q-1.4-.55-1.05-.6 6.35-.9 10.65-5.2 3.8-3.8 5.05-9.25 1.25-5.15-.25-9.3-1.6-4.4-5.5-5.5-.3-.05.7-.7 1-.65 1.2-.55 4.2 1.6 5.85 6.2 1.5 4.3.25 9.65-1.35 5.5-5.05 9.65-4.15 4.6-10.1 6.1-.35.05-1.75-.5M200.85 187.5q-2.25-.45-2.4-1.25-.2-.85 1.5-.4l17.2 1.15q13 .05 15.65-1 1.65-.65 8.9-11.3 7.2-10.6 7.45-12.7-1.95-1.4-16.65-1.8-15-.45-19.7 1-1.55.5-7.4 7.15-5.15 5.9-8.15 10.05-1.2 1.65-1.4.9-.2-.7.85-2.5 2.25-3.65 7.25-9.85 6.05-7.45 8.25-8.15l20.85-.75q16.9.7 17.75 3.3.65 2.05-7.3 14.2-7.85 12-9.9 12.75l-15.6.7-17.15-1.5"/><path fill="#0f141b" d="M233.65 169.15q-1.55-.85-8-1.7-6.95-.85-10.05-.2-3.65.75-7.85 5.7-3.25 3.7-5.8 8.5l14 .65 10.7-.8q1.05-.35 3.9-5.45 2.8-4.95 3.1-6.7m-33.15 13.8-.8-.25q-.15-.25.15-.95 2-3.9 4.8-7.65 5.5-7.45 10.6-8.5 3.65-.75 11.85.2 8.6 1 8.6 2.75 0 1.65-3.45 7.8-3.6 6.45-5.4 7l-11.7.7-14.65-1.1M200.05 256.5q.25-1 .85-.4.55.6.3 1.65-.95 4-5.35 11.35-1.2 2.05-1.65 1.95-.45-.15.75-2.4l2.8-5.95q1.8-4.1 2.3-6.2M147.65 239.55q1.25-9 .7-13.3-.05-.35 1-.45 1.05-.1 1.1.25.55 4.4-.7 13.45-.75 5.45-3.3 18.9-3.8 20-4.95 29.95-1.95 16.65-.1 26.6 2.25 12.2 9.55 22.6 7.15 10.2 18.1 17.2l-.65 1.25-.75 1.2q-11.8-7.25-19.3-17.45-7.8-10.6-10.1-23.1-2-11.3.5-28.35l5.65-29.9q2.4-12.55 3.25-18.85M204.15 366.25q18.25 2 32.3.95 8.15-.6 19-2.95l6.1-1.2 5.5-.5 15.05 1.6 19.1.8q.35-.05 1 1.25.6 1.25.25 1.3-6.25.8-20.6-1.1l-14.8-2.15-5.3.5-5.9 1.15q-13.2 2.8-20.85 3.6-16.5 1.65-35.5-.6l4.65-2.65"/><path fill="#0f141b" d="M247.65 366.95q.05-.3 1.5-.45l1.4-.05q-.9 5.35-.35 12.4.6 7.6 2.65 11.65.65 1.25 5.4 5.45 4.95 4.35 7 6.75 3.6 4.1 3.95 7.4v.9q0 14.3-6.7 32.35-6.1 16.45-14.85 28.85.2 2.6 1.25 5.8.95 2.85 1.7 3.75l-.5.75q-.6.6-.8.35-1.35-1.6-2.95-6.15-1.6-4.45-1.15-5 9-12.8 15.35-29.05 7.15-18.5 6.95-32.45-.35-2.8-3.9-6.65l-6.85-6.35-3.75-3.15q-1.8-1.55-2.3-2.55-2.25-4.5-3.15-11.85-.8-7.1.1-12.7M300.65 365.35q.25-.25 1.1 1.35.85 1.6.6 1.85-3.6 3.8-9.95 12.55-6.55 8.95-6.9 10.85-.5 2.8.95 6 .8 1.85 3.05 5.1l2.3 3q1.25 1.6 1.25 2.5-.05 2.45-1.9 6.35-1.3 2.75-4.7 8.3-8.95 15-12.55 28.25-5.25 19.55-1.35 40.95.2 1.1-2.2.7-2.75-.5-6.3-3.1-.15-.15.25-1t.6-.6q.55.7 2.25 1.6 1.8.9 3.3 1.2Q269 482.95 269 475q0-15.5 5.35-30.7 3.1-8.85 10.2-22.2l4.05-8.05q1.65-3.8 1.7-5.95 0-.9-2.15-4.05-2.85-4.1-3.8-6.9-1-2.8-.5-5.5.4-2.3 6.95-12.55 6.5-10.2 9.85-13.75"/><path fill="#0f141b" d="M250.25 475.9q-.05-1.8.65-1.15.65.6.65 2.25 0 3.7-1.25 6.6-.75 1.85-3.05 5.1-3.7 5.35-4.8 9.9-.5 2.25-.45 5.75 2.6.75 9.35-.65 7.4-1.6 12.15-4.5.55-1.2.15-8.25-.45-7.4.25-9.85.5-1.75 1.05-1.4.5.35.1 2.15-.65 3.05.4 9.75.95 6.35.3 8.35-.65 2.15-11.55 4.7-11 2.55-14 1-.9-.4-.1-5 1.05-6.05 5.75-12.9 2.35-3.4 3.2-5.3 1.3-3 1.2-6.55"/><path fill="#0f141b" d="M245.4 489.15q2.8-2.3 6.45-1.25 1.65.5 6.2 3.15l3.5 1.85q1.75.75 2.8.5.35-.05.55.75.2.85-.15.9-1.45.35-3.55-.45l-4-2.1q-3.75-2.15-6.1-2.7-3.4-.8-5.65 1.1-.25.25-.3-.65 0-.85.25-1.1M286.05 307.6q2.2-.15 2.7-1.45.45-1.2-1.2-3.05-1.6-1.7-3.65-2.5-2.65-1-5.2-.8-2.55.15-3 1.4-.4 1.05 1.3 2.8 1.7 1.75 4.3 2.75 2.6 1 4.75.85m-1.35-8.05q2.9 1.1 4.5 3.1 1.7 2.1.95 4.05-.7 1.85-3.35 2.25-2.65.4-5.8-.8-3.25-1.25-5.25-3.3-2.2-2.25-1.45-4.2.75-1.9 4.1-2.1 3.1-.2 6.3 1M257.65 284.85q-2.4-2.6-1.6-4.85l.75.2.65.3q-.6 1.7 1.8 3.95 2.45 2.3 6.4 3.45 4.2 1.3 7.6.75 3.15-.55 3.8-2.3.3-.9-.4-2.25l-1.25-1.85.7-.25.75-.2q2.45 2.7 1.6 5.05-.85 2.45-4.85 3.05-3.9.55-8.65-.9-4.75-1.45-7.3-4.15M287.7 328.95q.35.05.3 1.05 0 1.05-.35 1-3.6-.5-7.95-2.3-5.1-2.15-7.85-4.9-4.05 3.9-11 6.15-7 2.2-14.55 1.9-.35-.05 0-1 .4-1 .75-1 7.55.3 14.05-1.8 6.45-2.1 10.15-6l1.25.05q2.3 2.6 7.2 4.65 4.25 1.75 8 2.2"/><path fill="#0f141b" d="M241.6 338.95q-.35-.1-.15-1.05.15-.95.5-.85 5.6 1.7 14.55-.65 7.8-2.05 14.95-6.15.6-.25 1 .15 3.15 3.1 9.25 4.75 4.95 1.35 8.65 1.15.35-.05.25 1.05-.1 1.05-.45 1.1-3.45.2-8.5-1.3-6.2-1.8-9.85-5.15-7.7 4.35-15.4 6.4-8.95 2.35-14.8.55M161.65 365.4q-4.35 4.85-4.85 7.05-.45 1.95 1.95 4.55 13.25 14.3 20.7 30.25 10.85 23.2 11.75 53.05l4.35 2.75q2.6 1.25 4.65 1.55.3.1.35 1.3.1 1.25-.25 1.2-2.2-.3-6.8-2.65-4.75-2.45-4.8-3.45-.85-31.3-10.8-53.2-7.25-15.9-21.05-29.55-3.3-3.3-2.5-6.15.65-2.15 5.35-7.5 3.7-4.1 5.9-7.7 2.6-4.2 4.35-9.55 4.75-14.35 10.6-23.3 5.35-8.2 15.9-17.95 1.8-1.65 3.25-1.95 1.4-.25-.35 1.35-8.8 8.2-16.05 19.85-7.2 11.7-11.55 24.85-1.35 4.05-4.35 8.3l-5.75 6.9"/><path fill="#0f141b" d="m183.2 375.25.15-.5.4-.5q20.75-7.65 36.05-18.1 20.2-13.8 29.15-31.45 1.05-2.05 1.15-.65.15 1.4-.8 3.3-9.5 18.75-27.7 31.1-13.6 9.25-36.3 17.2 1.15 3.55 4.4 8.15 2.65 3.65 6 7.15l1.65 2.1q.5.95.35 2-.55 4.15 0 10.3.55 6.2 1.95 11.05 3.9 13.45 12 26.7 7.9 12.9 15.3 18.35 1 .75-.1 1.45-2.45 1.3-5.3 2.05l-5.4.75q-.3-.05-.8-.95-.5-.9-.15-.85 4.35.45 9-1.7-7.3-6.05-14.75-18.95-7.55-13.05-11.4-26.35-1.4-4.95-2.3-10.85-1.05-7.1-.5-10.95.1-.7-.25-1.3l-1.3-1.55q-3.3-3.45-6.2-8-3.2-5.05-4.3-9"/><path fill="#0f141b" d="M199.4 464.15q-.2-2.05.5-2.9.65-.8.8 1.25.55 9.35 5.6 18.35 5.05 9 11.1 11.45 2.9-.7 5.25-4.75 2.45-4.1 3.05-9.15.4-3.75-.2-6-4.3-1.4-6.9-3.25-2.65-1.9-4.35-4.85-.75-1.35-.5-2.2.3-.8 1.15.65 2.85 4.95 11.95 7.75 1.55.5.8 6.75-.8 6.6-3.55 11.15-3.25 5.5-6.25 6.05-1.4.25-4.1-1.6-2.95-2.1-5.7-5.7-7.45-9.6-8.65-23"/><path fill="#0f141b" d="m219.85 469.1.9-.1q.8.25.7.6-1.35 4.25-6.35 7.1-5.3 3-11.15 2.05-.35-.05-.35-1.05-.05-.95.3-.9 5.45.95 10.4-1.8 4.45-2.5 5.55-5.9M176 403.55q.1-.3 1.1.7.95 1 .85 1.35l-3.35 7.5-4.5 8.75q-10.3 20.7-14.45 33.5-6.8 21.1-4.9 39.5.1 1.15-1 .9-2.2-.45-4.7-1.75-2.45-1.25-3.95-2.65-.1-.1.3-.9.35-.85.6-.65 2.3 2.45 6.4 3.6-1.1-12.35 1.3-24.05 4-19.55 18.1-47.85 6.35-12.75 8.2-17.95M138.25 313.15q.15-2.4 1.25 1.35 1.05 3.75 1 5.4-.85 21.45 4.4 41.05l1 4.4.25 3.65q0 4.1-.8 16.15-.05 1.4 4.5 5.1 4.55 3.65 4.55 4.55-.2 18.15-4.25 32.8-6.85 24.4-24.4 43-.5 2.7.35 6.9t2.25 6.05q.15.2-.45.8-.55.65-.8.4-2.1-2.2-3.6-8.4-1.45-6.05-.45-7.05 15.05-15.4 22.05-33.5 6.85-17.8 7.1-41.2l-5.05-3.5q-4.6-3.2-4.45-5.3l.8-7.7.7-9.2q0-1.8-.6-4.3l-1.3-4.65q-2.4-8.2-3.45-16-1.95-14.3-.6-30.8"/><path fill="#0f141b" d="M129.45 479.45q.05-1.45.7-1.2.65.2.7 1.3.1 2.6-3.65 6.55-5.8 6.2-7.1 12.4-.45 2.05-.15 6.15 4.7 1.95 12 .3 6.4-1.4 7.9-3.35l.35-7.8q.3-5.75 2.35-6.55 1.3-.55 1.55-.25.2.3-.8 1.3-1.65 1.6-1.25 7.45.45 6.15.1 6.8-1.5 2.65-9.4 4.3-8.7 1.75-14.4-.9-.35-.2-.6-1.85-.25-2.05.2-4.6 1.3-7.4 8-14.55l2.45-2.8q1-1.45 1.05-2.7"/><path fill="#0f141b" d="M134.05 492.05q-4.75-5.05-8.65-4.65-.35.05.2-.85.55-.85.85-.85 4.15.2 8.5 4.35 4.05 3.85 6.35 9.1l-.3 1.8q-.4 1.55-.55 1.2-2.1-5.55-6.4-10.1M166.1 193.8l6.9-2.7q.65 1.35.75 3.3.15 2.05-.4 3.75-3.8 1.45-6.8 1.35-3.85-.05-7.65-2.55.3-.35 7.2-3.15"/><path fill="#fff" d="M167.25 193.55q.4 1.4 0 2.65-.4 1.3-1.4 1.75l-2-.15q-1-.65-1.4-2l4.8-2.25"/><path fill="#0f141b" d="M176.95 189q.35-.05 1.05.6.7.7.35.75-2.4.7-25.35 10.25-23.45 9.7-25.25 10.3-.35.1-.6-.7-.3-.8.05-.9l24.55-10.4q22.25-9.45 25.2-9.9M153.65 266.85q.6-.7.95-.6l.55 1q3.9 18.1 10.7 34.4 8.45 20.05 16.45 23.65.35.15-.25 1t-.95.7q-8.85-4-16.6-22.45-5.85-13.95-10.65-35.2-3.55 4.8-8.3 15.85-4.65 10.8-5.6 16.15-.1-7.15.4-8.75 2.05-6.5 6.1-14.3 4-7.75 7.2-11.45"/><path fill="#0f141b" d="M157 252.2q.65-.35.9-.25l.4.8q2.8 13.1 10.5 32.85 9.95 25.4 18.3 32.15.3.25-.55 1.15-.8.85-1.15.55-8.75-7-18.4-32.8-6.4-17.05-10.05-32.25-3 2.4-7.65 8.8-5 7-6.95 12.15l1.35-7.35q1.55-3.9 6.15-9.15 4.25-4.9 7.15-6.65M220.4 138.75q.2-.1 1.05.35.85.5.55.65-4 2.35-9.1 6.8-4.4 3.8-6.15 6-1.65 2.1-4.65 7.3-3.6 6.25-5.45 11-.45 1.3-3.75 1.6-3.3.3-5.85-.8-1.8-.75-3.1-2.3-1.15-1.35-1-2l3.55-10.3q3.15-8.95 3.6-9.55 2.95-3.7 7.75-7.15l-.7 2.6q-3.4 2.7-5.65 5.55-.4.7-3 8.5l-3.35 10.45q.45 1.85 2.6 2.65 1.65.7 3.7.65 2.05-.1 3.4-.9 1.9-4.9 5.6-11 2.75-4.45 4.95-7.35 2.75-3.15 6.6-6.5 4.3-3.75 8.4-6.25M215.05 131.2q.3-.15.7.65.35.8.1.9-4.65 1.95-6.7 2.95l-.05-1.85q2.85-1.35 5.95-2.65M207.9 113.7q.85-2.2.55-4.15-.25-1.9-1.25-2.25-.8-.3-2.3.8-1.75 1.25-2.55 3.35-.95 2.55-.85 4.7.1 2 .9 2.1 1.2.15 2.7-.8 1.85-1.2 2.8-3.75m-.15-8q1.75.6 2.3 3.1.6 2.55-.55 5.5-1.15 3.05-3.55 4.6-1.95 1.25-3.75 1.05-1.55-.25-2.1-2.9-.55-2.8.5-5.6 1.1-3 3.4-4.7 2.15-1.65 3.75-1.05"/><path fill="#0f141b" d="M208.7 112.5q0-.4.65-1.7.65-1.35.7-1 .5 4.15.05 14.4-.45 10.05-1.2 14.05-.35 1.95-1.15 2.4-.75.4-.4-1.55.7-3.65 1.15-13 .45-9.1.2-13.6M200.05 114.2l.65-.05q.6.3.6.65l-1.3 14.75q-1 8.8-1.95 13.5-.35 1.8-1.2 2.35t-.5-1.2q1-4.8 2.15-14.4 1.15-9.35 1.55-15.6M164 139.45v2.95l-28.95-26.8q-.25-.2-.6-1.7-.3-1.45-.05-1.2l29.6 26.75M166.15 147.95l2.1-.3q2.1 7.05 4.85 18.05.1.35-.9.75l-1.05.05q-2.65-10.6-5-18.55M152.25 145q-19.65-21.65-22.9-26.45-.1-.15.65-.4t.9 0q2.65 3.5 22.7 25.8 1.2 1.3 4.6 16.8.1.45-2.85-2.9-.85-3.2-1.85-8.55-.6-3.25-1.25-4.3"/><path fill="#0f141b" d="M129.95 112.95q-.6.5-.4 1.95.2 1.5 1.15 2.85 1.05 1.5 2.35 2l1.55-.15q.65-1 .4-2.45-.25-1.45-1.3-2.75-.8-1.05-1.95-1.55l-1.8.1m-.85 5.3q-1.05-1.45-1.15-3.3-.15-2.05 1.05-3.15 1.3-1.15 3.1-.65 1.65.5 2.95 2.2 1.4 1.75 1.65 3.75.3 2-.65 3.4-.9 1.35-2.95.85-2.2-.6-4-3.1M214.8 131.25q-.9-2.3-.6-3.1.35-.8 1.35 1.45 5.05 11.3 19.15 19.25 11.9 6.7 24.05 8.1-.35-5.8-3.6-12.4-3.05-6.2-6.7-9.3-1.1-.95-.65-1.6.4-.65 1.7.25 8.9 6.2 29.4 8.1 17.25 1.6 30-.3-1.45-4.9-10.45-13.15-8.85-8.1-14.35-9.85-1.9-.6-1.55-1.15.35-.5 2.35 0 6.7 1.85 15.85 10.45 9.35 8.75 10.1 14.3l-.15.65q-.2.25-.55.3-13.8 2.35-28.85 1.5-18.75-1-28.3-6.95 3.7 4.95 5.35 9.05 1.85 4.55 2.15 10.2.05 1-.35 1.4l-1.35.2q-13.1-1.4-24.75-7.6-14.45-7.7-19.25-19.8"/><path fill="#0f141b" d="m318.5 111.6.9-.05q.8.3.7.65-1.3 3.35-11.1 6.2-9.45 2.7-18.3 2.6-.85-.05-2.8-1.2-2.05-1.15-1.5-1.05 8.25 1 19.8-1.7 11.25-2.6 12.3-5.45"/><path fill="#0f141b" d="M349 108.7q-4.3-6.15-10.75-10.3-6.5-4.2-14.4-5.85-7-1.45-16.55-.45-9.5.95-13.3 3.45 8.8 10.5 25.95 14.95 17.85 4.65 29.05-1.8m-24.7-18.25q8.4 1.75 15.4 6.55 6.75 4.65 11.3 11.5l.25.8-.6.65q-12.4 7.9-31.05 3-17.85-4.7-27.55-17-.5-.6.1-1.15 3.6-3.15 14.35-4.55 10.45-1.35 17.8.2"/><path fill="#0f141b" d="M414.25 36.9q1.45.35 1.65.85.2.5-.95 1.6-9.05 8.8-26.85 16.9-18.7 8.5-32.55 9.3 6.55.9 13.8 4.35 6.85 3.25 11.35 7.25 1.4 1.2.05 2.15-9.3 6.9-24 11.05-13.2 3.75-24.2 3.65-.4 0-2.25-1l-1.5-1.05q10.8.4 25-3.05 16.15-3.95 25.5-10.65-4.4-3.9-12.15-7.25-8.85-3.85-16.8-4.5-3.15-.25-1.45-1.15 1.45-.75 3.8-1.05 15.95-2.1 33.8-9.7 17.9-7.6 26.9-16.15-10.2-2.5-32.85-2.15-24.7.35-35.2 4.4-2.35.95-1.65-.1.75-1.05 3.1-2 11.95-4.65 34.45-4.8 20.55-.15 33 3.1"/><path fill="#0f141b" d="M340.25 23.3q12.5-1.45 21.65 1.45l1 .6q.05.35-.8.9-6.6 4.4-13.4 12.5-.25.35-4 1.25 1.7-2.55 6.05-6.65 4.5-4.3 8.9-7.45-9.25-2.3-21.55-.25-11.65 1.9-23.2 7.2-1.9.9-2.6.95-.75.05.35-1.15 2.25-2.5 5.8-8.8 3.65-6.5 4.75-10.15-8.5.2-17.55 3.95-9.15 3.8-13.35 9-.2.25-.9-.3-.65-.55-.45-.8 6.55-8 20.45-11.8 4.9-1.35 9.25-1.75l4.4.25q.7.9-2.05 6.75-2.75 5.9-6.3 11.05 10.9-5.3 23.55-6.75"/><path fill="#0f141b" d="M285.8 33.65q9.3-13.25 12.35-25.25-13.85 4.1-23.6 12.1-12.5 10.25-12.5 23.45 0 2.9.8 6.6 11.4-.45 22.95-16.9m11.6-26.8q2.4-.7 2.7-.55.3.25-.3 2.45-3.35 12.9-12.45 26.2-12.2 17.9-25.2 17.35-.65-.1-.8-.65-4.1-16.1 7.6-28.65Q279 12.3 297.4 6.85"/><path fill="#0f141b" d="M269.1 6.25q1.3-.5 1.15.9-1 9.45-4.2 19.3-3.55 10.95-7.9 15.95-1.95 2.25-3.25 2.55-1.25.25.6-1.9 4.1-4.7 8-15.5 3.65-10.1 4.9-19.1-12.2 5.45-25.7 21.25-12.85 15.05-17.55 28.2-.85 2.4-1.15 1.5-.25-.9.45-3.4 4.1-13.85 17.8-29.15 13.8-15.45 26.85-20.6"/><path fill="#0f141b" d="M215.5 36.5q4.05-4 8.35-6.65 3.45-2.1 3.95-1.85.9.5.75 9.7-.15 9.2-1.15 13.7l-2.45 3.85q.6-2.65 1.1-12.1.55-9.3.3-12.25-9.1 4.95-16.7 17.1-7.65 12.15-8.3 22.95-.05.4-.75-1.6t-.65-2.5q3.2-18.1 15.55-30.35"/><path fill="#0f141b" d="M180.3 58.95q-.45 7 1.1 12.95 1.75 6.9 5.55 12.3 3.75 5.4 9.05 8.7 3.9-8.15 3.9-16.95 0-10.1-4.75-19-4.4-8.35-11.05-12.35-3.3 5.95-3.8 14.35m3.4-16.85q.2-.15 2.6 1.75 2.9 2.3 5.6 5.4 8.25 9.7 9.75 22 1 8.35-1.7 16.75-2.15 6.65-3.3 7-.6.2-2.65-1.05-2.4-1.45-4.8-3.9-6.9-7-9.5-17.3-2.55-10.05-.3-20.55 1.9-8.7 4.3-10.1"/><path fill="#0f141b" d="M173.45 71.9q-5.7-3.5-10.65-4.35-.65 6.75 1.85 15.1 3.05 10.3 9.4 15.25 1.1.9.75 1.5l-1.7-.1q-5.3-2.9-14.3-2.35-8.4.55-12.1 3.2 4.1 6.85 12.2 12.8 7.55 5.5 14.3 7.25.85.25.95.55.15.4-.75 1-5.5 3.6-7.65 12.3-1.65 6.9-.7 12.9 5.7.4 11.15-1.4 6.45-2.15 10.65-6.85.25-.3.05 1.3l-.55 1.95q-4.55 4.35-11.05 5.95-5.2 1.25-11.05.7-.65 0-.75-.7-1.4-7.2 0-13.55 1.75-8.05 7.7-13-7.55-1.9-14.7-7.3-7.4-5.65-11.15-12.8-.6-1-.5-1.55.05-.4.65-.8 3.7-2.85 10.35-3.7 7.15-.9 14.15 1.1-5.75-4.65-8-13.9-1.9-7.8-.85-16 .05-.35.35-.55.25-.25.6-.2 4.5.55 10.1 3.55 5.45 2.95 9.5 6.95.55.55.85 2.2.3 1.65.05 1.3-3.45-4.25-9.15-7.75"/><path fill="#0f141b" d="M190.45 129.2q1.15-1.45 1.85-1.5.65-.05-.3 1.35-2.65 4.1-4.7 12.3-1.8 7.2-1.65 10.35 2.2-.3 3.35-1.2.25-.2.5.6t0 1q-.95.75-2.5 1.1l-2.65.05q-1.35-.5.35-9.5 1.85-9.75 5.75-14.55M179 56.95q.15-.4.4.85.3 1.2.1 1.6l-3.4 5.7q-2.3 3.4-4.15 5.15-.3.3-.9-.3-.6-.55-.4-.8 2.05-1.85 4.95-6.15 2.7-4.1 3.4-6.05M171.75 48.6q4.85-2.45 10.4-2.35.35 0 .35.85-.05.85-.4.85-5.3-.1-11.4 3.35-5.75 3.2-8.7 7.4-1.65 2.35-1.55-.5.55-8.35.25-12.85-.7-10.75-4.9-18.3-2.7 2.2-5.55 9.1-3.2 7.55-2.6 12.5l-1.45-4.9q-.05-4.15 3.2-10.7 3.35-6.6 6.35-8 .65-.25 1.05.3 7.35 10.5 5.55 30.65 4.8-5.1 9.4-7.4"/><path fill="#0f141b" d="M141.5 32.75q-4.8-9.9-12-16.95-3.7 7.15-3.7 17.6 0 9.25 2.85 18.1 2.3 7.1 6 12.05 3.65 4.95 8.2 7.15 4-7.5 4-16.25 0-10.55-5.35-21.7M128.9 12.4q2.25-.35 9.2 10.75 7.8 12.45 9.75 23.7 1.5 8.6-.65 17.65-1.85 7.75-3.7 8.3-3 1-8.55-5.65-5.6-6.7-8.15-14.4-4.6-14.2-2.2-28.4.85-4.9 2.35-8.65 1.25-3.2 1.95-3.3"/><path fill="#0f141b" d="m125.2 35.85-.2 2.1-.45 1.45q-4.35-11.85-15.9-23.45-10.45-10.4-18.7-13.3-1.35 2.95-.9 11.75.5 9.15 2.55 12.5-2.8-1.3-3.05-2-1.75-4.8-1.75-12.5 0-8.05 2-11.25.35-.6.95-.35 8.7 2.6 19.05 11.95 11.95 10.8 16.4 23.1"/><path fill="#0f141b" d="M95.05 32.6q.7 1.65.3 2.2-.45.55-1.25-1.05-5.7-11.2-20.9-19.7-14.5-8.1-25.9-7.7 1.3 5.55 4.55 11.4 3.05 5.45 5.7 7.6-5.15-3.05-5.9-4-2.6-3.3-4.85-10.2-2.1-6.4-1.4-6.5 4.5-.75 11.7.9 7.45 1.7 14.85 5.3 18.1 8.85 23.1 21.75"/><path fill="#0f141b" d="M57.7 25.25q1.6 1.65 1.4 2.35-.2.7-1.85-.85-9.5-9.3-23.95-16.45Q16.35 1.9 2.8 2.4q3.7 14 16.55 25.7 7.45 6.8 15.45 10.95 2.45 1.3 1.65 1.65-.8.35-3.3-.95-9.5-4.95-16.6-11.5Q3.75 16.45.1 1.1L.05.35.9.1q14.2-.9 31.8 7.6 15.55 7.5 25 17.55"/><path fill="#0f141b" d="M9.45 34q2.9-1.3 7.5-1.45l8.2.7.85 1.15q.5 1.1.15 1l-7.55-.9q-4.4-.2-7.15.55 2.2 6.5 8.85 13.3 6.3 6.45 12.1 8.75l-.65.65-1.2.4Q15.65 52.1 9.45 34"/><path fill="#0f141b" d="M73.2 82.6v-.3q0-4.25-4.8-9.2-6.45-6.55-17.65-10.5-13.3-4.65-29.45-3.9 7.6 14.5 20.95 21.55 11.15 5.9 22.7 5.15 3.4-.25 5.75-1.1 2.15-.8 2.5-1.7M19.15 57.5q.2-.6 5.7-.85l13.35.7Q58.85 60.1 69.6 71.1q3.1 3.2 4.6 7.05 1.25 3.3.65 4.95-.6 1.6-3.4 2.9-2.95 1.35-6.85 1.6-18.8 1.25-34.05-13.45-5.25-5-8.8-10.7-3-4.8-2.6-5.95"/><path fill="#0f141b" d="m32.8 95.45-.35-.65q.05-.25.55-.6 11.6-7.75 28.95-8.4l4 .4 2.45.5-15.15 2.25q-12.4 2.4-18.45 6.15 5.7 6.25 17.85 12.1 11.45 5.55 21.2 7.35.35.1-1.15.6l-2.25.4q-11-2.15-20.9-7.25-10.6-5.5-16.75-12.85"/><path fill="#0f141b" d="M77.55 114.35q2.3.1 3.1.7.85.65-1.4.7-6.15.1-12.6 1.65-5.8 1.45-9.6 3.45 8.55 7.6 20.2 10.75 9.9 2.65 19.3 1.5.35-.05-.35 1l-1 1.15q-9.55 1.9-19.8-1.35-11.2-3.6-20.45-12.6-.5-.5-.45-.75 0-.25.6-.6 9.9-5.95 22.45-5.6"/><path fill="#0f141b" d="M128.2 128.6q-2.85-1.8-6.7-2.35l-8.05.25q-6.1 1.2-12.2 5.1-8.7 5.65-15.85 16.05 17.05 2.15 28.95-3.9 10.55-5.4 13.85-15.15m1.55-1.1q.5.3.3.95-3.4 11.25-14.6 17-12.65 6.5-31.7 3.75-.7-.1-.85-.4-.15-.3.3-.9 11.35-17.55 25.5-22.4 12.15-4.15 21.05 2"/><path fill="#0f141b" d="M116.2 143.45q.15-.25 1.45-.5l1.2-.1q-2.6 3.95-4.25 8.7-1.65 4.75-1.75 8.65 5.4-.65 10.95-2.6l1.15 1.8q-6.45 2-12.9 2.65-.9.15-.9-.8-.1-4.1 1.2-8.75 1.35-4.9 3.85-9.05M149.85 141.45q.25-.25 1.15.55.85.8.6 1.05-4.25 4.65-10.85 8.9l-3.95-.45q8.4-5.05 13.05-10.05M336.5 279.45q-.1.35-2 .75 1.3-5 .7-8.55-.7-4.4-4.25-7.4-.65 5.8-4.7 10.8-3.65 4.45-8.35 6.45l-2.7-.25q-2.15-.5-1.7-.6 7.25-1.75 11.55-7.3 3.95-5.15 4.2-11.85.05-1 1.65 0 1.65 1.1 3.25 3.45 4.45 6.6 2.35 14.5"/><path fill="#0f141b" d="M345.95 256.9q2.1 6.5-1 13.35-3.05 6.8-9.8 10.8-1.55.9-2.2.6-.65-.35.9-1.25 6.1-3.55 9.25-10.2 3.7-7.85.05-15-.45-.9-.2-1.4.35-.65 1.6.15 13.2 8.05 14.35 20.6 1.1 11.8-8.6 20.05 2.8.3 4.9-.05 3.1-.55 5.75-2.6 1.4-1.1 1.3 1.5-.15 2.65-1.85 6.4-4.65 10.5-13.6 13.1-.35.05-.75-.8-.45-.85-.2-.95 4.4-1.5 8.5-5.85 4.8-5.05 5.95-11-3.45 2-7.7 2.5l-5.8-.4q-.7-.3-.7-.75 0-.4.5-.75 10.15-7.55 9.95-19-.2-11.5-10.6-19.05M153.65 266.85q.6-.7.95-.6l.55 1q3.9 18.1 10.7 34.4 8.45 20.05 16.45 23.65.35.15-.25 1t-.95.7q-8.85-4-16.6-22.45-5.85-13.95-10.65-35.2-3.55 4.8-8.3 15.85-4.65 10.8-5.6 16.15-.1-7.15.4-8.75 2.05-6.5 6.1-14.3 4-7.75 7.2-11.45"/><path fill="#0f141b" d="M157 252.2q.65-.35.9-.25l.4.8q2.8 13.1 10.5 32.85 9.95 25.4 18.3 32.15.3.25-.55 1.15-.8.85-1.15.55-8.75-7-18.4-32.8-6.4-17.05-10.05-32.25-3 2.4-7.65 8.8-5 7-6.95 12.15l1.35-7.35q1.55-3.9 6.15-9.15 4.25-4.9 7.15-6.65M210.1 190.3q.6-1.05.85-.8 5.1 4.55 13 4.25 8.4-.3 13.5-6.2.4-.45.9-.45.6.05.6 1v.05q-.25 5.65-4.45 11.85-4.5 6.6-10.65 9.35 6.65 1.35 11.35-.95 2.35-1.15 1.1 1.15-4.05 7.55-12.85 10.6-5.9 2.1-12.6 1.85-.35 0-.75-1.05-.4-1.1-.05-1.1 5.95.25 11.25-1.2 8-2.2 12.1-7.8-3 .8-6.4.8-3.8-.05-7.1-1.2-.95-.3-.95-.8.05-.55 1-.8 5.7-1.55 10.8-7.4 4.85-5.5 6.1-11.05-5.65 5.05-13.7 5.45-8.2.45-13.4-4.3-.25-.2.35-1.25"/><path fill="#0f141b" d="M210.3 222.45q-.2-.2-.05-1.25.15-1 .35-.8 2.1 2.1 6.05 3.7 3.75 1.5 5.95 1.3 1.4-.15.85.75-.55.9-2.4 1.9-5.2 2.75-10.6 1.45-.35-.05-.3-1.15.05-1.1.4-1l4.35.35q2.6-.15 4.75-.9-2.4-.55-4.95-1.7-2.6-1.2-4.4-2.65M120.3 152.2q-.45-1.8.15-2.45.55-.6 2.55-.75 8.65-.05 19.55 2.5 8.85 2.1 12 3.85 1.45.8 4.2 5.5 2.55 4.4 3.7 7.65l-.7.65-.9-.05q-1.05-2.9-3.7-7.15-2.6-4.15-3.7-4.75-3.05-1.6-10.95-3.7-10.75-2.85-19.4-2.8l-1 .25q-.3.25-.15.85 1.05 4.6 7.05 12.9 5.35 7.35 7.05 8.35 1.7 1.05 4.35 2 2.95 1.05 5.85 1.5.35.1.2.9-.15.85-.5.8l-6.15-1.45q-3.45-1-5.4-2.2-1.85-1.1-7.1-8.85-5.85-8.65-7-13.55"/><path fill="#0f141b" d="M151.5 159.65q.75.5 3.2 5.1 2.3 4.3 2.85 6l-.7.6-.9-.05q-.5-1.5-3-5.6-2.35-3.9-2.9-4.4-1.8-1.1-8.6-2.45l-9-1.25q.55 2.4 2.95 6.95 2.5 4.75 3.9 5.75l4.75 1.55q4.6 1.25 7.25 1.3.4 0-.3.8-.75.85-1.1.8l-7.35-1.45q-3.95-1-4.7-1.6-1.6-1.1-4.75-7.95-3.2-6.95-2.05-7.65 1.2-.7 9.75.75 8.55 1.5 10.7 2.8"/></svg>