<svg xmlns="http://www.w3.org/2000/svg" width="375" height="507" viewBox="0 0 374.95 506.75"><path fill="#8b694e" d="M328.95 350q-.9 9.85-.95 13.8-.1 9.3 4.35 14.8 2.85 3.4 9.3 6.65 3.65 1.85 8.2 3.9 2.7 2.05 2.55 8.05-.2 5.65.25 12.3-.9 5.15-5.45 12.4-4.2 6.65-7.4 9.15-1.85-8.3-4.35-15.85-2.3-7.05-4.45-11.4-4.65-9.45-16.4-16.1l-10.2-5.35q-6.25-3.3-10.25-6.35-9.4-7.2-17.3-26.05-3.3-7.9-9.9-28.95-4.3-.8-8.85-2.7-5.45-2.25-7.6-4.75-3.65 3.9-10.75 6.1-6.95 2.2-14.65 1.95-9.55 15.2-26.15 26.45-14.55 9.95-36.3 17.9.95 3.5 6.2 10.95l5.2 7q-1.7 7.75-5.05 15.55-3.8 8.9-7 10.7-2.8-8.1-6.3-14.95-7.3-14.2-18.95-26.7-2.1-2.25-2.3-4.2-.2-1.95 1.45-4.15l5.45-6.35q3.75-4.3 5.7-7.55-.5-.5 5.85-15.5 6.85-16.25 11.7-20.75-8.65-6.75-18.5-33.1-7.1-18.95-10.15-32.95-2.2 1.4-6.85 7-4.6 5.65-7.2 10.1l4.65-25.7q2.15-13.1 1.75-18.6 9.7 3.8 14.45 4.5 3.2.4 5.9-.6 7.65-3.55 12.95-11.45 5.45-8.15 4.7-15.6-.85-8.1-10.2-13.1-7.65-4.15-13.95-3.7-1.8.15-3.5 4.05-1.55 3.55-2.05 7.6l-18.05 7.5-13.1 5.15q-.85-1.65-5.75-2.45-4.7-.8-8-.05 4.9-2.4 12-6.65 8.05-4.75 12.65-8.2 4.15-3.1 4.5-4.35l.45-4.3q.15-2.6 1.35-4.25 3.15-4.2 9.4-7.65 6.5-3.6 14.2-5.2 18.7-3.8 33 5.6 9.45-11.5 11.95-12.3 5.05-1.55 20.95-1.05 15.9.55 16.45 2.25.55 1.55-7.15 13t-9.75 12.25l-9.25.95-14.1-.15q1 5.3.95 14.2l-.4 17.25q-.35 24.15 4.7 42 1 3.45 6.35 7.3 4.8 3.45 9.8 5.05 13.75 4.45 31 6.95 20.35 2.95 34.2 1.1 35.2-4.6 47.1 23.05 8.05 18.6 7.85 38.85-.05 5.9-.95 15.7"/><path fill="#fffcdb" d="M149.55 189.95q4.2 1.2 6 5.6 1.7 4.15.6 9.45-1.2 5.45-5 9.6-4.25 4.65-10.65 6.15-3.85-.65-12.4-4.2-7.3-3.05-11.15-2.9-3.2.1-11.15 1.8-7.15 1.55-9.3 1.3 4-3.2 7-8.3 3.05-5.25 1.95-7.35 3.8-1.3 17.8-7l14.5-6.05q2.55 2.4 6.15 2.7 2.9.25 5.65-.8"/><path fill="#8b694e" d="M123.9 323.4q6.1 11.85 23.15 22.85-1.95 3.25-5.7 7.55l-5.45 6.35q-1.65 2.2-1.45 4.15.2 1.95 2.3 4.2 11.65 12.5 18.95 26.7l-2.05 4.85q-3.6 3.65-8.9 6.65-6.4 3.6-13.05 4.8-.85-.85-1.45-3.9 1.85-10.2 1.9-21.9-.2-.45-4.85-4.3-4.2-3.5-4.2-5.35l.6-9.05q.5-8.5 0-11-2.7-8.55-4.3-17.2-3-16.6-.5-34.8 1.85 13.3 5 19.4"/><path fill="#fffcdb" d="m153.65 400.05-8.35 17.1q-5.9 11.85-9.25 20.35-10.4 26.25-8.15 48-1.95-.45-4.15-1.6-2.15-1.2-3.65-2.55-.35 1.65-.4 5.05l-.1 4.95q-2.25-5.5-6.6-9.65-4.65-4.4-8.75-4.2l2.15-2.35q-1.35-1.85-2.35-6.25-1.1-4.75-.5-7.75 21.25-22.35 26.7-53.55.6 3.05 1.45 3.9 6.65-1.2 13.05-4.8 5.3-3 8.9-6.65"/><path fill="#fdd23f" d="M163.45 186.75q2.5 3.25 2.85 6.85.75 7.45-4.7 15.6-5.3 7.9-12.95 11.45l-3.45.2-4.7-.1q6.4-1.5 10.65-6.15 3.8-4.15 5-9.6 1.1-5.3-.6-9.45-1.8-4.4-6-5.6 3.05-.05 5.6-3.2 2.15-2.7 2.4-5.35 3.65 2.35 5.9 5.35M142.15 176.8q3.05-.2 6.85.8 3.85 1.05 7.35 3.05-5.05 1.7-19.75 7.8.5-4.05 2.05-7.6 1.7-3.9 3.5-4.05M120.85 179.4q-.35 1.25-4.5 4.35-.1-4.25 1.3-7.55 1.65-4.05 5-5.35-1.2 1.65-1.35 4.25l-.45 4.3"/><path fill="#fffcdb" d="M174.05 383.9q.8 1.15.65 3-.7 8.55 2.8 20.65 4 13.9 11.85 27.15 7.75 13.2 15.1 18.6-4.75 2.65-10.45 2.55 1.95 2.5 5.3 4.5-1.55 3.75-6.25 6.4-5.3 3-10.6 2-2.75-6.2-3.65-12.25-2.4-.5-5.3-1.95t-4.5-2.95q-.6-22.75-7-41.45 3.2-1.8 7-10.7 3.35-7.8 5.05-15.55"/><path fill="#8b694e" d="M239.3 390.15q-8.1-7.4-8.6-8.35-2.1-4.15-2.85-11.75-.75-7.1.05-12.75l9.8-2q4.8-.95 8-.95l15.1 1.75 19.7 1q-3.75 4.2-10.25 13.8-6.6 9.75-6.95 11.8-.75 4.3 2.8 9.75 3.7 5.75 3.7 6.6-.05 2.45-2 6.75l-4.7 9.2q-9.8 6.15-13.6 7.7l-5.5-.15q3.1-11.65 2.95-21.5-.45-4.25-7.65-10.9"/><path fill="#fffcdb" d="M263.1 415q-8.35 15.85-11.55 27.85-5.2 19.7-1.45 40.25-1.6 0-3.9-1.05L243 480l.3 5.25q-1.45.15-4-1.1l-4.8-2.65q-6.5-3.4-10.1-1.2l2.35-3.45 1.9-3.65q-1-1.65-1.95-4.55-1.15-3.35-1.25-5.75 5.55-7.85 10.4-18.2 5.25-11.2 8.15-22.15l5.5.15q3.8-1.55 13.6-7.7M124.05 214.8q3.95 1.2 4.05 2.2-1.7.1-6.45 1.45l-8.4 2.05q-11.05 1.95-15.95-3.65 2.1.2 8.9-1.35 7.45-1.75 10.75-1.85 3.05-.1 7.1 1.15M339.8 431.05q3.2-2.5 7.4-9.15 4.55-7.25 5.45-12.4 1.3 20.6 7.55 43.75 5.9 21.85 12.75 33.9-1.1 1-4.5 1.35l-6.1-.15.45 3.1q-4.45-.1-8.3-2.95-2.15-1.6-4.95-2.05-2.7-.4-4.65.5l1.75-3.2q-3.5-2.35-5.9-5.45 3.4-7.95 2.75-21.7-.5-11.6-3.7-25.55M220 328.75q6 1.45 15.25-.8 8.35-2.1 15.25-6.05 3.3 3.25 9.75 4.95 4.95 1.3 8.95 1.2 5.8 17.7 11 28.4l-18.45-.7-16.05-1.4q-15.65 2.75-26.5 4.1-20.25 2.55-37.7-.55 24.8-12.3 38.5-29.15"/><path fill="#fdd23f" d="M235.25 327.95q-9.25 2.25-15.25.8 2.9-3.6 5.1-7.15 7.7.25 14.65-1.95 7.1-2.2 10.75-6.1 2.15 2.5 7.6 4.75 4.55 1.9 8.85 2.7l2.25 7.05q-4 .1-8.95-1.2-6.45-1.7-9.75-4.95-6.9 3.95-15.25 6.05"/><path fill="#662c1f" d="M195.95 484.15q-3.75-1.45-7.4-5.65-3.55-4.1-6.1-9.75 5.3 1 10.6-2 4.7-2.65 6.25-6.4 2.5 1.35 5.6 2.35 1.7 5.65-1.3 13.05-3.05 7.5-7.65 8.4M104.25 477.5q4.15-.2 9.15 4.85 4.8 4.95 6.45 10.55-1.45 2.15-8.85 3.8-8.3 1.85-13.25-.5-.55-6.65 1.7-11.7 1.45-3.35 4.8-7M344.9 486.95q1.95-.9 4.65-.5 2.8.45 4.95 2.05 3.85 2.85 8.3 2.95.95 5 .3 6.85-2.35 3.25-8.3 5.3-6.6 2.3-13.15 1.35-1.9-.25-1.15-5.85.8-6.1 4.4-12.15M224.4 480.3q3.6-2.2 10.1 1.2l4.8 2.65q2.55 1.25 4 1.1.1 3.85-.45 5.45-5.05 3.2-13.15 4.85l-9.9.35q-.25-5.15 1.2-9.25 1-2.85 3.4-6.35M105.6 201.6q.25 3.85-3.85 9.45-4 5.5-6.1 4.85-3-.95-5.2-6.55t-1.15-9.3q.7-2.35 7.75-1.95 7.05.45 8.4 3l.15.5M192.55 173.95l-13.3-.9q2.25-4.45 5.75-8.75 4.95-6.05 9.05-6.95 3.6-.75 11.5.3 7.7 1.05 7.7 2.1 0 1.5-3.1 7.1-3.2 5.8-4.6 6.2-3.45 1.05-13 .9"/><path fill="#fff" d="m137.15 188.15 19.85-7.5q-.4 6.4-6.85 8.95-6.5 2.6-13-1.45"/><path fill="#ad191f" d="M253.65 291.85q.6-1.6 3.45-1.85 2.75-.25 5.7.85 2.85 1.1 4.35 3 1.55 1.9.9 3.5-.6 1.6-3.05 1.9-2.4.25-5.35-.85-2.95-1.15-4.75-3.05-1.85-1.95-1.25-3.5M247.15 272.55l7.75.7q2.2 2.25 1.45 4.25-.75 2.15-4.35 2.75-3.6.6-7.95-.7-4.3-1.3-6.85-3.8-2.55-2.45-1.8-4.6l11.75 1.4"/><path fill="#fffcdb" d="M125.4 270.75q4.5-8.95 7.4-12.3 3.85 18 10.6 34.15 8.35 20.1 16.6 24.3-3.55 3.75-8.8 16.75-2.65 6.5-4.6 12.25-19.95-13.05-25.75-30.1-3.55-10.5-2.3-29.15 2.45-7.15 6.85-15.9"/><path fill="#fdd23f" d="M143.4 292.6q-6.75-16.15-10.6-34.15-2.9 3.35-7.4 12.3-4.4 8.75-6.85 15.9.75-10 3.35-25.6 2.6-4.45 7.2-10.1 4.65-5.6 6.85-7 3.05 14 10.15 32.95 9.85 26.35 18.5 33.1-2.4 3.15-4.6 6.9-8.25-4.2-16.6-24.3"/><path fill="#ea5532" d="M131.75 32.25Q148 30.55 156 42.1q7.35 10.7 3.35 25.05-11.9 8.7-11.35 21 .2 5.2 2.85 9.25 2.7 4.1 7.05 5.65-2.2 3.4-1.9 8.3.25 4.65 2.6 9.4-3.5 3.15-8.9 5.75-4.9 2.4-6.85 2.4l-13 4.15q-5.95 4.15-14.6 2.1-8.25-1.9-11.65-7.35.45-6.4-1.65-12.25-2.2-6.15-6.65-10.1-5.75 5.25-8 12.65-2 6.6-.75 13.35-1 7.85-4.8 14.65-3.9 7.1-9.3 10.1 10.1 3.2 15.95 9.35 5.55 5.85 5.45 12.35-4.1 3.05-9.75 2.9-4.75-.15-7.85-2.25Q80 183.2 80 192.6q.05 9.4-3.75 14.6 7.85 2.05 11.7 8.7 3.55 6.15 2.4 13.5-4.3.9-10.15-.65-5.7-1.55-9.95-4.6 4.05 9.05 3.4 21.15-.6 11.6-5.15 20.4-15.8-11.3-15.55-29.65-1.75 3.05-7.25 6.95-5.15 3.7-8.1 4.45-2.5-12.6 1.65-22.3 3.35-7.85 10.05-12.1-11.1-6.8-12.55-18.15-1.5-11.45 7.8-21.15-4-1.7-7.15-5.9 3.15-3.35 4.9-7.45 1.7-3.9 1.95-8.05-6.5-2.55-13-.6-1.05-7.45.8-13-6.3-3.15-9.5-8.4-3.15-5.15-2-9.8-4.55 0-10.95-2.05-6.65-2.2-8.3-4.5 1.9-5.7 8.9-10.6 7.4-5.15 14.55-4.9-2.05-7.7 1.95-15 5.05-9.15 18.2-12.6-1.2-6.5 1.75-11.6 2.7-4.7 7.55-6.2 2.7.95 5.75 1.25 6.6.55 9-2.8 2.15-3 .05-7.3 2.05-2.2 5.75-4.15 3.55-1.9 5.65-2-3.8-7.65-.35-21.4Q83.5 2.75 90.05.85q4.05 1.65 6.4 10.05 2.35 8.55 1.1 17.45 7.05-8.85 18.25-7.4 10.95 1.45 15.95 11.3"/><path fill="#ea5532" d="M340.1 156.95q-.1 5.55-2.4 10.6 6.3 1 11.9 5.5 5.95 4.75 7.4 10.7-4.8 3-10.65 4.45-6.05 1.55-10.45.7.05 1.4-.75 2.85-.8 1.35-1.8 1.95 8.05 6.6 7.8 17.2-.25 9.6-6.2 14.4-6.45-4.4-14.75-5.9-1.6 7.2 1.25 14.05 2.65 6.35 8.3 10.65 3.4 9.45 1.9 22.45-1.55 13.45-7.3 20.65-8-3.6-12.6-15.1-4.3-10.85-2.5-19.85-5.7 6.7-15.5 8-3.15-7.5.75-16.7 4.05-9.45 12.55-13.55-6.7-5.45-7.05-14.85-.4-10.1 7.55-16.55-4.6-3.25-7.55-8.8-3.05-5.75-3.1-11.9-5.1 13.45-20.1 20.4-3.95-5.1-2.85-15.6 1.15-11.15 7.6-18.3-10 0-17.65-5.95-8.65-6.75-9.3-18l-4.6.55q-2.55-.25-4.9-1.4 2.75 8.45-.65 20.85-7.4-2.35-12-10.35-4.5-7.9-3.2-15.95-12.6 6.25-22.1-.15-8.9-5.95-9.55-18.3l-23 17.75q-4.85-.3-9.3-4-4.15-3.45-6.7-8.7-2.35-4.75-2.6-9.4-.3-4.9 1.9-8.3-4.35-1.55-7.05-5.65-2.65-4.05-2.85-9.25-.55-12.3 11.35-21 5.7-4.2 13.8-6.7-2.95-13.25 3.35-20.95 6.95-8.6 23.1-6.7.8 6.3 4.05 10.15 3.35 3.95 7.7 3.2 4.15-.75 5.3-6.65 1.1-5.75-1.25-12.65 13.6-14.6 31.1-11.9 7.55 1.15 13.6 5.55t8.9 10.9q3.9-9.05 13.95-14.45 9.5-5.1 20.15-4.85-.45 8.3-3.75 15.5-3.9 8.55-10.6 12.5 9.3-1.2 17.75 3.85 7.75 4.6 9.25 10.6-3.6 2.9-10.7 4.5-6.65 1.55-12.55 1.15 9.55 4.15 13 13.45 3.45 9.2-1.3 17.2 14.85 5.35 19.75 16.65 4.05 9.4.75 21.05-8.4 3.55-11.8 13.65 2.9 6.1 10.25 7.35 6.75 1.2 14.35-2.05 2.65 3.4 2.6 9.45"/><path fill="#ad191f" d="M346.2 249.2q-4.55.45-9.7-1.5-5.3-1.95-9.4-5.8-9.9-9.25-6.9-22.5 10.9 2.05 18.45 9.2 9.05 8.65 7.55 20.6M332.35 126.9q5.7-.25 11.4 1.85 5.35 2 8.45 5.2-2.25 5.25-7.8 9.35-5.25 3.95-11.6 5.55-6.55 1.65-11.75.15-5.7-1.65-8.15-6.8 4.9-14.6 19.45-15.3M204.6 12.95q9.7 5.6 11.95 18.9.95 5.55-.4 9.5-1.35 4.2-4.8 4.8-4.25.75-7.4-2.45-2.95-2.95-4.1-8.35-1.15-5.45-.05-11.25 1.2-6.35 4.8-11.15M95.3 105.45q8.85 7.85 8.6 20.6-.2 12.45-8.6 19.35-9.4-5.2-9.6-17.95-.25-13.05 9.6-22M13.05 177.4q-.3-12.7 10.15-21 10.4-8.25 21.05-4.05-.55 10.4-8.4 17.35-8.6 7.6-22.8 7.7M46.8 30.85q7.1 1.1 13.25 4.45 6.1 3.4 8.7 7.55 2.8 4.55.4 8.4-2.75 4.4-9.2 3.65-5.65-.65-12.5-4.9-6.5-4.05-10.75-9.15-4.5-5.4-3.9-9.05 6.25-2.1 14-.95"/><path fill="#8b694e" d="M338.5 316.25q1.95 1.5 3.95 3.95 1.75 2.15 2.05 3.05-2.75 1.5-7.4 1.8-4.7.35-7.7-.8.55-8.05-3.15-18.95-4.25-12.5-12.05-21.7 10.4 3.8 25.4 12.25 16.7 9.5 21.6 15.4-2.9 2.45-8.85 3.85-6.4 1.5-13.85 1.15"/><path fill="#662c1f" d="M197.85 115.7q0 6.15 2.65 10.05 1.3 2 2.6 2.7-11.05 6.45-15.75 12-9.25 13.4-12.55 22.05l-6.25.2q-3.7-1.35-4.9-3.85l3.3-10.7q2.65-8.5 2.95-8.95 1.65-2.65 7.1-7.4 1.85-14.1 3.7-25.6l7.7-4.55q.35 7.45-.4 21.2 5.95-4.55 9.85-7.15"/><path fill="#fdd23f" d="M184.05 98.9q1.6-1.25 2.65-.85 1.3.55 1.65 2.7.3 2.2-.55 4.65-.95 2.75-2.85 4.25-1.7 1.35-2.85.8-1.3-.6-1.4-3.05-.1-2.25.75-4.75.8-2.35 2.6-3.75"/><path fill="#fffcdb" d="M121.55 241.8q1.15-4 5.25-7.2 4.95-3.85 11.1-3.4 10.05.85 16.75 10.25 7.1 9.95 7.7 25.95 6.5 2.55 10.7 6.8 3.8 3.8 3.8 6.75-2.25 4.4-7.35 7.05-3.5 1.8-10.3 3.55 8.65 6.9 9.8 14.95-5.5 1.05-10.85-.85-4.95-1.7-8.85-5.5-.4 8.55-7.05 17.95-6.15 8.55-13.4 12.55-3.8-3.65-7.45-9.9-4.2-7.15-4.6-12.15-3.7 3.25-10.9 4.05-1.7-3.7-2.3-7.9-.9-6.25.95-11.7-4.8-1.65-8.4-5.5-3.7-4-4.3-8.55 3.9 1.55 14.05.75l-.3-.15q-5.9-2.55-9.65-6.5-4.3-4.5-7.25-12.05 2.6-2.85 7.95-4.45 5.45-1.65 11.5-1.3.25-6.75 4.9-11.4t8.5-2.1"/><path fill="#662c1f" d="M146.5 139.8q4.25 11.7 4.6 17.25l-13 3.65.05-.2q-.65-6.9-3.55-15.9-2.5-7.65-4.2-10.35-1.05-1.6-9.65-11.65l-10.85-12.95 3.85-5.75 15.15 13.6 13.7 12.2 3.9 10.1"/><path fill="#fdd23f" d="M108.7 102.5q1.1-1 2.75-.35 1.45.6 2.55 2.05 1.2 1.7 1.5 3.5.3 1.95-.55 3.3-.8 1.3-2.55.6-1.65-.65-3-2.55-1.25-1.8-1.45-3.75-.2-1.95.75-2.8"/><path fill="#8b694e" d="M122.5 142.7q8.7 2.2 12.15 4.15.95.55 1.8 5.75 1.1 6.55 1.65 8.1l-12.95 7.6q-6.05-.95-10.5-3.65-1.8-1.15-7.2-8.6-6.15-8.6-7.3-13.45-.25-1.2.1-1.65.4-.45 1.85-.55 8.8-.65 20.4 2.3"/><path fill="#662c1f" d="M118.8 148.15q8.6 1.75 10.75 3.1.55.35 2.9 4.65 2.35 4.3 2.95 6l-5.05 2.95q-2.75-.05-7.35-1.55-3.95-1.2-4.85-1.85-2.65-1.75-5.95-7.6-3.25-5.75-2.55-6.9.8-.5 9.15 1.2"/><path fill="#755841" d="M159.45 216.9q-6.9 8.65-16.95 10.6-7.4 1.4-14.4-.9l.45-5.65-.25-4.2q11 4.35 17.1 4.45 6.45.1 14.05-4.3M124.05 326.45q6.15 8.9 23 19.8-1.7 2.85-4.55 6.25l-4.75 5.4q-4.75-8.4-8.5-13.15-4.85-6.15-10.6-9.8l-1.2-10.3q-.55-6 .35-12.45l2.4 6.95q1.55 4.05 3.85 7.3M229 377q-1.1-4.55-1.4-10.05-.3-5.5.3-9.65l9.8-2q4.8-.95 8-.95l15.1 1.75 19.7 1q-3.75 4.2-10.25 13.8-6.6 9.75-6.95 11.8-.65 3.7 1.7 7.95 1.3 2.4 3.95 6.1-8.1-7.35-18.4-12.4-10.1-4.95-21.55-7.35"/><path fill="#dddabe" d="M219.2 358.45q-20.25 2.55-37.7-.55 11.25-5.65 19.8-11.85 12.1 1.1 21.95.05l22.2-2.5 13.9.9q8.85.7 15.1-1.9 3.2 8.5 5.75 13.85l-18.45-.7-16.05-1.4q-15.65 2.75-26.5 4.1"/><path fill="#501e12" d="M118.2 488.95q1 1.9 1.65 3.95-1.3 1.9-7.85 3.55-7.3 1.85-12.45.4 11-1.9 18.65-7.9M363.1 498.3q-2.35 3.3-8.95 5.5-7.25 2.4-13.7 1.1 17.25-4.95 22.55-12.3.7 3.9.1 5.7M242.85 490.7q-3.75 2.4-9.7 4.05-5.35 1.45-9.6 1.6 10.25-3.3 19.2-11.1h.55q.1 3.85-.45 5.45"/><path fill="#dddabe" d="M135.2 326.3q7.4 4.2 15.85 7.7-2.6 6.35-4.45 11.9-10.7-7-17.3-15.05 3.4-1.9 5.9-4.55"/><path fill="#cb492a" d="m124.35 127.8 4.7 5.75q-6 3.6-14.3 1.5-7.9-2-11.15-7.25.3-4.8-.85-9.55 3.45 3.95 8.9 5.15 5.15 1.2 8.85-.7l3.85 5.1M158.6 120.75q-3.5 3.15-8.9 5.75-4.9 2.4-6.85 2.4L131 119.45q7.3 2.25 15.15-1.85 7.9-4.15 10.45-11.65-1 3.2-.4 7.2.55 3.8 2.4 7.6"/><path fill="#cb492a" d="M167.45 122.4q6.15 2.05 11.35 1.05l-.6 3.8-.55 3.8-3.05 2.4q-6.45-.4-11.6-6-4.55-5-6.35-11.95 4.35 4.7 10.8 6.9"/><path fill="#930f15" d="m346.45 247.65-.25 1.55q-7.55.75-15.25-4.25-8.35-5.45-10.65-14.15 13.35 12.55 26.2 15.4l-.05 1.45M334 143.15q10.3-2.5 17.95-8.65-2.3 4.9-7.45 8.75-4.95 3.7-10.9 5.4-6.15 1.7-11.2.65-5.6-1.1-8.45-5.3 10.2 1.5 20.05-.85M203 42.55q4.7-.15 8.3-3.3 3.2-2.85 5.2-7.75 1 5.7-.3 9.75-1.35 4.3-4.85 4.9-5 .85-8.35-3.6M90.95 141.9q4.5-3.4 7.85-8.9 3.15-5.2 4.85-11.55.95 6.85-1.25 13.35-2.25 6.6-7.1 10.6-2.45-1.3-4.35-3.5M13.05 176.35q9.25-1.3 17.2-6.2 8.1-5 13.25-12.85-2.25 8.7-9.8 14.1-8.3 5.95-20.65 6v-1.05M55.2 47.95q9.65.9 14.25-3.75 1.7 3.85-.3 7.05-3.65 5.85-13.4 2.7-8.6-2.75-16.2-10.05 8.55 3.4 15.65 4.05"/><path fill="#501e12" d="m174.8 162.5-6.25.2q-3.7-1.35-4.9-3.85l2.45-7.95q7.85 1.5 16.3-2.95-5.05 7.9-7.6 14.55M151.1 157.05l-13 3.65.05-.2q-.45-4-1.45-8.3h.3q3.65 0 6.6-2.1 2.75-1.95 4.6-5.45 2.65 8.3 2.9 12.4"/><path fill="#cb492a" d="M229.25 134.15q-11 5.45-19.85 1.15-8.2-3.95-10.9-13.9 4.8 5.7 15.3 7.8 10.2 2 18.5-.6-1.5 5.3 1.35 14.2 3.15 9.8 8.85 12.3.7-1.15 1.6-6.6l1.1-7.65q1.45 5.45.9 11.35-.35 3.55-1.65 8.25-7.4-2.35-12-10.35-4.5-7.9-3.2-15.95M332.75 257.7q-.3 7.75-2.55 16.2-2.45 9.05-5.85 13.3-8-3.6-12.6-15.1-4.3-10.85-2.5-19.85-5.7 6.7-15.5 8-3.15-7.5.75-16.7 4.05-9.45 12.55-13.55-6.7-5.45-7.05-14.85-.4-10.1 7.55-16.55-4.6-3.25-7.55-8.8-3.05-5.75-3.1-11.9-5.1 13.45-20.1 20.4l-.15-.2q7.95-8.7 15.7-20.75 6.95-10.75 7.15-13.25-.45 12.2 7.65 23.6 6.35 8.9 11.85 11.25-10.1 8.8-9.8 20.45.15 4.2 1.6 7.8 1.3 3.15 2.7 4-6.3 4.9 1.7 14.55 7.5 9 17.55 11.95M347.25 172.2l-9.1.4q-5.15 1.6-6.9 1.85 1.8-1 3.75-3.1l2.25-2.9q.6-1.05 4.9.4 4.4 1.4 5.1 3.35M76.25 178.55Q80 183.2 80 192.6q.05 9.4-3.75 14.6 7.85 2.05 11.7 8.7 3.55 6.15 2.4 13.5-4.3.9-10.15-.65-5.7-1.55-9.95-4.6 4.05 9.05 3.4 21.15-.6 11.6-5.15 20.4-4.75-3.45-7.8-7.15 3.65-6.85 5.2-15.1 2.35-12.2-.4-25.25 9.4 5.05 9.75-1.7.15-2.75-1.5-6.35-1.7-3.65-4.5-6.45 4.25-2.55 4.7-11.3.55-9.6-5.2-16.7 3.9-2.85 1.6-10.6-2.15-7.2-7.6-12.85 9.05-3.15 15.7-14.65 3.55-6.1 9-20.95l-1.1 6.3q-.85 5.3.2 8.5-1 7.85-4.8 14.65-3.9 7.1-9.3 10.1 10.1 3.2 15.95 9.35 5.55 5.85 5.45 12.35-4.1 3.05-9.75 2.9-4.75-.15-7.85-2.25M27.8 113.45q-4.7 2.45-6.15 4.15-.85.95-1.4 3.35l-9.3-2.15q-8.05-2.25-9.45-4.6l9.85 1.1q10.05.6 16.45-1.85"/><path fill="#0f141b" d="m164.4 156.25-.85 2.6q-20.9-3.75-39 11.25-1.8 1.5-2.3 4.8l-.6 4.7q-.7 2.6-11.6 9.55-9.55 6.1-16.9 9.5l-1.95-.05q-1.4-.4-.95-.55 5.1-1.75 17.05-9.45 12.1-7.85 12.7-9.95l.15-4.9q.25-3.35 2.9-5.55 9.35-7.7 19.85-10.75 10.55-3.05 21.5-1.2M180.5 161.8l-2.15 2.25-3.15-1.65 1.3-2.65q2 .8 4 2.05M327.15 363.75q0-3.2.85-12.85 1.45-15.2.55-26.05-1.3-15.2-7.3-29.05-5.9-13.65-17.3-19.2-11.45-5.6-28.9-3.35-14.35 1.85-35.4-1.3-17.15-2.55-30.15-6.8-5.15-1.65-10.05-5.15-5.6-4-6.65-7.8-3.6-12.7-4.45-27.35-.5-8.55-.1-23.5l.15-12.15q-.1-6.15-.9-10.35l2.9.15q.6 4.05.65 9.9l-.2 11.35q-.45 16.5-.15 23.6.65 14.9 4.15 27.3.9 3.25 5.65 7.1 4.65 3.75 9.5 5.3 13.5 4.4 33 6.5 20.2 2.15 33.85.4 17.65-2.3 29.65 3.95 11.75 6.15 17.85 20.35 6.5 14.95 7.05 31 .25 6.75-1.4 24.8l-.7 6.8q-.4 3.95-.45 6.45-.1 9.25 4.7 14.65 2.85 3.15 9.45 6.2 7.2 3.05 8.2 3.9 2.85 2.4 2.65 8.6-.65 22.2 5.7 48.65 6.05 25.15 15.05 40.95.35.55-.15 1.05-1.35 1.2-5.5 1.55-3.75.3-6.6-.15-.35-.05-.2-.9.15-.85.5-.8l5.15.2q2.7-.2 4.05-.9-7.8-14.1-13.9-39.05-6.45-26.3-6.45-47.2 0-7.75-.95-9.15-1.15-1.75-9.25-5.35-5.85-2.65-9-6.4-5.1-6-5.15-15.9"/><path fill="#0f141b" d="M118.45 177.25q-1.25 3.25-1.15 6.2.05.35-.8.35-.85.05-.85-.3-.15-4.75 1.25-8.05 1.7-4.05 5.5-5.3.3-.1.05.9l-.55 1.2q-2.1 1.4-3.45 5M362.2 481.85q.85-1.55 1.6-1.55.75 0-.1 1.55-.85 1.5-.75 4.15.05 1.6.65 5l.8 4.4q.3 2.5-.3 3.35-2.55 3.5-9.2 5.7-7.05 2.3-13.7 1.35-3.05-.45-1.5-7.75 1.45-6.95 5.2-12.7 1.25-1.9 1.4-3.95.1-1.2-.2-3.2-.2-1.5.45-1.15.7.35.9 1.85l.35 3.15q-.1 2.05-1.5 4.2-3.65 5.65-4.8 12-1.05 5.65.3 5.85 6.4.95 12.75-1.3 5.5-1.95 7.75-4.85.5-1.75-.35-6.65-.65-3.9-.7-5.55 0-2.25.95-3.9"/><path fill="#0f141b" d="M344.5 486.4q2.1-1 4.95-.7 3.1.3 5.55 2.1 2.25 1.65 4.25 2.15l3.55.2q.35-.05.35 1 .05 1.05-.3 1.1l-4.05-.45q-2.2-.65-4.8-2.6-2-1.5-5-1.65-2.65-.15-4.45.7-.35.15-.35-.75-.05-.95.3-1.1M264.25 315.75q-.55-2.25 0-3.45.5-1.2 1.15.9 7.85 25.85 14 39.5 7.4 16.6 15.3 22.6 4.55 3.45 14 8.3 9.05 4.65 13 7.65 6.6 5.05 10.05 12.15 7.25 14.7 10.85 37.45 4 25.05-.85 37.25 1.4 1.75 3.2 3.3l2.1 1.6q.2.15-.2.9t-.7.55q-4.45-2.65-6.9-5.8-.25-.35-.1-.85 5.95-14.15 1.05-40.5-3.8-20.5-10-33.15-3.25-6.65-10.2-11.55-3.3-2.3-13.25-7.35l-7.2-3.85q-4.05-2.35-7.1-4.65-8.4-6.4-15.75-22.75-6.8-15.15-12.45-38.25M102.9 207.5q2-3.75 1.85-5.85-.1-1.65-7.15-2.3-7-.7-7.5.95-.65 2.4.2 6.15.9 3.75 2.65 6.3 1.65 2.3 2.65 2.45 1.1.1 3.1-1.85 2.3-2.3 4.2-5.85m3.95-5.95q.2 2.45-2.15 6.55-2.1 3.75-4.8 6.45-2.35 2.35-4.05 2.4-2.05 0-4.3-3.2-1.9-2.75-3.1-7.35-1.25-4.9-.35-7 1.35-3.15 10-2 8.55 1.1 8.75 4.15"/><path fill="#0f141b" d="M160.95 217.6q-6.9 4.1-13.1 4.95-4.45.6-10-1.15-1.75-.55-8.95-3.6-7.45-3.1-11-3.3-3.2-.15-12.1 1.85l-7.2 1.2q-2.95.1-4.25-1.4-.25-.25.6-.6.85-.3 1.05 0 1.15 1.35 9.4-.85 9.4-2.55 12.9-2.45 4.05.1 11.05 3.4 5.35 2.55 8.55 3.55 4.95 1.45 9.25.85 6.05-.85 13.65-4.85 5.9-3.15 7.9-5.15 1.95-1.95 1.65-.8-.3 1.1-2.25 3.05-2.45 2.45-7.15 5.3"/><path fill="#0f141b" d="M127.5 216.15q.4-.05 1.7.75 1.3.8.9.75-1.85-.1-8.4 1.6-8.9 2.55-13.2 2.7-8.25.35-12.65-4.8-.2-.25.7-.65l1.2-.15q4.3 4 11.55 3.65 4.15-.15 11.95-2.35 4.45-1.3 6.25-1.5M142.05 175.95q7.55-.6 15.9 4.5 9.1 5.55 9.85 13.05.8 7.9-5.2 16.4-5.95 8.4-14.4 11.65l-1.45-.35q-1.15-.5-.8-.6 8.55-3.15 14.45-11.35 5.8-8.1 5.05-15.6-.7-6.85-8.85-11.9-7.5-4.65-14.4-4.1-1.3.1-2.65 3.3-1.35 3.2-1.7 7.1-.05.35-1.2.6l-1.15-.15q.4-4 2.15-7.85 2-4.5 4.4-4.7"/><path fill="#0f141b" d="M156 180.85q0-.35 1-.25 1.05.15 1 .5-.4 6.55-7.2 9.35-7 2.85-14.1-1.6-.3-.2.15-.9.45-.75.75-.55 6.05 3.8 12.15 1.4 5.9-2.4 6.25-7.95"/><path fill="#0f141b" d="M149.3 190.75q-.3-.05.65-.7 1-.65 1.25-.55 4.2 1.6 5.8 6.2 1.55 4.35.25 9.7-1.3 5.45-5.05 9.6-4.15 4.6-10.1 6.1l-1.7-.45-1.05-.65q6.3-.9 10.6-5.2 3.8-3.8 5.1-9.25 1.25-5.15-.25-9.3-1.6-4.4-5.5-5.5M182.6 157.85q6-7.45 8.25-8.15l20.85-.75q16.9.7 17.75 3.3.65 2.1-7.35 14.25-7.85 11.95-9.9 12.75l-15.6.7q-12.05-.45-17.1-1.5-2.25-.5-2.45-1.3-.2-.8 1.5-.4l17.25 1.15 15.6-.95q1.7-.65 8.95-11.35 7.2-10.6 7.45-12.7-2-1.4-16.7-1.8-15-.4-19.65 1.05-1.6.5-7.4 7.1-5.1 5.8-8.15 10.05-1.2 1.65-1.4.95-.2-.75.85-2.55 2.3-3.7 7.25-9.85"/><path fill="#0f141b" d="M194.25 158.2q-3.65.75-7.85 5.65-3.2 3.7-5.8 8.5l14 .7 10.65-.8q1.05-.4 3.9-5.5 2.85-5 3.15-6.7-1.55-.85-8.05-1.65-6.95-.85-10-.2m-.45 16.75-14.65-1.05-.8-.3q-.2-.25.15-.95 2-3.85 4.8-7.6 5.5-7.45 10.6-8.55 3.65-.75 11.85.2 8.6 1 8.6 2.75 0 1.65-3.45 7.8-3.6 6.45-5.4 7l-11.7.7M178.7 247.45q.25-1.05.85-.45.55.65.3 1.65-1 4-5.35 11.4-1.2 2.05-1.65 1.9-.45-.15.75-2.35l2.8-6q1.8-4.1 2.3-6.15M127.9 233.75l-2.55 2.8q2.3-14.05 1.6-19.4-.05-.35 1.05-.45 1.05-.1 1.1.25.65 5.1-1.2 16.8M130.85 330.2q6.95 9.15 16.85 15.45l-.7 1.25-.75 1.2q-13.35-8.25-21.05-20l1.95 1.35q2.65 1.7 3.7.75M178.15 359.85l4.6-2.65q18.25 2 32.3.95 8.05-.65 19.05-3l6.1-1.2 5.5-.5 15.05 1.6 19.05.8q.35-.05 1 1.25.65 1.25.3 1.3-6.3.8-20.6-1.1l-14.8-2.15-5.3.5-5.95 1.2q-13.1 2.8-20.8 3.6-16.5 1.65-35.5-.6"/><path fill="#0f141b" d="M226.3 357.9q.05-.3 1.45-.45l1.4-.05q-.9 5.35-.3 12.4.6 7.55 2.6 11.6.65 1.3 5.45 5.5 4.9 4.3 6.95 6.7 3.6 4.1 3.95 7.4v.95q0 14.3-6.7 32.35-6.05 16.4-14.8 28.85.15 2.55 1.25 5.75.95 2.9 1.7 3.75.15.15-.5.75-.6.6-.8.35-1.35-1.65-2.95-6.15-1.6-4.4-1.15-5 9-12.8 15.35-29.05 7.15-18.5 6.9-32.4-.3-2.8-3.85-6.65l-6.85-6.4-3.8-3.15q-1.8-1.55-2.3-2.5-2.25-4.6-3.1-11.9-.85-7.1.1-12.65M279.3 356.25q.25-.25 1.05 1.35.85 1.6.6 1.85-3.65 3.9-9.95 12.55-6.55 9-6.85 10.85-.5 2.8.95 6.05.8 1.85 3.05 5.1l2.3 2.95q1.25 1.6 1.25 2.5-.05 2.5-1.95 6.35l-4.65 8.35q-8.95 15-12.55 28.25-5.25 19.5-1.35 40.95.2 1.05-2.2.65-2.8-.5-6.3-3.1-.2-.1.2-1 .45-.85.65-.6.5.7 2.2 1.6 1.75.9 3.3 1.25-1.4-8.4-1.4-16.25 0-15.45 5.35-30.7 3.1-8.75 10.2-22.2l4.05-8.05q1.65-3.75 1.7-5.95 0-1-2.2-4.05-2.85-4.05-3.8-6.85-.95-2.8-.45-5.55.4-2.35 6.9-12.55 6.55-10.2 9.9-13.75"/><path fill="#0f141b" d="M243.55 470.6q.55.4.15 2.15-.65 3.05.4 9.8.95 6.35.3 8.3-.7 2.15-11.55 4.7-11 2.6-14 1.05-.9-.5-.15-5.05 1.05-6.05 5.8-12.9 2.35-3.35 3.2-5.25 1.3-3.05 1.2-6.6-.05-1.8.65-1.15.65.6.65 2.25 0 3.75-1.25 6.6-.75 1.75-3.05 5.1-3.7 5.4-4.8 9.95-.55 2.35-.45 5.75 2.55.75 9.3-.7 7.4-1.55 12.15-4.45.55-1.2.15-8.3-.4-7.4.3-9.85.5-1.75 1-1.4"/><path fill="#0f141b" d="M243.5 485.05q.2.85-.15.9-1.45.35-3.5-.45l-4-2.1q-3.7-2.15-6.1-2.65-3.4-.8-5.65 1.1-.25.25-.3-.65-.05-.85.2-1.1 2.8-2.35 6.45-1.3 1.6.5 6.25 3.15l3.5 1.85q1.75.75 2.75.5.35-.05.55.75M262.5 291.55q-2.65-1-5.15-.85-2.55.15-3.05 1.4-.4 1.05 1.3 2.8 1.75 1.8 4.35 2.8 2.6 1 4.75.85 2.15-.15 2.65-1.45.45-1.25-1.2-3.05-1.6-1.75-3.65-2.5m-9.55 0q.7-1.9 4.1-2.1 3.1-.2 6.3 1 2.9 1.15 4.5 3.1 1.65 2.1.9 4.05-.65 1.85-3.3 2.25-2.65.4-5.8-.8-3.25-1.2-5.25-3.3-2.2-2.25-1.45-4.2M255.45 272.75q2.45 2.55 1.6 5-.85 2.45-4.8 3.05-3.9.55-8.65-.9-4.8-1.4-7.3-4.1-2.4-2.6-1.6-4.9.05-.15.7.2l.7.3q-.6 1.7 1.8 3.95 2.45 2.3 6.4 3.45 4.2 1.3 7.6.75 3.15-.55 3.75-2.3.35-.9-.35-2.25l-1.25-1.8.7-.25.7-.2M239.5 320.85q-7.05 2.2-14.6 1.9-.35 0 .05-1 .4-1 .75-1 7.5.3 14-1.75 6.55-2.1 10.2-6 .6-.65 1.25 0 2.25 2.6 7.2 4.65 4.2 1.7 7.95 2.2.4.1.35 1.1 0 1-.4.95-3.55-.5-7.9-2.3-5.1-2.15-7.85-4.85-4.05 3.9-11 6.1"/><path fill="#0f141b" d="M235.05 329.3q-8.95 2.35-14.8.6-.35-.1-.2-1.1.15-.95.5-.85 5.6 1.7 14.55-.6 7.8-2.05 15-6.15l1 .1q3.15 3.15 9.25 4.8 4.9 1.35 8.6 1.1.4 0 .3 1.05-.1 1.05-.5 1.1-3.45.2-8.5-1.3-6.15-1.8-9.85-5.1-7.65 4.3-15.35 6.35M178.35 295.1q1.4-.3-.35 1.3-4.95 4.6-9.8 10.85l-.2-.05v-3.15q2.6-2.85 7.1-7 1.8-1.7 3.25-1.95"/><path fill="#0f141b" d="M148.55 338.3q3.6-10.8 7.55-18.1 3.85-7.2 9.6-13.7l2.3.7v.35q-11.4 14.8-17.6 33.55-1.35 4.05-4.4 8.3l-5.7 6.9q-4.35 4.9-4.85 7.1-.5 2 1.9 4.55 13.25 14.2 20.75 30.2 10.85 23.2 11.75 53.05 1.7 1.5 4.3 2.8 2.6 1.25 4.7 1.55.3.05.35 1.3.05 1.2-.3 1.15-2.2-.3-6.75-2.65-4.75-2.4-4.8-3.45-.85-31.3-10.8-53.2-7.25-15.85-21.05-29.55-3.35-3.3-2.55-6.1.65-2.15 5.4-7.5 3.7-4.15 5.85-7.7 2.6-4.25 4.35-9.55"/><path fill="#0f141b" d="m161.85 366.15.1-.5.4-.5q20.8-7.6 36.1-18.1 20.2-13.8 29.1-31.45 1.05-2.05 1.2-.65.15 1.4-.8 3.3-9.5 18.7-27.7 31.1-13.55 9.2-36.3 17.25 1.15 3.5 4.4 8.1 2.65 3.65 6 7.15l1.65 2.1q.45.9.35 2-.55 4.25 0 10.35.55 6.2 1.95 11.05 3.9 13.45 12 26.65 7.9 12.9 15.3 18.35 1.05.85-.15 1.45-2.4 1.3-5.3 2.1l-5.4.7q-.3 0-.75-.9-.5-.9-.15-.85 4.35.4 9-1.75-7.3-6-14.8-18.9-7.5-13-11.4-26.4-1.4-4.9-2.25-10.85-1.05-7.05-.5-10.9l-.25-1.3-1.3-1.6q-3.3-3.4-6.2-7.95-3.25-5.1-4.3-9.05"/><path fill="#0f141b" d="M192.4 453.05q.3-.85 1.15.6 2.8 4.9 11.9 7.8 1.55.45.85 6.75-.8 6.6-3.55 11.15-3.25 5.45-6.25 6-1.4.3-4.1-1.6-2.95-2.05-5.75-5.7-7.4-9.6-8.6-23-.2-2.05.5-2.9.65-.8.75 1.3.55 9.35 5.6 18.35 5.05 8.95 11.1 11.4 2.85-.7 5.3-4.75 2.45-4.1 3.05-9.15.4-3.7-.2-6-4.3-1.4-6.9-3.25-2.65-1.9-4.35-4.85-.75-1.3-.5-2.15"/><path fill="#0f141b" d="m198.5 460 .9-.05q.8.25.7.6-1.35 4.25-6.35 7.05-5.3 3.05-11.15 2.05-.35-.05-.4-1 0-.95.35-.9 5.4.9 10.4-1.85 4.45-2.5 5.55-5.9M154.6 394.5q.1-.35 1.1.7.95 1 .85 1.35-1.1 3.15-3.3 7.45l-4.5 8.75q-10.4 20.85-14.45 33.5-6.8 21.1-4.9 39.5.1 1.15-1.05.95-2.2-.5-4.65-1.75-2.45-1.3-3.95-2.7-.15-.1.25-.9.4-.85.6-.6 2.3 2.35 6.4 3.6-1.1-12.3 1.35-24.05 4-19.55 18.1-47.9 6.35-12.8 8.15-17.9M117.75 336.75q-1.9-12.4-1.25-26.55.4 1.4 2.5 5.1-.15 19.05 4.5 36.6l1.05 4.4.25 3.65-.85 16.1q-.05 1.4 4.55 5.1 4.5 3.7 4.5 4.55-.2 18.2-4.25 32.8-6.8 24.45-24.35 43-.5 2.7.35 6.95.8 4.2 2.2 6.05l-.4.75q-.55.65-.8.4-2.1-2.2-3.55-8.05-1.4-5.65-.45-6.65 14.95-15.4 22-33.85 6.85-18.1 7.1-41.55l-5.05-3.5q-4.6-3.25-4.5-5.35 1.5-12.9 1.5-16.9 0-2.7-1.85-8.95-2.15-7.4-3.2-14.1"/><path fill="#0f141b" d="M107.05 473.05q1-1.4 1.05-2.7.05-1.4.7-1.2.65.2.7 1.3.05 2.6-3.65 6.6-5.8 6.15-7.1 12.35-.45 2-.15 6.2 4.7 1.95 12 .3 6.4-1.45 7.9-3.4l.35-7.8q.25-5.7 2.3-6.55l1.55-.2q.2.25-.8 1.25-1.6 1.65-1.2 7.45.45 6.15.05 6.8-1.45 2.65-9.35 4.3-8.7 1.75-14.4-.9-.35-.2-.6-1.85-.25-2.05.2-4.55 1.3-7.45 8-14.6l2.45-2.8"/><path fill="#0f141b" d="m119.9 490.05-.3 1.8-.5 1.25q-2.1-5.6-6.4-10.15-4.75-5-8.65-4.6-.35.05.15-.85.55-.9.85-.9 4.15.2 8.5 4.35 4.1 3.85 6.35 9.1M152 189.05q-3.8 1.45-6.85 1.4-3.85-.1-7.65-2.55.3-.35 7.2-3.15l6.9-2.7q.65 1.3.8 3.25.15 2.05-.4 3.75M149.35 302.8q6.1 11 11.6 13.45.3.15-.3 1-.6.8-.9.65-6-2.75-11.6-12.2l1.2-2.9M164.4 307.45l1.35 1.2q.3.25-.55 1.15-.85.85-1.2.6-1.85-1.5-3.85-4.05l2.1.65 2.15.45M361.85 310.7q.5.7-.1 1.2-3.4 2.85-8.95 4.25-6.05 1.5-13.45 1-.35 0-1.05-1.05-.75-1.1-.4-1.05l12.9-.6q5.9-1.05 9.1-3.3-5.05-5.55-19.75-14-12.9-7.35-23.7-11.75-.6-.3-1.5-1.7-.85-1.45-.45-1.3 10.3 3.4 25.85 12.45 16.35 9.55 21.5 15.85"/><path fill="#0f141b" d="M336.7 316q-2.1-1.25-1.5-1.75.6-.5 2.8.8 2.3 1.35 4.95 4.4 2.3 2.65 2.7 3.9.25.65-.35 1-2.85 1.6-7.95 1.75-5 .2-8.25-1.05-.35-.15-.05-.95.3-.75.65-.65 2.65 1 6.8.8 4.1-.2 6.8-1.45-.9-1.5-2.7-3.45-2.1-2.3-3.9-3.35M197.1 115.3q.3-.2.8.5t.2.9l-9.55 6.7q-.25.15-.3-.85v-1.05l8.85-6.2M202.65 127.7q.3-.15.75.75.4.85.1 1.05-11.4 6.65-15.45 11.45-8.3 11.9-11.95 21.45-1.2 3.1-7.9.9t-5.75-5.4l3.15-9.35q3.2-9.3 3.65-9.9 3.4-4.15 7.45-8 .25-.25.35.9v1.3q-3.8 3.6-6.45 6.8-.6 1.1-6.05 19.05 1.25 2.2 4.4 3.25 3.2 1.1 5.2-.1 3.4-8.8 12.55-21.95 4.85-5.7 15.95-12.2M351.9 408.75q.05-.35.9-.25.85.1.8.45-.75 5.85-5.6 13.9-4.65 7.7-7.65 8.95-.35.1-.7-.9t0-1.15q2.5-1 6.9-8 4.7-7.55 5.35-13M263.8 413.6q.3-.2.1.9l-.5 1.35q-9.5 5.9-12.5 7.4-4.15 2.05-6.05 1.3l-1.3-1.2q-.55-.55-.1-1.55.5-1.05.7-.6.5 1.05 1.2 1.35 1.55.6 6-1.6 3.8-1.9 12.45-7.35M173.5 383.3q.05-.35.8.15.75.45.7.8-1.65 8.05-4.85 15.75-3.95 9.55-7.65 11.05-.35.1-.95-.6-.65-.75-.3-.9 3-1.2 6.9-9.95 3.7-8.2 5.35-16.3M153.5 398.05q.25-.3.4 1.15.15 1.4-.1 1.7-2.45 2.95-6.5 5.55-6.7 4.3-15.45 5.9-.45.1-.8-.25-.65-.75-1.2-2.65-.5-1.65-.5-2.4 0-.35.85-.35t.85.35l.3 1.55.75 1.95q8.05-1.55 14.85-6.45 3.75-2.75 6.55-6.05M184.65 108.75q1.6-1.4 2.35-3.6.75-2.15.5-4.1-.2-1.85-1.1-2.2-.65-.25-2.05 1-1.5 1.3-2.1 3.05-.8 2.3-.75 4.3.05 2.05.95 2.45.75.4 2.2-.9m-.85-10.6q2.15-1.5 3.45-1 1.6.65 1.9 3.4.3 2.6-.7 5.55-1.05 3.1-3.35 4.5-2 1.3-3.4.6-1.75-.8-1.85-3.8-.1-2.35.8-5.05.85-2.6 3.15-4.2"/><path fill="#0f141b" d="M187.6 105.35q0-.95.8-2.6.8-1.6.85-1.15.25 4.55-.2 14.2-.45 9.85-1.1 13.6-.35 2.15-1.1 2.4-.7.25-.35-1.9.5-2.95.85-11.05l.25-13.5M179.85 106.05q.1-.4.75.9t.55 1.9l-3.85 26.75q-.25 1.9-.95 1.25-.65-.65-.4-2.6 3-22.5 3.9-28.2M126.75 233.5q5.1-3.6 11.25-3.15 10.7.95 17.95 11.1 7.3 10.25 8 25.65 6.8 2.1 10.7 6.55 3.35 3.8 3.35 7.35 0 2.15-4.1 5.5-5.25 4.25-12.9 5.45 5.1 3.2 7.55 9.55 2.2 5.65 1.2 5.85-5.35 1-10.45-.25-5.45-1.3-9.55-4.95-.3-.25-.4-1.7-.05-1.45.2-1.2 3.85 3.85 8.7 5.55 4.8 1.65 9.75.9-1.45-7.15-9.35-13.5-.55-.45-.45-.9.1-.4.8-.6 6.4-1.6 9.85-3.35 4.95-2.5 7.1-6.55-.15-2.65-3.65-6.15-4.05-4.05-10.25-6.5-.55-.2-.55-.75-.55-15-7.1-24.75t-16.55-10.6q-5.8-.4-10.45 3.15-3.95 3-5.05 6.85l-.4.7-.9-.25q-3.3-2.2-7.55 2.45-4.25 4.6-4.5 10.4l-.2.7-.65.1q-5.6-.3-10.7 1.15-5.05 1.4-7.75 3.95 2.65 6.7 6.75 10.95 3.95 4.2 10 6.8l-1.6.35-2.25.05q-5.55-2.7-8.85-6.85-3.1-3.9-5.85-11.2-.6-1.65 4.65-4.4 6.35-3.35 14.85-2.5.65-7.85 5.25-11.9 4.2-3.75 8.4-1.9 1.25-4.05 5.7-7.15"/><path fill="#0f141b" d="M92.35 284.1q-1.75-2.95-2.05-5.05-.35-2.05 1.05-1.5 5.8 2.2 15.85 1.2 1.55-.15.95.55-.65.7-2.2.85l-7.75.6-5.2-.5q1 3.85 4.2 7.15 3.3 3.35 7.65 4.85l.5 1.05q-1.45 4.2-.95 9.8.45 4.85 2.05 8.6 6.45-.8 9.75-3.75 1.3-1.2 1.4.55.4 4.6 4.2 11.3 3.4 5.9 7.2 9.75 7.15-4.2 12.95-12.55 6.5-9.3 6.5-17.7 0-2.65.65-3.2.65-.55.9 1.95.9 9.55-5.75 19.95-6.2 9.7-14.75 14.25-1.55.8-7.15-7.15-6-8.55-6.15-15-1.85 1.55-6.65 3.05-4.5 1.35-4.75 1-2-4.35-2.4-9.55-.5-5.75 1.15-11.05Q97 292 92.35 284.1"/><path fill="#0f141b" d="M118.9 276.5q.6-1.2 1.05-1.15.45.05.1 1.3-.45 1.75-1 5.75-.55 3.75-.75 6.45-.25 2.85-.6 2.9-.4.1-.55-3.05-.05-1.95.6-6.55.65-4.65 1.15-5.65M142.45 130q-.2-.6.65-.65l.95.05q4 10.75 5.75 16.4 2.2 6.95 2.45 10.5.05.35-.95.75l-1.05.05q-.45-7.5-7.8-27.1"/><path fill="#0f141b" d="m127.95 115.4 15.55 13.5q.25.25.2 1.55-.1 1.35-.35 1.1L115.3 106.5q-.75-.65-1-2.1-.3-1.4.05-1.1l13.6 12.1M121.8 122.5l9.3 11.3q1.75 2.65 4.25 10.5 2.95 9.1 3.65 16.15.05.35-.95.65-1 .35-1.05 0-.7-6.95-3.35-15.95-2.4-7.95-4-10.45l-9.95-12.05-10.45-12.5 1-.1q1.25.25 1.6.65l9.95 11.8"/><path fill="#0f141b" d="M111.9 110.4q.9.65 1.6.6.45 0 .75-.45.7-1.1.4-2.7-.25-1.65-1.35-3.1-1.35-1.8-2.9-2-.65-.05-1.1.35-.55.45-.55 1.65 0 1.85 1.35 3.8.8 1.2 1.8 1.85m1.05-8.4 1.7 1.7q1.45 1.95 1.75 4.1.25 2.1-.7 3.65-.8 1.25-2.2 1.25-1.15.05-2.45-.8-1.35-.9-2.35-2.35-1.4-2.05-1.6-4.3-.15-2.25 1-3.4 1.1-.95 2.45-.8 1.15.1 2.4.95M157.35 120.4q.25-.25.8.4.6.65.35.85-3.9 3.65-8.25 5.95-4.65 2.5-7.4 2.15l-.95-.8q-.55-.8-.2-.8 2.45.1 7.2-2.15 5-2.4 8.45-5.6M129.35 132.35q.3-.2.8.5.45.7.15.9-6.9 4.85-15.65 2.55-8.4-2.2-11.55-8.75-.2-.3.6-.65l.9-.1q2.7 5.55 10.6 7.6 8.25 2.1 14.15-2.05"/><path fill="#0f141b" d="M177 36.7q7.9-7.35 23.05-4.7.35.1.25.9-.15.85-.5.8-14.5-1.8-21.7 5.5-7.2 7.35-4.15 21.05.2.75-.55 1-10.85 3.4-17.2 9.75-5.6 5.6-6.95 12.55-1.25 6.3 1.3 11.6 2.55 5.25 7.65 7.1l.55.55-.1.75q-2.15 3.3-1.8 8.2.35 4.7 2.85 9.3 5.95 10.85 16.4 11.2l-.75.95-1.4.9q-4.35-.25-8.65-3.3-4.2-2.9-7-7.45-6.6-10.6-1.55-19.9-6-2.65-8.75-8.4-2.7-5.75-1.2-12.35 1.6-7.05 7.6-12.85 6.75-6.45 17.8-9.95-3.55-15.5 4.8-23.2M207.6 132.3q9.35 7 21.3 1.1l1-.1q.3.25.2 1-1 6.25 2.05 13.35 3.75 8.6 11.75 11.65 3.15-12.3.1-20.4-.1-.15 1.25.55 1.25.7 1.35 1.1 1.2 4.05.8 9.15-.35 4.55-2.1 11l-.35.6h-.75q-8.4-2.7-12.85-10.2-4.3-7.25-3.05-15.6-12.1 5.85-21.6-.6-9.3-6.3-9.8-19.55-.05-2.3.6-3.2.65-.95.75 1.35.65 12.3 9.35 18.8"/><path fill="#0f141b" d="M238.85 133.2q-.15-1.6.4-2.1.6-.45.8 1.15.6 4.3 5.6 6.65 4.8 2.25 8.65.75 1.1-.3 1.15.75.65 10.8 8.8 17.3 7.35 5.85 17.3 5.85 1.95 0 .6 1.4-5.9 6.55-7.1 17.4-1.15 9.95 2.05 14.85 20.6-10.05 21.5-32.35.1-2.1.75-1.35.65.7.55 2.8-.45 12.1-5.8 19.8-5.35 7.55-16.95 13-.6.25-1.05-.25-4.35-5.65-3.5-15.3.85-10.25 7.25-18.4-10.95-.65-17.55-6.1-7.35-6.1-8.45-17.5-5.25 1.6-9.75-.7-4.8-2.45-5.25-7.65"/><path fill="#0f141b" d="M296.25 180.6q0-1.4 1.05-3.45 1.05-2.1.95-.75-.5 6.65 2.3 12.5 2.65 5.55 7.5 9.05l.5.7-.5.65q-7.25 5.9-7.2 15.35 0 9.25 6.75 14.7 1.05.85-.15 1.4-7.9 3.8-11.85 12.7-3.9 8.7-1.25 15.85 6.8-1.1 11.65-5.05 4.9-4 6.75-10.05.55-1.75.85-1 .3.75-.25 2.5-2.05 6.7-7.25 10.9-5.2 4.15-12.8 5.15-.65.1-.9-.5-3.3-7.95.5-17.2 3.9-9.35 12.75-14.2-7.1-6.6-6.95-15.55.1-9 7.55-15.65-10-7.75-10-18.05"/><path fill="#0f141b" d="m328.6 243.95.95.1q1 .25 1.15.55 4.4 10.95 2.4 23.55-1.8 11.75-8.1 19.6-.4.5-1 .25-8.25-3.7-13.05-14.4-4.65-10.3-2.9-19.55.05-.45 1.4-1.55 1.3-1.15 1.3-1-2.3 7.95 1.45 18.85 4 11.75 11.9 15.75 5.65-7.6 6.85-20.9 1.15-12.7-2.35-21.25"/><path fill="#0f141b" d="M347.15 249.9q-.1.65-.75.75-5.6.55-11.55-1.9-6-2.55-10.1-7.2-4-4.55-5.4-10.65-1.3-5.75.05-11.7.15-.75.95-.65 13.55 1.65 21.05 10.9 7.2 8.85 5.75 20.45m-20.65-9.95q3.75 4.25 8.8 6.5 5.1 2.25 10.1 1.9.9-9.65-5.7-17.4-6.85-8.05-18.8-10.5-.8 4.35.2 8.95 1.3 5.9 5.4 10.55"/><path fill="#0f141b" d="m335.05 188.85.85-.1q.85.25.85.35 0 2.55-2.1 4.65 8.25 7.4 8.1 17.6-.2 9.45-6.9 14.35-.3.2-1.05-.45-.8-.65-.5-.85 5.75-4.2 6.1-13.3.4-10.1-7.6-16.75-.9-.75.1-1.35.85-.5 1.5-1.65.75-1.3.65-2.5M336.7 147.8q-.25-.25.7-.7.95-.45 1.2-.2 4.65 5.5 2.35 15.65-2.35 10.1-8.7 12.1l-2.8.2q-.7-.45 1.45-1.15 5.45-1.7 7.65-11.4 2.2-9.7-1.85-14.5"/><path fill="#0f141b" d="M337.55 168.9q-.35-.05.05-1.1.4-1 .75-.95 6.35.7 11.95 5.3 5.9 4.8 7.5 11.35.15.6-.35.95-6.85 4.25-13.8 5.5-7.7 1.4-11.4-1.95-1.15-1.1-1.3-1.95-.1-.85 1.1.2 3.15 2.9 10.65 1.8 7.05-1.05 13.25-4.75-1.7-5.7-7.3-9.85-5.25-3.85-11.1-4.55M340.6 145.05q7.45-4.2 10.55-10.9-3.75-3.55-9.9-5.35-6.75-1.95-12.85-.55-5.2 1.15-8.9 4.7-3.7 3.55-5.65 9.2 1.75 3.4 5.1 5.15 3.4 1.8 8.05 1.7 6.9-.1 13.6-3.95M328 125.9q7.75-1.6 17.2 2.2 3.8 1.55 6 3.3 2.3 1.8 1.8 2.9-2.95 6.85-10.75 11.75-7.75 4.85-15.9 5-6.45.1-11-3.5-4.05-3.2-3.25-5.6 2.4-7.25 7.25-11.55 3.95-3.5 8.65-4.5"/><path fill="#0f141b" d="M325.75 108.3q3.25 8.85-.15 19.95-.05.25-1.1.4l-1-.15q3.4-11.1-.6-20.55-4.8-11.2-19-16.3l-.8-.45.35-.8q2.95-5 2.55-10.65-.35-5.4-3.6-10.15-7.25-10.55-20.7-10.85-1.7-.05-1.1-.65.65-.65 2.35-.6 15.5.35 22.25 11.9 2.9 4.95 2.95 10.6.1 5.7-2.75 10.4 15.95 6.05 20.35 17.9M303.1 11.25l.75.15.1.75q-.6 10.3-4.1 17.45-4.55 9.25-13.75 12.4l-2.5.15q-.75-.5 1-1.05 8.1-2.75 12.85-11.55 4-7.35 4.7-16.6-9.85 0-18.75 4.75-9.8 5.25-13.6 14.05-.3.65-.75.7-.5 0-.8-.7-2.95-6.6-8.95-10.95-5.95-4.25-13.35-5.25-17-2.2-29.85 12.15-.25.25-.9-.3t-.4-.8Q229 10.8 245.9 13q7.35.95 13.5 5.4 6.05 4.4 9.6 11.15 4-9.25 13.8-14.1 8.95-4.5 20.3-4.2"/><path fill="#0f141b" d="M290.35 38.85q9.05-.75 17.1 4.35 7.5 4.8 9.15 11.15.15.45-.3.9-4.3 3.4-10.65 5.05-6.15 1.6-11.65.85l-1.4-1.1q-1.1-1.1-.75-1.05l12.35-.65q6.75-1.35 10.55-4.1-1.8-5.6-9.05-9.85-8.15-4.7-17.2-3.4-.4.05.55-1.05.95-1.1 1.3-1.1M215.85 39.1q.9-5.2-1.5-12.2-3-8.6-9.5-12.75-4.4 6.4-4.6 14.4-.2 7.25 2.9 12.25 3.35 5.35 8.05 4.55 3.6-.7 4.65-6.25M203.8 11.45q.45-.6 1.15-.25 6.85 4 10.5 12.95 3.3 8.25 2.05 15.25-.55 3.3-2.15 5.4-1.6 2.2-3.85 2.6-2.85.5-5.4-.8-2.65-1.35-4.5-4.3-3.5-5.65-3.2-14.4.3-9.6 5.4-16.45M87.05 127.35q.3 12.05 8.15 16.95 8-6.95 7.6-19.2-.4-11.6-7.5-18.45-8.55 8.25-8.25 20.7m7.65-22.5q.6-.5 1.15 0 9.2 8.15 9.15 21.3-.05 13.15-9.2 20.6l-.95.1q-9.65-5.35-10.1-18.7-.5-13.8 9.95-23.3M31.1 139.15q-11.8-6-12.4-15.2-.25-4.2 2.5-7.3 2.9-3.3 8.55-4.5l2.65.1q.5.6-1.6 1-10.85 2.35-9.5 11.25 1.25 8.5 11.15 13.5.6.25.25 1.6-1.4 4.9-.55 11.6l-2.2 1.05q-.7-6.7 1.15-13.1"/><path fill="#0f141b" d="m36.55 168.55 1.4-1.4q3 4.15 6.95 5.85 1.2.45.3 1.35-9.5 9.85-7.35 21.35 1.95 10.55 11.9 16.65 1.2.7.05 1.45-8.1 5.05-10.85 15.05-2.3 8.2-.65 17.45 3.2-1.25 7.6-4.45 4.75-3.55 6.35-6.25.65-1.15 1.1-.85.45.25.45 1.9 0 16.95 14.35 27.7 4.2-8.75 4.65-19.7.5-11.5-3.35-20.15-.45-1.05 0-1.35.45-.3 1.3.35 4.05 2.85 9.45 4.35 5.35 1.45 9.4.8.85-6.85-2.55-12.55-3.75-6.15-11-8.05-.7-.2-.8-.45-.1-.3.35-.9 3.5-4.85 3.5-14.05 0-9.2-3.5-13.6-.6-.75-.15-1.25.45-.55 1.3 0 2.85 1.95 7.3 2.1 5.1.15 8.95-2.45-.1-6.25-5.8-11.85-5.7-5.65-15-8.6-1.85-.6-.15-1.55 5.6-3.1 9.25-10.6 3.7-7.5 3.95-16.25l.95 1.15.9 1.9q0 5.05-2.35 10.95-3.45 8.55-10.45 13.35 10.9 3.1 16.35 10.3 4.2 5.6 4.05 11.65l-1.3 1.25q-1.55 1.15-3.5 1.85-5.8 2.25-11.45-.5 2.85 5.75 2.85 12.5 0 7.6-3.8 13.75 9.25 2.5 12.85 11.5 3 7.5.85 11.6-.65 1.25-6.95.55-7.2-.85-12.4-4.3 3.8 8.05 3.1 19.75-.65 11.6-5.45 20.95-.45.9-1.25.3-8.1-5.75-12.05-12.3-4.4-7.25-4-15.9-2.6 2.95-7.35 5.95-4.4 2.75-7.05 3.45-.85.2-1.05-.65-2.3-11.65.15-20.2 2.7-9.4 10.95-14.35-10.6-6.45-12.5-17.2-2.05-11.65 7.9-21.9-3.75-1.95-6.7-5.45"/><path fill="#0f141b" d="M23.1 157.4q-8.95 7.9-9.2 19.1 12.95-.35 21.2-7.6 7.45-6.6 8.25-15.9-10.8-3.9-20.25 4.4m-10.9 20.05q-.3-13.3 9.85-21.85 10.45-8.8 22.5-4 .55.15.55.8-.6 11.2-8.45 18.1-8.6 7.65-23.6 7.75-.85 0-.85-.8M28.5 82.5q-5.15 7.45-2.9 15.75l.1.85-.95.25q-6.7-.2-13.75 4.55-6.65 4.55-8.7 9.95 1.95 2.1 8.2 3.95 6.1 1.8 10.1 1.55.35 0 .15 1.05-.2 1.05-.55 1.1-5.4.3-13-2.65-7.2-2.8-7.2-4.55 0-1.35 1.7-4.05 1.95-3.05 4.85-5.7 7.95-7.3 17.2-6.85-2.1-10.05 3.2-17.15Q32.15 73.6 44 70.3q-.9-6.55 2.15-11.55 3-5 8.45-6 .35-.05.85.65.5.7.15.75-4.55.8-7.7 5.7-3.25 5.1-2.2 10.9.15.75-.6 1-11.15 2.9-16.6 10.75M90.2 0q3.1 0 6.25 7.3 3.8 8.75 2.05 19.7-.05.45-1.9 2.15 1.3-7.6-.55-16.15Q94.1 3.85 90 1.8q-5.95 2.1-9.15 15.6-3.15 13.35.3 20.35l-.05.85q-.25.35-.65.35-2.05.1-5.35 2-3.5 1.95-5.2 4.1-.3.35-.9-1.95 1.7-2.1 4.8-3.7 2.65-1.35 5.4-1.95-4.35-12.65 1.05-25.8 2.1-5.1 5.05-8.45Q88.1 0 90.2 0"/><path fill="#0f141b" d="M124.7 22.85q4.85 3.15 7.5 8.5 16.1-1.8 24.65 9.6 8.3 10.95 3.5 25.3-.1.35-1.45 1.1-1.35.8-1.2.5 5.25-13.9-2.65-25-8.1-11.3-23.25-9.75-.55 0-.8-.45-2.5-4.9-7.1-7.8-4.4-2.8-9.6-3.1-11.65-.6-17.8 9.65-1.25 2.05-1.45 1-.25-1 .95-3.05 6.4-10.75 18.65-9.9 5.45.35 10.05 3.4M67.75 43.8q-5.1-8.45-19.1-11.4-5.2-1.05-9.9-1-4.3.1-5.35 1-.25 1.05 1.75 4.15 2.2 3.45 5.6 6.85Q50 52.6 60 53.5q6.45.55 8.45-2.7.85-1.4.65-3.25-.2-1.85-1.35-3.75m-19.7-13.3Q64 33.45 69.6 42.75 71 45 71 47.5q0 2.35-1.15 4.2-1.25 2-4.2 2.95-2.9 1-6.55.7-11.25-1-20.75-11.45-3.6-3.9-5.55-7.8-1.85-3.65-1.2-4.95.65-1.25 5.45-1.5 5.05-.3 11 .85M134.25 145.5l1.15 2.95q1 3 1.2 4.55-2.85-5.15-4.05-5.8-3.55-2-11.3-3.95-10.5-2.65-19.1-2l-1.15.1q-.2.15 0 1.05 1.1 4.65 7.1 13.1 5.3 7.4 7 8.4 4.3 2.6 10.2 3.6.35.05.2.9-.1.85-.45.75-8-1.25-11.45-3.4-1.85-1.1-7.2-9.1-5.9-8.9-7.05-13.85-.4-1.65 0-2.3.55-.8 2.65-.95 8.9-.65 20.1 2 8.6 2 12.15 3.95"/><path fill="#0f141b" d="M108.45 146.1q.7-1.1 10.25.9 9.45 1.95 11.75 3.45.75.45 3.05 5.1l2.7 6.05q.1.35-.7.6l-.9-.05q-.6-1.6-2.8-5.65l-2.7-4.5q-1.85-1.2-9.25-2.75-6.75-1.45-9.4-1.55.25 1.95 2.95 6.55 2.95 5 5.2 6.5.9.6 4.7 1.8 4.5 1.4 7.1 1.45.35 0-.3.8l-1 .75q-2.8-.05-6.95-1.45-3.3-1.15-4.5-1.95-2.75-1.85-6.45-8.05-3.75-6.4-2.75-8"/><path fill="#fff" d="M145.9 184.5q.4 1.35 0 2.65-.4 1.3-1.4 1.75l-2-.15q-1-.65-1.4-2l4.8-2.25"/><path fill="#0f141b" d="M155.6 179.9q.35-.05 1.05.65.7.65.35.75-2.35.7-25.4 10.2l-25.25 10.3q-.35.1-.6-.7-.25-.8.05-.9l24.6-10.4q22.25-9.45 25.2-9.9"/></svg>