<svg xmlns="http://www.w3.org/2000/svg" width="304" height="342" viewBox="-2 -0.4 303.5 341.9"><path fill="#fdeeed" d="M179.25 134.9q-1 1.75-5.15 3-4 1.15-5.35.4 1.35-2.2 4.75-3.1l5.75-.3M28.25 190.8q-2.6 2.35-2.5 4.5.1 4.35 5.15 7.75 5.3 3.55 11.85 3.1l12.05-2.05q5.3-1.1 11.25.05 2.5.5 6.25 2l6.3 2.55q7.8 2.85 13.15.95 7.25-2.55 10.3-6.75 3.75-5.05 7-6.9 3.5-2 11.05-4.65-6.4 4.3-9.45 13.3l-2.25 6.5q-1.4 3.35-3.65 5.15-5.5 4.4-12.65 4.95-9.1-.2-15.05.05-3.9.15-7 1.8-1.65.85-4.95 3.5-6.65 5.35-14.55 6.2-8 .9-14.3-4.95l-4.65-4.8q-2.65-2.75-4.7-3.75-2.75-1.35-6.9-1.2l-7.15.8q-8.55 1.15-10.95-3.25-2.4-4.4 5.95-12.8 8.75-8.85 20.4-12.05M193.3 14.1q-2.95 2.65-4.6 2.55-1.8-.05-3-3.15.9-1.8 3.35-4.2 2.5-2.4 3.15-1.95.8.55 1.1 6.75M112.8 289.05q-2.3.15-3.5-1.6-1.15-1.75-.4-3.8 8.55-5.25 14.4-12.15-.45 2.8 1.95 3.85 2.5 1.05 6.3-.85 13.35-6.6 26-27.7 10.35-17.3 13.85-31.5-2.3 18.05-1.55 38.8.5 14.05 1.55 19.45-3.05 10.6-6.7 13.65-3.1 2.6-4.9-.8-3.8 8.4-8.75 11.85-5.05 3.55-7.2-.9-5.85 7.95-14.45 13.4-10.5 6.65-18.5 4.4-8.1-2.25-5.65-11.95 1.9-7.3 7.55-14.15"/><path fill="#f7c8d6" d="M169.1 160.5q4.6-2.15 7.3-5.45-.55 3.85 1.25 7.35 1.8 3.6 5.55 6 3.9 2.5 9.4 1.85-7.75 13.8-4.55 28.9 2.3 10.75 11.65 25.95l10.85 17.5q5.55 9.6 6.85 16.4 1.35 7.05-2.8 9.5-4.15 2.4-10.05-2.2-9.55-7.45-17.05-22.8-10.4-21.3-11.95-50.2-12.6 26.3-33.35 43.65-20.85 17.35-37.45 15.35-8.75-1.05-8.5-5.3.25-3.7 6.8-8.2l11.9-8.55Q134.7 215.2 148 200.1q15.15-17.25 18.15-30.75Q156 177.45 142 183.4l-21.9 7.95q-7.55 2.65-11.05 4.65-3.25 1.85-7 6.9-3.05 4.2-10.3 6.75-5.35 1.9-13.15-.95l-6.3-2.55q-3.75-1.5-6.25-2-5.95-1.15-11.25-.05l-12.05 2.05q-6.55.45-11.85-3.1-5.05-3.4-5.15-7.75-.1-2.15 2.5-4.5 4.05-3.85 11.95-6 9.15-2.5 20.05-1.5 6.3.65 12.4-1.3l9.75-3 16.95.7q11.9 1.6 17.55.8 8.2-1.2 22.55-7.7 11.85-5.4 20.1-10.6 4.5.65 9.55-1.7"/><path fill="#fdeeed" d="M205.1 143.05q4.35-3.35 9.95-2.8 5.7.5 9.35 4.65 3.9 4.45 3.45 10.05-.5 5.5-4.85 9.05-4.35 3.5-9.95 3.45-5.5-.05-9.1-3.6l-.05.1q-2.6 3.95-9.45 5.55-7 1.65-11.25-1.1-3.75-2.4-5.55-6-1.8-3.5-1.25-7.35-4.75 5.8-11.5 7-5.65.95-10.05-1.4-7.05-3.8-6.9-11.35.1-6.95 5.4-10.65 3.65-2.55 9.05-2.05 4.55.4 7.45 2.4 3.6-.25 6.15-1.45 3.2-1.5 3.75-3.95l7.1-1.05q3.85 2.05 8.6 2.9 0 3.2.65 3.95.95 1.1 3.6 2.4 3.2 1.6 5.4 1.25M249.25 235.7q8.35 1.15 11.65 2.8 2.95 1.45 9 5.4l9.5 6.25q2.8 1.8 5.8 1.15 3.2-.7 3.75-3.7 6.55 9.4 9.05 18.15 2.75 9.6-1.75 11.25-4.35 1.6-12.15-5.6l-6.4-6q-3.7-3.3-6.45-4.4-2.25-.9-6.05-.9l-6.95.25q-9.2.1-14.7-4.85-4.1-3.7-7.15-11.45-3.2-8.1-6-10.9-1.65-1.65-4.15-2.85l-4.2-1.9q-4.75-2.25-5.65-7.05-.7-3.85 1.8-9.25 2.55-5.4 1.8-9.75 3.75 3.65 4.9 6.8l3.95 12.35q3 7.45 8.7 10.85 3.75 2.2 11.7 3.35"/><path fill="#f7c8d6" d="M194.3 169.95q3.65-.75 6.5-2.85 4.8 9.75 16.9 20.25 10.9 9.5 18.35 12.15 14.85 5.3 27.9 15.1 15.4 11.6 23.3 26.05 3.6 6.65.05 9.65-3.35 2.75-7.9-.15l-9.5-6.25q-6.05-3.95-9-5.4-3.3-1.65-11.65-2.8-7.95-1.15-11.7-3.35-5.7-3.4-8.7-10.85l-3.95-12.35q-.85-2.4-4.8-6.4l-8.6-8.25q-12.7-12.5-17.2-24.55"/><path fill="#fdeeed" d="M91.25 240.5q15.1-5.5 23.7-10.25l-11.9 8.55q-6.55 4.5-6.8 8.2-.25 4.25 8.5 5.3 16.6 2 37.45-15.35 20.75-17.35 33.35-43.65 1.55 28.9 11.95 50.2 7.5 15.35 17.05 22.8 5.9 4.6 10.05 2.2 4.15-2.45 2.8-9.5-1.3-6.8-6.85-16.4l-10.85-17.5q5.15 6.5 18.85 22.95 10.8 14.2 9.2 19.15 4.5 6.5 6.25 9.9 2.75 5.4 2.2 8.55 11.05 17.45 5.15 23.7 2.25 9.05 1.6 16.4-.8 8.3-5.05 10.4-5.2 2.65-12-3.15-6.7-5.7-9.3-14.65-.45 4.95-2.95 7.1-2.4 2.05-6.4 1.2-5.5-1.15-10.15-10-4.6-8.75-5.45-19.6-2.5 6.35-5.5 6.8-2.7.4-4.6-4.05-1.35-3.2-2.35-10.5-1.05-7.7-.5-11.9-1.85 2.5-4.15 1.4-2.3-1.15-3.15-5.25-.9-7.95-1.35-19.05-.85-22.15 1.35-39.2-3.8 15.45-13.5 31.75-12.15 20.4-26.35 27.45-3.8 1.9-6.3.85-2.4-1.05-1.95-3.85-7.05 9.25-20.7 15.8-14.4 6.95-15.5-.55-4.05 4.35-12.6 7.6-8.75 3.3-16.95 3.3-4.5 0-7.05-1.85-2.55-1.8-2-4.6-12.6 2.2-21.85 1.25-12.3-1.25-15.4-8.15-2.65-5.85 5.1-11.45 6.55-4.75 19.6-8.7.4-2.75 6.55-5.6 5.1-2.35 13.15-4.4.5-2.65 6.95-4.75 5.75-1.9 14.85-2.9 1.3-1.45 13.8-6M171.75 12.2q.5 4.95-.85 6.3-1.3 1.3-4.85-.4 0-2.45-1.05-5.05l-.8-2.1q.65-.45 3.1 0 2.25.4 4.45 1.25"/><path fill="#fdeeed" d="M215.55 38.65q3.8 2.65 2.95 8-.85 5.4-5.45 6.85-7.75 2.45-16.85-2.75-8.65-4.9-16.3-15.25-4.8 5.75-15.95 10.4-13.65 5.65-24.3 2.6 5.85-6.65 13.25-11.5 7.55-4.95 16.05-7.55-.7-4.5-6.25-8.1-5.5-3.55-9.6-2.55 2.9-3.55 8.05-2.55 2.75.55 6.05 2.45 1.65.95 2.95.25 1.55-.85 1.7-3.8.1-2.75-.55-6.1-.75-4.1-2.2-5.95-1.2-1.55-.25-2.1l3.9.2q5.95 1.55 9.6 6.2 2.25 2.85 3.85 7.4.45 1.4 2.15 1.75 1.85.45 3.5-1.1 3.8-3.6 6.6-5.3 4.6-2.75 9.55-2.75 1.4 0 1.85.4.55.55-1.2 1.55-3.7 2.1-7.55 8.1-3.75 5.95-4.3 10.35 11.4 2.05 21.65 8.2 9.95 5.95 17.4 14.95-6.6-6-20.3-12.3"/><path fill="#f7c8d6" d="M247.4 72q3.8 11.9 2.35 24-2.05 17.1-10.85 26.7-8.75 9.55-22.8 10.1-6.8 4-15.7 3.45-7.45-.5-13.55-3.7-7.8 1.55-16.7 1.15-10.75-.45-19.55-3.85-23.2-8.9-26.35-34.7-1.55-12.45 2.7-24.9 4.05-12 12.7-21.75 10.65 3.05 24.3-2.6 11.15-4.65 15.95-10.4 7.65 10.35 16.3 15.25 9.1 5.2 16.85 2.75 4.6-1.45 5.45-6.85.85-5.35-2.95-8 13.7 6.3 20.3 12.3 7.9 9.65 11.55 21.05"/><path fill="#ca0537" d="M207.1 114.1q5.25.25 8.95-3.75-4.15 11.45-9.65 11.6-5.7.15-8.35-12.4 3.85 4.3 9.05 4.55M173.55 95.55q0-5.3 2.95-9.05 2.95-3.75 7.1-3.75 4.15 0 7.1 3.75 2.95 3.75 2.95 9.05 0 5.3-2.95 9.05-2.95 3.75-7.1 3.75-4.15 0-7.1-3.75-2.95-3.75-2.95-9.05"/><path fill="#0081cc" d="M179.15 95.5q0-3.2 1.5-5.5 1.45-2.25 3.55-2.25 2.1 0 3.6 2.25 1.5 2.3 1.5 5.5t-1.5 5.45q-1.5 2.25-3.6 2.25t-3.55-2.25q-1.5-2.25-1.5-5.45"/><path fill="#ca0537" d="M221 95.5q0-5.05 2.5-8.65 2.55-3.55 6.1-3.55t6.05 3.55q2.5 3.6 2.5 8.65 0 5.05-2.5 8.6-2.5 3.6-6.05 3.6t-6.1-3.6q-2.5-3.55-2.5-8.6"/><path fill="#0081cc" d="M225.15 95.9q0-3.05 1.3-5.15 1.3-2.15 3.15-2.15 1.85 0 3.1 2.15 1.3 2.1 1.3 5.15 0 3-1.3 5.15-1.25 2.15-3.1 2.15t-3.15-2.15q-1.3-2.15-1.3-5.15"/><path fill="#dbcece" d="M179.25 134.9q-1 1.75-5.15 3-4 1.15-5.35.4 1.35-2.2 4.75-3.1l5.75-.3"/><path fill="#fdeeed" d="M193.3 14.1q-2.95 2.65-4.6 2.55-1.8-.05-3-3.15.9-1.8 3.35-4.2 2.5-2.4 3.15-1.95.8.55 1.1 6.75"/><path fill="#dbcece" d="M156.9 269.35q-7.6-2.4-16-1.4 10.55-9.5 19.9-26.9 7.85-14.6 10.6-25.75-2.3 18.05-1.55 38.8.5 14.05 1.55 19.45l-1.4 4.35q-4.95-5.95-13.1-8.55M176 155.9q-4.8 4.65-11.2 5.85-5.85 1.1-9.95-1.1-8.55-4.6-6.6-11.5 4.6 6.65 13.45 7.9 6.75 1 14.3-1.15M176.55 159.25q3.65 4.95 14.1 4.05 10.8-.95 15.25-7.45.1 9.1-9.05 12.7-3.65 1.45-7.55 1.4-3.8-.1-6.1-1.55-5.45-3.5-6.65-9.15"/><path fill="#dbcece" d="M227.35 150.25q1.05 3.8-.05 7.5-1.2 3.75-4.3 6.25-4.35 3.5-9.95 3.45-5.5-.05-9.1-3.6l1.3-2.25q.55-1.15.5-2.25 5.95 2.75 12.5-.2 6.3-2.85 9.1-8.9"/><path fill="#d6aeba" d="M183.2 168.4q3.9 2.5 9.4 1.85-3.65 6.45-4.9 13.15-6.05 1.8-13.15-.95-7.35-2.9-10.15-8.65l1.75-4.45-2.75 2.1q-4.75-3.75-11.7-4.7l7.85-4.55q4.5.65 9.55-1.7 4.6-2.15 7.3-5.45-.55 3.85 1.25 7.35 1.8 3.6 5.55 6M202.2 176.55q-2.95.1-4.7.85-1.7-3.35-3.2-7.45 3.65-.75 6.5-2.85.85 1.8 3.05 5.05l3.65 5q-2.2-.75-5.3-.6"/><path fill="#fdeeed" d="M171.75 12.2q.5 4.95-.85 6.3-1.3 1.3-4.85-.4 0-2.45-1.05-5.05l-.8-2.1q.65-.45 3.1 0 2.25.4 4.45 1.25"/><path fill="#dbcece" d="m179.75 133.85 7.5-1.35q.4.4 2.65 1.3l5.65 2.35.5 4q-1.35 1.7-9.3-.15-7.65-1.85-8.85-3.35.75-.35 1.35-1.4l.5-1.4"/><path fill="#d6aeba" d="M233.6 127.1q-7.75 5.3-17.5 5.7-6.8 4-15.7 3.45-7.45-.5-13.55-3.7-12.85 2.55-23.85.8-13.55-2.15-23.45-10.7 8.95 3 24.3 4.4 15.65 1.45 31.65.65 39.25-1.95 50.05-14.7-4.3 8.95-11.95 14.1"/><path fill="#0f141b" d="M248.9 95.9q1.35-11.25-2.2-22.8-3.45-11.3-11-20.85-16.5-20.9-42.1-24.1-2.35-.25-1.2-.8l3.5-.2q11.5 1.6 22.25 7.7 10.65 6.1 18.55 15.55 17.5 21 14.35 46.95Q248.95 114.6 240 124q-9 9.4-23.65 9.6-6.25 3.6-13.85 3.65-8.1.1-15.75-3.85-23.75 5.35-42.4-5.2-19-10.7-21.55-31.7-2.9-23.7 12.15-43.85 14.2-19 35.6-24.15l4.3-.3q1.45.35-1.3.95-22.1 4.95-36.5 24.25-14.65 19.65-11.95 41.65 2.5 20.75 20.7 31.15 17.7 10.15 40.9 5.5l.55.1q6.7 3.55 15.35 3.4 8-.15 13.1-3.15l.35-.1q13.85-.55 22.35-9.85 8.5-9.35 10.5-26.2"/><path fill="#0f141b" d="M217.5 47.35q1.15-4.25-1.35-7.05-1.4-1.6-.8-1.95.5-.3 2 .45l.65.3q8.35 3.75 14.05 7.75 1.7 1.2 3.45 4.95-5.4-5.05-16.9-10.75 1.8 2.8.75 7.45-1.2 5.25-5.7 6.65-7.65 2.4-16.85-2.55-9.3-4.95-16.95-15.8-6.15 6.55-16.9 10.95Q149.5 53.3 138.8 50q-.35-.1.25-1.45.6-1.3.95-1.2 10.55 3.25 23.9-2.35 10.65-4.45 15.35-10.05l1.35.05q7.7 10.45 16.35 15.2 8.65 4.75 15.85 2.5 3.55-1.1 4.7-5.35M178.9 133.55q.05-.35.9-.25.85.15.75.5-.4 2.75-3.8 4.4-2.65 1.2-6.25 1.5-.25.05-.8-.8-.6-.85-.25-.85 3.15-.1 5.85-1.15 3.3-1.3 3.6-3.35M196.25 143.85q-1.45-.55-1.15-1.05l1.8.05q6.95 2.55 9.15 9.55 2.15 6.75-1.55 12.5-3.3 5.15-10.35 6.2-6.75 1-11.65-2.2-5.3-3.4-6.7-8.3-1.5-5.05 1.5-10.2.95-1.6 1.8-1.75.9-.2-.05 1.35-2.85 4.75-1.7 9.45 1.15 4.7 6 7.8 4.5 2.9 10.95 1.35 6.2-1.5 8.85-5.55 3.3-5.15 1.3-11-2.05-6-8.2-8.2"/><path fill="#231916" d="M223.75 145.45q-3.4-3.85-8.7-4.4-5.3-.5-9.45 2.65l-.35.15q-2.25.35-5.75-1.3-2.95-1.35-4.05-2.6-.9-1.05-.9-4.2l2.2-.1q-.5.8-.45 1.85.05.9.45 1.35.65.75 3.15 1.8 3 1.3 5.15 1.05 4.6-3.35 10.45-2.55 5.75.85 9.55 5.2 3.9 4.45 3.65 10.5-.2 6.4-5.2 10.45-4.5 3.65-10.6 3.4-6.1-.2-9.5-4.1l.8-.9.9-.8q2.95 3.4 8.2 3.55 5.2.15 9.2-3.1 4-3.25 4.4-8.5.4-5.3-3.15-9.4"/><path fill="#0f141b" d="M162.1 135.65q6.1.35 9.55 4.45 1.1 1.25.9 1.95-.15.7-1.2-.6-3.05-3.6-8.9-3.95-5.35-.4-8.6 1.85-5.4 3.8-4.9 10.6.45 6.85 6.3 9.95 5.5 2.95 11.85.55 5.7-2.15 9-7.1.2-.3.15 1.25l-.15 1.8q-3.35 4.55-9.4 6.5-6.85 2.15-12.6-.95-7.75-4.15-7.45-12.3.25-7.55 6.2-11.7 3.75-2.6 9.25-2.3"/><path fill="#0f141b" d="M167.6 137.9q1.1-2.45 5.3-3.35l6.35-.15q.35.1.15.75-.2.7-.55.6l-5.15.3q-3.35.9-4.2 2.7l-1.1-.1q-.95-.4-.8-.75M170.4 164.05q1.45-1.4 1.35-.2-.05 1.2-1.5 2.55-9.85 9.3-20 14.5-7.35 3.7-24.95 9.7-10.3 3.5-14 5.35-5.1 2.55-7.8 6.4-2.15 3.05-3.55 4.3-2.85 2.6-7.95 4.4-4.1 1.45-9.1.1-1.9-.5-8.7-3.3-6.15-2.55-10.8-3.15-4.9-.6-10.55.7Q45 207.2 40 207q-7.35-.3-12-4.45-1.8-1.65-2.75-3.55-1-1.9-.95-3.7.35-5.6 10.4-9.9 10.85-4.65 23.9-3.25 8.65.95 16.8-2 6.5-2.3 10.8-2.6 4.95-.35 13.4 1.3 12.7 2.5 23.7-.6 11.6-3.3 34.2-16.2l1.85.25q1.5.4 1.2.55-25.15 14.95-41.4 17.95l-11.5.8-8.3-1.05-13.4-.95q-4.7.25-9.95 2.15-4.35 1.55-6.85 2.05l-9 .35q-14-1.3-24.55 3.2-9.15 3.9-9 7.95.1 3 3.2 5.8 4.2 3.8 10.75 4.1 4.6.25 11.9-1.45 6.75-1.55 12.15-.7 3.95.6 10.25 3.25 5.55 2.25 8.2 2.85l8.4-.3q4.85-1.7 7.4-3.75 1.55-1.25 3.25-3.75 3-4.3 8.15-7 3.95-2.1 13.95-5.5 14.65-4.95 22.7-8.85 13.6-6.55 23.5-15.95"/><path fill="#0f141b" d="M28.9 188.75q.3-.1-.6 1.6l-1.25 1.85Q15 196.65 7.5 204.85.9 212 2.65 215.25q1.45 2.65 4.75 3.05l6.95-.45q7.75-1.05 11.35.1 3.4 1.15 8.05 6.1 4 4.35 6.65 5.95 4.4 2.6 10.05 2 5.1-.55 8.85-2.5 2.2-1.1 5.6-3.85 3.15-2.5 5-3.4 3.15-1.6 7.15-1.8l8.45.15 9.25-.65q10.8-2.25 14.45-13.6 1.6-5 2.95-7.55 2.3-4.3 6.15-7.2l1.9-.3q1.5.05 1.15.25-4.5 2.75-7 7.9-.4.75-3.1 8.45-3.5 9.7-10.8 12.6-6.6 2.55-23.3 1.9-3.6-.15-6.45 1.3-1.55.8-4.75 3.3L60 231.25q-4.2 2.3-9.5 2.9-6.15.7-11-2.4-2.4-1.55-7-6.5-3.95-4.3-7.55-5.45-4.2-1.3-11.6.1l-7.4.45q-3.6-.65-5.45-4.05-2.5-4.6 5.7-13.3 8.9-9.4 22.7-14.25M163.9 170.65l1.65-1.05q1.55-.75 1.5-.45-3.35 16.05-23.7 37.2-16.95 17.6-39.8 33.2-6.75 4.55-6.15 7.9.55 3.2 7.45 4.05 16.35 1.95 36.85-15.2t33.1-43.35q1.45-3.15 1.6.35 1.7 31.65 13.75 53.5 6.9 12.65 14.95 18.85 4.95 3.9 8.75 2.15 4-1.85 2.7-8.65-1.05-5.65-4.95-13-2.4-4.45-8.3-13.7-12.05-19-15.1-29.4-5.2-17.7 3.8-33.5.2-.3 1.2.45 1.05.7.85 1-8.45 14.8-3.55 32.15 3.1 10.85 14.25 28.35 6.05 9.55 8.4 13.95 3.95 7.55 5.1 13.4 1.55 8.2-3.3 11.05-4.8 2.8-11.2-2.25-10.95-8.55-18.3-25.5-8.3-19.1-10.5-45.8-13.55 26.6-33.3 42.9-20.3 16.75-37.9 14.75-9.05-1.05-9.05-6.15.05-4.8 7.45-9.85 21.95-15 38.35-31.75 19.75-20.2 23.4-35.6"/><path fill="#0f141b" d="M118.95 227.15q-4.05 3.8-8.05 5.95-5.75 3.1-12.95 6l-11.25 4.15q-2.55.9-5.8 2.3l-2.8 1.2q-.1.35-1.3.3-1.2-.05-1.2-.4 0-1.35 4.4-3.1l11-3.85q19-6.6 29.55-14.6 3.45-2.7-1.6 2.05"/><path fill="#0f141b" d="M81.65 245.45q2.35-.2 3.1.5t-1.65.9q-11.55.8-18.9 3-6.45 1.95-7.35 4.15-.15.3-1.15.25-1-.05-1-.4.1-3.55 9-5.85 6.95-1.8 17.95-2.55"/><path fill="#0f141b" d="M37.05 263.85q-.05.35-1.15.5-1.1.2-1.1-.15.1-3.65 9.9-7.45 7.6-2.95 16.55-4.6l3.2.2q1.05.6-1.05 1-9.4 1.7-17.6 4.95-8.2 3.25-8.75 5.55"/><path fill="#0f141b" d="M19.05 272.1q-9.7 6-7.05 11.85 3.15 7 16.6 7.85 8.75.55 20-1.5.3-.05-.1 1.5l-.65 1.55q-11.1 1.9-20.9.75-13.7-1.6-17.15-9.2-3.5-7.75 8.25-14.6 10.15-5.9 27.45-9.15l2.85.1q.8.45-1.25.9-18.4 4.05-28.05 9.95"/><path fill="#0f141b" d="M88.15 283.95q1.1-2.15 1.4-1.4.3.75-.8 2.95-2 3.85-8.35 7.45-5.95 3.35-13.2 5.1-7.5 1.8-12.8 1-5.95-.95-7.1-4.95-.65-2.35.95-4.9 1.6-2.55 5.15-4.8 2.1-1.3 2.75-.85.65.5-1.45 1.85-3.05 1.9-4.45 3.9-1.35 2-.85 3.7.95 3.2 6.45 3.75 5 .5 12.05-1.25 6.9-1.75 12.45-4.8 6-3.3 7.8-6.75"/><path fill="#0f141b" d="M101.55 288.95q-6.15 2.75-10.15 2.65-4.35-.1-5.1-3.7l.75-1q.8-.8.85-.5.25 3 4.25 2.95 3.65-.05 9.4-2.65 13.05-5.95 21.5-16.2.25-.25.65.5t.2 1.05q-9.05 10.85-22.35 16.9"/><path fill="#0f141b" d="M153.35 255.7q-9.75 14.4-21.3 20.1-6 3-8.5-.3-2.25-3 0-6.5 1.2-1.8 2.05-1.8.85-.05-.3 1.75-2.05 3.1-.35 5 1.8 1.95 6.25-.2 12.85-6.4 25.3-26.85 10.45-17.25 14.05-31.8.4-1.4 1.15-1.25.75.15.55 1.6-3.85 29.7-.15 56.95.35 2.85 1.5 4.45 1.05 1.4 2.25 1.4 1.3 0 2.4-1.7 1.25-1.9 1.65-5.3.25-2.35.95-1.7.65.6.4 2.95-.9 7.45-5.35 7.45-2.15.05-3.8-1.75-1.75-1.95-2.2-5.2-1.55-11.55-1.4-26.15.05-11.35 1.1-23.1-8.3 20.15-16.25 31.95M108 284.05l1.05-.25q.95-.05.8.25-1.3 2.55 1 3.65t4.75-.6q1.7-1.15 1.85-.4.1.7-1.6 1.85-3.8 2.55-6.45.75-2.55-1.75-1.4-5.25"/><path fill="#0f141b" d="M112.1 288.6q.25-.25.9.3t.4.8q-3.7 4.3-6.05 9.7-2.75 6.4-1.55 10.3 1.3 4.3 6.3 5 4.7.6 11.15-1.95 6.4-2.55 12.15-7.35 6.2-5.2 9.6-11.35 1.55-2.8 1.75-1.75.15 1.05-1.4 3.85-4.15 7.45-10.8 12.95-6.15 5.1-12.8 7.3-6.6 2.15-11.45.85-5.15-1.4-6.65-6.35-1.35-4.5 1.9-11.8 2.65-5.95 6.55-10.5"/><path fill="#0f141b" d="M152.1 296.25q5.75-5.45 8.8-15.2.75-2.35 1.25-1.55.45.8-.3 3.15-3.6 11.35-10 16.35-6.3 4.85-8.4-1.25-.15-.3.65-.6l.95.05q1.5 4.35 7.05-.95"/><path fill="#0f141b" d="M159.6 287.15q-.1-.35.5-1 .65-.65.75-.3 1 2.45 3.7-.05 3.4-3.1 6.2-13.05.1-.4.6.85.55 1.25.4 1.75-3.15 10.05-7.1 13.05-3.45 2.65-5.05-1.25M178.05 277.85q.35-1.5 1.25-2.1.95-.55.6.9-1.25 5.35.85 15.7 2.1 10.6 4.85 10.5 1.3-.05 2.9-2.4 1.6-2.25 2.75-5.6.1-.35.45 1.05l.2 1.65q-1.5 3.95-3.3 5.95-1.5 1.7-2.9 1.75-4.9.2-6.95-12.35-1.7-10.5-.7-15.05"/><path fill="#0f141b" d="M190.9 292.15q.2-2.8.95-3.7.75-.9.55 1.95-.65 11.6 4.1 22.85 4.75 11.3 10.9 12.6 3.65.75 5.85-1.15 2.25-2.05 2.45-6.75.05-.35.9-.3.85.05.8.4-.2 5.55-3.05 8.3-2.9 2.75-7.45 1.8-6.85-1.45-11.8-12.5-4.95-11.15-4.2-23.5"/><path fill="#0f141b" d="M238.45 302.95q-.9-2.2 0-1.85.9.35 1.8 2.55 3.9 9.95 4.05 19.95.15 11.55-5.6 14.4-6.95 3.5-15.15-5.75-7.85-8.9-8.5-19.1-.15-2.7.55-3.05.65-.35.8 2.35.6 9.15 7.7 17.4 7.4 8.55 13.4 5.55 4.65-2.35 4.7-12.8.05-9.9-3.75-19.65"/><path fill="#0f141b" d="M230.7 279.15q-1.45-2-.45-1.75t2.5 2.25q17.3 23.9 9.35 30.3-.25.25-.95-.55t-.45-1.05q3.5-2.8.05-11.75-3-7.85-10.05-17.45"/><path fill="#0f141b" d="M222.7 261.1q-2.2-3.35-.85-2.65 1.4.7 3.55 4.05l6.6 9.45q6.3 10.25 5.25 14.55-.1.35-1.1-.4-.95-.75-.9-1.15.7-3.2-5.3-12.95l-7.25-10.9"/><path fill="#0f141b" d="m203.45 228.65 6.45 7.6q10.25 12.35 13.55 17.25 6.4 9.45 5.55 14.65-.05.35-1.25-1-1.15-1.4-1.2-1.8-.45-4.75-6.15-13.05-3.35-4.75-11.8-15l-6.85-8.4q-1.2-1.5-2.55-4.55-1.4-3.25-.9-2.45 1.7 2.65 5.15 6.75M199.95 167.35q-.15-.3 1-.75l1.25-.1q4.75 9.7 16.15 19.95 10.85 9.7 18.25 11.85 14 3.95 26.85 13.6 15.45 11.6 24.55 28.35 2.25 4.1 1.85 7.35-.3 2.4-1.75 3.55-3.95 3.25-11.15-1.35-9.65-7.15-16.45-10.55-2.35-1.2-11.85-2.6-9-1.35-12.55-3.6-6.1-3.85-9.3-12.95l-2.7-10.65q-.85-2.3-3.15-4.9l-5.25-5q-8.1-7.3-11.1-10.7-7.05-8.05-11.75-18.45-.15-.3.85-.95 1-.65 1.15-.3 4.65 10.35 11.3 18.35 3.85 4.65 10.7 10.8l5.5 5.25q2.45 2.75 3.35 5.3 2.3 8 3.15 10.05 3.75 9.3 9.15 12.7 2.55 1.6 11.3 3.15 9.2 1.65 11.95 3 3.55 1.7 8.2 4.9l7.1 4.95q7.4 4.9 10.5 1.85 2.6-2.45-.55-8.4-7.6-14-21.7-24.95-12.95-10.05-29-15.8-7.85-2.8-18.9-12.55-12.2-10.65-16.95-20.4"/><path fill="#0f141b" d="M288.8 247.3q.4-1.55.55-1.25 6.7 9.55 9.3 19.75 2.85 11-2.15 12.85-3.45 1.3-7.65-1.35-3.05-1.95-7.7-6.95-5.8-6.15-8.15-7.5-3.8-2.15-11.2-1.8-11.95.6-17.55-3.45-4.9-3.55-9-14.15-2.05-5.25-4.8-8.25-2.85-3.2-7.45-5.15-7.35-3.1-8.15-7.95-.6-3.55 2.5-10.2 1.35-2.8 1.7-4.35.6-2.6 0-5.55-.1-.35.9.4 1 .8 1.05 1.25.2 2.55-.5 5l-1.6 3.95q-2.55 5.4-1.3 9.45 1.35 4.15 6.65 6.45 4.75 2 7.15 4.6 2.8 3 5.45 9.75 3.55 9.15 8.45 12.75 5.75 4.25 16.4 3.75 7.8-.35 11.5 1.5 2.45 1.25 9.15 7.65 4.8 4.65 7.1 6.2 3.8 2.5 6.5 1.5 3.4-1.3 1.4-9.1-2.1-8.2-8.85-18.1-.1-.2.3-1.7M208 6.55q2.75 0 3.15.8.45.95-2.1 2.75-4.2 3.05-7.5 8.5-3.45 5.6-3.15 9.35.05.35-1.3.2-1.35-.15-1.35-.5v-.05q.35-4.45 4.35-10.55 4-6.1 8.1-8.45.7-.35-.2-.35-3.95 0-7.6 1.85-3.65 1.8-8 5.95-2 1.9-4.35 1.35-2.1-.6-2.65-2.3-3.8-11.15-13.65-13.25l-2-.05q-.2.3.7 2 1.8 3.45 2.25 8.75.5 6.05-2.05 7.1l-3.9-.2q-3.45-1.9-7.15-2.15-2.8-.15-5.15.6 5.2.1 9.85 3.7 4.45 3.5 5.2 7.55l-.95.65-1.05.15q-.35-3.8-5.25-7.25-4.55-3.25-8.25-3.15-4.8.1-.85-2.6 5.8-3.8 14.45 1 1.25.7 2.2.2 1.6-.9 1.2-5.6-.45-4.75-2.55-8.9-1.2-2.4-1.05-2.95.4-1.1 4.35-.45 11.5 1.9 15.25 14.3.25.85 1.45 1.2l1.4-.2q1.1-.4 1.85-1.2 3.95-4.2 7.5-5.95 3.75-1.85 8.8-1.85"/><path fill="#0f141b" d="M165.15 9.85q3.05-.1 6.95 1.55.3.1 0 .9-.35.8-.65.65-3.45-1.4-6.1-1.4 1.65 2.9 1.65 6.05l-.85.45q-.9.3-.85 0 .1-3.55-1.3-5.95-.75-1.25-.55-1.7.25-.5 1.7-.55M192.6 6.1q.55.2.9 1.95.45 2.35.4 4.9-1.85 2.1-1.85 1.65-.05-5.75-.3-6.35-1 .45-2.85 2.4-2 2.1-2.55 3.4-.1.35-.6-.55-.55-.9-.35-1.2 1.6-2.55 4.9-5.15 1.7-1.25 2.3-1.05M208 113q6.05-.25 9.05-5.15.8-1.25 1-.55.25.7-.55 1.95-1.75 2.85-4.05 4.2-2.25 1.3-5.4 1.4-6.85.15-11.2-5.9-.7-1-.45-1.7.3-.65 1 .4 1.95 2.7 4.8 4.1 2.7 1.35 5.8 1.25"/><path fill="#0f141b" d="M206 121.1q2.4.15 4.9-2.5 2.45-2.7 4.3-7.5 2.55-2.6 2.4-2.2-2.1 6.25-5.35 10.2-3.3 4.05-6.35 3.85-2.95-.2-5.45-4.15-2.4-3.85-3.65-10.1-.05-.3.85.4l.95.9q1.1 5.1 3.1 8.05 1.95 2.9 4.3 3.05M192.85 95.55q0-5-2.7-8.55-2.7-3.55-6.55-3.55-3.85 0-6.6 3.55-2.75 3.55-2.75 8.55 0 5 2.75 8.55 2.75 3.6 6.6 3.6 3.85 0 6.55-3.6 2.7-3.55 2.7-8.55m-20.3 0q0-5.5 3.4-9.5 3.3-3.9 7.8-3.9t7.65 3.9q3.2 3.95 3.2 9.5 0 5.6-3.25 9.6-3.3 4.05-7.75 4.05-4.55 0-7.7-3.6-3.35-3.85-3.35-10.05"/><path fill="#0f141b" d="M188.6 95.5q0-2.85-1.3-4.95t-3.1-2.1q-1.75 0-3.05 2.1-1.3 2.1-1.3 4.95t1.3 4.95q1.3 2.05 3.05 2.05 1.8 0 3.1-2.05 1.3-2.1 1.3-4.95m-10.45 0q0-3.45 1.85-5.95 1.8-2.5 4.2-2.5 2.4 0 4.15 2.55 1.75 2.55 1.75 6.05 0 3.45-1.75 5.85-1.75 2.4-4.15 2.4-2.4 0-4.2-2.45-1.85-2.5-1.85-5.95M237.25 95.5q0-4.75-2.25-8.15-2.3-3.35-5.55-3.35t-5.55 3.35q-2.3 3.4-2.3 8.15 0 4.8 2.3 8.2 2.3 3.4 5.55 3.4t5.55-3.4q2.25-3.4 2.25-8.2m-17.15 0q0-5.35 2.8-9.3 2.8-3.9 6.6-3.9 3.85 0 6.65 3.9 2.75 3.9 2.75 9.3 0 5.75-2.8 9.35-2.65 3.45-6.65 3.45-3.85 0-6.6-3.75-2.75-3.75-2.75-9.05"/><path fill="#0f141b" d="M233.3 95.9q0-2.7-1.1-4.7t-2.6-2q-1.5 0-2.6 2t-1.1 4.7q0 2.65 1.1 4.65 1.1 1.95 2.6 1.95t2.6-1.95q1.1-2 1.1-4.65m-9 0q0-3.35 1.55-5.65Q227.4 88 229.6 88q2.15 0 3.7 2.5 1.55 2.45 1.55 5.8 0 3.2-1.7 5.4-1.6 2-3.55 2-2.2 0-3.75-2.25-1.55-2.25-1.55-5.55M174.75 102.15q.1-.15.4.25l.15.55q-1.05 1.35-4.25 1.5-2.75.1-4.4-.65-1.05.6-1.9-.3-.45-.5-.5-1.2-.1-.75.35-1.15.45-.35 1.2-.2.75.1 1.2.65.45.5.15 1.5l4.2.4q2.55-.25 3.4-1.35M241.7 105.6l-3.15-.05q-2.1-.55-2.55-1.55-.1-.15.25-.45.35-.35.4-.15.3.65 1.85 1.2l2.85.25q0-.8.85-1.2.5-.3 1.05-.25.55 0 .75.4.2.4-.1 1.05l-.85.9-1.35-.15"/><path fill="#fff" d="M183.1 94.7q0-1.15.55-1.95t1.35-.8q.8 0 1.35.8t.55 1.95q0 1.15-.55 1.9-.55.8-1.35.8t-1.35-.8q-.55-.75-.55-1.9M227.7 95.15q0-1.05.5-1.8t1.2-.75q.7 0 1.2.75t.5 1.8q0 1.1-.5 1.85t-1.2.75q-.7 0-1.2-.75t-.5-1.85"/></svg>