<svg xmlns="http://www.w3.org/2000/svg" width="315" height="239" viewBox="-0.15 -0.05 315.3 238.75"><path fill="#005e96" d="M197.55 174.75q3.05-1.3 5.25-3l3.85-2.9 3.25 5.75-4.9 7.9q-10.95 3.25-17.65-1.1-4.15-2.65-5.7-7.1l1.9-3.15 5.1 1.6q3.4 4.35 8.9 2M171.65 188.7l-6.65-5.8 5.05-12.5 4.35 2.7q.1 2.5-.7 7.6-.9 5.65-2.05 8M205 97.05l-2.25-15.9q4.15-7.75 5-7.6.55.1 2.35 7.4 1.8 7.45 2 10.85l3.3-.35 3.7.15q.4.45-2.65 7.1l-4.45 8.8-7-10.45M249.25 163.5l9.1 6.65q-1.45 7.05-3.1 10.4-.55 1.4-1.5 2.35-.8.8-1.45.9-2.1.35-6.05-6-1.2-1.95-4.65-8.5l7.65-5.8M302.5 191.5q.3 3.9-.9 11.95-1.4 9.45-3.6 9.95-2.15.45-6.55-4.25-2.9-3.05-4.7-5.7l4.1-15.55 11.65 3.6M165.6 26.9l5.8 4.25 8.25-13.25q8.45-13.15 9.75-12.8 2.05.6 6.25 35.6l6.15-1.9q6.25-2.05 6.65-1.75.95.7-4.8 14.25-5.85 13.65-8.75 17.3l-22.2-2.4-14.5-18.6q-.55-6.7.1-15.95.6-8.5 1.2-8.8.35-.2 6.1 4.05M114.4 25.85q.75.2 1.95 10.75 1.15 10.35.95 14.4l-16.65 26.75-10.2 14.05-12.4 5.8L65 106.85l-8.6-2.55q-6.8-2.3-6.8-2.7 0-1.05 6.65-3.8l7.65-3-4.65-9.6q-4.2-8.7-3.95-9.25l6.95-.35 13.3.85q-8.3-11-10.45-27.35-.7-5.4-.6-10.3.1-4.05.45-4.25.55-.25 4.85 2 4.9 2.55 9.4 5.9Q80.45 30 84.45 15.3q3.5-13.15 4.65-13.35.9-.15 7.8 11.5 7 11.75 10.45 19.35l3.7-4.25q2.7-2.9 3.35-2.7"/><path fill="#be7b79" d="M216.55 144.3q-3.55 12.35-13.35 20.75-10.45 8.95-24.5 10.05-15.85 1.2-29.95-3.85-13-4.7-19.35-12.65-8.2-2.95-17.9-10.05-19.35-14.2-26.75-34.9-4.2-13.3-2.7-24.65.5-3.55 1.45-6.5l.9-2.2q8.9-15.9 24.55-25.3 16.15-9.65 35.05-9.65 25.65 0 44.9 16.85 19.1 16.65 22.7 41.6l.35 16.15 4.6 24.35"/><path fill="#005e96" d="M78.05 82.4q3.45-7.75 4.55-7.75 1.4 0 8.85 29.4l2.15-1.5q2.2-1.5 2.7-1.4.55.1 1.45 5.4.8 4.9.8 6.65l-6.4 10.9-14.75-14.35-3.8-14.7q.9-4.75 4.45-12.65"/><path fill="#005e96" d="m77.15 125.7.55-7.85 9.1-3.4q2.7 5.1 5.1 7.5l2.15 2.9q2.9 3.7 6.5 7.3 11.6 11.55 26.35 18.45l-1.65 6.2q-21.45-6.4-35.8-18-8.05-6.45-12.3-13.1M36.95 180.35q-2.7 4.95-8.95 11.1-6.6 6.55-9.1 6-2.25-.5-3.15-9.45-.65-6.8-.35-11.9l11.95-2.1 9.6 6.35M77.2 207.35l8.25 4.7q-1.3 6-5.3 14.4-4.6 9.7-7.5 9.65-2.85-.1-6.95-8.75-3.1-6.5-4.55-11.75 8.05-4.1 16.05-8.25"/><path fill="#f8dd00" d="M220.8 82.15q3.85 1.75 6.1 3.4 2.25-5.2 3.6-5.2.95 0 1.85 3.65l1.05 6.4 2 3.1 1.7 3.1 9.3 14.7q10.3 17.4 15.2 30.7l-8.75 29.7q-2.5 5.3-3 5.3t-5.05-6.55q-4.35 4.1-4.95 3.85-.4-.15-1.1-3.95l-.65-3.75q-6.15-3.25-8.95-9.55-2.05-4.6-1.8-8.75.15-2.55.75-5.9 1.3-6.75 3.75-10.9-3.2-7.15-8.85-22.75-5.2-14.4-5.9-17.4-.75-3.3-1.05-6.2-.35-3.7.5-4.3.45-.4 4.25 1.3M87.25 75.95q4.7-9.35 16.65-17.65 5.95-4.1 10.95-6.4 9.85 6.2 17.5 18.9 2.65 4.45 4.25 8.35 1.4 3.45.9 3.6-.25.1-2.75-1.2l-2.6-1.25q-.15.1-.6 3.5l-.6 3.55q-.15.15-4.4-.9l-4.4-1q-.15.1-.4 2.8l-.4 2.8q-3.7-3.55-9.7-7.3-12.05-7.45-24.4-7.8M163.4 85.2l-3.05-3.85q-3.95 3.2-4.3 3.15-3.55-6.95-9.4-14.9-11.7-15.95-24.25-21l3.95-1.15q5.1-1.25 10.6-1.75 17.75-1.6 33.6 5 2.35 2.65 4.35 15.55 1.95 12.65 1.1 18.55l-2.5-1.8-2.35-1.85Q166.9 89 166.55 89l-3.15-3.8M195.35 86.7l-1.2-1.35-1.1-1.4q-.1-.05-2.25 1.1l-2.3 1.1q-.2-.05-1.5-2.45l-1.4-2.45-1.9.3-1.9.25q.4-2.7.45-7.25.15-9.25-2.2-18.85l7.75 5.7q8.65 7.15 13 14.7-1.55 6.8-5.45 10.6"/><path fill="#005e96" d="m222.1 94.45 2.75-.05q1.7.6 2.9 1.75l1.85 2.25q1.8 3.1 1.6 7.45-.3 6.5-3.5 15.15-3.4 9.1-9.15 18.2l-2-10.95q3.85-11.2 4.75-23.5l.8-10.3"/><path fill="#f8dd00" d="M163.3 170.85q3.35.4 5.55 5.3 1.45 3.2 2.1 8.3.7 5.3.35 10.85-.4 6.5-2.2 11.6-2.65 7.4-7.85 13.55-4.15 12.7-4.85 12.9-.5.1-2.6-2.9-1.95-2.8-2.65-4.35l-5.1 7.1-3.45 4.35q-1.25 0-2.4-8.25-1.15-7.95-.85-13.25-3.55 1.55-3.9 1.2-.3-.3 1.55-5 1.95-5 3.8-8.4 2.6-10.05 7.2-18.5 4.15-7.65 8.5-11.6 3.75-3.3 6.8-2.9M208.75 167.45l10.9-.35q8.05 1.35 14.95 6.7 6.9 5.2 12.05 15.6l4.55 4.35q2.65 2.75 2.55 3.4-.05.55-1.5 1.1l-2.9.8q.65 2.35 1.05 10.8.35 8.7-.4 8.95-.6.25-5.45-4.85l-7.55-8.3.35 5.45q.05 4.15-.55 4.25-.4.05-2.75-2.8l-4.85-6.3q-3.15-4.4-9.1-11.5-1.25 4.65-1.9 4.75-.95.15-3.95-5.45l-2.8-5.6q-.35 4.1-.9 4.1-.35 0-2.15-3.75l-2.25-5.15q-3.25-3.55-3.15-8 .05-2.85 1.2-4.85 1.4-2.25 4.55-3.35M85.3 93.75q5.05-2.45 5.7-2 .5.3-.9 6.35-1.3 5.5-1.95 7.1l3.85 1.25q3.8 1.3 3.75 1.85-.05.45-6.1 4.2-6.25 3.85-6.7 4.45l-10.8 15.2q-9.35 13.2-11.55 15.55l.25 6.1q-.05 6.55-1.6 8.65-7.85 4.95-10.75 13.3-1.45 4.15-1.35 7.35L44.9 181l-1.35-1.5q-5 7.1-5.6 6.95-.65-.1-5.2-7.95-5.55 3.5-6.05 3.4-.45-.15-1.5-5.85-16.3 4.55-17.05 3.65-.45-.55 1.05-6.45l1.65-5.85-4.95-.2q-4.95-.35-5.1-1-.15-.6 3.25-4.75l3.45-4q-4.65-2.3-4.75-3.3-.1-.6 3.55-2l3.7-1.25q1.25-9.65 7.65-14.35 4.2-3.1 10.8-3.9l5.75-.2q3.1-3.3 16.3-14.25 14.1-11.65 21.1-16.4 7.5-5.1 13.7-8.05M196.55 94.1q5.65 7.1 7.95 14.6l2.85-4.25q2-2.7 2.55-2.7.95 0 2.85 5.7 2.25 6.65 2.2 13.1 3.6 6.55 4.25 12.7.8 7.3-3.05 11.2l-17.55 5.3q-2 2.4-6.55 6.45-5.5 4.85-7.25 5-1.85.1-10.65-3.15-7.1-2.6-13.65-5.4l-22-7.55q-1.25-.8-2.8-2.55l-1.4-1.45q-.15.05-.65 2.15l-.8 4.2q-2.3-.85-4.1-5.3l-1.5-4.3-2.15 2.65-2.95 4.1q-1.65-1.65-2.7-4.55l-.7-2.6q-.5-2.6-.15-5.6.35-3 1.45-5.25-2.45-5.65-2.4-14.65.05-8.1 1.3-8.8.5-.3 5.5 2.35 3.7 1.9 6.4 3.55.7-5.45 1.8-10.8 1.6-8.05 2.75-8.45 1.65-.55 7.1 3.5 5.15 3.9 8.7 8.05 5.25-1.3 13.5-1.75 11.15-.55 18.95 1.4.4-2.55 2.4-7.5 2.25-5.65 3.55-5.65 1.95 0 6.95 6.25"/><path fill="#005e96" d="m107.45 146.6.2-11.9 5.15-5.5q3.2 5.5 6.85 9.75 6.55 7.55 15.8 13.3 1.8 1.15 1.6 4.75-.15 3.45-.8 3.4-3.45-.25-12.95-4.4-10.8-4.8-15.85-9.4"/><path fill="#f8dd00" d="M48.1 196.6q-5.9-1.6-6.15-2.35-.15-.45 3.25-2.65l3.4-2.05q-.85-2.15-1-5.45-.3-6.7 3.1-12.65 3.95-6.85 10.85-9.7 3.5-1.45 6.15-1.5 3.6-6.7 7.75-13.8Q83.6 132.5 90.2 123.8q7.75-10.2 13.45-16.15 5.55-5.75 7-5.25.7.25 1.2 6.5l.35 8.85 4.55.15q4.6.25 4.8.75.2.45-4.95 6.5-5.4 6.35-5.7 7.2l-4.95 17.95-5.95 20.65 1.15 2.45q1.25 3.15 1.75 6.4 1.65 10.5-4.65 18.55 5.1 9.7 4.95 10.45-.1.7-7.55-.7l-1.15 7.4q-1.05 5.85-1.75 6-1.1.25-11.1-10.05-4.9 6.35-5.55 6.35-.6 0-2.95-6.25-15.45 9.6-16.55 9.1-1.15-.45-1.55-13.9-9.9 2.4-10.5 1.55-.4-.55 1.55-6.15l2-5.55M247.85 95.1q1.85 4.1 2.9 8.8 7 6.65 18.2 21.1l12 16.05 6.4 1.45q7.5 2.4 12.85 7.2 5 4.45 6.35 10.95.65 3.2.4 9.05 5.8 3.3 5.8 3.8t-3.6 2.1q5.35 7.4 5.1 8.25-.25.85-8.45.55 1.45 7.85.85 8.35t-9.3-2.9q-.9 4.55-1.5 4.95-.65.35-5.4-3.25-3.7 12.45-4.35 12.6-.6.1-7.3-7.15-4.25 5.2-5.35 5.05-.7-.05-2.15-4.45l-1.3-4.4q-2.7-1.1-5.5-3.1-5.5-3.9-8.9-10-3.7-6.6-1.65-15.6.7-2.8 1.85-5.5l1-2.15-10.1-19.8q-9.3-18.2-11.55-23.3l-5.3-12q-2.25-5.5-1.15-6.35 1.05-.75 4.8.05 3.8.8 8.25 2.75 1.7-7.15 3.2-7.15 1.05 0 2.9 4.05"/><path fill="#005e96" d="M215 147.95q5.55-1.95 10.05-8.95 2.9-4.55 6.3-13.1 2.05-5.1 3.45-11.9.9-4.65 1.9-5.1 1.3-.55 4 1.5 3.55 2.65 4.7 8.05.65 3.2-1.65 8.9-2.4 5.9-6.9 11.7-11.3 14.65-25.75 17.15l2.9-5.3 1-2.95M175.1 126.65q.2 2.05-.8 3.8-1.1 2.05-3.2 2.25-2.1.15-3.55-1.65-1.3-1.55-1.45-3.6-.15-2.1.8-3.85 1.1-2.05 3.2-2.25 2.1-.15 3.55 1.65 1.3 1.6 1.45 3.65M177.1 143.95q.15 2.1-.8 3.85-1.1 2.05-3.2 2.2-2.1.2-3.55-1.6-1.3-1.6-1.45-3.65-.2-2.05.75-3.85 1.1-2.05 3.2-2.2 2.15-.2 3.6 1.6 1.25 1.55 1.45 3.65M193.7 125.85q-.05 2.1-1.15 3.75-1.3 1.9-3.45 1.9-2.1-.05-3.35-2-1.1-1.65-1.1-3.75.05-2.05 1.2-3.7 1.3-1.95 3.4-1.95 2.15.05 3.4 2 1.1 1.7 1.05 3.75M194.8 143.75q-.05 2.1-1.15 3.7-1.35 1.95-3.45 1.9-2.15 0-3.4-1.95-1.1-1.7-1.05-3.75.05-2.1 1.2-3.75 1.3-1.95 3.4-1.9 2.1.05 3.35 2 1.1 1.65 1.1 3.75"/><path fill="#005e96" d="M215.8 145.6q-1.15 5.4-4.45 8.05-2.95 2.35-6.45 1.8-3.7-.65-5.45-4.55-1.7-3.85-.65-8.8 1.1-5.3 4.25-8 3.05-2.6 6.65-1.85 3.7.8 5.4 4.9 1.65 3.85.7 8.45M159.5 140.7q2.7 5.25 1.55 10.05-1.1 4.6-5.1 6.45-4.3 2-8.85.15-4.4-1.8-6.75-6.25-2.3-4.2-1.55-8.95.8-5.25 5.05-7.55 3.75-2 8.4-.35 4.85 1.75 7.25 6.45"/><path fill="#975f5e" d="M165.8 172.35q-4.1-2.75-9.8 1.3-4.35-1.05-9.75-3.35-10.85-4.6-16.3-10.8 5.65 1.8 6.5 1 .8-.8.8-4.45 3.35 2.55 10.85 5.4 9.05 3.45 18.3 4.8 25.9 3.8 39.5-10.6l2.8-.45q3.1-.95 4.9-3.35-2.65 6.3-9.6 12.45-13.9 12.35-35.25 11.55-.9-2.15-2.95-3.5"/><path fill="#004c7e" d="m194.8 175.95 2.6 2q3.25 1.95 6.5 1.9l1.25 2.45-4.5 1.35q-5.25 1.05-9-.2-4.1-1.35-6.9-4.1-2.35-2.3-2.7-4.35l7.4-1.9 1.4 1.6q1.8 1.5 3.95 1.25M168.4 174.8l5.5.5q.35 5.55-1.1 10l-1.55 3.3q-.15-4.15-1.2-8.65-.85-3.7-1.65-5.15M298.3 213.35q-.8.6-2.85-.6-2.05-1.15-3.35-2.85l-5.15-6.7 3.7-11.05q2.2 11.2 7.65 21.2M243.3 171.9l1.55-1.1q4.25 6.7 5 6.4.8-.3 3.1-6.55-.1 2.45 1.2 6.75l1.3 3.85q-1.7 2.5-2.8 2.65-2.1.3-5.7-5.3-2.8-4.3-3.65-6.7M82.5 220.15q-2.25 6.45-4.95 11.75-2.15 4.2-4.25 4.6l-1.7-.4q2.95-9.85 2.05-24.3 1.7 5.9 2.3 5.75.65-.15 5.8-6.05l2.5 3.25-1.75 5.4M20.05 197.5l-1.7-.05q2.4-3.6 4.75-11.2l2.55-9.2.3 2.3q.4 2.35.8 2.55.35.15 3.25-1.45 3-1.7 3.15-1.7.3 0 1.3 2.05l1 2-2.15 3.4q-2.95 4.05-6.85 7.35-3.9 3.3-6.4 3.95M109.15 139.5q2.5 3.45 9.25 8 8.6 5.8 18.65 9.15l-.6 3.85q-5.45-1.25-18.35-5.8l-11.75-4.3 2.8-10.9M87.05 128.45l-3.9 5.3-6.25-8.25 4.2-5.8 2.4 3.95q2 3.05 3.55 4.8M50.25 101.15l19.7 2.35-5.65 3.3q-13.25-4.55-14.05-5.65M64.8 34.95q.65 10.1 4.55 22.05 3.6 11.15 8.1 18.35 1 1.6.5 2.05l-2.2.1q-2-3-4.25-7.3-4.55-8.6-5.8-15.15-1.65-8.95-1.45-15.4l.55-4.7M159.7 23.35l.15 9.9q.3 10.6 1.15 14.05l-2.85-.3q-.2-5.25-.15-10.85.15-11.15 1.7-12.8M217.7 93.95l.65 2.05-5.7 11.35-1.45-4.15 6.5-9.25M218.35 153.9l-7.05 2.2 3.25-6.05q9.5-1.05 20.85-14.6 8.4-10.05 10.3-15.2l-1.85 7.25q-3.2 8.55-9.75 15.3-7.2 7.45-15.75 11.1M231.2 107.3l-.3 3.9q-.7 4.9-2.6 9.85-1.9 4.95-5.4 10.95l-3.1 5-.8-6.6q3.45-3.55 8.15-13.5 3.65-7.85 4.05-9.6"/><path fill="#d5c000" d="m255.3 159.8 1.25-2.6-13.95-26.75q1.15-1.3 2.45-5.6.85 2.4 15.5 29.05l1.25 2.9-.2 3.95q-.45 5.6.5 10.25 1.35 6.75 5.6 10.7 6.1 5.75 16.8 4.5 11.3-1.3 17.4-9.8 1.9-2.65 3.2-7.15 1.3-4.4 1.2-7.9l.4 2.05.35 4.25.15 2.2q5.75 2.8 5.6 3.45-.1.6-3.55 2.8 5.35 7.05 5.1 7.65-.25.65-8.55.9 1.65 7.45 1 8.05-.65.65-9.6-2.55-.5 4.5-1.25 4.6-.8.15-5.75-3.2-3.35 12.55-4 12.7-.6.1-7.65-6.95-3.85 4.75-5.1 4.9-.8.05-2.5-4.5l-1.5-4.6q-.95-.1-2.6-1.05-3.35-1.8-6.95-5.7-7.9-8.6-6.4-19.75.45-3.5 1.8-6.8M231 105.65q-3.55-8-2.2-9.6l7.45 13.95-1.45 3.3q-2.05-3.65-3.8-7.65"/><path fill="#d5c000" d="M234.15 145.7q1.85 1.85 4.1 3.2 7.15 4.4 15.35 2.4l2.95 5.9q-2.2 3.4-3.2 9-.5 2.8-.6 4.95-2 5.8-2.9 6.05-.9.25-5.2-6.35-4.25 3.9-4.9 3.9-.45 0-1.05-3.75l-.55-3.8q-7.05-4-9.7-11.55-.85-2.35-1.15-4.8l-.15-1.95q2.45-1.4 5.6-4.8l1.4 1.6M227.9 122.5l1.8-6.2q2.45 6.05 3.2 7.35l-2.6 5-2.4-6.15M221.75 96.25l-.35 8.1-3.3-10.3q-2.3-7.45-2.25-10.75l.45-1.8q.15 1.05 5.45 14.75M48.65 189.35q-1.1-2.85-.85-6.05l.5-2.6q-.3 2.35 1.85 6.3 2.65 4.75 7.3 8.05 8.95 6.25 18.9 4.65 9.5-1.45 14.75-9 4.75-6.75 2.5-16.05l-.6-3.3q.05-.75.75-2.8 12.25-34.8 13.75-36.95 1.5-2.1 6.6-6.95 5.2-4.85 7.4-6.2l-10.95 14.25-10.4 38.2 1.2 2.4q1.3 3.1 1.85 6.35 1.75 10.5-4.95 19.1 5.4 8.95 4.9 9.9l-7.6-.25q-2.25 12.9-3.1 12.9-.85 0-10.7-9.8-4.75 6.3-5.85 5.7-.65-.35-1.7-3.1l-.95-2.65q-15.8 9.5-16.6 8.9-.85-.6-1.6-13.25-10 1.8-10.5.6-.3-.75 1.8-5.75l2.1-4.85-3.3-1.15q-3.35-1.25-3.35-1.65 0-.35 3.45-2.7l3.4-2.25"/><path fill="#d5c000" d="M69.55 127.1q10.2-11.9 11.45-12.85 1.75-1.35 6.8-3.4 5.55-2.25 8.15-2.25l-13.4 8.4-21.7 31q.9 4.4-.05 10.05l-1.15 4.8q-8.7 4.2-11.25 12.9-1.25 4.35-.8 7.85l-4.1-3.9q-4.7 7-5.3 7-.6 0-5.35-8.2-5.05 3.65-6.1 3.4-.7-.15-1.15-2.95l-.3-2.75q-16.55 3.9-17.05 3.4-.45-.5 2.45-11.95-9.3-.85-9.55-1.55-.15-.45 3.05-4.5l3.25-3.95q-4.5-2.65-4.5-3.4 0-.45 3.7-2.1l3.65-1.55 1.1-4.4q-.3 1.7 0 4.05.4 3.25 1.75 6.1 2 4.3 5.5 6.95 4.05 3.1 10.75 4.4 10.35 2 17.45-3.25 7.5-5.55 7.05-16.4-.05-1.45.2-2.2.25-.8 1.2-1.9l14.25-16.85M211.5 188.65q-.1 3.95-.85 3.95t-4.15-8.6q-3.7-4.75-3.4-8.2l1.05-2.5q0 1.75 2.45 4.45 3.05 3.3 9.35 7.35l12.4 7.65q6.2 4.05 9.7 7.95 5.05 5.65 9 12.3 1.95 3.3 2.9 5.5-.8.55-7.15-6.3l-6.25-6.95q1.5 9.9.6 10.15-.65.2-2.7-2.05-2.1-2.3-3.55-4.8-1.2-2.15-6-8l-4.55-5.4q-.6 4.05-1.85 4.45-1.2.35-7-10.95M167.35 173.85q1.95 3.25 3.2 12.1 1.35 9.45.2 15.35-.95 5.2-5.55 13.35l-4.35 7.05q-3.4 11.75-4.45 12-1.05.25-5.25-7.55-.75 1.8-8.6 11.2 3.7-17.05 14.4-31.7 5.15-7 8.25-18.4 2.45-9.05 2.15-13.4"/><path fill="#004c7e" d="M166.35 127.65q1.2 2.3 4.1 2.55 2.9.25 5.1-1.7-1.05 2.3-2.7 3.4-1.45 1-2.9.75-2.2-.45-3.15-2.75l-.45-2.25M185.05 126.55q1.35 2.55 4.3 2.6 2.85.05 4.55-2.05-1.1 2.65-2.35 3.55-1.25.95-3.4.55-1.65-.25-2.6-2-.8-1.55-.5-2.65M168.2 144.9q1.2 2.15 3.95 2.5 2.9.4 5.3-1.7-1.05 2.3-2.7 3.45-1.5 1-2.95.7-2.2-.45-3.1-2.75l-.5-2.2M186.15 144.5q1.25 2.3 4.1 2.55 2.95.25 4.75-1.95-1.1 2.65-2.35 3.55-1.25.95-3.35.55-1.65-.3-2.6-2.05-.85-1.55-.55-2.65M215.35 148.1q-1.1 4.1-4.5 6.3-4.4 2.9-8.2.5-3.05-1.9-3.25-4.3 1.5 1.45 4.25 1.55 2.9.15 5.6-1.3 6.8-3.5 6.8-12.6.15 6.55-.7 9.85M140.75 152.8q-2.9-4.25-2.35-9.1 3.2 7.95 10.5 10.2 6.3 1.95 11.55-1.05-3.5 7.3-13.2 4.95-3.8-.95-6.5-5"/><path fill="#fff" d="m188.9 121.05 1.6-.1q.85.3 1.4 1.1.65.95.5 1.85-.1.85-.8 1.25l-1.7.1q-1.05-.35-1.55-1.35-.3-.6-.25-1.35.05-1 .8-1.5M169.9 125.85q-.55-.8-.45-1.9.1-1.2 1-1.65.5-.25 1.25 0 .95.25 1.6 1.15.65.95.45 1.95-.15.95-.9 1.3l-1.6.15q-.85-.25-1.35-1M172.25 139.4l1.8.1 1.15 1.05q.7 1.2.4 2.2-.25.9-1.15 1.2l-1.65-.15q-.95-.4-1.35-1.35-.35-.85-.1-1.8.25-.95.9-1.25M189.4 141.95q-.45-.8-.3-1.8.2-1.1 1-1.4l1.55.05q.8.3 1.4 1.05.6.75.55 1.8-.1 1-.85 1.45l-1.65.15q-1.05-.3-1.7-1.3M208.5 133.7q.65-.75 1.65-.8 1.15 0 2.5 1 1.25 1.15 1.65 2.6.4 1.5-.4 2.25-.95.8-2.35.65-1.5-.2-2.5-1.4-.95-1.15-1.05-2.4-.1-1.15.5-1.9M151.05 135.1l2.35-.2q1.35.45 2.35 1.65 1.2 1.35 1.25 2.75.05 1.35-1 2.05-.75.55-2 .4-1.4-.1-2.5-1.1-1.5-1.3-1.5-3.05-.05-1.65 1.05-2.5"/><path fill="#0d131a" d="M212.5 105.35q.05.35-.95-.9l-1.05-1.6q-4-24.2-22.95-40.3-19-16.1-43.65-16.1-18.1 0-33.85 9.1-15.7 9.15-24.7 24.85-.1.2-.55-.75-.45-.95-.2-1.35 8.6-15.5 24.8-24.95 16.2-9.45 34.35-9.45 25.55 0 45.5 17.3Q209.7 79 212.5 105.35M215.7 144.35q.1-.4.45 1l.15 2q-3.1 11.4-13.65 19.65-10.65 8.3-23.65 9.3-5 .4-10.4.1l-.65-2.55q5.75.4 10.7 0 13.1-1 23.85-9.7 10.5-8.55 13.2-19.8M155.8 174.5q-8.8-2.15-16.5-6.65-7.2-4.2-11.3-9.1-.2-.25 1-.25l1.45.25q4.05 4.5 10.95 8 7.15 3.65 16.25 5.65l-1.85 2.1"/><path fill="#0d131a" d="M187.6 101.9q1.35.65 1.15 1.15-.25.55-1.6 0-7.65-2.95-20.2-2.65-9.45.25-15.6 1.75l-.9-.7q-.6-.8-.35-.9 5.75-1.8 15.85-2.1 13.5-.4 21.65 3.45M212.7 118.25q-.8-1.15-.35-1.45.45-.3 1.3.85 5.1 6.5 6.55 13.35 1.85 8.65-3.55 14.2-.2.2-.7-.3-.5-.5-.3-.7 4.35-4.3 2.7-12.75-1.35-6.9-5.65-13.2M126.3 138q.7-.7 1.15-.5.45.2.85 1.4 2.05 6.3 4.2 7.8.55-3.95 1.2-5.45.3-.65.55-.7.25-.05.7.4l.8.9q1.9 2.15 3.15 2.95.25.15-.1.85l-.6.55q-1.55-1.05-3.55-3.75l-1.1 4.95-.25.65-.65-.15q-2.1-.8-3.8-3.8-1.35-2.4-1.85-5l-3.05 4.05q-.15.25-.7 0-.55-.2-.4-.45 2-3.4 3.45-4.7M121.65 103.3q1.5.55 3.95 1.95 2.75 1.55 5.15 3.3.25.2 0 .95-.2.75-.45.6l-6.95-3.95q-3.7-1.95-4-1.75-.5.35-.85 3.9-.45 4.5.25 9.75l-1.9-.15q-.9-7.35.5-12.5.65-2.55 1.4-2.8.55-.2 2.9.7M118.05 123.8l1.35-2 1.25 4.8q-1.05 1.2-1.2.85l-1.4-3.65"/><path fill="#0d131a" d="M121.35 126.4q-1.05 2.35-1.5 5.95-.5 3.75 0 6.55.05.3-.85-.25l-.95-.8q-.5-3.1.05-6.45.6-3.4 2.1-5.75.85-1.4 1.35-1.05.5.3-.2 1.8M135.2 89.3q2.6-.75 9.25 4.5 6.7 5.3 9.2 10.25.55 1.15.2 1.45-.4.25-1.2-.8-3.4-4.65-9.55-9.6-6.05-4.8-7.35-4.1-1.1.6-2.7 8.85-1.3 6.7-1.6 10.3-.2 2.05-.85 1.9-.65-.2-.6-2.3.1-3.75 1.35-10.6 1.7-9.25 3.85-9.85M185.25 93.45q2.45-6.05 4.4-6.05 2.6 0 7.95 6.45 6.15 7.45 7.8 15.65.25 1.15-.2 1.35-.4.15-.75-.95-2.3-7.3-8.25-14.75-5.15-6.45-6.55-6.25-.9.15-2.9 5.05-1.95 4.65-2.4 7.25-.05.25-.7.15-.65-.1-.65-.4.1-2.25 2.25-7.5"/><path fill="#0d131a" d="M208.1 102.35q1.25-1.2 1.9-1.05.65.1 1.65 1.7 1.8 2.85 2.95 6.9 1.5 5.4 1.05 10.95-.05.35-1.4-.45 0-5.65-2.05-12.1-1.8-5.6-2.4-5.45-.35.05-2.15 2.55-1.8 2.45-2.7 4-.15.25-.45-.6-.3-.85-.15-1.1 2.25-3.85 3.75-5.35M114.15 52.6q-.1-.1.55-.55.7-.45.85-.35 9.45 5.7 16.35 16.95 4.7 7.65 6.15 13.45.3 1.05 0 1.35l-1.05-.1-4.5-2.1-.75 6.05-.35 1.05-.95.1-7.7-2.2-.35 4.65q-.25 1.15-.65 1.2-.4.05-1.4-.75-16.9-14.15-33.15-14.6-.2 0-.05-.7.15-.75.35-.75 8.9.25 16.85 3.65 8.5 3.65 16.8 11.25.1-3.3.4-4.7l.3-.75 1 .05 3.3.85 4.2 1.15 1-6.35q.15-.55.45-.7l.85.15 3.95 1.9q-1.1-4.75-6.65-13.05-7.2-10.7-15.8-16.15M174.15 66.25q-1.8-10.6-4.15-15.1l.75-.15.85.15q3.4 7.7 4.75 19 1.05 8.95.45 14.15-.15 1.45-.55 1.6-.3.1-1.15-.6l-3.75-3.3-3.8 6.95-.8.85q-.45.1-1.15-.7l-5.3-6.9-3 2.65q-1 .8-1.3.7-.35-.1-1.25-1.55-9.85-16.1-18.3-24.5-7-6.95-14.55-10-.2-.05.4-.65.6-.6.8-.55 17.7 7.2 33.1 35.6l3.55-2.8.65-.35q.3 0 .75.6l5.35 6.4 4-6.65q.35-.6.6-.65.3 0 .9.5l3.4 2.75q.6-6.65-1.25-17.45M179.2 56.05q-.05-.2.7-.35l.8.1q2.5 7.75 2.35 17.25-.1 4.75-.7 8.05l2.8-.45h.8l.5.55 2.2 4.2 3.65-1.75q.7-.35.95-.3.3.05.65.6l1.3 1.95q1.2-1.1 2.5-3.35 1.85-3.3 2.55-7.3l.65.45.55.9q-.55 3.5-2.3 6.6-1.4 2.35-2.95 3.7-.85.65-1.2.6-.35 0-.8-.75l-1.25-2.2-3.5 2.05q-.75.4-1.1.3l-.8-.9-2.1-4.15-2.95.8-1 .05q-.55-.25-.4-1.6l.5-9.5q-.1-8.65-2.4-15.55"/><path fill="#0d131a" d="m205.4 36.25 4-.2q.6.5-.25 3.45-1.85 6.45-5.95 15.95-4.4 10.15-7.15 13.7-.15.25-1.1-.5l-.8-.85q3.25-4.15 7.95-15.2 4.4-10.3 5.25-14.7-1.8.45-6.25 2.05l-4.55 1.6-1.8-.05q-.3-.35-.4-1.6l-2.75-19.2q-2.2-13.9-2.7-13.95-.55 0-8.3 12.15l-7.85 12.45q-.9 1.45-2.45.4L165.25 28l-5.05-3.45q-.45.1-1.1 8.65-.75 9.2-.2 14v.05l-1.1.1q-1.1-.2-1.15-.55-.5-6.5.25-15 .75-9.1 2.15-9.75 1.25-.55 6.65 3.55l5.65 4.55q2.6-5.15 8.1-13.9 5.65-8.85 7.65-10.9 1.65-1.75 2.55-1.55.9.25 1.55 2.65.9 3.35 2.5 13.05 1.9 11.6 2.55 19.9l4.1-1.5q3.75-1.4 5.05-1.65M90.95 1.7q2.3 2.6 8.25 12.85 6.15 10.55 8.5 16.25l2.1-2.6q1.6-1.95 2.8-2.75 1.55-1.1 2.3-.95.85.2 1.35 2.25 1.05 4.2 1.6 13.05.5 8 .2 10.9-.05.3-.95.55-.9.25-.9 0 0-4.85-.65-12.6-.7-8.7-1.55-11.4-1.3.8-3.35 3.1l-2.05 2.5-1.25 1.15q-.6.05-1.4-1.6Q97.7 14.7 89.2 3.3q-2.3 6.2-4.55 15.3-3.15 12.6-4.25 23.75-.2 2-1.85.8-3.95-2.85-8.6-5.5-4.05-2.35-4.3-2.2-.2.1-.15 3.9.05 4.75.8 9.8 2.25 15.7 9.55 26.25 1.25 1.85 1.15 2.1-.1.3-2.45 0-12.5-1.6-18.3-1.05 2.1 5.8 7.9 16.8l.45 1.3q-.05.5-1.25 1l-8 3.45q-4.3 1.9-4.25 2.2.05.35 6.55 2.35l8 2.25q.3.1-.4.95l-1 .75q-3.9-.7-8.8-2.45l-5.25-2.15q-1.9-1.05-1.9-1.75-.05-.8 2.05-1.9 3.9-2.05 12.35-5.2-2.3-3.95-5.05-9.4t-3.3-7.15q-.65-1.9-.4-2.4.35-.8 2.65-.85l8.15.55 9.35 1.25q-6.95-8.5-9.7-22.4-2.05-10.45-1.2-17.95.3-2.9 1.25-3.2.6-.2 3.05.85 5.05 2.25 10.95 7.05.85-11.2 3.75-22.9Q84.55 8 87.1 2.2 88.05.1 88.7 0q.65-.05 2.25 1.7"/><path fill="#0d131a" d="m89.6 92.1-1.75.75q-3.8-13.95-5.2-16.8-1.35 1.8-4.1 8.25-2.85 6.65-4.15 11.2-.35 1.4-.9 1.2-.55-.15-.35-1.6.7-5.4 4.35-13.5 3.7-8.25 5.6-8.25 1.05 0 2.35 3.9l3.25 11.5.9 3.35M91.3 105.15q-.35-.15-.45-.65l-1.1-4.5.95-3.3 1.45 6.2q4-2.8 4.6-2.7 1.3.2 2.25 6.25l.75 6.1-.9.8-.95.1-.65-5.6q-.65-4.25-1.1-5.5-1.35.6-4 2.6l-.85.2M105.9 151.25l.5-2.45q9.15 4.6 18.8 7.5.35.1.5.9.2.8-.15.7-11.3-2.85-19.65-6.65M77.85 125.55q2.15 3.4 5.95 7.25l-1.15 2.1q-3.8-4.1-6.2-8.45-.15-.3.55-.75.65-.45.85-.15"/><path fill="#0d131a" d="m112.1 129.9.6-.65q.65-.45.8-.2 3.1 5.35 6.65 9.5 6.55 7.6 15.75 13.25 1.75 1.15 2 4.1.15 2.3-.5 4.4-.35 1.25-1.2 1.2-3.55-.25-13.1-4.45-10.95-4.8-16.2-9.55-.25-.25.2-1 .5-.8.75-.55 4.85 4.35 15.05 9.1 8.9 4.1 12.95 4.75l.45-3.1-.2-1.7q-.3-1.3-1.1-1.8-9.4-5.85-16.1-13.6-3.65-4.25-6.8-9.7M218.8 95.9q-1.85 4.75-5.4 11.45-.25.4-1.5-1.35l2.95-5.5 3-6.35.95 1.75M207.85 73q1.3.2 2.9 6.85 1.5 5.9 2 11.3l4.65-.4.15 1.5-5.4.6-.7-.05-.2-.7q-.2-2.7-1.85-10.1-1.65-7.1-1.9-7.1-.35 0-3.4 5.65-.15.3-.9-.2-.8-.55-.65-.85 2.5-4.55 3.85-5.9.7-.7 1.45-.6M221.55 94.1q1.2-1.1 3.45-.25 1.9.65 3.3 1.95.25.2 0 1.1-.25.9-.5.65-1.15-1.05-2.9-1.85t-2.2-.4q-.15.2-.2 1.85l-.1 3-.55 10.7q-.9 7.85-3.7 15.15-.1.35-.8-.25-.7-.55-.6-.9 2.25-7.25 3.2-14.9l.75-10.55.2-3.65q.15-1.2.65-1.65M234.95 110.2q.5-1.45 1.4-1.85l1.5-.05q1.05.15 2.05.65 5 2.6 6.4 9.25.6 2.9-.95 7.7-1.55 4.95-4.7 9.8-5.45 8.35-13.35 14.05-7.75 5.6-15.95 7.3-.3.1-.35-.85-.1-.95.25-1.05 7.75-1.6 15.15-7.15 7.4-5.55 12.7-13.7 3-4.55 4.5-8.8 1.5-4.2.95-6.65-1.1-5-4.2-7.5-2.2-1.7-3.35-1.5-.4.15-.7 1.55l-.6 3.05-1.2 5.6q-.95 3.85-2.3 7.2-3.35 8.4-6.7 13.2-4.5 6.45-10.25 8.5-.3.1-.15-.85.1-.9.3-1 4.9-2.1 8.9-8.7 2.45-4.1 6-12.9l2.25-6.5 1.4-5.15 1-3.65M180.9 174.4q-.05-.35.7-.6l.85.1q2.05 6.15 7.5 8.2 5.95 2.3 14.8-.8.35-.1.7.7.4.85.1.95-12.3 4.65-19.5-.9-4.4-3.35-5.15-7.65"/><path fill="#0d131a" d="M201.7 173.7q-1.7 1.25-4 2.2-5.75 2.45-9.7-2.8-.2-.3.45-.8.6-.45.85-.2 2.95 3.85 7.95 1.75 3.45-1.45 6.1-3.75l3.65-2.4-.9 1.5-1.7 2.2-2.7 2.3M230.6 104.55q0-.35.7.5.75.8.7 1.15-.05 6.2-2.45 13.75-3.15 10.05-9.5 18.35-.2.25-.7-.4-.45-.7-.25-1 10.4-16.35 11.5-32.35M229.25 80.55q1.05-1.2 1.75-.85.5.2 1.05 1.35.9 1.8 1.6 5.45.6 3.5.5 5.85-.1 1.7-.65 1.65-.55 0-.65-1.55-.1-2.15-.95-6.5-.9-4.55-1.3-4.6-.5-.1-4.55 8-.6 1.3-1.1.95-.5-.3-.05-1.5.65-1.85 1.65-3.9 1.4-2.9 2.7-4.35M281.6 142.2l-1-.2-.7-.7q-19.7-26.85-29.1-35.75-.15-.15-.35-1.45-.2-1.3.05-1.1 8.4 6.8 20.4 22.75 6 7.95 10.5 14.8 4.45.5 7.3 1.4 7 2.15 12.25 7 4 3.75 5.9 9.6 1.8 5.6.95 10.9v.05q5.75 2.9 5.75 3.9 0 .95-3.2 2.7 3.45 4.65 4.35 6.65.45.95.3 1.4-.2.45-1.1.7l-7.15.6q.85 4.3.85 6.3 0 1.35-.45 1.65l-1.35.1q-1.9-.25-7.85-2.3-.75 3.65-1.65 4.2-1.15.55-5.4-2.3-2.1 7.3-3.3 10-.75 1.7-1.35 1.8-1.15.25-7.45-6.45-4.2 4.75-5.55 4.45-1.1-.2-2.7-4.55l-1.4-4.35q-9.9-4.55-14.5-12.7-3.05-5.45-2.45-12.55.55-6.05 3.45-11.65L242 131.35l1.3-2.55 14.25 27.95-.05.75q-2.35 4.25-3.1 9.9-1 7.4 1.9 12.6 4.75 8.3 13.05 12.25l.9.5.65 1.1q2.15 7.55 2.55 7.65.3.15 4.7-5.05.4-.45.65-.4.2 0 .6.4l4.1 4.45 2.45 2.45 1.35-4.3 2.2-7.75q.3-1.05 1.25-.45l3 2.2 1.95 1.15.45-1.75.4-2.8q.1-.55.35-.65l.75.05 5.45 2.05 3.2 1.05-.45-2.6-1.05-4.5q-.2-.9.15-1.2l.75-.15 4.95.05 2.95-.15q.1-.2-1.8-2.75l-3.45-4.5-.3-.6q0-.3.55-.6l2-.95 1.25-.75q.05-.2-1.6-.95l-3-1.45q-.9-.45-1.05-1.15l-.05-1.3q.35-5.45-1.4-10.2-1.7-4.65-5.1-7.8-4.85-4.55-10.95-6.75-3.7-1.35-7.1-1.65"/><path fill="#0d131a" d="M229.2 97.65q.75 2.85 6.25 14.75l-.9 3.8q-3.45-7.5-5.35-12.85-1.8-5.1-1.7-6.6.1-1.25.7-1.75 1.35-1 5.65-.05 3.8.85 8.2 2.8.35.1 0 .85l-.65.65q-6.1-2.7-10.9-3.3l-1.3.05q-.4.35 0 1.65"/><path fill="#0d131a" d="M244.95 90.5q1.85 0 4.1 5.8 2.1 5.3 2.85 10.5.2 1.55-.5 1.65-.65.1-1-1.4-1.2-5.35-3.05-10.2-1.7-4.45-2.4-4.65-.65-.15-1.65 3.25-1 3.35-1.55 7.4-.2 1.45-.85 1.35-.6-.15-.5-1.6.3-3.45 1.25-6.9 1.4-5.2 3.3-5.2M226.2 149.3q0-.2 1-.65.95-.45.95-.25 0 4.35 2.05 8.8 2.75 6 8.25 8.9.4.2.4.6l.65 4.4q.4 2.5.6 2.6.25.05 1.65-1.3l2.45-2.35q.7-.6 1.2.15l2.65 3.8 1.7 2.05q.25 0 1.3-2.3l1.55-3.6q.15-.3.6.75.45 1.05.35 1.35l-2.7 5.1-1.05.7q-.45 0-1.15-.8l-4.05-5.35-3.9 3.15-1.2.2q-.5-.15-.85-1.2-.6-1.8-1.35-6.75-5.55-3-8.55-8.4-2.65-4.75-2.55-9.6M49.45 170.95q3.75-6.5 10-9.4 3.8-1.75 7.75-1.9 6.2-12.65 12.05-22.2 4.35-7.15 9.9-14.75 5.2-7.15 11.7-13.8 7.75-7.9 10.1-7.1 1.45.45 1.85 6.35.35 4.55.05 9.15l7.95.3q1.1.2 1.3.7.15.4-.35 1.2-1.85 3.05-6.1 8.35l-3.95 4.95-4.25 16.2q-4.5 16.85-6.5 22.05 1.25 1.85 2.3 4.8 1.5 4.25 1.5 8.5 0 3.6-1.4 7.35-1.5 4.15-4.1 6.9 3.65 6.05 4.6 8.6 1.05 2.45-1.25 2.65l-2.25-.15-4-.5q-1.1 8.8-2.15 11.45-.7 1.65-1.2 1.8-.45.05-1.9-.8-2.85-1.75-9.35-8.85l-4.35 4.65-1.2.8q-1.05 0-3.4-5.3-14.8 9.6-16.8 8.75-.75-.3-.95-2.55l-.6-11.5-7.7 1.45-3.3-.2q-.35-.4.2-2.4.35-1.4 3.4-9.2-4.1-1.1-5.25-1.85-1.55-.9 0-2.3 1.15-1.1 5.85-3.8-2.9-10.15 1.8-18.4m18.9-10.05q-.3.35-1.1.4-3.3.3-6.7 2-5.75 2.9-9.1 8.75-3 5.25-3 11.15 0 3.05.75 5.55l.05 1.4-.8.65q-5.9 3.25-5.8 3.55l2.3.7 3.7.8q.65.2.7.55l-.15.55-2.65 6.6q-1.4 3.6-1.25 3.85l3.55-.4 6.2-1.3q.95-.15 1 .8.65 12.95 1.15 13.2.35.15 5.6-3l10.05-6.05q.8-.45 1.2.4l1.25 3.4q.7 2.05.9 2.1l1.95-2.15 2.95-3.7 1.15-.05 6.55 6.5q3.55 3.5 3.75 3.35l.9-5 .95-6.3.35-1.45q.35-.45 1.65-.3l3.85.6 2.15.1q.15-.2-4.55-8.75-.4-.65-.35-.95l.55-.95q4.35-5.95 4.35-13.4 0-6.15-2.7-11.9l-.4-1.05.3-1.25 5.6-20.75q4.25-16.15 4.7-17.05.45-.9 5.75-7.1l5-6.1q-.2-.35-8.4-.1l-.7-.2q-.15-.15-.15-.65l-.3-8.9q-.35-5.5-.85-5.65-.85-.35-5.85 4.75-6.3 6.35-13.55 16.35-10.9 15.2-21.7 35l-.8 1.4"/><path fill="#0d131a" d="m89.4 91.3 2.1-.1q.4.25.4 1.5 0 3.45-2.65 12.15 4.85 1.5 6.5 2.5.95.6.85 1.05l-.85 1-6.75 4.65-5.35 3.6-8.8 12.75q-9.1 13.3-13.35 17.8.55 2.55.6 5.55.05 5.7-2.1 9.25l-.85.05q-.7-.2-.7-.45l.1-.4q1.45-3.05 1.6-7.85.1-2.9-.25-5.75-.1-.65.05-1.05l.35-.6 12.3-17.3 9.35-13.3q.35-.4 6.65-4.15l6.1-3.8q0-.2-6.75-2.2-.85-.2-.5-1.1l1.8-6.65q1.3-5.5 1.05-5.65-.35-.25-5.65 2.45-6.25 3.2-12.55 7.4-6.5 4.35-19.85 15.4Q40 128.1 35.5 132.5l-1 .75-1.3.15-6.55.55q-5.1 1-8.45 3.45-6.2 4.6-7.35 13.8-.05.55-.6.7l-4.2 1.25q-2.35.75-2.4.95-.05.2 4.6 2.85.8.5.2 1.25-6.75 7.55-6.55 7.8l3.4.3 5.9.25q1.05.1.75 1.05-3.45 10.95-3.15 11.35.2.2 16.4-3.8.85-.2 1 .7l.35 3.2q.2 1.9.35 2l2.15-1.2 3.05-1.9.9-.3.85.7 4.3 7.3 4.75-6.7q.2-.3.6-.35.4-.05.7.25l1.35 1.6 2.1 2.2q.25.2.05 1.05-.25.85-.5.6-1.5-1.1-3.55-3.3l-4.35 5.6q-.8.8-1.35.7l-1-.85-2.6-4-1.8-2.75-4.95 2.55-1.15.25q-.55-.1-.9-1.1-.5-1.45-.95-4.15-8.75 2.7-13.85 3.15l-3.15-.1q-.5-.25-.5-1.5 0-1.55 2.7-10.5l-7.55-.7q-1.85-.35-2.15-.85-.25-.4.4-1.6 1.15-2.3 5.8-7.3-2.95-1.85-3.85-3l-.4-.85q.05-.5.75-1.05 1.55-1.1 6.5-2.5 1.1-10 7.55-14.8 4.05-3 9.8-3.85 3.6-.55 7.1-.15 6.7-6.8 18.15-16.3 11.15-9.25 18.8-14.4 5.35-3.6 10.75-6.35 5.1-2.6 7.95-3.3M173.1 175.05q0-.35.8-.4.8-.05.85.3.6 3.4-.25 7.85-.8 4.55-2.55 6.85-.2.25-.55-.75-.35-1.05-.2-1.4 2.25-4.95 1.9-12.45"/><path fill="#0d131a" d="M13.95 179.05q.1-.35 1.15-.5 1.1-.15 1.05.2-.3 5.05.5 11 .85 6.75 2.45 7.1 1.85.4 8.1-5.7 5.8-5.75 7.6-9 .15-.3.75.4.55.7.4 1.05-1.7 4.35-7.8 9.85-6.35 5.65-9.4 5-3.2-.7-4.5-9-1.05-6.95-.3-10.4M83.35 214.05q.1-.35 1 0 .9.3.85.65-.65 5.95-4.5 13.75-4.35 8.75-8.05 8.65-3.8-.1-7.5-7.85-2.85-5.9-3.75-10.9-.05-.35.95-.65l1.1.05q1.5 5.75 4 11.1 3.05 6.55 5.25 6.6 2.25.05 5.95-7.9 3.35-7.25 4.7-13.5M243.8 171.6q1.8 4 4.25 7.4 3 4.2 4.65 3.95 1.05-.1 2.15-2.85.1-.3.9.2.75.5.65.8-.6 1.55-1.7 2.45-.9.75-1.9.9-2.2.4-5.4-3.35-2.95-3.4-4.95-8.1l1.35-1.4M301.35 191.9q0-.35 1.05-.25 1.1.1 1.15.45.55 3.75-.8 11.85-1.6 9.55-4.6 10.2-2.45.55-6.5-3.15-3.65-3.35-5.55-7-.15-.3.5-1.1.6-.75.75-.5 2.35 4.05 5.7 7.3 3.3 3.2 4.75 2.85 1.55-.3 2.75-8.8 1.1-7.8.8-11.85M141.85 201.35q1-1.2 1.45-.9.45.35-.35 1.65-1.6 2.65-4.2 8.5-2.55 5.65-2.3 5.75l3-1.05 3.5-1.55q1.15-.55 1.5-.2.3.35-.65 1.1l-4.35 2.45q-3.8 1.8-4.65.95-1-1 1.55-7 2.5-5.9 5.5-9.7"/><path fill="#0d131a" d="M138.35 216.55q.05-.3.95-.3l.85.05q.25 7.75 1.2 14.5.8 5.6 1.2 5.8.25.15 4.15-5.3l4.95-7.1q.85-1.15 1.3-.85.45.3-.2 1.55-1.3 2.65-3.9 6.4-2.75 3.95-4.9 6.15-1.2 1.25-1.95 1.1-.75-.15-1.35-1.75-1.25-3.4-2-9.2-.85-6.45-.3-11.05"/><path fill="#0d131a" d="M163.85 170.3q3.6.75 5.9 5.55 2.75 5.7 2.75 15.8 0 17.9-9.85 28.65-.7.7-1 1.75-1.95 7.55-3.45 10.45-1.05 2.05-2 2-.65-.05-1.9-1.55-1.15-1.35-2.6-3.85l-1.25-2.25q-.15-.3.6-.85.7-.55.85-.2l2.2 3.9q1.7 2.75 2 2.7.5-.05 4-11.05.45-1.2 1.2-2.15 4.1-5.2 6.55-12.5 2.45-7.4 2.45-14.9 0-8.4-2.1-13.9-1.95-5.1-4.8-5.7-4.85-1.05-11.4 8.1-6.8 9.45-10.4 23.2l-1 1.05q-.9.7-.85.35 2.4-14.95 10-25.6 7.45-10.45 14.1-9M220.8 168.4q-7.75-1.7-12.45.3-3.7 1.6-4 6.55-.3 5.05 3.45 8.8 1.2 1.2.8 1.65-.45.45-1.75-.65-4.9-4.2-4.7-10.1.2-6 5.65-8.4 4.85-2.2 12.85-.5 8.3 1.8 15 6.85 3.65 2.8 7.25 7.75 3.55 4.95 5.7 10.15.15.3-1.2-.5l-1.55-1.15q-4.6-9.3-11.55-14.6-5.8-4.4-13.5-6.15"/><path fill="#0d131a" d="M205.15 182.7q-.05-.3 1.05.4t1.2 1.05l1.7 4.25 1.5 3.05q.25 0 .25-2.9.1-1.4.7-1.2.5.2.85.9l3.5 6.8q2 3.6 2.3 3.5.4-.1 1.4-3.95l.8.05q.7.4.6.75-.85 3.15-1.55 4.3l-.9.75q-2.35.2-6.45-9-.25 1.35-.65 1.8-.25.25-.7.25-1.05 0-3.4-5.35l-2.2-5.45"/><path fill="#0d131a" d="M218.95 194.25q-.7-.95-.35-1.25.35-.3 1.25.5l4.5 4.8q3.6 4.05 5.95 7.25l3.95 5.75q2 3 2.3 2.9.3-.05-.15-4.35l-.75-5.3.9.4q.85.45.9.75l.35 3.55q.35 3.8.2 5.6-.1 1.5-.85 1.6-.6.05-1.35-.6-1.4-1.3-7.05-9l-5.7-7.4-4.1-5.2"/><path fill="#0d131a" d="m248.55 199.25.9-.35q.95-.25 1 .15.55 2.5.9 7.3.5 6.65-.2 11.15-.4 2.4-1.3 2.4l-1.95-1.15q-2.65-2-7.55-7.75-3.95-4.6-5.75-7.15-.8-1.1-.25-1.55.6-.4 1.4.7l7.55 8.35q6.1 6.5 6.15 6.25.4-2.45-.05-9.6l-.85-8.75"/><path fill="#0d131a" d="M245.15 189.2q-1.2-1.15-.8-1.6.4-.5 1.8.6 9.2 7.15 8.9 9.2-.25 1.45-3.45 2.15l-4.35.45q-1.4-.05-1.45-.7-.05-.6 1.35-.7l3.5-.65q2.25-.55 2.4-.85l-2.95-3.2-4.95-4.7M215.1 145.5q.95-4.65-.55-8.2-1.55-3.65-5-4.35-3.3-.7-6.15 1.8-2.9 2.6-3.9 7.5-1 4.55.45 8.15 1.55 3.75 5.05 4.35 3.5.6 6.25-1.8 2.8-2.5 3.85-7.45m-12.45-12.1q3.4-2.6 7.2-1.8 4.35.9 6.3 5.1 1.8 3.95.7 9.05-1.15 5.55-4.55 8.35-3.3 2.75-7.55 2-4.55-.75-6.4-5.45-1.6-4.1-.6-8.8 1.15-5.6 4.9-8.45M158.9 141q-2.4-4.6-6.75-6.2-4.25-1.6-7.95.4-3.65 1.95-4.5 7.1-.75 4.75 1.25 8.5 2.35 4.3 6.55 6 4.2 1.65 8.15-.2 3.95-1.8 4.85-6.3.85-4.45-1.6-9.3m-15.45-7.15q4.05-2.2 9.15-.55 5.4 1.7 8 6.75 2.85 5.55 1.6 10.7-1.25 5.2-6.15 7.45-4.45 2.05-9.4.15t-7.55-6.7q-2.35-4.4-1.2-9.75 1.15-5.7 5.55-8.05M173 123.35q-1.2-1.3-2.85-1.15-1.75.15-2.65 1.9-.8 1.5-.65 3.25.2 2.05 1.3 3.3 1.15 1.4 2.9 1.2 1.75-.15 2.65-1.9.8-1.5.65-3.25-.2-2.1-1.35-3.35m-2.95-2.5q2.3-.2 4.05 1.55 1.65 1.7 1.9 4.2.25 2.55-1.15 4.45-1.45 1.95-3.7 2.15-2.25.2-3.95-1.45-1.75-1.65-2-4.25-.15-2.2 1.05-4.15 1.4-2.3 3.8-2.5M168.85 144.7q.2 2.4 1.55 3.6 1.15 1.05 2.6.9 1.8-.15 2.7-1.95.8-1.5.6-3.25-.15-2.05-1.25-3.3-1.1-1.35-2.9-1.2-1.8.15-2.7 1.95-.75 1.45-.6 3.25m-1.65.15q-.2-2.2 1-4.2 1.4-2.25 3.8-2.5 2.35-.2 4.1 1.7 1.65 1.7 1.85 4.1.2 2.3-.95 4.2-1.35 2.15-3.85 2.35-2.15.2-3.8-1.15-1.9-1.5-2.15-4.5M189.25 120.95q-1.8-.05-2.85 1.65-.95 1.4-.95 3.15-.05 2.15.95 3.5 1 1.4 2.7 1.4 1.65.05 2.7-1.15 1.1-1.3 1.15-3.65.05-2.15-.95-3.5-1-1.4-2.75-1.4m-3.85.5q1.6-1.9 3.9-1.85 2.45.05 3.95 2 1.4 1.85 1.35 4.35-.05 2.85-1.8 4.6-1.65 1.65-3.85 1.5-2.4-.15-3.85-2.05-1.35-1.75-1.3-4.15.05-2.6 1.6-4.4M190.35 138.85q-1.8-.05-2.9 1.6-.9 1.4-.95 3.2 0 1.75.9 3.2 1 1.65 2.8 1.7 1.5.05 2.65-1.35 1.1-1.4 1.15-3.45.05-2.3-1-3.65-1-1.25-2.65-1.25m-5.4 4.9q.05-2.2 1.45-4.1 1.55-2.1 3.95-2.15 1.95-.05 3.5 1.6 1.7 1.75 1.75 4.35.1 2.8-1.55 4.65-1.55 1.85-3.9 1.8-2.2-.05-3.7-1.85t-1.5-4.3M86.1 115.1q-.2-.3.55-.65l.9-.1q2.55 4.9 4.95 7.3.25.25-.35.8-.6.6-.85.35-2.5-2.5-5.2-7.7"/><path fill="#0d131a" d="M198.45 149.15q.2-.2.6.5.4.7.25.95-1.8 2.85-6.85 7.05-5.3 4.45-7.6 4.6-2.5.15-11.5-2.95-9.05-3.15-13.1-5.65-.25-.15.05-.8.25-.65.5-.55 6.65 2.85 13.8 5.45 8.5 3.1 10.15 3 1.5-.1 6.85-4.85l6.85-6.75M227 123.25l1.25-3.05 2.85 7.7q-1.5 2.45-1.65 2l-2.45-6.65M218.5 92.1l3 9.1-.2 5.85-.65-1.9-3.35-10.3q-1.75-6.25-2.3-11.1-.3-2.8 1-3.4l2.45.15q1.95.6 4.85 2.15 2.6 1.35 3.85 2.3.3.2-.15 1-.45.75-.75.55-1.7-1.25-4.55-2.8-2.85-1.45-4.3-1.9l-.7-.05q-.2.15-.15.7.25 3.8 1.95 9.65M233.1 91.4q-.2-.25.25-.95t.65-.4l2.3 3.4 1.95 3.4q.1.35-.85.3-1 0-1.1-.3l-1.45-2.75-1.75-2.7M210.25 146.25q-.75 1.75-2.2 2.8-1.75 1.25-3.4.55t-1.95-2.8q-.25-1.8.5-3.55.75-1.75 2.2-2.8 1.75-1.2 3.4-.5t1.95 2.8q.3 1.8-.5 3.5M154.2 143.55q1.35 1.6 1.55 3.65.25 2.35-1.45 3.75t-4 .8q-1.95-.55-3.3-2.15-1.35-1.6-1.5-3.65-.25-2.35 1.45-3.8 1.7-1.4 3.95-.75 1.95.55 3.3 2.15"/></svg>