<svg xmlns="http://www.w3.org/2000/svg" width="170" height="205" viewBox="-0.092 -0.139 170.442 204.863"><path fill="#009a64" d="M15.34 151.592q-12.43 2.079-12.845 1.524-.231-.323 3.419-6.56l4.482-7.393 5.22 5.868-.277 6.56M55.952 31.88q-.185-1.617-.324-8.779-.092-7.438.139-7.577.277-.185 3.604 2.218 3.05 2.218 5.174 4.02l4.528 5.914-13.121 4.204M147.017 73q3.79.694 11.551 2.726 8.455 2.172 8.686 2.773.37.924-16.124 15.478l-4.344-11.228.231-9.748M145.585 143.506l1.663-15.663 4.297-9.24 10.165 8.039q8.085 6.468 7.947 7.023-.185.97-24.072 9.841M120.59 34.19l-5.499-.832-2.31-4.712 5.313-3.188q3.835-2.126 4.159-2.033.37.138-1.664 10.765M58.216 179.498l11.412 6.237q-1.433 1.664-9.657 9.287-8.732 8.04-9.425 7.716-1.063-.554-2.403-22.685l10.073-.555"/><path fill="#c9c9c4" d="M143.229 151.222q-10.257 20.699-29.709 30.032-20.883 10.026-48.004 4.666-27.121-5.405-42.6-22.64-14.415-16.078-16.078-39.133Q5.544 105.527 11.92 87q6.145-17.65 18.435-33.081Q43.8 37.055 59.463 28.877q18.666-9.749 38.348-5.868 19.637 3.927 33.174 20.006 11.32 13.537 17.326 34.282 5.498 18.944 4.436 37.61-1.202 19.543-9.518 36.315"/><path fill="#009a64" d="m58.585 103.956 18.666 3.835 17.696 7.993-1.802 5.129q-1.802 4.805-2.31 5.406-.555.739-10.812 3.095-10.303 2.403-11.366 1.895-1.062-.509-7.346-7.763-6.237-7.253-6.514-8.27-.185-.832 1.432-5.22l2.356-6.1M136.067 121.236q-.739 4.482-1.293 5.822-.555 1.386-7.947 6.422-7.115 4.851-8.178 4.944-.878.092-7.808-4.852-6.838-4.99-7.347-5.96-.415-.785.047-4.435l.877-5.73 16.633-1.616 15.756.6-.74 4.805"/><path fill="#f7bf4a" d="m64.453 106.913 12.29 1.525 9.795 5.868q-1.525 3.927-4.574 6.653-4.805 4.158-10.904 2.125-6.145-2.033-7.07-8.593-.553-3.466.463-7.578M130.754 117.494q-.277 3.65-2.91 7.577-3.327 4.944-7.763 4.944-4.851 0-7.3-4.805-1.617-3.28-1.617-6.746l9.425-1.94 10.165.97"/><path fill="#009a64" d="M116.94 82.38q7.9 1.617 8.131 2.356.185.832-4.297 6.237-4.851 5.776-9.795 10.165-6.006 5.36-12.428 2.957-6.746-2.495-8.224-9.795-.832-4.02.415-7.208 1.017-2.726 3.42-4.62 3.65-2.818 9.286-2.264 5.868.6 13.491 2.172"/><path fill="#525557" d="M49.991 130.662q.786.046 2.865 2.633 2.08 2.588 1.987 3.188-.046.508-3.142 2.033t-3.604 1.34q-.508-.185-1.109-3.096-.554-2.772-.37-3.465.14-.6 1.34-1.617 1.248-1.063 2.033-1.016M102.755 141.75q.508.047 3.28 2.911 2.819 2.91 2.495 3.42-.277.554-3.51 1.2l-3.743.462q-.462-.046-1.294-1.663-.878-1.525-.878-2.171 0-.601 1.617-2.357 1.525-1.802 2.033-1.802M135.143 135.005q.509-.509 3.235-.6 2.633-.093 2.818.369.139.554-1.248 3.742-1.478 3.234-2.125 3.234-.647.047-1.71-1.57-.923-1.387-1.2-2.264l-.232-1.525q.047-.924.462-1.386M84.828 187.768l-4.435-.092q-1.017-2.726-.647-3.327.231-.415 2.68-.462l2.633.231q.37.37-.23 3.65M67.872 169.888q.647.092 1.617 2.541.878 2.264.832 2.957 0 .508-.555 1.247l-.878.925q-.323.277-1.801 0l-2.126-.462-1.94-1.618q-1.386-1.34-1.433-1.755 0-.462 2.819-2.218 2.818-1.802 3.465-1.617M57.938 86.4q0-.694 3.835-4.067 3.835-3.372 4.436-3.188.6.093 2.125 4.528 1.525 4.482 1.016 5.129-.508.647-5.913-.508-5.499-1.202-5.499-1.895M133.711 90.511q.693-.046 2.449 1.617 1.663 1.664 1.663 2.218-.046.832-1.432 4.158-1.479 3.558-2.218 3.604-.74.047-2.68-1.848-1.894-1.848-1.894-2.495-.046-.739 1.663-3.927 1.756-3.327 2.449-3.327M101.046 49.853q.184-.555 4.528-1.017l4.666-.23q.554.323 0 3.187l-1.063 2.403q-.97 1.987-1.386 2.171l-1.293.14-1.34-.37q-.509-.324-2.357-2.958-1.94-2.818-1.755-3.326"/><path fill="#009a64" d="M108.253.785q.878.37 3.234 13.538 2.31 12.844 2.126 15.108-.139 2.172-3.835 3.188-4.158 1.155-9.841-.23-5.36-1.387-8.41-4.898-2.54-2.911-1.94-4.205.786-1.478 9.056-11.874Q107.422.416 108.253.785M73.093 21.207q8.547 6.237 11.135 8.963 2.818 2.957 1.756 7.532-1.11 4.943-6.007 7.069-3.511 1.478-7.115.97-3.465-.555-5.498-2.588-1.294-1.247-1.802-3.788-1.017-4.898-1.663-14.37-.601-9.425 0-9.656.739-.277 9.194 5.868M30.956 71.476q-1.894-1.617-3.327-3.974-3.188-5.452-6.745-13.49-3.558-8.086-3.003-8.687.6-.554 9.24.97 8.132 1.479 14.37 3.096 4.712 1.201 6.606 3.604 2.218 3.05 2.264 7.207 0 4.436-2.726 8.178-4.574 6.284-12.475 5.036-2.125-.323-4.204-1.94M46.341 178.759q-3.003 3.142-13.999 5.914-10.35 2.633-11.227 1.756-.6-.601 2.217-9.934 2.819-9.333 4.436-11.736 2.264-3.511 6.792-4.389 4.99-1.016 9.518 2.403 3.372 2.448 4.389 7.3 1.155 5.313-2.126 8.686M103.725 175.386q4.066-1.617 8.64-.139 4.528 1.479 5.452 4.713.555 2.033-.6 12.844-1.155 10.766-2.033 11.043-1.017.37-8.548-5.683-7.9-6.376-10.026-10.026-2.171-3.696.462-7.623 2.264-3.373 6.653-5.129M34.052 109.177q-2.218 3.789-5.776 5.314-3.927 1.71-7.993.37-3.373-1.063-5.73-3.558-2.91-3.142-8.5-10.72-5.73-7.761-5.499-8.455.324-.6 10.026-.877 8.871-.231 13.076 0 4.482.23 7.069 1.848 3.465 2.079 4.62 7.069 1.155 4.666-1.293 9.01M137.5 35.761q10.164-.277 10.534.277.323.462-3.65 6.93-4.02 6.561-7.07 10.489l-1.893 2.171q-.925.786-2.033 1.11-3.05.877-6.33-.74-3.881-1.802-5.868-6.284-2.218-5.174-.139-9.287 1.618-3.141 4.159-3.788l12.29-.878"/><path fill="#525557" d="m140.503 156.212-3.881 5.821q-13.722 5.776-32.25 6.469-21.623.831-41.213-6.007-18.388-6.422-32.711-17.372-14.693-11.18-23.795-26.058-.046-4.02.231-7.947 9.564 15.524 23.61 27.26 14.923 12.474 32.665 18.712 19.637 6.838 42.646 5.914 20.052-.786 34.698-6.792M152.885 106.267v5.082q-15.247 7.161-34.236 7.439-18.296.277-38.857-5.776-20.006-5.868-35.9-16.54-15.431-10.35-25.55-24.21l2.588-4.621q10.35 13.768 25.042 23.794 15.709 10.72 35.391 16.495 20.514 6.006 38.025 5.683 18.065-.324 33.497-7.346M142.998 62.743l1.848 4.39q-11.32 4.759-24.164 5.452-14.277.785-29.57-3.604-14.923-4.25-27.444-12.105-12.521-7.901-19.452-17.465l3.789-3.096q6.7 9.287 18.712 16.541 11.273 6.838 25.735 10.996 13.953 4.02 26.89 3.743 12.937-.277 23.656-4.852"/><path fill="#e6e6e6" d="M41.352 101.323q1.57-2.403 3.234-1.479 1.663.924.693 3.604l-3.327 9.38q-1.109 3.049-2.957 2.356-1.848-.647-1.293-3.881.508-3.188 1.247-5.221.74-2.264 2.403-4.76M61.68 63.575q2.912-2.91 4.667-1.478 1.71 1.386-.554 4.805l-6.284 9.379q-3.465 5.544-6.283 10.95-2.126 4.204-3.928 2.91-1.801-1.34-.046-5.682 2.911-7.115 6.607-13.076 3.142-5.082 5.822-7.808"/><path fill="#9f9f9b" d="M133.203 151.545q9.333-2.772 13.352-6.006-3.742 12.059-16.402 24.487-6.376 6.192-11.966 9.98 0-1.71-3.234-3.88-4.39-2.958-10.858-1.11-6.33 1.802-8.04 7.07-.83 2.633-.461 4.897-13.445 3.234-33.22-1.571-6.191-1.478-12.198-3.604l-4.851-1.802q1.94-.462 2.91-4.02.694-2.448.694-4.296 0-2.68-1.756-5.868-2.864-5.22-8.825-5.822-5.867-.554-9.61 3.235-1.848 1.894-2.541 3.88-16.633-15.2-19.405-41.536-.786-8.27-.185-16.586l.832-6.746 6.052 8.04q1.664 2.17 4.343 3.742l2.31 1.109q8.178 11.689 18.713 19.913 20.93 16.402 49.067 19.22 26.567 2.68 45.279-2.726"/><path fill="#38393a" d="m84.828 187.768-4.435-.092q-1.017-2.726-.647-3.327.231-.415 2.68-.462l2.633.231q.37.37-.23 3.65M67.872 169.888q.647.092 1.617 2.541.878 2.264.832 2.957 0 .508-.555 1.247l-.878.925q-.323.277-1.801 0l-2.126-.462-1.94-1.618q-1.386-1.34-1.433-1.755 0-.462 2.819-2.218 2.818-1.802 3.465-1.617M140.503 156.212l-3.881 5.821q-13.722 5.776-32.25 6.469-21.623.831-41.213-6.007-18.388-6.422-32.711-17.372-14.693-11.18-23.795-26.058-.046-4.02.231-7.947 9.564 15.524 23.61 27.26 14.923 12.474 32.665 18.712 19.637 6.838 42.646 5.914 20.052-.786 34.698-6.792"/><path fill="#008857" d="M125.164 85.06q-7.947 10.21-11.828 14.415-3.28 3.511-7.116 4.712-4.481 1.433-9.102-.646-4.112-1.895-5.775-5.637l-.832-3.373q.647 1.802 4.898 2.356 4.713.647 10.118-1.016 4.898-1.479 12.752-6.284l6.885-4.528M30.448 71.568q-1.617-.878-5.498-8.778-3.235-6.561-5.175-11.736-1.201-3.28-1.479-4.666v-.74q2.588 5.406 10.72 13.353Q39.78 69.535 47.68 68.288l-1.802 2.218q-2.31 2.402-5.128 3.049-2.957.693-5.914-.092-2.033-.509-4.39-1.895M31.649 112.273q-2.495 2.31-4.805 2.957-3.188.878-5.96.139-3.42-.97-6.93-4.482-3.189-3.188-8.548-11.227L.739 92.313q4.944 4.898 13.4 10.58 12.89 8.64 19.59 7.255l-2.08 2.125M152.146 93.792l-1.34-8.086 16.633-7.254-15.293 15.34M147.664 142.49l3.003-9.149 18.851.647-21.854 8.502M10.765 144.014l3.743 8.27-12.429 1.017 8.686-9.287M50.361 202.784l2.08-20.237 16.678 4.482-18.758 15.755M47.22 178.02q-2.218 2.633-9.426 5.082-5.775 2.033-11.135 2.864l-5.683.463q11.828-5.221 18.712-13.353 5.822-6.838 4.667-10.35l2.264 2.264q2.217 2.726 2.217 5.083 0 3.788-1.617 7.947M101.923 176.08q-1.524 2.402 1.34 9.702 3.512 9.01 12.013 18.342l-10.95-7.808q-2.587-1.802-4.713-3.789-4.02-3.973-4.297-7.438-.277-3.466 3.142-6.561l3.465-2.449M56.09 15.57l3.42 12.845-1.987 1.386q-2.08 1.294-2.08 1.016l-.138-7.53q0-7.3.785-7.717M80.809 44.031q-2.126 1.155-4.898 1.571-5.405 1.017-8.316-2.218-3.05-2.31-3.743-20.052-.323-7.207-.138-7.762l1.062 4.39q1.479 5.22 3.235 9.656 5.729 14.138 12.798 14.415M143.136 45.417q-5.683 9.657-8.408 11.181-3.558 1.71-7.716-.554l-3.512-2.587q6.469-1.433 14.554-8.086 4.39-3.557 10.21-9.333l-5.128 9.38M111.349 13.86l1.478 7.162q1.386 7.393.786 8.871-1.201 2.449-7.07 2.957l-5.682.046q6.422-1.108 8.917-8.824 1.016-3.142 1.57-10.211M122.484 23.794l-1.34 9.426-2.865-2.08 4.205-7.346"/><path fill="#0f141b" d="m96.056 186.013.6 2.171q-15.339 2.31-31.371-.785v-.277q-11.551-2.264-21.346-6.838l2.033-1.202q9.01 4.02 19.636 6.145 16.217 3.234 30.448.786M6.56 101.369l1.894 2.495q-1.617 10.072-.924 20.283.832 11.181 4.851 21.022 4.066 9.842 11.043 17.696l3.511 3.604-.785 2.356q-.97-.831-4.39-4.574-7.207-8.04-11.412-18.296-4.296-10.35-5.036-21.762-.785-11.273 1.248-22.824m17.372-41.12 1.063 2.217q-9.102 13.538-13.63 28.6H9.01q4.758-16.125 14.923-30.817m40.104-34.791-.185 2.171q-14.507 6.376-27.537 20.468l-2.356-.6q14.046-15.201 30.078-22.04m12.152-1.801-1.802-1.571q8.686-2.033 17.28-1.294l-1.664 1.94q-6.884-.415-13.814.925m49.991 12.752-1.894.785q-4.76-4.389-10.673-7.716l-.139-2.264q6.884 3.697 12.706 9.195m11.366 17.326 1.016-1.94q7.439 11.827 11.505 25.92 5.683 19.497 4.297 38.671-1.386 19.036-9.61 35.484-9.657 19.313-26.937 28.83l-.6-2.217q16.355-9.38 25.411-27.63 8.04-16.124 9.333-35.068 1.294-18.943-4.343-38.302-3.696-12.89-10.072-23.748M57.384 104.65l1.386.461q-3.696 9.056-3.373 9.98.37 1.063 6.469 8.178 6.098 7.07 7.069 7.485 1.155.37 10.95-1.894 9.656-2.264 10.58-2.911l1.94-4.667 1.664-4.574q.046-.23.785-.138.74.185.693.37l-1.709 4.943q-1.71 4.528-2.264 5.221-.832.924-11.55 3.465-10.766 2.495-11.829 1.987-1.2-.554-7.715-8.132-6.561-7.577-6.885-8.778-.37-1.34 3.789-10.997"/><path fill="#0f141b" d="M136.16 116.986q.046-.231.785-.37.786-.092.74.139-1.017 8.963-1.756 10.765-.647 1.617-8.548 6.93-7.67 5.129-8.87 5.267-1.11.139-8.456-5.313-7.161-5.267-7.762-6.376-.416-.785.185-3.742l1.201-5.73 1.479.047-.924 5.082q-.555 3.05-.231 3.696.554.924 7.115 5.637 6.514 4.666 7.439 4.851 1.155-.185 8.039-4.943 7.115-4.805 7.67-6.145.831-1.987 1.894-9.703v-.092M63.76 107.422l.647-.093q.508.139.508.37-.924 3.234-.37 6.745.97 6.145 6.654 8.086 6.145 2.033 10.857-2.449 1.479-1.432 2.634-3.326l.878-1.71q.092-.23.6 0 .601.185.509.416-1.202 3.835-4.898 6.7-4.944 3.834-11.042 1.847-6.33-2.125-7.44-8.917-.692-4.25.463-7.67"/><path fill="#0f141b" d="M130.107 117.956q.046-.277.6-.185.602.046.555.277-.185 4.112-3.05 8.132-3.372 4.759-8.13 4.759-3.605 0-6.238-2.68-1.987-1.94-2.819-5.175-.6-2.31-.462-4.25 0-.231.555-.231.554 0 .554.23 0 1.664.693 3.79.878 3.003 2.634 4.804 2.125 2.08 5.082 1.987 4.158 0 7.254-4.528 2.449-3.557 2.772-6.93M136.39 161.525q.232-.046.186.693-.047.786-.278.878-13.768 5.59-31.787 6.422-21.762.924-41.675-6.006-37.84-13.214-56.229-43.338-.139-.185.139-.924.184-.74.323-.555 9.01 14.785 23.24 25.735 14.277 10.95 33.081 17.511 19.683 6.838 41.352 5.914 18.111-.785 31.649-6.33"/><path fill="#0f141b" d="m140.503 155.611.323.555q.093.646-.138.739-14.693 6.191-34.791 7.069-23.055.924-42.923-6.006-17.418-6.007-31.972-17.973-14.508-11.874-24.487-28.23-.139-.185.323-.693.416-.416.554-.231 9.842 16.124 24.257 27.906 14.508 11.782 31.741 17.788 19.729 6.884 42.553 5.96 20.052-.785 34.56-6.884M152.33 111.025q.232-.092.463.416l.046.647q-15.34 6.977-33.774 7.485-18.574.508-39.642-5.683-19.59-5.822-35.576-16.587Q27.999 86.584 17.742 72.4q-.139-.185.37-.508.415-.37.554-.185 10.118 14 25.966 24.487 15.848 10.535 35.299 16.264 42.137 12.428 72.4-1.433"/><path fill="#0f141b" d="M152.654 105.712q.231-.092.462.462.231.508 0 .6-15.432 7.07-33.173 7.624-18.02.6-38.81-5.544-18.944-5.544-34.56-16.125-15.34-10.396-26.198-24.81-.138-.14.324-.509.462-.323.647-.185 10.626 14.138 25.966 24.349 15.34 10.21 34.236 15.755 20.745 6.145 38.395 5.73 17.603-.416 32.711-7.347M144.615 66.578q.23-.092.462.462.231.509 0 .601-12.244 5.22-25.781 5.822-13.815.6-28.461-3.512-15.016-4.297-27.676-12.428-12.428-8.04-19.497-17.881-.139-.231.37-.554l.554-.093q6.93 9.564 19.266 17.372 12.383 7.855 27.399 12.06 29.338 8.316 53.364-1.849"/><path fill="#0f141b" d="M142.72 62.235q.185-.092.416.462.231.508 0 .6-10.857 4.575-23.886 5.037-13.353.462-27.075-3.465-14.97-4.297-26.66-11.782-11.458-7.3-18.11-16.54-.093-.185.369-.509.462-.323.6-.138 6.423 8.917 17.88 16.032 11.413 7.069 26.383 11.366 13.676 3.927 26.613 3.65 12.89-.231 23.47-4.713M120.127 90.696q4.574-5.267 4.482-5.729-.092-.37-7.808-1.894-8.178-1.664-13.445-2.172-5.36-.508-8.779 2.126Q89.541 87 91.02 94.207q1.432 6.931 7.808 9.241 3.05 1.155 5.914.462 2.864-.693 5.821-3.28 4.436-3.927 9.564-9.934m-16.54-11.504 8.686 1.478q8.132 1.479 11.458 2.68 1.756.647 1.94 1.247.186.462-.554 1.756-1.57 2.726-6.098 7.808-4.39 5.037-7.532 7.762-3.28 2.865-6.653 3.604-3.188.74-6.745-.462-3.42-1.109-5.776-3.927-2.264-2.726-3.095-6.607-.924-4.435.693-8.178 1.247-2.818 3.696-4.805 3.835-2.91 9.98-2.356M49.991 130.061q.878 0 2.773 2.172l1.386 1.801q1.34 1.849 1.247 2.495-.046.462-1.247 1.294l-3.188 1.71q-2.449 1.062-3.096.877-.878-.323-1.478-3.603-.509-2.865-.37-3.65.231-.786 1.57-1.94 1.433-1.202 2.403-1.156m1.479 8.04q2.91-1.294 3.003-1.664.093-.416-1.94-2.772t-2.588-2.449q-.462-.046-1.617.924-1.109.832-1.34 1.248-.138.37.416 3.049.647 2.726.924 2.818l3.142-1.155M105.85 145.262l-3.141-2.819-1.848 1.71q-1.34 1.34-1.432 1.71-.047.323.785 1.755l1.155 1.571 3.742-.508 3.096-.74q.046-.277-2.356-2.68m-6.422 3.143q-.878-1.664-.878-2.542 0-.831 1.71-2.726 1.709-1.986 2.494-1.94.74.046 3.142 2.449l2.957 3.511q.462.74.185 1.201-.647 1.202-7.855 1.987-.785-.139-1.755-1.94M137.777 133.711l3.142.277q.693.139.831.6.231.648-.878 3.235-1.016 2.495-1.848 3.604-.646.924-1.2.924-.971.046-2.265-1.987l-1.201-2.31q-.277-.785-.231-1.71 0-1.154.6-1.755.74-.74 3.05-.878m3.142 1.201q-.093-.184-2.541 0-2.403.231-2.819.555-.37.323-.323 1.109.046.6.23 1.108l1.017 2.357q.832 1.57 1.201 1.57.416 0 1.895-3.233 1.478-3.235 1.34-3.466M79.238 184.072q.277-.462 1.525-.647l2.495-.092q1.801 0 2.217.37.6.6-.046 4.065-.046.278-1.155-.23l.37-2.958-2.31-.184-2.31.046q-.14.138.97 3.095-1.017.693-1.11.37-1.108-3.05-.646-3.835M67.04 177.05l1.525.092.832-.786.6-.924-.97-2.726q-.924-2.217-1.201-2.31-.37-.046-3.003 1.525l-2.819 1.848q-.046.277 1.386 1.478 1.34 1.11 1.848 1.294l1.802.508m.97-7.762q.925.231 1.987 2.957.924 2.403.878 3.142 0 .693-.647 1.617l-1.016 1.063-2.31.092-2.126-.554-2.217-1.71q-1.617-1.57-1.664-2.217 0-.509.924-1.294.924-.832 2.957-1.94 2.403-1.34 3.235-1.156M57.384 86.4q0-1.063 3.604-4.344 3.696-3.326 5.36-3.511.739-.093 2.448 4.713 1.71 5.036 1.017 5.867-1.063 1.386-10.489-1.34-1.94-.693-1.94-1.386m4.805-3.603q-3.558 3.141-3.511 3.465.092.323 5.128 1.34l5.082.739-1.247-4.343q-1.294-4.066-1.617-4.205-.277-.138-3.835 3.004M133.619 89.91q.97-.092 2.772 1.618 2.033 2.033 1.987 2.864-2.357 8.225-4.159 8.27-.924 0-2.54-1.432l-1.34-1.386q-1.387-1.478-1.34-2.033.092-1.062 1.755-4.296 1.802-3.512 2.865-3.604m.508 11.966q.323 0 1.71-3.419l1.432-4.066q-.139-.508-1.571-2.033-1.479-1.478-1.848-1.432-.37.046-2.033 3.05-1.571 3.003-1.664 3.696.139.554 1.895 2.356l2.079 1.848"/><path fill="#0f141b" d="M101.23 49.021q1.618-.647 5.221-.924 3.466-.323 4.066.046.924.462.277 3.743l-.831 2.356q-.878 2.033-1.895 2.634l-1.663.23-1.57-.508q-.648-.415-2.542-3.095-2.079-2.957-1.802-3.881.139-.37.74-.6m4.296.369-4.112.554 1.848 2.865 2.218 2.818 1.017.231h1.016l1.155-1.94 1.017-2.264q.37-2.31.184-2.449l-4.343.185M108.438.046q.6.185 1.063 1.71l1.432 6.19 1.34 6.562 2.541 15.247q-.139 1.524-1.663 2.633-1.848 1.294-5.175 1.756-3.973.508-8.363-.555-4.02-1.016-7.161-3.65-2.68-2.217-3.789-4.574-.693-1.617-.323-2.448.323-.509 4.297-5.499l5.174-6.422q6.977-8.178 8.871-10.026 1.11-1.109 1.756-.924m-.37 1.432q-.323-.138-7.161 8.363-5.868 7.3-9.656 12.29-.924 1.248-.97 1.802-.047.462.646 1.571.878 1.525 2.588 2.91 2.726 2.31 6.607 3.235 4.389 1.109 8.085.462 2.356-.416 3.373-1.155 1.201-.832 1.34-1.663l-.277-2.126-2.45-15.247q-1.801-10.35-2.125-10.442M76.558 22.64q6.93 5.267 8.501 6.884 1.387 1.432 1.941 3.603.554 2.172.092 4.39-.554 2.587-2.356 4.851-1.802 2.264-4.297 3.373-3.604 1.525-7.67.97-4.02-.554-6.33-2.91-1.385-1.387-1.94-4.067-.508-2.31-.831-7.022l-.463-7.716q-.415-6.515-.184-8.64.092-1.479.739-1.617.462-.139 1.756.462 3.419 1.755 11.042 7.438m8.825 14.693q.693-4.158-1.663-6.746-2.264-2.356-10.95-8.778-8.317-6.145-8.594-5.914-.277.185.508 9.749.832 9.933 1.57 13.63.463 2.263 1.572 3.372 1.848 1.848 4.99 2.357 3.465.554 6.884-.924 2.264-.925 3.742-2.68 1.479-1.756 1.94-4.066M21.993 58.539q-3.65-7.993-4.575-11.504-.37-1.571-.092-1.987.37-.6 2.31-.508 3.881.23 12.336 1.848l9.75 2.079q5.359 1.247 7.253 3.835 2.356 3.095 2.449 7.577.138 5.082-2.911 9.194-2.403 3.28-5.868 4.713-3.511 1.432-7.623.785-2.264-.37-4.482-2.079-2.218-1.71-3.742-4.297-1.617-2.68-4.805-9.656m-3.558-12.798q-.277.277 3.234 8.178 3.743 8.501 6.56 13.214 1.387 2.264 3.281 3.788 1.895 1.525 3.789 1.802 7.392 1.155 11.782-4.759 2.68-3.696 2.587-7.993-.092-3.788-2.171-6.514-1.71-2.264-6.192-3.42-5.544-1.432-14.323-3.002-8.362-1.525-8.547-1.294M45.88 178.297q2.54-2.588 2.171-6.607-.185-2.403-1.432-4.76-1.202-2.31-2.911-3.65-4.343-3.095-8.871-2.217-2.033.324-3.742 1.432-1.71 1.063-2.773 2.634-1.386 2.08-4.25 11.597-2.726 9.194-2.403 9.425 20.19-3.788 24.21-7.854m-11.32-19.174 4.575.138q3.003.693 5.637 2.634 1.986 1.432 3.372 4.112t1.617 5.452q.14 2.264-.6 4.435-.74 2.172-2.172 3.65-2.772 2.865-12.243 5.36-7.578 1.987-12.429 2.31l-1.663-.231q-.37-.37-.185-1.894.462-3.881 2.726-11.274 2.356-7.485 3.973-10.118 1.11-1.802 3.096-3.003 1.94-1.156 4.297-1.571M103.356 174.23q2.772-.923 5.637-.738 2.864.138 5.313 1.386 4.112 2.033 4.62 4.805.416 1.987-.647 10.673-.924 7.67-1.848 12.243-.416 2.08-1.201 2.126l-1.987-.878q-3.835-2.172-9.795-7.115-6.376-5.314-7.947-8.086-.831-1.386-1.016-3.234-.093-1.71.416-3.327.831-2.356 3.141-4.527 2.403-2.218 5.314-3.327m13.86 7.716q0-1.802-.6-2.957-.832-1.386-2.91-2.449-2.219-1.109-4.852-1.201-2.634-.185-4.851.74-2.634 1.062-4.667 2.91-1.94 1.848-2.633 3.835-.924 2.495.462 4.943 2.864 4.898 17.788 15.617.277 0 1.247-8.732 1.017-9.056 1.017-12.706M67.918 186.382q.231-.185 1.201.324.925.6.786.831l-8.409 7.439q-8.086 6.93-9.425 7.762-1.525.924-2.033.647-.416-.231-.832-1.94-.785-3.42-1.617-12.29-.74-7.947-.647-8.317.046-.277.97 0l.924.462q0 2.264.832 11.273.878 9.195 1.109 9.333.277.14 8.178-7.022l8.963-8.502M8.963 139.255l.74.555.554.831-4.066 6.561q-3.188 5.221-3.095 5.452l11.042-1.617q.323-.092.693.786.462.877.185.97l-11.55 1.109q-1.48-.047-1.664-.416-.185-.37.554-1.894l3.327-6.469q2.865-5.22 3.28-5.868M36.362 99.752q1.155 4.759-1.433 9.61-2.402 4.528-6.283 6.191-4.343 1.848-8.779.416-3.511-1.201-5.96-3.88l-6.191-7.948Q2.033 96.564.508 93.607q-.6-1.109-.462-1.57.139-.648 1.617-.925l11.228-.693q8.778-.323 10.903-.231 4.62.277 7.485 1.94 3.789 2.357 5.083 7.624m-3.05 9.194q2.495-4.112 1.386-8.593-1.155-4.713-4.389-6.7-2.356-1.478-6.7-1.663-3.28-.185-12.844 0l-9.564.37q-.138.23 5.545 7.854 5.867 7.947 8.316 10.58 2.08 2.264 5.129 3.327l7.808-.231q3.234-1.432 5.313-4.944M146.417 35.068q1.848.139 2.171.554.278.416-.277 1.756-1.201 2.957-5.36 9.518l-4.943 7.392q-2.264 2.819-4.39 3.42-3.465 1.016-7.3-.925-4.25-2.125-6.237-6.653-2.402-5.544-.092-10.165 1.524-3.095 4.944-4.158l12.382-.831h4.759l4.343.092m.74 1.432q-.14-.277-10.027.046l-11.782.786q-.878.185-1.848 1.063-1.201 1.016-1.94 2.495-1.802 3.788.323 8.547 1.848 4.297 5.59 6.006 3.05 1.387 5.73.647.97-.277 1.802-1.016l1.802-2.08q2.68-3.418 6.7-9.887 3.88-6.283 3.65-6.607"/><path fill="#0f141b" d="m112.781 27.306 3.142-1.663q3.28-1.71 5.036-2.45 1.109-.507 1.525-.323.554.185.462 1.525l-1.201 9.01-.878-.047-.74-.554q1.94-8.732 1.756-8.825l-3.465 1.987q-3.142 1.894-4.574 2.818-.231.231-.74-.554-.554-.74-.323-.924M56.83 15.2q1.386.648 4.065 2.403l3.004 2.033q.23.231-.093 1.201-.277 1.017-.462.832l-4.297-3.465q-2.633-2.08-2.818-2.033-.185.046 0 6.792l.37 7.623q-1.802 1.017-1.849.647-.23-11.735.278-15.293.184-1.016.646-1.109l1.156.37M146.879 73.694q-.277 0-.185-1.017.046-.97.323-.924l7.855 2.033q8.363 2.218 11.412 3.511 1.571.601 1.71 1.063.138.37-.74 1.525-1.34 1.71-6.56 6.976-5.96 6.053-8.225 7.67-.184.139-.554-.832-.37-.97-.231-1.108 14.831-13.307 14.785-13.815-.046-.37-8.224-2.495l-11.366-2.587M152.238 119.989q-.138-.139.278-1.063.462-.97.646-.785l7.44 6.33 8.547 7.53q1.2 1.294 1.155 1.71-.093.508-1.479 1.34l-11.32 4.944-10.349 4.297q-.277.046-.508-.878-.231-.97-.046-1.063 22.454-8.455 22.5-8.732 0-.278-16.864-13.63M77.852 112.458q-1.11 3.326-2.68 5.636-1.848 2.726-3.327 2.264-1.478-.462-1.478-3.788 0-2.865.97-6.284l6.515 2.172M124.008 118.51q-.462 3.466-1.478 6.007-1.201 3.003-2.495 2.91-1.247-.138-1.756-2.957-.462-2.448-.323-5.775l6.052-.185"/></svg>