<svg xmlns="http://www.w3.org/2000/svg" width="276" height="309" viewBox="-0.15 -0.15 276 308.75"><path fill="#3f3b3a" d="M192.55 147.35q-6.85 2.35-28 9.85-35.2-9.7-54.75-14.6-9.75-11.7-18.8-23l-28 13.05-31.45-1.7 4.9-4.5 4.95-4.55-5.4-9.6 15.4.55 15.1.4q23.15-11.6 29.25-14.35l9.25 13.45q5.8 8.55 9.75 13.95 6.5 1.55 25.75 7l27.4 7.6 30.25-13.35 8.85 12.4 9.6 13.85 26.45 15.6-4.6 2.4q-3 1.7-4.4 2.7l3.25 12.8q-16.55-8.8-26.25-13.6l-9.45-13.65-9.05-12.7"/><path fill="#cacfd7" d="m79.1 280.85 26.55-14.8 16 26.55-18.55-17.65-24 5.9"/><path fill="#eaeff8" d="M227.55 81.95 244.5 62.7l-17.6 57.05.65-37.8M123.3 7.95q4.8 5.45 17.55 21.95l19.75 25.65-21.15-20.5-10.4 1.8-5.75-28.9"/><path fill="#5c94bf" d="m87.7 19.25-12.35 59.8-54.7 13L28.1 63.8l25.8-6.1 8.55-33.05 25.25-5.4M152.85 1.2l17.5 23.35L197.2 13.3l21.25 20.85L161.8 57.2 123.75 7.75l29.1-6.55M244.5 62.7l18.8 17.2-7.45 33.5 18.5 17.15-7.2 29.1-40.5-39.15 17.85-57.8M1.65 167.85l8.65-31.45 42.5 30.9-17.75 68.85L13.8 214.6l7.75-30.85-19.9-15.9"/><path fill="#4a7a9e" d="M105.75 266.3q-13.35 7.3-26.65 14.55l-21.2-22 57.45-27.3 34.5 52.6-28.2 8.45-15.9-26.3"/><path fill="#bcd5ee" d="m85.4 59.15 6.9-13.9 46.9-10.6 9.55 9.5-63.35 15M50.25 112.9 36 112.25l4.35-18.8 15.7-6.55-5.8 26M45.75 131.95 39.7 157.7l-11.75-8.6 3.6-18.1 14.2.95M179.75 52.85l13.8-3.35 34 32.45-.35 16.9-47.45-46"/><path fill="#eaeff8" d="M192.65 86.4Q168.4 62.85 161.6 56.75l18.15-3.9L227.1 98.5l-.2 21.65Q216.95 110 192.65 86.4M148.75 44.15l12.85 12.6-86.25 21.9 10.05-19.5 63.35-15M66.2 113.4l-15.95-.5 5.8-26 19.3-7.85-9.15 34.35M62.35 132.85 52.8 167.3l-13.3-9.55 6.25-25.8 16.6.9"/><path fill="#005f95" d="m161.6 56.75 26.6 25.7q28.6 27.75 38.45 38.05l-28.4 7.05q-5.5-6.35-20.95-21.75-14.55-14.55-22.65-21.95L96.05 99 66.4 113.15l8.95-34.5 86.25-21.9"/><path fill="#5c94bf" d="m213.3 123.85-15.05 3.7q-5.5-6.35-20.95-21.75-14.55-14.55-22.65-21.95L96.05 99l-15.7 7.5L84.8 88q46.6-12.75 73.9-19.8l24.45 24.9 30.15 30.75"/><path fill="#005f95" d="m52.8 167.3 9.85-34.45 28.05-13.1-9.3 38.9-28.6 8.65"/><path fill="#5c94bf" d="m75.6 126.85 15.1-7.1-9.3 38.9-14.05 4.45 8.25-36.25"/><path fill="#bcd5ee" d="M198.25 127.55 170.8 134l-23-22.85-31.45 7.55-1.9 7.3-18.4-27 59.05-15.35 20.75 20.8 22.4 23.1M90.4 120.25l.75-.8 19.25 23.3-1.9 8.2-27.1 7.7 9-38.4"/><path fill="#eaeff8" d="m103.95 135.55-4.2 17.7-7.75 2.3 6.5-26.7 5.45 6.7M165.1 116.9l-14.9-15.15q-6.6 1.45-20.45 5.05l-20.1 5.4-1.35 4.85-4.95-7.25.95-2.95 48.15-13.5q4.8 4.4 34.5 36.95l-.55 2.55-8.05 3.55 1.1-4.3-14.35-15.2"/><path fill="#3f3b3a" d="m135.15 199.7-12 2.8-8.35-8.35-8.1 10-8.25 10.4-13.05 10.3-13 10.15q-.3-9.2-.3-16.3l-15.35-.9 25-20.15 9.15-10.7 7.9-9.25 31.4-3.1q18.8 12.25 27.1 18.6l4.65 25.65 5.25 15.35 5.65 16.15-15-6.65q-3.4 6-6.8 12.85l-12.1-31.7-3.8-25.15"/><path fill="#43a2d9" d="M60.3 122.55q-.6-5-.05-9.4l6.25.1q23.15-11.6 29.25-14.35l9.25 13.45q5.8 8.55 9.75 13.95l12.85 3.4q-1.4 4.65-4.3 8.65-2.55 3.7-5.9 6.2l-7.6-1.95q-9.75-11.7-18.8-23l-28 13q-1.95-4.4-2.7-10.05M164.55 157.2l-8.25-2.25q-2.15-8.75-.95-17.45l12.55 3.4 30.25-13.35 8.85 12.4 9.6 13.85 5.3 3.1q-1.7 5.6-5.25 9.75-3.15 3.7-6.75 5.3l-17.35-24.6q-6.85 2.35-28 9.85"/><path fill="#84ceeb" d="m114.75 126.3.8.2q-1.25 3.7-4.3 6.65-2.7 2.55-6.1 3.85L91 119.6l-15.05 7q-4.3-7.7-1.4-17.35 14.2-7.1 21.2-10.35l9.25 13.45q5.8 8.55 9.75 13.95M171.85 154.6q-4.35-4.8-3.95-13.7l30.25-13.35 13.35 18.9q-1.1 5-3.7 8.75t-6 5.15l-9.25-13-20.7 7.25"/><path fill="#bcd5ee" d="M167.6 140.85 114.45 126l1.9-7.3 31.45-7.55 23 22.85-1.35 5.95-1.85.9M164.8 157.4l-2.15 8.2-32.45 9-21.8-23.95 2-7.9 54.4 14.65"/><path fill="#004e7c" d="m226.65 120.5-9.8 33.3-18.6-26.25 28.4-7.05"/><path fill="#4a7a9e" d="m198.25 127.55 15.05-3.7-5.25 17.6-9.8-13.9"/><path fill="#004e7c" d="m52.8 167.3 28.6-8.65 17.25 19-16.9 19.5L52.8 167.3"/><path fill="#4a7a9e" d="m67.35 163.1 14.05-4.45 17.25 19-8.15 9.4-23.15-23.95"/><path fill="#004e7c" d="m114.65 194.25 8.45 7.95 11.85-2.6 3.95 25.7-23.55 6.25-16.9-17.2 16.2-20.1"/><path fill="#4a7a9e" d="m123.1 202.2 11.85-2.6 1.95 12.75-17.6 4.55-12.55-12.9 7.9-9.75 8.45 7.95"/><path fill="#004e7c" d="m192.55 147.3 18.55 26.3-10.2 34.05-39.2 11.15-4.4-25.8 23.5-7.3 11.75-38.4"/><path fill="#4a7a9e" d="m192.55 147.3 9.65 13.7-10.9 35.75-31.8 9.25-2.2-13 23.5-7.3 11.75-38.4"/><path fill="#b1c8df" d="m152.85 1.2 6.25 8.2-24.75 13.05-10.6-14.7 29.1-6.55M82.35 20l5.35-.75-5.15 27.25-54.5 44.05-7.2 1.3L28.3 63.7l25.9-5.8 4.55-18.6L82.35 20M4.6 170.25l-2.8-2.9 8.8-30.6 27.85 20.15L4.6 170.25"/><path fill="#dfebf7" d="m154.55 117.65 8.6 8.5-16.8 8.8-16.1-4.55 24.3-12.75M110.4 142.75l14.3 3.6q-6.95 3.6-13.85 7.25l-2.35-2.65 1.9-8.2"/><path fill="#cacfd7" d="M193.35 49.55 162.9 56.5l55.9-22.05-18.55 21.65-6.9-6.55M40.25 93.85l-.9 3.85-18.5-5.85 53.1-12.6-33.7 14.6M247.6 153.85l.8-3.9-21.1-29 39.5 38.5-19.2-5.6M176.75 249.2l9.6-2.8 14.4-37.3-18.95 67.2-5.05-27.1M46.75 206.7l7.05 7.95-18.45 21.5Q46.1 190.4 52.7 168.2l-5.95 38.5"/><path fill="#a3b9ce" d="m237.3 134.55 11.1 15.4-5.25 19.45-13.25-7.85 7.4-27M224.8 180.65l12.9 6.8-5.15 17.05-14.55 1.3 6.8-25.15M167.5 235.35l25.75-7.55-6.9 18.6-13.55 3.9-5.3-14.95M134.95 261.15l-9.2-13.95 19.4-5.65 5.4 15.05-15.6 4.55M84.95 225.15l13.4 14.35-15.2 7.2-10.8-11.8 12.6-9.75M68.7 208.05l-12.1 9.9-9.85-11.25 3.2-18.55 18.75 19.9M55.05 92.3 37.9 103.35l2.35-9.5 15.9-6.75-1.1 5.2"/><path fill="#cacfd7" d="m56.15 87.1 20-8.45-21.1 13.65 1.1-5.2"/><path fill="#a3b9ce" d="m200.8 56.4-17.3.4-3.7-3.95 13.55-3.3 7.45 6.85"/><path fill="#cacfd7" d="m179.8 52.85 3.7 3.95-22 .5 18.3-4.45M92.5 45.05l-17 33.05 12.7-59.2 4.3 26.15M237.3 134.55l-7.4 27-13.1-7.55 9.9-33.5 10.6 14.05M224.8 180.65 218 205.8l-17.2 1.85 10.1-34 13.9 7M201.15 207.65l-7.9 20.15-25.75 7.55-5.65-16.5 39.3-11.2M125.75 247.2l-10.25-15.55 23.2-6.5 6.45 16.4-19.4 5.65M98.35 239.5l-13.4-14.35 13.55-10.7 16.95 16.85-17.1 8.2M68.7 208.05 49.5 188.1l3.2-20.95 29 29.9-13 11"/><path fill="#4a7a9e" d="m220.1 238.15-9.4 31.5-28.55 6.85 19-68.85 54-5.55-9.9 31.6-25.15 4.45"/><path fill="#a3b9ce" d="m169.3 140.25 1.5-6.25 27.45-6.45-28.95 12.7M108.5 150.95l21.6 23.75-31.45 2.95-17.25-19 27.1-7.7M162.75 165.4l1.9-8.2 27.9-9.9-11.75 38.4-23.5 7.3-27.2-18.3 32.65-9.3"/><path fill="#cacfd7" d="m91.95 155.5 7.95-2.3 20.6 22.45-8.25.75-20.3-20.9M173.4 154.35l7.65-2.75-7.25 26.35-27.5 7.25-6.9-4.65 28.9-8.55 5.1-17.65M178.25 136.45l1.1-4.35 7.5-1.7-.45 2.3-8.15 3.75"/><path fill="#4a7a9e" d="m269.3 125.9 5.05 4.65-7.2 29.1-22.6-22.65 24.75-11.1"/><path fill="#0f141b" d="m52 167.25 2.1.15-5.75 38.85 8.75 10.35 7.4.7 8.15.45q.55 0 .55.65l.15 16 10.8 12.05-1.7 1.05-6-6.25-5.65-5.6-.1-.35.2-15.45-13.35-.75-1.5-.2-1.15-1.05-8.6-9.75q-.85-.85-.65-2.15 4.65-26.85 6.35-38.7M142.05 260.8l-6.55 1.75-1.05-2.25 15.8-4.65L157 243.3l.65-.75.85.3 14.3 6.4 12.6-3.65q2.15-4.75 14.45-38.6.9.45 1.8.85L187.9 245.9l-1 1.7-1.3.55-12.25 3.6-.8.1-.75-.25-13.5-6.3-6 11.7-.9 1.1-1.85.65-7.5 2.05M228.55 81.7l-1.2 38.5 21.75 28.25q.8 1 .55 1.75l-5.05 19.55q-.25.75-.9 1.05l-4.35 2.05-3.95 2 3.05 10.45.45 2.1-.45 2.15-4.55 14.85-2.6.1 2.6-8.6 2.4-8.7-1.45-6.15-1.8-6.55q-.15-.4.2-.55l4.3-2.6q3-1.85 4.7-2.65l5.1-18.45L234 132.5l-9.1-11.8.95-38.2-32.4-31.3-31.7 7.05-.4-.15-22.6-21.8L93.1 46.6 76.4 79.45l-.25.5q-18.95 8.1-34.65 14.4l-2.25 8.75q-1.3 5.05-2.1 9.1l4.85 9.2q.3.55.2.8l-.55.75-4.85 4.65-3.95 3.9-4.15 18.35-1.95-1.15 1.7-8.25 1.75-9.1.25-.8.55-.6 9-8.1-4.75-8.3-.5-1.15.1-1.2 2.1-8.8 2.15-8.35.4-1q.3-.35 1.2-.75l34.15-14.1 9.65-19.4 7.05-14.35 1.45-.3 45.2-10.2 1.3-.15 1 .7 21.4 21.6 31.15-7.5 1.15-.1q.3.05.7.4l33.55 32.45.1.35"/><path fill="#0f141b" d="m207.2 24.85-10-9.7-26.8 10.5q-.35.1-.6-.2-4.45-6.4-9.15-12.5l-8.3-10.5q-12.5 2.45-26.9 6L144.1 32.2q13.05 16.35 18.05 23.05l54.6-21.2-9.55-9.2m11.8 8.4 1.15 1.6q.2.55-.4 1.4l-7.65 8.4-11 12.15-1.55-1.45 8.05-9.1 8-9.25-53.85 20.85q-.4.15-.55-.2l-17.5-22-18.65-23.5q1.1 6.1 5.05 24.85l-2.3.35q-4.65-21.85-5.95-28.8-.2-1.05 0-1.4.25-.4 1.35-.7Q135.85 3.3 151.7.1q1.15-.25 1.75 0l1.2 1.05q9.2 11.75 16.2 21.8 6.15-2.4 23.9-9.9 2.05-.9 2.75-.7l2.05 1.7L219 33.25M262 80.5q-5.2-5.15-16.9-15.8-5.3 16.45-10.25 34l-6.05 21.45L250 141.1l16.65 16.4 6.4-26.4-17.85-17.25-.15-.45L262 80.5m-20-13.6-14.15 15.9-1.6-2 7.7-8.9 8-9.45q1.35-1.55 1.95-1.65.75-.05 2.25 1.3l8.85 8 8.3 7.7q1.2 1.15 1.4 1.85.25.6 0 1.9l-3.75 16.6q-2.8 12.3-3.3 14.95l16.5 15.4 1.45 1.7q.25.75-.25 2.9-2.95 11.4-6.8 27.85-.35 1.5-2.15.9l-8.4-2.9q-6.2-2.2-10.95-3.55l.7-2.4q2.95.8 7.75 2.35l8 2.55-37.55-37-.15-.45 6.15-20.95Q236.9 82.8 242 66.9M8.45 136.55Q8.9 135 9.5 134.8q.65-.15 1.95.75 7 5 21.45 15.9l20.5 15.35q.35.2.25.5-2.75 9.9-7.25 28.05l-9.25 37.35 15.9-18.6 2.05 1.6-8.4 10.05-9.55 11.15q-1.1 1.25-1.7 1.25-.5-.05-1.75-1.3l-20.1-20.3q-1.05-.95-1.1-1.45-.1-.5.35-2.45l7-28.5-18.65-14.5-1.15-1.2q-.2-.5.1-1.65l8.3-30.25m2.4 1.95L7.1 152q-3.25 11.45-4.2 15.35 11.75 9.45 19.45 16l.15.45-3.45 14.75-3.85 16.1 19.15 18.85 8.9-36.95q4.45-18.55 7.3-28.85l-19.5-14.4-20.2-14.8M219.05 238.15q.25-.95.4-1.1l1.4-.4 23.25-3.85q6.75-22.05 9-28.9l-27 2.85-23.75 2.65q-2.85 9.05-10.2 35.1l-8.4 30.3 13.5-3.1 12.7-3.1 9.1-30.45m35.6-36.85 1.7.25q.4.35.15 1.3l-10.3 31.05-.55 1.15-1.35.45-23.05 3.5-8.3 29.9-.65 1.7q-.3.35-1.6.7l-12.8 2.95-13.7 2.9-3.25.35q-.7-.3-1.1-2.4l-4.55-25.7 2.25-.4 4.35 23.5 6.45-22.4 12.3-42.95 20.5-2.35 33.5-3.5M167.15 141.75l-26.5-7.3-25.7-7-.85-.3-.6-.7-18.35-25.85q-3.95 1.85-13.65 6.8l-13.35 6.75-1.3.55-.8.1-14.65-.65-15.2-.85v-2l15.6.7 14.65.45 14.1-7.05q10.9-5.5 15.2-7.5.35-.2.6.15l8.85 12.9 10.15 14.6 52.55 14.25q3.15-1.45 16.5-7.05 14.1-5.95 14.2-5.8 6.2 8.25 18.7 26.05l26.35 15.3-1.4 1.95-12.6-7.35-12.35-7.25-1.3-.9-1-1.2-17.4-23.85-14.35 6-14.2 5.85-.85.35-1.05-.15"/><path fill="#0f141b" d="M211.65 173.15q15.1 7.45 25.55 12.95l-.05 2.2q-5.2-2.75-26.95-13.6l-18-25.6-27.4 9.6-54.75-14.7-19.35-22.75L76 127.5l-14.2 6.1-30.35-1.4.9-2.1 14.35.75 15 .65q3.5-1.65 28.1-12.35 1.15-.5 1.65-.35l1.1 1 18.25 22.1q18.8 4.8 53.9 14.35l26.5-9.25 1.7-.4q.4.1 1 .95l17.75 25.6M149.55 45.3l-34.9 8.15-29.75 7.1.65-2.5 29-6.85L148 43.4l1.55 1.9"/><path fill="#0f141b" d="m211.85 174.4-6.35 21.1-3.9 12.55-.35.35-39.35 11.4-.35-2.15 38.05-11.1 10.3-34.2 1.95 2.05M99.25 213.6l16.35 16.8 23.1-6.4.4 2.15-13.55 3.6-10.1 2.65q-.3.15-.45-.1l-17.3-17.2 1.55-1.5M162.15 56.15q8.75 7.65 31.95 30.5l33.2 33.3q.25.2.15.55l-10 33.85-1.9-2.2 5.95-20.6 3-10.75q-13.25-13.65-32.3-32.4-22.1-21.9-30.9-29.6-15.2 3.55-84.55 21.45-5.35 17.75-9.3 32.9l-2.1.1q7.4-28.35 9.35-34.8.1-.25.35-.35l45.05-11.6 41.6-10.4.45.05M63 132.4q-2.5 8.95-5.35 21.15l-3.3 13.55 28.3 29.4-1.75 1.4-28.6-29.65-.2-.7-.1-.7q.95-3.05 3.35-13.35 3.15-13.55 5.05-20.95l2.6-.15"/><path fill="#0f141b" d="m82.7 198.45-24.9 19.6-2.05-.9 25.3-20.2 9.95-11.9q6.9-8.35 6.95-8.35l15.5-1.4 16.65-1.55 12 7.8q12.6 8.35 16.15 11.05l4.3 26.15 11.1 31.4-2.1-.05-5.6-15.2q-4.85-13-5.75-15.8l-1.95-12.6-2-12.75q-6.2-4.75-26.6-18l-30.4 2.95-8.05 9.7-8.5 10.05"/><path fill="#0f141b" d="M114.7 195.7 99.25 215 88 223.9l-15.25 11.9-1-1.7L98 213.6l7.3-9.65 8.2-10.55.8-.65q.3-.05.8.5l8.05 8.25 11.6-2.95 1.15-.05q.25.2.35 1.1l3.4 25.1 6.4 16.75 5.6 14.25-1.75 1.3-5.9-14.7-6.8-17.2-3.05-24.15-11.7 2.75-7.75-8M67.75 208.85l-18.35-19.4.75-2.9L69.5 207.2l-1.75 1.65"/><path fill="#0f141b" d="m85.7 224.45 13.7 14.6-1.95 1.2-13.65-14.4 1.9-1.4M49.5 112.8l5.85-25L58 86.55l-6.1 26.3-2.4-.05M47.5 132.05l-6.3 26.4-2.1-1.3 2.5-10.65 3.35-14.5 2.55.05"/><path fill="#0f141b" d="m74.55 77.65 6.2-28.85 5.75-28.2q-12.8 2.55-23.15 4.95-5.75 22.85-8.5 32.5l-.35.35-25.65 6.4-6.75 25.7q19.4-4.15 52.45-12.85m13.25-60 1.5-.1q.4.15.6 1.15 1.1 6.2 4 26.65l-2.35.8L88.4 24.5l-6.1 28.4-6 26.25-.35.35q-31.3 8.25-51.4 12.8l14.95 4.6-.3 2.15-18.95-5.45q-1.2-.35-1.45-.65-.15-.3.1-1.4l4-14.4L26.55 64q.25-.9.55-1.25.35-.45 1-.55l11.95-2.8 13-3.1L57 40.6l3.7-16.05q.2-.7.5-.9l1.15-.4 25.45-5.6M167.35 234.15l26.35-7.6-.7 2.65-25.25 7.1-.4-2.15M124.9 246.15l19.8-5.5.55 2-12.25 3.6-6.65 2-1.45-2.1"/><path fill="#0f141b" d="m118.25 288.6-7.05-11.35-5.95-9.1L85 278.6l18.1-4.55.45.1 14.7 14.45m-3-57.9q.35-.15.6.15l17.6 26.15 17.35 26.25q.9 1.4.75 1.7-.2.4-2.1 1L122.7 294l-1.3.1-1.3-.9-17.25-16.55-11.25 2.75-11.45 2.65-1.45.1-1.05-.7q-10.9-10.5-20.7-21.1-1.05-1.2-1-1.65.05-.45 1.2-.95 6.9-3.35 29.65-13.8l28.45-13.25m17 28.75-17.35-25.8-27.3 12.7q-21 9.65-27.9 12.95 8.3 9.2 19.4 19.8 19-9.75 26.4-13.85.4-.2.7.2l8 12.5q5.8 9.2 7.9 13.3l11.75-3.4 14.35-4.2-15.95-24.2M156.8 118.4l14.9 15.3-1.7 6.45-2.3.4 1.6-6.25q-9.9-10.55-21.85-21.7l-29.9 6.9-1.85 6.8-1.75-1.15q1.6-7.35 1.8-7.35l15.65-3.85 16.75-4.1 8.65 8.55M147.45 170.95l-16.55 4.1-1.2-.2-1.3-.25-21.4-23.65 2.5-8.6 1.95.65-1.9 7.65 20.75 22.55q18.3-4.55 31.75-8.55l1.95-7.25 2.3-.25-2.45 9.4-16.4 4.4"/><path fill="#0f141b" d="m163.15 57.6-14.4 54.1-2.05-.35q7.1-29.45 13.85-54.65l2.6.9M76.95 78.4q17 17.05 40.7 40l-1.5 1.35-21.75-20.8L74.8 80l2.15-1.6M52.55 166.3l55.55-16.75.45 2.25L53 168.45l-.45-2.15M122.25 201.55l1.9.7-7.5 29.3-2.25-.85 2.95-10.9 4.9-18.25M162.9 164.45l38.7 42.05-1.55 1.7q-21.8-23.5-38.5-42.2l1.35-1.55M170.5 133.15l30.55-7.45 24.6-6.4 1.05 2.35q-31.25 8-56.1 13.55l-.1-2.05"/><path fill="#0f141b" d="m193.35 148.1-11.45 38.7-24.65 7.3-1-1.8q9.05-2.6 23.85-7.4l11-37.3 2.25.5M196.5 127.95q-8.9-9.55-21.35-22.2l-20.75-20.7-28.3 7.4-29.1 7.9-1.35-2 30.3-8.3q23.05-6.2 29.35-7.7.2-.05 17.15 17.25 18.15 18.55 26.45 27.55l-2.4.8M91.85 120.35l-5.1 20.3-4.3 17.95 17 18.6-1.85 1.3-17.5-19.3-.15-.45q1.95-8.5 9.5-38.45l2.4.05M180.6 52.35l46.55 45.45-.2 2.9-49-47.25 2.65-1.1M226.3 181.3l-7.35 24.5-2.2.2 7.2-25.7 2.35 1M229.15 161.3l7.7-27.45 1.9 2.8-7.35 25.45-2.25-.8"/><path fill="#84ceeb" d="M74.95 214.6q1.65 1.55 1.6 3.9-.05 2.8-1.6 4.35-1.5 1.55-4.15 1.55-2.4 0-3.8-1.65-1.4-1.6-1.5-4.3-.05-2.3 1.6-3.85 1.65-1.55 4.1-1.55 2.2 0 3.75 1.55M55.65 232.05q2.5.1 4.15 1.95 1.65 1.85 1.7 4.55.1 2.7-1.85 4.6-1.95 1.95-4.7 1.95t-4.4-1.95q-1.5-1.75-1.65-4.4-.1-2.5 1.65-4.5 2-2.3 5.1-2.2M158.9 236.9q2.35-.2 4.1 1.35 1.8 1.55 1.85 3.95.1 2.8-1.25 4.4-1.45 1.65-4.15 1.85-2.5.15-4.1-1.7-1.45-1.65-1.6-4.05-.1-2.1 1.4-3.85 1.5-1.85 3.75-1.95M100.15 185.6q3.75.05 6.4 2.85 2.4 2.7 2.5 6.3.05 4.6-2.7 7.35-2.55 2.55-6.55 2.65-4 .1-6.8-2.75-2.75-2.8-2.85-7.05-.1-3.8 2.65-6.5 2.9-2.85 7.35-2.85M115.95 176.4q3.35-.05 5.7 2.1 2.5 2.3 2.5 5.85 0 3.95-2.25 6.25-2.1 2.1-5.5 2.3-3.4.15-5.9-2.2-2.45-2.3-2.55-5.95-.1-3.75 2.45-6.1 2.3-2.2 5.55-2.25M137.8 182.4q3.1-.05 5.35 2.2 2.3 2.3 2.35 5.55.15 3.65-2 5.9-2.1 2.15-5.75 2.4-3 .2-5.55-2.2-2.5-2.4-2.6-5.45-.15-3.55 2.15-5.9 2.3-2.4 6.05-2.5M140.6 215q-2.8-2.7-3.1-6.85-.2-3.3 2.3-6.35 2.85-3.5 7.3-3.7 3.75-.1 6.8 2.8 3 2.9 3 6.6 0 4.25-2.8 7.15-2.65 2.85-6.5 3.05-4.1.1-7-2.7M167.5 262.95q1.95 1.9 2.1 4.75.1 2.8-1.45 4.7-1.7 2-4.55 2.1-2.9.1-4.75-1.9-1.75-1.9-1.85-4.8-.15-2.65 1.65-4.55 1.9-2 4.7-2 2.3-.05 4.15 1.7M164.5 292.1q3.1 0 5.3 2.35 2.3 2.3 2.35 5.7.05 3.55-2.1 5.9-2.15 2.35-5.75 2.45-3.05.1-5.45-2.2-2.55-2.45-2.7-6.15-.1-3 2.3-5.4 2.5-2.6 6.05-2.65M38.8 257.7q3.15-.1 5.35 2.1 2.35 2.25 2.45 5.85.1 3.05-2.05 5.55-2.3 2.7-5.8 2.75-3.15.05-5.5-2.15-2.6-2.35-2.65-6.15-.1-3.25 1.95-5.45 2.3-2.4 6.25-2.5"/><path fill="#c9e8f9" d="m69.55 215.55.85.6.15 1.05q-.4 1.45-1.75 1.1-.6-.15-.8-.6-.3-.5-.15-1.15.15-.6.6-.85.55-.35 1.1-.15M54.15 234.35q.6.2.85.7.3.6.15 1.25l-.75 1-1.3.15q-1.3-.4-1-1.95.1-.6.65-.95.6-.45 1.4-.2M158.15 239.4q.5.25.7.85.2.55-.1 1.05-.65 1.35-1.9.7-.55-.25-.7-.8-.15-.55.15-1.15.2-.45.8-.65.5-.2 1.05 0M97.9 189.55q.8.55.95 1.55.15.9-.35 1.6-.65 1-1.6 1.15-.9.2-1.75-.35-.85-.5-1-1.5-.2-.95.4-1.85.5-.8 1.45-1 1-.2 1.9.4M113.85 179.25q.8.2 1.2.85.45.7.3 1.6-.25.95-.95 1.35-.6.4-1.45.25-.85-.2-1.3-.9-.45-.7-.3-1.6.25-.9 1-1.3.7-.4 1.5-.25M136.1 185.8q.75.25 1.05 1.05.3.75 0 1.5-.3.8-1 1.15l-1.55.05q-.7-.25-1.05-1.05-.35-.8-.1-1.5.3-.85 1.05-1.2.75-.3 1.6 0M143.25 207.05q-.95-.2-1.45-1.1-.5-.85-.25-1.85.1-.8.95-1.4.95-.6 2.05-.35.9.25 1.4 1.15.55.9.3 1.8-.35 1-1.15 1.55l-1.85.2M161.5 264.25q.6.1.9.7.3.55.1 1.3-.15.7-.65 1l-1.25.2q-.7-.2-1-.8-.25-.6-.1-1.3.2-.6.75-1l1.25-.1M161.7 295.15q.75 0 1.3.55.55.6.6 1.45 0 .9-.55 1.5-.55.55-1.45.6-.75 0-1.35-.6-.6-.6-.65-1.5-.05-.75.6-1.35.6-.6 1.5-.65M34.1 261.95q.15-.8.75-1.25.75-.5 1.65-.3.8.1 1.25.8.45.6.3 1.55-.1.75-.8 1.2-.7.6-1.55.4l-1.25-.75q-.5-.75-.35-1.65"/></svg>