<svg xmlns="http://www.w3.org/2000/svg" width="358" height="343" viewBox="-0.486 -0.265 357.955 342.902"><path fill="#60615f" d="M314.21 37.212q1.235-1.324 1.942-1.236.618.089.882 1.545 1.104 7.77-1.765 23.97-3.046 17.083-7.814 27.766 8.034-.22 16.422 1.722 9.225 2.163 14.081 5.959 5.209 4.105 9.58 10.506 4.413 6.533 7.018 14.126 2.913 8.254 1.103 14.876-1.986 7.327-9.27 10.24.972-4.767-.088-11.3-1.015-6.312-2.913-9.005-.53 3.576-3.576 10.418-3.09 7.063-4.458 7.46-1.81.486-12.493-5.474-7.725-4.37-16.377-9.932 1.722 3.267 3.267 8.476 1.457 5.032 1.81 8.475-7.681 1.633-20.174-3.752-14.567-6.357-22.027-17.878 1.104 10.506 6.268 19.6 4.944 8.696 10.727 11.3-2.825 1.368-7.151 3.708l-6.445 3.4q.397 3.619 2.958 9.137 2.56 5.34 5.297 8.563-4.856 1.06-10.418 4.9-4.105 2.781-7.725 6.313 5.253-.089 12.801 1.015 6.578.883 11.036 2.075 1.678.485 1.722 1.456 0 1.06-2.03 1.59l-6.799 1.986-7.548 2.56q-4.15 6.842-5.474 14.39l7.284 1.104q4.9.354 9.402.133-3.355 3.002-7.77 12.58 4.371 1.59 10.242 4.327 5.209 2.427 8.873 4.458-3.31 2.472-12.713 7.372-9.094 4.679-14.347 6.754 2.296 3.575 4.9 9.358 2.428 5.474 3.752 9.756l-10.859-.618-8.784.97q1.81 4.945 2.118 9.845-6.312-.971-12.713-6.798 1.854 6.533 1.854 21.541-6.489-2.516-16.818-2.736 0 2.648-.442 5.65-.441 3.399-1.28 5.738-5.915-3.178-12.58-13.42-2.826 2.561-8.211 8.697-5.385 6.048-8.431 10.153-2.252-3.531-6.842-9.535-4.238-5.606-6.71-8.431-2.56 1.368-8.917 6.224-5.518 4.194-9.05 7.24l-3.045-3.664-3.31-3.664q-1.325 1.765-3.577 3.664l-3.575 2.604q-.706-4.812-2.516-12.272-1.81-7.063-3.267-10.991-3.84.883-13.154 3.928-8.785 2.826-14.832 5.12 0-3.177.97-7.768 1.06-4.9 2.517-7.902-4.459 1.324-9.712 1.942 3.576-3.487 8.917-10.24l-8.078.926q-5.297.398-8.122 0 1.103-2.737 4.282-8.166 3.001-5.077 5.43-8.52-3.753-1.633-11.963-5.959l-13.861-7.593q3.531-1.765 9.755-5.297l9.314-5.606q-11.565-16.024-17.392-25.868l11.257-.309 11.344.398q-.838-3.179-1.192-8.961 2.958.353 5.783 1.721-.22-2.957-.044-8.166.22-4.459.574-7.549 2.693 1.148 9.579 5.871 6.489 4.459 10.02 7.416l.398-3.354q-2.208-1.899-7.99-7.814-6.401-6.533-8.696-9.49-1.192-1.545-.927-2.34.22-.662 1.236-.706 3.134-.221 9.579 1.015 5.253 1.06 9.314 2.384-3.179-9.977-5.43-14.965-1.766-3.884-4.238-6.268-2.118-2.03-6.003-4.017-9.226-4.812-17.172-12.757-8.74-8.873-9.579-15.804-4.149-3.399-3.266-11.477.794-7.725 4.856-12.095-2.472-4.238-2.737-7.99-.442-5.076 5.694-13.86 5.077-7.24 11.08-12.493 4.282-3.796 15.582-6.71 8.255-2.163 17.04-3.178-2.737-7.549-4.68-24.544-1.81-15.494-1.368-22.38.088-1.324.618-1.59.53-.264 1.368.53 5.342 4.945 13.067 19.865 8.034 15.67 10.02 26.044 6.533-10.109 23.617-22.336 14.567-10.462 23.616-13.905 3.134-1.148 2.34 1.677-2.516 8.74-14.832 24.014-12.051 15.053-21.321 21.365 6.754 5.253 12.757 14.39 6.224 9.447 8.255 18.055 1.412 6.136-1.81 19.644-2.825 11.874-6.754 20.35-5.253 11.168-.486 24.41 2.252-2.824 6.313-6.886l5.341-5.12q1.59-1.413 2.56-1.148 1.016.22.795 1.987-.53 4.679-3.576 15.185-2.78 9.755-5.032 15.45l-1.633 4.414q-.574 2.251-.22 4.856l1.323 12.36 1.148 13.508q5.96-18.938 19.909-40.965 15.538-24.279 29.796-33.416-.618-10.683 5.43-21.586 6.621-11.963 17.833-17.348-10.24-7.24-21.85-25.56-9.624-15.228-12.272-23.836-.618-2.03-.133-2.384.398-.309 1.899.265 9.843 3.752 26.309 18.23 16.2 14.26 22.336 24.235 1.06-9.181 9.712-26.883 8.43-17.215 14.434-23.44"/><path fill="#60615f" d="M211.312 185.312q-5.12 9.976-10.727 24.985-.485-9.756-2.295-26.574 2.251-2.296 5.739-5.253 3.663-3.002 6.18-4.547-.089 2.56.176 5.915.353 3.355.927 5.474"/><path fill="#60615f" d="M264.107 87.712q4.723 5.209 9.667 8.873-10.373 4.59-17.127 16.244-6.533 11.257-6.136 22.69-9.05 6.047-18.937 18.054-11.477 13.95-20.262 31.739-.53-2.604-.839-5.606-.441-3.664-.264-5.783l-1.59.927q5.783-18.23 11.875-35.226 6.798-19.114 9.623-24.234 3.929-7.24 12.757-18.938 8.476-11.344 14.39-17.613 2.65 4.282 6.843 8.873M278.763 73.63q-5.342-5.65-9.403-8.96l11.168-12.758q.133 4.635-.397 10.86-.53 6.003-1.368 10.858M281.279 76.676q3.134-2.56 7.063-5.164 4.855-3.311 8.43-4.768-5.208 12.184-6.709 21.1l-4.193-5.782-4.591-5.386M1.192 63.169q-.53-1.766.309-2.252.75-.397 2.03.53 4.989 3.885 17.04 10.86-2.517-3.753-5.033-10.904-2.207-6.313-2.692-9.756-.265-1.986.53-2.207.75-.177 1.81 1.192 12.756 17.127 37.565 39.42 23.13 20.79 38.492 30.105 5.827 3.531 9.535 7.68 4.061 4.636 7.107 11.566 4.724 10.904 12.934 25.25 7.372 12.934 13.684 22.072-5.826-4.194-13.463-8.388-.31 2.87-.486 7.24-.176 4.856-.044 8.475-3.046-1.589-5.783-1.721.089 4.9.927 9.049l-8.387-.618q-4.59-5.783-10.285-17.525-5.43-11.3-6.268-16.244-.53-3.267-4.591-5.165-23.22-11.08-50.765-43.26-27.236-31.871-34.166-55.4"/><path fill="#5c94bf" d="M161.651 121.216q2.605 2.958 9.27 4.724 6.004 1.633 11.08 1.324-7.68 11.786-17.348 16.863-10.065 5.297-29.62 7.371-1.06-1.5-2.913-2.957-2.03-1.59-4.238-2.472-7.637-3.046-16.686-12.493-9.314-9.755-10.065-16.068-4.06-2.869-3.134-11.565.927-8.255 4.724-12.007 1.986 3.929 6.444 7.902.133-6.357 2.384-12.713 2.207-6.18 4.944-8.564.486 7.725 2.87 14.479 2.516 7.063 5.12 7.416 2.781.397 12.404-6.754 9.8-7.328 14.258-13.331.707 4.546.31 11.3-.31 6.445-1.457 12.493 9.976-.795 19.158-7.814 8.872-6.842 12.316-15.803.176 9.888-4.9 21.233-5.783 13.022-14.92 17.436M339.282 137.682q2.649-5.871 4.106-11.3 2.34 3.31 3.09 9.755.574 5.385-.089 10.55l2.781-1.192q1.634-.927 2.781-2.384.354 6.887-2.913 13.067-3.002 5.606-6.312 6.312-4.68 1.015-21.895-3.399-2.914-.75-5.12-2.693-1.767-1.589-3.488-4.282-16.068 6.798-25.338 3.179-5.871-2.384-11.08-11.566-5.253-9.27-6.445-19.555 5.253 9.226 19.335 16.465 14.081 7.24 22.866 5.165-1.06-5.474-1.766-8.166-1.5-5.518-3.531-9.403 4.723 3.885 16.156 10.241 11.698 6.49 12.934 5.783 1.324-.795 3.928-6.577M313.15 186.725q6.356.485 11.477-3.4l1.677-1.147 1.192-.088q.618.53.265 2.34-.397 2.03-1.898 4.016-2.119 3.046-7.151 5.474-4.988 2.428-10.948 2.516-10.108.22-21.453-10.947-11.257-11.124-13.552-23.308 5.297-2.119 13.022-7.328 1.236 8.696 5.562 16.024 4.017 6.887 9.932 11.168 5.783 4.238 11.875 4.68"/><path fill="#ec869b" d="M316.196 156.663q3.973 7.063 5.473 15.848 1.06 6.4.618 12.448-12.713 5.518-23.837-4.988-10.153-9.535-12.669-25.118 6.445 2.252 12.978 1.369 5.386-.707 13.464-4.106 1.368 2.517 3.973 4.547"/><path fill="#5c94bf" d="m101.176 213.74 9.534 13.331q-4.723 3.223-18.716 10.992 4.15 2.56 13.287 7.327l12.183 6.136q-5.209 7.24-9.711 16.686 6.312 1.016 16.2-.927l-4.193 5.342q-2.649 2.913-5.033 4.988l5.033-.75 5.297-1.325q-1.457 2.693-2.56 7.504-.972 4.238-1.236 8.21 1.721-.661 5.164-1.72v4.723q.133 3.266.442 4.723-6.622 4.812-15.848 14.037-1.103 1.104-1.456 2.208-.31.838-.398 2.604-.132 4.856-2.516 9.579-.838-1.5-1.677-1.677-.75-.089-1.722.618l-5.341 4.458q-3.664 3.443-3.62 4.723-4.193.574-10.594.221-7.063-.353-10.241-1.633.75-1.678-1.633-6.622-2.34-4.855-3.84-4.811.043-1.722.838-9.05l-17.966.398q-13.773.176-18.982-.486.397-1.5 2.03-3.664 1.722-2.251 3.885-3.884 2.03-1.545 2.34-3.488.265-1.236-.265-3.443-1.722-7.24-1.854-14.523-.22-8.784 2.075-14.832 2.604-6.93 15.582-18.716 13.552-12.272 27.413-19.556 4.635-2.472 6.577-4.767l5.21-6.092 6.312-6.842M318.8 303.703q2.737 10.55 4.635 22.425.177 1.368-.044 2.03-.353.75-1.545 1.148l-6.93 1.236-19.114 1.987-4.68-.133q-2.736-.309-4.105-.927-1.368-.618-2.87-3.134-1.588-2.737-2.736-6.798-1.236-4.37-3.046-7.019-1.986-2.825-5.65-5.43-2.825-2.03-9.358-5.517-6.798-3.708-11.566-5.739 5.783-4.723 9.8-12.536 3.752-7.196 4.37-13.95 5.297-.397 10.241.663-2.428-8.3-8.652-19.114 3.443-1.325 7.681-3.488 7.813 5.871 18.364 15.45 11.786 10.683 16.597 16.863 4.415 5.739 8.608 21.983"/><path fill="#fff" d="M296.95 178.293q5.738-4.37 12.536-7.813-1.06 7.372-3.62 14.17-2.34-1.104-4.9-2.87-2.692-1.853-4.017-3.487M321.714 173.217l5.297-2.12q3.487-1.235 5.562-1.544l-2.649 6.224-3.002 5.606q-1.103 1.325-4.635 3.576.486-5.96-.573-11.742M59.284 329.394q7.063-6.312 8.652-6.489 1.457-.132 3.929 4.812 2.383 4.856 1.589 6.4-.486.928-10.639 2.384l-10.373.486q-.265-1.236 6.842-7.593M98.748 330.057q4.679-4.37 6.091-4.238 1.148.176 4.944 7.68 3.797 7.505 2.914 7.902-1.722.75-9.976-1.942-8.211-2.737-8.432-3.929-.265-1.147 4.459-5.473M313.68 328.997q6.003 5.253 5.517 6.224-.927 1.545-12.006.089-11.124-1.413-11.522-3.09-.309-.927 4.988-4.768 5.21-3.796 6.092-3.708 1.015.088 6.93 5.253M321.89 317.255q4.194.839 10.86 4.9 6.356 3.885 6.18 4.988-.221.883-6.49 1.28-5.915.398-8.917-.088-.573-6.842-1.633-11.08"/><path fill="#4a4c4b" d="M217.757 10.86q1.236 1.014-2.34 7.592-3.354 6.224-9.446 14.479-14.876 20.217-24.5 25.558-.485-.397-3.001-1.765-.971-.574-.706-1.678.309-1.148 1.5-1.854 7.858-4.944 20.703-19.246 12.14-13.596 17.79-23.087M123.38 168.494q6.62 3.663 12.713 7.636 7.195 4.768 11.124 8.343 1.28 4.282 2.825 12.934-8.167-7.548-16.642-16.289-11.742-12.095-10.02-12.624"/><path fill="#4a4c4b" d="M143.288 190.786q0 1.015-.486 1.854-.309.53-1.147.265-.883-.133-1.501-.707l1.015-3.355 2.119 1.943M122.497 186.46q.706 4.37 1.368 7.063.397 1.5-.883 1.898-1.192.309-2.472-.618-.485-14.832 1.015-16.157.177 2.87.972 7.814M117.95 201.733q-.839.486-2.03.353l-.795-5.12q-.398-3.134-.486-4.724l.706-.088q1.545 5.209 3.002 8.034.486 1.015-.397 1.545M94.024 200.85q2.296 3.62 8.123 10.815 6.4 8.123 10.02 11.61 1.015.971.927 2.119-.176 1.368-1.942 2.383l-9.27-13.198q-6.092-8.961-8.873-13.596l1.015-.133M92.215 237.665q5.87 2.693 14.876 5.607 9.888 3.134 16.288 4.06-6.356 10.595-7.636 14.215l9.358-.75q4.635-.663 8.608-1.678-2.119 5.606-4.9 8.96 3.973-.617 7.637-2.78-1.59 5.032-1.28 9.932 9.181-4.105 17.568-5.739 1.81 3.355 3.576 8.388 1.545 4.37 2.428 8.343 2.472-1.722 4.547-4.503 2.692 2.075 5.782 6.4 8.697-6.576 18.055-11.344 8.52 7.063 13.42 13.508 7.768-7.328 14.522-10.903 1.81 3.31 4.061 6.224 2.34 3.178 4.459 4.723.883-2.207 1.236-4.812l.265-5.032q6.047-.53 10.55 1.236.22-4.812-.662-12.846-.883-7.15-2.163-13.596-.221-1.236.22-1.456.486-.177 1.369.883 3.002 3.752 6.092 7.018 3.575 3.84 5.606 5.342.22-2.03 0-4.635-.265-2.781-.927-4.724 5.694-1.633 12.845.883-1.5-5.518-3.84-10.859 8.475-.53 20.482-3.267 11.83-2.648 19.556-5.694-4.37 3.178-12.537 7.504-8.52 4.503-14.126 6.401 2.163 3.664 4.503 8.829 2.737 5.915 4.017 10.197-12.184-1.148-19.556.882 1.943 6.004 2.208 9.58-3.046-.398-6.092-1.943-3.62-1.854-6.533-5.12 1.765 8.96 1.677 21.453-4.238-1.148-8.96-1.721l-7.99-.486q0 6.754-1.546 11.389-3.664-2.781-6.4-5.695-3.09-3.354-5.96-7.945-4.017 3.884-8.828 9.226-5.739 6.356-7.902 9.843-2.87-4.458-6.886-9.8-4.414-5.914-6.754-8.298-3.84 2.384-8.255 5.738-5.473 4.194-9.667 8.255-1.236-2.163-3.178-4.414-1.854-2.251-3.444-3.443-4.06 4.59-6.974 6.268-.53-4.68-2.384-12.007-1.854-7.548-3.399-11.124-15.891 4.414-28.075 9.094.221-3.267 1.236-7.814 1.148-5.209 2.472-7.901-4.635 1.456-9.8 1.898l4.768-4.944 4.194-5.342q-10.462 1.766-16.29.883 1.546-3.399 4.018-7.725 3.134-5.606 5.738-8.917-5.473-2.427-13.287-6.621-9.314-4.988-12.006-7.284M285.252 197.584q-25.427 7.504-35.668 12.89 3.885-8.211 6.312-11.169 5.74-1.854 16.157-2.913l16.42-.574q-.308.927-3.221 1.766M241.285 52.486q-3.046-6.754-1.677-7.372 5.606 11.168 17.613 26.839 12.095 15.715 18.893 20.615 1.148.794 1.192 1.986.044 1.236-1.148 1.766l-2.384.265q-10.24-6.754-24.013-28.737-5.518-8.785-8.476-15.362M315.93 35.844q1.634-.132 1.458 6.886-.089 6.578-1.634 16.333-3.752 23.705-8.784 30.282h-4.37q4.458-7.636 9.005-27.06 4.238-18.01 4.326-26.441M263.136 160.415q4.105-.176 11.698-2.78 6.71-2.296 9.402-3.974l1.369.927q-3.93 3.885-13.067 7.725.662 3.664 2.958 8.52 2.516 5.386 5.562 8.785-3.84.706-8.167 3.53l-7.504 5.298q-1.942-1.192-3.973-3.84-4.15-5.297-4.635-12.449-.176-2.25 1.722-6.621 2.119-4.988 4.635-5.12"/><path fill="#913000" d="M316.284 157.06q2.295 1.413 7.195 2.56-1.456 2.914-3.796 4.68-1.104-3.84-3.399-7.24"/><path fill="#4a4c4b" d="M191.404 145.098q.353 5.738 2.56 10.285-3.973 4.458-9.182 12.493-2.34 3.53-7.283 7.15-5.297 3.841-11.036 5.872-14.7 5.12-21.454-4.944-1.28-4.591-3.09-9.359l-4.149-10.506q-.883-2.25-2.781-4.414 12.934-.397 23.263-4.458 15.318-6.048 23.617-19.467 9.27-2.384 15.362-17.216 5.385-13.155 4.635-24.455 2.604 8.254-.486 22.91-2.604 12.272-7.548 23.042-2.781 5.96-2.428 13.067M13.728 49.308q.75 4.855 4.591 12.757 3.664 7.593 6.313 10.197 1.103 1.06.53 1.854-.619.75-1.855.265-1.412-.839-2.56-1.898-3.355-4.812-6.092-13.596-2.736-8.917-.927-9.58M1.324 60.785q13.067 25.073 39.067 53.413 27.5 29.929 48.38 39.772 4.547 2.163 6.136 3.664 1.854 1.943 3.179 6.313 2.648 8.431 7.416 16.42 4.679 7.903 9.181 11.566.177 4.503 1.236 9.27l-8.872-.485q-4.856-6.577-9.712-16.465-5.209-10.55-6.533-17.26-.353-2.03-1.192-2.914-.574-.706-2.251-1.545-23.572-11.83-49.043-40.523-26.177-29.4-36.594-56.988-1.413-3.753-.398-4.238M280.087 52.31q.706 2.03.132 9.402-.574 7.063-1.677 11.918l-2.825-3.178q2.427-5.474 4.37-18.143"/><path fill="#4a7a9e" d="M166.33 143.42q-5.43 2.958-14.258 5.342-9.711 2.516-17.127 2.516-2.296-3.223-7.284-5.21-2.869-1.103-7.813-4.722-5.827-4.282-9.402-8.608 10.417 7.416 29.664 6.489 20.703-1.06 41.891-11.786-8.652 12.227-15.67 15.98M316.107 194.714q-4.9 2.075-8.696 1.766-10.285-.75-20.659-10.462-10.947-10.24-14.214-23.705 8.873-4.414 13.42-7.239l.75 4.856q-1.368 11.521 5.033 20.747 5.517 8.078 13.596 10.594 8.122 2.56 18.01-1.236-2.605 2.693-7.24 4.68M331.337 160.724q12.095.883 17.569-5.782-.707 2.34-2.56 4.679-1.81 2.383-3.311 2.78l-5.033-.22q-3.531-.441-6.665-1.457"/><path fill="#dcdddd" d="M309.133 170.921q0 2.428-1.104 6.666-1.06 4.017-2.383 7.063-2.252-.971-3.84-2.384 3.707-6.092 7.327-11.345M332.131 169.73q-1.192 4.679-3.575 8.74-2.914 4.9-6.269 6.18l.221-5.606q2.428-1.413 4.944-3.84 2.605-2.561 4.68-5.474M73.277 331.337q.574 2.03.265 2.737-.53 1.059-10.241 2.427l-10.903.398q3.973-2.384 9.667-5.12 5.209-2.429 9.711-4.194.972 1.898 1.501 3.752M95.746 333.235q1.413-1.678 3.046-3.09l7.46 5.518q4.37 3.443 6.357 5.738-1.81.707-9.756-1.677-8.255-2.472-8.431-4.414-.044-.486 1.324-2.075M300.304 327.585q2.781.882 9.005 3.487 6.401 2.604 9.756 4.282-1.633 1.236-12.007-.044-10.55-1.28-11.3-3.179-.177-.53 1.324-2.03 1.457-1.325 3.222-2.516M322.729 322.685q2.472.22 7.548 1.765 4.812 1.369 8.343 2.87-.75.927-5.782 1.236-5.077.397-9.535-.221.397-1.854-.574-5.65"/><path fill="#4a7a9e" d="m230.912 294.213 8.652.75q-1.678 3.752-4.503 8.387-3.84 6.136-6.93 8.785-12.537 5.34-32.887 6.268-18.849.927-29.223-2.207 2.075-4.9 1.766-8.785 2.958-2.737 8.917-7.46 6.798-5.297 9.844-6.886 9.314 11.3 13.64 18.098 2.914-4.193 8.476-10.417 4.988-5.606 8.254-8.652 2.207 3.84 5.474 7.548 3.576 3.973 6.886 6.092 1.634-4.944 1.634-11.521"/><path fill="#980048" d="M144.877 309.795q-12.183-5.165-17.701-10.109-.883-.883-.971-4.546l.22-5.607q17.966-6.047 22.822-7.195 1.942 5.077 3.487 11.168 1.678 6.578 2.296 11.963 2.78-1.457 6.974-6.268l3.267 3.178q1.81 1.986 2.87 3.84 0 4.989-2.12 9.977-8.916-1.192-21.144-6.401M246.097 275.099q2.163 2.736 6.224 4.9 3.752 2.074 6.4 2.163-.22-4.062-2.207-9.58 4.459-1.015 9.535-1.191-1.368 13.596-12.536 24.985-10.33 10.506-25.382 15.759 3.045-2.517 6.577-8.343 3.002-4.856 4.502-8.785 4.238.397 8.432 1.854.265-3.973-.265-11.036-.486-6.93-1.28-10.726"/><path fill="#4a7a9e" d="M205.132 317.52q6.445-.309 17.569-3.62 12.007-3.575 16.642-7.195l-.22 5.341q-.045 1.104.44 2.163.442.927 1.104 1.457l4.768 3.752q2.825 2.075 4.944 3.355 1.456.927 1.412 1.677-.044.707-1.368.927-11.3 1.943-22.557 1.987-11.919.044-20.13-2.03-1.721-.442-2.25-.928-.619-.618-.619-2.074l.265-4.812M87.05 242.963q1.236 4.811 5.12 10.285 3.753 5.253 7.152 7.416l-6.534 6.489q-2.648-3.267-4.502-12.095-1.678-8.078-1.236-12.095M53.943 281.367q12.978 4.547 26.265.177-4.635 5.208-7.902 16.906-2.34 8.255-3.62 18.187l-17.878-.662q-13.684-.971-18.937-2.428.353-1.942 3.62-5.209 3.531-3.531 4.326-5.341.441-.971.265-2.075l-.574-2.825q-1.501-7.283-1.413-15.406.044-9.888 2.649-14.523.397 8.74 13.199 13.199"/><path fill="#4a7a9e" d="M67.98 322.95q.397-6.887 2.516-17.834 2.472-12.846 4.944-17.172 1.457 4.503 3.973 8.74 2.516 4.15 5.606 7.284 2.075 2.075 3.4 2.472 1.544.486 3.751-.574 5.121-2.34 15.848-5.518 9.402-2.736 18.142-4.635l.618 3.135q-4.149 3.443-9.27 8.078-5.164 4.635-6.886 6.533-1.721 1.854-1.5 4.679.088 1.722-.619 4.414-.838 2.87-2.119 4.635-.573-.97-1.324-1.236-.839-.309-1.633.31-2.384 1.81-5.165 4.458-3.62 3.355-3.84 4.59-2.605 1.104-9.977.751-7.15-.353-10.682-1.59.574-1.191-1.854-6.488-2.516-5.386-3.929-5.032M311.163 296.817q2.252 5.562 4.812 14.214 3.267 11.08 4.061 18.408l-4.9 1.059-4.767-4.326q-2.87-2.384-3.62-2.34-1.5.089-6.489 3.84-5.032 3.753-4.59 4.68-6.931.353-8.609-.75-2.692-1.766-4.723-8.034-2.075-6.004-4.282-9.27-2.251-3.355-5.87-5.65-4.15-2.693-9.712-5.607-6.49-3.443-10.948-5.12 4.194-3.223 8.123-9.447 3.884-6.092 5.297-11.61 29.973 5.607 42.686 15.848 2.781 2.251 3.531 4.105"/><path fill="#cc7487" d="M320.61 166.904q-6.003-3.752-13.066-.353-7.019 3.31-7.637 9.668-1.236.75-2.87 2.118-3.663-3.134-7.504-11.52-3.62-7.77-3.928-12.229 1.147.795 3.62 1.369l8.342.53q4.282-.265 7.902-1.545l6.621-2.914 2.296 2.825 1.81 1.943q2.472 3.752 4.414 10.108"/><path fill="#4a7a9e" d="M272.406 128.059q4.15 4.281 11.036 9.623 4.017 3.09 9.446 5.164-12.845 2.605-15.406 4.415-1.721-2.649-3.531-6.754-3.62-8.299-4.238-15.76l2.693 3.312M343.388 126.381q3.09 7.24 3.09 13.817l-7.814-1.148q3.135-6.886 4.724-12.669M323.214 139.006l-12.624 1.104q-1.766-6.357-4.017-11.39 4.105 3.753 16.641 10.286M99.498 101.396l1.192-3.222q1.28-3.4 2.075-4.105 1.236 2.472 3.575 4.855-4.237 1.06-6.842 2.472M179.088 96.629q-2.075 7.328-5.827 13.11-4.414-3.62-12.316-6.621 13.199-5.518 20.262-20.041 0 6.4-2.12 13.552M151.101 100.204q-8.299-1.942-17.26-2.648 9.182-6.004 17.393-14.832.838 7.99-.133 17.48M112.609 87.094q2.074-4.723 3.928-6.798-.22 8.873 3.973 16.907l-10.991 1.06q.573-5.386 3.09-11.169"/><path fill="#0f141b" d="M205.794 35.05q-11.698 15.494-23.219 23.925l-1.5-1.06q10.814-7.769 22.954-23.793 10.594-14.037 13.11-21.365.265-.618.044-.794-.132-.133-.839.176-11.212 4.194-26.662 15.98-15.67 11.963-21.586 21.012-.706 1.104-1.192.883-.485-.31.133-1.457 6.665-11.521 22.292-23.13 13.728-10.198 26.486-15.01 4.458-1.633 2.957 2.914-2.648 7.99-12.978 21.718"/><path fill="#0f141b" d="m169.244 45.864-1.5 2.65q-2.605-11.478-9.8-25.869Q150.835 8.564 144.92 2.56q-.53-.53-.75-.485-.133.044-.133.706-.309 6.71 1.81 23.263 2.207 16.907 4.459 24.014.264.706-.53.839-9.182.706-18.231 3.266-10.02 2.826-14.567 6.578-4.812 3.884-9.712 10.638-6.489 8.785-6.18 14.523.177 3.31 2.384 7.504 2.119 3.973 4.988 6.754.22-6.445 2.649-12.492 2.251-5.65 5.65-9.05l-.177 2.65q-2.427 3.266-4.237 8.916-1.854 5.871-2.252 12.051-.088 1.413-1.324.53-3.664-2.781-6.665-7.77-3.135-5.12-3.311-9.049-.31-6.047 6.4-15.582 5.254-7.46 10.11-11.39 4.678-3.84 14.566-6.532 8.3-2.252 18.231-3.223-2.427-8.74-4.237-22.91-1.898-14.567-1.545-23.66.088-2.296 1.103-2.605 1.016-.309 2.693 1.413 6.71 6.842 13.287 19.378 6.886 12.978 9.844 25.03"/><path fill="#0f141b" d="M157.016 74.866q-2.472 5.739-7.018 10.639-6.71 7.195-14.965 12.845-7.725 5.298-10.594 5.21-3.002-.133-6.18-8.388-3.223-8.387-2.781-15.317.353-4.591 5.253-11.345 4.59-6.357 10.55-11.036 1.06-.794 1.413-.397.353.353-.618 1.28-5.386 5.032-9.403 10.727-4.635 6.665-4.944 10.815-.397 6.577 2.384 14.214 2.56 7.107 4.635 7.283 1.81.221 9.05-4.811 8.166-5.695 14.655-12.625 4.37-4.68 6.974-10.197 1.942-4.017 3.532-10.02.353-1.37.838-1.237.53.089.31 1.501-1.148 6.4-3.09 10.86"/><path fill="#0f141b" d="M182.178 82.194q.22 11.036-5.253 22.91-5.739 12.316-13.596 16.333 3.001 2.163 8.299 3.62 5.606 1.545 10.638 1.368.927-.044 1.104.31.132.397-.398 1.059-9.27 12.625-15.847 16.288-5.739 3.267-14.611 5.783-9.712 2.693-16.951 2.56l-1.545-2.207q6.577.442 16.774-2.295 9.535-2.516 15.318-5.783 6.71-3.84 14.39-13.993-5.34.132-11.212-1.722-5.606-1.81-8.387-4.37-.53-.485-.442-.971.177-.397.75-.618 6.402-2.384 12.45-13.066 6.003-10.771 6.841-21.321-4.502 9.402-15.008 15.759-9.182 5.518-15.76 5.297-1.191-.088-.838-1.28 1.236-4.856 1.633-11.477.353-6.004-.132-11.124l1.633-1.722q.574 5.518.353 11.698-.22 6.842-1.456 11.918 7.195-.22 15.98-6.268 10.196-7.063 13.551-16.995.442-1.28 1.06-1.103.618.088.662 1.412"/><path fill="#0f141b" d="M161.74 121.834q-2.781-.97-5.562-2.427-3.09-1.545-4.768-3.09-9.137 3.84-22.16 8.254-5.43 1.81-10.55-.706-5.606-2.649-10.594-10.33l-2.737 3.267q-1.986 2.384-2.516 2.472-1.722.22-3.929-3.62-2.119-3.708-2.163-6.489-.044-4.193 1.28-8.563 1.457-4.503 3.973-7.814l1.325 2.208q-2.075 2.869-3.267 6.798-1.148 3.796-1.192 7.371-.044 2.781 1.457 5.562 1.368 2.517 2.119 2.428l2.163-2.251 3.266-3.576q.486-.397.839.133 9.8 14.302 19.864 11.036 15.936-5.253 22.866-8.034.398-.177.618.132 1.59 1.545 5.077 3.355 3.355 1.721 6.091 2.428l-1.5 1.456"/><path fill="#0f141b" d="M120.466 111.108q.088-.75 2.781-.31 2.649.486 2.516 1.28-.132.53-1.28.84l-1.986.044-1.369-.707q-.75-.618-.662-1.147M338.355 153.088q-.044-.707 2.472-.707 2.56-.044 2.605.795 0 .574-1.015 1.015l-1.634.442q-.662 0-1.545-.53-.838-.53-.883-1.015M112.476 133.709q7.637 7.416 17.083 12.272 4.856 2.472 7.593 6.621 1.766 2.737 4.414 9.756 7.99 21.144 11.036 45.6 1.854 14.787 1.545 27.456-.044 2.428-.397 3.708-.53 1.942-1.987 3.62l-2.56 3.31q-.883 1.457-1.324 3.135-.31 1.147-.75 1.06-.53-.045-.398-1.237.309-3.31 3.752-7.283 1.236-1.501 1.545-3.002l.22-3.355q.177-12.625-1.632-27.192-3.09-24.102-11.036-45.158-2.693-7.019-4.017-9.182-2.384-3.796-6.93-6.048-10.86-5.517-18.938-13.949-8.917-9.226-9.976-17.569l2.56 1.766q1.678 7.416 10.197 15.67M183.679 168.273q4.811-7.858 10.55-14.7 5.65-6.798 10.727-10.947 2.207-1.854 3.531-1.28 1.28.573 1.06 3.266-.574 5.695-3.664 16.51-3.223 11.035-6.048 16.774-.839 1.81-.574 5.165 1.854 17.127 2.34 28.56.618 12.757-.133 23.793-.088 1.722-.662 1.722-.574-.044-.53-1.722.177-11.742-.53-23.44-.706-11.477-2.648-28.78-.353-3.841.795-6.093 2.78-5.65 6.18-16.686 3.355-10.947 3.84-15.891.133-1.324-.265-1.413-.353-.176-1.677.883-4.591 3.84-10.33 10.639-5.517 6.489-10.991 14.302-.795 1.236-1.28.927-.486-.31.309-1.59"/><path fill="#0f141b" d="M179.485 56.194q7.858 3.62 15.715 14.611 7.46 10.506 8.961 18.761 1.324 7.504-1.854 20.791-3.002 12.184-7.857 22.425-2.163 4.547-2.163 9.932 0 5.341 2.207 12.272l-1.545 1.545q-5.165-14.214-.177-24.544 4.105-8.696 6.93-21.144 3.135-13.773 1.722-20.836-1.545-7.813-8.873-18.275-7.107-10.285-13.64-14.479-1.06-.662-.794-1.147l1.368.088M123.159 171.098q-1.545-1.766-1.104-2.913.442-1.06 2.34-1.104l9.27.839q5.562.927 9.888 2.869l.618 2.516q-4.15-2.119-10.065-3.399-5.43-1.236-9.49-1.236-1.325 0-.221 1.28 3.487 4.017 11.61 12.272l13.816 13.817.353 3.09-14.788-14.92-12.227-13.111M275.76 96.54q-10.55 4.327-17.436 15.539-6.798 11.08-6.621 23.484l-.265.53q-14.744 10.329-28.649 31.518-13.684 20.968-21.939 45.467l-.53-5.341q8.917-23.926 21.013-42.422 13.11-20.085 28.119-30.503-.089-13.86 6.621-24.455 7.063-11.08 19.335-14.92 1.191-.397 1.324.132.176.486-.971.972"/><path fill="#0f141b" d="M240.005 46.394q2.604 8.74 13.287 25.073 12.14 18.629 21.542 24.765l-1.943.794q-9.932-6.842-21.497-24.764-10.197-15.936-12.978-25.735-1.148-3.885 3.046-2.208 12.669 4.989 27.545 18.232 14.214 12.669 21.189 24.322l-.486 2.428q-5.827-10.462-21.983-24.764-16.024-14.214-26.707-18.54l-.97-.177q-.222.089-.045.574"/><path fill="#0f141b" d="M317.917 37.433q1.016 10.683-2.03 26.972-3.09 16.2-7.725 24.896l-1.898-.044q4.546-8.21 7.725-25.382 3.09-16.598 2.207-26.265l-.221-.883-.618.441q-6.754 8.255-14.214 22.646-9.093 17.657-10.815 29.884-.177 1.545-.75 1.501-.53-.044-.442-1.633.883-12.007 10.065-30.238 8.078-16.024 15.14-23.396 1.237-1.28 2.296-.97 1.104.396 1.28 2.471"/><path fill="#0f141b" d="M354.777 140.948q-2.826 4.812-8.123 6.49-1.236.397-1.103-.884.883-12.05-2.428-19.29l.662-2.604q2.472 4.59 3.267 9.402.838 4.812.309 11.124 7.769-3.885 7.769-15.141 0-6.445-4.724-15.582-4.723-9.182-11.256-15.097-6.18-5.65-18.054-7.946-10.065-1.986-21.984-1.28-1.236.132-1.28-.442-.088-.573 1.192-.75 12.051-1.28 22.645.53 12.36 2.163 18.761 7.99 7.549 6.886 12.228 15.98 4.723 9.049 4.723 16.597 0 6.4-2.604 10.903"/><path fill="#0f141b" d="M341.401 135.74q-3.62 8.784-5.606 9.534-2.075.795-12.934-5.209-10.197-5.606-16.156-10.24l-1.545-3.797q5.43 4.767 16.995 11.345 11.3 6.489 12.801 5.915 1.192-.486 4.415-8.431 3.31-7.946 3.134-10.153-.22-3.09-4.282-9.447-4.194-6.798-9.756-12.58-.97-1.016-.573-1.413.353-.397 1.368.53 5.606 4.811 10.462 12.183 4.679 7.019 4.988 10.683.22 2.56-3.31 11.08"/><path fill="#0f141b" d="M348.111 155.383q3.355-5.915 3.09-12.14l1.633-1.5q.927 7.372-2.692 14.435-3.267 6.312-7.02 7.416-2.206.662-9.931-.707-7.019-1.28-13.552-3.266-4.856-1.501-7.858-6.533-6.753 3.575-14.434 4.326-7.151.706-10.771-1.192-7.637-3.929-12.493-13.199-4.502-8.475-5.606-19.158-.132-1.148.397-1.324.53-.177 1.148.75 6.577 10.55 20.615 17.304 12.58 6.048 19.864 4.503-1.147-8.52-6.047-18.231-4.768-9.535-12.184-18.496-.97-1.148-.574-1.501.398-.397 1.413.662 7.813 8.122 13.243 18.628 5.209 10.33 6.312 19.29.133 1.104-.97 1.37-6.799 1.853-19.38-3.4-14.037-5.87-21.453-15.935 1.766 9.49 6.268 16.642 4.326 7.107 10.241 10.285 3.708 1.898 9.977 1.192 6.533-.795 14.479-4.326.794-.398 1.236.353 3.266 5.165 7.15 6.268 5.254 1.545 12.317 2.781 7.857 1.369 9.932.75 2.737-.794 5.65-6.047"/><path fill="#0f141b" d="M327.717 180.633q3.002 5.341-3.929 11.256-7.018 6.004-16.377 5.65-9.976-.264-21.188-10.505-12.007-11.036-14.48-24.5l1.987-.794q2.34 12.934 13.994 23.66 10.815 9.932 19.776 9.932 9.137 0 14.964-4.546 5.076-4.017 4.238-7.902-4.106 3.973-10.374 4.459-6.356.53-12.625-2.781-15.23-8.034-19.29-30.812l2.34 1.236q2.913 14.7 11.388 23.175 7.505 7.504 16.333 7.592 2.914.045 7.107-1.633 3.929-1.545 6.136-3.487"/><path fill="#0f141b" d="M261.15 165.403q-1.104-.088-1.104-.662 0-.53 1.103-.53h.045q4.281-.044 8.696-1.81 6.71-2.736 15.406-8.298l.618 2.163q-8.873 5.165-15.495 7.813l-4.546 1.192-4.724.132M304.41 174.144q-3.84 2.516-6.71 4.811l-1.369-1.236q3.84-2.957 8.432-5.473 4.37-2.34 4.944-1.987.662.442-.353 5.165-1.016 4.635-2.737 9.535l-1.678-.662 2.649-7.946q1.28-4.326.971-4.503-.309-.22-4.15 2.296M321.14 185.444q1.06-7.327-.795-15.626-1.942-8.52-6.047-13.552l3.045.927q3.355 5.341 4.856 13.022 1.501 7.549.662 14.435l-1.721.794"/><path fill="#0f141b" d="M324.76 160.106q-1.81 3.09-4.724 5.562l-.706-1.942q1.81-1.81 3.355-4.238l2.074.618M325.157 182.487l4.193-7.151q2.252-4.415 1.943-4.724-.265-.22-3.664 1.104-3.223 1.324-5.695 2.56l-.353-1.765q3.178-1.59 7.24-2.65 3.62-1.014 4.017-.661.353.397-.883 3.796-1.501 4.194-4.282 8.873l-2.516.618M282.073 180.721q-6.842 1.545-13.728 7.019-7.196 5.65-12.67 14.126-12.933 19.864-11.123 44.407.088 1.457-.442 1.501-.574.044-.75-1.368-2.825-24.809 10.109-45.203 5.473-8.74 12.89-14.655 7.106-5.739 14.302-7.593l1.412 1.766"/><path fill="#0f141b" d="m243.58 238.372.133-3.4q.839 2.429 2.781 4.812 2.03 2.472 4.503 4.106 1.103.706.794 1.147-.397.442-1.457-.176-4.811-2.914-6.753-6.49M210.473 186.327q-.927-6.312-1.103-10.947-5.43 3.575-10.86 9.535l-.352-2.075q2.383-2.693 5.826-5.562 2.914-2.428 5.607-4.105 1.412-.883 1.412.662 0 4.988.706 10.373l-1.236 2.12M268.83 64.14l10.992-12.625q.486-.795.927-.707.441.133.486 1.148.22 3.929-.221 10.197-.53 6.578-1.633 12.184l-1.501-1.369q2.03-11.124 1.854-18.893l-9.624 11.212-1.28-1.147M280.705 76.102q6.665-5.87 16.95-11.035l-.882 2.295q-9.314 5.297-14.788 9.976l-1.28-1.236"/><path fill="#0f141b" d="M257.618 79.855q-20.747 24.587-26.22 35.8-4.106 8.43-11.037 27.721-5.517 15.406-10.373 30.68l-2.825 1.854q6.798-21.454 10.373-31.96 7.196-21.144 11.3-29.355 3.312-6.577 11.699-17.26 5.253-6.754 16.024-19.29l1.059 1.81M286.797 197.981q-7.814 2.119-19.07 6.136-12.581 4.458-18.231 7.416l.794-2.56q5.915-2.826 17.834-6.93 10.639-3.62 18.231-5.651 1.148-.265 1.148-.706 0-.398-.927-.663-3.796-1.28-11.39-2.207l-13.242-.53 1.722-2.074q4.944-.265 12.58.927 6.843 1.06 10.815 2.384 2.252.794 2.252 2.25 0 1.546-2.516 2.208M141.743 189.285l-.53 2.472q-.22 1.192-1.28.353-3.09-2.56-8.784-6.445-6.136-4.193-9.491-5.96-.75 7.726-.22 14.391.132 1.457-1.104.707-2.075-1.148-4.812-1.59.177 3.664 1.148 7.946.176.707 0 .839l-.75.177q-10.286-.75-21.233-.265 10.329 16.686 16.597 24.676.618.75-.176 1.236-8.123 5.208-17.525 10.24 13.86 8.035 24.411 12.979l-1.06 1.28q-12.713-6.048-25.47-13.42-.662-.397-.662-.882 0-.398.662-.75 3.532-1.899 8.74-5.166l8.652-5.517q-5.782-7.46-16.377-24.853-.485-.883-.309-1.192.177-.309 1.104-.397 10.992-.662 21.144.088-.353-1.677-.441-3.796l-.22-4.15q-.089-.573.088-.75.22-.265.838-.265 2.737.265 5.12 1.59-.396-5.695.045-14.656.132-1.457 1.324-.839 2.87 1.325 9.27 5.827l9.58 7.063.352-2.384 1.369 1.413"/><path fill="#0f141b" d="M106.826 267.815q4.944-10.065 10.859-17.48.795-1.016 1.236-.663.441.353-.265 1.369-5.606 7.636-9.535 16.553 5.12.398 15.053-1.06.662-.043.795.31.22.353-.177.927-2.604 3.752-7.813 8.873 4.282-.53 7.857-1.766l.971.088q.265.353-.044.971-1.5 2.87-2.428 6.666-.927 3.796-1.103 7.46 16.774-6.003 26.927-8.564.662-.176.839.398 4.59 13.375 5.738 22.248 3.267-2.428 5.783-5.562l1.148-.044q3.62 3.354 6.003 6.753 4.017-3.752 9.005-7.327l8.387-5.695.663-.265q.176 0 .485.354 8.255 9.976 13.022 17.083 2.472-3.664 7.681-9.314 4.061-4.459 8.21-8.52.486-.441.751-.441l.662.53q2.296 3.84 5.386 7.283 3.09 3.443 5.87 5.297l1.016-4.944.265-5.12q0-.574.176-.707l.84-.088q9.048.353 15.67 2.119.309-6.71-.53-13.861-.53-4.547-1.986-11.875-.265-1.456.265-1.545.53-.132.882 1.28 3.973 14.215 3.267 27.281-.044 1.28-1.368.839-2.958-.927-7.02-1.413l-8.342-.574q-.044 2.605-.53 5.21l-1.236 5.34q-.265 1.148-1.28.486-3.046-1.81-6.357-5.076-3.752-3.576-6.135-7.416-11.522 11.344-15.495 17.7l-.706.53q-.397 0-.706-.485-1.678-2.693-6.4-8.431l-6.887-8.564q-6.93 4.59-9.447 6.445-4.15 2.957-7.46 6.136l-.927.53-.662-.619q-2.958-4.9-5.518-7.15-2.913 3.575-6.577 6.047l-.927.22q-.442-.132-.486-.794-.574-4.723-2.295-10.815l-3.532-11.3q-11.61 3.045-26.662 8.43-1.28.486-1.28-.838.176-8.961 2.384-14.038-2.605.75-7.681 1.148-.927.089-1.148-.265-.265-.441.397-1.06 2.03-1.941 7.416-8.563-8.078 1.457-14.17.795-1.412-.177-.794-1.457"/><path fill="#0f141b" d="M283.265 216.565q.883-.044 1.104.397.22.442-.442 1.148-3.531 3.664-6.842 10.727 4.459 1.766 9.712 4.547l8.43 4.59q1.37.84.045 1.634-5.209 3.399-13.066 7.416-7.946 4.15-13.508 6.224 5.43 9.358 8.387 18.407.353 1.325-1.015 1.192l-9.844-.574-8.696.84q1.81 4.81 2.074 9.049.045.706-.264.927l-.84.132q-8.033-1.59-12.36-6.975l-.44-2.869q4.414 5.915 11.918 7.637-.441-4.503-1.942-8.255-.398-.971.574-1.148 4.149-.75 8.607-1.015l10.02.31q-3.486-10.066-8.121-17.702-.486-.839.397-1.148 4.944-1.81 12.846-5.915 7.018-3.664 12.978-7.284-7.372-4.017-18.01-8.254-.751-.265-.442-1.06 3.09-6.974 6.93-11.256-9.137.132-15.23-1.325-.75-.176-.573-1.103 1.942-8.829 5.65-14.038l2.428-.618q-3.62 4.635-5.783 13.905l6.666 1.06 8.652.397"/><path fill="#0f141b" d="M128.059 299.068q18.628 14.082 47.497 17.393 28.826 3.266 52.884-5.96 31.297-12.007 36.682-39.066l2.12-.044q-5.519 29.399-38.008 41.67-23.263 8.785-51.559 6.004-30.635-2.958-51.117-18.452-.883-.706-1.104-4.414-.132-3.178.177-6.621l1.81-.53q-.354 3.002-.221 6.092.132 3.443.839 3.928"/><path fill="#0f141b" d="M154.191 300.26q-6.268-1.324-13.728-4.547-8.255-3.487-12.051-6.886l2.03-.75q3.84 3.09 10.86 6.047 6.753 2.825 12.58 3.973l.31 2.163M164.962 315.843q1.06-2.075 1.677-5.077.574-3.046.486-5.783l1.766 1.678q-.088 6.092-1.81 9.755l-2.119-.573M222.524 326.613q16.863.84 27.678-2.118.706-.133-.132-.707-7.063-4.811-10.33-7.769-1.677-1.633-1.633-3.973l.265-4.635 2.56-1.103-.618 5.12.044 1.943q.133 1.015.574 1.456 3.84 3.488 10.241 7.549 1.28.838 1.766 1.677.397.839 0 1.457-.883 1.192-8.785 2.251l-16.95 1.148q-24.014.132-23.97-6.666.132-3.222.353-4.988l2.384.22q-.133 1.546-.133 4.989 0 3.267 16.686 4.15M91.994 269.492q-12.448 13.288-15.892 20.483-2.472 5.12-4.679 15.98-1.942 9.446-2.56 16.862l-1.898.133q.574-8.564 2.384-18.055 2.118-10.594 4.723-15.98 3.487-7.24 15.759-20.438 11.742-12.58 21.277-19.864l2.163 1.06q-9.403 7.15-21.277 19.82"/><path fill="#0f141b" d="M59.858 330.012q-4.326 3.885-6.313 6.136-.574.618.353.574 8.873-.794 17.923-2.737.662-.132.838-.397.221-.265 0-.839-1.236-4.502-4.15-8.652l-1.588.044q-2.781 2.031-7.063 5.871m10.064-7.327q3.311 4.679 4.812 9.888.397 1.368-.088 2.074-.618.883-2.56 1.236l-9.05 1.413-9.05 1.015q-2.118.133-2.692-.75-.574-.839.795-2.384 2.118-2.384 6.489-6.312 4.458-4.017 7.416-6.224 2.56-1.899 3.928.044M103.736 327.143q-3.796 3.002-7.77 7.24-1.015 1.147.089 1.677 8.52 3.929 15.318 4.812l.441-.089-.132-.662q-1.81-4.9-6.313-12.713l-.662-.662q-.309-.044-.971.397m3.134-.75q4.326 7.327 6.357 13.198.706 1.899.264 2.472-.485.574-2.25.354-3.665-.486-8.211-1.81-4.635-1.369-8.3-3.09-1.5-.707-1.544-1.898-.133-1.06 1.103-2.34 3.752-4.105 8.432-7.725 2.427-2.03 4.149.839"/><path fill="#0f141b" d="M73.895 333.588q2.428.971 9.314 1.324l11.169-.353.264 1.854-11.035.31q-7.902-.354-11.08-1.59l1.368-1.545M127.176 300.04q-4.459 3.222-9.226 7.548-4.459 3.973-6.93 6.798-.619.706-.795 1.28l-.177 1.368q-.044 2.87-.927 6.048-.794 3.002-2.119 5.341l-1.059-1.765q1.06-2.208 1.722-4.9.706-2.737.573-4.68-.044-1.059.221-1.765.265-1.015 1.236-2.03 6.93-7.77 16.642-15.407l.839 2.163M92.082 305.866q3.84-1.765 10.197-3.928 6.136-2.12 10.727-3.223 1.236-.309 1.368.265.177.53-1.103.883l-10.506 3.62q-6.401 2.34-10.065 4.06-1.148.53-1.545-.308-.353-.795.927-1.369M77.47 291.917q3.4 7.416 7.593 12.095 1.06 1.192.442 1.766-.662.53-1.722-.618-4.017-4.414-7.416-12.757-.441-1.06.089-1.236.53-.265 1.015.75M83.695 325.819q.353-5.209.971-8.785.574-3.708 1.633-7.901.354-1.236 1.236-1.015.84.176.53 1.412-2.03 7.549-3.178 16.465-.177 1.457-.75 1.413-.53-.088-.442-1.59M16.465 61.844q2.737 6.842 6.136 11.698l-3.046-1.633q-3.001-4.635-5.164-10.903-2.12-6.092-2.34-10.242-.088-2.25 1.015-2.472 1.104-.309 2.428 1.501 10.418 14.39 35.359 37.124 25.867 23.484 43.216 33.637 4.767 2.825 8.475 7.725 3.752 4.988 7.902 14.082 5.782 12.492 13.375 25.691 8.166 14.126 13.993 21.233l-4.723-3.223q-5.871-7.504-12.757-19.687-6.357-11.213-11.83-23.131-2.605-5.65-7.24-12.007-4.944-6.798-8.343-8.74-18.496-10.727-43.57-33.77-24.72-22.645-35.093-38.05l-.397-.31q-.22.044-.22.441.087 4.194 2.824 11.036"/><path fill="#0f141b" d="M2.03 63.124q8.167 24.014 33.77 54.208 26.883 31.739 52.089 44.363 1.633.795 2.472 1.678.97 1.06 1.368 3.002 1.5 6.886 6.886 17.878 5.386 10.859 10.153 16.73l-2.78-.044q-4.724-5.96-9.36-15.583-4.81-9.976-6.841-18.452-.398-1.5-.971-2.119-.442-.485-1.81-1.191-26.398-13.11-53.06-44.54Q8.52 88.991.353 63.697q-.839-2.604.22-3.62 1.06-1.015 3.18.53 9.313 6.798 19.643 12.581 1.28.795.97 1.236-.22.486-1.544-.177Q12.228 69.04 2.913 61.977q-.794-.618-1.059-.31-.22.266.177 1.457M83.121 232.898q-13.331 7.019-26.132 18.584-13.023 11.786-16.466 20.438-1.721 4.194-1.412 12.934.22 8.255 1.986 15.318.971 3.929-1.942 6.047-1.898 1.369-4.106 3.753-2.118 2.427-1.898 2.78.353.84 12.537 2.075l23.175.839-.265 2.03q-6.312.354-15.759-.308-10.638-.707-18.937-2.296-2.384-.397-2.649-1.457-.353-1.059 1.236-3.487 2.207-3.443 5.032-5.606 1.06-.795 1.28-1.81.221-.927-.132-2.472-1.766-7.151-1.942-16.112-.177-9.226 1.589-13.64 3.487-8.785 16.465-20.483 13.023-11.786 27.325-19.113 2.78-1.457 4.017-2.428 1.457-1.06 3.31-3.311 6.048-7.151 11.301-12.448l1.104 1.765q-3.4 3.488-10.727 12.096l-3.752 3.752q-1.457 1.147-4.238 2.56"/><path fill="#0f141b" d="M91.817 268.124q-2.648-5.297-4.105-12.14-1.236-5.87-1.413-11.962-.044-1.324.486-1.324.53-.089.75 1.236.795 6.71 1.899 11.3 1.545 6.401 4.06 11.124l-1.677 1.766M148.364 238.063q2.384-.839 4.812-1.192l-.133 1.942q-4.458.265-7.99 2.428l-1.235.088q-.354-.353.53-1.103 1.544-1.236 4.016-2.163M226.32 312.267q7.417-6.4 12.096-17.304l1.766.353q-3.84 9.712-10.197 16.024l-3.664.927"/><path fill="#0f141b" d="M237.886 298.053q5.165-.397 10.109-1.854 5.253-1.545 8.475-3.885l-1.854 3.046q-3.399 1.898-8.74 3.179-4.856 1.191-8.873 1.28l.883-1.766M263.136 282.162l-7.99 1.147q-4.37.22-7.77-.044l-.264-1.898q4.15.397 8.652.044 4.458-.309 8.034-1.28l-.662 2.03M284.634 326.702q1.147 2.163 2.78 3.752.75.706 3.355.971 2.56.309 4.635-.044l.53 1.766-5.341.22q-3.4-.309-4.414-1.236-1.81-1.721-3.267-4.37-1.148-2.119-2.34-5.518-1.28-3.575-2.737-5.959-1.854-2.958-4.811-5.209-6.975-5.297-22.513-11.963l2.03-2.118q5.165 2.34 10.462 5.208 7.549 4.106 11.698 7.24 3.002 2.251 4.724 5.253 1.103 1.942 3.09 7.107l2.119 4.9"/><path fill="#0f141b" d="M317.829 334.206q-3.62-3.576-10.153-9.093-.574-.486-1.015-.442-.353 0-1.015.442-5.96 3.84-8.652 6.444-.707.574.176.84 3.487 1.147 10.241 2.03l10.153.662q1.104 0 .265-.883m-.22 2.472-10.992-.706q-6.887-.75-10.153-1.854-1.633-.53-1.898-1.678-.265-1.06.75-1.986 1.545-1.501 4.812-3.84l4.546-3.179q1.148-.75 1.987-.706.883.044 1.942.927 5.96 4.856 10.462 9.446 1.545 1.59 1.192 2.517-.31 1.015-2.649 1.059"/><path fill="#0f141b" d="M317.829 304.454q-3.267-12.36-7.813-20.483-2.472-4.502-15.494-16.51-11.654-10.814-20.439-17.48l2.87-1.28q8.343 6.533 19.6 17.172 12.8 12.095 15.493 16.907 4.591 8.298 7.77 20.526 2.25 8.696 4.59 23.263.53 2.914-1.898 3.443-4.547 1.104-6.842 1.148l-1.677-1.677q2.648 0 7.636-1.148.662-.177.839-.486v-1.015q-2.251-13.552-4.635-22.38"/><path fill="#0f141b" d="M323.435 327.496q8.476.574 13.817-.22 1.148-.133.22-.927-5.12-4.106-15.582-8.388l-.22-1.986q11.035 4.37 16.994 9.138 1.59 1.28 1.236 2.295-.309 1.015-2.383 1.413l-7.328.618q-4.458.132-7.24-.133l.486-1.81M309.221 280.66q.486 7.108.265 10.595-.044.971-.839.927-.838-.088-.794-1.06.309-7.636-.089-12.05l1.457 1.589M291.785 283.75q11.256 5.21 16.288 9.27.84.663.31 1.325-.53.662-1.28 0-5.474-4.37-15.848-9.58-1.06-.44-.839-.97l1.369-.044M316.152 314.871q-2.56-8.652-6.754-17.922-.398-.927.397-1.236.75-.353 1.148.574 3.487 7.593 6.356 18.231.353 1.148-.22 1.325-.53.132-.927-.972"/><path fill="#60615f" d="M217.139 171.319q-1.104-12.581-3.576-20.439-.794-2.427.133-2.957.75-.486 2.207.353 3.62 1.986 9.535 9.182 4.282 5.209 7.637 10.33 1.942 2.913-.133 8.342-1.766 4.68-5.694 9.535-3.62 4.591-6.622 6.268-3.134 1.854-2.957-1.368.441-8.387-.53-19.246"/><path fill="#0f141b" d="M216.565 149.777q-1.721-1.148-2.251-.927-.486.176-.044 1.721 2.383 8.432 3.531 19.423 1.104 11.124.486 20.085-.044 1.457-.618 1.457-.574-.044-.574-1.545.22-8.917-1.148-20.659-1.324-10.815-3.31-18.32-.795-3.133.573-3.884 1.413-.794 4.194 1.192 3.575 2.516 7.901 7.549 4.635 5.473 7.858 11.3.618 1.104.132 1.413-.485.265-1.192-.795-3.575-5.43-8.166-10.77-4.547-5.298-7.372-7.24"/></svg>