<svg xmlns="http://www.w3.org/2000/svg" width="282" height="293" viewBox="-3.068 -0.479 282.258 293.044"><path fill="#bd9c5e" d="m55.464 179.335 9.971 6.328q-6.28 1.486-13.95 1.63 3.164 5.369 12.416 10.21 9.78 5.13 21.189 7l22.339 25.79q-.192 5.177-4.219 11.265-3.308 4.986-7.478 8.485 5.177.432 11.697-1.006 5.417-1.199 10.019-3.212-1.39 4.937-3.931 10.354-2.78 5.897-5.561 9.348l11.888-.479q6.856-1.294 11.218-3.452l-.623 4.555-1.39 5.177q-4.267-2.301-8.725-2.78-4.075-.384-7.622.814-3.644 1.295-2.637 6.664-5.609-.288-15.723-2.014 1.581-3.116-.863-5.608-2.397-2.445-7.622-3.548-5.561-1.102-8.342.815-1.102.767-1.534 2.253l-.527 2.54q-12.416-1.773-35.138-9.251-24.017-7.91-33.077-13.854-10.307-6.76-2.829-20.853 5.705-10.69 22.675-25.647 14.381-12.703 28.379-21.524"/><path fill="#fff" d="M217.158 101.436q24.448 15.388 32.694 45.541 7.67 28.188-1.295 57.765-3.068-8.437-6.423-13.279.958 4.986 1.965 15.245-4.075 0-9.06-1.15 1.055 4.074 5.848 11.025 4.459 6.567 7.814 9.683l-8.245-.431q-4.41-.671-7.574-2.061.67 5.129 3.307 13.039 2.685 7.766 5.274 12.56-4.315-.145-10.595-3.069l.671 3.212q1.534 2.589 6.472 6.424l-5.705.527-12.463 3.356q-1.678 4.985-3.692 12.368l-2.396-5.8-2.925-5.562q-1.438 3.644-5.656 9.3-4.41 6.088-8.581 9.78 1.39-4.315-.767-12.129-6.04 6.04-18.408 12.56-13.47 7.143-20.518 6.903 4.075-4.266 5.513-14.046-2.972 2.637-8.629 5.417-5.848 2.877-10.738 3.883 2.11-1.63 3.644-5.8 1.246-3.356 1.582-6.52-4.555 4.267-12.273 7.718-6.998 3.02-11.84 3.5 2.397-2.972 4.506-9.444 1.774-5.609 2.397-10.355-5.082 2.35-12.32 3.548l-10.786.383q5.609-7.382 9.492-19.702-4.219 2.205-11.218 3.5-6.807 1.294-10.163.575 4.123-3.02 7.622-9.109 3.5-6.088 3.74-10.498l7.478.288q1.294-2.541 4.122-5.321-2.588-2.589-6.327-3.548l-6.76-.48q0-2.732 2.925-6.135 2.54-2.924 5.465-4.506-2.253-2.78-5.993-4.65-2.588-1.343-6.807-2.733 1.007-1.87 2.157-2.397l-10.45.288q-5.417 1.294-8.15 3.404-7.765-.767-18.264-5.61-11.888-5.464-15.34-11.6 6.04.335 13.95-1.63-5.513-2.637-12.032-8.15-4.986-4.266-8.677-8.532 7.047.287 18.12-1.39 8.965-1.39 16.203-3.308-4.602-2.972-8.964-9.06-3.691-5.13-4.89-8.773 10.45 4.314 21.429 4.17 6.088 2.397 10.306 2.637 3.74.192 5.082-1.294 1.294-1.39-.432-6.088-1.246-3.452-3.835-7.91 3.548-.192 7.958 1.678 1.534.67 2.205.383.719-.287.767-1.63.048-1.917-1.534-6.232-1.534-4.17-3.691-8.197 3.068-.288 7.43 3.068 1.966 1.486 3.643 1.822 1.774.335 2.541-.623.767-.96.384-2.877-.384-1.965-1.918-4.458 17.641-22.339 45.014-28.954 30.057-7.191 56.614 9.491"/><path fill="#525557" d="M169.412 170.898q30.249 19.175 51.341 29.386-2.732 3.452-8.628 6.232-6.424 2.972-14.382 4.075-19.942 2.732-38.494-7.479-16.107-8.868-24.017-26.126-7.478-16.059-5.033-32.31 18.504 13.087 39.213 26.222"/><path fill="#0088b9" d="m143.861 154.072 16.06 10.642q.862 8.198-1.535 13.806-2.492 6.088-7.43 5.705-5.992-.336-8.197-10.69-2.11-10.067 1.102-19.463"/><path fill="#525557" d="M137.773 236.669q1.294-3.452 5.321-4.794 3.787-1.15 8.006-.048 4.41 1.199 6.663 4.219 2.589 3.5 1.295 8.245-1.918 7.286-10.403 15.292-8.245 7.67-11.649 6.376-3.116-1.247-2.828-10.882.24-9.444 3.595-18.408M223.63 232.786q5.369 4.89 7.862 17.162 2.396 11.888-.863 13.614-2.925 1.582-12.033-5.034-9.156-6.71-12.08-12.655-1.966-3.979-.72-7.718 1.103-3.356 4.411-5.56 3.164-2.158 6.807-2.206 3.883-.048 6.616 2.397"/><path fill="#c40018" d="M109.154 206.372q3.356 2.061 5.178 4.219-3.068 1.486-5.705 4.89-2.493 3.26-2.685 5.752 4.65-.336 8.246 1.007 3.26 1.198 4.937 3.403-2.109 1.63-4.218 4.938-6.04-1.582-10.882.67-4.362 1.966-9.492 8.006-5.944 7-15.723 5.37-7.67-1.295-19.942-8.486-4.507-2.636-8.773-2.109-3.595.432-7.43 3.068-2.253 1.63-3.068 1.438-.863-.143-.624-2.205 1.007-8.005 8.485-13.183 7.479-5.177 13.327-1.965 5.034 2.636 9.444.383 3.93-1.917 6.376-7.046 3.355-7.143 10.69-10.978 7.622-4.027 16.394-2.733-1.246.624-2.157 2.397 3.74.72 7.622 3.164M34.85 95.396q-3.882-3.691-8.772-5.417-1.821-.67-1.965-1.726-.144-1.054 1.63-1.582 10.306-2.684 19.846-.143 12.703 3.451 19.319 15.723 2.397 4.602 6.855 5.992 4.122 1.247 11.409.288 17.401-2.349 27.996 7.43 3.69 3.452 5.465 7.479 1.534 3.5.67 4.65-.622.767-2.252.719-2.062-.048-3.931-1.63-1.822-1.342-4.17-2.253-2.158-.815-3.644-.815 2.013 3.02 3.451 6.903 1.247 3.308 1.822 6.28.384 2.013-.192 2.732l-1.678.048q-1.534-.863-4.458-1.534l-4.506-.527q1.39 2.3 2.78 5.513 1.247 2.972 1.918 5.32.863 3.5-1.582 4.123-7.91 1.918-17.162-3.883-9.827-6.136-11.6-15.915-.624-3.883-3.548-5.657-2.397-1.438-6.999-1.87-7.958-.574-12.512-5.56-3.978-4.362-8.101-15.436-1.966-5.32-6.088-9.252M185.375 47.794q-3.739 6.999-3.451 12.08.383 5.082 4.842 9.348 4.554 4.41 6.231 10.403 1.726 6.184-.335 11.792-8.054-2.205-19.175-1.63-12.56.672-21.86 4.746-2.78-5.608-1.342-11.505 1.438-5.8 6.088-9.012 3.835-2.637 4.458-7.43.575-4.267-1.342-9.492-2.061-5.321.192-11.937 2.253-6.567 7.862-12.032 8.149-7.91 10.881-15.005 2.014-5.32 2.158-14.237.143-2.493 1.102-2.972 1.055-.432 2.301 1.917 4.986 9.348 5.8 21.189.96 13.566-4.41 23.777M244.1 118.454q4.553-1.582 6.279-4.937 1.726-3.5 3.883-4.554 2.013-1.103 5.369-.48 3.26.575 6.04-.863 2.78-1.39 4.075-4.17 1.007-2.205 2.397-1.918 1.39.288 1.582 2.445 1.342 13.279-2.685 24.16-4.314 11.41-12.943 14.861-3.02 1.247-5.033 3.26-2.062 2.061-2.158 4.027-3.547-16.347-14.477-31.303 3.5.862 7.67-.528M256.227 241.031q-3.978 1.87-8.533 2.397-5.608.623-9.587-1.246-1.678-4.315-3.116-9.396-1.438-4.986-2.11-9.012 7.527 2.924 16.108 2.684-6.328-6.136-11.553-15.292 5.081-1.582 9.78.815 5.176 2.684 8.196 9.54 1.199 2.588 2.925 3.882 2.109 1.678 5.513 1.87 13.854.815 14.38 15.915.049 1.678-.91 1.918-.863.335-2.397-.959-4.506-3.787-9.587-4.506-4.794-.72-9.109 1.39"/><path fill="#a2000c" d="M23.633 88.062q5.705-.671 12.608 2.924 7.526 3.93 9.875 10.21 2.828 7.431 7.718 11.602 4.65 3.93 9.923 3.93 10.547 0 15.628 9.444 1.774 3.164 4.314 4.363 2.397 1.15 5.945.815 5.656-.432 10.258 1.581 4.986 2.206 8.102 7.095-.432.288-4.458-1.102-4.315-1.534-6.04-1.15 3.067 4.985 4.314 9.06 1.294 4.122 0 5.08-2.397 1.918-7 1.295-4.41-.623-9.203-3.164-11.361-6.184-13.519-15.532-.91-4.122-2.78-6.136-2.493-2.54-7.478-2.924-7.958-.575-12.991-5.8-3.931-4.027-7.143-12.56-5.177-13.375-14.573-16.778-3.308-1.15-3.5-2.253M274.06 104.408q.432 2.062.288 4.986-.671 13.566-4.746 21.86-3.93 7.91-11.122 11.505-2.588 1.246-4.65 3.068-2.492 2.157-3.211 4.266-.767-6.615-5.657-17.593 2.685.767 5.753-.623 2.972-1.342 4.65-4.027 3.26-5.081 7.286-7.526 4.219-2.493 6.903-7.718 2.685-5.321 2.493-10.978 1.39.144 2.013 2.78M256.132 240.983q-10.882 4.938-17.785 1.007-3.931-9.012-5.8-18.264 4.122 1.63 8.436 2.3 4.698.768 8.102.049 2.061 3.307 5.129 5.129 3.356 2.061 7.574 2.061 4.602 0 9.348 3.5 4.986 3.643 5.896 8.197-.719.144-2.157-.719l-2.588-1.774q-3.308-2.493-7.383-2.924-4.362-.527-8.772 1.438M105.75 221.185q4.363-.24 7.815.767 3.787 1.102 5.273 3.451-2.445 2.397-3.98 5.13-4.889-1.486-10.162.575-5.609 2.157-9.587 7.526-5.13 6.951-14.717 6.232-8.437-.623-18.217-6.76-6.52-4.17-11.505-4.17-4.362-.048-8.005 3.164-2.253 2.11-3.308 1.39 2.972-6.663 10.642-8.868 7.766-2.205 14.957 1.774 6.471 3.5 13.566 2.924 6.76-.623 9.923-4.506 9.827-12.177 18.984-13.04-.863 1.247-1.678 4.41"/><path fill="#38393a" d="M156.66 249.324q-3.738 6.903-10.114 12.224-6.136 5.082-9.396 4.459-1.103-.24-2.253-3.356-1.246-3.5-.72-7.047.816 3.74 3.884 4.027 2.732.192 5.848-2.253 4.458-3.547 8.629-9.588 4.458-6.615 4.746-10.977 1.965 1.486 1.774 5.033-.192 3.404-2.397 7.478M205.461 240.216q2.493 4.602 8.102 9.54 5.081 4.458 9.348 6.328 3.595 1.63 5.8.383 2.397-1.39 2.685-5.992 1.917 11.84-1.055 12.943-3.068 1.15-10.978-4.41-7.238-5.082-10.402-9.444-1.966-2.637-2.685-4.123-1.294-2.78-.815-5.225M166.871 285.374q5.321-1.63 14.573-7.143-.575 2.78-2.78 6.615-2.445 4.219-4.123 4.602-1.102.24-3.26-.863-2.157-1.198-4.41-3.211"/><path fill="#a48751" d="M117.256 245.92q-1.15 4.363-3.452 9.684-2.732 6.28-5.704 9.971l10.786-.335q7.19-1.247 12.224-3.644l-.815 4.89-1.342 4.746q-3.5-1.918-8.342-2.54-5.033-.624-7.478.67-2.54 1.39-3.116 3.308-.383 1.342.096 3.643l-8.389-1.15-7.239-1.247q1.39-2.349-.719-4.985-2.157-2.733-6.375-3.643-5.657-1.247-8.725.048-3.068 1.294-3.164 5.081-19.894-4.554-35.378-9.348-23.49-7.19-32.981-13.806-5.992-4.123-5.897-10.69.096-7.143 7.43-16.395-1.006 4.075 1.535 8.39 2.78 4.553 8.485 7.286 17.114 8.197 33.892 10.354 16.155 2.062 32.98-1.39 3.021-.623 5.945-2.828 2.685-1.966 4.65-4.746 1.822-2.493 5.37-4.698 3.307-2.061 5.656-2.349.48 3.212-2.972 9.54-3.596 6.615-8.198 10.306 3.835.624 10.211-.67 6.04-1.247 11.026-3.452"/><path fill="#dcdddd" d="m228.088 203.4 6.76 2.11q.574 1.677 2.396 5.08 1.918 3.74 3.643 6.185-12.224-8.965-26.557-11.601 3.979-1.822 6.328-4.794 2.78 1.39 7.43 3.02M249.085 226.075l-8.965-.432q-6.807-1.007-9.348-2.253-2.3-1.15-1.534-3.164.72-1.965 2.541-1.054 9.54 4.937 17.306 6.903M241.606 249.324q-1.582.192-4.793-.767-3.068-.863-6.04-2.3-.576-2.685-2.254-6.472 1.726 1.917 5.945 4.937 4.266 3.116 7.142 4.602M232.259 256.467q0-2.972-.72-6.855 4.027 4.89 6.424 6.184-1.774.767-5.704.671M126.22 237.628q2.589 7.334-.767 13.23 6.951-2.013 10.02-5.656-2.206 6.711-1.439 13.566.72 6.52 3.116 7.239 1.965.575 5.848-1.87l6.568-4.985q5.513-1.439 9.396-3.692 3.883-2.3 7.67-6.375-.192 3.307-.96 5.848-.814 2.493-2.636 5.465 3.26-1.294 6.76-3.452 4.41-2.732 6.95-5.608.863 3.93.911 6.663 0 3.547-1.102 8.054 7.382-2.733 16.682-10.211 9.971-8.054 12.033-13.902.527 3.835 5.752 9.731 4.698 5.37 8.869 7.766-2.541 7.814-3.644 12.56-1.678-4.267-5.369-11.457-1.773 4.314-6.471 10.594-4.075 5.37-7.766 8.916.767-2.972.431-6.663l-1.198-5.752q-7 7.334-19.99 13.758-12.656 6.184-18.984 5.752 2.158-2.445 3.548-6.375.958-2.733 1.821-7.287-3.355 2.78-8.868 5.417-5.849 2.876-10.259 3.595 2.589-2.876 3.883-6.375.72-2.014 1.438-5.945-4.554 4.123-12.607 7.574-7.095 3.068-11.745 3.548 2.732-4.123 4.698-10.02 1.534-4.793 2.3-9.683-4.457 1.966-11.169 3.356-7.814 1.63-11.84.623 3.355-4.458 5.896-10.306 1.63-3.883 3.308-9.588-4.506 2.349-11.314 3.595l-9.491.384q4.41-3.595 7.622-9.684 2.924-5.512 3.164-9.635l7.574.192-.336 1.246q2.541 1.486 11.697 5.849M105.942 220.85q2.445-1.726 6.856-1.583 4.985.096 8.053 2.925 1.007.91.48 2.253-.528 1.294-1.87 1.917-.24-1.965-4.17-3.643-4.123-1.822-9.349-1.87"/><path fill="#dcdddd" d="M125.933 237.723q-2.301-.67-6.28-3.068-3.883-2.349-5.034-3.69 5.321 2.108 11.314 2.828 1.486.191 1.581 2.3.096 2.158-1.581 1.63M109.202 206.468q-3.739-2.445-7.957-3.547 4.41-.528 10.019 1.821 5.273 2.205 7.526 5.082 1.821 2.205-.096 3.547-1.87 1.342-3.212-.863-2.11-3.403-6.28-6.04M51.629 187.005q5.896 5.897 20.47 10.307 14.477 4.458 22.914 3.068-6.184 1.774-9.348 3.979-8.054-.336-19.846-5.8-12.704-5.945-14.19-11.554M45.78 169.364q4.459 3.643 10.978 7.095 6.951 3.691 11.601 4.602 2.157.383 2.35 2.061.143 1.63-1.679 2.301l-3.163.432q-5.226-2.589-10.786-7-6.04-4.84-9.3-9.49M71.81 157.428q-4.985-6.04-6.519-11.218 3.308 4.41 7.479 8.293 4.218 3.835 8.245 6.184 1.294.815 1.007 2.253-.24 1.535-2.35 2.062-3.978-2.924-7.861-7.574"/><path fill="#38393a" d="M86.911 265q7.287 1.582 7.814 5.705.575 4.266-5.896 10.354-6.328 5.897-9.684 5.13-3.068-.767-3.69-9.588-.624-8.773 2.012-10.93 2.541-2.11 9.444-.671M119.844 291.701q-2.396-.143-6.567-8.15-4.314-8.148-3.26-11.648 1.055-3.404 8.054-3.212 6.375.192 10.882 2.54-2.062 6.616-4.842 10.068l2.589-.288 2.732-.623q-.863 2.876-4.123 6.999-3.5 4.458-5.465 4.314"/><path fill="#a48751" d="M134.178 278.662q5.8-2.157 14.285-8.485 0 1.438-1.006 4.554-1.007 3.212-2.062 4.65l-11.217-.719M151.1 279.813q4.362-1.726 11.17-6.328-.288 3.164-1.295 6.472l-9.875-.144"/><path fill="#38393a" d="m129.815 148.607.624-3.835q5.369 4.075 13.326 9.444-.958 2.54-1.534 6.376-8.916-7.623-12.416-11.985M192.518 184.8q17.018 9.971 28.14 15.58l-2.829 2.924-4.362 2.54q-11.17-4.84-24.592-12.271-17.402-9.684-29.338-18.936.767-3.883.383-9.779 16.251 10.355 32.598 19.942"/><path fill="#006c95" d="M159.92 164.858q.384 5.896-.383 9.78-9.971-7.67-17.306-14.046.576-3.835 1.534-6.376 6.951 4.746 16.155 10.642"/><path fill="#0f141b" d="M243.284 194.771q1.103 5.465 1.822 12.56.144.623-.527.623-16.156.192-51.965-20.997-24.065-14.237-68.455-45.636-1.103-.815-.815-1.295.335-.48 1.486.288 48.849 32.598 67.017 43.336 36.385 21.667 51.245 22.147-1.102-10.307-1.965-15.388-.192-1.007.144-1.15.383-.144.91.718 3.884 6.232 6.28 12.512 7.24-36.576-1.87-62.175-8.916-25.024-33.22-39.213-26.414-15.436-55.033-7.335-25.119 7.095-42.472 28.523l-1.103-1.725q17.641-22.77 44.774-29.722 29.098-7.478 55.224 7.718 26.558 15.58 35.474 44.678 8.437 27.468-.335 61.552-.384 1.438-1.103 1.438t-1.198-1.246l-2.062-5.37-2.253-4.84"/><path fill="#0f141b" d="M240.696 140.601q6.28 12.608 5.512 25.935-.095 1.821-.862 1.821-.72-.095-.72-1.87.096-7.382-1.15-13.374-1.103-5.896-3.787-12.032-.623-1.438-.096-1.63.431-.24 1.103 1.15M204.359 107.093q11.84 8.677 22.147 29.434 9.827 19.846 11.889 37.343.24 1.582-.576 1.63-.767.048-1.006-1.486-2.493-16.682-12.129-36.385-10.115-20.709-21.044-29.625-.911-.767-.624-1.199.336-.431 1.343.288M213.707 149.039q-3.068-5.082-6.136-8.725-3.212-3.787-8.006-7.766-.815-.671-.431-1.103.287-.383 1.15.144 9.731 6.903 14.717 16.635.91 1.63.24 2.013-.672.336-1.534-1.198M200.811 147.36q8.917 9.444 14.717 18.696.767 1.199.096 1.582-.719.336-1.438-.719-5.753-8.533-14.621-18.12-9.06-9.78-16.874-15.772-1.199-.958-.911-1.342.288-.431 1.582.432 8.245 5.464 17.45 15.244M169.077 137.965q18.551 12.512 35.234 32.454.815 1.006.24 1.438-.576.48-1.39-.384-18.457-20.757-34.756-32.597-.91-.72-.623-1.103.288-.48 1.295.192M192.47 175.069q-20.661-16.826-38.59-26.366-1.198-.671-.958-1.15l1.486.095q9.587 4.459 19.606 11.218 10.259 6.855 19.415 15.004.91.815.383 1.39-.431.528-1.342-.191M236.237 118.262q5.465.192 8.773-1.486 3.212-1.534 4.746-4.745 1.534-3.308 3.691-4.315 2.205-1.102 6.376-.431 3.307.527 5.608-.48 2.206-1.054 3.308-3.355 1.438-3.212 3.404-3.068 2.061.191 2.588 3.787 1.774 12.368-2.205 23.202-4.506 12.224-15.052 17.113-5.561 2.59-5.992 8.773l-1.295-3.26q.623-2.684 2.205-4.41 1.486-1.678 4.219-2.924 9.875-4.794 13.95-16.251 3.403-9.492 2.445-22.147-.144-1.726-1.055-1.726-.959-.048-1.582 1.582-2.54 6.567-10.546 5.273-3.116-.527-5.13.48-1.917.91-3.116 3.355-1.63 3.5-4.985 5.273-3.404 1.774-9.156 2.014l-1.199-2.254M179.143 19.51q-2.684 6.808-9.683 13.327-6.52 6.088-8.725 12.129-2.157 6.04-.191 12.511 2.253 7.287 1.39 10.93-.767 3.452-5.225 6.951-5.178 4.027-5.753 9.875-.48 4.938 2.253 9.109l-2.349.862q-2.972-4.554-2.253-10.258.815-6.568 6.52-11.218 3.787-3.164 4.602-6.471.815-3.5-.911-9.3-2.205-7.479-.096-13.423 2.11-6.136 9.683-13.039 5.513-5.081 8.437-12.128 2.877-6.951 2.877-15.196 0-3.596 1.773-4.123 1.678-.527 3.164 2.061 5.897 9.78 6.376 23.442.431 13.854-5.081 23.393-2.925 4.89-2.973 9.876-.047 5.656 3.788 9.108 5.512 4.89 7.43 10.978 1.965 6.231-.432 12.607l-2.3-.527q2.157-5.465.623-10.93-1.63-5.657-6.951-10.642-4.363-4.075-4.315-10.115.048-5.513 3.548-11.313 4.89-8.198 4.458-22.052-.432-13.71-5.705-23.106-.719-1.246-1.15-.958-.432.24-.432 2.3.048 9.157-2.397 15.34M25.311 85.713q11.697-3.116 21.093-.432 12.128 3.5 19.031 16.443 2.493 4.554 7.335 5.657 3.643.91 10.114-.048 19.128-2.589 29.674 7.766 3.787 3.739 5.321 8.101 1.342 3.883.144 5.465-.767 1.15-2.972 1.103-2.445-.048-4.459-1.774-3.068-2.589-5.944-2.924 3.452 5.704 4.602 11.936.528 3.02-.623 3.931l-2.445-.096q-1.342-.767-3.451-1.39l-3.787-.767q2.732 4.506 4.122 9.78.863 3.26-.527 4.505-1.294 1.15-5.177 1.15-8.917 0-15.772-4.41-8.533-5.464-10.69-16.442-.623-2.972-3.26-4.842-2.54-1.725-6.376-2.061-9.06-.767-12.943-4.842-3.547-3.69-8.485-16.682-1.821-4.938-5.608-8.629-3.788-3.739-8.773-5.513-2.493-.91-2.685-2.588-.191-1.678 2.541-2.397m.911 3.355q10.834 3.116 15.292 15.1 3.835 10.355 8.102 14.91 4.602 4.937 11.792 5.512 5.897.528 8.15 2.11 2.3 1.677 3.212 6.136 1.725 8.437 9.923 14.237 7.334 5.225 14.62 5.225 3.069 0 3.836-.719.623-.67.096-2.684-1.582-5.849-4.459-10.499-.479-.767-.287-1.102.144-.24 1.006-.336l4.65.623q3.02.72 4.602 1.582l.767.048q.24-.431 0-1.965-1.342-7-5.081-12.704-1.055-1.438.72-1.438 3.738 0 8.149 3.26 1.917 1.438 3.403 1.678 1.246.192 1.918-.575.67-.72-1.007-4.027-1.966-3.74-5.513-6.951-10.45-9.396-27.133-7.143-7.142.959-11.313-.192-5.081-1.486-7.862-6.615-6.663-12.416-19.75-15.532-9.108-2.157-18.408.336-1.103.335-1.007.767.096.527 1.582.958M221.808 200.86q-4.794 5.08-13.087 8.1-8.293 3.02-18.025 3.213-13.326.335-25.598-4.794-12.033-5.034-20.853-14.334-9.013-9.491-13.04-21.763-4.266-13.04-2.157-27.325l2.206 1.438q-1.63 12.704 2.157 24.592 3.691 11.601 11.888 20.662 8.342 9.204 19.75 14.141 11.985 5.321 25.647 5.13 9.252-.048 17.066-2.829 7.67-2.636 12.033-7.19l2.013.958"/><path fill="#0f141b" d="m158.818 164.043 1.726 1.007q1.15 8.34-1.439 14.285-2.54 5.753-7.334 6.04-7.095.432-9.923-11.313-2.828-11.553 1.534-20.565l1.294 1.054q-3.547 7.958-1.054 18.504 2.54 10.69 8.053 10.307 3.931-.24 6.088-6.04 2.253-5.849 1.055-13.279"/><path fill="#0f141b" d="M151.1 165.817q.815-.048 1.342.863.527.91.575 2.157.096 1.534-.431 2.54-.48 1.007-1.39 1.007-.72.048-1.15-1.054-.48-1.055-.48-2.35-.048-1.342.431-2.252.384-.863 1.103-.911M66.49 147.648q5.32 10.738 13.183 16.155l.479.72q0 .43-.623.575-7.526 2.109-16.3 3.5l-16.346 1.485q10.02 10.355 20.374 15.58l-2.829.767q-10.402-5.465-20.47-16.73-.622-.623-.383-1.055.144-.431.96-.431l15.675-1.295q8.964-1.198 16.25-3.068-7.478-4.985-12.175-17.257-.384-.863 0-1.15l1.054.143q4.458 2.013 10.69 3.356 6.184 1.39 10.355 1.198l2.493 1.534q-4.842.336-11.457-.815-6.52-1.198-10.93-3.212"/><path fill="#0f141b" d="M67.448 198.51q10.26 4.794 18.936 5.178l-1.534 1.342q-9.588-.863-19.846-5.849-10.69-5.273-14.526-11.409-.431-.67-.143-1.006.191-.384.815-.336 9.3.288 17.018-1.774 1.246-.335 1.39.192.144.527-1.007.863-7.478 2.589-15.58 2.445 4.219 5.56 14.477 10.354M117.735 173.055l-8.629.671q-4.266.528-8.053 1.487-1.15.287-1.294-.192-.144-.528.719-.815 3.403-1.247 8.485-2.11l8.437-.766q1.294 0 1.39.862.048.815-1.055.863M123.632 188.06l-7.24.383-6.567.815q-1.246.192-1.342-.383-.048-.623.767-.863 6.711-2.013 14.382-2.205 1.486-.048 1.534 1.15.047 1.103-1.534 1.103M137.102 197.887q-1.87 1.438-5.657 2.589-3.451 1.102-5.512 1.102-.96 0-1.055-.527-.096-.527.671-.671 2.637-.48 5.513-1.678 2.828-1.246 4.554-2.589l1.917-.048q.815.911-.431 1.822M102.827 202.729q4.17 1.246 7.718 3.595 3.355 2.397 5.704 5.465.815 1.007.336 1.342-.48.288-1.247-.623-4.937-6.04-14.381-8.437-1.198-.288-.527-1.39 2.253-3.452 8.724-4.554 6.664-1.15 10.45 1.774 1.055.767.672 1.15-.336.431-1.39-.288-2.925-2.013-8.246-1.294-5.32.671-7.813 3.26"/><path fill="#0f141b" d="M125.31 237.675q-6.04-2.205-11.266-5.225-.72-.431-.384-1.294l1.582-3.212q1.007-1.582 2.397-2.684-1.821-1.87-5.225-2.637l-6.663-.336q-1.007.144-1.007-.91.144-2.78 3.116-6.328 2.78-3.26 5.992-5.034l1.055 1.295q-2.589 1.246-4.986 3.883-2.492 2.732-3.02 5.081 3.74-.288 7.479 1.15 3.595 1.39 5.512 3.692.528.623-.143 1.054-2.829 2.062-4.267 5.082 4.17 2.732 10.259 5.369 1.006.431.863.959l-1.295.095"/><path fill="#0f141b" d="M103.258 201.578q-8.725-.527-15.148 2.445-6.472 3.02-9.732 9.252-3.787 7.047-7.814 9.348-4.218 2.397-9.252-.192-6.136-3.068-12.847 1.247-6.999 4.41-8.629 13.278-.287 1.678 1.63 0 3.883-3.499 8.437-3.835 5.034-.431 10.547 3.02 11.121 7 20.038 7.766 9.06.72 13.47-5.177 4.89-6.52 9.971-8.629 4.842-2.013 11.313-.48l-.719 2.062q-5.8-1.342-10.258.623-4.315 1.87-8.917 7.575-10.93 13.326-35.81-2.301-4.889-3.068-9.874-2.445-4.123.48-7.191 3.26-1.822 1.677-3.164 1.246-1.438-.48-1.103-2.876 1.343-10.02 9.157-14.861 7.478-4.746 14.62-1.15 3.931 2.013 7.766-.192 3.931-2.157 7.047-8.198 3.835-7.334 11.553-10.642 7.479-3.164 17.21-1.965l-2.301 1.821"/><path fill="#0f141b" d="M94.773 250.379q-.096-.384.527-.91 4.17-3.26 7.67-9.013 3.74-6.088 3.787-10.307l1.439-.191q-.048 4.602-3.02 10.162-2.877 5.37-7.095 9.156 4.362.192 9.827-1.006 5.177-1.15 9.108-3.02l1.007-.096q.335.24.096 1.006-3.5 12.08-8.63 18.84 4.411.431 10.691-.815 6.376-1.198 10.546-3.356l1.007-.048q.288.288.192 1.007-2.157 12.224-5.945 18.36 5.465-.815 12.273-4.218 6.04-3.02 9.779-6.28.431-.431.767-.24.383.24.287.863-.862 7.143-3.69 10.69 4.362-1.054 8.964-3.451 4.506-2.35 8.005-5.178l-.24 2.445q-3.93 3.116-9.108 5.465-5.273 2.35-10.114 3.116-.96.192-1.199-.287-.144-.48.527-1.055 1.822-1.678 2.925-4.17.862-2.014 1.582-5.13-4.267 3.452-10.595 6.184-6.711 2.924-12.128 3.404-.719.095-.91-.24-.24-.432.143-1.055 4.123-6.136 6.328-17.64-4.746 2.108-11.314 3.02-6.183.814-10.546.239-.67-.144-.815-.527-.096-.432.24-.863 4.842-5.897 8.437-17.402-4.314 1.774-9.971 2.733l-9.923.335q-.72-.096-.911-.527"/><path fill="#0f141b" d="M158.722 286.236q7.047-.383 18.84-6.855 10.546-5.752 17.64-12.128 1.103-.91 1.439.336 1.582 4.89 1.246 9.875 4.219-4.123 7.622-9.06 3.5-4.986 5.37-9.396.479-1.103 1.006-.911.48.192.048 1.39-1.918 5.321-6.184 11.41-4.362 6.327-8.82 10.018-.72.624-1.151.384-.384-.336-.144-1.103 1.294-4.314-.431-10.402-7.622 6.663-18.025 12.08-12.368 6.52-20.278 6.28-1.054-.048-1.246-.431-.096-.336.527-1.103 2.397-2.876 4.027-7.335 1.438-4.17 1.63-7.957.096-1.342.623-1.342t.527 1.342q.048 3.835-1.006 7.766-1.15 4.218-3.26 7.142"/><path fill="#0f141b" d="M220.85 260.542q-2.59 7.095-3.74 11.6-.24.912-.815 1.055-.623.096-1.006-1.006-2.158-5.993-4.938-10.834l.863-1.63q2.78 4.937 4.842 10.067 1.294-5.37 3.116-10.738l1.677 1.486"/><path fill="#0f141b" d="M231.587 245.729q1.726 6.376 1.534 12.656-.143 4.89-2.109 6.04-1.678.91-5.465-.623-4.937-2.014-11.073-7.287-5.897-5.081-8.437-9.252-2.397-3.93-1.63-8.006.815-4.41 5.273-7.574 3.883-2.78 8.197-2.349 4.746.432 8.102 4.794 3.69 4.698 5.608 11.601m-20.613-12.32q-3.355 2.301-4.218 5.8-.911 3.596 1.198 7.047 2.637 4.363 8.197 9.204 5.61 4.938 10.02 6.664 2.924 1.198 3.978.48 1.15-.768 1.247-4.315.143-5.561-1.486-11.266-1.87-6.663-5.705-11.553-2.78-3.547-6.568-3.93-3.451-.336-6.663 1.869"/><path fill="#0f141b" d="M231.06 246.784q.767 2.349 2.876 4.746 2.014 2.348 4.267 3.69l.719.864q0 .431-.767.623l-5.849.431-.095-1.678 4.074.144q-2.972-1.965-4.65-4.89l-.575-3.93"/><path fill="#0f141b" d="M233.553 224.11q.91 5.464 3.691 13.182 2.685 7.526 5.13 11.745.862 1.438-1.007 1.438-2.11 0-5.13-1.103-2.876-.958-5.417-2.492l-.431-1.966q1.965 1.199 4.794 2.205 2.492.911 4.746 1.342-2.397-4.697-4.794-12.08-2.445-7.43-3.26-12.703l1.678.431"/><path fill="#0f141b" d="M250.187 226.746q-.096.48-1.15.575l-8.917-.72q-5.752-1.054-8.964-2.875-1.103-.672-.863-1.055l1.39.048q3.212 1.39 7.383 2.205l7.718.767q-3.212-3.02-7.287-9.54-4.075-6.423-5.704-10.881l1.821.527q1.822 4.842 6.136 10.978 4.123 5.848 7.718 8.82.815.72.72 1.15M139.067 236.908q-2.636 6.137-3.547 12.56-.863 6.136-.096 11.361.623 4.075 2.253 4.363 1.39.192 5.657-2.445 4.41-2.733 8.341-7.67 3.883-4.842 5.705-9.684 1.342-3.595 0-6.807-1.486-3.5-5.753-5.273-4.075-1.63-7.67-.671-3.547 1.055-4.89 4.266m-2.013-.91q1.774-4.219 6.472-5.465 4.362-1.103 9.06.767 5.033 2.061 6.903 6.184 1.726 3.93.048 8.485-1.822 4.937-6.28 10.21-4.314 5.13-9.012 8.054-5.321 3.356-7.622 2.637-2.11-.72-3.02-5.8-1.007-6.089.383-13.999 1.055-6.471 3.068-11.073M110.736 277.847l-16.922-2.588 1.007-2.637 15.292 2.301.623 2.924M56.854 180.294q-14.141 7.382-31.59 23.969Q7.717 220.8 4.026 230.293q-2.35 5.944-1.438 9.444.958 3.883 6.375 7.19 9.971 6.04 27.996 11.937 17.21 5.657 38.734 10.163l-.336 2.828q-21.476-4.458-38.59-10.115-18.504-6.088-29.242-12.751-5.944-3.74-7.19-8.293-1.247-4.363 1.438-11.122 3.835-9.875 20.277-25.838 16.97-16.539 32.886-25.024l1.917 1.582M144.532 280.963l-13.854-.958 6.04-2.397 9.444.431-1.63 2.924M154.791 278.23l6.472-.095-.863 3.02-11.697-.048 6.088-2.876M182.787 277.32q-1.007 3.787-3.548 8.102-2.684 4.554-4.554 4.985-1.198.24-3.835-1.15-2.493-1.343-5.13-3.596l1.87-.91q1.487 1.438 3.356 2.636 2.301 1.39 3.356 1.198 1.15-.287 3.164-3.5 2.061-3.307 3.26-6.854l2.06-.911"/><path fill="#0f141b" d="M70.708 200.907q-4.937 9.588-6.423 21.524l-1.966-.383q1.63-12.224 6.711-21.86l1.678.72M64.14 239.497q.96 8.581 3.932 15.724 3.164 7.574 8.34 12.607l-.718 2.158q-6.088-5.513-9.684-14.142-3.307-8.006-4.17-17.737l2.3 1.39M52.827 181.3Q37.583 197.744 33.7 220.13q-4.266 24.544 8.677 41.61l-3.068-.767q-11.649-15.82-8.006-39.213 3.404-21.716 17.546-38.254l3.978-2.205M255.125 222.815q-3.164-7.047-7.574-9.54-4.123-2.349-9.444-.959l-1.103-2.109q7.383-1.726 12.272 1.726 4.075 2.876 7.335 10.115.959 2.205 2.78 3.26 1.726 1.054 4.746 1.198 7.047.383 10.546 4.075 3.452 3.739 4.171 11.409.336 3.356-1.103 4.123-1.342.719-3.26-.96-4.745-3.978-9.347-4.745-4.41-.671-9.108 1.534-4.698 2.253-9.492 2.637-5.081.383-8.293-1.63l-.815-2.733q2.78 2.35 8.101 2.445 5.273.048 9.875-2.205 10.26-5.034 20.086 3.212 1.103 1.006 1.486.623.432-.288.24-2.205-.575-6.28-3.355-9.636-3.26-3.835-9.828-4.218-3.212-.192-5.033-1.055-2.493-1.246-3.883-4.362M123.871 287.435q2.733-3.116 4.602-6.807l2.493-.671q-2.061 4.41-5.513 8.389-3.643 4.122-5.752 4.17-3.116.048-7.479-8.58-4.266-8.39-3.5-11.793 1.056-4.315 8.486-4.602 7.047-.336 11.984 2.78l-.91 1.966q-3.836-2.493-10.02-2.685-6.471-.192-7.238 2.972-.623 2.493 2.972 10.259 3.643 7.814 5.705 7.814 1.39 0 4.17-3.212"/><path fill="#0f141b" d="M89.308 281.922q-6.999 6.184-10.69 5.034-3.643-1.055-4.314-10.067-.624-8.917 2.3-11.697 3.26-3.164 11.122-1.007 8.054 2.205 8.341 7.047.336 4.458-6.759 10.69m-2.397-15.58q-6.52-1.725-8.868.48-2.11 2.013-1.774 9.731.384 7.862 3.02 8.629 2.924.863 8.773-4.602 5.896-5.609 5.656-9.252-.191-3.212-6.807-4.986"/></svg>