<svg xmlns="http://www.w3.org/2000/svg" width="550" height="454" viewBox="-0.328 -1.806 550.423 453.779"><path fill="#c40018" d="M428.222 1.915q-21.78 15.816-31.521 38.417-9.796 22.875-8.373 54.56 1.313 27.418-4.87 49.199-20.906-13.9-55.875-19.866-33.382-5.69-63.973-1.86V100.53l15.98-21.617q9.303-18.99 27.471-35.133 16.8-14.885 38.964-25.392Q367.04 8.263 388.93 3.94q21.67-4.323 39.292-2.025"/><path fill="#ea6c1a" d="M263.61 138.016v-15.651q30.591-3.83 63.973 1.86 34.97 5.965 55.874 19.866-6.348 22.273-20.138 37.65-14.612 16.199-37.05 23.97l-62.66-67.695"/><path fill="#ea6c1a" d="M470.58 205.71q16.198 11.384 38.088 20.03 19.92 7.771 35.462 9.96 1.915.274 1.805.985-.109.602-1.97.985-26.924 5.527-54.998 17.348-27.746 11.602-45.914 24.845-19.81 14.502-42.029 19.646-23.203 5.309-35.79-3.228l-22.492-10.398L316.31 213.7l9.96-7.99q6.895-1.751 16.8-7.607 10.89-6.457 16.746-13.189 27.308-7.825 56.476-2.298 29.169 5.472 54.287 23.094"/><path fill="#ea6c1a" d="M367.86 301.425q5.145 12.75 7.99 32.068-13.462 18.826-41.098 29.169-22.109 8.154-47.72 9.412l38.91-93.36 26.924 3.338q8.865 4.269 14.995 19.373"/><path fill="#c40018" d="M381.925 391.775q3.448 8.483 9.522 14.01 14.447 13.134 32.944 3.065.712-.383 1.26 0 .546.328.109 1.04-6.841 11.437-23.423 17.73-16.855 6.458-37.54 5.2-22.548-1.424-43.452-11.767-23.477-11.601-41.044-32.999l6.731-15.98q25.611-1.258 47.72-9.412 27.636-10.343 41.099-29.169 2.955 20.303 2.736 41.537-.11 8.537 3.338 16.745M107.26 364.906q-.71-10.289 1.697-21.07 2.353-10.507 7.443-20.467 9.194 10.672 19.372 17.567 11.328 7.662 22.492 9.686l.876 64.028q-16.965 11.164-44.71 10.398-12.532-.383-22.273-3.666-10.289-3.448-14.776-9.358 16.636-2.955 24.024-14.502 7.443-11.602 5.856-32.616"/><path fill="#ea6c1a" d="M116.4 323.37q5.472-10.781 13.462-19.811 8.045-9.14 17.676-15.159l9.905 1.314.821 60.908q-11.164-2.024-22.492-9.686-10.178-6.895-19.372-17.567"/><path fill="#ea6c1a" d="M138.07 189.786q4.105 4.214 13.627 9.139 8.154 4.214 14.01 5.91l-1.806 77.272-16.363 6.293q-2.681 1.314-5.8 3.776-2.737 2.134-4.762 4.323-18.332 7.826-45.038-2.407-25.283-9.632-39.457-27.363-8.81-11-21.452-19.482-12.04-7.99-26.87-13.243-2.189-.767-2.189-1.26-.055-.546 2.244-1.039 12.422-2.627 25.392-8.427 16.09-7.224 24.462-16.035Q69.61 190.826 95.112 185.9q24.735-4.815 42.959 3.886"/><path fill="#c40018" d="m228.75 119.629-7.005 7.606Q195.423 133.42 172 142.558q-30.755 11.93-50.182 26.706-7.607-13.845-10.453-31.248-2.9-18.223-.328-38.8 2.9-22.601-6.02-44.217-9.522-23.04-29.059-35.298 25.228-1.697 51.77 7.224 24.188 8.208 46.242 24.079 20.686 14.885 35.407 33.382 14.557 18.278 19.373 35.243"/><path fill="#fff" d="M216.765 121.599q8.209-2.627 19.1-2.408 24.297.492 42.74 12.368 24.133 15.487 35.735 38.307 4.487 8.92 8.099 20.74 1.587 5.145 5.582 20.96 2.517 9.741 4.378 14.229 3.393 8.318 8.975 13.572 2.955 2.79 5.855 7.333 2.791 4.432 3.503 7.388-2.627-1.587-5.692-1.587 1.587 2.681 2.572 5.308l-3.776-.547q2.9 2.79 5.692 7.77 2.846 5.035 3.502 8.538-1.423-.712-4.597-1.314 2.354 3.776 3.94 8.264 1.697 4.925 1.97 9.467-1.97-.164-4.87-1.313-3.338-1.314-5.472-3.174 1.915 4.268 4.05 5.91-4.871 0-11.876-2.463-7.278-2.626-12.75-6.457 1.422 9.905 1.039 18.88-2.025-3.721-5.144-7.771.492 6.293.164 15.159-.274 8.537-1.15 13.572-4.596-5.09-8.591-8.1l.602 5.582q.438 2.955 1.204 5.254-3.722-1.806-8.373-5.637-5.09-4.104-8.373-8.373.164 4.05.93 9.741-5.8-2.353-14.064-10.562-8.482-8.482-11.82-15.487-.329 2.572-.274 6.403.11 3.886.602 6.731-4.488-2.79-8.428-10.288-4.542-8.647-5.746-19.044-2.025 10.671-10.89 22.382-8.592 11.383-18.388 16.965.22-3.94-.164-9.084-4.214 5.69-10.015 10.726-6.676 5.855-11.82 7.333-2.408-4.597-4.433-13.08-2.189-9.357-1.915-15.924-1.368 3.174-2.299 6.621-.875 3.448-.875 5.801-1.642-3.721-2.19-9.96-.656-6.457.329-11.547-1.423 2.736-2.846 6.458-1.532 4.05-2.134 7.114-1.751-4.706-2.08-8.318-3.01 3.83-7.716 7.169l2.135-5.746 1.477-4.98q-9.631 14.338-21.452 18.333 1.04-1.752 1.86-4.433l1.04-4.105q-3.776 2.737-7.825 6.294-4.98 4.268-7.716 7.497-1.423-9.85.328-15.76-3.01 2.954-3.995 4.323.711-11.985 5.8-19.866-4.213 2.135-5.362 3.01 0-2.408 1.477-5.8 1.587-3.558 3.612-5.528l.93-2.462q-2.736 2.08-6.457 2.9 3.393-9.084 6.074-12.86-4.87 1.149-7.497 2.627 2.244-5.582 7.005-11.329 5.582-6.895 11.328-9.303.985-16.253 2.463-28.95 2.955-24.242 9.248-34.859l31.74-50.73q3.448-5.199 11.985-7.88"/><path fill="#d5ecea" d="m180.702 295.46-2.135 5.746q4.707-3.338 7.717-7.17.328 3.613 2.08 8.319.601-3.065 2.133-7.114 1.423-3.722 2.846-6.458-.985 5.09-.328 11.547.547 6.239 2.189 9.96 0-2.353.875-5.8.93-3.448 2.299-6.622-.274 6.567 1.915 15.924 2.025 8.483 4.433 13.08 5.144-1.478 11.82-7.333 5.801-5.035 10.015-10.726.383 5.144.164 9.084 9.796-5.582 18.388-16.965 8.865-11.711 10.89-22.382 1.204 10.397 5.746 19.044 3.94 7.497 8.428 10.288-.493-2.845-.602-6.731-.055-3.83.273-6.403 3.339 7.005 11.821 15.487 8.263 8.21 14.064 10.562-.766-5.691-.93-9.74 3.283 4.268 8.373 8.372 4.651 3.83 8.373 5.637-.766-2.299-1.204-5.254l-.602-5.582q3.995 3.01 8.592 8.1.875-5.035 1.149-13.572.328-8.866-.164-15.159 3.119 4.05 5.144 7.77.383-8.974-1.04-18.88 3.94 2.737 9.084 4.98 4.269 43.726-19.099 73.113-18.77 23.532-55.272 37.596-18.88 7.17-38.526 17.13-25.72 12.914-32.069 20.904l-15.159-8.428q-13.571-9.795-24.297-32.835-10.343-22.218-11.11-41.153-.547-14.392 1.97-27.198 2.682-13.736 8.756-24.407-.602 5.363.384 11.875 2.736-3.229 7.716-7.497 4.05-3.557 7.825-6.294l-1.04 4.105q-.82 2.681-1.86 4.433 11.82-3.995 21.452-18.333l-1.477 4.98"/><path fill="#525557" d="M174.737 299.619q3.776-3.776 7.442-9.14l-1.477 4.98-2.135 5.747q4.707-3.338 7.717-7.17.328 3.613 2.08 8.319.601-3.065 2.133-7.114 1.423-3.722 2.846-6.458-.985 5.09-.328 11.547.547 6.239 2.189 9.96 0-2.353.875-5.8.93-3.448 2.299-6.622-.274 6.567 1.915 15.924 2.025 8.483 4.433 13.08 5.144-1.478 11.82-7.333 5.801-5.035 10.015-10.726.383 5.144.164 9.084 9.796-5.582 18.388-16.965 8.865-11.711 10.89-22.382 1.204 10.397 5.746 19.044 3.94 7.497 8.428 10.288-.493-2.845-.602-6.731-.055-3.83.273-6.403 1.752 3.667 5.528 8.428-4.324 15.87-20.413 37.049-13.681 18.004-28.402 30.864-12.094 10.672-24.462 31.905-13.681 23.641-17.348 43.835-.602 3.666-2.462 3.612-1.697-.055-2.9-2.682-11.93-27.144-14.831-68.023-3.338-47.775 10.179-80.117M182.89 216.437q3.667.492 7.771 4.597 4.378 4.378 6.403 10.014.712 2.244-.985 2.463-5.691.657-10.397-.11-5.856-.93-8.483-3.994-3.666-4.269-1.587-9.03 2.08-4.652 7.279-3.94M178.84 259.998q-6.238-2.299-5.526-9.03.656-6.676 7.278-7.06 4.378-.328 9.303 3.339 4.324 3.338 6.896 7.935 1.149 2.19-.657 3.12-3.612 1.915-8.81 2.462-5.2.493-8.483-.766M255.292 216.492q4.87-4.707 9.193-6.622 6.732-3.065 11.383 2.298 4.488 5.254 1.15 10.508-2.518 3.994-11.11 6.402-7.99 2.244-15.213 1.642-5.254-.547-2.244-5.965 2.189-3.83 6.84-8.263M279.863 243.854q2.463 2.08 3.229 5.527.766 3.339-.493 6.458-1.423 3.338-4.706 4.98-4.87 2.298-13.955.711-8.92-1.532-13.736-5.253-1.587-1.204-1.477-2.682.109-1.423 1.915-2.846 4.706-3.557 11-6.074 6.512-2.572 11.766-2.955 3.72-.22 6.457 2.134M142.504 68.79q2.462-.384 4.487 2.79 1.97 3.065 2.244 7.279.438 5.034-.985 8.263t-3.886 3.393q-2.462.11-4.597-3.338-2.189-3.557-2.408-8.154-.218-3.776 1.204-6.786 1.423-3.12 3.94-3.448M147.21 132.544q1.751-.165 3.01 1.86 1.149 1.916 1.368 4.816.11 2.791-.876 4.98-1.04 2.19-2.736 2.19-1.696 0-2.9-2.08-1.204-1.916-1.368-4.707-.22-3.229.875-5.144.93-1.751 2.627-1.915M117.385 213.427q2.572-.492 5.035 1.86 2.736 2.682 4.05 7.607 1.477 5.254.656 9.687-.876 4.268-3.393 4.98-2.682.82-5.527-1.751-3.12-2.737-4.378-7.717-1.368-5.034-.383-9.522 1.094-4.542 3.94-5.144M138.509 246.426q.985 1.314 1.258 3.393.274 1.806-.602 3.502-.82 1.697-2.298 1.916-1.587.219-2.736-.876-1.15-1.149-1.423-3.447-.274-2.025.602-3.776.875-1.752 2.298-1.97 1.697-.22 2.9 1.258M366.274 69.118q.711 3.119-.165 7.442-.875 4.16-3.447 6.84-2.518 2.682-4.816 2.026-2.134-.548-2.572-4.488-.438-3.448.492-7.388.93-3.557 3.065-5.855 2.244-2.463 4.597-2.135 2.025.274 2.846 3.558M334.205 79.406q2.189.93 2.846 4.925.602 3.83-.493 8.264-1.204 4.706-4.05 7.716-2.79 2.955-5.144 2.298-2.025-.657-2.9-5.035-.876-4.542.328-9.139 1.15-4.542 3.94-7.278 2.791-2.791 5.473-1.751M341.647 139.275q1.861.766 2.408 2.955.548 2.08-.328 4.542-.876 2.353-3.01 3.612-2.08 1.204-3.557.547-1.642-.711-2.298-2.845-.712-2.354.109-4.98.657-2.08 2.955-3.339 2.134-1.149 3.721-.492M385.975 208.885q2.681.657 3.83 4.433 1.15 3.666.274 8.318-.93 5.418-4.16 8.482-2.954 2.955-6.074 2.08-2.9-.712-3.994-5.09-1.04-4.214 0-8.92.93-4.542 3.994-7.333 2.956-2.736 6.13-1.97M371.856 249.764q1.149.767 1.258 2.572.164 1.752-.711 3.558-.876 1.75-2.408 2.517-1.532.82-2.791.219-1.15-.547-1.478-2.353-.273-1.861.548-3.612.82-1.86 2.517-2.736 1.751-1.04 3.065-.165M149.125 347.558q1.587 0 2.518 1.806.82 1.696.711 4.378-.11 2.572-1.204 4.159-.985 1.532-2.572 1.532-1.532 0-2.408-1.751-.82-1.697-.93-4.597-.11-2.025 1.094-3.776 1.15-1.751 2.791-1.751M128.056 380.119q2.025-.274 3.831 1.86 1.86 2.19 2.408 5.747.492 3.338-.438 5.965-1.04 2.955-3.338 3.338-2.299.383-4.16-1.86-1.805-2.19-2.298-5.637-.547-3.338.602-6.184 1.259-2.955 3.393-3.229M265.033 360.254q1.094 1.532-.165 4.159-1.313 2.463-3.776 4.269-2.572 1.86-5.198 2.243-2.682.383-3.612-.985-1.204-1.696 0-4.214 1.149-2.407 3.83-4.323 2.299-1.642 5.145-1.97 2.79-.383 3.776.82"/><path fill="#525557" d="M220.213 393.746q.711 1.149-.164 2.845-.93 1.751-3.12 3.01-1.86 1.15-4.05 1.259-2.079.164-2.571-.657-.657-1.204.383-2.955 1.04-1.806 3.174-3.065 1.97-1.149 3.94-1.204 1.86-.054 2.408.767M160.508 391.447q1.313 1.15 1.806 2.846.547 1.86.11 3.447-.384 1.642-1.533 1.97-1.477.438-2.736-.71-1.259-1.04-1.751-2.956-.548-1.915-.164-3.393.328-1.642 1.641-1.97 1.314-.383 2.627.766M353.577 344.055q2.627.329 3.831 3.393 1.04 2.627.602 6.786-.438 4.707-3.01 7.826-2.681 3.229-5.636 2.517-2.791-.766-3.831-4.159-.93-3.065-.383-7.552.492-3.885 2.955-6.512 2.517-2.682 5.472-2.299M344.93 384.552q1.916.219 2.956 2.572.93 2.189.712 5.253-.22 3.339-1.916 5.473-1.751 2.189-3.885 1.86-1.861-.218-2.846-2.407-.985-2.19-.82-5.528.109-3.064 1.86-5.308 1.75-2.134 3.94-1.915"/><path fill="#38393a" d="m149.399 312.48 7.278-6.568q.876 3.83-.492 7.333-1.368 3.667-3.886 3.94-1.313.11-2.134-1.422-.82-1.423-.766-3.284"/><path fill="#525557" d="M290.644 318.006q1.642 1.204 5.09 2.791-.493-2.353-.603-5.417l3.393-.438 2.791 2.9q-.11 4.925-4.925 8.1-4.816 3.173-7.388.273-1.094-1.204-.602-3.721.547-2.463 2.244-4.488"/><path fill="#ea6c1a" d="M165.871 203.85q-13.79-3.01-25.119-11.93-11.437-8.92-18.934-22.656 19.427-14.776 50.182-26.706 23.423-9.139 49.745-15.323L173.04 180.21q-4.87 10.234-7.169 23.641"/><path fill="#fff" d="M298.36 147.593q2.517-4.98 7.169-9.194 4.98-4.542 10.671-6.512-1.806 4.597-3.01 10.452-1.368 7.06-1.04 12.478 5.364-2.135 8.428-5.09-.547 3.503-2.08 7.115-1.531 3.72-3.72 6.676 3.72.383 6.567-.11-3.831 5.582-7.06 7.662-3.01-6.567-7.388-13.08-4.651-7.004-8.537-10.397"/><path fill="#dcdddd" d="M143.27 264.321q3.393-3.447 8.263-7.607 5.473-4.596 8.373-6.074-1.368 4.433-4.05 11.054-2.9 7.17-4.706 10.289-2.572 1.587-6.567 3.228 2.791-7.99 5.746-13.407l-3.612 1.15q-1.86.601-3.447 1.367M152.901 278.221q.876.712 0 2.025l-2.134 2.134q-4.378 2.135-6.02 3.667.985-1.97 2.846-4.269 2.025-2.462 3.612-3.611l1.696.054M163.627 300.55q-3.228 2.133-7.716 5.91-4.816 4.049-8.044 7.497-.93-8.537.437-15.542l-4.104 4.159q1.532-4.16 4.706-8.264 3.612-4.706 7.388-6.73-1.86 5.143-1.532 10.452 4.104-3.722 12.204-7.17.602 4.324.328 6.404 4.378-2.627 8.81-6.349 5.2-4.542 7.662-8.318-.273 4.105-1.313 6.95-3.776 7.279-10.672 12.86-5.746 4.707-11.547 6.677 1.369-2.025 2.299-4.542.876-2.244 1.094-3.995M181.687 293.106q3.83-5.034 5.034-13.517-.766 10.015-.328 14.338l-3.612 3.94-4.487 3.777q1.532-2.9 3.393-8.538"/><path fill="#dcdddd" d="M188.8 278.823q-.218 5.09.165 7.99 1.259-1.915 3.448-3.885l3.612-2.846q-.384 3.83.711 8.428 1.642-3.393 5.418-6.732.164 5.418 2.025 14.393 1.97 9.467 3.94 13.243 4.87-2.243 10.835-7.059 6.294-5.144 9.303-9.686 2.299 7.114 2.682 11.656 8.482-6.13 15.925-16.582 9.03-12.75 10.07-24.243 2.407 16.035-8.811 33.109-9.14 13.845-21.562 21.507.547-3.557.164-9.632-3.612 5.418-9.796 10.836-6.895 6.02-12.477 7.606-2.353-5.363-4.268-13.845-2.08-9.358-1.806-15.104-1.04 2.025-1.97 5.308-1.04 3.776-1.095 6.731-1.751-3.01-2.298-9.522-.548-6.402.328-11.93-4.652 9.304-5.035 13.791-2.243-5.527-2.024-16.363.273-11.71 3.666-17.402-.985 4.432-1.15 10.233"/><path fill="#dcdddd" d="M306.131 251.078q9.467 7.716 14.885 23.64 4.98 14.886 3.393 26.707-2.025-4.16-5.199-8.045.547 6.293.329 14.174-.22 8.482-1.26 14.94-5.91-6.403-8.427-8.154-.219 5.253 1.697 10.616-3.557-1.587-7.826-4.98-4.87-3.995-8.81-9.03 0 6.841.71 9.687-5.855-2.244-13.68-10.124-7.771-7.826-12.259-15.87-.383 8.81.493 13.353-3.831-1.423-8.592-11-4.925-9.905-5.527-18.442 1.04-3.448 1.587-8.592.656 5.035 2.517 10.726 1.642 5.144 3.393 8.373 1.259-7.279 3.393-11 2.463 6.622 8.428 14.502 5.472 7.17 10.014 10.562.985-5.91 2.682-10.616 2.517 4.377 6.786 9.357 4.213 4.98 7.442 7.443-.164-1.751-.164-4.761l.055-4.104q5.91 2.845 9.577 7.88 1.04-5.199.602-13.736-.383-8.428-1.916-13.9 5.418 2.79 8.154 5.91-.602-7.88-3.393-16.855-3.502-10.89-9.084-18.661"/><path fill="#dcdddd" d="M348.214 272.256q2.737 3.667 4.433 8.866 1.587 4.87 1.697 8.975l-4.707-1.478q-3.338-1.313-5.8-3.01 2.079 4.269 3.94 5.91-4.98-.109-11.383-2.298-7.552-2.627-13.298-7.005-1.751-8.646-4.269-13.243 2.518 4.378 8.92 8.975 4.16 2.955 8.483 4.98-.821-1.259-1.478-3.12l-.985-2.955q2.9 2.791 10.507 4.05-.602-3.065-2.627-7.17-2.08-4.158-4.487-7.004 3.502 0 7.06 1.204-5.528-15.05-14.12-23.915 19.1 15.214 23.313 30.044-.766-.438-5.199-1.806"/><path fill="#dcdddd" d="M333.439 244.073q4.925 2.955 7.442 5.363l-1.313-3.995q8.154 5.09 10.617 8.428-2.08-1.095-5.418-1.533.875.821 1.587 2.737l.985 2.9-3.503-.711q-4.706-6.513-19.591-17.622 3.448.876 9.194 4.433M315.927 131.832q-1.642 3.722-2.955 12.204-1.095 7.497-.985 11.492-1.533 1.15-3.393 1.095-1.697-.11-2.408-.93.328-4.543 3.228-11.93 3.12-7.881 6.513-11.93M317.952 158.21q-1.916 3.885-3.831 6.074.93.766 2.572 1.368l2.681.602-4.76 4.488q-1.478-3.667-4.05-7.443 2.243-1.696 5.253-5.746 2.955-4.05 4.214-7.06.164 3.01-2.08 7.717"/><path fill="#b8cccb" d="m294.912 310.947 3.23 3.83q-1.643.11-2.901.548l-.329-4.378"/><path fill="#b8cccb" d="M305.967 333.877q-7.224-7.99-9.522-7.826 4.706-4.105 4.98-8.264 5.527 4.707 10.124 7.17-.766-2.08-1.259-5.528-.438-3.064-.438-5.09 3.065 1.97 8.428 8.155 1.04-4.269 1.259-13.9.164-8.373-.329-15.214 2.572 2.791 5.2 8.045.382-2.737-.056-8.866-.383-6.512-1.258-10.343 4.487 3.284 9.084 5.144 2.517 24.517-2.736 42.522-4.378 15.323-16.035 30.7-9.631 12.642-26.158 22.875-15.597 9.632-41.92 19.756-14.064 5.472-32.67 15.76-19.865 10.891-25.338 16.91l3.503-10.069q14.83-11.054 40.715-25.283 20.686-11.382 35.626-18.168 10.671-4.761 22.437-14.174 13.408-10.836 21.671-22.71 2.244-3.23-5.308-11.602"/><path fill="#38393a" d="M296.445 326.05q-1.642-1.094-3.667-2.133l-4.05-2.025q1.04-2.518 2.135-3.776 2.736 1.915 4.816 2.681l-.438-5.472q1.258-.438 2.9-.547l3.284 3.01q-.165 2.517-1.533 4.706-1.313 2.298-3.447 3.557"/><path fill="#b8cccb" d="M148.852 385.318q9.74 18.06 19.153 23.75l2.025 9.96q1.204 5.528 2.244 8.483-13.243-8.756-24.407-32.288-10.89-22.93-10.562-39.675 2.9 13.517 11.547 29.77"/><path fill="#ca5d14" d="m360.965 184.368 5.801-.711q-1.532 6.348-12.696 15.542-12.149 10.124-25.502 14.01l-1.86-7.06q8.7-3.393 18.66-9.741 10.125-6.348 15.597-12.04M137.743 189.074q4.596 4.871 13.626 9.632 7.771 4.05 13.955 5.8l-1.314 8.593q-10.452-3.174-21.014-11.93-8.428-7.06-12.97-13.846l7.717 1.751"/><path fill="#a2000c" d="M92.923 421.6q-10.562-3.447-15.378-9.576 5.801 3.338 16.035 3.885 9.795.602 20.686-1.477 25.118-4.707 34.257-17.512 5.363 10.288 10.836 17.402-7.716 5.308-19.865 8.1-11.547 2.79-24.024 2.571-12.642-.164-22.547-3.392M370.597 424.391q33.875 3.284 55.053-14.173-12.04 15.104-32.506 20.303-18.826 4.706-41.263.383-21.616-4.16-40.88-15.487-19.7-11.657-31.247-27.636 14.83-8.1 25.228-18.06 6.676-.766 13.188-2.298-4.213 5.253-9.357 10.233-4.543 4.378-2.19 12.368 2.408 7.935 9.906 13.79 22.82 17.513 54.068 20.577"/><path fill="#ca5d14" d="M328.842 330.921q5.527-18.99 3.338-43.56 3.01 1.75 5.8 2.571l6.294 1.26q-3.064.82-4.378 4.487-.93 2.462-.875 5.089.383 19.975-4.543 36.118-5.144 16.691-16.308 30.537-6.512 1.532-13.188 2.298 17.402-16.472 23.86-38.8"/><path fill="#38393a" d="M174.955 224.81q-.437-3.229 1.752-6.02-.438 4.706 6.348 9.413 6.786 4.816 13.79 4.706-5.417 1.478-10.397.821-4.707-.657-7.88-3.065-3.175-2.517-3.613-5.855M173.697 248.232q1.094 4.433 8.92 7.333 7.826 2.791 14.83 1.368-2.79 2.846-8.263 3.831-5.473.876-10.015-.766-3.995-1.423-5.527-4.706-1.423-3.284.055-7.06M278.057 219.885q-.93 4.104-5.253 6.512-5.473 3.12-14.995 4.268-9.905 1.15-10.343-1.915 7.005.164 17.348-4.761 11.218-5.363 11.93-10.89 2.08 3.064 1.313 6.786M274.281 261.913q-6.676.985-15.815-1.641-10.07-2.791-9.85-7.115 5.526 4.105 18.606 3.393 13.298-.711 16.198-5.691.493 3.83-2.08 7.06-2.68 3.392-7.059 3.994"/><path fill="#b8cccb" d="M275.54 303.066q7.99 9.96 15.323 15.05-1.751 1.97-2.572 3.776-5.363-2.518-9.194-3.448l-9.249-.766q1.533-2.736 3.284-7.497l2.408-7.115M160.234 309.086q7.498-2.298 14.448-9.358l-2.244 6.622q-3.83 3.283-9.905 6.239-4.761 2.407-7.99 3.392 1.587-1.696 2.299-4.213.875-2.955 0-5.91 3.502-2.901 6.785-5.309-1.094 5.418-3.393 8.537"/><path fill="#dcdddd" d="M188.09 200.621q8.318 4.597 13.845 10.781 5.035 5.746 6.238 10.945.438 1.916 1.697 1.86 1.094-.054 1.915-1.586.985-1.916 1.368-9.632l4.816 6.95q.985 1.423 2.134 1.587 1.314.22 1.97-1.149 5.09-9.96 14.12-19.044-1.916 4.268-2.299 11.875-.328 6.403.438 10.015.383 2.244 1.696 2.025 1.369-.165 1.697-2.463 1.259-7.661 8.154-14.612 6.074-6.183 12.75-8.591-4.322 2.408-8.755 7.442-4.433 4.98-6.95 10.124-6.458 13.408-19.756 12.915-13.024-.383-20.631-13.298-4.542-7.661-14.448-16.144"/><path fill="#38393a" d="M180.373 306.514q-5.144-2.517-7.935-.164l2.244-6.622q4.76-4.76 7.77-10.179-1.75 6.786-3.94 11.711 1.697-.93 3.94-3.119l3.941-4.214q.274 4.16 1.915 8.428.548-2.846 2.19-7.005 1.477-3.721 2.845-6.348-.82 4.925-.328 11 .492 6.84 2.408 10.398-.055-2.956.93-6.95.985-3.612 2.025-5.473-.164 5.856 1.587 14.447 1.806 8.811 4.487 14.502 5.965-1.97 13.134-8.372 6.075-5.418 9.14-10.07.328 6.184-.165 9.632 6.403-3.831 12.04-9.577l.054-.164q6.13-6.458 11.164-14.721 4.323-7.662 6.239-14.83.492 4.65 2.298 10.178 1.86 5.692 4.488 10.288 3.666 6.294 7.333 8.702-1.15-5.746-.493-13.353 1.642 3.01 4.707 6.895l1.149 1.532-2.19 6.13-1.75 4.378-.11-.11q-5.637 12.094-14.94 25.01-10.507 14.72-22.492 25.61-18.497 17.184-31.083 37.487-14.12 22.711-18.497 46.243-.548 2.9-2.135 2.955-1.587 0-2.955-2.682-3.776-7.716-6.95-19.427-3.502-12.806-5.527-27.91 1.915 8.1 5.472 18.224 3.667 10.507 6.567 16.089 1.04 1.97 1.806 1.806.712-.164.93-2.135 2.025-19.591 7.498-36.008 5.855-17.403 16.089-32.452 6.622-9.741 6.458-20.14-.22-10.78-7.717-13.954-9.139-3.94-15.377-16.8-2.846-6.184-8.264-8.866"/><path fill="#0f141b" d="M230.118 120.559q-17.402 1.259-23.532 8.373l-4.104 2.134q3.284-9.796 23.586-12.532 20.303-2.736 37.432 4.214 27.417 11.273 42.193 31.084 14.612 19.482 22.766 54.889 2.353 10.179 4.542 15.925 2.627 7.004 6.403 11.054 9.577 10.398 12.313 18.442.273.93-.164 1.204l-1.04-.164q-1.806-1.313-4.05-1.751 1.368 2.244 1.97 4.268.438 1.369-.766 1.095l-3.612-.766-1.423-1.97 3.558.656q-.767-1.915-2.19-3.94-.437-.602-.273-.93.164-.328.876-.274 2.736.11 4.596.93-1.477-3.338-4.432-7.223l-6.84-7.99q-3.941-4.268-7.006-11.492-2.736-6.512-4.98-16.418-7.935-34.64-22.656-54.177-14.83-19.701-40.88-29.935-14.72-5.91-32.287-4.706"/><path fill="#0f141b" d="M323.588 239.421q.329-.492 1.642.274 9.632 6.13 17.567 14.94 9.358 10.398 11.328 19.482.219.93-.22 1.15l-1.094-.22q-1.587-1.04-3.83-1.806l-1.642-2.298q3.01.657 4.268 1.313-2.736-8.263-11.328-17.676-7.114-7.716-15.815-13.79-1.204-.93-.876-1.369"/><path fill="#0f141b" d="M347.23 270.067q3.83 3.503 6.074 10.18 1.642 4.705 2.189 10.123.164 1.204-1.15 1.095-1.532-.164-3.94-1.204-2.517-1.04-4.815-2.627 1.313 2.025 3.119 3.338.876.602.711 1.095-.164.492-1.258.492-5.309-.054-12.696-2.736-7.826-2.791-12.368-6.731l-.493-2.627q3.776 3.721 11 6.676 6.348 2.518 11.875 3.23-1.751-2.3-2.572-4.598-.274-.93.219-1.149.493-.164 1.259.328 5.363 3.667 8.92 4.214-1.423-11.766-7.005-18.223-.876-1.04-.492-1.423.383-.383 1.422.547"/><path fill="#0f141b" d="M306.076 250.366q10.398 9.358 15.433 22.93 5.034 13.462 3.721 28.402-.11 1.314-.711 1.368-.548.055-1.04-.985-3.01-6.074-6.294-10.124-.93-1.04-.492-1.423.492-.328 1.423.657 3.283 3.229 5.418 7.224.601-28.02-18.333-47.118-1.04-1.095-.657-1.533.383-.492 1.532.602"/><path fill="#0f141b" d="m318.061 292.121 2.134 3.12q.657 6.95.329 14.447-.274 7.88-1.368 13.189-.165.93-.657 1.04-.438.109-1.04-.657-2.79-3.503-6.895-7.17.438 4.05 1.915 8.812.602 1.86-1.313 1.149-3.94-1.478-8.592-5.308-4.05-3.284-7.333-7.17l-.11-3.502q3.12 3.776 6.677 7.17 4.597 4.268 8.208 6.128-1.04-3.995-1.313-9.412-.055-.766.328-.93.383-.165 1.04.328 3.667 2.845 7.443 7.06.82-5.911 1.04-13.627.218-8.592-.493-14.667"/><path fill="#0f141b" d="M283.42 313.41q-7.06-6.786-13.024-16.2-.165 3.886.766 10.946.328 2.025-1.642.82-5.09-3.392-9.303-12.203-3.776-8.154-4.707-16.09l1.369-4.541q.273 7.716 3.72 16.417 3.558 9.14 8.374 13.463-.493-4.597-.11-11.493.055-.875.602-.985.438-.054.93.602 5.637 9.249 12.587 16.254 6.13 6.02 11.493 8.756-.493-4.378-.22-10.07.055-1.313.657-1.368.548 0 .602 1.259.22 7.06 1.04 11.656.219 1.095-.273 1.313l-1.204-.218q-5.363-2.244-11.657-8.319"/><path fill="#0f141b" d="M257.809 264.157q2.025 16.253-8.592 33-9.194 14.61-22.109 21.725-1.696.93-1.532-.876.547-7.497.055-12.75-.055-1.26.492-1.314.602-.164.821 1.15.766 5.964.712 11.108 11.93-7.935 20.302-21.178 9.796-15.651 8.592-30.7-.11-1.369.493-1.478.602-.055.766 1.313"/><path fill="#0f141b" d="M198.87 290.644q.602.055.493 1.532-.93 9.03 1.75 21.562 2.409 11.273 3.941 11.875 1.642.657 9.303-5.308 8.537-6.677 11.985-13.517l.219 2.9q-2.79 5.09-8.756 10.343-6.786 5.91-13.353 7.99-.547.219-.82-.328-3.23-6.732-4.871-15.816-1.806-10.398-.712-19.81.165-1.478.821-1.423"/><path fill="#0f141b" d="M190.005 269.63q-2.19 5.417-2.791 14.556-.657 9.413.985 15.16 1.423-5.419 4.98-12.423.547-1.04 1.094-.767.602.274.274 1.423-1.15 4.761-1.04 10.124.11 5.09 1.314 9.194.547-4.925 3.393-11.164l.328 3.557q-2.244 5.637-2.408 11.383-.055 1.04-.602 1.095-.547.054-1.094-.821-1.697-3.01-2.244-7.935-.602-4.816-.055-9.96-2.134 5.144-2.955 9.85-.219 1.04-.711 1.095-.493.054-.821-.821-2.682-5.746-2.19-16.582.438-10.507 3.339-17.457.547-1.204 1.15-.876.546.22.054 1.369"/><path fill="#0f141b" d="M180.866 292.23q1.641-5.307 2.08-9.083.163-1.26.82-1.15.602.055.493 1.368-.985 8.811-3.886 15.652 3.831-3.229 5.965-7.06l.274 2.791q-3.01 4.652-7.935 7.607-.985.602-1.368.219-.383-.328.054-1.314 1.806-3.557 3.503-9.03"/><path fill="#0f141b" d="M164.558 300.22q-.493 3.339-2.025 6.896 7.224-2.79 13.298-9.905 3.886-4.542 6.731-10.179l-.602 4.87q-3.064 5.309-7.497 9.577-6.13 5.801-13.681 8.373l-1.533-.054q-.218-.548.329-1.314 1.97-3.229 2.9-6.184-3.666 2.791-7.661 6.348l-6.13 6.02q-.601.766-1.094.657-.493-.164-.657-1.15-.492-2.9-.383-7.114.164-4.378.93-7.99l2.135-1.587q-.821 3.23-1.095 7.388-.273 4.105.055 7.06 5.582-5.582 14.721-12.477 1.478-1.04 1.259.766"/><path fill="#0f141b" d="M152.737 280.684q-2.846 3.94-4.98 9.741-2.08 5.418-2.462 9.796 2.681-3.12 5.965-5.035 1.204-.657 1.532-.219.328.438-.712 1.204-3.666 2.682-7.114 6.95-.492.602-.985.438-.492-.164-.547-1.04-.219-5.09 1.97-11.218 2.353-6.403 6.348-11.383.766-.985 1.259-.657.492.383-.274 1.423"/><path fill="#0f141b" d="M154.105 271.545q-7.169 6.348-8.099 12.532 2.298-1.642 5.254-2.791l-1.095 2.463q-2.463 1.094-4.87 3.064-1.642 1.314-1.533-.711.11-3.776 2.135-7.388 2.407-4.433 7.442-8.1 1.095-.93 1.478-.437.328.438-.712 1.368"/><path fill="#0f141b" d="M166.309 206.75q-2.736 15.707-3.01 31.467-.164 8.592-4.159 18.388-3.229 8.045-7.771 16.91l-4.652 4.816q6.403-12.642 10.508-22.602 3.338-8.318 3.502-17.566.493-17.02 3.229-32.835 3.12-18.005 8.044-26.597l1.697 2.9q-4.433 8.21-7.388 25.12"/><path fill="#0f141b" d="M161.493 244.84q-4.104 1.86-9.358 7.66-4.925 5.418-7.552 10.563 2.955-1.478 6.13-2.244.875-.164 1.149.219.273.328-.274 1.04-2.9 4.104-5.637 11.437 2.737-.985 5.582-3.557l-1.094 3.229q-3.065 2.08-5.746 3.064l-1.26-.055q-.382-.328-.054-1.313 2.353-6.95 5.527-11.82-2.9.875-5.8 2.462l-1.204.055q-.274-.383 0-1.15 2.681-6.293 8.318-12.696 6.074-7.059 11.383-9.03l-.11 2.135M294.912 181.468q-1.04.93-1.806.328-.82-.711.165-1.751 2.408-2.9 6.676-4.05.876-.273 1.04.22.219.437-.602.875-1.97 1.149-5.473 4.378M296.992 192.686q4.433.11 7.169 1.916.82.602.492 1.258-.273.657-1.094.274l-2.846-.711-3.612-.438q-1.313-.055-1.258-1.204 0-1.15 1.149-1.095M299.071 202.482q1.97.602 3.886 2.627 1.86 2.025 2.134 3.83.11.767-.273.93-.383.11-.712-.656-.657-1.368-2.408-2.79-1.641-1.424-3.174-2.026-1.04-.492-.766-1.368.274-.875 1.313-.547M295.35 222.019q-.547-.985.22-1.368.875-.438 1.367.383 1.314 2.189 2.244 3.064.657.602.438 1.204l-1.04.055q-2.025-1.094-3.229-3.338M292.778 225.302q1.423 3.831.821 8.319-.11.82-.657.766-.602-.055-.602-.766 0-4.378-1.313-7.553-.493-1.149.438-1.532.82-.328 1.313.766M240.68 256.933q1.423 2.846 2.572 4.269.602.766.219 1.423-.383.602-1.204-.164-1.751-1.587-3.502-4.597-.712-1.204.273-1.752.985-.547 1.642.821M231.924 260.217q0 3.338.383 6.02.164.93-.438 1.094-.602.11-.93-.93-1.094-3.01-1.094-6.13 0-1.203 1.094-1.258.985 0 .985 1.204M221.745 261.311q-2.243 1.533-4.925 5.09-.602.711-1.15.383-.601-.383-.163-1.314 1.86-3.995 4.87-6.129 1.15-.766 1.806.22.657.984-.438 1.75M173.15 195.04l3.174.437q1.641.548 2.681 1.423.547.438.274.876-.329.492-.876.219-2.244-.985-5.363-.876-.985.11-1.04-.985-.054-.985 1.15-1.095M171.727 206.696q2.353-.11 3.94.657.711.273.657.82-.11.438-.821.329l-3.667-.11q-.875.055-.93-.82-.055-.767.82-.876M169.975 218.298q1.752-1.861 4.433-3.284.712-.383 1.04.164.328.602-.328 1.04l-3.831 3.338q-.821.821-1.478.164-.602-.656.164-1.422M315.817 131.12q1.806-.656 1.095 1.095-1.642 4.707-2.736 10.781-1.204 6.239-1.314 11.711l-1.751.821q.328-13.572 3.502-22.054-4.76 2.025-9.303 6.567-4.159 4.214-6.13 8.263l-1.312-1.532q2.462-4.76 7.06-9.03 5.307-4.87 10.89-6.621"/><path fill="#0f141b" d="M322.11 163.792q-2.736 4.925-7.278 8.154l-.82-1.806q3.064-2.299 5.472-5.637-2.682.328-4.925-.055-1.587-.164-.548-1.313 4.433-6.075 5.363-11.328-4.159 3.01-8.865 4.542l-1.313-.164q-.22-.547.875-1.04 5.309-2.353 10.015-6.184.657-.492 1.094-.273.383.164.329 1.094-.11 2.682-1.533 6.293-1.422 3.557-3.666 6.786l4.98-.383q.82-.164 1.04.22.218.382-.22 1.094M191.209 220.158q4.487 4.488 6.567 10.781.602 1.751.273 2.517-.328.876-1.86 1.095-5.637.711-10.562.055-6.512-.985-9.303-4.269-4.761-5.527-1.97-10.78 2.681-5.09 8.646-4.27 3.995.603 8.209 4.871m-8.428-2.353q-4.597-.657-6.293 3.229-1.697 3.94 1.587 7.77 4.706 5.419 17.457 3.886.82-.11.383-1.587-1.97-5.527-5.965-9.303-3.612-3.502-7.169-3.995M180.537 242.814q4.488-.273 9.741 3.722 4.652 3.557 7.334 8.318.93 1.696.656 2.627-.219.93-1.75 1.75-3.886 2.08-9.414 2.628-5.363.547-8.591-.602-3.612-1.369-5.418-4.324-1.697-2.845-1.368-6.074.328-3.229 2.572-5.473 2.408-2.353 6.238-2.572m-1.313 16.199q3.174 1.15 7.99.82 4.98-.382 8.318-2.188l.766-.712-.383-1.258q-2.572-4.652-7.005-7.607-4.378-3.065-8.263-2.846-5.965.438-6.567 6.02-.602 5.582 5.144 7.77M263.993 208.885q7.825-3.557 13.024 2.353 5.035 5.8 1.04 12.204-2.79 4.378-12.04 6.786-8.208 2.134-15.432 1.477-3.229-.273-4.05-1.97-.875-1.86 1.04-5.308 2.299-3.995 6.95-8.592 5.145-5.035 9.468-6.95m-8.1 8.428q-4.542 4.268-6.676 8.044-1.368 2.408-.93 3.502.383.876 2.517 1.04 6.403.657 14.283-1.587 8.428-2.353 10.836-6.074 3.064-4.98-.766-9.468-3.94-4.542-10.289-1.75-4.268 1.915-8.974 6.293M278.276 261.968q-4.761 2.189-13.681.93-9.468-1.423-14.995-5.746-2.025-1.587-1.915-3.393.11-1.806 2.353-3.557 4.816-3.721 11.437-6.403 6.786-2.79 11.93-3.119 4.16-.219 7.224 2.298 2.9 2.299 3.83 6.075 1.04 3.776-.437 7.224-1.642 3.776-5.746 5.691m.657-17.129q-2.353-1.97-5.473-1.806-5.09.274-11.273 2.682-6.348 2.408-10.945 5.91-2.9 2.134-.547 4.05 4.76 3.666 13.407 4.98 8.647 1.258 13.189-.93 6.567-3.12 4.706-10.07-.82-2.955-3.064-4.816M227.71 119.902q-7.825-20.795-24.079-39.785-15.596-18.223-36.556-32.069-20.905-13.845-43.56-21.014-23.533-7.388-45.094-6.403 18.716 10.89 28.128 34.915 8.537 21.944 6.02 44.874-4.925 43.67 12.477 71.58 14.612 23.587 40.77 31.03l-.547 2.845q-28.074-7.88-43.123-32.507-17.457-28.566-12.477-73.221 2.517-22.492-5.363-43.124-8.975-23.64-29.06-36.337-.82-.493-.765-1.094.109-.548 1.149-.602 22.163-1.97 46.57 5.089 23.642 6.786 45.422 20.85 22 14.064 38.089 32.945 16.855 19.81 24.571 41.536l-2.572.492"/><path fill="#0f141b" d="M57.68 202.373q14.666-13.517 36.611-17.95 23.696-4.87 43.561 3.995l3.557 4.76q-19.865-10.123-44.491-5.91-22.985 3.831-37.323 17.294-11.875 11.163-27.362 18.825-15.378 7.661-29.77 9.577Q31.522 240.57 51.66 263.5q18.88 21.398 43.123 30.099 24.298 8.647 43.835 1.04l-4.268 4.323q-17.677 6.239-40.77-1.97-25.174-8.92-44.163-31.303-17.13-20.193-45.148-30.263-4.597-1.641-4.324-2.681.274-1.04 5.2-2.19 14.173-3.337 27.964-10.725 13.462-7.333 24.571-17.457M147.757 70.76q2.19 3.228 2.572 8.153.438 6.02-1.258 9.358-1.533 3.174-4.597 3.338-2.955.22-5.418-3.392-2.517-3.722-2.846-9.085-.219-4.433 1.368-7.607 1.697-3.338 4.816-3.72 3.01-.384 5.363 2.954m-8.318 1.916q-1.313 2.572-1.04 6.402.22 4.324 2.135 7.443 1.805 2.9 3.885 2.9t3.065-2.845q1.149-2.791.766-7.552-.329-4.269-2.08-6.896-1.642-2.407-3.502-2.189-2.025.274-3.229 2.737M150.658 133.42q1.641 2.188 1.86 5.8.22 3.667-1.149 6.075-1.313 2.298-3.338 2.298-2.408 0-3.83-2.298-1.37-2.19-1.533-5.528-.22-3.83 1.149-6.074 1.313-1.97 3.338-2.134 1.97-.11 3.503 1.86m-3.393.329q-2.846.219-2.518 5.91.11 2.572.985 4.159.93 1.642 2.244 1.642 1.259 0 2.025-1.642.657-1.642.547-4.542-.383-5.692-3.283-5.527"/><path fill="#0f141b" d="M127.509 222.785q1.587 5.637.602 10.288-.93 4.707-4.104 5.637-3.01.876-6.184-1.697-3.557-2.9-5.035-8.591-1.587-5.965-.274-10.617 1.314-4.652 4.597-5.308 2.9-.548 5.637 1.86 3.174 2.737 4.761 8.428m-10.015-8.209q-2.243.493-3.119 4.269-.985 3.995.383 9.084 1.259 4.706 4.104 7.17 2.518 2.133 4.597 1.531 2.08-.656 2.737-4.378.711-3.94-.657-8.92-1.423-5.09-3.83-7.333-1.971-1.806-4.215-1.423M137.031 256.386q-1.86.274-3.448-1.094-1.641-1.533-1.97-4.214-.273-2.408.766-4.433 1.095-2.134 3.065-2.408 2.025-.328 3.502 1.368 1.478 1.533 1.806 4.214.383 2.682-.766 4.542-1.04 1.751-2.955 2.025m1.751-6.293q-.492-4.05-3.064-3.722-1.04.165-1.697 1.478-.547 1.259-.383 3.065.383 3.72 3.12 3.338 1.04-.164 1.641-1.314.602-1.149.383-2.845M428.879 2.736q-20.03 13.846-29.88 36.556-9.74 22.383-9.139 52.536.876 42.248-10.015 67.53-14.666 34.094-52.919 48.05l-.711-2.846q32.89-13.08 47.392-40.059 14.392-26.815 13.353-72.565-1.478-61.785 38.69-89.256-17.129-2.025-38.69 2.79-21.452 4.707-42.193 15.105-21.671 10.835-38.034 25.556-17.676 15.87-26.268 33.93l-2.025-1.752q8.318-18.059 26.104-34.203 16.636-15.05 38.69-25.994 21.672-10.726 43.89-15.323 22.82-4.597 41.372-1.697 1.094.165 1.15.657.054.438-.767.985"/><path fill="#0f141b" d="M367.04 76.888q-1.15 5.309-4.16 7.99-2.68 2.408-5.362 1.751-2.518-.601-3.284-4.815-.657-3.886.547-8.428 1.04-4.268 3.558-6.786 2.572-2.408 5.308-2.025 2.408.383 3.393 3.557 1.149 3.448 0 8.756m-10.945 3.886q.328 3.338 1.97 3.721 1.97.493 3.995-1.696 2.244-2.353 3.01-6.348.93-4.214.219-6.95-.548-2.518-2.025-2.791-1.86-.274-3.667 1.587-1.915 2.024-2.79 5.582-.986 3.776-.712 6.895M334.588 78.53q2.79 1.15 3.502 5.473.657 3.995-.656 8.92-1.478 6.02-4.707 8.92-2.79 2.408-5.636 1.915-2.682-.437-3.722-5.198-1.094-4.707.274-10.234 1.423-5.582 4.816-8.318 3.174-2.682 6.129-1.478m-5.418 3.612q-2.353 2.408-3.447 6.676-1.095 4.488-.438 8.483.602 3.885 2.353 4.323 1.97.547 4.268-1.97 2.463-2.682 3.558-7.169 1.149-4.323.766-7.716-.493-3.393-2.408-4.16-2.244-.93-4.652 1.533M341.976 138.4q2.08.82 2.845 3.283.876 2.627-.218 5.472-1.095 3.174-3.612 4.542-2.244 1.15-4.214.383-2.08-.875-2.955-3.392-.876-2.627.164-5.747.876-2.955 3.448-4.213 2.353-1.204 4.542-.329m-6.294 9.249q.548 1.75 1.916 2.408 1.313.547 2.9-.493t2.299-3.01q.711-1.915.273-3.612-.383-1.86-1.86-2.462l-3.01.219q-1.642.875-2.244 2.845-.766 2.244-.274 4.105M500.295 220.596q22.82 10.726 41.974 13.627 7.826 1.258 7.716 2.462-.164 1.095-7.497 2.736-26.268 5.746-50.347 15.761-26.05 10.78-46.297 25.174-20.85 14.83-42.357 20.303-23.477 6.02-37.268-2.354l-1.806-4.378q15.432 9.358 39.347 3.065 20.084-5.363 40.168-19.646 20.796-14.776 47.666-25.666 27.198-11 53.028-14.885-21.671-1.752-47.337-14.065-16.199-7.77-33.109-19.372-18.934-13.08-47.5-18.716-33.93-6.731-59.487 3.338l3.23-4.104q25.337-9.194 57.132-2.627 27.198 5.636 48.267 19.755 16.965 11.383 34.477 19.592"/><path fill="#0f141b" d="M391.119 221.964q-1.15 6.348-4.761 9.468-3.174 2.79-6.786 1.97-3.338-.821-4.707-5.582-1.258-4.488-.164-9.796 1.204-5.363 4.926-8.264 3.392-2.626 6.621-1.75 3.174.82 4.542 4.815 1.26 3.886.329 9.14m-14.338-3.449q-.93 4.378-.11 8.1.93 4.05 3.448 4.651 2.791.712 5.254-1.696 2.79-2.682 3.72-7.99.767-4.487-.109-7.661-.93-3.23-3.228-3.776-2.572-.712-5.2 1.587-2.79 2.353-3.775 6.785M372.403 248.889q1.532.985 1.751 3.174.219 2.134-.93 4.433-1.095 2.407-3.284 3.174l-3.174.109q-1.587-.711-2.025-3.01-.437-2.298.548-4.487 1.149-2.518 3.393-3.503l3.72.11m-3.173 1.97q-1.314.711-2.025 2.298-.657 1.533-.547 2.9.164 1.314.985 1.697l1.86-.055q1.26-.547 1.97-2.134.821-1.587.767-2.955-.055-1.259-.93-1.806l-2.08.055M381.597 395.278q-4.214-9.084-4.433-20.413-.547-37.87-6.458-60.69-6.02-23.312-17.457-30.317l-.82-3.612q15.103 7.06 22.053 37.76 5.09 22.547 5.582 56.805.274 20.138 13.408 30.755 12.97 10.453 28.129 3.612 4.76-2.134 5.746-1.423 1.204.766-2.244 5.199-8.975 11.547-26.268 17.238-17.403 5.692-38.089 3.667-22.163-2.244-42.63-12.806-22.656-11.82-39.785-32.233l2.517-1.641q17.293 20.248 39.84 31.685 20.248 10.234 41.974 12.094 20.084 1.752 36.884-3.994 16.582-5.692 24.9-16.965-8.318 4.87-16.855 4.487-8.264-.328-15.104-5.417-6.895-5.09-10.89-13.791M147.155 290.097q-16.8 11-27.308 29.715-12.039 21.179-10.835 44.601 1.204 21.945-5.746 33.437-7.224 11.985-24.189 14.72 10.89 10.344 34.97 11 25.064.657 44.6-10.342l1.697 2.462q-19.592 12.04-46.79 11-12.313-.547-21.945-3.995-10.178-3.667-15.049-9.85-.711-.876-.602-1.26.11-.327 1.04-.546 16.691-3.23 23.422-14.229 6.677-10.835 5.637-32.397-1.15-25.01 11.602-46.68 11.382-19.318 30.974-31.96l-1.478 4.324M178.84 295.624q-17.128 28.84-13.297 83.455 1.532 21.452 6.02 41.208 4.213 18.388 9.084 27.746.766 1.477 1.532 1.313.766-.11 1.15-1.915 4.815-23.423 17.95-45.422 12.914-21.726 31.138-37.705 10.397-9.14 23.75-27.527 16.09-22.164 18.278-35.462l1.751 2.627q-2.681 13.08-17.785 33.984-13.189 18.333-24.681 28.238-17.621 15.159-30.537 37.049-12.915 21.945-17.73 44.82-.712 3.174-2.956 3.557-2.298.383-3.72-2.353-4.98-9.523-9.195-27.363-4.487-18.99-6.238-39.73-4.323-52.153 10.507-81.814l4.98-4.706"/><path fill="#0f141b" d="M217.86 318.663q10.562 2.736 19.92 8.482 9.522 5.856 16.527 14.12l-1.423 1.367q-6.731-7.935-16.418-13.68-9.85-5.802-20.905-8.319l2.299-1.97M166.692 326.926q14.995-10.397 34.094-10.397l.547 2.517q-19.482-.219-35.024 10.398l.383-2.518M164.284 375.796q10.507-8.756 27.636-7.662 17.074 1.04 27.417 10.945l-1.313 1.478q-10.234-9.14-26.87-9.905-16.691-.821-26.76 7.442l-.11-2.298M147.702 304.325q-15.377 32.452-6.621 68.68 7.99 33.054 31.248 54.068l.711 3.667q-13.08-11.274-22.218-27.199-9.085-15.706-12.86-33.6-8.319-39.184 9.85-71.8l-.11 6.184"/><path fill="#0f141b" d="M165.816 332.18q-5.855-1.423-14.83-.219-9.85 1.423-13.134 5.199l.219-2.682q3.721-3.72 13.736-4.98 8.92-1.203 14.502.22l-.493 2.462M164.394 379.627q-3.94-.712-11 1.04-7.333 1.805-9.796 4.432l-.602-1.915q2.955-2.791 10.507-4.707 7.06-1.806 10.89-1.258v2.408M157.498 305.255q.602 1.314.657 3.339.055 1.915-.438 3.72-.82 2.792-2.681 4.598-1.97 1.86-4.05 1.258-2.353-.656-2.517-4.815l2.134-1.97q-.274 1.86 0 3.174.274 1.313 1.15 1.532.875.274 2.079-.93 1.313-1.26 1.915-3.448.876-3.229.11-5.199l1.641-1.259M152.354 348.543q1.368 2.134 1.259 5.363-.11 3.12-1.587 5.035-1.423 1.75-3.393 1.75-1.86 0-3.12-1.75-1.313-1.916-1.422-5.418-.11-2.791 1.258-4.816 1.478-2.134 3.776-2.189 1.916 0 3.23 2.025m-5.473 8.537q.656 1.313 1.696 1.313 1.204.11 2.08-1.04.985-1.313 1.04-3.611.054-2.463-.821-3.831-.712-1.204-1.861-1.204-1.204-.055-2.08 1.313-.82 1.368-.766 3.393 0 2.244.712 3.667M135.335 387.78q.547 4.324-.657 7.224-1.259 2.791-3.995 3.284-2.298.383-4.597-1.86-2.517-2.464-3.174-6.623-.657-4.104.712-7.114 1.313-3.12 4.213-3.557 2.682-.383 4.87 2.353 2.08 2.463 2.628 6.294m-7.17-6.513q-1.75.274-2.626 2.627-1.04 2.408-.547 5.637.547 3.283 2.189 5.09 1.477 1.75 3.228 1.422 1.97-.328 2.682-2.736.602-2.19.164-5.363-.438-3.284-1.97-5.144-1.478-1.806-3.12-1.533M328.459 285.554q1.368 5.747 1.04 12.86-.329 6.24-1.806 10.344-.493 1.477-.985 1.423-.602-.055-.22-1.642 2.627-12.97-.492-24.243l2.463 1.258M327.09 318.991q1.588 7.662.329 17.895l-2.572 3.558q1.86-13.025.219-21.124-1.259-5.856-5.582-7.498l.164-1.97q5.965 1.806 7.443 9.14"/><path fill="#0f141b" d="M333.767 287.908q3.776 41.426-15.432 68.789-18.552 26.377-60.964 42.85-19.591 7.551-39.675 18.004-25.776 13.353-31.03 21.178l1.205-4.378q6.73-7.552 31.193-19.974 18.99-9.632 37.596-17.074 35.297-14.01 53.083-34.203 25.775-29.442 21.124-75.959l2.9.767"/><path fill="#0f141b" d="M322.275 326.324q-6.13 18.662-24.736 36.119-16.089 15.104-34.476 23.258-15.323 6.895-37.651 19.756-23.477 13.626-35.079 22.765l.93-3.666q12.095-9.194 34.587-22.11 21.342-12.203 36.337-18.88 17.73-7.88 33.71-22.82 18.005-16.69 25.174-34.86.602-1.477 1.15-1.313.601.274.054 1.751"/><path fill="#0f141b" d="M252.938 342.687q11 .766 27.91 7.443 16.199 6.403 17.676 9.905 1.095 2.846-1.97 10.124-3.174 7.279-7.935 12.806l-4.87 2.408q5.417-5.692 9.522-14.065 3.94-7.935 2.9-10.069-1.15-2.517-16.527-9.03-17.074-7.278-27.964-7.661l1.258-1.86M218.516 379.9q6.95.219 17.677 4.433 10.835 4.433 11.82 7.661.657 2.518-.657 6.075-1.258 3.502-3.94 6.512l-4.268 1.259q3.283-3.01 5.199-6.84 2.024-3.886 1.313-6.02-.876-2.463-11.164-6.841-10.835-4.542-17.621-4.378l1.641-1.86M292.997 326.38q2.244-.493 4.16-2.245 1.86-1.805 2.626-3.666.82-1.86.164-3.12l2.299 1.478q-.329 3.557-3.722 6.84-2.572 2.409-5.855 2.846-3.284.329-4.816-1.477-1.204-1.478-.657-4.214.547-2.955 2.791-5.253l1.697 1.203q-1.861 1.806-2.408 3.995-.548 1.97.328 2.9 1.04 1.26 3.393.712m2.08-11.985 2.517-.383 1.477 2.299-3.885.164-.11-2.08"/><path fill="#0f141b" d="M265.853 359.761q1.204 1.533.329 4.214-.985 3.12-4.488 5.637-2.9 2.244-6.184 2.462-3.174.22-4.213-1.422-1.259-1.806-.22-4.761 1.205-3.12 4.488-5.363 2.9-1.97 5.965-2.244 3.065-.164 4.323 1.477m-4.542.548q-2.353.328-4.76 1.97-2.573 1.75-3.448 4.05-.876 1.97.054 3.119.602.93 2.846.547 2.353-.438 4.597-2.025 2.463-1.806 3.393-4.104.82-1.916.11-2.846-.657-.985-2.792-.711M217.531 400.64q-2.298 1.369-4.815 1.478-2.572.055-3.339-1.258-.985-1.751.165-3.831 1.149-2.025 3.72-3.667 2.409-1.422 4.762-1.368 2.189.055 3.12 1.368.875 1.314.109 3.339-.93 2.298-3.722 3.94m0-6.84q-1.641.109-3.447 1.203-1.97 1.204-2.736 2.572-.712 1.259-.22 2.08.384.711 1.97.547 1.642-.164 3.448-1.259 1.806-1.094 2.572-2.407.767-1.314.274-2.08-.492-.711-1.86-.657M161 390.571q1.642 1.314 2.3 3.503.656 2.463.109 4.378-.548 1.97-2.244 2.463-1.587.437-3.284-.767-1.806-1.313-2.462-3.666-.821-2.682-.11-4.542.602-1.752 2.299-2.244 1.696-.438 3.393.875m.656 6.896q.329-1.204-.219-2.791-.547-1.587-1.532-2.408-.875-.657-1.751-.493-.766.22-.985 1.314-.383 1.204.164 2.736.493 1.697 1.478 2.572.93.712 1.806.438.711-.219 1.04-1.368M348.762 347.284q-2.19 2.244-2.572 5.746-.383 3.722.219 6.512.82 3.612 3.174 4.05 2.407.438 4.651-2.025 2.463-2.736 2.846-7.278.328-3.776-.657-6.239-.93-2.517-2.955-2.79-2.517-.274-4.706 2.024m4.98-4.159q2.626.383 4.159 3.12 1.641 3.119 1.204 8.153-.548 6.02-3.995 9.249-3.065 2.9-6.13 2.08-2.79-.657-4.104-4.05-1.423-3.503-.766-8.92.547-4.488 3.393-7.279 2.791-2.79 6.239-2.353M348.707 386.412q1.259 2.572.985 6.13-.328 4.104-2.463 6.457-2.024 2.244-4.542 1.916-2.189-.274-3.447-2.573-1.314-2.462-1.095-6.512.164-3.83 2.299-6.238 2.024-2.299 4.651-2.025 2.408.219 3.612 2.845m-7.114.93q-1.314 1.752-1.423 4.598-.164 3.174.602 4.98.766 1.696 2.189 1.86 1.806.22 3.12-1.532 1.367-1.806 1.586-4.87.164-2.901-.602-4.707t-2.298-1.915q-1.916-.11-3.174 1.587"/><path fill="#525557" d="M249.053 135.061q9.96 10.015 10.398 23.586.711 21.671-19.263 38.581-4.816 3.995-10.234 11-5.09 6.512-7.88 11.82-.767 1.478-1.97 1.533-1.204.11-1.916-1.204-2.681-4.597-7.06-10.617-5.198-7.059-9.576-11.546-7.279-7.443-10.89-14.667-4.214-8.756-4.543-19.537-.437-15.432 10.289-27.253Q207.57 124.5 223.66 124.5q14.94 0 25.392 10.562"/><path fill="#0088b9" d="M203.303 193.343q-1.697.93-5.199-2.08-3.12-2.736-5.418-6.293-2.025-3.12-3.228-9.467-1.314-6.348.054-6.84 1.259-.493 4.98 3.447 3.393 3.612 5.2 6.786 1.805 3.228 3.173 8.591 1.368 5.309.438 5.856M252.829 167.841q1.259.821-.383 6.731-1.751 6.294-4.98 10.89-2.627 3.558-7.169 6.403-4.269 2.627-5.144 1.861-1.478-1.368-.712-6.731.712-5.473 3.12-9.85 2.353-4.27 8.208-7.443 5.473-2.9 7.06-1.86"/><path fill="#c40018" d="M208.885 125.32q-2.463 1.368-4.488 4.597-7.387 4.104-12.477 12.75-5.363 9.14-5.746 19.647-.383 9.741 3.284 18.442 2.572 6.075 7.716 12.478l7.716 9.139 8.209 10.014q0 5.2-1.259 9.687-.657 2.243-2.025 2.407-1.423.165-1.642-1.97-.383-3.338-4.596-9.084-3.995-5.363-7.279-7.552-15.706-10.288-23.039-25.447-9.467-19.482 1.915-37.268 7.717-11.93 8.92-24.954 1.15-13.298-4.98-21.398-1.477-1.97-1.203-3.283.218-1.423 2.243-1.368 9.14.438 18.88 13.079 8.702 11.328 9.85 20.084M278.878 83.182q-4.761 8.92-5.472 19.482-.767 12.313 4.925 21.67 3.83 6.294 5.746 15.105 2.134 9.796 1.094 19.482-2.736 24.462-23.64 38.034-11.22 7.278-15.378 11.273-6.567 6.294-8.647 14.448-.657 2.572-1.806 2.517-1.15 0-1.423-2.682-.547-4.98-.219-10.397.493-7.279 2.518-11.219 11.492-10.124 16.855-19.044 6.512-10.945 6.02-23.204-.438-11.273-6.458-19.317-4.433-6.02-12.805-11.219.383-17.512 13.735-33.82 5.637-6.84 11.93-11.164 6.294-4.268 11.22-4.706 2.462-.22 2.9.875.383 1.15-1.095 3.886"/><path fill="#a2000c" d="M254.58 180.318q11.164-5.253 18.826-22.765 8.318-19.154 3.392-35.68 11.547 19.098 7.662 40.605-4.269 23.532-25.666 36.119-9.686 5.527-15.432 12.586-5.254 6.403-5.91 12.04-.22 2.025-1.588 2.025-1.313.054-1.532-2.08-.657-4.816-.383-10.452.438-7.17 2.353-11.766 8.154-6.239 18.278-20.632M197.01 206.696q-24.681-18.388-27.855-38.308-1.369-8.482 1.806-16.8.875-2.299 6.074-11.82-2.627 8.7.547 17.675 3.01 8.373 8.592 11.11.493 6.895 4.98 15.323 4.16 7.88 10.124 14.119 6.239 6.512 11.875 14.885-.547 7.442-1.915 10.288-.657 1.368-1.696 1.204-1.04-.164-1.423-2.025-.821-3.557-4.16-8.209-3.283-4.76-6.95-7.442"/><path fill="#38393a" d="M227.984 210.581q-4.214 5.637-6.02 9.468-.602 1.423-1.915 1.423-1.368.054-2.135-1.423-2.736-5.2-14.392-19.154-11.438-13.626-12.751-16.472 3.174 3.94 6.95 6.731 4.16 3.01 5.691 1.86 6.732 7.06 14.502 6.403 6.677-.547 16.582-7.333.164 1.204.821 1.533.82.328 2.408-.438 11.985-5.91 14.72-18.99 6.896-10.835 6.623-19.153 2.189 12.75-5.418 25.83-6.02 10.452-18.77 21.726-2.846 2.517-6.896 7.99"/><path fill="#006c95" d="M189.731 168.498q1.423 6.512 4.542 12.696 3.831 7.552 9.14 11.82-1.588 1.095-5.2-1.75-3.775-3.01-5.964-7.553-2.354-4.98-3.01-9.795-.657-4.378.492-5.418M252.884 167.622q.711 7.771-3.94 15.706-1.861 3.284-5.801 6.513-4.378 3.666-7.826 3.995 4.652-4.324 10.124-12.642 5.254-7.935 7.443-13.572"/><path fill="#0f141b" d="M260.436 159.304q.273 11.711-4.652 20.577-4.597 8.373-18.004 21.288-5.035 4.925-8.483 9.358-3.612 4.597-6.457 9.96-1.204 2.353-2.627 2.462-1.368.11-2.572-1.751l-6.567-9.632q-3.886-5.253-9.249-11.109-8.81-9.85-12.313-16.69-4.268-8.483-4.378-19.319-.219-16.198 9.96-28.074 10.672-12.422 27.472-12.97 14.01-.547 25.174 8.757 12.367 10.397 12.696 27.143m-13.572-24.571q-10.726-9.468-24.188-9.03-15.98.493-26.214 12.642-9.577 11.328-9.139 26.158.274 10.179 4.269 18.169 3.338 6.73 11.82 16.308 7.443 8.427 15.816 21.014.985 1.478 2.134-.657 3.12-5.691 5.856-9.412 3.612-4.87 9.358-10.453 13.079-12.532 17.457-20.686t4.268-19.537q-.164-14.556-11.437-24.516"/><path fill="#0f141b" d="M211.566 154.434q-.109-9.741 3.886-15.87.657-1.095 1.15-.767.492.274-.056 1.423-1.696 3.229-2.572 7.17-.711 3.283-1.094 8.153-.11 1.313-.712 1.259-.602-.055-.602-1.368M212.66 167.02q-.601 11.438 2.409 22.164 3.283 11.547 3.83 17.457.165 1.697-.383 1.751-.602.055-.875-1.587-1.15-7.169-4.378-17.183-3.229-10.672-1.86-22.656.109-1.423.765-1.369.602 0 .493 1.423M202.865 193.78q-5.637-5.581-8.81-11.108-3.284-5.801-5.145-14.01l1.259-.328q2.134 7.88 5.254 13.407 3.01 5.528 8.318 11.11l-.876.93"/><path fill="#0f141b" d="M194.054 187.104q-.273-2.9 1.204-5.363 1.423-2.462 3.886-3.228l.657 1.313q-2.08.492-3.448 3.174-1.314 2.791-.93 5.527l-1.369-1.423"/><path fill="#0f141b" d="M191.209 168.334q12.149 8.373 13.024 23.97.055 1.313-.547 1.696l-1.751.11q-5.91-1.26-10.124-9.03-4.269-7.771-3.448-15.652.328-2.736 2.846-1.094m-1.478 1.368q-.766 6.457 3.667 14.338 4.323 7.716 8.865 8.701.602.055.602-.438-.164-7.223-4.433-14.01-3.447-5.636-8.044-8.755-.547-.383-.657.164M253.376 167.13q.602.438.547 1.97-.164 8.482-4.98 15.487-4.651 6.84-11.93 9.632-3.064 1.149-3.283-2.025-.876-9.577 3.885-16.527 4.816-6.895 13.408-8.701l2.353.164m-2.025 1.204q-7.825 1.915-12.258 8.427-4.433 6.458-3.885 15.269l.328.985 1.04-.165q6.567-2.572 11.164-9.303 4.487-6.84 4.651-14.338 0-1.094-1.04-.875"/><path fill="#0f141b" d="M246.755 186.284q-.93-2.956-4.05-5.528-2.791-2.353-5.144-2.572l.602-1.368q2.517.328 5.199 2.463 3.01 2.353 4.268 5.472l-.875 1.533"/><path fill="#0f141b" d="M252.993 168.388q-1.587 5.582-6.403 12.97-5.199 8.045-10.452 12.313l-1.314-.547q4.597-3.721 10.508-12.915 5.308-8.263 6.676-12.641l.985.82"/><path fill="#0f141b" d="M276.689 79.406q-11.328 1.587-22.875 16.417-12.532 16.035-12.532 33.164l-2.353-.876q.219-17.348 13.517-33.765 12.368-15.16 23.97-16.746 3.283-.438 4.213 1.423.93 1.806-.875 4.597-3.94 6.293-5.09 16.69-1.204 11.767 2.627 20.03 14.174 26.268 7.333 48.486-6.074 19.975-27.143 31.795-7.224 4.05-12.368 9.906-5.582 6.348-6.513 12.586-.492 3.174-2.462 3.339-2.08.218-2.736-3.393-.821-4.543-.438-10.343.438-6.513 2.298-10.672l3.229-2.462q-2.572 3.72-3.393 11.547-.766 6.95.11 11.492.273 1.532.82 1.532.602 0 .712-1.423.711-6.238 6.457-13.134 5.582-6.621 13.19-10.835 19.372-10.836 25.556-30.373 7.114-22.163-6.458-47.282-4.05-8.592-2.955-20.467.985-10.835 5.527-17.895 1.259-2.025.93-2.846-.273-.711-2.298-.492M207.571 126.579q-1.313-9.96-9.248-20.467-8.263-11-17.02-12.697-2.188-.492-2.626.329-.438.766 1.04 2.517 6.785 8.373 5.417 21.562-1.258 13.243-10.452 28.238-8.045 13.243-2.353 29.387 5.527 15.76 21.561 27.362 6.239 4.543 9.905 9.249 3.612 4.597 5.473 10.343.274.82.657.93.328.11.602-.656 1.97-4.488 1.477-11.547l2.19 3.01q-.22 5.69-2.135 9.686-.876 1.86-2.244 1.806-1.532-.11-2.353-2.518-1.806-5.472-5.144-9.74-3.393-4.27-9.577-8.647-16.965-12.259-22.656-28.348-5.965-16.8 2.9-31.357 8.702-14.283 10.07-27.198 1.423-13.025-4.87-20.303-2.244-2.627-1.26-4.652 1.04-2.08 4.707-1.313 9.522 1.86 18.333 13.079 8.318 10.452 9.96 20.85l-2.354 1.095"/><path fill="#0f141b" d="m184.204 112.35 11.11.438q6.62 1.15 10.506 3.612l1.04 2.846q-3.667-3.01-10.945-4.378l-11.602-.384-.109-2.134M193.726 140.37q-2.627-1.369-7.77-1.588l-8.702.712.875-2.299 8.538-.383q5.144.383 8.099 1.916l-1.04 1.641M186.229 165.433l-8.92.274q-4.926 1.094-7.826 3.283l-.438-2.243q3.01-2.19 8.045-3.065 4.98-.875 9.139-.11v1.861M200.184 197.174q-3.448-1.642-8.428-1.806-4.542-.164-7.278.875L183 194.547q2.955-1.204 7.716-1.15 4.925.11 8.209 1.533l1.259 2.244M273.46 102.007q-6.84-.438-15.87 2.791-8.045 2.9-14.064 7.279l.93-3.01q5.965-4.214 13.79-6.84 8.483-2.737 15.324-2.245l-.11 2.025M263.72 129.917q8.974-2.682 16.307-1.751l.821 2.298q-7.442-1.204-16.636 1.532-8.318 2.463-12.259 6.075l-1.204-1.423q4.488-4.16 12.97-6.731M271.271 155.692q7.662-1.477 13.846-.93l-.055 2.08q-6.13-.493-13.845.985-7.717 1.422-11.602 3.83l-.164-2.025q4.378-2.462 11.82-3.94M270.779 189.074q-4.05-1.477-11.93-.766-7.826.712-12.696 3.065l1.696-2.408q4.98-2.025 12.477-2.627 8.045-.602 11.876 1.15l-1.423 1.586M240.844 120.559q-11.273-.712-20.631 1.477-9.632 2.244-13.627 6.896l-4.104 2.134q2.244-6.731 13.79-10.452 11.11-3.503 25.12-2.627l-.548 2.572"/></svg>