<svg xmlns="http://www.w3.org/2000/svg" width="432" height="437" viewBox="-0.225 -0.09 431.682 437.442"><path fill="#fff" d="M333.133 217.799q-2.475.09-5.67 3.824-3.285 3.87-3.33 7.2l8.1 6.435-.225 9.09-9.045 13.275q.495 6.615.27 12.24-.045 1.755-.405 2.61-.27.675-1.08 1.26-2.97 3.15-7.11 8.64-1.125 1.44-3.555 1.89l-5.085-.18-2.34-.225q-1.035.09-1.845 1.08l-4.05 3.825q-3.375 2.97-6.03 4.725l-1.89 1.575q-.765.9-1.26 2.52-3.51 11.88-8.82 11.79l-4.95.225-3.24.765q2.97-14.85-4.455-33.21-6.795-16.695-23.805-39.78.9-2.565 6.03-7.02 5.31-4.635 9.315-6.03 3.51-1.215 9.315-.225 5.58.9 10.215 3.24.765 3.825 2.34 8.235 1.395 3.915 2.16 4.95 1.08 1.44 2.88 2.34 3.555-4.86 5.94-7.605.675-.765 1.305-.855.675-.09 1.575.495 6.255 4.095 8.82 4.86 1.305.36 1.35 2.205.09 1.08 1.35 3.06 1.35 2.025 2.025 2.025.81 0 3.645-1.08 2.925-1.08 3.735-1.755.18-1.17.99-2.52.81-1.44 1.935-2.43-4.635-7.785.315-15.93 4.815-8.01 13.86-8.684 1.665-.09 2.34 1.485.675 1.62-1.62 1.665"/><path fill="#007c36" d="m66.06 158.624 1.215 3.69q-1.53 3.33-2.025 7.74-.54 4.455.135 9.18 1.35 9.45 9.09 18.09 8.144 9.09 16.064 8.46 3.645 3.915 8.685 6.93l1.035 2.16 1.305 2.385q-5.175-1.485-10.305-2.52l14.13 10.62-4.455-.226q-1.08-.135-2.745-2.16.18.675-.18 1.215-.405.54-1.17.585l-2.97-.135-2.835-.405q-.63-.135-1.8-1.665l-3.15-4.32q1.845 5.625-.81 3.96l-3.285-1.98q-2.565-1.664-4.365-3.24l.9 3.51q.135 1.305-2.565 4.815-2.564 3.33-4.77 5.085-.81.675-1.35.36-.54-.27-.494-1.26.135-5.085-5.13-14.714.9 2.43 1.665 8.01.81 5.76.63 8.864-.09 1.8-4.275 4.95-4.095 3.015-5.895 3.015-2.475 0-4.14-16.785-.09 3.015-.945 8.235-.99 5.67-2.115 8.775-1.125 2.97-8.64 8.685-7.245 5.49-8.01 4.95-.585-.315 1.845-11.52 1.89-8.865 4.14-17.865l-6.165 11.97q-4.5 8.145-6.66 9.72-2.7 1.89-7.92 1.755-4.86-.135-5.22-1.26-.27-.9 1.845-6.48 2.205-5.805 5.22-11.745l-7.155 9.495q-3.87 4.86-4.95 4.815-1.89-.135-4.365-4.455-2.565-4.5-2.115-7.65.765-5.4 10.485-21.914 9.36-15.885 15.345-22.68 1.26-1.44 1.665-2.61l.45-2.34q1.98-15.48 4.905-24.93 3.555-11.385 9.045-15.93-.9 6.21 8.01 12.42 7.83 5.4 15.165 6.345"/><path fill="#007c36" d="M409.722 56.205q16.425 4.095 19.17 6.885 1.485 1.53 1.575 7.38.045 6.03-1.755 8.504-1.98 2.7-21.51 5.13-20.16 2.52-32.985 1.215 7.2 3.555 24.66 7.335 11.16 2.43 23.895 4.41 1.215.225 1.395.72.135.54-.81 1.755-2.25 2.925-7.92 7.47-5.94 4.68-8.73 5.535-2.745.855-16.245.045l-21.015-2.025q3.375 1.665 10.44 4.32l9.63 3.465q2.115.72.225 2.025l-8.505 4.77q-6.03 3.06-7.74 3.465-1.71.405-9.99-1.215-7.604-1.44-12.69-2.97.9 1.215.856 1.935-.09.765-1.215 1.215-3.015 1.125-7.83 2.34-5.265 1.35-7.155 1.395-2.565 0-12.015-5.085 3.06 4.23 2.88 5.175-.135.63-3.78 1.98-3.51 1.26-5.4 1.485-.585 1.485-1.98 2.97-1.35 1.44-2.43 1.8-1.215.45-7.245.18l-9.945-1.08 16.65 7.38 1.485.855q.63.54.945 1.62.54 1.755 1.035 6.975.54 5.535 0 6.075-.585.585-6.75-.675 1.08 1.125 2.97 2.565l2.655 1.845q.72.36.945.99l.18 1.395q.18 2.43-.135 5.895-.36 4.5-1.35 4.77-1.485.45-10.26-1.62-8.235-1.98-15.03-4.23 4.815 2.835 12.555 6.435 6.615 3.06 10.485 4.5.675.27.855.81l.09 1.305q-.135 2.34-1.44 5.085-1.17 2.475-2.61 4.14-.495.585-3.69.45l-6.21-.675 6.615 2.34q1.755.54.45 2.07-.765.9-3.24 2.7-2.925 2.07-4.725 2.655-2.295.765-9 0-7.245-.81-14.31-2.88 1.89 1.17 6.48 2.745l7.785 2.295q1.395.36.495 2.025-1.17 2.385-4.815 5.67-3.735 3.285-5.535 3.465-1.305.135-5.535-1.035-4.41-1.26-9.45-3.24 5.625 3.465 9.585 5.355 1.035.45 1.125.99.045.45-.81 1.484-.9 1.08-3.825 2.88-3.015 1.89-4.14 1.98-1.17.09-6.885-1.935-5.715-2.07-10.44-4.274l6.075 4.59q3.285 2.204 5.13 2.97 1.89.764-.315 2.34-1.125.81-4.725 2.474-3.825 1.8-4.86 1.845-1.08.045-5.805-2.565-4.41-2.385-7.965-4.86 13.41 18.495 22.41 34.515 11.16 19.935 12.78 31.41 1.665 11.97-1.125 26.82-1.89 9.945-6.66 24.345-1.71 4.905-.54 8.415l1.305 4.95.855 4.41q.18 1.215-1.08 4.365l-1.8 4.32q-.9 2.52 0 4.95 1.755 4.95 5.535 13.95 4.095 9.674 6.165 13.454 2.295 4.185.855 7.74-1.62 3.96-7.11 4.365-3.51.27-6.03-2.475-2.16-2.385-2.43-5.4-.675-6.93-5.85-15.66-1.755-.135-2.565.405-.09 7.56 3.6 18.225.72 2.025 0 4.41-.585 1.935-1.71 3.06-.99.99-3.15 1.8-2.25.9-4.41.99-2.61.09-5.04-1.71-2.205-1.62-3.735-4.455-.81-1.485-.36-10.62.315-7.2 1.035-13.365-1.89-.855-3.375 1.26-1.44 4.185-2.7 9.63-1.305 5.58-1.35 7.875-.09 1.935-.495 2.88-.45 1.035-1.755 2.07l-2.925 1.575q-2.115.855-3.42.765-1.26-.09-2.88-1.44l-3.284-3.285q-1.8-1.89-1.71-4.95.045-2.88 1.62-5.445 5.175-8.55 9-19.26.99-2.88 3.374-3.6l1.395-.675 1.665-1.485q8.64-8.684 10.44-16.694 1.575-7.155-1.98-16.245-8.1-6.03-14.67-17.64-6.12-10.89-7.154-19.575l-7.425.225q-3.645-.315-5.85-1.17-.54 1.845-2.61 4.05-2.385 2.52-2.835 8.01-.45 5.49 1.17 12.24.54 2.16-.315 3.645-.72 1.26-2.385 1.89-5.085 1.98-5.67 3.24-1.08 2.25-.54 7.56.585 5.67 2.565 8.55.81 1.17.81 2.07l-.54 2.205q-1.98 6.48-5.895 9.99-3.555 3.15-5.805 1.844l-6.795-8.82q-.09-1.394.63-2.61.63-1.124 1.665-1.664-10.26-15.48-17.235-15.03-3.33.27-6.075-1.71-2.475-1.755-4.86-.09l-29.79 5.715q-1.44.27-2.25-.54-.765-.72-1.215-2.52-.81-3.285-1.17-7.245-.405-4.05 0-5.58.315-1.395 2.34-2.475 1.35-.675 4.005-1.44-.135-3.285 0-4.95.18-2.25.855-3.285 1.665-2.61 6.165-4.14 4.725-1.575 9.81-1.035 1.08-2.61 2.79-4.725 1.665-2.025 3.285-2.88-8.955-10.08-3.915-21.285 2.025-4.455 5.895-7.875 3.645-3.24 7.47-4.365-11.7-9.54-14.895-23.04-2.43-10.395.315-21.555l-3.96 3.195-4.5 3.105-21.555-9.18q-3.42-.09-7.47-7.784-2.7-5.04-4.815-11.475 1.665-.9 2.7-2.16 1.575-5.715 1.575-14.22 0-7.02 4.185-12.375 3.69-4.725 8.775-6.3 13.815-4.365 37.17-.9 21.33 3.15 35.82 10.125 2.97-3.465 6.615-5.355 3.195-1.665 7.245-2.295 2.07-.36 3.285-1.125 1.215-.765 3.24-3.06 10.26-11.565 20.834-29.565 10.26-17.55 15.255-31.635l31.95-49.094q14.895-2.07 40.185.18 15.3-3.015 23.94-4.14 15.615-1.935 33.3-1.71 17.82.225 37.214 5.085"/><path fill="#7c70a4" d="M72.45 155.924q-4.185 2.34-5.175 6.39l-1.215-3.69q-10.26-1.71-17.595-8.415-6.615-5.985-5.58-9.9 1.53-5.76 11.88-7.83 11.07-2.25 21.194 2.88 1.53.765 1.35 1.35-.18.585-1.935.675-1.98.135-4.41.99-2.474.81-3.914 1.89 6.57.9 10.754 6.165 3.42 4.32 3.285 8.01-4.545-.855-8.64 1.485M6.525 217.709q4.095-8.055 7.2-12.915-.675 2.745 1.215 5.49.855 1.305 1.845 3.915l.99 1.575q.675.54 1.935.72 1.62.225 3.645-.045 2.475-.315 4.59-1.305-4.185 7.74-12.015 17.82-7.29 9.404-8.46 9.404-1.71 0-4.275-4.41-2.565-4.455-2.16-7.11.54-3.51 5.49-13.14"/><path fill="#7c70a4" d="M29.34 221.308q1.575.495 1.935 1.98.315 1.62 2.295 1.575 2.7-.09 5.04-1.17-.855 3.15-5.805 11.7-5.175 9.045-7.38 10.53-2.295 1.53-7.425 1.62-5.04.045-5.49-1.26-.225-.72 2.25-7.11 2.475-6.435 4.815-11.115l5.94-8.64q2.79 1.62 3.825 1.89"/><path fill="#7c70a4" d="M33.975 252.943q-1.08.54-1.395.315-.315-.225-.18-1.35.63-5.67 6.075-27.81 4.725 3.465 6.39 3.465.81 0 2.97-1.35t4.14-3.195q.09 4.05-.81 9.225-.9 5.22-2.025 7.38-1.215 2.295-6.03 6.615-5.13 4.635-9.135 6.705M56.43 221.353l2.52-2.43q.495-.674 1.035-.63l1.125.316 1.845-.09q1.035-.36 1.89-1.08.9 3.015 1.485 7.2.63 4.68.18 7.02-.405 2.34-4.95 5.49-4.365 2.97-5.625 2.474-.72-.315-1.935-6.48-1.17-5.76-1.35-8.91l3.78-2.88M74.024 208.124l2.88 6.66q1.665 4.365 1.62 5.715-.045 1.35-2.655 4.77-2.384 3.06-4.68 5.13-.764.674-1.304.314-.495-.36-.54-1.215-.135-2.7-1.485-6.615-1.305-3.87-2.97-6.434l5.22-.45q.63-.45 2.025-3.24t1.89-4.635M138.15 248.713q.27-6.84 1.394-11.7 1.17-5.04 3.555-9.45 4.95 4.86 10.305 9.315 6.57 5.445 11.205 8.055 2.565-21.645 7.425-32.22 7.065 2.61 15.12 6.076 8.37 3.6 13.86 6.434 1.35.72 1.755 1.575.36.765.18 2.25-2.655 21.645-4.86 30.69-4.635-.54-14.22-2.745-10.035-2.34-15.255-4.23-1.44 1.575-3.42 8.37-2.07 6.84-2.385 11.565-4.185-1.485-8.235-3.465-5.985-2.97-9.225-6.075-5.4-7.785-7.2-14.445M137.61 325.348q2.07-1.26 4.634-1.305 2.52-.09 4.815 1.125 1.665.855 2.61 2.025 1.08 1.305.045 3.645-1.44 3.195-.99 7.83.45 4.59 2.475 7.425 1.08 1.62-.855 1.845-3.465.405-6.795-1.665-3.42-2.115-5.175-5.805-.135 2.295 1.17 5.625 1.08 2.88 2.34 4.545.585.72.45 1.035-.135.36-1.125.495-1.485.225-3.915-.45-2.43-.63-4.185-1.755.675 2.925 4.005 7.11l.585 1.125q-.09.315-1.125.36-7.425.315-13.275-6.21-5.445-6.12-4.05-10.89.405-1.305 2.7-1.845 2.205-.54 3.87.045-.585-1.755-.675-3.42-.045-1.575.405-2.52.765-1.755 4.185-2.34 3.195-.54 5.49.405-.225-2.16.36-4.32.36-1.035 2.025-2.115M183.419 361.393q1.215 1.305 1.44 2.97.315 2.385-1.8 4.41-2.07 1.98-4.725 2.204-2.385.225-6.12-1.62-3.42-1.71-5.535-3.87-.765-.764-.495-1.214.27-.45 1.305-.36l4.05-.585q2.385-.81 3.375-2.115 1.935-2.565 5.31-1.665 1.935.54 3.195 1.845M228.508 413.097q-.855 3.015-1.08 8.325-.135 4.725.27 7.695.18 1.305-.18 1.575-.315.27-1.35-.225-4.365-1.98-7.74-7.785-3.464-5.895-3.374-11.43 1.305 1.8 3.24 3.24 1.8 1.395 2.924 1.485 2.475.225 7.29-2.88M238.318 416.427q1.17 1.755 3.465 2.745 1.98.855 3.87.9 1.62.09 4.185-1.125 2.52-1.17 4.185-2.745.27 4.095-.27 9.99-.45 5.4-1.26 9.18-.315 1.665-1.8.63-4.455-3.15-8.145-9.09-3.69-5.85-4.23-10.485M261.178 411.612q2.61 3.195 6.84 3.15 4.05-.045 6.165-2.79-.09 4.32-2.79 9.675-2.88 5.76-6.615 8.055-.945.585-1.35.36-.36-.225-.36-1.35 0-3.195-.45-7.74-.54-5.265-1.44-9.36M302.173 176.624q2.565.765 6.705 1.35l5.58.45q.36 10.665-3.375 28.575-4.095 19.304-10.035 31.77l-6.975-4.276q1.08-5.4-1.035-10.08 1.53-5.354 1.395-12.15 1.215 2.116 1.53 4.726 1.755-1.71 2.745-5.76.855-3.555.765-7.29l4.77-3.285q2.61-2.16 2.52-2.745-.135-.495-2.655-1.485l-5.76-2.115 5.67.945q3.42.27 4.59-.495 1.8-1.17 4.275-9.135l.18-1.305q-.135-.405-1.125-.81-4.32-1.575-9.675-4.32l-.09-2.565M314.458 161.684l.09 3.69-3.285-2.115q-1.71-1.305-2.34-2.295l5.535.72M312.748 139.634l.765 6.84q-11.655-4.5-17.145-7.605l8.955 1.035 7.425-.27M305.638 127.62q1.395-.54 3.87-.496l3.195.27q.855.18 1.215 0l.81-.81 2.925-3.96 6.165 3.645 2.025 3.51q.81 1.35-.63 2.205-.765.54-3.285 1.53-2.88 1.08-4.14 1.125-2.07.045-12.15-7.02"/><path fill="#7c70a4" d="m335.383 118.664 15.075 5.535q2.205 2.475.225 3.285-2.79 1.08-7.695 2.385-5.535 1.485-7.515 1.44-1.98-.045-7.425-2.79-4.365-2.16-8.37-4.635l6.255.36 4.86-.765q2.205-.855 4.59-4.815M361.573 127.08q-8.19-1.756-12.87-3.6 2.475-.226 5.085-1.306 2.16-.945 3.15-1.89.765-.72 2.205-4.68l2.025-6.48q4.365 1.215 7.47 1.395 2.88 1.305 9.674 3.825l11.205 4.005q1.125.405 1.125 1.035-.045.585-1.08 1.17-12.33 7.65-15.84 8.01-3.42.36-12.15-1.485M422.772 97.29q2.205.45.585 2.25-3.69 4.23-8.37 8.054-5.31 4.275-8.28 4.95-3.195.72-15.525.09l-21.375-1.935q3.42-.36 9.36-2.835 1.08-.45 2.205-2.385l1.665-3.465q1.17-2.655 3.78-4.995 1.305-1.17 1.26-2.79-.09-1.8-1.755-4.59 8.37 2.115 36.45 7.65M382.407 85.544q0-2.205 2.25-4.185 3.42-2.925 4.725-8.55.54-2.16-1.125-7.02-1.395-4.05-3.465-7.874l-1.935-3.15q-1.08-1.755-1.575-2.97 12.78.135 29.88 4.725 15.255 4.05 17.73 6.57 1.08 1.125 1.17 7.785.045 6.84-1.35 8.1-2.52 2.25-18.315 4.77-16.875 2.654-27.99 1.8M250.783 78.614q-3.915-1.485-9.675-.72-4.815.585-9.81 2.565l-1.755.18q-.495-.27-.135-1.215 3.915-8.954 15.705-15.794 12.6-7.38 26.73-7.47 3.195 0 4.185 1.035.945 1.035 1.26 4.725.585 7.335-2.925 17.1-3.15 8.73-8.685 17.28-5.265 8.054-10.44 12.644-5.4 4.725-8.19 3.33-4.455-2.205-3.285-13.545 1.17-11.43 7.02-20.115"/><path fill="#7c70a4" d="M229.408 85.184q-9.27 11.025-22.814 11.025-16.65 0-26.64-15.435-8.775-13.5-8.46-30.78.315-19.034 12.735-33.434 13.32-15.57 32.94-15.3 22.86.315 43.38 17.37 18.81 15.66 26.999 37.395l-12.465.765q-1.755-.765-6.03-.63-4.86.09-9.405 1.35-2.835-1.665-6.66-1.485-4.59.225-7.515 3.375-4.005-1.845-6.975-2.385.36 16.874-9.09 28.17"/><path fill="#007c36" d="M104.04 163.034q-3.466 4.725-7.156 7.2-1.845-7.02-6.84-11.34-4.005-3.465-9.405-4.68.045-3.375-1.755-6.93 3.6 2.79 12.465 8.235 7.29 4.5 12.69 7.515"/><path fill="#fdd23f" d="M242.413 65.07q1.26-5.67 6.48-7.965 5.31-2.295 10.845.765-9.135 1.395-17.325 7.2M294.073 234.763q-.765-.63-1.26-.54-.495.09-1.305 1.035-3.735 4.5-5.94 7.605-2.025-.855-3.375-3.06-1.035-1.71-1.98-4.95-.765-5.22.945-9.135 1.89-4.275 5.85-4.41 4.185-.09 6.3 4.005 2.115 4.05.765 9.45"/><path fill="#7c70a4" d="m160.739 170.729 6.345 1.485 5.85 1.665 1.215 2.745q.135.495-.18.855l-.72.405q-.405.09-1.08.495l-1.125.9q-.9.81-2.25.36-3.51-1.125-7.695-.945-4.095.135-6.75 1.44l-1.26.495q-.45 0-.945-.495-.99-.99-2.25-3.285-1.305-2.475-1.125-3.195.18-.72 4.455-1.665l7.515-1.26M169.064 184.724q.27.54 1.17.99.765.36.315 1.215-.45.99-1.26 1.305-.585.27-3.285-.495-2.7-.72-4.365-1.62-1.17-.63-1.62-1.89-.225-.585-.135-.81.09-.27.675-.45 2.79-.72 4.995-.405 2.655.36 3.51 2.16M256.498 273.193q5.535 2.79 7.065 4.86.675.945 1.8 3.735 1.08 2.7 1.125 3.42l-.495 2.565q-.585 1.935-1.215 2.385-.675.495-2.205.495l-3.06-.54q-1.935-.675-5.58-4.005-3.735-3.42-4.32-5.22-.405-1.215-.18-5.265.225-4.14.9-4.59.765-.54 6.165 2.16M261.493 294.208q1.395 0 4.77 8.325.09.675-.315 1.665-.45 1.08-1.035 1.035-.675-.09-2.745-3.645-2.115-3.645-2.16-5.13-.045-.81.45-1.53.45-.72 1.035-.72"/><path fill="#fdd23f" d="M112.814 202.994q6.03-2.97 10.035 2.295 3.78 5.04 1.395 10.17-.945 2.07-3.555 2.835-2.97.855-6.075-.945-2.115-7.29-1.8-14.355"/><path fill="#fff" d="m143.189 187.919-1.845 10.53q4.5-.945 9.945-1.035-4.86 3.735-10.62 11.025-4.545 5.805-7.47 10.8 1.8 3.42 3.375 9.854l-8.865.315-1.26 2.385 5.22 2.07q-2.025 2.52-5.85 4.5-3.24 1.665-7.245 2.655-1.62-.945-3.735-3.735-1.845-2.475-3.465-5.49-2.655-2.205-6.03-6.66-7.965-5.444-13.635-10.17 3.375.54 10.125 2.43.72 2.116 2.52 4.005 1.935 2.025 4.14 2.79-.18-1.26-.045-3.24 6.75.63 12.6.27 1.8-2.79 3.465-6.12l2.97-6.39q0-4.86-.675-13.14-.675-8.01-1.71-16.02 4.095 5.04 8.415 14.446 4.545-7.155 10.8-15.075l-1.125 9"/><path fill="#fff" d="M115.694 207.539q.315-.495 1.35-.315.945.18 1.89.72l1.665 1.485q.765.99.45 1.44-.405.495-1.485.36-.945-.18-1.98-.765l-1.62-1.44q-.63-.945-.27-1.485M149.939 129.06q4.41.494 7.515 4.364 3.465 4.32 4.5 11.925 4.095-2.52 7.695-1.575 3.33.855 4.995 4.32 1.71 3.555.81 8.19-.99 5.13-4.995 9.945 2.745-1.26 4.41-.09 1.125.765 1.17 3.33.045 2.79-1.53 4.86-12.375-4.59-29.205-6.345-16.515-1.755-26.685.27-9.675 1.935-13.995 7.47-4.05 5.22-3.87 14.265.045 2.745-.405 5.895l-1.215 6.705q-5.265 6.075-15.48 1.44-10.124-4.68-15.48-15.48-4.95-9.945-2.61-20.835 2.296-10.575 9.135-12.735 6.84-2.16 12.96 1.845 6.39 4.185 9.225 13.41 11.655-8.685 13.545-26.19 1.98-18.36-8.595-33.93 9.585.405 18.9 9.81 5.085 2.97 9 7.65 4.185 5.085 6.165 11.25 2.07-4.95 6.03-7.65 3.87-2.61 8.01-2.115"/><path fill="#e60039" d="M185.174 279.673q.09-2.745 1.98-.54l5.76 5.85q3.465 3.195 6.66 5.535 1.08.81.99 1.395-.09.585-1.395.765-1.98.27-5.625.09-4.59-.27-6.075-1.17-1.485-.9-2.025-5.85-.405-3.465-.27-6.075"/><path fill="#00662a" d="M47.565 149.534q5.175 4.23 10.305 6.66 4.86 2.295 8.28 2.34l.945 3.375q-2.97 6.57-2.385 14.175.54 7.2 4.14 13.815 3.555 6.615 9.134 10.845 5.895 4.455 12.69 5.22 5.31 5.49 8.55 6.345 1.395 3.285 2.79 5.13-4.77-1.485-10.575-2.565 8.775 6.255 13.95 10.484l-3.015-.045-1.89-.225q-.765-.135-4.545-4.68l2.07 4.23q-2.115-2.52-6.705-6.164l-7.92-6.03q1.98 3.51 3.375 9.99-2.835-5.175-7.74-11.34l-8.55-10.035q1.71 2.43 3.645 6.93-1.214 3.645-2.924 6.39-3.96-5.085-11.97-13.32 2.97 5.94 5.49 16.38-1.845 1.35-4.32.99-4.23-9.54-8.595-15.21.855 8.865.225 19.574l-3.6 2.97q-1.35-10.934-4.5-20.294-1.53 8.505-5.58 18.404-2.475.99-4.905.81 2.25-12.24 1.8-24.614-2.16 6.39-7.56 15.48l-5.085.765q4.68-9.855 7.11-18.18l1.62-5.31q.855-2.43 1.89-4.365 1.035-1.89 1.8-4.68l1.125-4.635q5.13-21.645 11.43-29.61"/><path fill="#665b88" d="m22.59 216.314 5.085-.765q-4.455 7.514-9.855 14.804-5.355 7.2-9.585 11.43 8.775-13.635 14.355-25.47M32.49 236.068q-3.105 5.625-6.12 9.45 4.77-8.505 7.065-20.835 2.43.18 4.905-.81-2.61 6.39-5.85 12.195M48.42 225.763l3.6-2.97q-.81 12.645-3.285 16.875.585-5.85-.315-13.905M60.39 218.429q2.475.36 4.32-.99 1.62 6.794 1.935 10.08l.045 3.51q-.18 1.26-1.08 2.43-1.62-7.11-5.22-15.03M74.114 207.989q1.44 3.195 2.745 6.885l1.35 4.095q.315 1.17.045 2.16l-1.17 2.34q-1.98-4.05-5.894-9.09 1.71-2.745 2.924-6.39"/><path fill="#00662a" d="m385.827 80.144-1.62 1.755q-1.35 1.485-1.845 3.6-16.424-.225-26.28-3.015-6.3-1.755-17.64-4.005-13.544-2.7-19.98-3.015 8.056 8.415 18.946 15.3 11.205 7.065 24.39 11.835 6.255 2.25 17.594 4.95-2.655 1.71-8.82 3.015l-9.99-1.53q-5.22-1.125-22.094-8.235-20.835-8.775-24.255-10.035 4.86 6.66 15.075 14.58 12.105 9.36 26.19 15.93-2.97 1.44-6.66 2.43-12.24-4.005-23.85-9.72-12.06-5.94-17.955-11.07 9.09 11.925 22.815 20.835l-4.185.585-4.86-.18-4.23-2.52.585 1.89q-1.755 1.98-2.295 3.06-.72 1.395-2.25.99l-3.375-.36-3.915.405-7.74-5.22q4.455 6.39 7.2 9.54 2.88 3.285 8.01 7.695-2.97.945-11.43 0-9.09-.945-14.13-3.24 6.525 7.74 14.805 14.445 7.425 6.075 13.86 9.405v.855q-.045.54-.315.585-2.79.72-13.68-2.205-9.63-2.61-13.86-4.545 4.77 5.94 11.79 11.61 7.425 5.985 15.3 9.99 0 .72-.495 1.53t-1.08.72q-25.47-4.005-42.39-15.39 4.95 5.67 17.82 14.895 11.88 8.55 21.96 14.175-1.98 3.33-5.94 2.88-8.64-1.125-15.3-3.105-8.775-2.61-16.065-7.155 4.725 4.905 12.285 9.585 8.775 5.49 16.47 7.245-2.655 2.385-4.5 2.7-5.22.81-15.84-1.35-11.16-2.25-18.81-6.03 5.265 5.04 9.225 8.235 5.04 4.05 12.06 8.595l-2.385 2.655q-1.665 1.395-3.015 1.395-1.755 0-10.305-3.105-9.315-3.42-13.815-6.075 6.84 7.74 16.335 14.264-1.44 1.215-3.015 2.07-1.755.945-2.7.945-1.125 0-9.27-3.285-8.505-3.464-12.15-5.58l6.03 8.1q2.925 3.51 6.255 6.165l-3.555 1.98q-2.16 1.035-3.06.72-5.715-2.025-14.49-8.235-7.245-5.13-10.71-8.594-2.34.135-5.22-.855-2.564-.855-6.614-3.015-5.85 1.44-12.51-2.16-6.705-3.645-6.705-8.37 0-7.425 5.535-12.285 4.995-4.32 11.475-4.455 7.065-.225 9.765-7.56 4.994-13.635 11.7-25.92 5.67-10.395 13.634-21.78 1.35-1.935 3.06-6.345 2.025-5.31 2.565-6.345 3.105-6.3 4.275-9.81 6.66-5.49 13.005-16.965 6.705-12.195 8.01-22.41 9.36-1.53 17.1-1.98 9.54-.584 18 .316 9.09.99 21.33 3.375 14.715 2.88 30.105 7.154 5.265 1.44 22.634 2.07"/><path fill="#665b88" d="M312.613 127.574q1.53.405 2.25-.99.54-1.08 2.295-3.06 1.755 5.22 5.625 9.585-1.575.81-3.195 1.26l-2.43.315q-1.08-.225-11.835-7.065l3.915-.405 3.375.36M329.848 123.75q5.85 3.78 11.52 6.434-2.97 1.035-5.985 1.035-.855 0-5.535-2.295l-9.045-4.77 4.86.18 4.185-.585M363.238 127.53q-6.345-1.17-14.4-3.826 3.69-.99 6.66-2.43 9 4.23 18.45 6.975-3.916.585-10.71-.72M391.047 112.274l-20.475-1.71q6.165-1.305 8.82-3.015 14.805 3.51 27.27 4.5-4.095.765-15.615.225M382.362 85.5q.495-2.116 1.845-3.6l1.62-1.756q12.735.45 24.525.135 12.96-.36 18.81-1.53-4.455 3.195-18.36 5.13-13.41 1.845-28.44 1.62M221.533 34.2q-4.994-.135-9.674 2.925 4.815-4.995 13.004-6.21 7.83-1.125 16.56 1.485 8.955 2.7 16.2 8.595 7.83 6.39 11.79 15.165-4.23.09-10.26 1.755-1.62-2.025-6.3-1.755-5.085.27-7.695 3.33-2.475-1.44-6.975-2.655.855-13.23-7.92-19.62-3.96-2.925-8.73-3.015M232.783 80.01q-4.275 7.83-11.7 12.194-6.974 4.14-14.85 4.14-18 0-28.08-18.225-4.23-7.65-5.804-16.694-1.53-8.775-.135-16.29.63 13.32 8.865 23.085 7.695 9.09 18.99 11.97 11.475 2.924 21.554-1.98 11.115-5.355 16.74-18.675.09 4.5-.63 9-2.295 1.53-4.77 4.68-2.61 3.33-3.33 5.894-.27 1.125.18 1.395.63.36 2.97-.495M305.998 199.349q-1.665 19.53-8.73 37.034l-3.195-1.62q.945-6.975-1.26-10.215.945-2.565 1.575-6.03.765-4.184.45-6.794l1.125 5.175q1.755-1.62 2.745-5.04 1.08-3.6.99-7.875l6.3-4.635M306.223 143.594q-6.345-2.745-9.09-4.32l8.415.81.675 3.51M302.308 176.714q2.295.765 5.715 1.08l-.18 4.005q-3.105-1.26-5.58-2.61l.045-2.475M63.225 138.33q1.035 6.614 2.295 11.159 1.215 4.545 3.33 9.675l-1.53 2.925q-1.62-3.78-2.925-11.205-1.35-7.56-1.17-12.555M90.674 205.964l3.06-.225 2.655-.855q1.89 5.4 3.195 7.965-4.725-2.295-8.91-6.885"/><path fill="#665b88" d="m64.8 142.019-1.035-3.06-.855.36.225 4.77-1.125 1.8q-1.35 2.43-3.195.63-1.89-1.8-.405-4.095 2.295-3.555 8.19-5.265 5.67-1.71 10.71-.585-2.25.9-3.6 1.035-5.31.585-8.91 4.41M66.15 158.534q-2.07.045-6.21-1.575-4.365-1.71-8.235-4.275-10.26-6.75-8.235-12.915.99 4.455 7.425 8.055 6.03 3.33 13.455 4.185l.72 2.925 1.08 3.6M70.65 157.139l-2.025-4.905q3.51-.09 6.164-.99 2.88-.99 4.275-2.88.72.99 1.26 2.745.45 1.575.54 3.015-6.705-.54-10.214 3.015M229.408 80.82q4.095-5.266 13.32-6.93 9.945-1.755 16.38 3.24 2.835 2.204 1.125 4.68-1.665 2.474-4.05.044-4.005-4.05-11.25-4.185-6.705-.09-15.525 3.15M243.673 104.444q-.63-7.965 2.7-15.435-.945 8.145 1.395 11.61 2.205 3.195 6.57 1.935 4.23-1.215 9-6.03 4.995-5.04 8.865-12.285-4.095 9.675-11.88 18.81-8.28 9.72-13.005 9.225-3.06-.315-3.645-7.83M183.284 368.278q-1.98 2.61-4.86 2.654-3.195.09-6.75-1.8-3.735-1.89-5.94-4.95 3.87 2.116 9.675 2.026 6.075-.09 9.63-2.745 0 2.52-1.755 4.815M149.714 330.658q-1.845 4.005-.945 9.225.765 4.455 2.925 7.47-9.27-6.84-8.145-23.22 8.37 1.665 6.165 6.525M130.094 331.423l4.995.27q.495 4.185 3.195 8.865.225 5.715 4.14 11.07-5.625-2.925-8.865-8.685-2.835-5.04-3.465-11.52M121.95 339.658l2.024-.27 1.98.27q.63 2.925 2.7 5.76 1.845 2.52 4.41 4.5.765 2.475 2.205 4.68l2.79 3.555q-6.12-2.745-10.35-7.65-4.14-4.815-5.76-10.845M221.623 416.022q3.375-.405 6.93-3.06-1.17 3.51-1.125 10.26l.045 7.425q-1.98-3.375-3.375-6.93-1.215-3.105-2.475-7.695M246.958 420.027q2.565-.945 3.915-1.71l2.97-2.115q.36 5.085-.27 12.15-.675 7.38-1.755 7.92-3.285-6.93-4.86-16.245M267.568 414.492q-.135 4.05-1.125 8.19-1.17 4.725-2.925 7.47-.18-.36-.81-8.01-.675-7.92-1.35-9.99 1.44 1.26 2.835 1.8l3.375.54"/><path fill="#00662a" d="M120.69 194.849q-2.656 3.33-3.87 6.885-2.07 0-3.736.99 1.89-2.835 3.105-4.275 2.25-2.61 4.5-3.6M118.124 218.609q.045 1.44.315 2.79h-2.43l-1.62-4.365q2.115 1.215 3.735 1.575M133.874 220.724q5.04-2.205 9.99-9 5.13-7.02 5.625-13.05 1.17 9-2.565 17.1-3.375 7.47-10.26 13.05-.855-2.926-2.79-8.1M135.9 229.363l-3.016 2.07-3.015 1.71-3.42-1.395 1.44-2.43 8.01.045M155.294 230.533l3.105 3.42q1.485 1.665 2.07 1.62.54-.09 1.215-2.205l1.26-3.78q.225 3.6.81 7.2.63 3.69 1.305 5.805l-.54 2.61-4.5-3.15-2.205-5.85q-1.44-3.87-2.52-5.67"/><path fill="#00662a" d="M143.099 227.563q-1.935 2.565-3.195 7.605-1.035 4.095-1.44 8.91l-.945.405q-.495-10.755.54-16.965 8.01-6.614 11.025-17.28 3.15-11.024-2.115-16.694 3.87 1.665 7.47 6.435 3.735 4.995 5.4 11.115 4.185 15.39-7.02 25.514l-4.635-4.23-5.085-4.815"/><path fill="#665b88" d="M138.464 244.078q.405-4.815 1.44-8.91 1.26-5.04 3.195-7.605l5.085 4.815 4.635 4.23q-1.71 1.98-6.075 4.275-4.455 2.34-8.28 3.195"/><path fill="#00662a" d="M239.263 343.303q-4.95-3.51-9.675-9.72-5.265-6.84-8.594-14.94 6.21 6.84 14.804 11.205 8.37 4.185 13.86 3.51 6.165-.72 13.32-10.845 6.93-9.765 8.865-19.53.225 8.1-2.205 20.295-2.52 12.51-6.345 21.555-1.17 2.835.225 7.56l1.125 4.86q.54 2.835.54 4.14 0 1.26-.9 4.185l-1.665 4.454q-1.215 2.52.54 6.66-3.06-4.41-15.345-4.185-12.51.27-18.45 5.355 8.775-11.114 10.575-16.2 2.7-7.514-.675-18.36M191.924 292.678q3.555.36 7.065-.09 1.44-.225 1.62-.81.225-.63-1.08-1.53 6.165-1.35 11.52-4.095 5.535-2.835 9.315-6.75-1.665 5.625-2.475 12.015-.99 7.65-.405 14.22l-6.21.54q-4.32-.135-7.335-1.395l-.9 1.98-2.115 2.025q-2.025 1.665-2.655 7.065-.63 5.805.9 12.285.585 2.475.135 3.915-.495 1.71-2.565 2.61l-3.42 1.44q-1.575.72-1.935 1.35-1.35 2.205-.81 7.47.585 5.445 2.835 9.36.54.945.54 1.89-.045.81-.54 1.98l-1.935 3.96q-1.575 3.015-2.7 4.41-1.44 1.845-3.285 2.88-2.16 1.26-3.96.674 1.89-.855 2.835-2.474.81-1.53.63-3.24-.225-1.8-2.475-3.51-2.475-1.89-4.95-1.71.675-1.845 2.52-3.195l-1.44.405-1.485.63q-10.71-15.75-16.65-15.12l-3.33-.135q-2.07-.315-2.835-1.08-.9-.855-2.295-1.125-1.575-.27-3.015.405-.36-1.8-.27-4.23.09-2.61.63-3.69 1.53-3.195.495-4.77-1.305-1.845-7.335-3.69 1.575-6.12 4.05-9.72.855-1.26 1.845-1.53l2.385.225q5.535 1.755 11.835 6.39 2.475 1.845 5.76 1.98 2.79.09 4.815-.945-1.98-.135-3.825-.945-1.935-.855-3.015-2.16-.81-.99-4.32-3.69l-5.58-4.41q8.325 1.215 12.735-6.57 4.41-7.875.585-17.82l5.04 2.79q3.51 1.935 5.67 3.33l6.66.9q1.125.945 4.725 1.305M135.224 317.338q-1.89 4.545-2.16 8.46-.225 4.05 1.485 5.85-4.005-1.035-7.74.45-.63-2.97-.585-6.03 0-3.105.675-5.13.63-1.935 2.835-2.79 1.98-.765 5.49-.81M121.634 329.938q.63 7.11 3.645 7.155l.675 2.565q-5.4-.81-6.93 1.98-1.53-5.175-1.215-8.595.09-.81 1.26-1.755 1.17-.99 2.565-1.35M220.859 416.022q-1.215-.225-3.6-2.475-2.385-2.16-3.15-3.69-.945-1.98-.855-3.735.18-2.655 2.61-5.625-.945 3.6 1.26 7.155 1.98 3.15 4.05 3.33 1.71.18 4.14-1.35 3.014-1.935 4.77-5.535l-.27 5.355q-.406 3.105-2.026 4.005l-3.78 1.935q-2.025.855-3.15.63M251.998 406.527v-5.58q3.06 9.315 3.06 11.25 0 2.97-2.25 5.175-2.475 2.43-6.75 2.835-3.105.36-5.985-1.665-2.385-1.71-3.375-3.87-.765-1.665-.315-6.525.945 3.285 4.005 5.715 2.61 2.07 4.635 2.07 2.115 0 4.05-.855 2.475-1.08 2.7-3.105l.225-5.445M259.468 406.887q0-2.07-.99-6.435 2.385 3.96 3.51 7.785.45 1.62 2.61 2.43 2.07.81 4.41.405 2.295-.405 3.6-2.97 1.755-3.42-.225-8.775 2.025 2.925 2.79 6.12.855 3.825-.63 6.075-1.98 2.925-5.76 3.33-3.6.36-6.075-1.53-1.62-1.26-2.52-3.33-.72-1.71-.72-3.105M235.033 386.862q.315.405 1.035.63l1.53.09-.36 2.295-1.62-.09q-1.035.225-1.89 1.17l1.305-4.095M251.008 388.122l1.08.72 1.44 2.295q-1.485-.09-2.61.495l.09-3.51"/><path fill="#c70030" d="M186.749 290.788q1.53.09 4.32-1.08 2.475-1.035 4.455-2.385l4.275 3.15q.945.63.99 1.17 0 .585-1.35.855-2.34.45-6.66.135-5.265-.36-6.03-1.845"/><path fill="#dab636" d="m244.573 77.714 3.015.09 2.97.63-1.485 2.79q-2.295-1.035-4.5-3.51M292.768 174.149l9.225 2.25.225 3.015q-4.095-1.71-9.45-5.265M292.813 204.659l6.795-.45q.09 3.96-.855 7.47-1.035 3.735-2.88 5.4-.225-2.385-1.575-6.525-1.125 1.125-3.15 1.08-1.845-.09-3.285-1.035l1.575-2.295q.54-1.035.36-1.305-.225-.36-3.915-1.395l-.09-1.71 7.02.765M280.393 231.838q1.035 4.455 4.41 4.32 3.33-.09 3.78-4.365.855 3.015.225 6.525l-1.8 2.295q-1.035 1.305-1.44 2.25-1.305-.63-1.935-1.125-.81-.63-1.35-1.575-2.43-4.545-1.89-8.325M292.048 224.368q1.62 1.935 2.115 5.04.36 2.52-.09 5.355-.81-.63-1.575-.18-.63.36-1.53 1.665 2.25-4.905 1.08-11.88"/><path fill="#dcdddd" d="M97.29 172.079q.63 5.715-1.216 9.315-1.845 3.6-5.49 3.87-3.735.225-6.435-2.745-2.88-3.15-3.375-8.73 1.035 3.6 3.69 5.265 2.34 1.53 5.265 1.125 2.88-.405 4.95-2.52 2.25-2.25 2.61-5.58"/><path fill="#dcdddd" d="M77.58 200.654q-5.715-4.68-9.135-11.655-3.69-7.605-3.465-15.705.54 5.805 5.085 11.205 4.14 4.905 10.26 8.01 6.12 3.015 11.474 2.925 5.805-.045 8.595-3.87 0 6.435-1.035 10.755-4.185 4.23-10.305 3.555-5.805-.63-11.475-5.22M114.884 114.57q6.705 4.544 10.08 12.284 4.365 9.99 2.565 24.21-.405 3.105-2.475 2.52-2.07-.585-1.665-3.51 1.17-8.64-.18-16.83-1.89-11.25-8.325-18.675M136.89 155.699q-.36 2.115-1.89 1.755-1.53-.405-1.216-2.565 1.935-12.33-2.835-25.515 8.28 11.565 5.94 26.325M161.459 161.684q-.495 2.34-1.935 1.935-1.485-.405-1.035-2.655 1.485-8.325 1.44-13.905-.045-7.83-2.88-13.635 8.73 8.01 4.41 28.26M173.834 147.149q3.06 3.465 1.44 9.9-1.62 6.435-6.885 11.925-1.26 1.26-2.25.135t-.09-2.16q8.865-10.035 7.785-19.8M175.184 166.184q1.035 1.26.675 4.005-.315 2.655-1.485 4.095l-2.7-1.17q2.79-2.52 3.51-6.93M125.774 180.899q2.835 2.7 7.965 13.41-.54.9-1.53 1.125-1.035.18-1.26-.9-.36-1.755-2.295-6.39l-2.88-7.245M143.819 179.594q-.675 10.485-2.745 19.53-1.215.225-1.8-.225t-.225-1.35q1.89-5.31 4.77-17.955M132.84 219.914q-.586-1.26-.54-1.98 0-.675.584-1.62 3.735-6.075 8.01-10.755 5.22-5.76 10.125-8.1-10.8 9.585-18.18 22.455M136.664 228.823q-3.645.855-9.495.225l.99-1.35q.495-.405 1.17-.27l7.335 1.395M111.69 232.468q-3.6-6.795-2.97-11.34 1.71 5.4 4.41 9.945 2.474 4.095 5.04 6.345.854.72 1.89.585 2.34-.45 5.804-1.71 3.375-1.26 5.805-2.61-1.8 2.43-5.58 4.5-3.6 1.935-7.38 2.7-3.555-1.89-7.02-8.415M328.138 221.039q-3.69 3.644-3.825 7.784l8.01 6.525-.09 8.865-9.27 13.5q.585 8.955.27 12.195-.18 2.43-1.575 3.69-5.805 6.435-7.335 8.64-1.08 1.575-3.735 1.935l-4.455-.135-2.52-.09q-1.125.27-2.025 1.26l-4.86 4.365-4.545 3.465q-1.53.945-2.34 1.935-1.035 1.215-1.395 2.925-1.08 4.725-3.6 8.235-2.475 3.42-4.635 3.24l-4.05.09q-2.61.225-4.455.72.99-11.61-.765-20.16-1.71-8.145-7.2-19.44 1.125-2.295 4.365-5.265 2.475-2.25 5.175-4.095.495-.315 1.035-.315l1.215.315q14.805 5.175 19.89 8.19l1.35.63q.765.18 1.35-.405l6.075-6.525q1.035-1.17 2.385-.855l3.915.585 3.015-.405q2.205-.945 3.42-3.15 1.26-2.25 1.89-6.525.405-2.835 2.61-4.545 1.125-.855 2.655-1.485.36-.225 1.035-.315.585-.18.9-1.08.36-1.17 0-3.15-.09-.54-1.35-1.485l-2.25-1.395q-2.115-.9-3.825-2.835-2.115-2.43-2.25-5.22-.225-6.12 4.365-10.934 4.455-4.68 10.71-5.355l1.8.045q1.125.315 1.485 1.755-.09 1.215-1.395 1.17-1.98-.045-5.175 3.105M203.939 304.783q3.195 1.17 7.02 1.35l6.525-.495q.315 4.68 3.285 13.86-1.98.27-3.375-.765-1.395-1.035-1.71-3.195-.135-1.125-.99-1.35l-1.305.18q-1.26.585-2.43.27l-1.62-.495-2.34-.36q-1.17 0-2.115-.63-.72-.54-.9-1.17l-.72-1.485-1.395-2.34q.99-1.125 2.07-3.375"/><path fill="#00662a" d="m112.094 221.039-3.51-.18-.09 1.034q-1.17-.54-2.16-1.934-.72-1.035-1.845-3.24 1.35 1.35 2.07.855.675-.495.675-2.565l2.52 3.555q1.125 1.485 2.34 2.475"/><path fill="#0f141b" d="M118.754 208.619q-.9-.54-1.71-.72l-.9.045q-.405.585 1.755 2.025.99.63 1.845.765l.9-.09q.09-.18-.405-.765l-1.485-1.26m2.745 2.52q-.315.675-1.575.675-1.305 0-2.655-.9-1.305-.81-1.89-1.89-.54-.99-.135-1.71.315-.585 1.44-.54 1.26 0 2.7.945 1.35.855 1.935 1.89.495.9.18 1.53"/><path fill="#0f141b" d="M140.534 198.314q1.665-6.66 2.745-16.875-2.97 3.78-9.495 12.96-.63.9-1.125-.135l-3.285-6.975q-1.44-2.7-3.195-5.265 1.89 16.785 2.115 26.955l-.045.18q-2.205 5.355-6.075 11.34l1.17-.135q1.575-.18 1.62.315.09.495-1.485.72-6.75.944-14.535.27-.09 4.004 3.15 10.214 3.285 6.21 6.615 8.37 7.785-1.89 12.105-6.21-2.385-.675-4.725-1.71-.765-.36-.36-.99l1.35-2.16q.315-.54.855-.495 4.545.27 7.965 0-.855-3.285-3.285-9.27l.045-.404q2.295-4.725 7.515-11.115 4.455-5.445 9.045-9.765l-7.965.945q-.99.18-.72-.765m1.44-.675 8.91-.855 1.125.18-.63.9q-4.5 4.05-9.315 9.765-5.67 6.75-8.1 11.655 2.205 5.49 3.375 9.854l.045.54-.54.18q-3.735.585-8.64.18l-.9 1.305 4.995 1.8q.945.36.27 1.035-5.085 5.49-13.68 7.515l-.765-.09q-3.78-2.295-7.335-9.27-3.6-7.02-3.06-11.43l.18-.494.54-.09q6.84.675 12.105.315 4.05-5.94 6.39-11.925-.225-9.9-2.385-28.98-.135-1.17.225-1.305.36-.18 1.125.855 3.915 5.22 7.515 13.41 3.285-4.995 10.17-13.95.81-1.08 1.125-.945.315.09.18 1.485-.99 10.17-2.925 18.36"/><path fill="#0f141b" d="M115.2 221.353q-3.466-7.694-2.88-18.404l.044-.18q1.98-4.185 7.11-7.875 1.215-.855 1.485-.495.27.405-.9 1.35-4.5 3.555-6.435 7.425-.45 9.99 3.33 18.18H115.2"/><path fill="#0f141b" d="M113.264 202.004q4.185-2.835 9 1.395 4.995 4.365 3.24 11.025-.99 3.78-4.59 4.725-3.375.945-6.21-1.125l-.225-2.07q2.34 1.98 5.31 1.665 3.33-.315 4.095-3.51 1.53-6.165-3.15-9.765-1.935-1.485-4.05-1.62-2.25-.18-3.69 1.215l.27-1.935"/><path fill="#0f141b" d="m187.559 178.019-1.215 1.845q-18.45-7.875-38.475-10.53-20.16-2.7-33.345 1.08-5.985 1.71-9.585 6.795-3.375 4.77-3.375 10.71 0 6.93-1.665 14.985l-.135.225q-2.07 2.745-5.94 3.42-3.78.675-8.235-.765-10.305-3.285-16.784-14.085-5.94-9.855-4.635-21.555 1.26-11.565 8.415-15.12 5.94-2.97 12.014-.675 5.94 2.295 10.215 9 4.005 6.39 3.42 13.185-.585 6.75-5.22 8.82-3.06 1.395-5.895.36-2.97-1.08-5.085-4.68-3.465-5.895-1.395-10.215 1.935-4.23 6.795-2.79 1.215.315 1.08.765l-1.395.18q-4.23-.765-5.445 2.79-1.26 3.555 1.62 8.46 1.71 2.835 4.14 3.78l4.95-.18q4.14-1.89 4.41-7.92.315-5.94-3.285-11.745-3.96-6.345-9.855-8.415-5.625-1.98-10.44.675-6.3 3.42-7.334 13.95-1.08 10.845 4.635 20.43 5.67 9.495 14.58 13.005 8.73 3.42 13.454-1.62 1.35-7.02 1.35-14.31 0-6.705 3.735-11.97 3.87-5.49 10.305-7.29 13.41-3.825 34.245-1.17 20.835 2.655 39.375 10.575"/><path fill="#0f141b" d="M97.02 204.434q6.254 17.64 11.34 19.034l.36 1.575q-3.916-.495-7.74-7.2-2.52-4.32-5.536-12.644l1.575-.765"/><path fill="#0f141b" d="m108.45 221.353-.09 1.62q-2.926-1.89-4.14-5.174-.45-1.26-.046-1.44.36-.135.99 1.035 1.17 2.52 3.285 3.96M111.42 221.353q-3.826-2.564-4.906-7.784-.315-1.395.18-1.53.45-.09.81 1.305.72 2.61 2.475 4.77 1.755 2.16 3.96 3.104l-2.52.135M62.145 136.214q-.045-1.8.315-1.845.36-.09.9 1.62l3.96 11.385q1.755 4.68 4.005 9.45l-1.215 1.035q-3.825-8.64-6.705-18.045.99 10.935 4.275 21.78l-.945 1.8q-2.34-7.065-3.42-13.635-1.035-6.3-1.17-13.545M91.574 205.694q3.33 3.69 7.56 6.165l.72 2.295q-6.39-3.51-10.53-8.325l2.25-.135M102.284 218.474q-4.23-1.485-8.055-2.295 3.915 3.06 11.7 8.504l.135.09 4.59 5.535 1.44 3.285q-4.23-3.735-7.155-7.83-5.625-3.87-13.86-10.484-.855-.675-.63-1.035l1.26-.09q5.175 1.035 9.855 2.61l.72 1.71M115.874 114.254q6.975 4.095 12.375 10.53 12.465 14.895 8.91 30.33-.36 1.53-.81 1.44-.495-.09-.18-1.665 1.53-8.64-2.745-18.315-3.825-8.685-10.755-15.21 3.645 5.49 4.995 12.78 1.395 7.605.135 16.425-.225 1.71-.675 1.665-.495-.045-.315-1.755 1.53-16.65-4.995-27.18-6.3-10.215-18.225-11.97 10.17 14.175 7.515 33.66-1.17 8.64-4.86 15.57-3.825 7.155-9.36 10.71l-.315-1.575q4.95-3.33 8.37-10.305 3.42-6.885 4.455-15.39 2.34-19.62-8.145-33.165-.495-.63-.315-.99.225-.36 1.215-.27 6.66.54 13.725 4.68"/><path fill="#0f141b" d="M159.659 139.274q-3.33-8.235-9.585-9.405-4.14-.765-8.1 2.385-3.735 2.97-5.715 8.01l-.99-2.475q2.61-4.995 6.705-7.65 4.185-2.7 8.46-1.935 7.11 1.26 10.62 10.575 3.645 9.765.72 22.185-.36 1.575-.855 1.53-.45-.09-.135-1.755 2.52-12.42-1.125-21.465"/><path fill="#0f141b" d="M174.149 145.484q3.24 3.87 2.205 10.305-1.125 7.2-7.38 12.96-1.17 1.08-1.485.81-.36-.27.72-1.485 5.49-6.255 6.57-12.465.945-5.58-1.845-8.955-1.755-2.16-4.68-2.295-2.97-.135-5.85 1.89l-.315-1.935q3.285-1.98 6.66-1.62 3.33.36 5.4 2.79"/><path fill="#0f141b" d="M172.619 164.834q1.26-.225 2.25.27 1.935.9 1.935 4.455 0 3.51-1.8 4.95l-1.53-.72q1.485-.9 1.71-3.78.18-2.88-1.08-3.42l-2.385.09q-1.62.54-2.925 1.89l1.71-2.79q.945-.72 2.115-.945M76.41 144.539q7.83 5.85 13.95 9.72 5.984 3.78 13.86 7.965l-1.036 1.53q-12.51-6.84-23.49-14.76l-3.285-4.455"/><path fill="#0f141b" d="M67.41 139.634q5.58.855 9.764 4.68 4.815 4.365 4.5 10.26l-1.845-.27q.135-5.445-4.68-9.27-4.14-3.33-9.54-3.915l1.8-1.485"/><path fill="#0f141b" d="M64.395 141.119q3.915-3.645 10.934-4.545.675-.09.63-.27l-.63-.495q-8.054-4.32-18.494-2.745-10.215 1.53-12.69 6.93-1.8 3.78 5.31 9.765 7.335 6.12 16.515 7.83l.495 2.25q-9.81-1.62-18-8.325-8.46-6.885-6.165-12.195 2.7-6.21 13.95-7.965 11.43-1.8 19.8 3.06 4.994 2.925-.586 3.645-7.02 1.035-10.62 4.41l-.45-1.35"/><path fill="#0f141b" d="m63 144.584-.405.675q-.72 1.215-1.125.99-.36-.225.27-1.53.45-.945 1.305-2.115l-.045 1.98M43.11 140.579q-4.005 2.475-8.1 14.355-4.365 12.51-5.4 26.19-.18 2.07-.765 3.24l-2.205 2.925q-6.885 7.74-15.975 24.165-8.73 15.75-8.865 19.62-.135 2.834 2.205 6.75 2.25 3.78 3.42 3.51 2.655-.54 13.095-15.886 11.25-16.56 15.3-27.99.63-1.71 1.08-1.574.45.18-.135 1.935-3.78 11.745-15.48 29.204-11.025 16.29-13.635 16.38-2.205.09-5.085-4.59-2.79-4.635-2.565-7.785.405-5.04 8.955-20.34 8.865-15.84 16.56-24.524l1.8-2.385q.495-.99.585-2.79.99-16.02 5.895-28.845 4.725-12.375 10.035-13.995l-.72 2.43"/><path fill="#0f141b" d="M44.91 201.059q-1.035 13.14-8.055 28.35-5.805 12.6-10.35 16.83-1.98 1.844-8.235 2.114-6.345.27-6.975-1.71-.315-1.035 1.395-5.175 1.305-3.285 4.905-10.845l4.725-6.12q-9.585 19.53-9 21.465.315.99 5.22.765 5.085-.27 6.84-1.935 4.32-4.05 10.17-16.425 6.885-14.76 8.325-27.404.225-1.665.675-1.62.495.045.36 1.71"/><path fill="#0f141b" d="M52.245 204.254q1.44 11.07.315 22.77-.9 9.18-2.43 12.87-1.395 3.33-9.36 9.54-7.785 6.12-9.09 5.354-.855-.495.54-7.605 1.035-5.445 4.635-20.52l3.465-7.424q-2.52 10.44-4.59 19.754-2.925 13.275-2.565 13.545.585.36 7.2-5.04 6.975-5.625 8.055-8.28 1.53-3.645 2.565-12.555 1.305-11.294.27-22.274-.18-1.98.27-2.07.495-.045.72 1.935"/><path fill="#0f141b" d="M66.33 220.724q1.755 8.46 1.125 11.34-.54 2.474-5.49 5.894-4.86 3.375-6.525 2.61-1.08-.495-2.25-6.165-.99-5.04-1.395-10.26l.855-8.054q.405 7.56 1.575 14.94 1.17 7.29 2.07 7.784.945.495 4.86-2.43 3.96-3.015 4.41-4.86.675-2.61-.9-10.844-1.845-9.675-5.58-18.765-.675-1.665-.225-1.845.45-.18 1.17 1.44 4.185 9.045 6.3 19.215"/><path fill="#0f141b" d="M79.56 220.589q.09 1.44-2.7 5.174-2.926 3.96-5.625 5.535-1.53.9-2.025.585-.585-.36-.675-2.43-.225-4.455-4.455-14.13l-1.035-4.68q3.24 6.21 4.815 10.17 1.98 4.995 2.16 8.46l.18.63.63-.225q2.16-1.35 4.634-5.085 2.16-3.285 2.16-4.184 0-1.62-3.195-9.54-3.42-8.415-6.03-12.51-1.034-1.575-.63-1.845.36-.27 1.486 1.305 2.79 4.005 6.614 12.78 3.555 8.19 3.69 9.99"/><path fill="#0f141b" d="M76.59 214.739q5.13 4.5 8.82 6.48.63.314.314-.405-2.61-6.48-5.58-16.425-.45-1.53.09-1.575.495-.09.99 1.44 2.745 8.325 6.345 16.38 1.035 2.384.27 3.014-.72.585-2.835-.585-4.05-2.16-7.335-5.264l-1.08-3.06"/><path fill="#0f141b" d="M95.58 218.159q1.484 2.88 3.24 5.444.674 1.035.45 1.44-.136.36-1.17.45h-4.68l-3.286-.405q-.9-.54-4.005-5.804l-2.925-8.865 4.725 8.37q2.43 3.96 3.105 4.364.72.405 2.475.63l3.285.09q.315 0 .135-.315-1.575-2.52-3.735-7.11l2.385 1.71M92.564 215.099l-2.16-5.58q-.54-1.575-.09-1.755.45-.135 1.035 1.395l2.745 6.21-1.53-.27"/><path fill="#0f141b" d="m106.29 226.213-5.67-.225q-1.126-.315-3.106-2.7l-2.565-5.22q5.13 6.12 6.03 6.3l3.96.36 1.35 1.485M142.379 192.284q2.655-.225 4.95 1.305 2.34 1.575 2.97 4.275 1.89 8.1-2.475 17.73-5.175 11.384-16.83 17.864l-2.025-.72q2.88-1.44 5.4-3.33l2.115-.27-.135-1.26q7.56-6.21 10.845-14.85 2.745-7.244 1.755-13.634l.765-1.035-.09-.765h-1.125q-.63-1.845-2.205-2.88-1.71-1.08-4.14-1.035l.225-1.395"/><path fill="#0f141b" d="M147.599 214.109q5.85 1.305 10.665 5.625 1.215 1.08.9 1.395-.315.36-1.53-.585-4.68-3.6-10.575-4.995l.54-1.44M139.364 226.573q-3.24 20.61 5.265 33.795 6.03 9.36 25.47 22.995 1.935 1.35 6.975 4.32 3.96 2.295 6.255 4.32 1.26 1.125.99 1.44-.27.36-1.575-.585-2.655-1.89-6.75-4.095-4.23-2.25-6.885-4.095-19.71-13.68-25.965-22.995-8.955-13.23-5.985-33.57l2.205-1.53M159.074 241.468q-4.455-10.71-7.29-15.84-.675-1.305-.27-1.485.405-.225 1.17 1.035 4.185 6.615 8.82 17.37l-2.43-1.08M164.654 220.139q-1.125 5.4-.675 11.114.225 3.555 1.305 8.64l-.9 3.6q-3.555-13.68-.72-23.624.405-1.35.855-1.26.45.135.135 1.53M147.959 173.564q.18-1.035 4.23-2.025 3.69-.945 8.055-1.305l2.97 1.035q-5.085.225-9.495 1.17-4.005.9-4.275 1.53-.135.36.945 2.475 1.17 2.25 2.205 3.33.27.27.45.27l.495-.18q2.565-1.53 5.085-1.665 7.02-.45 10.845.99.63.18.99-.27.9-.99 2.655-1.665l.36-.27-.135-.585q-.495-1.26-1.71-2.925l1.8.405 1.215 2.25q.495 1.125.27 1.62-.18.495-1.215.72-1.35.36-2.115 1.35-1.17 1.215-2.565.675-3.87-1.62-10.215-1.035-2.97.315-4.41 1.44-.81.63-1.35.63-.675 0-1.395-.81-1.08-1.305-2.385-3.645-1.44-2.61-1.305-3.51M169.874 186.254q-.99-.45-1.44-1.395-.63-1.44-3.285-1.71l-4.5.405q-.36.135-.135.495.585 1.035 1.17 1.395 1.305.675 4.275 1.485 2.79.765 3.15.63l.81-.81q.225-.405-.045-.495m-.405 2.565q-.72.27-3.87-.63-3.105-.855-4.5-1.62l-1.08-1.08q-.54-.81-.81-1.62l-.045-.81q.135-.315.675-.45 3.24-.9 5.805-.675 3.015.315 3.87 2.295.27.72 1.44 1.215.585.225.63.675.045.405-.45 1.17-.945 1.305-1.665 1.53M205.694 167.534q16.02-20.745 25.244-37.125 9-15.975 12.825-30.105l.225 6.3q-4.005 12.96-13.005 27.855-8.415 13.995-24.074 34.29-1.26 1.62-2.835 2.43-1.26.63-3.195.99-9.54 1.485-13.905 8.1-4.41 6.66-2.43 16.875.315 1.53-.135 1.665-.45.09-.855-1.395-2.88-10.305 1.755-17.73 4.68-7.605 15.3-9.27 1.8-.315 2.745-.81 1.215-.63 2.34-2.07M245.473 132.164q-6.885 9.945-13.185 21.915-6.75 12.915-10.89 24.48-1.62 4.545-3.644 6.39-2.34 2.115-6.57 2.295-7.02.315-11.655 4.32-4.815 4.095-5.22 10.53-.09 1.575-.54 1.62-.405 0-.495-1.575-.27-7.11 5.04-11.79 5.085-4.5 12.735-4.815 3.105-.135 5.13-1.845 2.16-1.8 3.6-5.76 4.59-12.42 11.25-24.75 6.434-11.88 13.634-21.6 1.125-1.53 1.485-1.215.36.27-.675 1.8"/><path fill="#0f141b" d="M228.913 78.75q4.725-10.44 17.775-17.28 12.465-6.57 25.065-6.165 3.33.09 4.725 1.17 1.485 1.125 1.8 4.23 1.035 11.745-7.11 28.17-7.965 16.11-17.415 22.364-7.83 5.175-10.215-1.53-1.845-5.31.27-15.66 1.98-9.54 5.625-15.075l-4.5-.54q-6.255-.045-13.86 2.97-4.05 1.62-2.16-2.655m1.395 1.17.585-.09q8.01-3.285 14.895-2.925 6.885.315 10.665 4.14.945.945.63 1.215-.315.27-1.395-.495-1.935-1.44-4.275-2.25-3.6 5.265-5.67 14.445-2.205 9.99-.405 15.075.765 2.115 2.475 2.385 1.98.315 4.86-1.845 9.18-6.885 16.695-21.78 7.785-15.57 6.795-26.91-.18-2.204-1.035-2.924-.855-.72-3.42-.765-11.88-.27-23.85 5.76-12.915 6.48-17.415 16.334-.225.495-.135.63"/><path fill="#0f141b" d="m254.743 108.944 2.16-1.53-2.385 6.12-2.565 4.77q-.81 1.26-1.215 1.08-.45-.18.27-1.53 2.385-4.455 3.735-8.91M419.487 59.94q-9.9-3.42-22.545-5.4-38.024-6.03-81.63 3.375h-.18q-18.539-1.98-39.419-.225l-4.005-1.665q22.5-2.07 43.38.09 44.73-9.63 83.34-3.24 12.78 2.115 22.814 5.715 7.695 2.7 8.595 3.96 1.62 2.16 1.305 9.63-.315 7.56-2.205 8.234-15.75 5.625-37.485 6.255-20.52.585-36.18-3.42l-16.874-3.825q-11.565-2.34-18.675-3.15-2.115-.225-2.025-.675.045-.495 2.16-.315 8.145.54 19.35 2.52 9.495 1.665 16.515 3.42 16.784 4.32 38.654 3.24 20.25-1.035 33.525-5.805 1.17-.36 1.305-6.75t-1.125-8.1q-.9-1.26-8.595-3.87"/><path fill="#0f141b" d="M375.657 85.004q11.205 5.13 46.98 11.205 4.41.765 1.62 3.87-3.33 3.915-8.37 7.965-5.895 4.77-9.315 5.49-4.725.99-22.23-.315-17.504-1.35-23.804-3.195-6.39-1.845-21.24-8.055l-24.885-10.62q-1.53-.63-1.35-1.08l1.755.135 25.2 9.945q15.39 6.165 21.015 7.83 6.255 1.8 24.12 3.06 17.324 1.215 21.014.405 2.97-.63 8.55-5.22 4.725-3.87 7.965-7.56l.27-.585q-.09-.18-.63-.27-17.505-2.88-26.685-4.995-15.255-3.465-24.525-7.92l4.545-.09"/><path fill="#0f141b" d="M307.753 103.094q12.105 9.18 33.93 17.1 20.745 7.515 31.634 7.515 1.26 0 6.03-2.385 4.5-2.295 9.81-5.535l.405-.405q-.045-.18-.54-.315-10.305-3.42-24.03-8.955l6.255.63q10.485 4.185 18.27 6.66 2.565.855 2.745 1.71.18.9-2.07 2.205-5.265 3.15-10.17 5.58-5.355 2.7-6.66 2.7-11.43.09-32.49-7.695-22.454-8.28-33.75-18-1.394-1.215-1.124-1.575.27-.36 1.755.765"/><path fill="#0f141b" d="M335.743 132.254q-4.68 0-17.415-8.145-13.05-8.37-21.465-17.055-1.17-1.26-.855-1.575.315-.36 1.575.81 8.775 8.055 21.285 15.975 12.6 7.92 16.92 8.1 1.8.09 6.975-1.305 4.68-1.26 7.47-2.385.81-.315.315-.9l-2.655-2.34 3.15.36 1.305 1.305q2.025 2.025-.9 3.06-4.23 1.53-8.595 2.745-5.13 1.395-7.11 1.35"/><path fill="#0f141b" d="m324.223 126.18 2.565 3.33q.81 1.034.675 1.754-.135.63-1.215 1.305l-4.005 1.935q-3.15 1.305-4.455 1.17-2.475-.225-11.88-6.84l-17.415-12.555q-1.215-.855-.9-1.26.27-.405 1.485.45l17.82 12.015q9.27 6.12 10.935 6.255 1.035.09 3.24-.72 2.025-.765 3.78-1.845l.45-.45-.27-.585-4.14-5.31 3.33 1.35"/><path fill="#0f141b" d="M318.283 134.82q-.81 1.574-2.295 3.33-1.62 1.934-2.745 2.474-1.89.945-10.575.045-9.675-.99-14.895-3.555-1.395-.72-1.215-1.125l1.665.225q4.815 1.98 14.31 2.655 8.505.63 9.765-.045.945-.405 2.205-1.89l1.89-2.745 1.89.63"/><path fill="#0f141b" d="M312.478 147.104q-15.255-6.345-19.305-8.37l4.77.135q3.33 1.62 15.3 6.705 1.08.45 1.53.99.495.585.675 1.71.855 5.22 1.17 9.09.36 4.77-.27 5.31-.855.72-10.575-1.53-10.62-2.475-17.64-5.715-1.26-.585-1.08-1.035l1.485.09q6.615 2.745 16.785 4.95 9.135 1.935 9.585 1.44.27-.315-.225-4.68l-1.125-7.56-.36-1.035q-.18-.225-.72-.495"/><path fill="#0f141b" d="M309.688 160.829q3.6 3.06 5.22 3.825 1.035.495 1.35.99.315.495.315 1.62-.045 5.265-.27 7.56-.45 4.41-1.71 4.86l-5.94-.72q-5.67-1.08-12.015-2.97-17.73-5.265-25.65-12.015-1.125-.99-.855-1.35.27-.315 1.485.54 8.505 6.3 25.155 11.115 14.535 4.23 16.875 3.375.585-.18.81-3.69.27-3.105.135-6.66-.045-.945-.54-1.17-1.62-.81-7.29-5.67l2.925.36"/><path fill="#0f141b" d="M311.668 184.409q-4.275-1.44-14.94-6.66-8.865-4.32-14.94-7.65l9.045 2.79q5.76 3.06 11.655 5.805 6.39 2.925 9.9 4.14 1.26.405 1.575 1.035.315.585.045 1.8-.765 3.15-2.115 6.21-1.44 3.285-2.52 4.005-2.205 1.395-13.545-1.125-13.005-2.925-21.51-8.685-1.575-1.035-1.35-1.44.27-.36 1.89.585 8.73 5.13 20.79 7.875 10.575 2.385 12.555 1.125.72-.495 1.845-2.97 1.17-2.61 2.115-6.03l.045-.54-.54-.27"/><path fill="#0f141b" d="m305.233 197.774-10.53-3.645 6.705.63q1.575.405 4.59 1.485 1.665.63 1.935 1.395.225.765-.945 1.845l-3.915 3.15q-3.69 2.7-5.22 2.835-6.84.72-17.91-1.755-14.31-3.15-24.165-10.08-1.485-1.035-1.26-1.44.27-.36 1.8.585 10.17 6.165 22.86 9.09 10.485 2.385 18.09 1.8 1.08-.045 3.465-1.575 2.43-1.53 4.59-3.555.54-.495-.09-.765"/><path fill="#0f141b" d="M288.358 207.269q-3.735-.765-10.215-3.195-6.435-2.385-9.72-4.185l7.065 1.395q7.785 3.24 13.545 4.41 1.53.315 1.8.945.27.585-.405 1.845-1.665 3.105-5.355 6.57-3.87 3.69-5.985 3.735-3.33.09-13.59-3.915-12.33-4.905-18.72-10.845-1.26-1.215-.945-1.575.315-.36 1.62.81 6.255 5.4 18.405 9.9 9.9 3.69 13.185 3.69 1.62 0 4.77-2.925 3.15-2.97 4.905-6.12.27-.45-.36-.54"/><path fill="#0f141b" d="M275.308 221.398q-2.205 2.025-4.86 3.78-2.97 1.98-4.23 2.025-2.925.18-12.78-4.095-12.06-5.264-17.775-11.744-1.125-1.305-.81-1.62.315-.315 1.53.9 6.255 6.165 17.955 10.98 9.135 3.734 11.79 3.734.81 0 3.15-1.53l4.365-3.464q.27-.27.18-.45l-.495-.36q-5.175-2.25-14.31-7.965l6.57 1.935q6.48 3.69 8.91 4.725 1.62.675 1.8 1.44.135.72-.99 1.71"/><path fill="#0f141b" d="M251.278 220.319q6.165 4.59 9.855 6.434 3.06 1.485.18 3.105-9.225 5.355-11.475 5.355-2.52 0-11.97-6.21-11.88-7.785-19.71-17.594-1.17-1.485-.81-1.8.316-.27 1.576 1.125 8.28 9.405 19.8 16.784 8.954 5.67 11.07 5.76.9 0 4.23-1.575 3.15-1.44 5.804-3.06.54-.315.045-.585-4.05-2.025-14.94-10.304l6.345 2.565M246.013 77.67q1.485 1.574 3.6 2.654l-.945 2.07q-3.375-1.89-5.535-4.725h2.88M240.748 66.195q1.665-7.785 8.37-10.305 6.255-2.34 12.015 1.395l-2.43.945q-4.05-1.98-8.325-.54-4.59 1.53-6.435 6.435l-3.195 2.07"/><path fill="#0f141b" d="M234.898 79.244q-4.635 8.73-12.645 13.635-8.054 4.95-16.92 4.455-14.94-.81-24.704-13.23-10.44-13.23-10.08-34.244.405-22.275 14.715-36.45Q198.944-.09 218.429 0q20.79.09 40.5 15.615 20.024 15.75 29.834 40.365l-2.565.045q-10.215-23.85-28.89-38.475-18.675-14.67-38.88-14.76-18.99-.09-32.084 13.41-13.14 13.545-13.5 33.705-.36 20.475 9.765 33.074 9.18 11.385 22.86 12.15 7.875.45 14.94-3.6 6.84-3.96 11.294-11.07l3.195-1.215"/><path fill="#0f141b" d="M234.808 41.04q5.535 8.415 4.545 22.365l-.54 4.32-2.745 2.61q.9-3.195 1.17-7.11.855-11.97-3.51-19.755-4.41-7.83-12.15-7.92-8.91-.09-12.78 9.45-3.69 9.18.316 18.27.63 1.44.27 1.62-.405.18-1.215-1.215-2.475-4.32-2.655-9.765-.225-5.175 1.71-9.9 4.365-10.845 14.354-10.8 8.1.09 13.23 7.83"/><path fill="#0f141b" d="M238.543 55.935q3.87.765 7.605 2.835l-1.215 1.845q-2.79-1.665-6.3-2.475l-.09-2.205M313.468 164.744l-.09-3.105 1.98.225.135 4.32-2.025-1.44M299.968 238.363q12.105-27.45 13.41-59.67l2.025-.63q-1.125 33.57-13.815 61.155l-1.62-.855M312.433 146.114l-.585-6.255 1.89-.45.765 7.83-2.07-1.125M302.893 176.534q.27.945.36 3.285l-2.07-.45-.045-1.44-.225-1.62 1.98.225M294.523 209.519q1.44 3.51 1.665 6.3 2.835-4.32 2.52-11.565l1.53-.63q.27 4.095-.81 7.875-.9 3.105-2.34 5.175-.855 1.215-1.26 1.17-.495-.09-.675-1.71-.405-2.925-1.62-5.445l.99-1.17"/><path fill="#0f141b" d="M294.703 210.914q-1.17 1.62-3.51 1.62-2.025 0-3.645-1.35l1.035-1.395q1.215 1.08 2.61 1.08 3.42 0 3.285-4.635-.045-1.17.405-1.17.45-.045.63 1.08.45 3.015-.81 4.77M284.803 205.469l-.045-1.71 1.755.135.18 2.07-1.89-.495"/><path fill="#0f141b" d="M295.333 213.929q.27 5.985-1.935 12.06l-1.17-2.116q1.665-5.85 1.53-13.454l1.575 3.51"/><path fill="#0f141b" d="M292.993 234.538q1.035-5.04-.63-8.64-1.62-3.645-4.95-3.735-3.465-.045-5.265 4.185-1.845 4.32-.9 10.665l-1.98-4.995q.045-5.22 2.205-8.505 2.25-3.42 5.985-3.33 4.455.136 6.615 4.41 2.205 4.365.855 10.89l-1.935-.945"/><path fill="#0f141b" d="M287.368 239.983q1.125-2.34 1.17-4.905 0-2.43-.9-3.96-.54-.9-.225-1.215.315-.27.99.54 1.035 1.215 1.35 3.15.36 2.025-.18 4.185l-2.205 2.205M225.718 218.744l-6.884-1.665q-3.105-1.035-5.625-2.655-1.35-.855-1.17-1.26.225-.36 1.665.36 5.04 2.52 10.44 3.33l1.574 1.89M237.238 227.248q17.37 23.625 26.145 40.5 8.775 16.92 9.405 28.035.81 13.545-2.16 27.54-1.665 7.56-6.255 21.555-.72 2.115-.81 3.735-.09 1.35.27 2.835l1.44 5.49q.945 3.735.81 4.77-.18 1.845-1.035 4.275l-1.935 4.95q-.72 1.71-.27 2.834 2.34 6.57 6.075 15.435 3.33 7.875 4.905 10.935 2.565 5.04 2.34 7.65-.36 3.6-2.07 5.4-1.305 1.35-3.555 1.98l-4.05.27q-3.645-.585-5.535-2.52-1.89-1.98-2.205-5.67-.63-7.47-6.435-17.055-.72-1.26-.36-1.53.405-.225 1.26.99 6.435 9.45 7.02 17.325.225 2.97 2.16 4.815 1.71 1.575 4.23 1.98l3.78-.27q1.53-.54 2.52-1.53.855-.855 1.17-1.8l.495-2.43q.225-1.98-2.16-6.705-1.89-3.825-5.31-11.88-3.69-8.73-5.985-14.895-.675-1.755.36-4.185l1.89-4.634q.855-2.385.99-3.96.09-.945-.72-4.14l-1.485-5.535q-.9-3.285.45-7.425 4.455-13.455 6.12-21.33 2.88-13.725 2.115-27.225-.765-13.23-12.69-34.11-8.28-14.535-24.345-36.315l3.42 1.845M252.583 399.867q.63 2.7 2.43 8.37.99 3.015.72 4.545-.585 3.735-2.475 5.265-1.35 1.08-4.005 2.025-2.61.9-4.005.81-2.925-.135-4.95-1.44-1.53-.945-3.06-2.925l-1.44-2.295q-.495-1.17-.54-3.105-.225-9.18 1.62-22.23.225-1.53.675-1.44.495.045.315 1.575-1.35 12.915-1.035 22.05.045 1.8.36 2.61l1.17 1.8q2.7 3.555 6.975 3.825 1.665.135 4.05-.945 1.845-.81 2.97-1.71.63-.495 1.26-1.89.495-1.26.63-2.16.18-1.215-.72-3.825-1.62-5.04-2.25-8.595-.855-4.68-.9-10.62-.045-1.53.495-1.53.495 0 .495 1.53.045 5.13 1.215 10.305"/><path fill="#0f141b" d="M253.843 391.857q-1.8-.405-2.925.585l-.045-1.44q1.125-.63 2.25-.405l.72 1.26M239.983 343.528q3.51 9.99 1.53 16.83-1.8 6.165-10.215 15.93l-1.755 1.754q-.765.585-1.935.765-1.8.405-2.88 3.69-.9 2.7-3.554 8.37-2.88 6.21-5.715 11.16-2.61 4.5-.225 8.19.99 1.53 2.97 3.195 1.98 1.71 2.97 1.8l2.204-.315 3.645-1.845q1.395-.81 1.755-2.115l.225-3.33q0-1.845 1.665-7.83l3.375-11.385q.495-1.71.99-1.575t0 1.845q-1.8 6.075-3.015 11.115-1.395 5.85-1.395 7.785 0 2.61-.45 4.05-.63 1.98-2.385 2.97l-3.78 1.845-3.15.405q-1.17-.09-3.6-2.07-2.34-1.935-3.374-3.555-2.97-4.635.225-10.215 2.925-5.04 5.805-11.385 2.34-5.22 3.194-7.875 1.395-4.185 4.23-4.68 1.395-.225 2.79-2.025 8.145-10.034 9.63-15.884 1.665-6.705-2.25-17.595l2.475 1.98"/><path fill="#0f141b" d="M218.024 293.893q-1.89 15.75 6.48 30.33 6.164 10.71 18.36 21.33 1.394 1.215 1.08 1.62-.27.405-1.756-.585-12.06-8.1-19.305-21.06-8.82-15.66-5.85-31.77.36-1.8.766-1.755.45.045.225 1.89M225.313 265.633q.405.18-.225 1.845-3.914 10.35-5.94 18.585-.45 1.89-.9 1.8-.404-.09-.09-2.025 1.98-10.395 5.985-18.72.765-1.62 1.17-1.485"/><path fill="#0f141b" d="M217.619 306.583q-5.085.99-10.035.09-5.895-1.08-9.9-4.68-1.035-.9-.81-1.215.225-.36 1.395.405 4.41 2.925 9.18 3.78l9.9-.27.27 1.89M229.408 412.017q-.99 4.905-1.17 8.775-.18 3.285.135 8.01.18 2.34-.63 2.7-.63.27-2.34-.72-4.904-2.655-8.144-8.505-3.33-5.94-3.015-11.79l1.485 1.53q.225 4.95 3.195 10.035 3.014 5.13 7.154 7.56.675.405.855.27l.09-1.08q-.45-4.68-.36-7.92.135-3.78.945-7.425l1.8-1.44M254.743 414.492q.45 11.025-1.44 20.475-.405 1.935-1.26 2.16-.765.225-2.205-.945-5.265-4.14-8.685-9.72-3.33-5.58-3.825-10.845l1.71 1.485q.81 4.365 3.87 9.135 3.105 4.905 7.785 8.91.63.54.9.45l.45-.945q1.44-8.235 1.215-18.045l1.485-2.115M274.858 410.262q.405 5.04-2.205 10.8-2.7 5.94-6.975 8.955-1.755 1.215-2.475.9-.675-.27-.72-2.115-.315-10.665-2.88-19.665l2.385 2.88q1.755 6.75 1.755 16.785 0 .63.225.675l.9-.54q3.555-2.835 5.94-7.605 2.25-4.5 2.565-8.865l1.485-2.205M237.148 390.867q-.585-.72-1.575-.36-1.17.405-2.295 2.16l.81-2.565q.855-.945 1.8-1.125.81-.135 1.44.36l-.18 1.53"/><path fill="#0f141b" d="M204.569 304.963q-.495 2.52-3.105 4.5-1.935 1.485-2.385 7.11-.45 5.58.855 11.115.675 2.97.09 4.725-.72 1.98-3.375 3.06-3.645 1.485-4.635 2.475-1.125 1.215-.72 6.3.405 5.76 2.88 9.81 1.08 1.755.315 3.645-2.88 6.84-5.49 9.9-2.07 2.384-4.32 3.15-2.205.81-4.095-.226l1.485-1.035q2.61.855 5.895-3.014 2.07-2.385 4.95-9.315l.225-1.125-.495-1.125q-2.655-4.365-2.925-10.8-.27-5.67 1.08-7.155 1.035-1.17 5.22-2.925 2.205-.945 2.655-2.295.36-1.08-.315-3.78-1.35-5.625-.81-11.565.585-6.3 2.925-8.1 2.115-1.665 2.61-3.825l1.485.495M180.314 355.543q.18.405-.99.945-2.07 1.035-2.88 2.025-.765.945-.765 2.295l-1.44 1.035q-.495-4.455 4.635-6.255l1.44-.045"/><path fill="#0f141b" d="m160.199 342.673-3.6-.225q-1.755-.45-2.97-1.44-2.16-1.665-4.68-.135l-.225-1.665q3.105-1.62 5.67.405 2.25 1.755 5.715 1.395 3.015-.27 7.875 3.465 1.8 1.35 4.455 4.86l5.265 7.38-1.08.855-5.13-7.155q-2.61-3.33-4.365-4.635l-3.465-2.25q-1.98-.99-3.465-.855M141.119 308.743q-2.205 2.97-4.32 7.65-2.43 5.4-2.835 9.36-.225 2.025.09 3.285.315 1.305 1.305 2.16v1.89q-1.98-1.17-2.745-3.51-.54-1.845-.315-3.96.45-4.14 2.97-9.9 2.25-5.085 4.455-8.055 1.935-2.61 3.87-3.33l4.725-.225q3.06.54 7.38 3.42l9.72 7.38 3.33 3.015q1.575 1.26 3.6 1.395 1.44.09 1.44.54 0 .45-1.44.495-2.565.045-4.545-1.44l-3.33-2.925q-6.075-4.905-9.36-6.975-4.095-2.655-7.065-3.15l-3.87.18q-1.44.585-3.06 2.7"/><path fill="#0f141b" d="M149.174 332.008q4.095-2.475 4.815-11.61.09-1.53.585-1.53.495.045.45 1.575-.135 4.725-1.08 7.515-1.44 4.185-5.04 6.03l.27-1.98"/><path fill="#0f141b" d="M138.104 338.713q4.275 8.595 11.385 8.595l1.125-.18q.225-.18-.135-.81-1.845-3.06-2.385-7.245-.675-4.995 1.08-8.775l.405-1.575-.675-1.26q-2.52-2.61-6.66-2.61-4.185 0-5.94 2.7-.855 1.305-.36 4.545.495 3.285 2.16 6.615m4.05-15.48q5.265-.135 8.055 3.195.9 1.08 1.035 1.98.09.9-.585 2.385-1.62 3.645-1.125 8.28.495 3.96 2.115 6.57.99 1.62.585 2.25-.405.675-2.745.72-8.145.18-12.825-9.135-1.8-3.645-2.295-7.38-.495-3.645.495-5.355 1.98-3.42 7.29-3.51M137.474 313.468q-3.96-.81-8.46.585-4.5 1.395-6.255 4.005-1.125 1.665-.99 6.705.135 5.13 1.485 9.36.63 2.07 1.89 2.115l.09 1.485q-1.17 0-2.16-.9-.945-.855-1.35-2.16-1.395-4.365-1.62-9.855-.225-5.715 1.125-7.695 2.07-3.06 7.56-4.59 5.175-1.44 9.315-.54l-.63 1.485"/><path fill="#0f141b" d="M116.82 326.608q1.844-.945 4.274-1.44l.18 1.62q-4.815.945-5.76 3.375-.54 1.53.09 6.795.63 4.86 1.395 6.885.54 1.485 2.205 1.215l.405 1.485q-3.105.54-4.05-1.98-.855-2.07-1.575-7.425-.765-5.85-.09-7.65.63-1.665 2.925-2.88M135.18 331.018l.134 1.71q-3.195-1.215-6.3-.405-2.745.675-3.06 1.935-.99 3.87 2.835 10.035 4.545 7.29 11.97 7.29l.72-.135-.36-.72q-1.8-2.43-2.835-5.445-1.125-3.33-.855-6.21l1.485 2.07q.18 4.32 3.285 8.82 1.17 1.755.9 2.295-.315.54-2.34.63-7.875.315-13.05-7.425-4.5-6.75-3.33-11.61.495-2.07 3.735-3.015l7.065.18"/><path fill="#0f141b" d="M133.74 349.918q1.124 3.555 3.78 6.48 1.44 1.665 1.08 2.295-.316.585-2.43.54-6.706-.045-12.286-5.31-5.22-4.95-5.85-10.62-.27-2.7 2.34-4.005 2.43-1.26 5.4-.54l.45 1.89-4.635-.135q-2.115.765-1.935 2.655.54 5.085 5.265 9.585 5.085 4.815 11.295 5.175l.63-.09-.36-.54q-3.555-4.095-4.635-8.37l1.89.99M153.224 327.418q3.87.72 6.795 2.07 1.44.675 1.26 1.035l-1.62-.09q-3.375-1.17-6.885-1.53l.45-1.485M148.904 333.898q2.7.045 5.76 1.17 1.575.63 1.395 1.035l-1.71-.045q-2.295-.63-5.715-.765l.27-1.395M143.279 305.503q-8.505-7.875-5.175-19.305 3.33-11.25 14.76-15.3l1.17 1.305q-5.04 1.62-8.82 5.445-3.645 3.69-5.175 8.505-3.465 10.935 4.815 18.72l-1.575.63M185.984 278.863q-.18.045-.27.81-.225 2.925.315 6.39.54 3.735 1.53 4.725.81.81 5.22 1.125 3.915.315 6.21.045.675-.09.675-.36l-.72-.72q-8.01-5.31-12.24-11.34l-.72-.675m1.71-.18q4.635 5.76 12.15 11.07 1.935 1.35 1.755 2.205-.18.9-2.52 1.215l-6.93.225q-4.635-.27-5.76-1.44-1.44-1.485-1.89-5.535-.36-3.195-.045-6.93.315-4.365 3.24-.81M264.733 282.013q-.945-2.475-1.62-3.42-1.755-2.43-7.065-4.995-4.905-2.34-5.58-1.89-.27.18-.405 4.275-.135 4.095.09 4.725.945 1.755 4.41 4.95 3.69 3.465 5.58 3.96l2.655.315q1.305 0 1.62-.36.585-.81.99-2.25t.315-2.16l-.99-3.15m1.305-.405q.99 2.475 1.125 3.42.135.945-.405 2.745-.54 1.8-1.215 2.7-.495.675-2.25.81l-3.465-.36q-2.16-.54-6.165-4.185-3.735-3.375-4.86-5.355-.315-.585-.18-5.4.135-5.04.945-5.535 1.08-.72 6.57 1.71 5.94 2.61 8.055 5.67.765 1.08 1.845 3.78M261.268 294.883q-.225-.045-.45.45-.27.54-.27 1.215.045 1.035 1.98 4.5t2.43 3.51l.45-.45.135-1.26q-.045-1.035-1.755-4.365-1.8-3.42-2.52-3.6m.27-1.395q1.035.18 3.195 4.185 2.115 3.87 2.115 5.04 0 1.53-.81 2.655-.675.945-1.215.855-.9-.09-3.24-4.23-2.25-4.05-2.34-5.445-.045-1.08.675-2.115.765-1.035 1.62-.945M247.363 233.368q-1.8 1.395-3.555 4.455l-1.08-1.485q1.305-2.25 2.835-3.6l1.8.63M277.333 227.878q-3.42-2.07-8.325-2.61l1.89-1.395q4.5.9 7.695 2.88l.225.27 2.34 7.83q1.35 4.14 2.16 5.22.99 1.26 2.745 2.295 1.845 1.08 3.96 1.62 1.485.405 1.44.81-.09.45-1.62.225-5.535-.855-7.875-3.915-.855-1.125-2.205-5.22l-2.43-8.01"/><path fill="#0f141b" d="M328.408 221.488q-3.24 3.375-3.375 7.11l8.055 6.48.18.405q.18 3.6-.09 8.775l-.09.315-4.86 6.57q-2.79 4.05-4.5 6.93.585 7.29.315 12.825-.09 2.61-1.305 3.24-.27.135-3.825 4.365l-4.41 5.175q-.81.945-3.24 1.305l-2.34.135-3.105-.405-1.89-.09q-.585.18-1.485 1.08-3.69 3.825-10.71 8.64-1.17.81-1.755 1.935-.405.855-1.215 3.555-2.16 7.335-6.12 9.9l-1.755.765-1.8.045q-3.87-.18-7.605.945l.18-2.385q3.42-1.035 7.56-.81l1.395.09 1.215-.405q2.115-1.215 3.555-4.05l1.755-4.86q.72-2.385 1.35-3.555.81-1.395 2.385-2.475 5.625-3.87 10.44-8.865 1.035-1.035 2.295-1.215l2.61.27 4.905.225q1.305-.225 2.115-1.17l4.14-5.04 3.6-4.32q1.26-.675 1.35-2.25.18-3.78-.54-12.78l.09-.315q3.465-5.985 9.135-13.185.27-4.05.135-8.865l-7.605-6.075-.18-.405q.045-4.005 3.87-8.1 3.6-3.96 6.12-3.69 1.26.09.765-.944-.495-1.08-1.89-.9-8.28.855-12.78 7.56-4.995 7.38-.405 16.064.135.27-.09.585l-2.025 2.25q-.81 1.035-.855 2.07 0 .63-.405.9l-3.915 2.07q-2.52 1.17-3.51 1.17-1.17 0-2.88-2.34-1.575-2.16-1.62-3.195-.045-.945-.27-1.26-.18-.315-.72-.495-.9-.27-4.05-2.16l-5.31-3.105q-.72-.405-1.395.315-3.285 3.645-5.85 7.38l-1.44-.72q2.205-3.15 6.3-7.695.99-1.08 1.665-1.35.765-.27 1.62.225 7.56 4.59 9.54 5.22.855.27 1.215.99.36.675.45 2.07.09.9 1.125 2.565 1.08 1.755 1.665 1.755l2.745-.81q1.98-.81 3.51-1.755.135-1.215.945-2.385l1.935-2.25q-4.5-8.91.765-16.74 4.95-7.334 13.905-8.28 2.79-.314 3.285 2.25.495 2.52-2.115 2.296-1.935-.18-4.86 2.88M205.019 311.623l.675.99q.315.27.945.27 2.475.135 4.41.81 1.125.315 1.845 0 1.305-.675 2.115-.27.9.405 1.44 2.115.63 2.16 1.755 2.7l2.655.045.81 1.935q-2.835.405-4.365-.54-1.53-.945-2.34-3.69-.225-.765-.63-.945l-1.035.18-2.655.09q-1.845-.585-4.41-.72-1.125-.045-1.935-.63-.72-.54-1.035-1.305-.585-1.44-2.34-3.825l1.575-1.26q1.98 2.79 2.52 4.05M143.684 226.933q4.005 4.23 9.81 8.955 5.31 4.365 10.395 7.74.9-8.55 2.925-17.055 2.07-8.864 4.59-14.22l.45-.63.81.09q6.975 2.43 15.3 6.076 7.92 3.464 13.86 6.614 1.35.675 1.71 1.71.45 1.17.225 3.78-.585 6.975-1.935 15.48-1.53 9.405-3.06 14.445l-.36.675h-.81q-7.02-1.17-14.76-2.97-8.145-1.935-13.995-3.915-2.52 3.78-5.22 19.125-.18 1.08-1.17.81-8.19-2.61-15.705-8.505l-2.16-3.825q8.37 7.335 17.595 10.35 2.655-15.345 5.49-19.215l.585-.54.765.135q5.985 2.025 13.905 3.915 7.92 1.89 14.4 2.835 1.26-4.32 2.655-13.77 1.17-8.19 1.8-15.12l.045-2.655q-.18-.585-1.035-1.08-5.49-2.97-13.635-6.57-7.875-3.51-14.625-5.984-2.295 5.535-4.275 14.174-2.115 9-2.925 17.235-.18 1.26-1.305.54-5.265-3.51-10.53-7.65-6.12-4.86-10.215-9.045-1.935 2.925-3.06 8.91-1.215 6.255-.81 12.555l-1.71-4.815q.18-5.805 1.575-11.115 1.35-4.905 3.15-7.335.405-.45.63-.495.225-.045.63.36M183.959 366.073q1.035-3.375-2.52-5.265-3.42-1.845-4.905-.045-1.8 2.205-3.78 3.015-2.16.9-5.715.765-.495-.09-.135.36 1.935 2.07 5.445 3.69 3.69 1.754 6.12 1.53 2.16-.18 3.825-1.62 1.26-1.17 1.665-2.43m-.9 3.78q-2.025 1.664-4.41 1.8-3.06.18-6.795-1.576-3.555-1.71-5.85-4.274-1.35-1.53-1.08-2.115.27-.54 2.16-.495 2.88.09 4.86-.72 1.845-.81 3.465-2.79.945-1.17 2.97-1.215 1.98-.045 3.87.945 4.815 2.52 3.195 7.245-.54 1.71-2.385 3.194"/><path fill="#7c70a4" d="M90.72 156.464q-3.916-26.64 2.7-49.68-1.036 21.69 1.44 38.34 2.924 19.8 11.474 38.97l1.035 2.745.405 2.745.135 4.725-.27 4.5q-.225 1.44-.855 1.395-.54-.045-1.35-1.26-11.025-17.415-14.715-42.48"/><path fill="#665b88" d="M89.954 124.334q.36 24.57 4.95 42.165 4.32 16.605 13.005 29.16-.225 4.545-1.125 4.635-.81.045-4.095-6.39-3.87-7.605-7.02-17.055-9.225-27.9-5.715-52.515"/><path fill="#0f141b" d="M94.05 106.29q-1.126 23.22 2.024 41.714 3.06 18 10.845 35.37l1.17 3.06q.315 1.305.45 3.285.36 5.67-.27 9.45-.36 2.25-1.305 2.385-.855.135-1.98-1.71-12.15-20.745-15.435-45.54-3.33-25.11 3.285-48.105.495-1.575.9-1.575t.315 1.665m-1.395 5.85q-4.77 21.78-1.215 44.28 3.555 22.41 14.895 42.615.27.495.405-.135l.36-4.14-.18-4.815q-.18-3.105-1.44-5.85-7.47-16.245-10.575-33.615-3.105-17.46-2.25-38.34"/></svg>