<svg xmlns="http://www.w3.org/2000/svg" width="416" height="356" viewBox="-0.225 -1.35 416.022 355.543"><path fill="#515557" d="M106.83 161.774q-6.256-3.24-6.256-10.305 0-5.355 3.015-9.045 3.51-4.23 9.81-4.05 6.3.18 9.27 5.805 2.61 4.95 1.35 10.665 1.26 1.98 2.385 4.68 1.08 2.655 1.53 4.86-4.275-.54-9.09-3.15-5.85 3.735-12.015.54M90 154.799q-7.066 4.86-13.86.855-6.75-3.915-6.615-12.42.135-5.49 3.42-9.225 3.96-4.545 11.114-3.915 6.3.585 9.72 6.3 3.285 5.445 1.44 10.8 2.34 4.005 3.78 9.36-4.725-.36-9-1.755"/><path fill="#515557" d="M36.36 163.484q-4.095-5.355-4.185-12.42-.045-6.12 5.265-11.205t11.61-5.175q5.625-.045 10.08 3.645 3.42 2.835 4.86 6.345 6.39 3.375 10.124 7.29-1.844 1.395-4.184 2.52-2.52 1.125-4.815 1.53-.9 5.85-5.22 9.855-4.545 4.23-10.44 4.095-8.28-.18-13.095-6.48M43.47 209.204q5.85-10.26 12.825-14.085 1.215 3.96.99 11.07-.225 6.3-1.35 11.025 4.185 4.994 4.725 11.7.54 6.344-2.25 12.24-2.925 6.03-8.325 9.36-5.895 3.644-13.275 3.014-9.765-.81-14.895-8.055-4.365-6.075-4.365-14.625 0-11.744 9.045-18.18 8.19-5.76 16.875-3.464"/><path fill="#515557" d="M7.11 165.419q5.94-5.805 13.185-5.805 4.275 0 8.73 2.25 4.005 2.025 6.345 4.905 3.285-.045 5.13.045l3.96.405q-2.565 4.23-4.95 7.2 1.53 3.51.855 8.19-.63 4.59-3.15 8.775-5.94 9.855-16.11 9.675-9.855-.18-15.48-7.56-4.77-6.21-4.68-14.13.09-7.92 6.165-13.95M96.974 222.973l2.61 13.14q-.405 3.06.18 4.95.675 2.115 2.835 3.735 5.805 4.23 11.25 9.135l-7.65 20.565q-3.42 4.59-7.56 6.66-5.355 2.7-13.95 2.565-9.27-.135-15.66-6.84-7.154-7.47-7.064-20.16.045-10.665 6.885-17.505 6.164-6.165 14.31-6.345 2.61-8.865 10.98-20.384 1.214 3.06 2.834 10.484"/><path fill="#fff" d="M259.423 14.625q11.61 8.73 19.98 19.98 9.675 13.005 13.23 27.18l-3.285 4.725q-12.33.63-26.775 13.68-6.12 5.49-23.175 25.02-4.455-3.42-8.775-7.966-3.96-4.185-6.885-8.28 1.26 7.605.315 13.725-.945 6.075-3.33 6.57-3.284.72-11.7-6.03-8.054-6.435-13.77-13.77 2.296 6.165 3.196 12.735.945 6.84-.585 7.74-2.925 1.8-11.34-3.825-8.37-5.625-14.895-13.725 1.935 4.725 3.375 10.35 1.62 6.255.675 6.705-1.125.45-5.355-5.355-4.365-6.075-6.57-11.61-7.605-18.944-4.95-20.474 3.195-1.845 14.22 6.66-5.31-9.72-8.595-22.68-3.285-13.14-.63-14.805 2.475-1.53 10.665 3.42 6.975 4.23 13.185 9.855-4.275-12.42-4.86-23.805-.585-11.205 2.745-12.87 5.04-2.52 16.965 4.41 10.71 6.165 18.675 14.49-3.87-29.61 4.5-34.425 4.14-2.34 13.59 1.035 9.72 3.465 20.16 11.34"/><path fill="#7ecef4" d="M295.558 66.555q15.795 1.485 22.23 13.77 6.39.72 12.465 4.05l17.37 28.26-11.475 19.8q-6.075 7.784-21.06 10.304-13.05 2.16-24.615-.45-1.26 4.005-1.575 7.11-.225 2.745 1.44 3.69.9.495 1.845 1.26l2.025 1.8q16.11 4.77 22.32 16.695 6.255 12.015 1.17 29.115 2.655 4.05 5.94 19.215 3.42 15.794 4.095 17.1 1.485-.09 2.7.584 1.89 4.005.135 8.145-1.62 3.69-5.49 6.345-3.735 2.565-7.56 2.835-4.095.27-6.21-2.385-3.78-4.815-7.02-14.85-1.305-4.05-4.23-15.525-4.365 5.805-9.495 10.035-5.085 4.185-9.855 5.94-2.88 4.41-6.345 13.005-2.88 6.975-5.31 14.58-4.275 13.275-10.71 23.805-6.165 10.17-15.705 20.025-16.56 8.46-33.84-.405-7.65-3.915-13.23-10.53-5.67-6.705-7.92-14.67-1.89-6.705.316-14.85 2.16-7.875 5.985-9.81 10.665-5.31 17.235-16.56 7.695-13.14 2.34-24.704-2.97-6.57-5.31-14.355-2.61-8.55-3.555-16.02-11.745 7.785-26.325 15.3-6.255 3.24-11.115.72-4.185-2.16-6.165-7.83-1.845-5.355-.765-10.665 1.125-5.67 5.04-7.875 7.11-3.96 16.29-11.25l13.815-11.835q.405-10.035 9.27-16.65 8.775-6.57 19.484-5.31 3.015-9.72 9.9-20.295 5.58-8.55 12.915-16.56l2.295-8.46q-2.79-3.375-5.805-9.675-3.06-6.39-2.07-6.974.945-.54 5.76 1.035 4.14 1.35 8.775 3.374l15.615-2.97q4.32-3.6 10.8-5.31 6.48-1.754 13.185-1.124"/><path fill="#4c5170" d="M101.88 251.638q6.93 1.35 35.73 5.04 29.699 3.78 47.294 7.065 7.11-1.89 11.295-4.545l-1.935 3.15.9 3.195 1.035 2.97q-2.205 1.71-4.005 3.915-2.025 2.475-2.07 4.005 1.575 5.895 1.575 9.18 0 .675.27 1.035.36.405 1.26.675 4.905 1.395 5.625 1.8l2.475-1.395q1.485-1.035 2.295-2.115 2.97 1.17 5.085 1.62l5.58.225q3.015 8.91 3.69 12.15l-2.88 5.13 1.845 4.185q1.08 1.935 1.71 2.115 1.305.27 5.264 0 4.05-.315 4.68-.855 1.26-.99 1.44-4.41l3.375-.45q1.935-.405 2.79-.99 6.885.855 7.245-3.15 3.915-2.205 4.365-3.96l3.915-1.89 1.8 2.34-2.295 3.645-2.61 3.555q.18 8.55-3.015 19.17-3.645 12.105-8.46 13.32-4.68 1.125-10.89-2.16-3.96-2.16-10.844-7.695-12.15 3.69-24.615 2.565-12.915-1.17-21.87-7.2-3.915 4.41-7.605 7.335-3.6 2.88-5.985 3.555-4.545 1.305-8.415-2.88-.495 2.565-.675 6.21-.18 3.915.225 5.715.45 2.025.225 3.06-.315 1.17-1.755 2.07-4.68 2.925-5.31 4.005l-.945 1.305-1.665.225q-4.275-.765-6.75-2.205l-1.17.675-1.62.36-4.41.045q-1.71 0-2.16-1.44-.765-2.16-1.98-3.87-.63-.9-.81-1.89-.225-1.125.225-1.935-2.25 1.26-5.13.855-2.835-.405-3.825-2.07-.585-1.08-.18-3.78.45-2.925 1.755-4.005 4.095-3.15 6.48-6.66l9.54-14.715q4.725-7.56 7.785-13.815-5.94-9-16.155-16.74-9.585-7.335-20.07-11.475-3.96-1.575-5.355-5.22-1.35-3.51.315-7.38 1.665-4.005 3.42-5.49 1.935-1.665 4.95-1.08"/><path fill="#fff" d="M165.959 145.439q.36.585.09.855-.27.315-.72.18-1.485-.45-2.565 0-.945.36-1.215 1.125-.45 1.35 2.16 6.12l-.315 1.17-.45 1.17-.63.765-1.17.09q-.72-.225-1.08.36-.36.495-.135 1.125l1.485 3.96q1.71-.225 3.105 2.07l2.61 3.915q1.62 2.025.45 3.105-.585.585-.63 1.035-.045.45.405.99l2.25 2.115-4.275 2.97q2.97 2.295 4.275 6.795 1.485 4.995-.99 7.83-.765.9-.81 1.395-.045.405.495 1.62.585 1.35.99 3.195.495 2.16.45 3.69 1.62.855 2.385 1.575.99.99 1.44 2.475 1.08-4.455 3.195-4.275 1.98.225 1.98 3.015l.18 2.745q.315 1.305 1.215 1.89 1.53 1.035 1.44 3.33-.045 2.385-.675 4.905l-1.26 3.914q-.63 1.71-1.485 2.115l-2.385-.225q-1.35 2.43-2.025 6.39-.18 1.26-1.215 1.26l-.945.045q-.495.18-.54.99-.18 2.43.45 4.455.675 2.295 2.025 2.7 2.52.72 4.23 5.4 1.755 4.68.045 6.525-1.305 1.35-2.925 4.725-.81 1.665-1.935 1.8l1.755 2.7 4.05 17.325-2.385 5.67q-3.465.225-6.615 1.08-4.005 1.08-5.535 2.835-2.16-1.08-4.905-2.025-2.655-.9-4.815-1.26-2.025-2.295-3.195-2.925-2.565-.315-4.725.45-1.935.63-5.67 2.925-4.275-2.43-10.89-4.815l-3.87-8.55q-.45-.945-1.8-1.665l-2.25-1.035-1.35-.855q-.405-.495-.63-1.71-1.17-6.48-5.085-11.16-3.105-3.735-12.915-11.61l-1.71-1.53q-.63-.855-.765-2.475-.315-3.15.27-6.795.495-3.555 1.71-6.75l.81-2.34.36-2.61q.135-1.62.54-3.33l1.26-4.5q2.97-3.51 3.78-8.234.72-4.14-.405-8.235l4.365-5.895q2.655-3.51 4.725-5.805l4.05-.225q2.655.135 4.725.81 3.915 1.26 5.67-.315 1.575-1.44.945-4.77l4.725-5.265q5.715-1.53 7.695-4.635 1.89-2.925-.495-5.49-.495-.585-.54-.99-.045-.45.405-1.035 3.285-4.68 4.545-7.56.27-.63.63-.765l.945-.135q4.5 0 6.39-3.15 1.8-3.06.135-7.425 2.07-1.8 8.1-2.115 0 1.215.99 2.79M386.052 221.803q1.305-.18 2.655.54 2.16 1.215 4.005 3.78 1.71 2.385 2.43 4.86.63 2.16 2.475 2.655l4.275-.27.855-.09q.405.045.72.495 2.61 3.96 5.04 13.095-4.455 1.755-5.22 5.13-.675 3.195 2.25 4.32 5.4 2.115 7.47 3.6-.45.945 1.935 8.235-2.475 2.385-2.79 4.275-.36 2.115-.09 4.23.405 3.015 2.07 4.77l.09 2.385q-.09 1.44-.36 2.07-.855 1.935-4.275 4.32-3.87 2.7-8.1 3.78l-1.305.27-1.125-.18q-.99-.765-2.79-1.08l-1.71-.405-1.89-1.035q-2.61-1.8-5.535 2.7-1.44 1.215-2.88 1.395l-.765 4.23-1.17 4.14q-1.125.405-2.34 1.53-1.62 1.665-3.195 2.16l-2.88.945-5.49-.135q-2.97-1.305-9.81-1.395-1.034 0-1.214-.945-.63-3.15-2.52-6.12-1.89-2.97-3.465-3.33-1.935-.495-4.59 1.89-2.34-1.17-4.05-1.395-.765-.09-.99-.45-.225-.315-.09-.99.27-1.395-.765-2.745-1.035-1.35-3.06-2.07l-3.06-.27-2.88.36-1.53.18-1.53-.36q-.855-.27-2.295-1.26l-2.205-1.71q-.63-.675-1.53-2.565l-1.71-4.05q-.495-1.08.27-1.575 1.62-1.035.765-4.23-.9-3.285-3.15-3.555-2.16-.27-4.77-1.215-2.745 2.43-6.12 2.025-.27.405-.765.54-.675.09-1.485-.405l-1.98-1.035-1.53-.675q-1.17-.585-1.53-1.62-.36-1.125-2.25-3.645l-3.42-4.32q-.585-.72.09-1.485l1.53-2.43q.675-1.53.855-2.745.135-1.08-1.035-2.34-.855-.945-1.71-1.395-.495-.27-1.35.225l-1.575 1.125q-.675.45-1.35.315l-1.215-.495q-1.305-.405-1.125-1.845.225-1.395.09-3.645l-.315-4.41q-.27-4.23-3.015-4.86 1.035-.315 1.935-.945l1.935-1.62 2.7.585q1.08 3.15.63 6.795 1.08.945 3.015 1.035 1.8.09 2.7-.585.81-.585 1.44-2.655.63-1.8.72-3.465.045-1.35.72-1.845.45-.315 1.71-.495 1.53 6.57 4.32 12.33 2.295 4.68 4.455 7.065.045-2.655 4.725-3.915l1.845-.18q.72.18 1.44.855.675.63 1.935.765l2.115-.18q.945-.225 1.08-.81.135-.63-.675-1.53-1.395-1.62 1.26-4.095l1.08-1.35.36-1.35q.09-.855 1.17-1.71 1.125-.855 2.79-1.44-1.305-.585-2.7-.585-1.125-2.97-2.07-7.245l1.89-.27q.72-.315 1.035-1.125.63-1.62 2.655-1.71 2.115-.045 2.295 2.295.18 2.34 3.195 2.07 2.97-.27 3.105-1.845.045-1.26 1.71-1.665l3.195.18q3.24 1.035 6.3 2.835 2.835 1.665 2.925 2.34.135 1.35-.585 2.835 2.655 4.32 4.995 3.96 1.395-.225 2.115-2.07.765-1.89.135-3.825-.315-1.215.405-1.53.855-.45 3.51-2.7.675-.675 1.575-.135 2.385 1.62 4.68 2.205l2.79.045q.54-.315.72-1.935l.27-2.925q.134-.675 1.98-1.89 1.98-1.305 3.42-1.44l2.34-.54 1.62-1.305q.854-.945 2.114-1.08M331.738 81.314q2.52-4.905 4.815-7.38 4.005 3.78 7.02 13.05 2.7 8.415 3.015 15.705 4.23 2.295 7.875 6.66-.675 6.435-6.03 13.365-5.49 7.065-12.51 10.125 1.53-2.565 4.05-10.125l3.375-11.115q-2.115-3.6-6.885-5.535-3.78-1.575-8.775-1.89-1.935 5.4-5.445 11.655-3.465 6.075-7.065 10.53-.72-5.175-2.295-13.545l-2.52-13.365-13.275 7.56q-7.38 3.96-12.6 6.3-7.065-5.85-19.35-10.98-11.79-4.95-20.16-5.895-4.86.36-18.45 4.95l-2.34.405-1.71-.405q-4.5-1.395-12.78-5.085-7.874-3.51-13.05-6.3 16.876 4.23 26.505 5.85 7.695-.99 21.375-8.325 4.725.315 22.275 5.985-4.095-5.625-9.405-15.255-4.95-8.954-7.65-15.254 8.28 1.8 22.725 10.485 14.625 8.82 22.275 16.83 7.515-.63 17.415.224 8.685.72 15.165 2.16 1.485-5.715 4.41-11.385"/><path fill="#4c5170" d="M127.754 222.703q1.575-3.824 4.995-4.454l13.23-.81 11.385.9q2.025.315.81 2.52-2.565 4.814-8.19 10.53-5.76 5.85-11.43 9.224-4.05 2.34-7.425.09-3.42-2.34-4.23-8.19-.81-5.985.855-9.81M171.089 251.413q-.945 6.39-3.375 11.34-3.015 6.165-8.775 11.295-3.645 3.24-7.245 3.195-3.555-.045-5.895-3.33-3.24-4.59-1.935-10.575 1.395-6.435 7.29-8.055l18.36-5.4 1.395.045q.36.36.18 1.485M169.199 265.588q1.71-1.935 6.525-4.275 4.725-2.25 8.55-3.015.855-.18 1.215.225.36.45.225 1.665-.45 3.69-2.115 8.46-1.62 4.68-3.735 8.415-1.755 3.15-5.085 3.33-3.105.18-5.49-2.16-2.34-2.295-2.475-5.94-.135-3.825 2.385-6.705M371.697 243.088q1.215-4.635 4.59-8.64 3.825-4.5 8.415-5.4 4.59-.9 7.425 3.78 2.745 4.455 1.035 8.235-1.935 4.23-8.235 5.355-5.715.99-12.105-.945-.945-.27-1.17-.9-.225-.495.045-1.485M388.437 257.533q4.23.315 9.09 2.61 5.085 2.385 7.92 5.67 2.205 2.52 2.61 5.76.54 4.275-2.835 7.875-3.735 3.96-9.63 2.385-5.805-1.53-6.03-5.985-.27-5.13-3.105-16.875-.225-.99.315-1.26l1.665-.18M364.003 295.918q-1.53-1.89-1.125-4.23.585-3.78 3.555-9.36 2.7-4.995 5.94-8.955.674-.81 1.034-.765.405 0 .99 1.08 1.755 3.195 2.79 9.135 1.17 6.525.36 11.34-.45 2.97-3.06 4.095-2.25 1.035-5.265.45-3.51-.675-5.22-2.79"/><path fill="#00a5e3" d="M269.143 240.523q1.26 3.195 1.44 7.335.27 5.4-1.53 10.035-.855 2.16-4.59 4.86-3.915 2.88-8.46 4.365l-1.575.225q-.405-.225-.36-1.17.27-5.49 4.59-13.995 4.05-8.055 8.19-12.15.855-.81 1.305-.765.54.09.99 1.26"/><path fill="#4c5170" d="M322.693 24.12q.945-1.08 1.305-.765.405.225.09 1.62-4.005 18.99-13.185 47.025-4.77-3.24-10.215-4.635-5.58-1.44-11.34-.855 4.995-7.785 16.155-21.735 8.37-10.44 17.19-20.655M245.968 108.63q-.585-.45-.495-2.926.045-.765.855-2.07l1.35-1.98q.495-.72 1.35-1.035l1.395-.09q.585.18.99 1.305t.135 1.71l-1.575 3.105-1.44 2.07q-.45.405-1.305.315-.765-.045-1.26-.405M232.738 115.74q2.79-4.906 5.94-9.36.855 4.094 1.665 5.444.54.9.54 1.395 0 .405-.54 1.35l-1.98 4.095-1.89 4.23-.81 1.575-1.215.855q-3.105 1.35-3.87 1.755l-1.305-.09q-.72-.45-1.17-1.665 1.485-4.05 4.635-9.585M249.928 114.12q.585.134.855 1.304.225 1.08.09 2.25-.135 1.26-.99 3.285l-.9 2.34.045 1.98q.18 1.305.495 2.07l.315 1.395-.54 1.305-3.105 5.085q-.36.585-.81.585l-.765-.495-1.44-1.845q-.54-.81-.405-2.025.18-1.125-.315-2.745-.315-.9.45-4.86.765-3.915 1.44-5.355.63-1.305 2.79-2.88 2.025-1.53 2.79-1.395M211.814 134.91q7.155-2.79 13.544-1.08 4.23 2.43 5.985 6.614 1.71 4.095 0 7.515-1.98 3.96-6.75 4.41-5.894.585-14.624-4.5-.585 1.8-.54 4.41 0 2.34.45 3.87.72 2.61-1.305 1.08-3.15-2.385-5.13-5.805-2.79-4.815-1.935-10.08 4.68-4.23 10.305-6.435M218.744 204.434l2.43.135q3.194 1.575 5.894 6.21 3.285 5.625 3.06 11.88-.135 3.374-2.025 4.5-1.845 1.08-2.61 3.06-.585 1.394-.765 3.734-.135 1.755-1.305 1.53-1.08-.18-1.665-1.44-1.08-2.295-2.79-2.295-1.44 0-3.06-3.195.09-2.925-.584-5.355-.585-2.16-2.115-4.904-.99-5.13.45-7.02 1.215-1.665 3.15-5.49.495-.99 1.935-1.35M299.113 177.524q4.635-4.815 7.74-7.56 3.78 5.94 6.12 12.825 2.025 5.94 2.025 9.27 0 2.88-1.755 7.965-1.755 5.175-4.455 9.99-2.16 2.115-5.49 4.455l-5.31 3.24q-.09-3.87-2.565-10.935-2.61-7.47-5.67-11.565-4.545 3.105-16.29 8.415-11.34 5.175-16.74 6.75-3.33-2.97-7.965-11.34-4.32-7.83-5.13-11.385-.765-3.195.54-9.81 1.26-6.165 2.97-9.45 1.53-2.88 9.765-6.795 7.83-3.735 12.87-4.41l2.52.135q.81.27 1.935 1.395 2.34 2.34 7.425 10.125 5.04 7.695 9.225 15.345l2.07-.045 6.165-6.615M314.053 168.839q2.925 3.51 4.59 9.09 1.53 5.13 1.62 10.755-3.6-3.015-5.31-9.18-1.575-5.625-.9-10.665"/><path fill="#fdd23f" d="M291.958 70.92q6.75 2.16 10.8 10.304-6.75 1.485-11.745 5.49l-8.325-6.84q0-3.78 2.835-6.21 2.475-2.114 6.435-2.744"/><path fill="#fff" d="M291.868 76.59q.855 0 1.44 1.17.54 1.08.585 2.52.09 3.51-2.43 3.51-.9 0-1.395-1.126-.495-1.035-.495-2.655 0-1.215.765-2.295.72-1.125 1.53-1.125"/><path fill="#515557" d="m202.544 333.088-1.62 2.52q-.945 1.305-.45 2.925.54 1.575.63 3.87-1.845-1.44-2.745-4.23-.81-2.43-.72-5.49.09-2.205 1.8-1.17l3.105 1.575"/><path fill="#38393a" d="M114.614 330.973q-.315.63-2.25 2.205-2.025 1.62-2.79 2.835-.09-2.295 1.62-5.22 1.665-2.835 2.61-2.7.675.135.81 2.88"/><path fill="#4c5170" d="M66.375 242.188q-2.16 2.7-3.375 6.93-.945 3.51-1.08 7.155-6.03-2.97-13.86-7.83-2.385-1.44-2.385-4.005.045-1.845 1.395-4.86 1.035-2.385 3.285-3.33 2.16-.945 3.645 0 2.43 1.665 12.375 5.94M27 212.309q-5.85 3.78-7.83 10.08-5.535-6.21-7.515-14.22-1.395-5.625-1.08-12.735.135-2.835 1.89-4.365 1.62-1.44 4.14-1.44 2.205 0 3.375 1.575 1.035 1.35.9 3.195-.54 11.25 6.12 17.91M27.27 160.964l3.465-3.42 3.42-2.97q3.105-2.16 5.67.72 2.52 2.88.315 4.86l-2.835 2.7-2.655 2.97q-3.015-2.79-7.38-4.86M62.685 142.064l10.575-1.26q2.16-.045 2.474 2.295.315 2.295-2.384 2.79l-5.895.9-3.33-1.845q-.765-2.025-1.44-2.88M95.76 142.649q6.75 2.16 9.09 3.51 2.52 1.53 1.574 3.51-.9 2.025-3.06 1.035-4.365-1.935-7.47-2.79l-.765-1.035q.63-1.98.63-4.23"/><path fill="#dcdddd" d="M171.359 92.024q2.25 4.68 3.69 10.845 1.395 5.985.585 6.66-5.625-8.73-8.505-22.725l4.23 5.22"/><path fill="#dcdddd" d="M183.869 104.31q-10.08-7.65-15.66-17.01 14.985 14.13 21.105 12.78 5.67-1.216 2.025-15.03l4.005 4.724q2.7 6.93 3.42 13.095.675 6.21-1.17 7.11-3.78 1.845-13.725-5.67"/><path fill="#dcdddd" d="m198.449 90.404 1.71 1.62q3.33 1.665 11.25 4.95 8.145 3.375 12.69 4.905-.63 6.885-3.15 7.47-3.24.765-13.095-7.2-10.395-8.325-16.02-17.19 3.24 3.015 6.615 5.445M224.323 95.534l-1.17.27-4.094-.675q2.384-4.275-.675-15.03.99 2.07 2.655 4.86l2.834 4.32q.315 2.07.45 6.255"/><path fill="#dcdddd" d="M241.873 88.92q-9.45 4.5-13.725 5.4-6.48-6.75-9.134-13.86 3.15 3.33 10.08 5.94 7.11 2.654 12.78 2.52M232.828 99.45q7.245-2.52 12.24-3.15l1.935.45q-3.915 3.51-7.425 8.55l-6.75-5.85"/><path fill="#dcdddd" d="M310.453 99.674q-10.215 5.985-25.515 13.86-8.19-5.715-18.495-10.485-12.645-5.895-21.375-6.75-4.05.765-9.63 2.295-5.76 1.62-9.405 3.015l-3.51-.135q-17.64-7.02-23.4-10.26 12.016 4.41 22.545 7.605l2.97.45 2.745-.63q7.425-2.79 15.12-4.14 2.07-.315 4.635.09 9.225 1.575 18.81 5.22 9.09 3.465 17.055 8.19 1.8 1.08 4.32.09l10.71-4.815 11.88-6.075q.99-.54 1.485-.36.585.18.9 1.44 1.62 6.3 2.655 13.77 1.215 8.775.81 13.815l-5.31-26.19M328.768 102.42q11.835 1.08 16.155 7.56.765 1.214.405 2.88-1.08 4.86-3.645 10.53-2.79 6.3-5.67 9.584 4.635-10.485 7.335-21.24-1.575-3.06-5.76-5.04-4.41-2.025-10.755-2.475.405-1.035.765-1.44.45-.405 1.17-.36"/><path fill="#dcdddd" d="m250.378 62.865 10.71 16.56q6.885 10.26 12.24 16.784l-6.705-2.61q-5.445-8.19-10.035-16.695-5.13-9.54-6.21-14.04M142.109 242.908l1.17-5.31 5.22-4.59q1.305-.81 3.15-1.215l2.835-.135 2.115-.135 1.8-1.125q.63-.675 2.295-1.125l2.565-.405q2.115-2.565 4.68-7.784l2.61-5.985q.36-1.035.18-4.14l-.45-3.915q-.18-.855.18-1.44.315-.54 1.215-1.125 1.26 1.17 1.845 2.25 1.26-3.96 3.6-3.735.945.135 1.305 1.35.36.99.225 2.385-.135 2.25 1.26 3.555 1.395 1.305 1.575 3.24.315 4.365-1.935 9.674-.945 2.25-3.825 1.71-1.485 3.825-1.89 5.625l-.45 1.26q-.27.36-.855.405-1.575.27-1.575 1.755 0 2.25.45 3.915.63 2.205 1.845 2.385 2.7.405 4.635 4.95.855 2.16.9 4.14 0 2.295-1.26 3.285-1.125.9-2.43 3.645-1.035 2.115-2.025 2.475l1.755 3.06q-5.22 1.845-7.2 6.435-2.25 5.085 1.575 10.215-.045 1.035-.765 1.62-.765.63-1.755.54-1.035-.045-2.25.405-1.305.45-1.755 1.08-.81 1.17-2.115.72-.945-.315-3.06.36-3.825 1.08-5.67-.72 1.17.27 2.295-.495l1.26-1.485 2.7-5.85q5.49-4.725 9-11.205 3.24-5.94 4.14-12.06.18-1.17-.27-1.53l-1.485.09-7.65 2.34-8.775 2.61-2.79-3.735-1.395-1.125-1.935.225-2.745.63-1.845-.09q-.54-.315-.855-.315-.495-.045-1.035.36-2.025 1.44-5.985 4.5-.675.45-1.17.495l-1.035-.18q-1.62-.45-3.645-1.665-2.295-1.35-4.14-3.15 1.98-.72 4.95-.765l4.23.405q2.7-3.555 8.46-7.56M326.473 233.458q1.26 0 3.6-.945 1.755-.72 2.475.585.9 1.485 3.375 1.485 2.205-.585 4.68.72.675.315.945 1.44.315 1.26 1.575 1.665.675.18.81.675.18.495-.585.675l-6.84-.18q-3.375 1.665-5.94 4.14l.495 3.33q.135 2.52-.135 4.68 1.35.225 2.925 1.62 1.035.99 4.005 1.845.855.315 1.17.585.405.405.45 1.08.09 1.485.675 2.385 1.125 1.71-1.935 6.255-.225.36.135 1.17l1.935 5.625 1.98 5.4 2.025.09q1.08.135 2.25.72 1.35.72 3.825 1.44l3.465.765q4.185-2.025 5.265-2.88 1.305-1.035 1.485.855.135 1.8 1.305 3.87 1.305 2.34 3.06 3.105-1.305 2.88-1.665 4.545-.36 1.575 0 2.97.405 1.62 1.935 3.24 1.755 1.89 3.914 2.295 3.015.54 5.265-.36 2.61-1.035 3.06-3.69.54-3.15.54-5.985 4.275 1.08 5.265-.765.585-1.08 2.79-2.475 2.295-1.395 3.6-1.395 1.62 0 2.97-.54 1.62-.675 1.755-1.89l6.075.315q3.6-.81 5.445-3.465 2.43.54 2.475 2.43.18 2.475.675 3.375.81 1.125.225 2.835-.765 2.25-3.87 5.535-1.98 1.17-3.78 1.53l-2.835-.225q-1.53-.9-3.285-1.08l-1.26-.36-1.44-.81q-.99-.54-1.98-.54-1.08 0-1.71.765-2.835 3.24-4.815 3.645-.09 1.665-.675 4.14l-1.26 3.96-1.665.99-1.53 1.53q-1.485 1.485-3.24 1.755-1.575.315-3.06.9l-2.115.315-2.43-.585q-1.124-.54-4.59-1.215l-4.41-.63q-1.62.045-2.024-1.53-.585-2.565-2.385-5.31-2.07-3.195-3.87-3.15-2.88.09-4.14 1.845-2.16-1.125-3.825-1.44-.855-.18-1.17-.495-.315-.36-.315-1.215.09-2.25-2.205-3.78-2.835-1.98-7.605-.675-1.395.405-4.14-.675-2.7-1.08-3.69-2.385-.855-1.17-1.89-3.465l-1.215-3.015q-.405-1.485.855-2.475 1.305-1.035.36-3.96-.99-3.06-3.195-3.24-2.34-.225-4.41-1.035-3.105 2.16-5.94 1.98l-1.485.54q-.675.09-1.215-.315-.72-.585-3.285-1.575-1.89-.585-2.25-2.025l-2.115-3.6-2.745-3.6q-.72-.72-.54-1.35l.72-1.125 1.44-2.52q.99-2.07.855-2.745-.18-.855-1.35-2.07-1.215-1.26-1.98-1.215-1.08.045-2.565 1.08-.945.675-2.25.225-.585-.18-.99-.675-.54-.585-.495-1.395.315-4.095-.18-7.29-.63-4.185-2.52-5.625l1.665-.99q1.26.315 2.205 2.475.9 2.025.99 4.32 1.26 1.8 3.33 2.79 2.385 1.125 4.23.27l2.25-1.125q1.125-.675 1.8-1.8.675-1.08 1.53-1.215l1.62.27q.9 2.745 2.61 5.94 1.665 3.195 3.375 5.355l.81-1.575q.45-.63 1.215-1.035 2.115-1.08 3.33-1.26l1.62.045q.945.225 1.44.765.765.855 3.15.45 1.035-.18 1.44-.675.45-.585-.18-1.44-.675-.855-.63-1.755.045-.9.72-1.53 2.25-2.025 2.34-3.375.045-.9 1.17-1.845 1.08-.9 2.79-1.53-.855-.585-2.475-.585-.675-1.17-1.44-4.905"/><path fill="#dcdddd" d="M384.657 269.323q1.575-1.575 3.69-2.295.63 2.385.765 5.04-1.215.18-2.07.855-.855.675-.855 1.395-.045 1.485-.9 2.385-.81.9-2.655 1.395.855-.81 1.17-1.62.315-.765.315-2.025v-2.88q.09-1.8.54-2.25"/><path fill="#3a3e59" d="M203.489 344.113q-2.565-.63-2.385-1.755.225-1.35-.45-4.095-.225-.945-.18-1.44 0-.765.45-1.44 1.575-2.16 3.105-5.625 7.74-.72 16.965-4.5 11.52-4.725 19.754-12.285.72 6.12-.18 12.33-1.08 7.47-4.23 12.195l-4.41-.18q-3.375-.72-6.39-2.52.36 7.29 0 8.235-.27.675-1.845 1.53-1.62.9-2.97 1.125l-1.304 1.125-1.755.675-3.555.405-2.655-.135q-1.17-.27-2.79-3.285l-5.175-.36"/><path fill="#6db3d4" d="M218.609 311.128q-.45-.045-1.71-2.205l-2.115-4.005 2.07-3.15q8.01.99 16.11-.135 7.964-1.08 14.624-4.05-.675 1.215-2.025 2.25l-2.115 1.395q-.045 2.61-2.07 3.15l-5.355-.135q-.945.585-2.97 1.035l-2.97.36-.495 2.52q-.495 1.395-1.125 2.16l-4.5.675-5.354.135"/><path fill="#3a3e59" d="M135.18 298.708q3.284-6.12 7.289-8.325 3.96-2.16 6.885.405 1.08.945 1.35 3.285-1.35 3.87-1.89 6.525l-.99 5.715q-.405 2.61 1.17 3.6 1.665 1.08 5.04-.405 9.585-4.23 17.37-12.015 9.09-9.045 10.98-18.81 4.005 9.99 13.77 16.11 8.82 5.535 20.7 6.975l-2.07 3.15 2.115 4.005q1.26 2.16 1.71 2.205l5.354-.135 4.5-.675q.63-.765 1.125-2.16l.495-2.52 2.97-.36q2.025-.45 2.97-1.035l5.355.135q2.025-.54 2.07-3.15l2.115-1.395q1.35-1.035 2.025-2.25l4.275-2.16 1.8 2.61q-16.425 24.435-42.84 30.51-11.43 2.61-22.634 1.035-10.845-1.485-19.35-6.57-4.86 5.895-11.79 9.765-5.22 2.925-10.08-1.845-.765 3.465-.9 6.75-.09 3.24.405 4.995 1.26 4.23-1.305 5.355-1.35.63-3.195 2.025-1.755 1.395-2.52 2.34l-.72.765-1.575.315-3.42-.765q-2.16-.765-3.69-1.575-.765.765-2.295.99l-4.725.27q-.9-.045-1.35-.405-.45-.36-.765-1.215l-1.125-2.34-1.305-2.16q-.72-1.08-.27-3.015-2.25.99-4.455.9l-2.43-.63q-1.575-.675-1.98-1.305-.36-.585-.27-2.07l.27-2.745q.135-1.755 2.925-4.32 5.085-4.725 13.5-18.225 5.22-8.37 9.405-16.155"/><path fill="#6db3d4" d="m253.663 298.033-1.8-2.61q3.69-2.205 6.21-4.725l-4.41 7.335"/><path fill="#0090c6" d="M254.608 262.708q.9-4.14 2.88-8.145 1.125 2.61 5.31 3.51 4.14.945 6.885-.675-1.53 3.015-7.965 6.975-6.255 3.915-7.29 2.925-.72-.63.18-4.59"/><path fill="#6db3d4" d="m337.723 128.744-1.71 4.23q-6.75 6.93-18.36 9.27-11.205 2.295-25.965.09-13.68-2.025-23.58-12.15-9.72-9.9-7.56-18.63 2.385 7.155 12.24 12.78 8.955 5.13 21.78 7.74 12.51 2.52 24.12 1.755 12.195-.81 19.035-5.085"/><path fill="#6db3d4" d="M274.498 135.63q7.56 4.949 16.155 6.659-1.44 4.41-1.755 7.11-.18 2.295 1.755 3.6l4.095 3.69q-15.885 1.17-25.155-9.9-8.46-10.17-7.29-24.705 3.51 7.875 12.195 13.545M225.763 188.909q.81 3.015-1.98 7.875-2.565 4.455-5.354 6.075-2.295 1.35-6.03-.09-4.14-1.575-6.21-5.625l-.855-4.635q-.225-1.62-.225-3.6l7.29-5.805q4.5-3.33 6.705-2.97 2.34.405 4.05 3.06 1.124 1.71 2.61 5.715"/><path fill="#6db3d4" d="M219.284 181.484q-3.555-.54-9.225 3.6-6.12 4.365-14.535 9.495-9.54 5.805-17.19 9.495-.72-1.575-2.16-1.125-1.62.54-2.655 3.78-.54-.99-1.62-2.07l-1.89-1.395q-.045-3.24-1.035-4.95 9.405-3.15 21.51-9.27 10.8-5.445 18.54-10.53 4.68-3.06 9.675-.765 5.444 2.52 7.334 10.26-2.88-5.985-6.75-6.525M300.238 223.153q6.03-7.56 9.54-15.03 2.79 5.76 6.795 21.645 3.375 13.41 6.795 17.415-.135.585.045.99l.585.81q.585.81.63 1.17.045.675-1.17.945-2.745.585-3.87-.45-.675-.63-1.665-.855l-1.935.09q-4.185 1.44-4.95 4.005-2.7-3.825-6.03-12.555-3.915-10.26-4.77-18.18"/><path fill="#3a3e59" d="m318.418 46.89-7.785 25.29-3.375-2.295q-1.71-.9-4.68-1.935 12.465-21.465 21.735-45.45-1.17 8.145-5.895 24.39"/><path fill="#6db3d4" d="M241.603 71.73q3.465 5.58 7.515 10.394 4.545 5.4 8.685 8.325-5.49-1.665-8.865-2.205-3.33-5.625-4.95-8.91-2.655-5.4-2.385-7.604"/><path fill="#3a3e59" d="M386.232 257.398q4.725 3.825 8.19 10.35 3.87 7.38 3.825 14.4-2.79.09-5.445-1.44-3.285-1.89-3.24-5.22.045-3.465-1.035-9-.945-4.635-2.295-9.09"/><path fill="#dcdddd" d="M135.72 241.828q2.7-.585 7.559-4.23l-1.17 5.31q-5.49 4.455-8.46 7.56-3.87-1.125-8.64 0-1.71-1.53-3.6-4.185l4.455 1.935 3.105-.81 3.51-.72q1.44-2.7 3.24-4.86"/><path fill="#3a3e59" d="M371.202 244.348q6.615.45 12.87-2.43 6.345-2.925 8.505-7.605 1.035 2.655.72 5.175-.405 2.7-2.25 4.185-3.105 2.565-9.045 2.88-6.21.315-10.8-2.205M362.923 291.598q.945-4.23 3.375-8.19-1.8 4.275-.495 7.47 1.17 2.835 3.78 3.33 3.51.675 5.624-1.125 2.7-2.295 2.25-8.1.9 3.645.54 6.795-.36 2.835-1.62 4.68-1.125 1.665-3.465 2.16l-4.41-.18q-2.7-.765-4.32-2.745-1.71-2.025-1.26-4.095M138.104 240.838q-4.23 2.34-7.335-.36-2.295-2.025-3.33-5.805 9-2.925 18.225-7.65 8.73-4.5 12.915-8.1-2.115 6.3-9 13.14-5.67 5.535-11.475 8.775M170.774 249.523q.99 4.815-2.88 12.645-3.735 7.425-8.73 11.655-3.825 3.24-7.425 3.06-2.925-.09-5.265-2.385 8.145-3.465 15.3-11.475 5.67-6.39 9-13.5M179.639 277.513q-1.845 2.61-4.725 2.88-2.745.27-4.68-1.53 4.14-2.385 8.91-9.18 4.32-6.165 6.255-11.61 0 4.86-1.935 10.935-1.755 5.58-3.825 8.505M93.554 258.298q17.19 4.815 26.685 8.685 0 1.08.495 1.665.585.72 1.98 1.125 1.44.45 2.205 1.035.765.585 1.395 1.8 2.655 5.13 3.6 8.19 8.19 3.015 10.8 4.635 2.43-1.71 5.625-2.655 3.42-.99 5.535-.45l2.745 2.88q-.99 1.395-2.07 3.915-1.035 2.385-1.665 4.545-.45-2.07-2.16-3.285-1.71-1.17-3.825-.855-2.295.36-4.32 2.16-2.475 2.16-5.4 7.02-6.705-8.46-16.38-15.93-10.485-8.055-21.15-12.33-3.06-1.215-4.365-4.635-1.35-3.6.27-7.515M46.575 240.073q6.885 4.545 16.425 8.46l-.63 3.735q-.315 1.98-.36 3.78l-14.085-7.65q-1.935-1.125-2.205-3.51-.225-2.16.855-4.815M11.835 192.059q.18 7.38 2.61 13.995 2.79 7.56 7.56 10.98-1.89 2.52-2.88 5.174-4.455-4.23-6.975-12.824-2.88-9.81-.315-17.325M31.365 163.124q6.345-6.435 8.235-8.01.99.9 1.35 2.07.45 1.575-.765 2.7-4.23 4.14-5.67 6.165-1.035-1.485-3.15-2.925M64.08 144.224l11.7-1.035q-.316 2.295-2.115 2.61l-6.165.99-3.195-1.755-.225-.81M95.76 145.034q6.704 2.205 10.754 4.365-.27.9-.99 1.305l-2.115-.045-7.875-2.97-.36-.675.585-1.98"/><path fill="#38393a" d="M93.24 265.453q.944 3.285 5.22 5.22 3.15 1.44 7.514 4.05-8.1 9.36-21.15 8.91-16.064-.63-21.374-14.985-2.205-5.895-1.755-12.645.405-6.525 3.105-11.61.765 4.86 5.985 7.785 4.77 2.7 11.564 2.925 6.795.225 12.465-2.16 6.21-2.61 8.73-7.56 5.04 3.375 9.72 8.595l-10.89-2.295q-2.385-.45-5.13 1.44-3.015 2.025-3.69 5.175-1.035 4.635-.315 7.155M97.244 224.548l2.115 11.385q-2.565-1.575-7.65-2.925 1.8-7.83 2.205-20.384 1.71 4.275 3.33 11.924M18.63 238.408q-2.16-7.965 1.395-18.044.27 6.12 5.13 10.53 4.455 4.004 11.34 5.49 6.795 1.44 13.14-.226 6.795-1.755 10.575-6.525.36 4.77-.63 9.09-3.87-1.44-5.04-2.25-1.53-1.08-3.825-.18-2.475.945-3.825 3.69-1.575 3.24-.99 5.625.72 2.835 4.5 4.68-5.04 3.6-11.88 3.375-6.75-.225-12.15-4.05-5.85-4.185-7.74-11.205M56.115 195.074q1.17 5.175 1.125 10.8 0 5.4-1.125 9.81-.585 2.34-2.655 2.655-1.44.18-4.455-.675 5.4-9.36 7.11-22.59M19.89 191.114q-1.215-1.35-3.24-1.44-2.835-.09-4.275 1.44-1.71 1.89-1.89 6.525-4.59-2.34-7.29-8.28-3.06-6.57-1.935-14.175.855 5.535 5.76 9.18 4.5 3.33 11.07 4.23 6.48.9 12.42-.9 6.345-1.89 9.765-6.21-.36 7.605-5.895 13.455-5.715 5.985-13.23 5.985-.45-2.97-.225-5.94.225-2.385-1.035-3.87"/><path fill="#38393a" d="M38.655 175.139q-3.825 4.41-6.525 6.21-2.565 1.71-5.265.585-2.565-1.035-3.375-3.6 4.32-1.035 10.395-4.275 6.12-3.285 10.62-7.02-1.98 3.645-5.85 8.1"/><path fill="#38393a" d="M40.95 158.624q4.635 2.295 9.945 1.89 5.355-.405 9.495-3.33l2.16-.405 2.565-.63q-.675 8.1-8.46 11.835-7.065 3.42-12.96.765l.81-1.71-4.95-.405q-.765-.495-2.97-3.105l2.745-2.925 1.62-1.98M32.265 148.724q.945 2.7 2.7 5.04l-2.16 2.16q-.765-3.105-.54-7.2"/><path fill="#38393a" d="M52.605 149.894q3.06 2.07 8.91 2.7 6.345.675 12.6-.765-3.15 1.935-7.245 3.42-4.23 1.485-7.245 1.665-3.195.18-5.04-1.53-1.98-1.845-1.98-5.49"/><path fill="#38393a" d="M71.955 146.249q2.34 1.89 5.67 2.88 3.284.99 6.704.81.09 1.26 1.44 2.565 1.62 1.575 4.32 2.295-3.825 2.745-8.37 2.43-4.995-.36-9-4.365l1.395-1.035q-1.89-1.89-3.6-3.06l-.674-2.475 2.115-.045"/><path fill="#38393a" d="M85.544 145.709q1.665 2.52 5.625 5.67 4.05 3.15 8.145 5.13-8.46-.585-12.285-3.015-2.16-1.305-2.565-3.555-.45-2.205 1.08-4.23M124.154 150.074q.225 2.475-.18 4.77-.99-.9-1.62-1.125 1.395-1.395 1.8-3.645M101.384 149.984q1.8 4.5 6.615 6.39 4.545 1.8 9.045.225-.135 1.125.27 2.34.54 1.53 1.755 2.205-6.57 4.23-12.96.225-6.39-3.96-5.535-11.745l.81.36"/><path fill="#38393a" d="M118.26 154.529q1.034 2.43 3.554 5.04 2.61 2.7 5.94 4.68-6.615-.72-9.27-3.555-1.17-1.215-1.395-2.97-.27-2.07 1.17-3.195M198.089 331.333q1.08 2.475 2.7 4.68-.54 1.125-.135 2.25.54 1.62.45 4.095-1.89-1.755-2.79-4.365-.99-3.105-.225-6.66"/><path fill="#0f141b" d="M332.908 80.774q-3.06 6.12-5.13 12.285-.135.45-.585.36-7.47-1.575-15.48-2.295-9.585-.9-16.92-.18-.585.045-.855-.27-7.605-7.74-20.295-15.57-12.735-7.874-22.5-10.844 3.96 8.685 7.965 15.75 3.42 6.03 8.19 13.274 4.86 1.935 10.935 4.725 1.44.675 1.26 1.125-.225.45-1.665-.18-9.99-4.23-15.885-6.21-8.64-2.97-17.325-4.545-10.935 6.165-21.24 8.325l-.18.045q-6.12-.72-22.5-4.815 13.68 5.985 22.185 9.045l1.71.405 1.71-.45q5.76-1.98 9.18-2.97 4.68-1.35 9.315-2.115h.18q11.34 1.89 21.96 6.66 8.46 3.825 17.865 10.215 12.15-5.85 25.155-13.635l.81-.225.315.675q3.105 14.715 4.725 25.245 3.24-4.23 5.715-9l5.445-11.745q.135-.315.54-.315 6.255.495 10.17 2.25 4.05 1.845 6.075 5.265.36.45.135 1.215l-2.7 9.18q-1.62 4.725-3.96 10.08 7.02-3.645 12.375-11.475 4.86-7.155 4.095-10.62-.135-.765-2.7-2.835-2.43-1.98-4.995-3.51l-.27-.36q-.9-11.97-4.86-20.97-3.015-6.84-4.23-6.84-.81 0-3.735 5.85m9.315.9q4.095 9.45 4.86 20.025 2.655 1.62 4.995 3.78 2.295 2.115 2.79 3.375 1.665 4.05-4.23 12.465-6.255 9-14.49 12.33l-.9.045q-.27-.225 0-.9 4.5-10.62 7.29-21.015-1.935-3.105-5.4-4.77-3.51-1.62-9.225-2.115-3.15 7.785-5.49 12.195-2.88 5.355-6.48 9.765-.54.72-.9.63-.315-.09-.495-1.08-1.395-8.82-4.77-25.74-11.925 7.335-24.165 13.14l-.945.225q-.36 0-.855-.315-9.9-6.255-17.46-9.72-10.53-4.86-21.465-6.93-4.86.855-9.045 2.025l-9.09 2.97-2.16.45-2.07-.45q-11.204-4.14-21.554-9-4.5-2.16-4.365-2.835.09-.72 4.86.45 14.625 3.555 21.734 4.455 10.035-2.295 20.43-7.92.81-.45 1.89-.225 9.045 1.71 17.1 4.5l2.52.945q-4.815-7.02-8.01-12.645-3.915-6.93-8.01-16.244-.405-1.035-.225-1.26l1.215.09q10.305 2.925 23.625 10.98 13.41 8.144 21.24 16.244 7.83-.765 16.83.045 7.56.675 14.895 2.34 1.98-6.075 5.4-12.33 3.33-6.164 4.5-6.164 2.07 0 5.625 8.19"/><path fill="#0f141b" d="M246.553 71.595q4.905 1.485 9.315 3.644l.945 2.205q-3.96-2.115-9.315-3.87-4.95-1.62-5.265-1.214-.405.54 2.34 6.12 2.925 5.984 5.94 10.17l-2.295-.36q-3.195-4.366-5.85-10.306-2.655-5.94-1.89-7.064.63-.99 6.075.675M330.028 85.32q-8.82-5.22-20.88-4.276-11.43.9-17.685 6.39l-1.08-1.17q6.885-6.03 18.675-6.975 12.285-.945 21.555 4.5l-.585 1.53"/><path fill="#0f141b" d="M302.083 81.494q-1.575-3.645-4.455-6.3-2.925-2.654-6.615-3.78l-2.97-.134q-2.115.225-3.825.855l-1.53.09q-.135-.45 1.17-1.035 1.8-.81 4.14-1.125 2.07-.27 3.375 0 4.05.81 7.515 3.824 3.285 2.925 4.995 6.93l-1.8.675"/><path fill="#0f141b" d="m290.788 70.47 2.295 1.125q-4.41.09-7.155 2.7-2.835 2.654-2.43 6.704l-1.71-1.35q.045-3.78 2.7-6.254 2.385-2.34 6.3-2.925M291.778 77.084q-.495 0-.945.72-.54.81-.63 2.025-.135 1.575.36 2.565.405.81 1.035.855.72 0 1.215-.81.495-.9.495-2.295 0-1.35-.405-2.16-.45-.81-1.125-.9m-.18 7.155q-1.125 0-1.935-1.08-.9-1.215-.72-3.375.135-1.8 1.125-2.835.855-.9 1.665-.855 1.08 0 1.845.9.945 1.125.99 3.195.045 2.07-1.035 3.195-.81.855-1.935.855M308.383 80.28q.045-2.116-.765-4.096-.54-1.17-.135-1.35.36-.225 1.035.9 1.17 1.755 1.305 4.5l-1.44.045"/><path fill="#0f141b" d="M316.933 80.46q-5.67-10.215-18.99-12.555-13.68-2.385-25.83 5.535l-1.485-.99q12.555-9.495 28.215-6.39 7.02 1.395 12.33 5.175 5.49 3.914 7.875 9.494l-2.115-.27"/><path fill="#0f141b" d="M324.673 25.2q-2.07 10.53-5.445 22.365-2.925 10.305-7.875 25.11l-1.44-.945q9.81-30.15 13.635-47.52-19.62 23.13-33.795 42.525h-1.845q15.3-21.06 33.975-42.75 3.915-4.5 2.79 1.215"/><path fill="#0f141b" d="M291.958 62.415q-3.915-14.58-13.5-27.54-8.28-11.16-19.62-19.665-10.035-7.515-19.44-10.845-9.045-3.195-13.05-1.035-3.15 1.71-4.545 8.235-1.304 6.165-.674 14.94 1.394 19.845 9.63 34.155.764 1.305.36 1.53-.406.27-1.216-.99-9.314-14.265-10.98-35.235-.764-9.405.766-16.02 1.62-7.065 5.4-9.045 4.364-2.25 13.994 1.08 9.945 3.42 20.43 11.16 11.79 8.73 20.295 20.07 9.765 13.095 13.455 27.675l-1.305 1.53"/><path fill="#0f141b" d="M221.983 38.925q-8.684-9.9-20.88-16.29-11.07-5.76-14.85-4.05-2.16.945-2.474 7.065-.27 6.03 1.26 14.49 3.645 20.43 12.645 33.075.99 1.484.63 1.71-.36.27-1.485-1.08-10.17-12.15-14.04-33.93-1.665-9.225-1.08-15.75.63-6.84 3.465-8.1 4.275-1.89 15.885 4.095 12.42 6.435 20.474 16.02l.45 2.745"/><path fill="#0f141b" d="M174.014 42.93q8.325 4.86 13.86 11.115l.81 3.105q-5.76-6.48-13.95-11.43-7.965-4.815-10.215-3.51-1.08.585-.225 6.48.855 6.03 3.195 13.68 6.075 19.934 14.805 28.35 1.305 1.214.99 1.53-.315.27-1.665-.81-9.81-7.966-16.56-29.34-2.7-8.55-3.375-15.03-.675-6.66 1.17-7.605 2.79-1.485 11.16 3.465"/><path fill="#0f141b" d="M159.749 78.48q1.485 5.94 4.455 12.554 3.555 7.83 7.335 13.41 3.15 4.635 3.78 4.275.495-.27-.9-5.715-1.665-6.345-4.455-12.555l2.925 3.105q2.34 5.805 3.375 10.935 1.035 5.22-.18 5.76-1.8.765-5.85-4.545-4.23-5.535-8.01-14.04-3.15-7.065-4.455-13.455-1.35-6.434.135-7.424 1.755-1.125 6.57 1.305 4.32 2.204 8.415 5.76l1.305 3.284q-4.05-3.825-8.865-6.525-4.86-2.744-6.12-1.844-.72.495.54 5.714"/><path fill="#0f141b" d="M168.434 87.434q6.84 9.54 16.785 16.785 9.45 6.975 11.88 4.995 1.485-1.215.54-7.695-.945-6.39-3.51-12.735l2.565 2.385q2.25 5.895 2.79 11.925.63 6.255-1.125 7.65-3.105 2.565-13.32-4.68-10.665-7.56-17.46-18.09-.9-1.305-.495-1.575t1.35 1.035M223.603 95.714q-.09-4.365-.9-8.055l2.295 2.97.45 4.725-1.845.36"/><path fill="#0f141b" d="M192.599 85.59q8.415 10.26 17.28 17.234 8.235 6.435 10.62 5.535 1.934-.765 2.744-6.705l1.845.225q-.45 3.42-1.44 5.76-1.035 2.43-2.43 2.97-2.97 1.08-11.88-5.94-9.63-7.605-17.55-18.45-1.034-1.44-.674-1.71.36-.315 1.485 1.08M233.773 99.044q3.42 3.195 6.39 5.625l-1.035 1.485q-3.915-3.105-7.2-6.39l1.845-.72M218.294 79.784q.405-.18 1.26 1.395 3.374 6.345 9.54 13.14l-1.8.45q-5.536-6.525-8.685-13.14-.72-1.62-.315-1.845M337.318 132.434q-5.805 7.695-19.17 10.665-11.655 2.565-24.165.81-10.44-1.485-18.81-6.57-7.695-4.725-11.97-11.34-4.185-6.48-3.825-12.735.36-6.525 5.58-10.755l1.485.765q-5.085 3.735-5.355 9.855-.27 5.805 3.78 11.925 4.185 6.255 11.565 10.71 8.01 4.86 17.91 6.3 12.06 1.71 23.04-.585 12.78-2.655 18.72-10.035l1.215.99"/><path fill="#0f141b" d="M223.018 133.244q4.365-11.295 11.34-22.05 6.3-9.675 11.835-14.76l1.98.63q-5.355 4.68-11.655 14.355-6.885 10.665-11.34 22.14l-2.16-.315"/><path fill="#0f141b" d="M195.029 157.859q-1.26-7.65 3.42-14.265 4.725-6.66 13.635-9.81 9.134-3.285 18.18.225 10.574 4.095 15.974 16.29.585 1.35.09 1.62-.495.225-1.215-1.08-6.075-11.52-16.02-15.165-8.19-2.925-16.334-.045-8.28 2.97-12.825 9.405-4.14 5.94-3.735 12.6.09 1.44-.405 1.53-.54.135-.765-1.305"/><path fill="#0f141b" d="M181.439 166.499q7.605-6.03 13.68-12.33l.27 2.475q-5.715 5.67-13.23 11.565-7.74 6.075-15.975 11.25l-1.62-1.485q8.46-4.815 16.875-11.475M210.419 147.329q7.56 4.365 13.094 4.275 5.4-.09 7.425-4.32 1.395-2.97-.72-7.11-2.295-4.455-7.155-6.705l3.15.09q4.32 2.79 6.075 7.245 1.62 4.185.135 7.245-2.34 4.905-8.55 5.04-6.074.135-13.5-4.275-.9 2.79.18 7.335.586 2.52-.09 2.79-.584.225-2.34-1.125-3.33-2.52-5.444-6.345-2.475-4.455-2.07-8.91l1.755-1.575q-.945 4.545 1.35 9.09 1.755 3.555 5.265 6.75.585.585.315-.36-.63-2.07-.63-4.365.045-2.43.81-4.455.225-.72.945-.315M246.013 107.1q.09.764.27.944l.675.225h.81q.72-.225 3.195-4.95l-.045-1.17q-.27-.765-.63-.9-.675-.27-1.89.675-.45.315-1.44 1.98l-1.035 1.98.09 1.215m-.18-3.915q1.17-1.89 1.755-2.385 1.89-1.485 3.24-.945.675.27 1.215 1.845.54 1.53.18 2.25l-1.845 3.06q-1.665 2.565-2.205 2.745h-1.35q-.99-.18-1.485-.585-.405-.315-.63-1.665-.225-1.17-.135-1.845.09-.63 1.26-2.475M249.568 114.84q-.45-.136-2.25 1.304t-2.52 2.655q-.405.675-1.215 4.635-.81 4.05-.54 4.86.54 1.62.18 3.285-.045.54.36 1.035l.81 1.17.765 1.17.315.045 3.105-5.175.45-.945-.09-.99-.54-1.98q-.405-1.935-.09-2.97l1.125-2.97q.72-1.89.72-2.475l-.18-1.8-.405-.855m1.215 5.265-1.08 3.15q-.36 1.305.585 4.275.495 1.485-.72 3.105l-1.575 2.655-1.53 2.655q-1.125 1.575-2.25 0l-1.665-2.43q-.72-.855-.54-2.07.27-1.44-.18-2.79-.36-1.08.45-5.535.72-4.185 1.215-5.04 1.215-2.025 3.69-3.645 2.205-1.44 2.97-1.215 1.215.315 1.35 4.23.045.63-.72 2.655M239.263 105.93q.405 3.42 2.025 6.254.585 1.035-.18 2.43-2.295 4.05-4.23 9.315-.405 1.215-2.025 1.845-.9.315-2.205 1.035l-1.89 1.035q-1.575.765-2.295-.63l-1.17-1.62.945-1.17 1.215 1.8.27.315.54-.135 4.095-1.935q1.08-.45 1.305-1.125 1.665-4.815 4.095-9.18.585-.945.27-1.44-1.26-2.16-1.935-5.535l1.17-1.26M213.839 183.374q-1.17.63-4.05 2.52l-14.265 9.36q-9.36 5.805-17.055 9.9l-.945-1.755q9.99-5.04 31.68-18.99 2.475-1.53 4.545-2.295 2.7-1.035 2.835-.63.09.405-2.745 1.89M222.298 182.564q-1.26-1.98-.945-2.25.27-.27 1.845 1.35 2.205 2.295 3.285 7.335.27 1.17-.135 1.26-.45.135-.855-.99-1.215-3.69-3.195-6.705"/><path fill="#0f141b" d="M214.559 219.194q2.52 4.59 2.025 11.204-.495 6.84-4.05 13.5-8.55 16.065-27.9 20.745l.36-1.89q17.415-4.41 25.65-19.485 3.465-6.3 4.05-12.645.585-6.3-1.8-10.574-3.69-6.75-6.075-15.84-1.98-7.47-2.7-14.805l1.575-1.035q.63 7.245 2.835 15.255 2.43 9 6.03 15.57M210.599 193.814q-.405-.99-.54-2.655-.18-1.62-.045-2.925.09-1.305.63-1.305.495 0 .45 1.305 0 3.195.585 5.265.45 1.62 0 1.71-.45.135-1.08-1.395M164.519 143.369q-5.085.315-6.885 1.575 1.62 4.5-.27 7.65-1.98 3.33-6.75 3.33-.9 0-1.26.81-1.935 4.32-4.23 7.605l-.225.495.27.495q2.34 2.97.54 6.12-1.935 3.51-8.01 5.175l-4.41 4.815q.675 3.78-1.44 5.355l-6.165.18q-1.845-.585-4.275-.72l-3.915.225q-1.845 2.025-8.775 11.475 1.125 4.5.27 8.775-.9 4.275-3.645 7.65l-1.215 4.32q-.315 1.395-.405 3.06-.135 2.384-1.26 5.264-2.52 6.795-1.98 13.005.135 1.305.72 2.115l1.485 1.305q9.81 7.92 12.87 11.52 4.275 4.995 5.445 11.61.18 1.035.54 1.44l1.215.585q3.195 1.125 4.185 3.24l3.555 7.965q6.03 2.25 10.35 4.635 3.015-1.98 6.03-2.7 2.88-.675 5.085-.045 1.62.45 2.385-1.08 1.935-3.87 3.15-5.67l2.475-1.71q-1.575 2.7-4.14 8.235-.54 1.08-1.71 1.53l-2.43.09q-1.935-.54-4.77.36-2.745.855-5.76 2.925l-.54.045q-3.195-1.845-10.98-4.545l-.27-.27-4.095-9q-.405-.81-1.485-1.44l-2.205-.81q-2.295-.405-2.88-3.375-1.17-6.435-4.77-10.8-2.835-3.42-12.51-11.25-2.655-2.16-2.88-4.725-.315-3.24.18-6.84.45-3.69 1.665-6.975l.9-2.295.45-2.61q.09-1.71.54-3.51l1.305-4.5.09-.134q2.7-3.24 3.51-7.425.765-4.185-.405-8.55-.09-.225.09-.45l4.455-5.985 4.725-5.94.27-.135 4.365-.36q2.88.135 5.4.99 3.51 1.215 4.905-.045 1.305-1.17.675-4.365l.18-.45 4.725-5.4.225-.135q5.85-1.575 7.515-4.41 1.485-2.565-1.035-4.815l-.675-.81q-.135-.495.315-1.17 3.33-4.77 4.77-8.01.405-.855.99-1.17l1.665-.225q4.23 0 5.76-2.925 1.53-2.79-.09-6.93-.135-.315.135-.585 1.89-1.62 8.865-1.98.72-.045.72.63 0 1.035.855 2.34.855 1.35.315 1.935l-1.8.18q-1.305-.405-2.16 0-.63.27-.855.855-.18.585 2.565 5.715l.045.405-1.08 2.52q-.675 1.35-2.7.81-.9-.27-.495.585l1.395 3.6q1.89.135 3.24 2.295l2.88 4.275q1.62 2.07.135 3.555-.63.72-.045 1.305l2.52 2.205-1.305.99-2.43-2.43q-1.305-1.485.135-2.745.36-.315.27-.675l-.675-1.215-2.745-4.32q-1.305-2.025-2.475-1.89-.45 0-.54-.36l-1.575-4.05q-.54-1.35-.135-2.025.405-.72 1.89-.315 1.08.27 1.485-.45l.585-1.665q-2.835-5.265-2.34-6.795.315-.9 1.53-1.35l3.015-.09q.54.135.225-.225-.81-1.35-.945-2.295"/><path fill="#0f141b" d="M162.134 177.119q5.13-.18 7.74 6.57 2.565 6.705-.81 10.215l-.45.81q0 .315.315.9 1.395 3.06 1.575 7.02 3.87 1.8 4.32 7.335.09 1.44-.36 1.485-.45.045-.675-1.35-.315-2.205-1.26-3.6-1.035-1.665-3.15-2.7-.315-.135-.315-.45-.135-3.6-1.935-7.11-.945-1.89.495-3.33 2.925-2.925.855-8.595-2.07-5.67-6.3-6.165-1.35-.18-1.35-.585-.045-.405 1.305-.45"/><path fill="#0f141b" d="m173.969 208.259-.855-2.25q1.17-4.14 3.78-3.915 2.61.225 2.43 3.96-.135 2.79 1.35 3.78.81.54 1.35 1.53.54 1.08.495 2.295-.045 4.455-1.71 9.044-1.395 3.87-4.455 2.97-1.215 2.475-1.71 5.49-.18 1.035-.585 1.395-.36.315-1.26.315-1.035 0-1.08.9-.135 2.115.495 3.735.675 1.665 1.845 2.025 3.285.99 4.95 6.075 1.62 4.995-.225 7.2l-1.935 2.16q-.9 1.125-1.395 2.205-.765 1.575-1.35 1.89l1.62 2.34-1.53.63-1.89-2.925q-.405-.72.45-.99.945-.315 1.44-1.53 1.215-3.015 3.015-4.86 1.53-1.62-.18-5.895-1.665-4.185-3.825-4.725-1.89-.45-2.655-3.24-.585-2.07-.405-4.725.09-.99.495-1.35.405-.36 1.53-.45.72-.045.855-.855.675-3.69 2.115-6.3.225-.45.765-.315l1.89.09q.63-.405 1.215-1.935 1.575-4.41 1.62-8.504l-.18-1.62-.675-.765q-1.845-1.26-1.845-4.995 0-2.79-1.62-2.295-1.62.54-2.34 4.41M123.66 214.109q-.18-.405 1.08-.99 2.25-1.035 4.95-1.755l3.96-.54q1.08.18 3.33 2.43 2.114 2.07 3.554 4.23l-2.205.045-2.88-3.51q-1.485-1.53-2.16-1.665l-3.24.315q-2.52.495-4.95 1.395l-1.44.045"/><path fill="#0f141b" d="M132.434 219.149q-3.285 1.215-4.455 5.264-1.035 3.51-.225 7.92.99 5.445 3.735 7.65 2.565 2.025 5.625.45 5.13-2.565 11.07-8.235 5.985-5.715 9.045-11.114.765-1.395.63-1.71-.18-.36-1.71-.54l-12.96-.675q-8.1.045-10.755.99m11.34-2.475 12.645.72q2.565.405 2.88 1.215.315.72-.9 3.104-2.97 5.985-9.135 11.835-5.715 5.4-11.565 8.325-3.78 1.935-6.93-.27-3.51-2.43-4.68-9.045-.9-5.22.45-9.18 1.53-4.41 5.445-5.714 3.105-1.035 11.79-.99"/><path fill="#0f141b" d="m144.224 236.788-1.395 6.66-.225.36q-5.76 4.005-8.46 7.335l-.54.18-4.05-.54-4.275.54-.45-.09q-1.89-1.62-3.555-3.915-.81-1.08-.495-1.35.27-.315 1.26.675l3.375 3.195q4.05-1.035 7.83-.045 3.24-3.825 8.235-7.515l.765-4.23 1.98-1.26M144.179 250.333l2.925-.945q1.485-.72 2.88.315 1.62 1.26 3.87 4.635l-1.575.495-3.195-3.96q-.36-.36-.81-.36l-.9.135-2.97.675q-1.305.135-1.395-.27-.09-.45 1.17-.72"/><path fill="#0f141b" d="M144.674 268.423q.54 3.735 2.565 5.85 2.115 2.16 5.31 1.935 4.905-.315 10.665-7.92 6.03-7.92 7.2-16.65.135-.9-.045-1.125l-.855.045q-7.38 2.52-18.54 5.535-3.645.99-5.355 4.77-1.485 3.42-.945 7.56m-.45-8.73q2.025-4.005 6.345-5.175l18.495-5.31q2.115-.63 2.565-.225.45.45.135 2.88-1.17 9.405-7.47 17.595-6.075 7.92-11.7 8.325-3.465.27-6.075-1.98-2.88-2.43-3.51-7.155-.675-5.13 1.215-8.955"/><path fill="#0f141b" d="M169.874 264.958q-1.44-1.08-2.835-1.485l.63-1.395q1.71.54 3.24 1.8l-1.035 1.08"/><path fill="#0f141b" d="M183.509 259.108q-11.835 3.465-14.31 7.695-2.925 4.905-.54 9.09 1.845 3.24 5.085 3.6 3.33.315 5.31-2.745 4.41-6.705 5.85-16.83.09-.81-.135-.945l-1.26.135m2.7.945q-1.26 10.485-5.94 17.685-2.52 3.825-6.615 3.465-4.05-.36-6.435-4.5-2.79-4.905.63-10.755 2.7-4.5 15.255-8.19l2.88-.27q.495.36.225 2.565"/><path fill="#0f141b" d="m180.719 275.668-3.735 9.315q-.135.315-.45.315-3.69.225-6.975 1.17-3.645 1.08-4.995 2.655l-.63.135q-5.085-2.655-9.72-3.465l-.315-.18q-1.755-2.07-4.275-3.375l3.195.27 2.025 1.845q5.445 1.08 9.27 2.925 2.88-2.835 11.88-3.42l1.98-4.725 2.745-3.465M230.713 222.658q-.135 1.935-.54 2.925-.54 1.215-1.89 2.205-1.35.99-2.025 1.935-.855 1.26-.81 2.97.045 3.42-1.44 3.78-1.485.36-2.924-2.16-.63-1.125-1.26-1.485-.45-.27-1.17-.27-.9 0-1.755-.99-.9-1.08-1.575-2.925l.315-3.24q.945 3.33 1.98 4.815.63.9 1.08.9 2.07 0 3.51 2.43.944 1.62 1.44 1.485.494-.135.45-2.34-.046-3.51 3.374-6.03 1.125-.855 1.485-1.665.27-.72.36-2.385.18-4.86-1.71-9.314-2.25-5.355-6.974-8.235l-1.845-.135q-1.035.315-1.305.99-.765 1.89-3.87 6.525-.315.45 0 3.285l.63 4.455-1.845-2.34q-.675-4.95.09-6.12l2.025-3.195 1.755-3.15q.45-1.17 2.205-1.665l2.79.18q4.724 2.79 7.334 8.055 2.565 5.13 2.115 10.71M254.743 216.899q-4.14 7.424-6.615 12.51-.63 1.304-1.035 1.124-.36-.18.09-1.575 1.17-3.33 3.015-6.795 1.89-3.6 3.645-5.76.81-1.034 1.17-.81.36.18-.27 1.306M93.96 264.868q.9 3.06 4.05 4.5 11.744 5.31 18.9 10.35 10.484 7.425 18.494 18.45l-.99 1.98q-8.01-11.16-18.45-18.585-7.2-5.13-18.855-10.35-3.915-1.755-4.995-5.445-.945-3.06.09-7.02 1.08-4.275 3.825-6.525 2.655-2.205 5.85-1.8l5.58 1.035q1.575.405 5.13 1.485l2.115 2.79q-7.515-2.43-13.14-3.15-2.52-.315-4.5 1.575t-2.97 5.4q-.81 2.88-.135 5.31"/><path fill="#0f141b" d="M155.519 285.343q-3.06 5.49-4.815 10.98-2.115 6.615-2.79 14.49-.135 1.755-.585 1.755-.45 0-.405-1.8.135-7.695 2.25-14.76 1.53-5.13 4.59-11.385l1.755.72"/><path fill="#0f141b" d="m144.674 288.718 2.925.27q1.665.54 2.385 1.35.855.945 1.26 2.385l-.9 2.655q-.45-2.655-1.395-3.825-.54-.585-1.665-.945l-2.34-.18q-4.95.855-9.945 10.17-5.265 9.99-10.935 18.855-6.84 10.665-10.71 13.95l-2.07 1.665q-.9.9-1.125 2.07-.405 2.16-.405 3.06 0 1.17.675 1.665 2.52 1.935 5.085 1.35 2.25-.54 3.915-1.485 1.845-1.035 3.87-3.06.9-.855 1.215-.585.36.315-.45 1.26-2.07 2.52-4.05 3.825-1.755 1.08-4.23 1.665-3.15.81-6.39-1.62-1.8-1.44-.81-6.48.27-1.44 1.575-2.7l2.16-1.89q3.105-2.7 10.08-13.725 5.67-8.91 11.115-18.81 2.655-4.86 5.535-7.65 2.88-2.745 5.625-3.24"/><path fill="#0f141b" d="M125.594 336.013q2.115-3.15 3.555-6.975.45-1.26.855-1.125.45.18.09 1.44-1.08 4.32-3.69 7.29-.9 1.035-1.215.81-.36-.225.405-1.44M123.524 351.673q4.545 0 5.445-.54 1.125-.72 2.61-2.34 1.53-1.71 2.7-3.69.72-1.35 1.17-1.125.405.225-.27 1.575-1.215 2.34-2.88 4.41l-2.61 2.52q-1.08.675-6.12.675l-2.205-.315q-.675-.36-1.125-1.575l-1.26-2.475-1.305-2.34q-.855-1.53-.27-2.97l1.845-.585q-.765 1.62-.09 2.925l1.215 2.25 1.17 2.475q.27.675.63.9l1.35.225"/><path fill="#0f141b" d="M130.5 350.728q2.97 1.53 6.21 1.98 1.53.225 1.844-.45.45-.9 2.745-2.565l3.465-2.475q1.215-.945 1.305-1.845l-.495-2.7q-.945-3.735.585-12.735l1.44 1.575q-1.215 7.785-.405 10.845.585 2.25.405 3.42-.27 1.575-1.845 2.745l-3.285 2.25q-2.16 1.53-2.52 2.295-.36.855-1.125 1.08l-2.205.045q-1.53-.135-3.78-.9t-3.465-1.575l1.125-.99"/><path fill="#0f141b" d="M142.334 301.903q.315 8.73 1.665 16.92 1.395 8.685 3.06 10.8 1.71 2.205 4.095 2.97l4.365-.135q4.725-2.205 9.945-7.425 5.49-5.445 9.63-12.465 10.08-17.1 7.155-32.625-.315-1.71.135-1.755.45-.09.855 1.575 3.96 15.39-6.165 33.255-4.275 7.47-9.99 13.275-5.58 5.67-10.89 8.01-2.34 1.035-5.175.36-3.285-.81-5.355-3.69-1.845-2.565-3.24-12.06-1.305-9.27-1.08-17.01.045-1.755.495-1.755t.495 1.755"/><path fill="#0f141b" d="M142.334 311.533q-2.16-2.925-3.24-6.3-.45-1.44 0-1.575.45-.18.945 1.215.945 2.34 2.16 4.05l.135 2.61M278.503 245.293q-3.375 6.84-9.315 23.58-9.135 25.83-24.705 41.535-11.835 11.925-26.37 17.145-12.104 4.32-25.154 3.51-13.95-.9-24.75-7.47l.99-1.395q10.305 6.03 23.22 6.975 12.825.9 25.11-3.465 14.264-5.085 25.74-16.695 15.074-15.345 24.12-40.905 5.94-16.65 9.81-24.165 4.814-9.225 11.519-15.075 1.305-1.17 1.62-.855.315.315-.9 1.575-6.525 6.84-10.935 15.705"/><path fill="#0f141b" d="M195.074 262.618q1.08 4.005 1.98 6.075.135.36-.18.585-1.98 1.395-3.645 3.24-2.025 2.295-2.295 4.005 1.53 5.49 1.53 8.91l.09.765q.18.27.63.36 2.25.54 5.715 1.8 2.025-.81 4.14-3.69.225-.27.585-.135 6.57 2.61 10.755 2.205.36-.09.54.27 1.125 2.565 2.25 6.525l1.62 6.12-.045.405-3.105 4.95 1.44 2.97q1.215 2.295 1.98 2.43l4.77-.135 4.23-.585.72-1.35.63-2.97q.09-.45.494-.45 4.185.135 5.85-1.125l.36-.09 5.265-.225q1.17-.54 1.35-2.61 0-.225.27-.405l2.7-1.575q1.215-.945 1.53-2.025.09-.27.315-.315 2.295-.81 3.915-1.98.45-.315.765.135l1.71 2.655-.945 1.215-1.53-2.295q-.945.675-3.06 1.53-.45 1.125-1.62 2.07l-2.655 1.575q-.315 2.52-1.89 3.285l-5.985.315q-2.385 1.215-5.67 1.17-.45 3.87-1.53 4.815-.495.405-4.815.81l-5.534.135q-1.17-.18-2.7-2.925l-1.89-3.78q-.135-.315 0-.54l3.06-5.13q-2.07-7.74-3.6-11.205-4.275.135-9.72-1.935-1.755 2.295-4.77 3.33h-.36l-6.075-1.845q-.99-.27-1.35-.81-.36-.54-.36-1.575 0-2.205-1.8-8.865l-.045-.18q.27-2.16 2.835-4.95 1.53-1.71 3.42-3.195-.9-2.25-1.89-5.895l.09-.495 1.395-1.845 2.295-1.215q-1.35 2.79-2.16 3.69M254.878 266.668l.63-.045q3.645-1.125 7.695-3.915 4.275-3.015 5.355-5.58 1.305-3.15 1.44-7.11.18-4.95-1.62-9.45-.225-.63-.495-.63-.27-.045-.72.54-5.31 6.93-8.595 13.725-3.285 6.75-3.78 11.7l.09.765m14.715-26.55q1.98 4.5 1.98 9.72 0 4.635-1.44 7.92-1.305 3.015-5.985 6.165-4.365 2.925-8.28 3.87-1.62.405-2.115 0-.54-.405-.405-2.07.495-5.535 4.005-12.555 3.375-6.75 8.82-13.5 1.305-1.575 2.025-1.44.63.135 1.395 1.89M311.758 177.659q4.05 8.73 4.185 14.04.135 4.32-2.7 11.385-2.88 7.2-7.74 14.58-11.835 17.82-25.425 23.58l1.125-2.566q12.06-5.76 22.725-22.23 9.81-15.12 9.99-24.75.09-5.174-3.465-13.32-3.78-8.55-9.045-14.31-1.035-1.124-.72-1.44.27-.36 1.395.676 5.31 4.86 9.675 14.355"/><path fill="#0f141b" d="M293.398 156.869q-1.08-1.305-4.185-3.735-1.485-1.17-1.26-3.735.27-3.51 1.71-7.425l1.845.405q-1.44 3.825-1.665 7.065-.18 1.755.675 2.385l4.05 3.555q16.155 4.545 22.68 16.965 6.885 13.14.63 30.87-.585 1.71-1.125 1.53-.54-.135 0-1.89 5.4-17.64-1.35-30.06-6.39-11.79-21.735-15.75l-.27-.18"/><path fill="#0f141b" d="M314.503 169.649q-.45 3.87 1.125 9.135 1.62 5.22 4.455 9.27l-.495 2.025q-3.735-4.635-5.535-11.07-1.71-6.21-.81-10.845l1.26 1.485M323.458 215.864q1.71 6.524 3.78 17.19.72 3.69 1.89 5.13l-2.295.314q-.945-1.35-1.665-5.13-4.095-22.364-7.965-30.15l.99-2.25q2.745 5.22 5.265 14.896"/><path fill="#0f141b" d="M325.258 238.678q1.26-.99 3.105-1.08 1.755-.09 3.42.72l-2.25 1.08-3.735.18-1.215.09q-.18-.315.675-.99M299.338 223.468l1.71-1.665q1.215 8.865 3.96 17.055 2.88 8.64 6.75 14.49l-1.71 1.125q-3.69-5.625-6.57-14.085-2.835-8.28-4.14-16.92M307.033 170.729q-8.055 7.065-13.725 14.13-.945 1.17-1.665 1.125-.72-.045-1.395-1.35-8.145-15.3-16.29-24.93-1.125-1.305-2.025-1.575l-3.33.135q-5.4.9-11.7 4.095-6.075 3.105-8.775 6.075-1.89 2.07-3.24 9.315-1.395 7.56-.09 10.8 2.16 5.13 5.715 11.475 4.14 7.425 6.48 9.495 6.525-1.935 17.505-7.155 8.505-4.095 14.94-7.785.72-.45 1.125.18 3.06 4.365 5.355 10.755 1.935 5.31 2.925 10.89 5.94-3.42 10.755-8.685l-1.8 4.005q-4.23 3.87-9.135 6.66l-.9.18q-.27-.18-.36-.81-.9-5.535-2.655-10.71-2.115-6.345-5.13-10.755-5.895 3.51-14.76 7.785-11.025 5.265-17.73 7.245l-.54.045-.45-.27q-2.61-2.07-7.29-10.17-4.095-6.975-6.03-11.7-1.485-3.6.09-11.925 1.53-7.92 3.69-10.35 2.7-2.97 9.36-6.165 6.795-3.24 12.465-4.14l3.78-.09q1.53.405 2.97 2.07 7.92 9.315 16.065 24.795.315.585.54.63l.63-.495q6.525-8.19 13.905-14.49l.72 1.665"/><path fill="#0f141b" d="M288.493 166.454q3.87 7.38 3.105 18.765l-1.62-2.475q.225-4.95-.315-8.325-.495-3.465-2.07-7.515-.54-1.395-.135-1.575.36-.18 1.035 1.125M297.763 168.614q.135 6.885-1.53 11.925l-2.385 2.295q1.26-3.33 1.98-6.84l.945-7.425q.09-1.53.54-1.53.45.045.45 1.575M216.089 327.103q5.085 4.725 11.294 7.65 6.57 3.15 9.54 1.8 3.33-1.44 6.615-9.855 3.825-9.675 4.005-21.15l1.755-1.665q.135 13.68-3.915 23.85-3.51 8.73-7.83 10.485-3.69 1.485-10.26-1.44t-12.96-9l1.756-.675"/><path fill="#0f141b" d="M226.258 334.978q.54 7.965 0 8.865-.45.675-2.43 1.53-1.98.9-3.554 1.08l.585-1.53 2.43-.855q1.214-.63 1.62-1.26.404-.675-.27-8.55l1.62.72"/><path fill="#0f141b" d="m209.384 344.203 1.08 1.935 1.08.855 3.285.135q2.835-.18 3.96-.765 1.125-.54 1.53-1.575t.405-3.195q0-1.17.45-1.215.404 0 .54 1.17.314 2.205-.046 3.465-.45 1.845-2.25 2.745-1.214.585-4.5.81l-4.004-.135q-1.755-.63-3.06-3.96l1.53-.27M220.814 338.668q0-2.025.135-3.465.09-1.125.584-1.08.495.045.405 1.17l-.09 3.375q0 1.305-.495 1.305-.54 0-.54-1.305M212.759 337.138q1.035-2.655 1.395-5.985.18-1.395.585-1.35.45.09.45 1.485-.09 3.51-1.485 6.255-.45.9-.855.72-.45-.135-.09-1.125"/><path fill="#0f141b" d="M205.109 329.758q-.765 1.89-3.825 6.75-.405.63-.09 1.8.585 2.07.585 3.33 0 .63.135.855l.765.675q1.35.9 4.995.585 3.375-.225 4.095-3.51.27-1.17.72-1.08.45.09.315 1.26-.27 2.16-1.665 3.465-1.395 1.26-3.465 1.35-3.195.135-5.67-.855-1.71-.675-1.71-2.7 0-1.44-.45-3.015-.54-1.71.225-2.97 2.25-3.465 3.285-5.895l1.755-.045"/><path fill="#0f141b" d="m202.229 333.763-3.195-1.665q-.855-.495-.855.45 0 3.015.81 5.4.81 2.295 2.16 3.51l.585 2.295q-2.25-.945-3.69-4.5-1.395-3.375-1.17-6.75.135-1.89.675-2.205.54-.315 2.07.585 1.575.9 3.285 1.62l-.675 1.26M299.473 235.978q.09-1.035.855-1.575.855-.63 2.295-.45l.27 1.485q-1.935-.18-2.025.81-.045 3.195-2.295 6.975-.72 1.17-2.97 1.125-2.385-.045-3.915-1.53-.225-.225-.135-.495.36-1.305.225-3.015-.135-1.8-.72-3.15l-3.015-.675.675-1.035 2.97.45.45.36.855 3.465q.225 1.62 0 3.33 1.035.855 2.7.81 1.44-.045 1.8-.54.81-1.035 1.35-2.88.54-1.755.63-3.465"/><path fill="#0f141b" d="M389.067 221.533q2.34 1.26 4.32 4.14 1.755 2.52 2.52 5.085.495 1.71 2.025 2.025l4.275-.405q1.845-.495 2.745.99 2.97 4.77 4.95 13.275.225.765-.315.99-4.05 1.575-5.13 4.365-1.08 2.7 1.62 3.51 5.22 1.665 7.92 3.6.27.18.18.675-.315 2.61 1.53 8.28.09.36-.135.54-1.08.765-1.845 1.98-.63 1.035-.81 2.025-.225 1.44-.045 3.285.315 3.195 2.025 4.995l.18.27q.45 4.275-.135 5.49-.855 2.025-4.59 4.545-4.05 2.79-8.505 3.915l-1.845.09q-.63-.135-1.35-.63-.945-.63-2.61-.945l-1.8-.36-1.89-.99q-2.205-1.485-4.68 2.34-1.08 1.08-2.745 1.575-.36 3.015-1.845 7.92l-.36.36q-1.26.405-2.34 1.485-1.98 1.98-3.42 2.385-1.62.405-2.61.9-1.71.765-3.06.9-1.62.135-3.24-.585-1.44-.63-4.184-1.125l-5.31-.585q-.72 0-1.26-.495t-.675-1.215q-.63-3.105-2.34-5.76-1.62-2.52-3.015-2.88-1.62-.405-4.14 1.845l-.54.045q-2.07-1.17-4.275-1.575-1.8-.315-1.44-2.16.225-1.26-.63-2.295-.855-1.08-2.61-1.71-2.295-.765-5.58.045l-3.645-.09-2.745-1.215q-1.8-.99-2.565-1.755-.63-.63-1.8-3.465l-1.575-3.87q-.63-1.44.9-2.385 1.305-.81.765-3.42-.54-2.7-2.475-2.925-1.845-.225-4.545-1.125-2.655 2.16-5.94 1.89-.45.495-1.26.585-.945.135-1.755-.45-1.035-.765-3.51-1.755-2.025-.9-2.25-1.71-.315-.9-2.34-3.825l-3.105-4.185q-.81-.99.36-2.295l1.485-2.295.855-2.565q.135-.855-.765-1.89l-1.485-1.26q-.315-.135-1.08.27-.72.36-1.395.945-.72.72-1.665.54l-1.395-.54q-1.755-.585-1.485-2.475.405-3.06-.27-7.965-.225-1.575-.9-2.79-.9-1.53-2.205-1.665l1.26-.99q1.305.495 2.205 2.16.765 1.485.945 3.24.54 6.435.315 7.92v.855l.63.45.99.36.99-.27q2.61-1.935 3.555-1.485l1.98 1.62q1.575 1.665 1.395 3.015-.18 1.26-.945 2.88-.765 1.575-1.665 2.61-.27.27-.27.45l.18.405 3.15 4.275q1.935 2.79 2.295 3.825.315.9 1.26 1.305l3.555 1.755.99.315.54-.495.495-.225q3.15.405 5.76-1.935l.495-.09q1.89.81 4.86 1.08 2.925.315 3.87 4.05.9 3.69-1.17 4.95-.54.315-.225.99l1.44 3.33q.99 2.25 1.71 2.97l2.025 1.62 2.115 1.125 1.395.405 1.44-.135q3.69-1.035 6.255-.09 2.16.765 3.33 2.205 1.17 1.485.855 3.105-.18.765.585.9 1.62.135 3.825 1.26 2.745-2.34 4.77-1.845 1.845.45 3.87 3.195 2.115 2.88 2.745 6.03.135.54.765.585l5.4.72q2.745.585 4.5 1.35 1.44.585 2.52.63 1.08 0 2.34-.585l3.014-.855q1.26-.36 2.925-2.025 1.17-1.215 2.205-1.575 1.485-4.59 1.755-8.01.09-.45.45-.45 1.665-.36 2.7-1.215 3.24-4.95 6.345-2.88l1.8 1.035 1.575.45q1.755.27 2.52.81l2.475.225q4.14-1.035 7.83-3.555 3.375-2.295 4.185-4.14l.315-1.8-.09-2.205q-1.8-2.025-2.205-5.49-.27-2.205.045-3.87.45-2.52 2.25-4.32-1.89-5.805-1.665-7.695-2.925-1.98-6.57-3.15-3.24-.945-2.97-4.725.27-4.005 4.95-6.03l-1.71-5.94q-1.125-3.375-2.385-5.805-.36-.675-1.44-.405-6.255 1.485-7.515-2.835-.72-2.43-2.205-4.635-1.755-2.61-3.78-3.735-2.295-1.215-3.915.495-.945.99-1.89 1.44l-2.61.585q-1.485.09-2.925.855-1.485.765-1.62 1.575l-.225 3.06q-.225 2.115-1.215 2.655l-3.24-.18q-2.43-.72-4.95-2.385l-.494-.225q-.18 0-.495.27l-3.33 2.565q-.405.27-.495.495l.09.63q.675 2.07 0 4.275-.765 2.34-2.565 2.61-1.35.225-2.925-.945-1.53-1.17-2.925-3.465-.135-.18-.045-.495.99-1.89.81-2.655-.135-.54-2.79-1.98-2.925-1.53-6.165-2.565l-2.835-.27q-.99.27-1.08 1.08-.045 1.125-1.485 1.845-1.26.675-2.79.72-1.395 0-2.34-.72-.945-.72-1.035-1.89-.18-1.845-1.485-1.89-1.305-.045-1.89 1.44-.72 1.755-3.6 1.845l-.27-1.575 1.71-.225.63-.765q1.08-2.7 3.51-2.43 2.385.225 2.655 3.33.135 1.485 2.16 1.485 1.125 0 2.025-.45.855-.405.855-.855.09-1.53 1.62-2.25 1.665-.765 4.14.045 3.465 1.125 6.3 2.7 3.285 1.845 3.42 3.105.09 1.8-.495 3.015.675 1.485 1.71 2.43 1.17.99 2.295.81.99-.18 1.485-1.8.495-1.665-.045-3.375-.54-1.665.9-2.61l3.42-2.565q1.035-.99 2.7.135 2.294 1.485 4.23 2.025l2.16.045q.45-.27.36-1.8-.09-2.115.09-3.015.18-.81 2.43-2.07 2.294-1.26 3.96-1.395 1.35-.135 2.16-.585l1.484-1.26q.99-1.034 2.565-1.08 1.485-.09 2.97.765"/><path fill="#0f141b" d="M325.978 244.843q-1.71 1.485-2.07 2.34-.225.585.135 1.035 1.26 1.485 1.125 2.34-.09.855-1.575 1.26-3.645.99-4.59-.585l-1.125-.72-1.935.18q-1.98.765-2.745 1.26-.72.45-.765.99-.09 1.26-1.08 1.755-.855.45-2.7.54-1.125.045-1.17-.36-.045-.405 1.125-.675 2.385-.495 2.385-1.665 0-1.485 4.5-3.24l2.61-.225q1.305.225 1.935 1.125l3.105.135.54-.45-.675-.945q-.9-1.08-.27-2.43.495-1.035 2.115-2.475.585-.54.81-2.205.135-1.26 2.295-2.655 1.665-1.125 3.735-1.845 1.485-.54 3.195.36 1.935.945 4.815 1.215 1.395.135 1.395.585 0 .405-1.44.45-3.42.09-5.355-.945-.675-.36-.99-.36l-.855.135q-2.34.81-3.825 1.8-1.44.945-1.53 1.665-.18 1.71-1.125 2.61M384.972 229.813q-4.365.9-7.425 4.05-3.105 3.24-5.22 9.27-.27.81-.135 1.08l.675.45q4.23 1.485 8.685 1.305 4.95-.18 8.37-2.475 2.115-1.395 2.61-3.87.405-2.025-.315-4.365-.9-3.015-3.105-4.5-2.025-1.395-4.14-.945m8.775 4.995q.9 2.925.36 5.355-.675 2.88-3.375 4.68-3.6 2.385-9.09 2.565-4.86.18-9.225-1.35-1.53-.495-1.71-1.125-.135-.495.405-2.295 3.87-12.42 13.545-14.31 2.97-.585 5.445 1.08 2.565 1.8 3.645 5.4M387.222 259.108q1.485 5.535 2.115 9.045.675 3.6 1.035 8.055.225 2.7 3.645 4.32 3.555 1.71 7.2.405 3.24-1.125 4.86-3.87 1.8-3.15.675-7.38-.99-3.645-6.705-7.245-5.805-3.645-11.745-4.275l-1.08.09q-.18.135 0 .855m13.5 1.89q6.345 3.825 7.56 8.325 1.35 4.95-.765 8.64-1.935 3.375-5.85 4.59-4.41 1.395-8.46-.495-4.095-1.89-4.41-5.625l-.945-7.92-2.025-9.045q-.495-2.025-.09-2.43l2.7-.225q6.255.585 12.285 4.185"/><path fill="#0f141b" d="M385.332 267.523q1.305-.9 2.97-1.53l.405 1.89q-3.33 1.26-3.6 2.205-.225.675-.315 2.115v2.565q.225 2.07-1.575 3.15l-1.17.315q-.315-.27.495-1.08l.765-1.035q.225-.54.135-1.35-.09-1.125-.045-2.745.045-1.755.27-2.565.27-.9 1.665-1.935M362.248 291.238q.9-3.825 3.375-8.685 2.52-4.95 6.03-9.675 1.124-1.485 1.8-1.44.72.09 1.574 2.07 5.13 11.925 3.195 20.745-1.215 5.445-6.975 5.445-4.23 0-7.02-2.79-2.7-2.655-1.98-5.67m10.53-17.46q-7.064 9.675-9 17.82-.584 2.43 1.8 4.455 2.34 2.025 5.715 2.025 4.5 0 5.445-4.185 1.8-8.1-2.97-19.845-.405-1.035-.99-.27M109.844 253.168l-.72-3.015 2.43 1.89.27 1.665-1.98-.54M99.404 237.013q-3.915-2.34-8.73-3.06-10.53-1.53-18.314 3.735-7.83 5.22-9.135 14.67-1.845 13.275 4.14 21.465 5.49 7.515 15.794 8.685 6.795.81 12.42-1.215 5.94-2.115 9.63-7.11l1.89.72q-3.96 5.67-10.53 8.1-6.165 2.295-13.68 1.395-11.52-1.305-17.37-9.765-6.03-8.685-4.14-22.32 1.396-10.305 9.63-16.065 8.415-5.895 19.98-4.185 4.59.63 8.55 2.79l-.135 2.16"/><path fill="#0f141b" d="M95.444 214.424q2.79 9 4.5 21.734l-1.755-.675q-1.845-13.185-4.32-21.464-5.67 8.054-9.855 18.764l-1.845.09q4.32-10.71 10.035-18.9 1.44-1.98 2.025-1.844.54.09 1.215 2.295M66.015 242.908q-8.64-3.645-12.69-5.805-1.53-.81-3.15.18-1.395.9-2.475 2.835-1.26 2.295-1.17 4.23.09 2.205 2.025 3.33 7.83 4.635 13.5 7.38l-.09 2.25q-4.95-2.43-14.31-7.965-2.385-1.395-2.79-4.185-.36-2.835 1.395-5.985 1.44-2.655 3.6-3.735t4.23 0q5.805 3.06 12.915 5.94l-.99 1.53"/><path fill="#0f141b" d="M56.205 215.999q2.565 3.195 3.915 7.154 1.35 3.96 1.305 8.01 0 4.23-1.26 8.1l-1.755-.72q1.17-3.51 1.215-7.47.09-7.65-4.32-13.364l.9-1.71M39.33 209.879q-9.45 0-15.21 5.985-5.715 5.894-5.625 15.164.09 9.855 5.625 15.66 5.625 5.85 15.165 5.85 5.805 0 10.575-2.925l1.8 1.08q-5.265 3.51-12.285 3.645-10.125.135-16.38-6.12-6.39-6.39-6.345-17.19.09-10.304 6.435-16.694 6.3-6.3 16.29-6.3l4.545.45-1.08 1.71-3.51-.315"/><path fill="#0f141b" d="M57.33 196.649q1.035 5.175.675 11.61-.36 5.985-1.665 9.405-.405.99-1.17 1.395l-2.25.315q-3.015 0-6.03-1.35-3.285-1.485-4.815-3.96-.495-.72-.495-1.8-.045-.945.315-1.755 4.545-9.045 12.42-14.94 1.395-1.035 2.07-.81.63.225.945 1.89m-13.635 16.47q1.125 1.8 4.095 3.195 2.745 1.26 5.13 1.26 1.575 0 2.025-1.08 1.215-2.97 1.575-9.18.36-6.525-.63-11.25-7.47 5.49-12.375 15.075-.45.9.18 1.98M19.17 191.564q-.9-.9-2.475-1.08-1.8-.18-3.015.675-1.485 1.035-1.89 3.51-.99 6.345.855 13.5 2.025 7.83 6.795 13.32l-.72 1.98q-5.4-5.85-7.74-14.535-2.16-7.83-1.08-14.58.45-2.88 2.43-4.365 1.89-1.44 4.545-1.125 2.25.225 3.645 1.665 1.485 1.53 1.305 3.69-.405 5.85.945 9.9 1.35 4.095 4.95 7.74l-1.395 1.035q-3.69-3.645-5.22-8.145-1.53-4.545-1.08-10.575.135-1.62-.855-2.61"/><path fill="#0f141b" d="M7.11 166.499q-5.58 5.895-5.31 13.635.18 5.67 2.655 10.125 2.295 4.095 6.21 6.66l-.045 1.89q-4.635-2.745-7.425-7.425-2.97-5.04-3.195-11.295-.225-8.37 5.895-14.76 6.165-6.435 14.76-6.39 4.32.045 8.505 2.115 4.23 2.07 7.245 5.715l-1.89.27q-2.7-2.97-6.39-4.68-3.645-1.62-7.515-1.71-7.83-.135-13.5 5.85M40.275 173.834q1.035 3.195 1.035 6.66 0 7.92-5.715 14.4-5.985 6.795-14.31 6.885l-.315-1.62q8.055-.225 13.455-6.48 5.085-5.85 5.085-13.23 0-2.79-.585-5.085l1.35-1.53"/><path fill="#0f141b" d="M26.865 169.019q-4.275 1.215-3.645 6.165.45 3.285 2.745 5.22 2.43 2.025 5.085.63 3.015-1.575 6.615-5.625 3.015-3.42 5.805-7.74-2.835-.405-7.74-.045-5.175.36-8.865 1.395m7.065-2.745q4.095-.27 8.595.045 2.07.135 2.385.675.27.495-.72 2.115-2.655 4.41-5.895 7.92-3.51 3.825-6.705 5.445-3.285 1.62-6.345-.63-2.97-2.205-3.555-6.525-.405-2.835.765-4.905 1.26-2.205 4.005-2.97 3.15-.9 7.47-1.17"/><path fill="#0f141b" d="M33.93 165.374q3.195-3.69 5.49-5.715 1.755-1.575.045-3.6-.9-1.17-2.115-1.44-1.26-.315-2.34.495-2.34 1.755-7.02 6.345l-1.665-.765q6.12-5.85 7.74-7.065 1.395-1.035 3.33-.675 1.935.405 3.285 2.07 1.215 1.53 1.125 3.105-.045 1.62-1.35 2.655-2.295 1.89-5.4 5.715l-1.125-1.125"/><path fill="#0f141b" d="M32.085 156.329q-.45-1.89-.54-3.96-.36-7.56 5.04-13.05 5.265-5.355 12.465-5.355 5.58 0 10.125 3.285 4.365 3.195 6.21 8.325l-2.16-.945q-2.025-4.05-5.715-6.525-3.915-2.565-8.46-2.565-6.39 0-11.25 4.815-5.085 5.04-4.725 11.925.09 1.575.315 2.835l-1.305 1.215M38.79 166.859l-2.655-2.61.855-1.215q1.665 2.205 4.05 3.735l-2.25.09M43.875 168.209q2.61.99 5.4.9 5.85-.18 9.99-3.735 4.05-3.465 5.22-9.18l1.62-.405q-1.125 6.255-5.445 10.26-4.59 4.32-11.43 4.5-2.925.135-5.985-1.08l.63-1.26M69.075 141.074q.855-5.49 4.545-8.685 3.644-3.15 8.91-3.15 5.76 0 9.81 3.915 4.05 3.87 4.184 9.585 0 3.105-.81 5.535l-1.08-1.98q.405-1.665.315-3.51-.09-5.175-3.69-8.595-3.6-3.42-8.775-3.42-4.815 0-8.01 2.745-3.15 2.745-3.914 7.515l-1.485.045M69.48 148.319l-.405-1.755 1.485-.18q.27 1.71.945 3.15l-2.025-1.215M82.664 157.904q-6.525.135-10.53-4.635l1.216-.81q3.51 4.05 9.314 4.05 3.87 0 6.75-1.935l1.575.63q-3.51 2.655-8.325 2.7"/><path fill="#0f141b" d="m66.42 146.204 6.885-.945q1.934-.225 1.71-2.025-.136-1.935-1.98-1.755L63 142.784l-.855-1.395 10.845-1.305q1.44-.09 2.384.765.945.855 1.08 2.385.135 1.215-.585 2.16-.855 1.125-2.474 1.26l-5.355.63-1.62-1.08M95.354 148.769q-1.62-2.97-2.925-3.825-1.755-1.17-3.51-.81-1.62.36-2.79 1.89-1.35 1.8-1.035 3.78.315 2.115 2.385 3.105l4.86 1.845 5.895 1.035q-1.26-3.96-2.88-7.02m1.485-.135q1.755 3.465 2.97 7.56.225.72.09.945l-.72.135-6.75-1.08q-2.88-.675-5.58-1.935-2.61-1.215-3.195-4.005-.54-2.79 1.26-5.085 1.575-2.07 3.96-2.52 2.34-.45 4.32.945 1.665 1.125 3.645 5.04"/><path fill="#0f141b" d="M95.67 141.839q6.434 2.025 9.854 3.915 1.17.675 1.62 1.89.405 1.305-.18 2.52-.585 1.17-1.71 1.44l-2.115-.225q-5.355-2.205-7.335-2.88l-.495-1.575q3.555 1.125 8.235 3.15l1.305.135q.63-.18.855-.675.315-.675.135-1.35-.225-.81-1.035-1.26-3.06-1.8-9-3.465l-.135-1.62"/><path fill="#0f141b" d="m101.25 149.849-.046.765q.135 5.58 3.555 8.865 3.195 3.06 7.965 3.06 3.24 0 5.895-1.71l1.17.9q-3.06 2.025-7.02 2.025-5.76 0-9.27-3.51-3.555-3.51-3.69-9.585l.09-1.305 1.35.495M101.294 144.449q1.53-3.015 4.275-4.815 3.06-1.98 7.065-1.98 5.22 0 8.775 3.555 3.6 3.69 3.645 9.495.045 2.565-.72 4.905l-1.125-1.44q.45-1.62.45-3.6-.045-4.725-2.97-7.965-3.15-3.42-8.1-3.465-3.465-.045-6.165 1.665-2.475 1.53-3.915 4.185l-1.215-.54"/><path fill="#0f141b" d="M119.07 154.799q-1.35.9-1.396 2.61-.09 1.8 1.395 2.925 3.195 2.475 8.01 3.285-1.44-5.04-3.645-8.1-.81-1.035-1.98-1.26-1.215-.225-2.385.54m5.445-.135q1.26 1.8 2.115 3.78l1.44 4.05q.495 1.71.18 2.115l-2.16.09q-5.04-1.125-7.875-3.375-2.07-1.62-1.98-4.05.135-2.34 2.07-3.6 1.53-.99 3.33-.765 1.845.225 2.88 1.755M115.064 330.478l-1.17 1.575-.18-2.835q-.045-.495-.36-.18-1.305 1.08-2.16 2.97-.855 1.755-.945 3.465l-1.305 2.475q-.495-2.61.585-5.4.99-2.61 2.97-4.455 1.125-1.08 1.71-.99.495.135.72 1.395l.135 1.98M136.394 339.658q1.035-3.78 1.575-7.335.225-1.35.675-1.26.495.09.315 1.44-.45 4.095-1.575 7.38-.45 1.305-.9 1.215-.45-.09-.09-1.44M58.77 144.404q-2.7 0-4.185 1.845-1.305 1.575-1.305 3.96 0 2.475 1.26 4.095 1.485 1.935 4.455 1.935 3.15 0 7.605-1.485 4.05-1.35 6.525-2.925-3.645-3.285-7.65-5.355-4.005-2.07-6.705-2.07m7.245.765q3.78 1.98 7.335 5.04 1.394 1.17 1.304 1.8-.135.63-2.024 1.665-3.015 1.575-6.57 2.745-4.095 1.305-7.02 1.35-3.465.045-5.4-2.205-1.8-2.07-1.8-5.355 0-3.06 1.8-5.085 1.935-2.205 5.22-2.205 2.88 0 7.155 2.25"/></svg>