<svg xmlns="http://www.w3.org/2000/svg" width="361" height="438" viewBox="-0.16 -0.428 360.641 437.627"><path fill="#fff" d="M355.023 341.755q1.23 1.445 2.622 1.231.642-.054.749.321l-.375.91-1.605 1.176-2.728.91q-5.885 1.123-6.367 4.173-.267 2.033 1.07 4.44 1.284 2.194 3.478 3.96l1.016 1.07-.16 1.444q-.214 1.016-.268 2.728-.053 1.712.16 2.782.429 2.087-2.086 2.194-4.28.16-6.634 4.333-1.926 3.424-2.086 8.4-.054 1.23-.535 1.872l-1.552.91q-2.086.802-5.35 3.317-1.176-.054-1.979.535-.749.535-.91 1.39-.267 1.873-1.711 2.943l-5.35 5.083q-1.391.214-7.437-.16l-47.614-5.03-4.28-.535q-1.498.16-2.515-.802-1.23-1.07-1.498-3.424-1.23 1.498-.856 14.338.054 1.444-.695 2.621-.803 1.177-2.194 1.658-1.551.482-4.066 2.033-2.835 1.712-4.761 3.585-1.659-1.338-4.173-1.124-2.354.214-4.334 1.605l-34.454-1.765-35.63 2.354q-1.498-1.926-3.05-2.836-1.23-.695-3.156-1.123l-4.013-.803q-2.3-.481-2.782-.909-.642-.642-.16-6.366v-1.82l-.696-1.39q-1.605-2.3-2.193-3.531l-27.017-12.412q-1.391-2.194-1.873-4.334-.214-1.016-.053-1.498.214-.695 1.177-1.284 3.317-2.14 6.58-5.082 2.087-1.98 1.98-5.564-.054-1.445.16-1.98.267-.856 1.391-1.658 1.605-1.124 6.42-1.338l2.46.321q.857.428 1.124 1.82.321 1.337 1.926 1.497l3.531-.481q-.16-2.194.321-3.638.642-1.712 2.461-2.89 2.996-1.979 6.848-3.156 1.712-.535 2.568 0 .535.321 1.177 1.659-1.926 3.103-4.761 5.67l3.798-.588 1.766.054q.749.428 1.177 1.98l2.889-2.676q1.551-1.765 1.872-2.942.214-.75.91-.91l1.337-.053q.91.053 3.96 1.123l56.495-2.407q4.868-1.605 6.794-2.087 2.14-.588 2.943 2.033.749 2.354 2.354 4.548 1.444 2.086 2.514 2.568 1.177.535 5.35-1.07 1.498-.589 2.033-1.445.535-.802.428-2.3-.107-2.033.321-4.066.482-2.14 1.284-3.478-.642-2.086-.32-3.424.213-.91 1.765-1.444l2.568-.428 1.177.107 1.39-.107 1.231-.054 1.552.91q1.016.856 2.567 1.177l3.21-.268q3.21-1.123 9.684-5.029.963-.535 1.39-.535.429.054.536.75l.32 3.263q.054 1.444-1.39 1.926-2.89 1.016-8.132 8.078-.642.91-1.712.963-1.017.054-1.873-.642-.642-.642-1.819-.642l-1.818.16q-1.873.322-2.943 3.692-1.07 3.103-.749 6.527l3.103-1.07q-.214-2.354 1.445-3.584 1.497-1.124 3.156-.482l45.1-2.996q1.659-.856 3.21-1.07l2.3-.107q1.445 0 5.137 4.44 1.284 1.606 3.37 1.82l4.334-.482 1.39 3.103q1.391-.16 3.317-1.07 1.98-.91 2.033-1.551.054-.75-1.23-4.173-1.338-3.799-2.889-6.741 2.354-1.605 7.543-4.12 5.297-2.514 8.56-3.53M19.1 367.97q2.246-3.21 3.102-6.794.428-1.766 1.712-2.194 1.07-.428 3.103 0 4.708.91 8.56-.428 4.227-1.498 5.083-5.136.214-.91.695-1.23.482-.321 1.445-.268l4.547.535 49.327.642q1.658-.16 6.366 0 1.926.054 2.729 3.37.91 3.906 2.835 5.404 1.712 1.338 4.869 1.124 1.444-.054 2.3-1.124.75-.91.589-1.819-.268-1.284.588-2.996l1.338-3.21q-.91-1.872.107-2.782l2.942-.16 5.671.588q3.37-.267 4.494-1.658 1.284-1.552 3.531-2.568 2.461-1.07 4.975-.963-.802 1.872-.642 4.066.054 1.765-1.551 2.675-3.21 1.712-5.35 4.547-3.05-1.23-5.831-1.337-.963-.054-1.926.749-.963.695-1.498 1.872-.428 1.017-.107 4.12.374 2.889 1.016 4.708.589 1.551.214 2.621-.32.856-1.498 1.82l-2.728 2.728-2.408 2.996q-.856 1.177-2.247 1.551l-2.675-.107-2.835-.374q-1.659.053-2.515.535l-1.926 1.016-2.247.696q-1.123.16-1.712.963-.535.642-.428 1.39.107 1.338-.428 2.622-.749 1.873-.802 3.317l-.75 3.638-1.604 4.601q-.75 1.819-4.922 3.852-2.89 1.445-6.634 2.675-2.782.963-5.297.588-2.996-.481-7.276-2.995l-3.638.481q-1.872.642-2.888 1.605-.963.91-2.568 1.337l-2.782.054q-2.033-.428-7.116-.107l-37.931-25.145q-1.873-2.193-3.103-4.28-1.284-2.14.802-3.156 2.622-1.23 4.922-4.655"/><path fill="#f39950" d="M178.047 199.447q1.98 2.407 6.794 3.691l8.293 1.444q10.86 1.445 23.486 10.219 8.346 5.831 19.848 16.906l5.404.267 8.239-.91q9.523-1.925 18.992 1.927 9.523 3.852 17.013 12.733 17.013 20.062 16.531 53.66-.16 11.235 4.548 19.26 5.243 8.827 7.918 19.313 3.05 11.984 3.317 27.766-.696.214-1.712 1.338l-4.387.267-4.601.803q-6.955-9.202-9.577-7.918-1.551.695-2.675.428-.749-.107-3.959 1.872-3.317 2.087-5.724 4.227-2.194-1.07-4.762-3.317-1.23-1.124-2.14-1.124-.588-.053-2.3.589-2.943 1.07-4.12 0-.963-.856-.428-2.3l.75-2.73.909-3.477 1.551-.053 1.07-1.177q1.017-1.873 3.852-4.601 2.515-2.461 4.013-3.317l.963-.642.32-.91-.053-3.103q-.107-1.016-.695-1.23-.589-.16-1.391.481-.75.696-8.239 4.387v-15.514q-12.572.267-20.972-7.009-7.008-6.099-9.79-15.836-3.37-1.444-6.741-2.193l-8.507-1.445-5.617 4.976q.535 3.156 2.942 8.506 3.05 6.688 5.618 20.705 2.568 14.284 3.317 29.103-2.354 0-3.852-1.98-.91-1.176-4.44-1.818-3.532-.696-4.762-.054-1.177.589-3.103 6.313-1.873 5.564-1.605 7.062.267 1.284-.214 2.3-.375.803-1.391 1.82-.856.856-3.37 1.765l-3.425.91q-.856 0-4.6-2.782-3.371-2.568-6.688-5.51l-4.547 1.07-4.12 1.337-4.44-.16q-1.498-.91-6.634-2.087-.589-8.56-.16-17.602l-3.96-1.123q-.749-.16-1.23.214l-1.07 1.39q-1.552 2.836-4.28 4.762l-1.23-1.444q-.91-1.124-2.14-.375-1.766 1.017-3.8.589 5.458-5.243 9.363-13.964 3.264-7.276 4.708-15.14-2.889-2.46-4.922-7.062-1.926-4.333-2.14-8.346-6.313.16-12.037-.963-4.013-.749-8.935 0-8.88 1.391-18.617-1.926-11.663-3.959-18.832-13.428-5.35 12.626-7.918 17.013-1.017 1.765-1.284 2.675-.321 1.016-.321 2.782 0 10.004-2.782 33.17-.321 2.781-3.264 1.765-5.457-1.82-8.506-.482-3.103 1.338-3.103 5.564 0 2.568-2.836 2.568l-3.905.375-4.12.802-2.407.054-2.247-1.23-7.062-4.28q-4.226-2.355-6.74 1.711l-1.499 2.033-2.193 1.338q-.91-.054-3.638-1.23 2.193-15.944 8.88-30.87 5.03-11.288 10.968-18.778l2.835-4.173q1.017-2.033 1.659-5.083 1.765-8.934 2.621-15.729.963-8.239 1.445-20.115.535-14.124 3.905-25.038 3.21-10.219 9.202-18.832 4.548 3.103 9.31 3.424l-1.07-5.243q20.436 6.152 41.515.428 20.704-5.618 27.82-18.565l13.91-5.884"/><path fill="#d1889e" d="m75.916 331.644 1.98.16q1.23-.053 2.407-.641 1.39-.696 5.51-1.82 4.227-1.176 5.297-1.123 1.605.107 1.498 3.264-.054 3.263-2.087 6.42-1.444.16-3.37 1.604-1.712 1.338-2.568 2.675-.589.91-2.408.91-3.638-.214-14.872 4.28l-3.317.16-3.585-.32-4.44.267-3.103-.214q-1.23-.642-2.782-2.782 2.514-8.613 4.761-13.856l9.042 1.337 4.814.107 7.223-.428M306.071 330.093q.856-1.23 1.712.428l1.873 3.638q.588 1.284.481 2.086-.16.856-1.177 2.086-4.226 4.815-5.885 8.079l-7.222 2.889-5.35 2.568q-2.729 1.39-4.762 0-2.675-1.873-5.35-3.264 1.498-2.247 3.799-3.37l1.177-.856.214-1.07q0-1.766-.642-4.44l2.354 1.497 3.584-.107 3.96-2.033 3.049-2.032q.91-.91 3.745-2.087 2.14-.802 4.44-4.012"/><path fill="#fff" d="M194.31 125.51q5.886-.535 10.165 7.223 3.585 6.526 4.976 16.477 1.39 10.058 1.605 18.672.267 10.272-1.498 12.465-3.852 4.815-17.066 11.984-12.359 6.688-27.98 12.786l-89.88 3.852q-7.704-2.568-10.432-3.745-6.046-2.568-11.93-6.526-8.026-5.457-9.898-17.174-1.338-8.185.428-18.03 1.444-8.399 7.757-17.654 7.597-10.968 15.622-10.968l10.218.375 12.412 1.016q13.375-8.88 33.33-10.7 20.812-1.925 35.257 5.297 14.23-3.21 36.915-5.35"/><path fill="#fff" d="M74.578 198.965q-1.712 2.247-2.996 5.778-.695 1.926-1.765 6.26-10.753-4.976-7.971-17.013 2.675-11.556 14.658-19.635 1.391 6.474 6.26 8.079 4.494 1.498 12.251-1.124 1.766-3.959 5.832-8.988 3.959-4.975 6.794-6.955 3.37 3.21 12.305 14.285 8.186 1.605 23.7-6.527 14.766-7.758 18.297-14.178.91-1.551 2.3-.428 5.404 4.227 7.705 11.182 2.247 6.687 1.07 14.177-2.622 16.853-17.923 24.877-.535-5.831-2.354-11.77-1.712-5.296-4.012-9.522-.589 12.679-7.009 23.058-5.617 9.095-14.658 14.98 2.086-12.894-1.605-33.972-4.28 3.745-9.202 9.041-4.869 5.243-8.72 10.218-8.186-5.029-15.141-17.815-.642 18.136 3.477 35.738-8.827-.375-14.98-9.63-5.67-8.614-6.313-20.116"/><path fill="#f39950" d="M77.842 151.671q.32-6.58 2.14-7.65 1.658-1.017 5.403 1.23 3.264 1.873 5.939 4.762 10.058-7.758 25.52-9.149 13.856-1.23 23.325 2.89 6.152-4.762 15.3-7.17 8.507-2.193 10.112-.428 1.338 1.445-.214 7.544-1.39 5.724-4.066 10.86l1.284 3.745q-4.44 6.955-17.12 13.91-14.016 7.597-25.519 7.437-4.975-6.634-12.305-14.285-3.21 1.98-7.008 7.062-3.103 4.12-5.618 8.881-10.807 3.96-15.943-1.39-5.243-5.458.054-16.372-1.605-5.243-1.284-11.877"/><path fill="#756550" d="M347.854 150.815q-2.14 1.284-4.547 3.906-2.247 2.46-6.313 4.44-8.239 4.066-11.181 10.005-6.527 13.482-10.219 26.375 4.066 1.07 6.58 4.601 2.622 3.691.964 7.115l-4.44 7.597q-2.89 4.173-4.816 5.51-2.835 2.034-7.33 3.585l-6.687 1.766-3.103.374-3.317-.107q-3.21-.642-7.81 1.391-5.19 2.354-11.075 7.704-4.975-2.621-9.309-3.798-5.19-1.338-10.753-.963 9.255-4.12 14.338-8.881-3.531-.589-4.28-2.14-.589-1.23-.856-3.05-.268-2.033.053-3.852.321-1.872 1.712-4.708 1.338-2.782 2.354-3.691l2.782-1.872q1.872-1.017 3.317-1.284l2.3-.214 2.033.695q3.05 1.284 6.58.375 3.8-1.017 6.314-4.227 6.206-7.81 12.626-20.972-4.762-3.852-6.795-4.975-1.444-.75-1.926-1.445-.749-1.07-.695-3.21.053-3.317.695-10.111.75-7.918 1.391-8.828.642-.963 6.1-5.403 5.67-4.655 8.613-6.58-.482-6.741-4.387-15.515-4.387-9.79-10.112-14.82l-3.691 1.017q-1.605.535-2.943 1.337l-2.782 1.23q-1.444.322-3.584 0-4.44-.695-9.577-2.728-5.082-2.086-7.382-4.12-5.136-4.654-4.976-9.362l.214-11.663q-4.868-2.675-11.288-4.44-5.832-1.659-9.256-1.659-3.05 0-4.868.803-1.659.695-3.157 2.514-3.477 4.12-7.918 8.132-5.136 4.655-7.169 5.083l-14.552.588-13.749-1.39q-1.658-.322-2.407-1.017-.856-.856-.856-2.568 0-3.21-1.712-10.807-3.906 2.621-7.865 6.045-3.959 3.478-6.687 6.688-3.692 4.28-13.643 7.918-9.362 3.424-14.766 3.103-8.238-.482-15.782-2.461-8.88-2.354-13.696-6.1-2.407-1.872-3.477-4.065-1.017-2.247-1.07-5.885-.16-7.972-1.552-17.494-.802-5.778 1.338-10.058 1.819-3.852 6.26-7.062 3.798-2.782 8.238-8.293 5.03-6.206 7.544-12.144Q134.498 15.943 148.3 8.4 161.997.91 175.746 1.39q21.668.856 36.22 7.169 13.107 5.724 13.535 12.251.535 7.33 3.156 10.593 3.745.428 8.346 3.103 9.577 5.564 31.244 7.704 5.457-1.765 12.733-6.527l8.56-5.457q1.819-.695 3.263-.642 1.338.054 2.729.75 5.136 2.62 10.593 6.633 4.975 3.692 8.72 7.437 1.07 1.07 1.07 3.156 0 1.498.803 3.799.588 1.551.588 2.46.107 1.766-1.177 3.264-4.868 5.618-9.041 13.107.802 2.782 2.407 5.083 1.605 2.407 4.494 4.975 5.832 5.297 10.968 13.161 6.099 9.31 6.206 15.462.107 3.53.963 6.687.963 3.692 2.354 3.745.963.054 2.835-1.284l3.424-2.782q2.086-1.658 3.05-2.193 1.444-.75 2.995-.589 2.14.268 4.227 4.387 2.568 5.083 2.728 12.84.214 8.292-1.551 14.124-1.605 5.35-4.334 7.008"/><path fill="#fdd23f" d="M102.72 166.758v3.21q-3.05 3.424-4.709 6.1-2.728 1.176-4.547.962-1.498-.214-2.568-1.498-1.873-2.247-.963-7.33.91-4.868 3.263-7.703 3.103 4.066 9.523 6.26M127.169 173.874q-5.083.214-8.025-3.37-2.782-3.371-2.14-7.865l11.128-10.968q3.424.214 6.206 3.21 3.049 3.157 3.156 7.49.107 4.762-2.461 7.865-2.782 3.424-7.864 3.638"/><path fill="#fff" d="M126.527 161.836q1.23-.053 2.193 1.177.963 1.284 1.017 3.103.053 1.873-.696 3.103-.802 1.23-2.086 1.284-1.284.054-2.14-1.177-.856-1.177-.963-2.942-.16-1.659.588-2.996.75-1.445 2.087-1.552M98.386 167.24q.91.053 1.444.91.428.802.482 1.979.053 1.123-.482 2.14-.535 1.07-1.337 1.123-.75.054-1.338-.91-.481-.962-.535-2.193-.053-1.177.482-2.086.535-1.017 1.284-.963"/><path fill="#d1889e" d="M81.052 234.596q3.477 5.243 2.14 13.91-1.552 10.058-9.309 15.996.32-8.346 1.98-15.996 1.925-8.72 5.189-13.91M73.508 273.383q.696 1.765 2.087 3.477 1.39 1.766 3.103 2.89.91.641.802 1.39-.107.75-1.177.803l-5.35-.268.535-8.292M216.673 347.373q-1.444 1.872-3.53 2.835l-4.495 2.3q-3.317 1.766-4.547 2.569-1.07.695-1.872.802l-1.605-.32-4.548-.696-6.58-.214q-1.98 0-2.087-1.659l-.374-1.284q-.375-.428-1.445-.749-3.05-.749-4.066-2.033-1.016-1.284-2.728-2.086.107-5.725.91-12.733 1.55.91 3.637 1.605l3.478.696q1.498-.107 3.53.588 2.355.802 3.96 2.247l4.494-.535 3.744-.16q3.906.16 9.31-1.659 5.296-1.765 8.024-4.12l3.799-3.21q2.354-1.658 3.691-1.123 1.98.803.642 5.778-1.444 5.564-6.473 8.72-2.3 1.445-4.869 4.44M202.229 207.311q4.868 1.765 8.238 3.852.803 1.872.428 3.21l-.749 1.605q-.374 1.177-1.337.428-.803-.535-1.766-.535t-1.712-1.82l-3.102-6.74M218.6 216.352l6.205 4.922 5.083 4.494q.214 3.103 1.23 5.725.803 1.926.642 3.317-.16 1.284-.91 1.658-1.23.642-3.851-1.712-2.568-2.3-2.836-4.066l-.588-1.765-.856-1.498q-1.017-1.82-1.23-2.836-.375-2.354-2.89-8.239M238.555 232.99q3.745 1.552 6.099 1.606 1.872 3.05 2.942 7.33 1.017 4.012.963 7.329 0 1.284-.588 1.337-.482.054-1.07-.856-1.98-2.782-3.906-3.103-1.177-.16-1.872-2.728-.642-2.3-.375-3.906.428-2.675-2.193-7.008M216.834 227.373q3.156 6.955 5.243 16.96 2.033 9.523 2.46 19.153-1.23 4.333-5.296 6.901-3.21 1.98-6.42 2.086-1.444.054-1.658-.588-.268-.589.749-1.391 2.3-1.872 3.745-4.387 1.551-2.782 1.605-5.51-6.474 1.712-11.075-2.675-4.654-4.44-6.42-14.285-1.444-8.025.643-13.803 1.925-5.403 5.884-6.473 2.836-.803 5.19 0 2.568.91 5.35 4.012M286.49 245.35q4.44 5.189 7.758 12.037 2.835 5.992 5.35 14.391-.214 3.424-1.82 7.81l-2.888 6.849q-.589 1.23-1.23.749-.643-.428-.643-1.659v-5.19l-.428-5.884q-2.354 2.621-6.206 2.996-3.691.374-7.169-4.708-3.424-4.975-4.6-11.93-.964-6.046.374-11.128 1.284-4.815 3.745-6.046 1.819-.91 3.53-.588 1.927.32 4.227 2.3M26.215 381.399q2.033-1.82 3.21-2.354 1.177-.589 2.514-.482 2.354.16 4.708 3.745 1.82 2.675 2.782 5.778 2.461-3.37 5.832-5.885 3.424-2.568 5.778-2.675 5.029-.214 7.276 6.367 2.46 7.115-1.338 16.264-.856 2.086-2.354 2.995-1.284.803-3.477 1.017-10.54 1.177-21.186 3.798-2.408.589-1.873-1.337l1.338-4.922q-6.367 3.05-15.034 5.617l-1.498.107q-.535-.214-.749-1.177-.32-1.765.856-6.58-5.243 2.675-10.004 4.708-2.461 1.07-2.247-1.017.91-9.362 8.613-18.778 7.276-8.988 12.733-8.988 2.3 0 4.12 3.799M127.222 399.054q-1.712.695-1.98-.161-.213-.535.215-2.835-2.408.267-4.708 1.177-1.017.428-1.445 0-.374-.375-.16-1.445 1.872-8.239 6.794-12.786 5.136-4.708 9.737-1.659 3.21-2.942 5.564-3.317 1.98-.32 5.35 2.087 2.3-1.82 4.6-1.82 1.285 0 2.89 3.104-2.3 1.39-3.585 4.815-1.177 3.05-.588 4.012.695 1.07 3.477 1.659-.053 1.177.482 2.568-3.745.374-8.079 1.872-2.514.803-8.132 3.103-1.551.696-1.872-.16-.321-.642.107-2.622-6.634 1.552-8.667 2.408M173.98 399.91q4.12-4.601 9.898-4.494 7.223.214 9.47 9.736 2.247 9.363-3.05 15.034-4.44 4.815-9.844 14.766-.481.91-.963.963-.481.053-1.23-.696-3.264-3.53-5.725-10.593-2.193-6.366-2.568-11.823-.481-7.865 4.013-12.893M195.167 410.663q-.856-6.901 2.621-11.502 3.317-4.334 8.613-4.548 7.17-.267 9.898 7.972 2.728 8.131-1.177 17.28l-3.103 7.918-2.033 5.617q-.589 1.873-2.247.91-5.564-3.424-8.56-9.149-2.889-5.564-4.012-14.498"/><path fill="#d1889e" d="M240 412.214q.267 4.494-1.178 10.219-1.23 4.922-3.53 10.004-.803 1.873-2.462.375-4.387-4.173-7.918-8.72-4.44-5.725-5.51-9.845-1.284-4.975 1.658-12.411 3.103-7.865 7.437-7.918 4.44-.107 7.864 5.564 3.157 5.403 3.638 12.732M285.58 389.798q1.873-3.691 4.602-5.457 2.46-1.605 5.19-1.337 2.193.214 3.744 2.514 1.659 2.3 1.926 5.832.642-3.05 3.424-5.671 2.782-2.568 5.35-2.568 3.05 0 5.243 3.584 2.247 3.745 2.194 9.47-.054 3.263-2.675 7.864-1.98 3.531-5.03 7.169-.48.642-.855.642l-.75-.375q-2.567-2.247-4.6-5.938-1.926-3.424-2.568-6.741-3.157 6.366-7.972 11.77l-1.016.695q-.428.054-1.017-.428-2.621-2.14-4.494-6.045-1.872-3.852-2.14-7.65-4.12 6.473-8.88 11.609-.964 1.016-2.087 0-4.226-3.799-3.798-16.05.16-4.066 3.21-7.704 3.102-3.638 6.526-3.638 2.3 0 4.227 2.675 1.712 2.408 2.247 5.778M353.953 132.09q-.16 6.634-1.551 11.342-1.605 5.404-4.548 7.383l-5.029 4.12q-3.103-1.07-4.28-6.046-.963-3.959-1.177-13.749-.107-4.012 1.98-10.432l.695-3.05.107-2.407q0-2.675 1.926-4.815 1.98-2.14 4.655-2.247 2.889-.054 5.136 6.206 2.193 6.152 2.086 13.696M303.343 35.096q7.543 5.136 11.502 9.309.803.856 1.07 1.819l.16 1.712q0 2.247.643 3.424.588 1.07.481 2.354-.053 1.39-.963 2.621-3.852 2.194-5.778 2.943-1.658.642-2.835.695-1.445.054-3.638-.695-2.087-.696-5.618-3.157l-6.74-5.136q-3.371-2.675-5.725-8.506-2.3-5.778-1.391-9.256 2.514-1.712 3.959-2.407 2.247-1.07 4.066-1.124 2.782-.053 10.807 5.404M222.612 15.729q2.675 2.942 2.889 5.082-3.317 5.725-12.52 11.503-8.131 5.082-16.21 7.543-4.814 1.445-20.008 1.445-15.301.053-19.528-1.445-1.872-.695-4.547-2.568-3.103-2.247-5.297-4.708-6.366-7.33-6.366-12.786 0-4.601 1.551-7.758 7.383-5.51 15.194-8.025 7.544-2.46 17.227-2.568 24.129-.32 38.948 7.704 5.403 2.943 8.667 6.58"/><path fill="#dcdddd" d="M64.307 189.442q-1.552 5.136.374 10.914 1.98 5.831 5.992 7.704l-.589 3.156q-5.884-2.3-7.971-8.025-2.354-6.473 2.194-13.749M95.818 228.925q-10.058-2.194-15.194-10.219-4.708-7.436-5.404-20.222 1.82 10.325 7.437 17.44 5.35 6.848 12.144 8.24l1.017 4.76M92.554 192.17q2.89 3.532 6.367 6.528 3.424 2.996 6.473 4.6-1.444-4.814-2.247-13.91 3.585 2.676 10.7 3.104 6.955.374 11.717-1.659-13.054 12.947-18.19 20.062-4.655-3.37-7.49-6.687-4.173-4.815-7.33-12.037M148.408 186.553q.214 12.626-5.671 22.898-5.404 9.362-15.408 16.05l.75-7.223q8.238-5.19 13.16-13.107 4.708-7.49 7.169-18.618M172.804 176.549q1.284 9.737-3.96 18.992-5.082 9.041-13.695 13.375l-.856-5.243q7.115-3.959 11.93-11.02 4.976-7.17 6.58-16.104"/><path fill="#dcdddd" d="M47.882 194.685q-5.67-7.65-6.206-18.564-.481-9.684 2.996-17.013 6.634 3.317 15.408 6.099 8.453 2.728 16.745 4.333-.428 2.89-.214 4.708-5.67 2.782-11.074 11.45-6.366 10.218-3.477 17.975-10.486-4.066-14.178-8.988M72.171 203.031l2.782 6.473-4.227-1.551 1.445-4.922M198.109 145.84q1.873 12.198 4.761 21.614 3.531 11.716 7.116 12.893-3.906 5.03-18.671 12.894-13.268 7.008-26.857 12.037 1.337-2.729 1.98-6.099 6.847-8.934 6.954-21.025.054-11.877-6.366-17.12 9.47-2.943 17.762-6.527 12.465-5.35 13.321-8.667M84.101 387.284q.375-2.568 3.585-5.19 2.996-2.407 7.222-3.905.375-5.885.696-8.507.749-5.617 2.14-7.543-2.14-1.766-2.836-4.762 1.284-.481 1.766-4.28l7.062-.053q.749.053 1.123 1.765.482 2.247.856 2.782 3.157 5.03 4.762 5.136l4.387-.374q2.193-.75 1.658-2.782-.32-1.284.107-2.087l.856-1.39.75-3.318q.588-2.46 1.337-2.14l4.012.803 4.013.16q1.926-.107 3.21-1.337 1.016-.963 3.905-2.515 3.37-1.819 4.654-1.605.482.107-.107 2.515-.535 2.46.214 2.782-.374.963-2.889 2.354-2.567 1.39-3.744 3.852-4.762-1.498-6.42-1.284-.963.214-1.873.749-1.07.695-1.337 1.551-.75 2.836.107 6.206l.749 3.852q.16 2.14-1.017 3.317-3.638 3.424-5.19 5.671-1.016 1.445-1.925 1.712l-3.585-.16-4.6.374q-2.622.589-4.12 1.445-1.391.749-1.926 1.39-.535.643-.535 1.66 0 1.39-.803 2.728-.374.642-.749 3.905-.642 5.992-2.728 7.972-1.445 1.337-5.725 3.477-4.494 2.247-6.58 2.514l-5.243-.32q-3.157-.696-5.457-2.301l-3.638.214q-2.14.535-3.263 1.498-1.177 1.016-2.14 1.337l-2.461.107q-3.799-.535-7.972 0 2.515-2.781 3.745-6.42 1.124-3.37 1.498-8.613 2.354-.642 4.227-2.247.856-.802 2.033-.642 1.604.268 2.407 2.89 1.819-.215 6.26.962 1.925.535 5.296-.428 3.852-1.123 4.226-3.477M134.98 363.85q.053-2.086.374-2.46.856-1.177 5.029-1.82 4.173-.695 4.975.375l.803 1.552q.481 1.123 1.123 1.551.856.589 2.14.535 1.284-.107 2.14-.802l.375-3.638q.16-1.659 4.173-4.12 4.066-2.568 6.687-2.407 1.766.16 2.408 1.765l-4.173 5.51q1.98 0 2.942-.588 1.07-.642 2.247.642 1.23 1.391 1.82 1.177-3.05 1.498-5.565 3.317-2.782 1.926-3.21 3.05-.481 1.23-.428 2.942.054 1.82.75 3.05 1.604 2.996-.108 4.494-1.819 1.712-5.296 3.317l-1.605-2.14q-.91-.91-1.659-.91-2.14 0-4.333 1.926l-2.675-1.658q-1.498-.75-2.568-.589-1.124.214-2.729 1.284l-2.621 2.14q-2.086-1.551-4.387-1.284-2.407.214-4.815 2.354l-1.284-3.263q-.642-2.14-.32-2.836.267-.695 2.46-2.46l3.37-2.462q2.783-1.819 3.532-3.959.374-1.23.427-3.584"/><path fill="#dcdddd" d="M171.145 383.11q-.428 2.034-.214 4.12.214 1.445-.588 3.585.963 3.424 1.605 4.547.695 1.124 1.444 1.07.535-.053 1.177.589t.856 1.337q-2.193 1.819-3.905 5.992-1.926 4.708-1.605 8.88-2.461-3.53-5.19-3.905l-4.654-.588q-2.996-.535-3.317-1.23-.268-.696-.214-2.996l.053-3.264q-.107-2.942-1.284-4.387-.749-.91-1.39-2.407-.59-1.605-.59-2.729-3.21-.535-3.477-1.712-.32-2.14 1.017-5.029 1.39-2.996 3.317-3.691 2.675-.963 4.975-2.89 2.568-2.246 1.766-3.744.856 1.39 1.926 2.14 1.177.856 3.103 1.337 5.564 1.177 5.617 2.14l-.428 2.836M248.238 394.292q5.51.482 6.955-2.996l1.873-4.708q1.016-2.514 1.872-3.852 1.177-1.765 1.873-5.403.749-3.96.107-6.58-.642-2.515.749-8.668 1.123-5.296 2.46-8.239 1.445-3.263 3.853-4.44l4.172-.214 2.247.481 1.659-1.123q1.872-1.926 4.6-3.745 2.462-1.605 4.762-2.568.375 2.086-1.23 2.996-3.692 2.193-8.186 8.239-.588.802-1.712.749-.963-.054-1.872-.696-.963-.642-2.247-.749-1.498-.053-2.407.75-1.552 1.39-2.247 3.958-.75 2.622-.428 5.832.428 5.082 1.23 9.576.642 3.424.107 6.046-.695 3.37-3.424 5.831-1.712 1.605-2.247 3.585-.535 1.765-.481 5.243l-.268 8.827q-.16 1.873-.856 2.728-.588.803-2.3 1.445-4.708 1.712-8.293 5.51-1.926-1.123-4.44-.963-2.622.214-4.066 1.766-.482-4.815-2.14-10.807 1.337-6.152 4.066-7.062 2.782-.963 6.26-.749M195.06 411.198q.588 5.19 1.712 8.613-2.996 1.498-6.313.054 3.05-2.782 3.156-8.774l1.445.107M219.134 411.198q-.214 1.926.589 4.066l1.605 3.424q-1.552 2.033-2.943 2.14-1.123.053-3.263-1.284 1.016-2.194 1.498-4.387l.588-4.066 1.926.107"/><path fill="#dcdddd" d="M352.562 361.71q-.32 2.087.054 5.35.053 1.07-.428 1.499-.482.428-1.712.535-4.173.374-6.206 4.012-1.552 2.782-2.354 8.614-.321 2.3-2.033 2.889-2.942 1.07-4.975 3.424-3.05-.214-3.478 1.765-.321 1.391-2.835 3.852-3.638 3.478-4.387 4.44l-3.21-.053-3.96-.267q.536-6.58-1.604-10.647-2.033-3.852-5.671-3.905-2.408-.054-4.869 2.086-2.514 2.194-3.638 5.457-.481-2.621-2.033-4.815-1.765-2.514-3.905-2.728-2.461-.321-5.35 1.498-3.157 1.926-4.494 4.975-.482-2.889-2.033-5.296-1.873-2.782-4.12-2.89-2.942-.106-6.045 2.836-3.638 3.37-3.905 8.4l-1.98-.375-2.568-.16q-3.905.32-3.691-5.083 6.634-6.794 5.617-11.823-.535-2.675-1.605-11.93l2.14-.696q.749-.268.803-.75.107-.748.909-2.514.16-.374 1.605-.963l1.872-.642q-1.123 3.531.214 4.815 1.124 1.07 3.371.428 3.745-1.016 5.136.642 1.23 1.391 4.6 3.103l-2.888 2.836 6.794.214q2.836.642 5.51 2.407 2.408 1.552 4.923 2.247l4.333.696q2.461-.803 5.083-1.07 2.407-.321 4.547-1.552.963-.535 2.836-.481 1.926.107 2.996.695 1.016.589 4.815 4.12 2.354 2.354 4.173 2.193 1.284-.053 3.424-.91 2.46-.962 3.263-2.086l3.37-4.922q2.14-2.728 3.799-2.942l2.675-.268 1.926-.374 1.337-.696.75-1.016q.374-.642.534-2.3v-2.515q-1.658-1.391-2.728-4.28-1.124-3.103-.696-5.832 1.017 2.675 2.622 4.976 1.39 2.086 2.621 2.942.963.696.963 1.284l-.214 1.552"/><path fill="#635442" d="M274.667 77.574q17.12 10.219 26.75 24.61 10.165 15.194 10.86 33.437-1.926-8.185-5.831-16.317-4.762-10.058-9.844-13.428-2.568.214-7.223 2.675-3.263 1.658-10.379-.321-6.366-1.873-11.02-5.03-2.301-1.979-2.087-8.345.642-7.65.642-11.182-4.654-2.942-11.61-5.403-7.917-2.89-13.428-2.996-2.942-.054-5.082.91-1.873.855-3.478 2.728-3.424 4.012-7.597 7.757-4.654 4.28-6.955 5.19l-12.037.481-15.247-1.39q.16-9.15-1.23-16.318-3.906.963-9.577 5.35-5.404 4.173-9.256 8.934-3.53 4.387-13.054 7.811-8.827 3.157-15.836 3.264-7.008.053-16.317-2.515-10.004-2.728-13.75-6.313-2.14-2.086-2.995-3.852-.963-1.98-1.017-5.082-.16-11.449-1.016-16.264 1.926 6.527 3.852 10.486 1.98 3.959 4.333 6.152 3.799 3.531 13.375 3.906 8.934.32 15.354-2.087 3.157-1.177 7.437-5.51l7.33-8.025q3.905-4.226 13-7.65 9.897-3.745 20.17-4.173 23.271-1.017 44.725 3.798 21.453 4.815 38.038 14.712M337.743 144.288q.267 3.745 1.765 6.955 1.498 3.264 3.264 3.852-1.926 2.3-6.794 4.655-2.782 1.337-5.618 3.959-3.156 2.996-4.975 6.473-1.498 2.943-4.173 10.326l-5.457 15.14q3.05 1.391 5.724 3.585-5.296-.428-9.79 2.3-3.478 2.086-7.17 6.58-3.744 4.601-4.6 9.844-.856 5.564 2.46 7.223-5.189 1.284-8.292.695l-3.103-.107q-1.39.16-4.012 1.177-4.708 1.766-12.412 8.4-5.029-3.157-12.198-4.387 5.51-4.601 8.613-8.72-1.551-.696-3.798-1.07-1.819-.322-2.728-2.194-1.017-1.98-.75-5.136 10.861 2.996 18.725 3.477 2.247.16 4.494-.91 2.194-1.07 3.799-3.102 18.404-23.54 28.14-48.043 3.157-7.918 7.705-13.214 4.975-5.832 11.181-7.758"/><path fill="#635442" d="m294.997 160.552 7.33.321 6.045.428q1.819.214 2.354.91.481.695 0 2.033l-2.515 5.724-3.53 7.276q-2.89-2.782-7.972-5.67-2.14-1.285-2.14-4.227 0-2.782.428-6.795M302.273 58.208q2.568 1.498 4.12 1.551 2.781.107 9.576-2.996l-5.618 8.4q-3.745 5.51-5.67 8.773-6.688-2.942-10.861-6.259-1.605-1.337-.856-3.317 1.123-2.889 4.494-9.309l4.815 3.157M225.394 21.4q.535 4.44 2.46 8.4 2.569 5.242 7.116 8.078l-21.828 2.514-17.868.696q10.057-3.424 18.136-8.828 7.49-5.029 11.984-10.86"/><path fill="#ac6f82" d="m125.457 395.844-3.05.856q-1.765.481-3.05 1.016 1.713-5.243 4.87-9.255 2.888-3.745 5.938-5.083l3.477-.267q-5.136 5.403-8.185 12.733M143.914 382.308q-5.029 5.19-8.132 14.178-4.708 1.07-10.272 3.103 2.14-5.992 7.49-11.93 4.922-5.511 7.971-6.314 1.284-.374 2.943.963M151.939 383.218q-1.552 1.98-2.033 4.12-.375 1.604-.054 2.674.482 1.284 3.478 1.926l.32 2.354q-6.9 1.23-17.654 5.885 2.3-6.527 7.49-13.054 4.708-5.938 6.473-5.938 1.284 0 1.98 2.033M27.82 410.502q5.51-5.991 14.23-11.127 9.47-5.51 17.174-6.474-1.016 7.276-2.514 9.684-1.124 1.765-2.194 2.46-1.284.856-3.798 1.177l-11.61 1.873q-6.74 1.23-11.288 2.407M12.305 409.54q3.798-4.709 9.897-9.095 5.939-4.28 12.787-7.33-3.906 6.42-5.404 10.272-3.638 1.926-8.56 3.691-4.922 1.766-8.72 2.461M1.016 406.811q2.729-3.424 7.437-7.918 5.457-5.19 9.63-7.918-3.799 6.046-4.976 10.593-6.634 3.905-12.09 5.243M171.038 406.918q.375 4.494 3.103 10.486 2.89 6.366 5.083 6.366 1.98 0 7.383-4.44 6.045-4.922 6.901-8.828.054 2.782-.428 4.601-.642 2.3-2.354 4.387-1.819 2.247-4.922 6.902l-5.457 8.613q-.535.856-1.177.91-.588.053-1.177-.696-2.996-4.012-5.617-11.823-3.317-10.165-1.338-16.478M201.052 420.774q3.423 4.494 4.761 4.548 1.391.053 5.617-5.618 4.869-6.527 5.404-12.09.749 6.58-1.926 12.518-4.173 9.31-5.136 13.482-.214.856-.642.963l-1.284-.374q-5.136-2.729-8.881-9.577-4.12-7.543-3.584-15.3 1.551 6.098 5.67 11.448M239.036 421.523q-1.23 7.116-3.584 11.021l-1.07.803q-.75.16-1.391-.482-16.21-15.675-13.375-24.449.267 4.922 6.42 12.09 5.51 6.42 7.008 6.314 1.284-.16 3.585-6.474 2.621-7.062 2.514-13.054 1.23 6.42-.107 14.231M273.008 408.47q-2.728-3.425-3.316-9.202-.642-5.832 1.283-10.38-.16 4.709 1.07 9.096 1.177 4.066 2.354 4.173.963.053 4.762-4.227 3.584-4.12 5.243-6.955-.428 5.51-.321 6.902-4.173 5.724-8.774 10.86-1.124 1.23-2.3-.268"/><path fill="#ac6f82" d="m296.762 405.527-3.852 4.815q-1.284 1.284-2.407.214-7.65-7.169-5.885-17.227.802 4.869 3.317 8.507 1.98 2.942 3.263 3.102.963.107 4.173-4.065 3.317-4.28 4.976-7.865-.268 2.782.428 6.099l-4.013 6.42"/><path fill="#ac6f82" d="M300.775 393.543q1.123 4.708 4.066 8.988 2.46 3.638 3.477 3.638t4.066-3.424q3.478-4.066 4.494-7.971.321 2.621-2.086 8.078-2.354 5.19-4.922 8.132-1.07 1.123-2.194.267-3.263-2.514-5.564-7.703-2.621-5.778-1.337-10.005"/><path fill="#d28444" d="m74.578 198.59 1.177 7.704q.75 3.745 2.087 7.009-1.766-2.087-3.37-5.243-1.445-2.782-2.248-5.297l2.354-4.172M92.822 207.471q-.482-7.81-.321-14.765 5.938 11.609 14.873 18.19 4.654-5.886 9.309-10.7l8.988-8.667q1.819 9.683 2.3 18.457.535 9.47-.642 15.515l-17.922.535q-9.256-.75-14.606-2.675-1.39-6.741-1.98-15.89"/><path fill="#d28444" d="M148.729 187.356q2.193 3.852 3.959 9.576 1.712 5.564 2.675 11.663l6.527-4.762q3.317-2.781 5.243-5.884-2.408 11.234-14.66 18.992-11.074 7.062-25.572 8.774 20.972-14.552 21.828-38.36"/><path fill="#d28444" d="M94.801 223.36q18.03 6.367 39.965.964 22.683-5.564 30.013-19.635-2.408 14.713-18.511 26.964-17.334 13.161-40.874 15.301-1.498-4.975-4.12-10.54-2.835-6.045-5.777-10.057l-.696-2.996M243.744 282.05q-.856 5.617-.695 11.823.16 6.741 1.551 12.038-4.333-1.98-11.181-3.103l-10.54-.963q.107-5.297.91-10.433.535-3.103.856-11.449l.16-13.802q11.663 6.152 18.94 15.889M124.868 295.157q-9.576-6.58-16.852-13.803-.963-.91-1.712-.642-.696.268-.963 1.338-1.391 4.922-1.605 7.062-1.712-5.03-1.98-11.877-.267-6.046.642-10.807 5.992 7.383 19.1 7.65 12.893.321 25.465-6.366 11.877-6.366 26.59-8.613.481 5.51 2.568 13.107 1.926 7.115 4.387 13.16l-13.482-5.884q-2.3-1.017-4.28 1.123-2.568 2.836-7.437 9.256-4.975 6.634-8.988 12.626-1.07 1.658-1.926 2.086l-2.247-.053q-7.115-2.354-17.28-9.363"/><path fill="#d28444" d="m222.88 301.845 3.21.053 3.156.268-5.885 5.403q-.642-3.156-.482-5.724M145.198 314.685q2.675-3.638 3.852-3.638.856 0 2.942 1.016 2.247 1.017 4.28 2.461-5.831-.963-11.074.16M171.52 356.735q-.856 2.247-4.013 4.548l-1.23-1.23q-.535-1.338-2.408-.482-1.444.802-3.53.588 4.921-4.547 9.04-13.428 3.692-8.025 5.137-15.836-3.638-7.597-2.675-15.622 4.975 0 10.432-1.98-2.889 15.034-4.494 42.96l-3.798-1.23q-1.605-.481-2.461 1.712M103.094 286.758q2.086 7.918 5.992 12.947l-3.799 8.292q-2.568 5.671-3.959 7.65-.963 1.392-1.39 2.462-.536 1.444-.59 3.263-.106 8.453-.748 17.066-.856 11.663-2.354 16.746-.482 1.605-1.338 1.819l-2.086-.482q-1.659-.642-4.013-.91-2.835-.32-3.959.429-1.177.802-2.247 2.782-1.016 1.872-1.123 3.317-.054 1.444-.428 1.872-.321.482-1.338.375l-6.634.535q4.227-8.935 8.72-25.52 3.96-14.658 4.709-21.667.214-1.926.642-3.263.535-1.552 1.765-3.424 4.762-7.116 8.24-17.816 3.53-10.753 4.44-21.132-.482 7.222 1.498 14.659"/><path fill="#ac6f82" d="m82.175 343.093-1.39.053 3.423-13.374q5.564-1.605 6.902-1.552 1.605.107 1.498 3.264-.054 3.263-2.087 6.42-1.444.16-3.37 1.604-1.712 1.338-2.568 2.675-.589.91-2.408.91"/><path fill="#d28444" d="M214.64 308.64q-.856-3.371-.856-6.26 0-3.317 1.124-7.116 4.226-14.391 5.029-31.297.963-21.025-4.227-38.252 6.367 10.058 8.24 31.35 1.658 19.046-.75 39.965-.91 8.292 1.338 13.642 5.136 12.198 7.49 24.931 2.033 11.181 3.156 29.8-2.247.213-3.53-1.66-1.017-1.444-4.709-2.032-3.37-.589-4.387-.054-1.498.75-3.477 6.153-1.873 5.136-1.605 7.062.214 1.07-.16 2.193-.322 1.124-1.017 1.766-.75.695-4.066 2.3 4.922-17.548 5.51-38.038.589-19.902-3.103-34.454"/><path fill="#ac6f82" d="M223.147 250.271q.856 5.939 1.23 13.643-1.23 3.959-4.868 6.259 2.193-24.075-3.585-43.763l.535.589 1.338 2.568q3.477 8.613 5.35 20.704M227.373 328.434q1.98.803.642 5.778-1.444 5.564-6.473 8.72-1.98 1.23-3.906 3.37l.16-12.09 2.087-1.444 3.799-3.21q2.354-1.659 3.691-1.124"/><path fill="#d28444" d="M244.493 276.432q-1.765 19.956 12.68 33.384 6.259 5.832 13.91 8.24 7.757 2.46 14.765.695 2.515-.642 3.799 2.247 3.852 8.827 5.992 17.761 2.247 9.47 3.156 21.186-.481.428-2.568.75-2.3.32-3.263.909-2.729 1.551-7.17 5.19-3.584-2.087-4.6-3.104-.91-.91-1.605-1.123l-2.729.16q-2.889.91-4.119.321-1.07-.535-.589-2.3 1.177-3.96 1.498-6.313 1.659-.107 2.996-1.873 3.692-4.975 7.276-7.008l1.07-.696q.482-.428.535-1.177.107-1.872-.267-3.477-.321-1.552-1.82-.535-3.905 2.782-8.345 4.547.642-6.152.321-15.514-20.704.267-28.89-17.441-7.115-15.408-2.033-34.829"/><path fill="#ac6f82" d="m285.26 340.204-.321-1.338 2.354 1.498 3.584-.107q1.659-.695 4.548-2.407 1.444 6.099 2.086 10.753-5.19 2.247-7.008 3.264-2.729 1.39-4.762 0-2.675-1.873-5.35-3.264l.803-1.07 2.728-1.98q1.284-.748 1.498-1.337l.16-.909v-.482l-.32-2.621"/><path fill="#d28444" d="M80.196 144.128q-.803 9.79 1.498 15.675.642 1.552-1.766 4.173-1.926-2.835-2.033-9.737-.053-7.222 2.3-10.111M164.886 136.156q2.033 1.177.107 8.72-1.82 7.17-4.44 10.54-1.338-4.333.106-6.527 3.852-5.831 4.227-12.733"/><path fill="#ac6f82" d="m322.496 208.97-4.28 6.473q-2.461 3.477-4.066 4.654-3.852 2.729-12.359 5.083-3.21-2.408-1.819-8.186 1.284-5.403 5.404-9.95 4.494-4.976 9.095-6.848 5.19-2.14 8.4.749.909 1.872.855 3.958-.053 2.247-1.23 4.066M103.736 289.112q.535-3.21 1.605-7.062.267-1.124.856-1.445.749-.374 1.819.75 5.992 6.205 16.531 13.374 10.753 7.383 17.601 9.79 2.622.91 4.12-1.604 2.728-4.494 8.774-12.412l7.704-9.898q.91-1.07 1.658-1.39l2.14.16q5.457 1.98 13.161 5.617l3.852 8.881q1.873 4.548.803 9.416l-2.087 10.005q-5.243 1.872-13.856 2.086l-13.696-.588q-3.745-2.675-5.618-2.408-1.123.107-2.782 2.247-13.535 1.659-25.572-5.136-12.733-7.222-17.013-20.383M172.376 339.562q1.98 0 3.156.588l3.264.321-.642 11.289-3.745-.107q-2.087-.107-2.675-.803-.963-1.07-3.21-1.98 2.889-5.884 3.852-9.308M275.309 338.492q1.819-1.284 4.6-1.23 2.676.106 4.87 1.497-1.713 1.284-4.87 3.05l-4.814 2.407.214-5.724"/><path fill="#635442" d="m304.68 73.936 2.568-4.44q.214 3.21 2.194 6.473 1.765 2.943 5.457 6.741-8.24-5.243-10.219-8.774"/><path fill="#0f141b" d="M129.309 162.532q1.177 1.284 1.23 3.37.107 2.408-1.016 3.852-1.017 1.338-2.622 1.338-1.712 0-2.728-1.23-1.07-1.285-1.124-3.8-.053-1.872 1.017-3.316 1.016-1.445 2.568-1.445 1.551 0 2.675 1.23m-2.675 0q-.856 0-1.552.964-.695 1.016-.642 2.354.054 1.819.696 2.889.695 1.123 1.765 1.123.91 0 1.552-1.016.695-1.124.588-2.943-.053-1.498-.802-2.46-.696-.91-1.605-.91M100.954 170.343q0 1.498-.803 2.621-.802 1.07-1.819 1.07-.963 0-1.658-.91-.803-1.016-.803-2.835 0-1.498.75-2.514.748-1.07 1.818-1.07 1.017 0 1.766 1.016.749 1.07.749 2.622m-2.515-2.568q-.481 0-.802.695-.375.75-.375 1.82 0 1.23.375 1.925l.695.589q.589.053.91-.642.374-.696.374-1.82 0-1.07-.374-1.818-.321-.75-.803-.75"/><path fill="#0f141b" d="M122.354 181.792q1.123 1.498.642 1.819-.428.374-1.605-1.07-7.116-8.988-13.59-15.89-.213-.267-.534 0-3.852 3.424-7.116 7.811-3.424 4.548-5.403 8.935-.75 1.712-1.284 1.498-.535-.16.16-1.926 1.766-4.548 5.404-9.577 3.638-5.082 7.864-8.774.856-.695 1.659.16 6.152 6.902 13.803 17.014"/><path fill="#0f141b" d="M85.278 165.26q1.391-3.905 3.906-7.062.91-1.177 1.819-.963.91.16 2.086 1.82 2.354 3.316 6.313 5.35 3.157 1.658 6.58 2.14l-1.55 1.711q-3.318-.695-6.528-2.621-3.691-2.194-6.045-5.51L90.735 159q-.428-.054-1.016.642-1.98 2.675-3.317 6.045-.589 1.445-1.124 1.23-.535-.16 0-1.658M134.712 149.531q-2.782-.588-4.868 1.445-8.507 8.292-13.643 14.177-2.728 3.05-5.51 3.638l-1.391-1.712q3.05-.374 5.564-3.263l6.634-6.955 7.276-7.17q2.621-2.62 6.259-1.765 3.691.91 5.136 4.815.588 1.552.107 1.766-.482.16-1.23-1.338-1.499-2.996-4.334-3.638"/><path fill="#0f141b" d="M128.667 150.976q4.012.481 6.794 3.905 2.889 3.424 2.942 7.918.054 5.564-3.049 8.828-3.103 3.263-8.292 3.21-5.03-.054-8.132-3.157-3.103-3.156-2.89-8.025l1.873-1.39q-.802 4.6 1.926 7.703 2.675 2.996 7.17 3.05 4.386.053 6.954-2.622 2.621-2.675 2.568-7.597-.054-4.28-2.728-7.169-2.675-2.942-6.58-3.05l1.444-1.604M90.682 168.952q-.589 4.226 1.123 6.099.963 1.016 2.943.963 2.3-.107 4.494-1.766l-1.552 2.729q-1.819.856-3.905.749-2.247-.107-3.478-1.338-2.3-2.407-1.605-7.383.696-5.082 4.013-8.988l1.177 1.284q-2.622 3.21-3.21 7.65M104.752 167.721q-1.498-3.21-.802-7.543.267-1.98.802-1.926.482.053.428 2.033-.16 3.584 1.017 6.206l-1.445 1.23M110.049 167.935q-.589-4.12.32-8.72.375-1.873.857-1.766.481.054.32 1.926-.32 4.815.268 8.025l-1.765.535M101.917 170.824q.267-2.14 0-4.387l1.605.482.053 2.46-1.658 1.445"/><path fill="#0f141b" d="M76.932 175.211q-10.646 6.955-13.802 18.297-3.37 11.93 6.259 16.157.695-3.638 1.658-6.099.963-2.354 2.943-5.296.481-.696.91-.642.427.107.48.963 1.231 12.304 6.314 19.955 5.082 7.597 12.947 8.988-2.14-10.433-2.729-18.618-.535-7.383-.053-15.89.16-2.514 1.39-.267 3.21 5.992 6.314 9.79 3.424 4.28 7.597 7.116 8.239-10.058 17.762-18.832.642-.588.91-.535l.48 1.017q3.639 20.33 2.087 32.153 7.436-5.564 11.556-11.61 6.687-9.95 7.971-24.342.107-1.337.428-1.39.321-.054.963 1.07 4.869 8.024 6.367 19.954 14.605-8.56 16.531-24.93.856-7.17-1.39-13.322-2.355-6.366-7.33-9.897-.482-.321-.75.214-3.958 7.276-18.938 14.82-15.033 7.543-23.433 6.473l-1.337-2.14q7.008 2.193 22.737-5.457 15.515-7.49 19.634-14.606.75-1.337 1.177-1.444.375-.107 1.712.749 5.939 3.905 8.507 11.02 2.46 6.795 1.284 14.713-1.177 8.025-5.778 14.82-4.922 7.275-12.626 11.288l-1.177.32q-.268-.106-.375-1.069-1.712-11.823-4.975-18.832-.642 13.589-7.972 23.593-4.547 6.206-13.32 12.573-1.766 1.284-1.392-.963 1.552-10.272-1.498-32.046-7.436 6.901-16.852 18.403l-.589.535q-.267.054-.802-.32-4.494-3.264-8.079-7.544-3.691-4.333-5.51-8.613-.16 14.23 3.745 32.902.214.91-.054 1.23l-1.23.16q-8.72-1.016-14.66-9.094-5.938-8.025-6.794-19.795-1.177 2.407-1.819 4.708l-1.177 5.617-.481 1.017-1.07-.107q-5.617-1.98-7.918-6.902-2.193-4.6-1.07-10.646 2.515-13.375 15.943-21.4l.374 2.033"/><path fill="#0f141b" d="M85.6 144.235q3.263 1.765 5.991 4.333 11.075-6.794 21.668-8.399 12.144-1.873 26.642 2.3 4.869-3.584 14.499-6.42 10.058-2.942 12.09-.856 1.927 1.98-.588 10.326-1.39 4.44-3.53 9.309.427 1.926 1.337 3.477l-1.659.803q-1.123-1.98-1.605-4.066-.107-.482.107-1.017 2.515-5.403 3.852-10.165 1.552-5.724.268-7.062-1.391-1.498-10.219 1.124-8.988 2.675-13.749 6.313l-.428.267-.482-.053q-14.926-4.28-26.856-2.247-9.737 1.658-20.972 8.4l-.589.213-.481-.32q-2.568-2.569-5.51-4.28-3.157-1.82-4.709-1.338-1.658.428-1.819 6.634-.214 6.313 1.338 11.984l-.054.428q-1.39 2.407-2.247 5.778-.749 3.156-.481 4.815.802 4.761 5.136 6.634 5.136 2.14 13-1.177l-.856 2.14q-8.292 3.21-13.91.374-4.868-2.46-5.51-7.704-.16-1.39.642-4.815.91-3.959 2.354-6.473-1.552-5.725-1.177-12.573.374-7.383 2.835-8.132 1.926-.535 5.671 1.445"/><path fill="#0f141b" d="M105.662 206.241q-5.832-16.906-2.087-32.1.428-1.712.91-1.605.535.107.267 1.82-2.514 15.033 2.087 31.51.428 1.712-.107 1.873-.482.16-1.07-1.498M70.833 206.401l3.05 1.07 1.177 3.103-4.44-1.605.213-2.568"/><path fill="#0f141b" d="M178.903 128.185q-11.235 1.338-21.186 3.424h-.375q-15.194-6.634-33.758-5.082-18.51 1.551-34.347 10.806l-.374.054-12.038-1.177q-5.189-.268-11.77-.214-5.35.053-11.288 7.383-5.885 7.276-8.827 17.334-3.585 12.251-1.017 22.737 2.3 9.256 8.24 13.857 3.156 2.46 9.629 5.456l1.177 2.943q-8.185-3.798-12.037-6.794-7.276-5.618-9.47-16.585-2.193-10.647 1.177-22.15 3.157-10.86 9.577-18.403 6.527-7.704 12.84-7.597l11.609.214 11.93.856q16.532-9.309 35.096-10.807 18.51-1.498 33.972 5.136 10.112-2.086 21.186-3.477l16.746-1.445q5.243-.214 9.094 6.527 3.799 6.634 5.992 19.58 1.766 10.647 1.552 19.582-.214 8.239-1.873 10.593-6.955 9.737-46.598 25.786l1.017-2.889q38.359-15.354 43.87-24.074 1.39-2.194 1.55-9.684.161-8.613-1.711-18.992-2.14-12.145-5.35-18.297-3.317-6.26-7.49-6.099l-16.745 1.498"/><path fill="#0f141b" d="M197.949 130.004q.642 15.89 4.814 32.635 4.066 16.21 7.062 16.585l-.909 1.444q-4.12-.749-8.292-17.762-4.28-17.387-3.799-32.902.054-1.872.589-1.872.481 0 .535 1.872"/><path fill="#0f141b" d="M198.002 130.914q4.173 6.312 6.045 11.876.696 1.926.161 2.087-.535.214-1.284-1.659-2.193-5.403-5.831-10.539-5.618 2.193-14.392 4.12l-2.033-.161q-.107-.535 1.766-1.017 6.955-1.765 14.498-4.921.696-.268 1.07.214M200.303 155.844q-7.65.91-17.762 3.531l-2.033-.053q-.214-.535 1.712-1.124 11.77-3.584 18.136-4.333l.214.053q1.712.428 4.28 1.391 1.23.535 1.07 1.017l-1.445.16-4.172-.642M208.434 173.5q.642 3.156-.053 4.921l-.214.321q-4.334 2.836-13.856 6.367l-1.82.053q-.267-.481 1.392-1.177 8.452-3.638 12.946-6.687.428-1.338.375-3.692-.054-1.23.481-1.284.482-.053.75 1.177M51.895 144.235l1.177-1.766 11.663 1.124q1.658.267 1.605.802 0 .535-1.659.375l-12.786-.535M43.014 163.334l12.519 2.087q1.658.214 1.551.695-.107.535-1.712.482-5.67-.054-12.68-1.552l.322-1.712M44.458 188.212q6.795 2.942 12.038 4.815 1.39.481 1.123.963l-1.498.16q-6.045-1.658-10.914-3.852l-.749-2.086M95.122 224.163q4.227 5.457 7.49 12.68 4.28 9.576 6.153 21.025.267 1.712-.268 1.82-.535.16-.91-1.552-3.958-18.458-12.25-30.228l-.215-3.745M86.08 224.27l1.66 1.284q-6.474 9.63-9.63 19.046-3.157 9.577-3.371 20.17-.268 14.819-1.391 24.128-.963 8.239-3.317 17.869-.696 2.782-1.819 4.708l-2.514 3.317q-5.35 6.152-10.647 18.725-6.045 14.284-9.148 30.815l-2.033-.856q3.05-16.692 8.934-30.494 5.243-12.305 11.449-19.474l2.247-3.05q.963-1.658 1.498-4.173 1.98-8.934 2.942-17.708 1.124-10.38 1.391-24.503.268-11.77 3.37-20.918 3.21-9.523 10.38-18.886"/><path fill="#0f141b" d="M83.513 250.913q-2.622 10.005-9.523 14.82l-.16-2.087q5.403-4.333 7.81-13 2.461-9.095-1.177-14.606l1.017-1.765q4.708 6.313 2.033 16.638M74.043 271.457q.696 2.782 1.873 4.654 1.016 1.605 2.782 2.943 1.819 1.284 1.605 2.407-.268 1.124-2.568 1.23l-4.708-.427.053-1.659 4.601.482q1.177-.16.16-.75-2.781-1.765-4.226-5.456l.428-3.424M86.348 328.167q3.852-1.124 4.869-.856 2.193.642 2.14 3.798-.107 3.103-2.3 7.33-.161.32-.536.374-.963.053-2.46 1.123-1.552 1.124-2.943 2.836-1.07 1.284-2.89 1.016-1.23-.214-5.67 1.177-4.28 1.284-9.255 3.317l-3.371.054-3.05-.375-4.975.268-3.317-.214q-1.123-.642-2.942-2.568l.642-1.766q1.658 2.033 2.996 2.89l.802.213 1.552-.16 5.029-.268q2.782.107 3.691.535l2.354-.16q13.054-5.136 15.622-4.548h1.016l.589-.535q1.337-1.605 2.835-2.835 1.766-1.338 3.103-1.605 3.585-7.436.856-8.292-.695-.16-3.852.856-3.05.963-6.206 2.3l-4.333.428-3.852-.16-3.959.535-4.494-.107-9.148-1.177.588-1.712 8.828 1.284q2.193.428 3.958.053l4.28-.588 4.066.214 1.82.107 1.711-.535 6.206-2.247M172.536 338.76l3.157.641q1.444.535 3.477 0l-.16 1.766-3.906-.214-2.996-.589.428-1.605M171.948 350.155q.642.695 2.247.695l4.12.107-.054 1.712-4.12-.16q-2.193-.107-3.156-1.177-.75-.75-2.89-1.659l.75-1.444q2.568 1.23 3.103 1.926"/><path fill="#0f141b" d="M109.781 300.186q-5.564 12.305-8.185 16.639-.75 1.284-1.017 2.3l-.214 2.087q-.481 19.848-2.942 33.865-.428 2.407-1.605 2.942l-2.515-.267q-5.51-2.033-7.757-.856-2.14 1.07-2.782 5.724-.214 1.605-.803 2.3-.749.803-2.354.803-4.012 0-7.704 1.07l-2.675.482q-1.39-.054-2.888-1.07l-5.19-3.692q-2.996-2.033-4.44-2.193-1.98-.214-3.585 2.193-1.284 2.194-3.959 3.638l-.535.107q-4.066-1.07-7.33-3.852-1.176-.963-.802-1.444.375-.482 1.659.374 2.033 1.445 6.527 2.675 1.765-.856 2.675-2.728.963-1.82 2.193-2.515 1.284-.802 3.157-.588 1.819.16 4.815 1.819l5.938 3.745q1.498 1.016 4.012.32 3.692-1.123 8.025-1.123.91 0 .963-.749.75-5.403 3.906-6.901 3.156-1.552 9.362.749.75.267 1.07 0l.482-1.498q2.675-14.927 3.103-33.437.107-2.996 1.498-5.35 1.926-3.21 8.4-17.441l1.497 1.872"/><path fill="#0f141b" d="M102.987 262.844q.535.107.214 2.086-3.96 26.161 12.305 39.857 6.42 5.35 14.873 7.704 7.543 2.087 14.284 1.23l6.152-.534 6.313.535 12.626.588q8.186-.32 12.894-2.193l-.375 2.514q-5.136 1.873-13.268 2.033l-12.198-.695-6.045-.535-5.939.535q-7.008.91-15.086-1.391-8.935-2.568-15.676-8.24-17.173-14.605-12.037-41.622.428-1.98.963-1.872"/><path fill="#0f141b" d="M146.375 314.952q-1.445.054-1.124-.267 2.568-2.89 3.638-2.943l2.89.856q1.979.803 3.958 1.926.642.375-1.658.321l-2.675-.267q-1.659-.75-2.194-.75l-1.23.857-1.605.267M103.094 288.095q.535-4.44 1.177-6.366.695-2.087 1.658-2.354.963-.214 2.675 1.337 18.137 16.639 33.277 22.63l1.98.429 1.444-1.445q8.239-12.519 16.906-22.523 1.23-1.391 2.354-1.659 1.123-.267 2.621.375 7.544 3.05 13 5.617l.536 2.675q-7.544-3.691-14.231-6.366-1.07-.428-1.605-.321-.589.107-1.338.963-8.774 10.111-16.852 22.416-1.124 1.712-2.354 1.98l-2.996-.428q-15.836-6.153-33.919-22.845-.588-.535-.856-.481-.267.053-.535.802-.535 1.659-.963 4.227-.428 2.621-.428 4.547l-1.551-3.21"/><path fill="#0f141b" d="M129.523 287.507q8.238 8.88 13.053 16.799l-2.942-.696q-5.296-8.506-11.074-15.354-1.124-1.338-.696-1.712.482-.375 1.659.963M145.144 303.77q-.802-9.736.16-18.938.161-1.552.696-1.552.589 0 .482 1.605-.268 8.4.642 16.8l-1.98 2.086M51.948 406.597l2.943-2.14 8.025-.267q1.284.16 2.3-.375l1.659-1.284q2.032-1.765 6.847-1.765l.375.107q5.403 4.119 11.823 2.086 2.14-.642 5.51-2.3 3.425-1.659 4.602-2.675 1.872-1.605 2.728-8.507.268-2.621.589-2.996.802-1.177.802-2.407 0-2.087.75-3.05.695-.963 2.46-1.23l4.227-1.552 3.156-.107 3.05.642q1.712.375 2.996-1.605.695-1.123 2.621-3.21l3.21-3.156q1.23-.856-.428-5.832-.428-1.284-.535-3.584-.107-2.3.214-3.157.321-.856 1.659-1.819 1.177-.963 2.086-1.23l2.996.374 3.638 1.017q1.819-2.729 4.761-4.066 1.605-.696 1.605-1.98 0-2.247.428-3.584-2.996-.054-7.329 4.012-1.712 1.605-5.51 1.552-2.996-.054-5.457-.91-1.177-.428-1.712.268-.535.695.214 2.033l.053.481-1.605 3.264q-.588.963-.374 2.3.214 1.284-.16 2.087l-1.338 1.39-2.782.59-3.103-.161q-1.284-.321-3.103-2.782-1.98-2.675-2.194-5.03-.107-1.176-.588-1.604-.321-.268-1.284-.375-2.354-.16-6.206.054l.214-1.98q3.745-.214 6.099-.053 1.712.107 2.568.963.856.856 1.123 2.782.321 1.765 1.873 3.852 1.444 1.872 2.3 2.086l2.087.054 1.819-.482q1.123-.695.91-1.605l-.108-1.39q.054-.803.642-1.606l.963-2.942q-1.016-2.194.589-3.478 1.498-1.23 3.53-.481l5.083.588q3.103-.16 4.44-1.39 4.548-4.28 9.47-3.532.856.16.588 1.017-.642 1.658-.642 4.012 0 1.391-.535 2.194-.481.695-1.819 1.284-2.728 1.177-4.386 4.012-.321.642-1.07.482-4.655-1.391-5.564-1.177-.642.214-1.445.963-.749.695-1.016 1.284-.375.856-.535 2.3-.107 1.552.214 2.568l1.23 4.494q.375 2.782-1.07 3.799-1.177.856-3.103 2.889l-2.514 2.889q-.803 1.284-2.247 1.765l-2.782.107-5.19.214q-3.584 1.605-4.494 1.766-1.016.16-1.39.749-.322.481-.322 1.658 0 1.498-.695 2.622-.321.856-.535 2.354-.428 3.156-1.338 5.992-1.07 3.37-2.3 4.494-1.23 1.07-4.762 2.835-3.424 1.712-5.724 2.461l-7.009.321q-3.424-.749-6.42-2.996-3.638 0-5.51 1.605-2.675 2.354-5.35 2.033-6.099-.803-10.486.107"/><path fill="#0f141b" d="M27.552 407.346q1.926-8.292 9.47-18.03 7.864-10.11 13.482-10.7 6.099-.588 8.774 7.01 2.782 7.917-1.445 16.959-1.872 3.958-5.992 4.386-7.543.642-21.346 3.745l-3.103-.053q-.482-.642.16-3.317m2.675 1.765q14.124-3.424 21.507-4.012 1.552-.16 2.515-.963 1.016-.802 1.765-2.514 3.906-8.453 1.552-15.301-2.194-6.26-6.902-5.832-4.708.428-12.305 10.219-7.383 9.523-9.309 16.959-.267 1.016 0 1.337l1.177.107"/><path fill="#0f141b" d="M31.35 379.633q-5.082.91-11.77 10.968-6.526 9.897-6.847 16.424-.054 1.07.267 1.444l1.177.107q7.918-2.46 16.318-6.58l-.856 2.461q-6.741 3.477-15.194 5.724-2.087.589-2.729 0-.642-.642-.535-3.21.268-7.329 7.062-17.547 6.955-10.54 12.787-11.61 2.46-.428 5.082 2.3 2.729 2.836 3.96 7.277l-1.499 1.872q-1.016-4.28-3.263-7.169-2.14-2.782-3.96-2.46"/><path fill="#0f141b" d="M24.824 377.814q1.39 1.124 2.407 2.996l-1.551 1.338q-1.926-3.585-3.585-3.585-4.173-.053-11.61 8.667-8.024 9.31-8.88 17.548-.054.856.053 1.016l.642-.053q4.441-1.712 11.503-5.617l-.696 2.46q-3.477 2.087-10.272 4.708-1.926.803-2.46.375-.535-.482-.322-3.05.856-9.415 9.31-19.045 7.81-8.881 12.679-8.828 1.39 0 2.782 1.07"/><path fill="#0f141b" d="m45.154 353.204-2.568-.214q-.856 0-.963.589-1.124 4.066-5.35 5.778-3.906 1.605-8.828.588l-2.46.107q-.803.428-1.552 2.087-2.14 4.868-3.264 6.58-2.247 3.264-6.045 5.297-.696.374-.214 1.123 1.23 1.98 3.53 4.44l-1.55 1.07q-2.569-2.674-4.013-5.135-1.391-2.3.802-3.478 3.531-1.872 5.457-4.975l2.996-6.313q.856-2.033 2.194-2.622 1.444-.588 4.387-.053 4.387.802 7.704-.428 3.584-1.338 4.494-4.601.588-2.033 2.675-2.033l5.296.428-.588 2.086-2.14-.32M168.417 315.487q.695 5.136 2.14 8.56 2.086 5.19 5.992 7.865 1.337.909 1.016 1.337-.32.428-1.658-.321-4.494-2.568-7.116-8.185-1.98-4.227-2.568-9.202l2.194-.054"/><path fill="#0f141b" d="M159.696 359.517q5.35-5.617 8.881-13.16 3.478-7.544 4.815-16.21l1.873 1.497q-2.729 16.37-12.68 27.445l1.284-.481q1.23-.75 1.926-.482.589.214 1.284 1.391.535.963 1.82 1.017l-1.66 1.337q-1.23-.32-1.765-1.284l-.481-.428q-.268-.053-1.017.321-1.872.856-3.691.589-1.98-.16-.589-1.552"/><path fill="#0f141b" d="M161.783 351.492q1.337-.32 2.407.268 1.124.642 1.445 2.14l-1.391 1.819q-.375-2.461-2.247-2.033-5.885 1.658-8.24 4.226-.962 1.017-1.283 1.98-.268.91-.107 2.3l-1.82.428q-.534-3.959 1.66-6.26 2.674-2.888 9.576-4.868"/><path fill="#0f141b" d="m134.284 369.736-3.531 3.156-4.12 2.996q-.48.375-.588.803v.963q.428 1.819 1.659 4.333l-1.498 1.23q-2.087-3.905-2.515-5.777-.267-1.23 0-1.82.214-.48 1.23-1.283l4.227-2.89 3.638-3.049q.91-.963.91-2.889l-.214-3.103q0-1.284 1.016-2.14 1.284-1.123 4.12-1.765l4.868-.375q1.016.054 2.086.803 1.284.963 1.552 2.514.214.963 2.14.75 2.033-.215 5.19-1.606l1.444-.053q.214.428-.91 1.123-3.37 2.14-6.26 2.3-2.942.161-3.21-1.818l-.48-1.017-1.606-.374-4.28.374q-2.14.535-3.049 1.445-.321.32-.321 1.23l-.054 2.996q-.267 1.712-1.444 2.943M172.43 356.789l-2.301 3.477q-1.391 1.712-2.461 2.247-2.247 1.124-4.762 2.89-2.728 1.872-2.835 2.46-.214 1.445 0 3.157.214 1.926.963 2.942 1.551 1.926.267 3.478-1.98 2.514-6.527 4.547-2.033.91-3.263 3.692-1.124 2.514-.642 3.959.32.963 2.675 1.337.588.054.535.642-.107 2.408 2.568 5.671l.963 1.552.32 1.872-.267 4.708q-.053 1.498 1.017 1.712l5.778.963q2.514.267 3.53 1.444l2.14 2.568v2.836l-3.102-3.264q-.963-1.07-2.943-1.284l-6.527-.909q-1.712-.321-2.14-.963-.481-.696-.374-2.675l.642-4.922q.214-1.605-.75-2.728-2.353-2.89-2.46-5.778-1.445-.16-2.622-.856-.963-.589-1.123-1.07-.75-2.194 1.016-5.564 1.82-3.37 4.387-4.548l2.729-1.337q1.284-.856 2.407-2.3.482-.643-.588-1.98-.91-1.284-1.23-3.531-.322-2.247.106-4.013.268-1.07 3.852-3.424 2.943-1.98 5.083-2.942l2.247-1.766 2.3-3.424q.696-1.337 1.605-1.605l2.247.107q1.712.321 3.478 1.07l-.214 2.3q-2.408-1.123-3.745-1.39l-1.284-.107q-.375.107-.696.749"/><path fill="#0f141b" d="M153.918 395.148q-3.103.535-8.185 2.194-4.44 1.498-8.346 3.156-1.819.803-2.3.375-.482-.428-.321-2.515.481-6.634 6.205-13.91 5.564-7.062 9.79-7.169 1.07-.053 2.301 1.177 1.07 1.017 1.926 2.622l-1.658.91q-1.391-2.943-2.568-2.943-3.424 0-8.614 6.74-5.296 6.956-5.778 12.68-.053.428.054.535l.428-.053q3.691-1.659 8.132-3.264 5.19-1.819 8.4-2.354l.534 1.82"/><path fill="#0f141b" d="M126.687 398.465q3.799-1.658 9.63-3.103l-.321 2.033q-5.831 1.445-8.88 2.675-1.82.696-2.301.321-.482-.321-.375-2.3.214-5.778 6.848-13.429 6.26-7.276 10.058-7.597 2.942-.32 5.885 2.515l-1.391 1.284q-2.3-2.14-4.387-1.98-2.836.16-8.827 7.009-6.367 7.33-6.58 12.305l.106.428.535-.161"/><path fill="#0f141b" d="m120 396.432.535-.053q2.568-.963 5.67-1.659l-.427 1.98-4.815 1.337q-1.98.749-2.461.268-.482-.482-.054-2.782.963-5.618 4.976-10.754 4.066-5.243 7.971-5.564 2.782-.214 5.19 1.605l-1.231 1.391q-1.658-1.39-3.852-1.177-3.21.321-6.901 5.03-3.692 4.707-4.548 9.736l-.053.642M173.071 243.69q.535 0 .482 2.034-.054 11.02 3.103 23.7 2.407 9.737 8.185 25.305 1.552 4.28.16 10.272-3.102 13.857-4.868 34.454-1.712 20.758-.856 33.49 5.03 1.338 6.1 1.766l1.872.428 1.98-.374q4.333-1.659 8.88-2.194l.535.214q2.14 2.515 6.099 5.297 3.638 2.568 4.494 2.568.802.053 2.889-.803 2.3-.856 3.53-1.819l.857-1.177-.054-1.765q-.32-2.408 1.873-8.079 2.247-5.831 4.066-6.42l3.317.054 3.638.642q1.284.32 1.926.802l1.123 1.284q.696.963 1.552 1.07-1.284-18.725-3.585-30.762-2.354-12.09-6.527-21.4-1.605-3.691-1.98-8.078-.32-4.12.375-10.058 2.943-24.45-.16-44.565-3.103-20.277-11.342-29.746-1.177-1.391-.856-1.766.374-.374 1.712.91 9.897 9.47 13.054 32.581 2.782 20.17-.321 42.8-1.445 11.074 1.39 17.387 4.441 10.112 6.956 22.256 2.782 13.482 3.638 31.832 0 .482-.428.642l-2.408-.214q-1.337-.481-2.086-1.498-.963-1.284-2.461-1.658l-3.37-.589-2.676-.053q-1.016.32-2.835 5.243-1.82 5.082-1.498 7.062l.16 2.514q-.107 1.391-1.123 2.247-1.177 1.017-4.28 2.408-3.103 1.444-4.173 1.444-1.124 0-5.083-3.103-3.905-3.05-6.366-5.831-2.514.32-7.971 2.675-2.729 1.23-4.869.267-4.44-2.033-7.33-2.514-.427-.107-.427-.535-.91-12.947.856-33.759 1.765-21.132 5.136-35.951 1.337-5.671-.107-9.202-5.939-14.178-8.507-25.252-3.05-13-2.086-24.45.16-2.032.695-2.032"/><path fill="#0f141b" d="M228.925 329.932q.481 1.819.214 3.424-1.017 6.366-8.186 11.181-1.926 1.338-4.066 3.852-1.658 1.82-5.992 3.906-3.959 1.926-7.008 3.798l-4.173.107-4.28-.481-5.67-.214q-3.05 0-3.05-1.98 0-1.39-1.391-1.819-3.317-1.123-4.334-2.407-.749-.91-2.407-1.712v-1.873q2.3.963 3.584 2.568.696.91 3.638 1.873 2.408.802 2.408 3.103 0 .588 1.551.588l10.486.856q1.659.696 2.889 0l7.169-3.959q3.798-1.872 5.35-3.584l1.765-1.873 2.515-2.193q6.687-4.44 7.65-9.951.214-1.337-.053-2.568-.214-1.177-.642-1.39-.803-.375-2.675.909-1.82 1.23-3.531 3.21l-.107.107q-1.98 1.605-7.437 3.638-5.885 2.246-9.523 2.353l-9.04.696-.482-.107q-3.638-2.782-7.972-2.782-2.247 0-6.527-1.926l.16-1.765q4.334 2.033 6.42 2.033 4.602 0 8.507 2.835l9.148-.642q3.317 0 8.828-2.14 4.868-1.926 6.848-3.531 1.765-2.033 3.959-3.424 2.621-1.658 4.066-.963.856.428 1.39 2.247M234.06 352.83l7.01-2.354q1.711-.321 2.514 0 1.123.481 1.658 2.354.696 2.407 2.14 4.6 1.391 2.087 2.194 2.14l2.621-.427q1.605-.428 2.461-1.017l1.124-1.177.32-1.658q0-5.03 1.499-6.902-.589-1.177-.589-2.46 0-1.552.963-2.194.803-.535 2.087-1.017 1.444-.535 2.354-.481h2.942q1.124-.16 2.889.91 2.086 1.283 4.173 1.07 1.337-.161 4.6-1.713 3.318-1.605 5.993-3.37 1.337-.856 2.033-.642.695.267.91 1.872l.267 3.478-.375 1.284q-.267.32-1.177.642-1.605.695-4.387 3.852l-3.959 4.815q-.642.856-1.712.91-1.07.053-2.086-.643-.749-.428-1.98-.481l-1.765.214q-1.016.588-1.765 1.926-.803 1.39-1.017 3.156-.214 1.659.268 5.35.374 2.943.909 5.243 1.124 4.869.482 8.24-.696 3.584-3.531 6.526-2.033 2.14-2.568 3.478-.428 1.016-.428 3.37l.16 6.741q.054 3.745-.267 5.457-.321 1.658-.91 2.514-.588.75-1.605 1.177l-4.387 1.873q-2.835 1.391-4.761 3.317-.535.535-1.124.267-4.6-2.354-8.453 1.766V412q1.766-1.658 4.013-1.926 2.14-.267 4.226.803 3.852-3.638 8.988-5.778 1.766-.695 1.82-2.086.427-4.013.427-11.342 0-2.515.642-4.066.75-1.659 2.996-4.013 2.408-2.46 2.622-5.724.16-2.087-.856-7.544-.482-2.782-.589-5.992-.107-3.103.16-5.19.75-5.67 3.639-7.275l2.621-.054q1.819.375 2.782 1.23 1.177 1.017 1.98-.16 5.724-7.115 8.934-8.453.588-.214.588-.963l-.16-2.675q-.054-.856-.963-.32-8.293 5.35-11.128 5.67-2.996.268-5.243-1.444-1.016-.75-1.819-.696l-3.103.16q-1.177-.106-3.263 1.231-.482.321-.375 1.284.107.803.535 1.659.214.374-.053.749-1.445 1.444-1.445 6.366 0 3.638-1.819 4.869-1.016.695-3.21 1.284l-3.424.588q-1.39 0-3.21-2.675-1.605-2.514-2.728-5.885-.268-.749-.535-.91l-1.605-.053q-2.943.589-6.955 2.247l-.214-2.086"/><path fill="#0f141b" d="M235.398 396.272q3.692 4.333 5.136 12.893.803 4.975-.481 11.556-1.177 5.992-3.638 11.449-.963 2.086-1.82 2.247-.909.214-2.514-1.23-4.333-3.746-8.506-9.363-4.708-6.367-5.297-10.272-.856-5.243 1.766-12.144 2.996-7.972 8.078-8.507 4.013-.428 7.276 3.37m-15.3 17.013q.534 3.37 4.921 9.416 3.96 5.51 8.079 9.256.802.749 1.123.642l.75-1.124q2.193-5.19 3.263-10.914 1.177-6.473.374-11.181-1.123-6.955-4.173-11.021-2.889-3.852-6.152-3.477-3.906.428-6.527 7.704-2.354 6.42-1.659 10.7"/><path fill="#0f141b" d="M206.883 393.65q7.971 0 10.54 9.363 2.407 8.56-1.017 16.21-2.782 6.206-5.671 14.391-.642 1.873-1.445 2.033-.749.16-2.407-1.016-5.296-3.585-8.292-8.56-3.906-6.527-4.494-16.104-.428-7.115 3.103-11.662 3.53-4.601 9.683-4.655m.107 1.873q-5.403 0-8.453 4.28-2.942 4.066-2.568 10.004.482 9.148 4.227 15.408 2.674 4.494 7.543 8.132l.963.481.481-.802q2.14-7.062 5.404-14.499 3.103-6.848 1.177-14.605-2.14-8.4-8.774-8.4"/><path fill="#0f141b" d="M172.59 399.91q4.12-5.404 10.807-5.51 7.971-.161 10.646 10.217 1.07 4.173.642 8.24-.428 4.172-2.247 6.205-6.099 6.955-11.342 16.264-1.016 1.82-1.819 1.873-.749 0-2.086-1.82-2.996-4.065-5.03-9.469-2.246-6.045-2.942-12.893-.802-7.65 3.37-13.107m10.808-3.531q-5.35 0-9.095 4.708-4.013 4.921-3.264 11.77.642 6.259 2.943 12.518 2.033 5.618 4.494 9.042l.695.642.535-.642q5.083-9.149 11.289-16.585 1.23-1.498 1.551-4.976.375-3.584-.428-7.222-2.086-9.255-8.72-9.255"/><path fill="#0f141b" d="M197.039 420.507q-1.498 1.23-3.53 1.284-1.873 0-3.585-1.017l1.177-1.658q1.337.749 2.46.588l2.836-1.123.642 1.926M215.657 418.795q1.712 1.177 2.568 1.177l1.123-.589 1.445-1.551 1.016 1.712-1.819 1.658q-1.07.696-1.712.696-1.07 0-3.317-1.552l.696-1.551M244.921 307.248q-8.613-3.852-21.881-4.226l.053-2.194q12.733.375 21.24 3.852l.588 2.568"/><path fill="#0f141b" d="m223.414 306.232 4.013-3.585 2.621.16-6.26 5.779-.374-2.354M218.01 260.543q-.16 6.046-5.563 10.486l-.428.535.802.107q2.782-.16 5.457-1.712 4.173-2.461 5.939-7.597l.267 3.424q-2.193 4.173-6.313 6.152-2.568 1.177-5.243 1.338-2.407.107-2.835-.963-.428-1.017 1.337-2.461 4.334-3.584 4.976-8.346-6.1 1.23-10.54-2.407-5.028-4.12-6.794-13.75-1.872-9.897.535-16.264 2.087-5.617 6.634-6.74 2.621-.643 5.564.48 2.996 1.124 4.975 3.692l1.766 5.35q-2.14-3.959-5.03-6.099-3.37-2.407-6.794-1.551-3.798 1.016-5.563 6.206-1.873 5.831-.268 14.552 1.551 8.4 5.938 12.358 4.334 3.906 10.219 2.408 1.016-.321.963.802M178.154 198.965q2.568 1.712 5.457 2.675 3.05 1.016 8.613 1.98 11.716 2.032 22.523 8.827 7.972 5.029 17.441 14.177 4.173 4.066 7.383 5.618 3.692 1.872 8.72 1.926 1.392 0 1.445.535 0 .535-1.39.642-4.976.535-8.828-.91-4.066-1.551-8.667-5.992-9.684-9.416-17.013-14.177-10.54-6.848-21.988-8.614-5.992-.963-9.684-2.3-3.21-1.177-6.206-3.263l2.194-1.124"/><path fill="#0f141b" d="M211.163 211.537q1.177 2.622.32 3.692l-.909 1.551q-.481 1.712-2.14.535-.481-.374-1.605-.588-1.605-.321-2.086-1.712-1.23-3.585-3.745-7.704l2.3.481q2.033 3.585 2.943 6.367.321.856 1.016.91l1.659.695q.588.374.749-.16l.588-1.445q.321-.963-1.123-3.37l2.033.748M222.398 224.645l.214 1.016.695 1.124q1.07 1.551 1.82 4.173.32 1.177 1.711 2.621 1.338 1.445 2.568 1.926 1.284.482 1.338-.267.32-1.82-.428-3.692-1.07-2.889-1.445-6.206l1.712 1.284q.268 1.391 1.284 4.494.856 2.729.482 4.708-.375 2.461-3.478 1.177-1.658-.695-3.317-2.407-1.605-1.659-1.98-3.103-.641-2.408-1.711-3.799-.963-1.444-1.124-2.835-.053-1.23-1.177-3.852-1.07-2.675-2.675-5.51l2.622 1.55q2.621 5.083 2.889 7.598M245.67 234.756q3.906 7.972 3.745 14.338 0 2.247-.91 2.568-1.016.321-2.674-1.765-1.766-2.247-2.836-2.515-1.498-.32-2.14-1.337-.588-.856-.91-2.729-.374-1.926.054-3.53.589-2.408-2.942-7.33l2.675 1.016q2.514 4.066 1.926 6.634-.375 1.338-.054 2.943.268 1.712.589 2.14.267.481 1.23.695 2.087.535 3.585 2.996l.588.642.268-.481q0-5.939-4.334-14.338l2.14.053M248.934 264.074q-.375 2.14-.856 2.087-.482-.107-.321-2.247.588-8.72 4.761-16.21.91-1.552 1.338-1.392.481.214-.214 1.873-3.317 8.292-4.708 15.889"/><path fill="#0f141b" d="M288.256 245.938q16.103 20.009 15.622 51.413-.16 12.09 4.173 20.17 6.366 11.93 8.613 20.971 2.461 10.004 2.782 26.964l-2.247.856q-.267-16.96-2.782-26.964-2.247-8.881-8.613-20.865-4.28-8.078-4.28-21.132 0-30.174-14.82-49.434-14.873-19.42-35.684-15.943l-13.268.91-2.782-2.461 15.997-.535q10.432-1.712 20.276 2.621 9.523 4.173 17.013 13.429M244.333 274.72q.428-1.712 1.016-1.605.535.107.16 1.873-5.991 30.87 8.4 44.833 6.367 6.152 15.783 7.49 9.255 1.337 19.687-2.3l1.926-.054q.16.481-1.498 1.177-11.02 4.44-21.025 3.156-10.004-1.284-16.799-7.918-7.115-6.901-9.255-18.35-2.3-12.359 1.605-28.302M274.774 354.488l-1.712 6.42q-.91 2.3 3.103 1.017 3.638-1.124 5.243.535l2.407 2.086q1.498 1.07 2.782 1.552l-1.551 1.39q-2.836-1.23-4.976-3.477-.588-.642-1.551-.588l-2.087.481-4.815-.16q-1.498-1.124-.642-3.424 1.07-2.943 1.712-6.367l2.087.535"/><path fill="#0f141b" d="M273.918 344.805q.642-8.346.321-16.157h2.086q.321 7.544-.214 15.247l-2.193.91M307.088 369.094q-6.474-8.667-8.507-7.918l-3.05.588q-2.674 0-11.716 7.544-1.337 1.123-1.712.749-.374-.375.91-1.659 3.638-3.691 7.169-6.206 3.584-2.568 5.296-2.568l2.675-.32q1.605-.643 3.852 1.07 2.3 1.711 5.885 6.473l8.614-.856q.963-.856 2.354-1.23l2.675-.161q1.337.267 1.284.91-.107.588-1.498.588-2.782.107-4.013 1.819l-.481.214q-2.675-.214-9.149 1.23l-.588-.267M269.424 393.65l-5.082-.374q-3.478.107-3.852-4.601l1.498-2.675q-.375 5.457 2.46 5.35l5.19.374-.214 1.926M287.079 385.893q3.691-3.799 7.864-3.799 2.408 0 4.334 2.033 2.033 2.14 2.568 5.564l-1.659 3.37q-.107-3.798-1.337-6.205-1.445-2.782-3.906-2.782-3.37 0-6.634 3.424-3.37 3.638-3.424 7.757-.053 4.28 1.82 8.56 1.711 3.959 4.119 6.099l.642.374.856-.588q2.514-2.622 4.761-6.045 2.568-3.852 3.317-6.527l.535 2.942q-2.193 5.296-7.49 10.86-1.177 1.23-1.872 1.23-.535 0-1.766-.962-2.782-2.3-4.761-6.687-2.033-4.708-1.98-9.256.054-5.296 4.013-9.362"/><path fill="#0f141b" d="M302.433 386.481q3.424-4.6 7.383-4.333 3.852.267 6.153 4.12 2.354 3.905 2.14 9.736-.107 2.996-2.675 7.811-2.194 4.173-5.136 7.81-.963 1.178-1.552 1.178-.588 0-1.819-1.07-2.889-2.622-4.868-6.42-2.408-4.547-2.675-9.255-.268-5.03 3.05-9.577m12.144 1.23q-1.873-3.316-4.922-3.584-2.996-.214-5.832 3.745-2.835 3.906-2.621 8.025.267 4.28 2.3 8.453 1.873 3.798 4.44 6.152.375.375.643.321l.535-.374q2.728-3.424 4.815-7.597 2.193-4.387 2.3-6.955.16-4.868-1.658-8.185M286.223 389.05l-1.766 2.46q.16-3.37-1.605-6.26-1.765-2.888-3.905-2.942-2.729-.053-5.457 3.103-2.943 3.478-3.157 8.132-.214 4.708.642 8.507.856 4.012 2.675 5.991l.589.375.642-.428q4.494-4.868 8.988-11.93l.374 2.675q-2.568 4.012-8.292 10.432-1.07 1.23-1.766 1.177-.588-.054-1.658-1.23-2.14-2.408-3.21-6.634-1.016-4.12-.802-9.042.214-5.564 3.744-9.416 3.21-3.53 6.741-3.53 2.461 0 4.655 2.514 2.193 2.568 2.568 6.045"/><path fill="#0f141b" d="M357.377 342.183q3.103-.32 1.124 2.408-1.284 1.819-4.013 2.14-1.658.267-3.53 1.177-2.248 1.177-2.676 2.46-.481 1.499.856 4.067 1.284 2.514 3.05 3.798l1.39 1.23q.429.803.108 1.98-.375 1.284 0 5.457.214 1.82-.696 2.568-.749.642-2.514.642-2.943 0-4.762 2.408-2.14 2.889-3.049 9.737-.214 1.658-.642 2.193-.482.535-1.819.856-.749.214-2.408 1.338-1.711 1.123-2.835 2.14l-.428.16q-1.926-.107-2.3 1.605-.535 1.873-1.98 3.21-2.996 2.568-5.35 5.243l-.481.214-7.704-.588.374-1.82q4.28.268 6.795.108 1.23-1.391 4.975-4.762l1.017-1.016.695-1.338q.321-1.23 1.338-1.98.963-.748 2.247-.748l2.889-2.087q1.604-1.016 2.514-1.284.749-.16 1.016-.481.375-.375.428-1.177.482-7.276 2.996-10.647 2.247-3.05 6.42-3.21l.91-.214.214-1.07q-.268-4.12.107-5.51l.214-1.284-.428-.589q-2.087-1.498-3.745-4.387-1.873-3.21-1.177-5.136.642-1.712 3.37-3.21 2.3-1.23 4.334-1.551 2.086-.321 2.889-1.391.267-.268-.214-.268-1.338-.107-2.194-.963-2.675.803-7.49 3.317-4.868 2.461-7.169 4.227 1.605 2.407 3.157 6.099 1.498 3.53 1.444 4.494-.107 1.123-2.942 2.14-2.408.91-4.12 1.016l-.534-2.086q1.497 0 3.316-.642 1.712-.589 1.873-1.07.053-.696-1.284-3.852-1.552-3.478-3.103-5.832-.321-.535-.268-.802l.428-.589q2.033-1.712 8.186-4.6 5.831-2.783 8.667-3.532.32-.107.642.214.802 1.177 1.872 1.07"/><path fill="#0f141b" d="M317.948 354.167q3.264-1.658 5.51-1.337 1.285.16 5.779 5.136 1.284 1.444 2.889 1.551l3.798-.535.856-.053.481.588q1.391 3.37 1.498 8.24 0 1.55-.535 1.55-.481 0-.695-1.55-.588-4.87-1.605-6.795l-4.226.374q-2.14-.267-3.638-1.926l-3.317-3.317-1.391-.91q-2.247-.213-5.404 1.606v-2.622M308.372 329.879l1.98 3.852q.748 1.39.695 2.46-.107 1.177-1.284 2.568-5.404 6.313-6.046 7.918l-.32.375q-2.73 1.016-6.367 2.621-4.334 1.873-6.1 2.943-1.497.963-3.049.91-1.39-.054-2.568-.964-2.514-2.033-5.992-3.317l1.177-1.284q2.943 1.017 5.725 3.317l3.905-.107q3.638-2.193 12.359-5.564.91-2.086 6.045-7.864l.856-1.551q.107-.696-.481-1.712l-1.659-3.692-.32-.374-.482.374q-2.782 3.531-4.869 4.227-2.354.749-2.942 1.658-.91 1.23-7.972 4.654-2.033 1.017-3.798-.214-2.408-1.765-4.922-2.514-4.066-1.23-6.634.963l.107-2.087q2.3-1.444 5.564-.855 3.21.588 6.74 2.995l2.301.161q6.634-3.21 7.383-4.226.803-1.177 3.692-2.14 1.872-.589 4.12-3.692 1.123-1.39 1.818-1.284.696.054 1.338 1.445M264.93 362.46q.428-.268 1.177-.482l1.124-.374q0-2.354 1.551-3.692 1.605-1.337 4.44-1.284l-.32 2.408q-2.14.053-3.104 1.07-.855.91-.855 2.675 0 .481-.321.535-2.087.588-3.531 1.39l-.161-2.246M276.272 263.646q2.354 9.523 7.169 12.091 4.387 2.3 8.56-1.926 1.123-1.124 1.337.428.856 6.045.375 11.342l.107.642.535-.696q1.712-3.263 2.675-6.42 1.177-3.798 1.819-9.095l1.284 3.638q-1.23 7.009-4.44 12.68-1.338 2.46-2.515 2.193-1.177-.214-1.017-2.996l.16-3.959q.054-2.782-.32-5.564-4.815 4.28-9.898 1.124-5.296-3.317-7.65-13.161-1.819-7.597-.428-13.856 1.337-6.313 5.136-7.597l2.621-.214q1.445.16 2.729.856l3.905 5.831q-4.815-5.938-8.667-4.6-3.263 1.176-4.173 7.061-.909 5.618.696 12.198M269.905 221.863q-6.312 5.564-13.535 8.613h-5.136q9.256-2.835 16.692-9.309l1.98.696"/><path fill="#0f141b" d="M263.004 81.908q.214 4.761-.214 11.449-.107 1.98.963 3.745.91 1.498 3.37 3.852 2.408 2.3 8.293 4.654 5.457 2.194 9.148 2.622 2.247.214 3.424-.482 4.013-2.247 8.667-3.477.268-.107.535.16 5.51 5.03 10.058 14.017 4.869 9.63 5.297 17.548l-.268.481-9.148 7.009q-5.618 4.494-5.885 5.19-1.605 4.386-2.14 10.592-.535 6.26.428 9.79.214.857 1.123 1.285 4.976 2.675 7.972 5.67.535.59.107 1.285-6.955 14.338-13.375 21.774-2.729 3.157-6.527 3.905-3.906.803-7.972-1.23-2.3-1.177-7.971 2.728-1.605 1.07-2.996 5.083-1.284 3.584-1.284 5.564 0 4.494 1.98 4.922 2.193.428 3.851 1.177 1.231.588.91 1.016l-1.552.16-3.477-.588q-1.551-.16-2.675-2.193-1.07-1.98-1.07-4.44 0-2.194 1.605-6.367 1.819-4.655 3.745-5.992 3.103-2.14 5.671-2.835 2.461-.696 4.012.053 3.05 1.498 6.046 1.07 3.424-.481 5.938-3.37 5.992-7.009 12.947-21.08-2.14-2.193-6.74-4.6-1.606-.91-2.087-2.14-1.23-2.996-.642-10.968.588-8.025 2.354-11.395.481-.91 5.938-5.404l8.72-6.848q-.48-7.49-4.76-15.782-3.906-7.65-9.203-12.626-4.066 1.177-7.169 2.89-1.658 1.016-4.333.748-3.799-.481-9.737-2.675-6.794-2.514-9.416-5.029-5.19-4.922-4.868-9.523.428-7.49.107-12.358l2.3.963"/><path fill="#0f141b" d="M269.745 86.67q-8.025-5.137-17.494-8.08-9.684-2.995-14.552-1.711-1.338.32-2.033.856-.589.374-1.284 1.337-2.675 3.264-7.437 7.758-5.992 5.51-8.774 6.366-2.835.803-14.338.268-10.967-.589-13.963-1.391-2.354-.589-3.103-1.391-.963-.963-1.123-3.37-.375-5.618-1.605-10.059l1.98-.91q1.07 4.227 1.818 10.7.107 1.338.428 1.66.428.534 2.14 1.016l13.642 1.284q10.968.481 13.643-.321 2.514-.696 7.971-5.832 4.655-4.387 7.276-7.704l1.659-1.551q.963-.589 2.568-1.017 5.457-1.39 15.3 1.712 10.326 3.317 17.976 9.416 1.552 1.23 1.231 1.605-.268.428-1.926-.642"/><path fill="#0f141b" d="M224.43 21.935q-.641-7.223-14.712-12.894-14.284-5.778-33.544-6.366-13.856-.428-27.766 7.115-13.215 7.17-16.906 15.89-2.835 6.794-7.115 12.572-4.387 5.778-9.523 9.63-4.815 3.638-6.527 7.65-1.712 3.96-.642 9.149l1.016 9.255.589 10.112q.428 6.473 10.272 10.432 8.025 3.21 20.811 4.227 5.938.481 14.82-2.194 10.271-3.103 14.819-8.239 7.65-8.613 14.124-12.198 5.617-3.103 15.033-4.868 1.498-.268 1.605.214.107.535-1.337.963-9.416 2.728-14.178 5.51-6.206 3.692-13.535 11.93-4.387 4.923-15.194 8.614-10.165 3.478-16.425 2.943-12.786-.963-22.041-5.243-10.647-4.869-11.075-11.984l-.642-10.058-1.016-9.202q-2.14-11.02 8.185-18.832 10.112-7.543 15.89-21.24 3.905-9.255 17.708-17.012Q161.783-.428 176.228 0q23.647.695 37.503 7.436 12.251 5.939 12.893 14.07.428 4.762 2.461 8.668 2.087 4.012 5.671 6.634 1.284.91 1.017 1.39-.321.482-1.659-.374-8.827-5.19-9.683-15.89"/><path fill="#0f141b" d="M225.661 22.416q-1.177 5.243-10.593 10.86-7.597 4.495-16.852 7.33-5.67 1.712-20.972 1.766-15.087.053-20.116-1.498-5.617-1.766-11.342-8.507-5.831-6.901-5.831-12.144 0-3.05.749-5.457.749-2.354 1.98-3.424l1.979.642q-2.515 1.98-2.515 8.185 0 4.494 5.243 10.593 5.243 6.1 10.593 7.758 4.922 1.551 19.688 1.498 14.766-.054 19.956-1.605 9.094-2.729 17.066-7.811 9.202-5.885 9.202-10.7l1.765 2.514M311.903 43.067q-4.44-4.173-10.593-8.185-6.527-4.227-8.881-4.173-3.157.107-11.128 5.992l-4.548 2.728q-3.477 1.873-6.955 3.21l-3.637-.802q3.905-1.338 8.399-3.531l5.778-3.264q8.667-6.26 12.09-6.366 2.73-.16 9.845 4.44 6.527 4.227 10.967 8.453 3.745 3.531 3.531 5.136-.214 1.873.75 4.387 1.337 3.585-1.392 7.276-7.33 9.951-10.004 14.231-1.07 1.605-1.552 1.391-.481-.268.482-2.033 4.012-6.955 9.47-14.605 1.23-1.659 1.497-3.103.214-1.23-.32-2.622-.857-2.354-.857-4.922 0-.588-.642-1.39l-2.3-2.248"/><path fill="#0f141b" d="M271.992 43.12q-8.132 0-18.564-1.979-11.075-2.14-16.157-5.029-3.799-2.14-8.132-3.317l-.91-2.782q4.655 1.124 9.898 4.12 4.815 2.728 15.3 4.975 9.203 1.98 18.511 2.782 2.14.214 2.14.696.054.481-2.086.535M292.643 50.29q4.6 4.28 11.128 7.543 2.782 1.445 5.19.642 4.44-1.605 7.596-3.477l-.856 2.621q-4.12 2.247-6.26 2.996l-3.049.428q-1.658-.107-3.477-1.016-3.317-1.659-6.848-4.12-3.157-2.193-5.083-3.959-2.14-1.926-4.28-5.724-2.247-4.013-3.263-8.025-.642-2.568.267-4.708l2.622-1.124q-1.552 2.14-.75 5.297.964 3.745 3.104 7.436 1.926 3.317 3.959 5.19M348.87 151.404l-2.835 2.247-2.675 2.46q-1.658 1.927-5.778 3.8-3.958 1.765-6.42 4.172-2.514 2.354-4.654 6.367-5.778 11.128-9.47 24.824 4.12 1.658 6.153 4.815 2.247 3.477.856 7.329-.856 2.46-3.745 6.901-3.103 4.655-5.296 6.527-3.264 2.729-10.272 4.815-6.902 1.98-10.486 1.445l-3.531-.16q-1.177.16-2.836.802-5.029 1.926-12.626 8.132l-1.926-1.284q8.4-6.955 13.696-9.042 3.317-1.177 7.383-.642 3.37.535 9.684-1.284 6.473-1.819 9.523-4.387 2.14-1.819 5.082-6.152 2.782-4.12 3.585-6.42 1.23-3.317-1.445-6.26-2.193-2.46-6.313-4.012-.535-.214-.374-.749 3.477-13.268 10.165-26.215 4.066-7.65 12.519-11.449 3.263-1.444 5.082-3.37l5.67-5.03q5.137-4.386 4.816-18.777-.16-7.223-1.873-12.198-1.712-4.815-3.959-5.03-1.765-.106-4.761 2.408L336.406 120l-2.675.214q-1.445-.589-2.301-2.622-.91-2.086-1.23-5.831l-.482-5.618q-.749-5.403-6.794-13.803-5.618-7.81-10.807-11.716-4.227-3.264-5.885-9.363l1.819-2.3q1.39 6.366 5.617 9.576 5.243 3.96 11.128 12.573 6.313 9.148 7.062 14.82l.428 5.563q.214 3.21 1.07 5.03.642 1.337 1.07 1.604l1.23-.267 5.671-4.28q3.317-2.622 5.51-2.408 2.997.321 5.404 5.778 2.568 5.778 2.782 13.857.214 7.222-1.498 12.732-1.658 5.35-4.654 7.865"/><path fill="#0f141b" d="M338.706 131.609q-.428 1.98-.321 6.313.053 3.852.428 7.49.481 4.012 1.712 6.366 1.444 2.515 3.477 2.3l-1.551 1.66q-2.14-.215-3.638-3.104-1.338-2.621-1.872-6.955-.428-3.638-.482-7.757-.053-4.494.375-6.634 2.353-8.56 2.353-10.753 0-2.89 1.766-5.564l4.226-2.087q-1.498.856-2.728 3.05-1.338 2.354-1.338 4.654 0 1.445-.802 4.708l-1.605 6.313M306.713 206.936q-6.152 6.795-6.206 12.894-.053 2.514 1.07 3.798 1.177 1.338 3.103.91l-3.103.963q-3.638-1.124-2.889-7.062.75-6.42 6.688-12.84 4.6-4.975 9.309-6.527l7.062.214 1.498 3.638q-1.82-3.317-6.367-2.568-5.029.856-10.165 6.58M77.307 211.11l1.98 5.296q-5.565-5.136-7.544-12.466l1.337-2.514q1.017 5.51 4.227 9.683M168.256 196.29q-1.605 13.91-16.96 22.63-13.802 7.865-32.58 8.453-13.108.321-23.487-2.621l-.32-2.3q10.913 3.423 23.807 2.888 16.905-.588 29.799-7.115 14.284-7.276 17.28-19.046l2.461-2.889"/><path fill="#d1889e" d="M93.09 143.432q.48-3.21 1.497-6.152.375-1.017.75-.963.374.053.855 1.07l3.585 7.222q.32.482.267 1.124l-.267 1.284q-.375 1.337-.803 4.12-.428 2.888-.535 5.028 0 .75-.32.91-.268.16-.803-.321-1.605-1.445-2.89-3.852-1.283-2.354-1.604-4.28-.268-1.926.267-5.19M111.226 129.683q1.177-1.391 1.605.749l2.3 8.613q.321 1.231-.32 2.301-2.89 5.243-6.688 15.568-.375 1.177-1.284.268-2.14-2.247-2.836-7.009-.535-3.156-.32-6.634.106-2.14 2.567-6.634 2.408-4.333 4.976-7.222M131.395 130.272q.321 2.033.214 4.868l-.642 5.029q-.428 1.98-1.819 2.942-3.103 2.194-9.897 9.79-.75.857-1.177.59-.375-.215-.268-1.07.482-3.478 2.996-9.684 2.354-5.885 4.227-8.56 1.765-2.514 4.975-4.815.696-.481 1.017-.267.267.16.374 1.177"/><path fill="#ac6f82" d="M97.476 140.33q1.391 2.888 2.3 4.28.643 1.07 0 2.514-.695 1.819-1.658 10.058-1.926-4.601-1.926-9.523-.053-4.227 1.284-7.33M113.687 134.284l1.551 5.082q.375 1.231-.642 2.675-1.284 1.82-7.062 15.73-1.07-8.24.91-14.392 1.498-4.548 5.243-9.095M131.556 134.98q-.054 3.477-.75 5.884-.481 1.284-1.551 2.247-4.494 3.745-11.235 10.7 1.766-5.243 5.832-10.753 3.852-5.297 7.704-8.079"/><path fill="#0f141b" d="M96.674 136.584q2.193 5.03 3.959 7.865.588 1.123.214 2.086-1.445 4.12-1.712 9.79-.107 1.606-.589 1.766-.374.16-1.605-.749-1.444-1.07-2.728-2.942-1.23-1.873-1.873-3.96-.749-2.46-.053-6.687.535-3.424 1.712-6.901.588-1.712 1.284-1.766.695-.053 1.39 1.498m-2.728 7.33q-.481 3.798.16 5.992l1.392 3.37q.963 1.873 1.98 2.89.32.267.32-.108.107-6.58 1.284-9.844.214-.481-.16-1.123-1.873-3.05-3.37-7.49l-.161-.268-.16.268q-.91 3.21-1.285 6.313M113.42 129.79l2.62 9.63.161 1.284-.428.963q-3.798 6.687-7.169 15.729-.428 1.123-.856 1.23-.428.107-1.284-.749-2.086-2.193-3.156-6.634-1.07-4.12-.642-7.436.428-2.943 3.263-7.918 2.568-4.494 4.869-6.901 1.07-1.177 1.658-1.017.535.16.963 1.819m-1.765.321q-2.14 2.408-4.387 6.634-2.408 4.547-2.782 7.276-.375 2.942.32 6.634.75 3.959 2.355 5.938.267.321.32 0 3.639-10.058 6.635-15.515.374-.802.214-1.444l-2.247-9.416q-.16-.428-.428-.107M130.058 143.593q-4.494 3.37-10.54 9.95-1.39 1.499-2.033 1.231-.588-.214-.374-2.193.535-4.28 2.568-9.523 1.926-4.922 4.494-9.095 1.819-2.835 5.564-5.296 1.123-.696 1.605-.535.588.214.802 1.605.749 5.67-.481 11.181l-.535 1.605-1.07 1.07m.32-13.589q-2.728 1.766-4.654 4.975-2.247 3.638-4.333 8.614-2.247 5.243-2.836 8.613v.321l.268-.214q5.67-6.366 10.004-10.004.803-.642 1.07-1.819 1.391-6.045.856-10.272l-.107-.321-.267.107"/></svg>