<svg xmlns="http://www.w3.org/2000/svg" width="577" height="542" viewBox="-0.44 -0.495 576.788 542.248"><path fill="#595857" d="M269.281 316.417q4.07 2.53 3.906 9.46l3.52 5.94q3.74 7.205 4.95 13.31.99 4.95 1.32 10.615.275 5.555-.22 8.855l-2.365.88q-2.585 1.045-3.575 1.65-.99.66-6.27-.605l-5.116-1.375q.275-3.905-1.21-9.13-.99-3.41-2.365-6.38l-3.19 1.76q-2.255.935-4.125 1.265-1.65.33-2.255 0-.44-.275-.385-.99l.495-7.81.77-8.085q-3.795-4.235-9.24-7.095-4.62-2.475-9.13-3.355-.275-6.325 0-19.745 7.37.33 14.135 3.08 5.28 2.145 11.055 6.27 6.215-.44 9.295 1.485M138.27 373.782q3.08-22.22 17.546-38.61 2.86-3.245 18.92-10.45 11.99-5.445 24.035-10.01 1.265-.44 1.925 0 .605.33.935 1.595l2.915 11.165q-7.975 2.145-15.455 8.745-7.15 6.27-12.87 15.73 2.475 2.035 5.72 6.215 2.805 3.63 4.73 6.82 1.1 1.815-.44 3.08-1.98 1.705-7.535 5.225l-9.68 5.775q-1.1 9.625 1.43 20.515 2.475 10.78 6.875 15.785l-7.15 7.92-1.925 1.375-2.805-.22q-4.73-1.155-17.325-6.38-13.255-19.635-9.845-44.275M49.665 346.832q4.18 0 14.08 1.65l10.23-6.765q6.875-4.345 11.605-7.095 1.32-.77 1.925-.55.495.165.99 1.265 1.485 3.135 2.696 8.58 1.1 4.785 1.65 9.68l6.93.825q-5.885 3.245-9.846 9.405-3.905 5.885-5.28 13.365-1.43 7.865-.605 15.4.825 7.92 3.96 13.695l-9.405-4.125q-2.31 2.145-5.995 4.62-4.015 2.64-7.81 4.455-1.375.715-2.035.55-.605-.11-1.21-1.155-1.43-2.805-3.245-9.515l-3.41-13.035q-4.95-3.575-14.52-8.085-2.64-8.415.165-18.04 2.75-9.295 9.13-15.125"/><path fill="#31363b" d="m218.131 432.357-2.86-5.005q-.605-.66-1.045-.66-.385-.055-.88.44-6.71 4.785-12.815 10.505l-3.96-3.08q5.445-8.25 10.89-14.245 5.995-6.71 8.03-5.94l33.385-.33.33 8.635q-4.125 7.645-14.905 12.155-7.975 3.355-13.255 3.355l-2.915-5.83M177.321 415.032q-5.115-5.775-7.26-16.665-1.925-9.46-1.045-19.305 6.875-3.795 16.555-10.725 2.09-1.43 1.1-3.355-1.1-2.31-4.125-6.105-3.025-3.74-6.325-6.93 3.52-7.975 12.265-15.29 8.195-6.765 16.06-9.185 3.355 13.31 5.61 25.41-14.465 6.05-18.535 17.16-3.575 9.79-.055 27.115-5.28 7.975-14.245 17.875M256.521 351.892q2.75-1.045 4.895-2.53 1.375 1.925 2.585 5.72 1.65 5.39 1.265 10.505-1.815-.935-8.8-4.125-5.06-2.31-7.095-3.74-1.925-1.65-6.05-4.07l-6.105-3.63q-2.255-11.385-2.42-24.695 4.62.605 10.23 4.07 4.62 2.805 8.14 6.38-.935 7.205-1.045 14.905l.11 1.21q.165.44.825.66.77.33 3.465-.66M88 406.287q-3.19-6.71-4.07-14.41-.825-7.535.66-14.905 1.815-8.965 5.776-14.465 3.3-4.51 9.405-8.305l2.97.275 3.025-.055q8.47 0 19.415-3.025 11.935-3.3 22.495-9.13l-.33 2.145-.77 3.74q-7.755 14.355-8.8 29.645-1.045 15.015 4.455 28.765l-.44 9.845-.77 11q-19.525-6.6-53.02-21.12M40.26 363.607q-2.2 9.625.385 16.83-3.3-1.705-15.73-.055l-20.9 3.575q-2.31.44-2.695-.605-.33-.88.77-2.365 7.7-9.9 24.475-22.22 17.545-12.87 23.65-12.045-7.48 5.94-9.955 16.885"/><path fill="#b5b5b0" d="M150.92 326.427q.22-3.685.496-5.005.66-3.355 6.6-4.675 20.24-4.455 45.43-30.415 1.1-1.1 2.09-1.32l2.53.385q4.95 1.815 11.99 3.41 7.48 1.65 12.815 1.98 1.375.11 2.145 1.045.825 1.045.605 2.64-1.65 13.09-.88 30.36.605 14.575 2.475 25.19 10.45 6.765 15.125 9.24 14.355 7.59 24.53 8.14l-11.935 14.245q-7.865 9.24-10.56 15.07-1.32 2.86-3.025 8.8-1.815 6.325-2.585 11.22-22.55-2.585-33.275-2.365-2.145.055-4.015 1.595l-1.76 1.87q-3.85 3.85-13.035 16.445l-13.585 18.7q-1.54 2.036-2.915 2.256-1.265.165-2.86-1.1-12.65-9.79-33-19.306l-2.31-1.65q-.77-1.045-.77-2.695l.33-11.385.66-11.77q1.155 2.805 2.97 6.05 2.035 3.63 3.245 4.675 1.155.935 6.82 2.97l10.175 3.41 2.255.33q1.155-.22 2.475-1.485 6.105-5.83 21.395-26.125-4.29-16.225.495-27.72 4.84-11.55 18.095-16.555l-4.565-21.01-3.96-15.565q-.605-2.31-3.465-1.485-6.985 1.98-23.485 9.845-16.72 8.03-18.865 10.505-4.29 4.84-9.24 12.98 2.86-8.855 3.74-15.125l.605-6.6"/><path fill="#898885" d="M169.456 423.722q16.995-19.085 22.165-26.565-1.1-4.565-1.54-10.12-.715-7.755.385-13.2 1.98 6.105 10.065 11.825 7.59 5.39 17.875 8.635 10.505 3.3 19.69 2.97 10.065-.385 15.455-5.225-4.015 7.15-4.895 13.915-.495 3.63-.11 10.89-23.32-2.695-33.055-2.585-1.595.165-3.135 1.21l-2.64 2.365q-3.85 4.125-13.09 16.775l-13.75 18.536q-1.54 1.925-3.19 2.035-1.32.055-2.915-1.1-6.71-5.17-17.765-11.496-9.57-5.5-15.18-7.865-1.595-.66-2.145-2.09-.44-1.045-.33-2.97.22-18.095.55-23.375l3.465 7.37q1.705 3.41 2.75 4.18 1.1.935 8.415 3.685 7.205 2.695 9.35 3.08 2.365.44 3.575-.88"/><path fill="#3f3b3a" d="m217.856 432.467 3.19 5.72 6.765-1.155q5.5-1.265 8.195-2.53 3.575-1.65 7.315-4.73 4.455-3.74 5.775-7.15 1.045 3.3 3.355 7.975 2.365 4.675 3.795 6.215-1.595 2.695-4.73 5.335-4.07 3.465-9.57 5.665-10.395 4.236-16.115 5.116-6.765 3.575-8.69 3.96-2.805 1.595-7.425.935-5.225-.825-10.56-4.4l-7.04-.825q-4.07-.825-7.04-2.035 3.465-4.566 11.33-16.116l4.125 3.3q4.73-4.4 10.01-8.25l1.87-1.98q1.1-1.1 1.595-.99.495.165 3.85 5.94M175.231 371.362q7.15-2.365 12.045-5.225-2.86 2.805-7.92 6.38-5.445 3.905-10.505 6.545-.55 9.405.935 18.04 1.98 11.66 7.315 17.985-5.225 6.38-7.645 8.635-1.1.99-2.09 1.1l-2.475-.495-9.57-3.245q-5.995-2.09-7.205-3.245-6.93-9.295-9.405-24.64-2.31-14.355.33-25.41 2.805 1.87 9.79 1.98 2.86 2.42 8.58 3.465l8.03.55q3.355-.275 9.79-2.42M270.822 317.517q2.145 3.575 2.53 8.36l.055.22v.825l2.805 4.73q3.08 5.665 4.345 10.12 1.43 5.005 1.925 11.88.495 6.05.11 10.56-3.63 1.705-6.71 3.3l-10.45-2.365q.44-2.75-.99-8.525-1.046-4.18-2.31-7.425l-7.59 3.465-1.98-.165q-.77-.495-.77-1.155 0-4.51.55-10.56l1.32-12.485q5.884 1.54 11.604-2.365 5.5-3.685 5.556-8.415M40.095 363.607q23.485 9.79 44.495 14.08-.88 7.315-.275 14.08.715 8.305 3.685 14.63l-5.005-2.42-4.18-1.815q-9.46 6.82-14.575 9.35l-1.815.11q-.77-.44-1.155-1.54l-3.355-10.945q-2.255-7.315-3.245-11.275-9.9-5.94-14.575-7.59-.99-3.135-.99-7.92.055-4.565.99-8.745"/><path fill="#222428" d="m40.095 363.607-.55 5.445q-.33 6.435.55 11.22-1.595-.66-6.435-.55l-8.47.715q-8.195 1.155-17.6 3.025l-6.49.275q7.7-6.71 21.89-13.695 13.035-6.38 17.105-6.435M84.04 381.482l.55-3.795q6.876 1.76 25.96 2.86 18.15.99 27.226.44 0 7.095.44 11.055.935 8.745 4.015 15.29l-1.21 20.075q-4.675-1.32-29.315-11.33L88 406.397q-1.87-4.125-3.135-8.635-1.375-5.06-1.375-8.635 0-3.19.55-7.645M217.581 431.532q-2.915-5.28-3.19-5.335-.385-.055-1.375.495l-1.595 1.265q-2.035 1.43-5.005 4.18l-5.885 5.5-3.96-3.08q5.5-8.36 10.78-14.3 5.94-6.71 7.92-5.94l.22-.055 15.565 1.045 17.985 1.32.055 5.995q-2.695 6.435-13.255 11.55-6.655 3.135-14.795 4.015l-3.465-6.655M168.74 379.777q1.32-1.045 2.806-2.145 2.97-2.255 3.905-2.695l4.73-3.08 6.71-5.005-1.98 3.245q-2.31 3.85-1.98 4.95.44 1.375 3.96 2.585l3.41.88-.55 5.665q0 5.61 1.87 12.98l-14.3 18.205q-2.475-2.915-4.95-9.13-2.145-5.335-3.08-9.845-.66-3.245-.66-10.285l.11-6.325"/><path fill="#0f141b" d="m274.067 325.657 2.09 3.19q2.53 3.795 4.235 7.7 5.83 13.035 3.19 27.115l-1.815.935q.55-11.99-2.365-22.66-2.145-8.03-5.06-11.935l-1.65-2.145q-.44-.66-.385-1.375-.165-6.435-2.696-8.635-2.365-2.035-8.8-1.87l-2.035-1.815q8.305-.66 11.716 1.705 3.63 2.585 3.575 9.79"/><path fill="#0f141b" d="M254.816 325.437q-2.585 24.915-1.32 25.96 1.705 1.265 15.4-7.81 1.87-1.43 2.53-.935.66.495-1.21 1.925l-8.69 6.325q-7.315 4.62-9.955 3.3-2.42-1.98 1.98-28.875.275-1.76.88-1.705.55.055.385 1.815"/><path fill="#0f141b" d="M178.146 305.912q13.585-8.745 24.86-20.625 2.035-2.09 4.84-1.1 5.5 1.925 12.815 3.63 8.25 1.98 12.54 2.09 3.575.11 3.355 3.905-.99 12.65-.88 25.85.11 17.93 2.365 29.59 13.145 8.745 20.625 12.265 10.615 5.06 19.416 4.895.55 0-.33.825-.88.825-2.035.825-6.49 0-16.83-4.51-10.286-4.51-22.44-12.65l-.276-.385q-2.75-13.695-2.585-35.2.055-11.605.825-21.615.055-.99-.275-1.375-.275-.33-1.1-.385-4.4-.11-12.76-2.035-7.535-1.76-12.98-3.685l-1.54-.22q-.605.11-1.265.77-11.495 12.1-25.355 21.12-13.64 8.8-23.76 11-1.595.33-2.255 1.21-.66.825-1.045 2.97-.44 2.53-.385 6.82.055 3.685-.605 5.72l-3.52 11.66-3.19 4.73q2.145-8.855 4.62-16.94.66-2.035.66-5.61 0-4.29.385-6.71.495-2.915 1.705-4.345 1.155-1.43 3.245-1.87 10.01-2.145 23.155-10.615"/><path fill="#0f141b" d="M139.206 376.477q-2.145 23.155 9.735 40.37.66.66 7.48 3.245 6.215 2.31 10.175 3.52 1.155.385 1.98-.44 5.335-5.5 12.21-13.805 6.49-7.81 9.68-12.485-4.51-19.085 1.485-30.415 4.785-9.13 17.38-14.575-1.815-8.47-4.07-17.435-2.805-11.275-4.95-18.04-.275-.825-1.32-.55-9.295 2.915-24.86 10.395-15.4 7.425-17.765 10.12-15.015 16.995-17.16 40.095m15.455-41.8q2.53-2.805 18.755-10.56 15.95-7.59 24.915-10.395l2.75-.275q.825.385 1.375 2.035 4.455 14.905 8.8 39.16.275 1.65-.33 1.76-.55.11-.935-1.485l-.22-1.045q-11.66 5.17-16.06 14.52-5.225 11.11-.935 28.93l-.11.495q-3.135 4.62-9.9 12.76-7.205 8.635-12.65 14.245l-1.815 1.32-2.2-.165q-18.04-5.94-19.14-7.535-12.265-17.71-10.175-41.8 2.09-24.42 17.875-41.965M234.741 304.482q9.13.55 17.325 4.565 8.415 4.125 12.76 10.34 1.045 1.485.605 1.76-.44.33-1.595-.99-5.06-5.72-12.54-9.24-7.7-3.575-16.665-4.125l.11-2.31"/><path fill="#0f141b" d="M165.276 346.392q-.055-.33 1.43-.385 5.06-.055 12.155 7.095 5.775 5.83 8.8 11.605.66 1.265.495 2.145-.275 1.155-1.925 2.31-9.845 6.82-16.995 10.835-3.08 1.76-6.93.825-1.21-.33-1.155-.715.11-.33 1.32-.275l3.19-.11q1.54-.275 3.19-1.21 2.695-1.54 7.7-5.005l8.47-5.94.99-.99-.275-.99q-3.135-5.83-8.195-11.275-6.215-6.71-10.78-7.37-1.485-.22-1.485-.55M154.33 350.297q1.21-1.375 3.08-2.31 1.816-.935 3.74-1.21 1.376-.22 1.43.275 0 .44-1.264.715-3.575.825-6.105 3.19-.935.825-1.32.605-.385-.275.44-1.265M157.466 379.667q-4.565-1.705-7.425-5.17-.825-1.1-.44-1.485.385-.385 1.32.605 3.685 3.685 6.82 5.005 1.32.605 1.155 1.045-.165.44-1.43 0"/><path fill="#0f141b" d="M175.286 351.122q9.68-18.26 28.93-24.915l.275 2.53q-18.15 6.655-27.225 24.255l-1.98-1.87M170.226 378.292q-.88 10.395 1.1 19.965 1.98 9.79 6.49 16.225l-1.595 1.76q-4.95-6.985-7.205-17.105-2.035-9.13-1.485-19.305l2.695-1.54M234.796 324.062q10.78 2.64 18.48 10.505l-.275 2.475q-7.535-7.975-18.205-10.67v-2.31M168.796 327.747q-3.3 3.19-5.39 7.59-1.925 4.015-1.54 6.05.275 1.155-.275 1.375-.495.22-.88-.935-.715-2.035.715-5.775 1.375-3.685 3.96-6.765l3.41-1.54M174.901 333.577q2.695-3.905 3.685-6.93.935-2.75 0-3.52l1.485-.77q1.1 1.485.33 4.455-.825 3.41-3.96 7.865-3.96 5.665-7.26 7.755-2.42 1.54-5.445 1.54-1.045 0-1.1-.55 0-.495 1.045-.605 2.805-.275 5.225-2.2 2.53-2.09 5.995-7.04M147.29 398.697q-.054-5.555 2.53-7.425.936-.77 1.32-.33.33.385-.494 1.265-1.76 1.76-1.65 6.215.11 3.96 1.54 8.47 1.485 4.565 3.575 7.315 2.145 2.86 4.675 3.245 1.21.22 1.155.77-.055.605-1.265.495-3.19-.275-5.775-3.3-2.585-2.915-4.18-7.865-1.43-4.51-1.43-8.855M156.86 394.297q-1.76-2.2-3.85-2.75-1.044-.275-1.044-.77t1.045-.44q5.5.11 9.68 11.11 1.98 5.17 1.925 9.735 0 4.84-2.475 6.6-.935.66-1.21.22-.33-.385.55-1.265 1.65-1.54 1.485-5.5-.11-4.07-2.09-9.13-2.035-5.28-4.015-7.81M209.111 379.117q-.99-1.705-2.255-7.7-1.045-5.225-2.145-8.085-1.43-3.74-3.465-5.39l1.54-1.265q2.145 1.815 3.575 5.885.99 2.695 2.145 8.47 1.155 5.335 2.255 7.095.99 1.595 3.63 2.53 3.465 1.265 8.03 3.685 1.54.88 13.97 4.84l15.675 4.785.275 1.155q0 1.045-1.1.605-24.09-7.425-28.985-9.46-3.52-1.925-8.36-3.685-3.52-1.265-4.785-3.465M209.056 380.712q.33.495-1.1 1.265-4.785 2.64-8.635 5.335-3.85 2.695-9.46.99l-.22-1.815q2.2.825 4.51.605 2.255-.275 4.235-1.43 4.015-2.42 8.965-4.785 1.43-.715 1.705-.165"/><path fill="#0f141b" d="M144.376 433.622q22.99 10.945 33.385 19.856 1.045.88 2.035.715 1.045-.22 2.255-1.595 3.025-3.3 14.135-19.526 7.59-10.78 14.74-17.6 2.2-2.035 4.675-2.035l16.335.77 16.39 1.21q1.1.165 1.375 1.43.33 1.265-1.32 1.265l-16.28-1.32-16.83-1.485q-1.485.055-3.08 1.595-6.435 6.105-14.355 17.435l-6.6 9.405-7.755 10.396q-3.52 3.905-6.985.99-6.16-5.39-17.435-11.606-5.72-3.08-15.565-7.81-2.035-.99-2.75-1.98-.77-1.1-.605-3.08l.495-12.32.66-13.585 1.76 3.355q-.385 5.885-.825 22.495-.11 1.155.275 1.705l1.87 1.32"/><path fill="#0f141b" d="M207.516 432.687q-6.38 5.39-11.055 9.845-1.32 1.265-1.705.88-.44-.44.88-1.815l11.22-11.165q5.885-5.555 7.425-5.5 1.32.055 4.51 6.215 2.86 5.555 4.4 10.175.715 2.2.11 2.09-.605-.11-1.485-1.925l-4.125-7.81q-3.3-6.105-3.685-6.105-.44 0-6.49 5.115"/><path fill="#0f141b" d="M196.956 433.732q1.54 1.485 4.455 3.355l-1.485 1.375q-2.09-1.21-3.96-3.025l.99-1.705M256.741 438.077q-5.17 6.875-15.51 11.44-8.25 3.74-15.235 4.346-2.145 1.65-7.92 4.07-5.5 2.585-13.2-.33-8.03-3.08-11.825-9.846-.715-1.265-.275-1.595.44-.385 1.32.825 4.07 5.776 10.89 8.58 6.6 2.64 11.495.77 1.265-.33 4.07-1.704l4.18-2.42q.44-.275 1.485-.385l2.035-.275q3.795-.66 12.21-4.4 11.715-5.226 15.455-10.726l.825 1.65M148.39 342.982q-6.82 5.17-20.57 8.965-12.484 3.41-21.174 3.41-7.535 0-15.62-1.43-1.486-.22-1.43-.825.054-.55 1.54-.385l15.4.88q8.635 0 21.67-4.07 13.365-4.235 20.295-9.405l-.11 2.86"/><path fill="#0f141b" d="M46.53 348.372q-7.15 1.815-22.825 14.025-14.96 11.605-20.9 19.25-.715.935-.495 1.43l1.485.22q26.4-5.5 33.66-4.73 2.75.275 7.81 2.75 4.95 2.365 9.295 5.445l.33 2.695q-4.18-3.135-9.515-5.83-5.39-2.695-8.195-3.08l-13.145.99q-9.845 1.375-19.965 3.465-3.3.715-3.905-.55-.605-1.21 1.265-3.795 6.16-8.525 21.285-20.46 15.455-12.1 23.1-14.08 4.125-1.1 17.985 1.265 12.265-8.305 21.01-13.31 1.925-1.1 2.97-.88 1.045.275 1.76 2.09 1.266 3.135 2.586 8.855 1.21 5.28 1.76 9.35l-2.42-.055q-.495-4.235-1.43-9.075-1.1-5.555-2.2-8.305-.386-.88-.77-.99-.44-.11-1.43.495-10.01 6.05-21.616 13.915l-.44.11q-13.2-2.2-17.05-1.21"/><path fill="#0f141b" d="M51.755 380.382q2.75 2.805 4.4 9.075 3.905 14.795 6.27 20.625.44 1.155 1.65.55 7.81-4.015 14.3-9.405l.66-.11q13.366 6.49 31.846 13.97 18.26 7.315 30.47 11.165l-.22 2.31q-11.935-3.74-30.305-11.22-18.15-7.37-31.846-14.025-5.28 4.29-14.19 8.855-1.76.935-2.475.66-.715-.275-1.485-2.035-2.915-7.205-6.49-20.9-1.595-6.05-3.575-8.8-.77-1.045-.33-1.32.44-.33 1.32.605M51.81 347.052q-6.71 3.74-9.955 14.465-3.3 10.615-.495 19.195l-2.2-.605q-2.42-8.745.495-18.7 2.97-10.01 9.405-14.41l2.75.055"/><path fill="#0f141b" d="M88.77 363.387q4.4-7.095 10.67-9.24h2.366q-6.215 3.08-10.56 9.845-4.016 6.16-5.446 13.86-1.43 7.645-.495 15.18.935 7.865 4.235 14.19l-2.75-1.1q-2.97-6.27-3.795-13.86-.77-7.315.55-14.685 1.43-8.03 5.225-14.19M185.296 449.682q5.995 2.09 13.255 2.806l2.09 2.255-8.525-1.1q-3.905-.77-7.755-2.2l.935-1.76M264.441 364.597q.11-6.27-3.19-14.355-.11-.33.715-.66l1.045-.055 2.31 6.49q1.43 5.005 1.43 9.185 0 .605-1.155.275-1.155-.275-1.155-.88M236.501 435.437q-7.81 3.575-14.905 3.575-.165 0-.385-.935-.275-.99.11-.935 5.005.22 13.2-3.245 11-4.73 14.3-12.87l.99.055q.88.33.715.66-3.575 8.855-14.025 13.695"/><path fill="#dbe7ed" d="M485.543 108.186q.385-.715 1.595-1.21 1.925-.825 5.39-2.75l6.16-3.685q1.76-1.155 1.485 1.375-1.045 9.02-.44 31.405.44 17.16 1.43 32.835l1.21 11q.825 7.315.605 8.8l-18.92 4.29q-20.57 4.895-28.545 7.7l-5.116-8.085q-3.465-5.06-5.17-6.82-1.21-1.265-.99-2.97.44-4.95 2.585-13.31.275-.935.715-1.265.44-.385 1.43-.495 2.696-.11 4.456-2.31 1.595-1.98 5.005-8.25l-2.585-9.515q-.275-.88-.165-1.43.11-.605.825-1.485l3.3-4.73 3.245-5.885q1.265-2.695 3.685-6.765 2.695-4.455 5.335-8.14.605-.88 1.1-.825l1.045.88 3.025 5.72 2.805 5.775q2.365-3.19 3.905-4.345.825-5.225 1.265-13.64.11-1.375.33-1.87"/><path fill="#b9c3c9" d="M479.548 128.7q1.925-2.86 4.4-4.62-.22 3.686-1.1 9.516-.825 5.775-1.76 9.68l-1.815-1.87q.605-8.36.275-12.705M445.447 173.251q1.045-4.895 1.705-6.82.33-.88.99-1.21l1.43-.22q.88 0 2.036-.66 1.375-.77 2.145-2.09l2.365-3.795 2.255-4.455-2.42-11.11q4.4 7.48 8.305 24.53 3.795 16.335 3.905 26.95l-6.325 1.485q-3.465.825-6.05 1.815-1.54-2.585-5.06-7.535-3.52-5.005-5.226-6.985l-1.045-1.76q-.275-.88-.11-2.09l1.1-6.05"/><path fill="#0f141b" d="M484.993 107.306q.44-.55 1.43-.935 4.73-1.98 11.66-6.545 1.65-1.1 2.365-.605.77.44.55 2.42-1.485 14.135.055 43.01 1.265 24.255 3.465 40.865l-2.2.55q-2.145-18.7-3.245-42.46-1.32-28.875.385-42.13.055-.605-.495-.22-6.875 4.565-11.935 6.71l-.715.44-.22.825q-.44 7.095-2.2 21.615-2.035 16.94-3.85 25.08-.66 2.86-1.375 1.98-.715-.825-.165-3.575 1.32-7.04 3.465-23.595 2.145-16.28 2.475-21.725.055-1.1.55-1.705"/><path fill="#0f141b" d="M495.553 157.63q-.495-5.334-.33-13.584.11-1.65.385-1.595.33 0 .385 1.65.055 4.29.495 13.42.11 1.65-.33 1.705-.44 0-.605-1.595M479.988 129.14q-1.98 2.53-4.675 3.906l-1.045.055q-.22-.385.495-.99l4.235-4.235q2.86-3.685 4.785-5.17l.11 2.2q-1.87 1.54-3.905 4.235"/><path fill="#0f141b" d="m479.273 129.03-5.72-12.044q-.33-.495-.715 0-4.84 6.875-9.24 15.4-2.42 4.785-6.49 10.34-.385.495-.385.825l.11.88q4.455 14.465 5.335 27.72.11 1.815-.385 1.87-.495 0-.715-1.76-1.21-10.34-6.16-27.115-.385-1.155-.275-1.76.055-.605.66-1.375 3.41-4.51 6.545-10.56 4.125-7.975 9.405-15.675 2.035-2.86 3.74.275 2.365 4.18 5.39 11.33l-1.1 1.65"/><path fill="#0f141b" d="M443.192 180.401q.495-7.315 3.19-14.575.33-.935.715-1.21.55-.44 1.87-.44 2.586 0 4.07-2.365 2.97-4.455 5.06-8.965l.66 2.53-4.29 7.425q-2.034 3.19-5.28 3.19-.88 0-1.1.715-1.1 2.915-1.925 6.875-.88 4.015-1.1 6.985 0 .77.55 1.32 3.025 3.3 6.05 7.425 3.19 4.455 5.06 8.085l-1.924.66q-1.815-3.575-5.226-8.195-2.915-4.015-5.555-6.765l-.715-1.1-.11-1.595"/><path fill="#dbe7ed" d="M462.828 271.757q-1.265-2.86-8.36-9.79 1.87-3.08 4.345-6.546 2.53-3.575 4.125-5.39 4.73 3.74 13.75 11.825 9.735 8.746 11 10.67 1.21 1.87 4.235 14.686 2.53 10.725 4.455 20.845.33 1.485 0 2.365-.33.99-1.65 1.87l-15.015 9.35q-.935 5.17-.935 7.535 0 .825 1.32 4.015l1.705 4.675q.385 1.76-1.045 10.89-1.32 8.415-2.695 14.245 1.155.165 8.195 7.975l10.67 12.265q1.87 2.145 2.695 5.665l1.925 8.635q3.025 6.435 11.605 20.35 2.695 4.235 2.97 7.425.44 6.875 1.815 14.96.44 2.64-.935 5.94.77 6.38 2.75 13.75 1.76 6.82 3.41 10.34.935 2.036 1.375 5.61.44 2.09-3.63 10.506-3.74 7.755-5.005 9.02-.825.825-4.565 1.76l-5.61.88q-2.64.11-18.7-6.05-1.375-.495-1.21-1.155.165-.605 1.595-1.045l5.225-1.54 6.05-2.035q-3.3-.99-6.71-3.355-1.155 2.145-8.25 3.52l-10.23 1.155q-2.42.11-3.3-1.65l-4.785-9.68q-3.19-6.49-4.675-10.23-.99-2.53 1.54-1.265l11.935 5.555 3.685.44q1.485-.33 3.245-1.87-2.53-4.125-1.265-9.13l.825-5.94q.385-4.4.165-6.27-.22-1.76-3.025-7.866l-5.06-10.34q2.42-4.29 1.76-10.12-.715-6.38-4.895-11.66-3.905-4.84-20.24-15.07-2.696-5.06-.33-10.34l1.815-4.455 1.32-4.015q.825-3.3 2.53-4.125l-.66-3.575q-2.53 0-5.446-1.925-2.585-1.65-4.18-3.905l-2.805-3.96-2.86-3.19q8.47-15.345 10.01-29.7 3.63-1.815 7.426-5.39 3.96-3.685 5.5-6.875 4.18-2.585 4.345-8.965.165-6.16-.825-16.39-1.1-10.835-2.42-13.915"/><path fill="#e6e6e6" d="M329.067 244.476q-6.655 8.58-8.305 11-1.1 1.54-.66 3.025l1.1 4.675q-5.94-5.72-13.31-14.19l-10.175-11.935q-.99-1.155-.715-1.815.33-.715 1.925-.22l30.14 9.46M330.222 215.931q-6.655-8.415-9.625-12.65-.935-1.32-.715-1.98.22-.715 1.98-.275 5.005 1.32 15.235 4.565l16.39 5.5q.055 3.025-4.07 8.91l-7.755 9.9-11.44-13.97"/><path fill="#595857" d="m498.578 205.096-1.76 1.21q-11.55 3.19-17.765 5.115-10.945 3.355-18.7 6.71-9.35 4.07-17.326 9.24-7.7 5.06-11.44 9.405-1.705 1.98-1.21 4.18 1.87 8.14 5.115 16.995 3.85 10.505 7.92 16.776.825 1.32 1.32 1.485.66.22 1.32-.935l8.416-13.31 5.225 5.224q2.53 2.805 3.135 4.126 1.21 2.64 2.2 13.035.88 9.02 1.045 17.71.11 3.74-1.705 6.38-1.815 2.64-4.675 3.08-2.585.44-6.875-2.09-3.466-2.09-6.876-5.28-1.155-1.045-1.925-1.265l-2.365.055q-27.225 5.775-40.04-6.215 1.76-4.895 7.92-9.845 5.225-4.235 14.63-9.185 1.925-.99 1.925-3.3 0-28.106-1.265-33.88-.99-4.566-7.26-11.496-5.335-5.885-11.44-10.45 18.26-11.11 53.68-21.285 25.796-7.48 51.92-12.265l2.53 4.015q2.036 3.3 3.85 5.17l4.016 3.19 2.86 1.87-5.94 1.595-1.155 1.32q-1.43 1.43-3.19 1.925-1.1.33-6.49 0-5.885-.385-7.81-.165l-1.815 1.155"/><path fill="#31363b" d="m468.988 342.872 3.465 21.175 2.2 15.62q.055 2.475-.935 6.93-.935 4.345-1.65 5.005l-3.355.825q-2.805.33-3.96-.055-.825-.22-4.015-3.96-3.19-3.685-3.685-4.95-.385-1.045-2.53-13.53l-2.805-16.17 2.695 2.09q.55.44.99.33.495-.11.55-.935 1.32-9.68 2.86-14.795l4.62.165 3.465.22q1.155.11 1.595.605l.495 1.43"/><path fill="#595857" d="M358.272 3.465q2.145.275 2.915 1.925 6.49 13.915 18.15 34.65 2.75 4.95 3.19 9.35 1.265 13.09 6.82 46.036 4.455 5.225 10.78 14.795 6.545 9.79 9.35 15.73 2.585 5.39 5.06 16.5 1.815 8.25 3.19 17.875.22 1.43-.275 1.76-.55.33-1.54-.77-6.71-7.15-20.35-19.25-2.805-2.475-9.02-3.575-3.905 26.785-7.04 52.745-1.265-2.695-2.035-3.52-.66-.66-1.43-.275l-3.74 1.32q-.77.11-.88.495-.055.33.275 1.155 1.43 3.575 2.365 7.26 1.21 4.51 1.045 7.205-.22 5.555 3.685 15.125l-8.965-11.385-9.625-12.1q-.605-.715-1.155-.77-.55-.11-1.265.385-2.53-3.74-4.84-9.24-1.815-4.4-5.885-6.05l-19.69-8.415q-1.815-.825-2.585-1.815-.66-.825-.99-2.42-1.265-6.49-2.475-16.775-1.155-9.735-1.815-19.085-9.57-4.345-28.6-11.715-16.115-6.27-27.996-10.45-1.43-.495-2.09-1.1-.77-.715-1.1-2.2-2.255-10.34-6.6-24.86-.33-1.046.11-1.486.495-.495 1.705-.165l30.58 8.085 28.93 7.426 1.54-.055q.276-.385-.33-1.705L298.543 59.73l-20.24-40.205q-.77-1.54-.66-2.145.055-.77 1.32-1.375 9.9-4.565 16.06-7.15l1.815-.33q.88.11 1.65 1.1 5.335 6.6 22.385 31.405 16.005 23.155 22.99 34.045.935 1.43 1.65 1.375.715-.055.935-1.76 1.1-9.845-.055-30.25-1.32-23.1-4.895-41.415-.275-1.32.055-1.705l1.65-.165 15.07 2.31"/><path fill="#31363b" d="M346.337 43.89q.77 16.17.11 30.8-.055 1.705-.88 1.76-.77 0-1.705-1.375l-19.36-28.82q-13.035-19.085-19.14-27.225 22.77-3.245 38.335-4.015 1.87 13.09 2.64 28.875M315.647 93.776q.66 1.375.33 1.815l-1.98.11-48.4-12.76q4.895-16.116 18.755-51.316l31.295 62.15"/><path fill="#dbe7ed" d="M376.037 187.441q1.375-.77 2.2 1.1 2.365 5.5 6.875 11.66 5.665 7.865 11.055 11 9.13 5.39 18.04 14.19 9.46 9.405 10.615 15.125 1.045 5.225 1.43 32.726.055 1.705-.385 2.64-.44 1.045-1.705 1.815-8.36 4.675-12.1 7.315-6.38 4.455-9.735 10.34-3.025 5.335-3.245 17.71-.165 8.58 1.155 23.265.11 1.65-.99 1.65-1.375 0-2.86-1.155-1.375-1.045-2.09-2.42-5.115-9.625-17.49-19.965-14.025-11.715-28.38-15.895l1.375-2.145q8.305-1.98 22.605-7.095 15.84-5.61 18.15-7.92 3.19-3.19 7.26-16.776 4.455-14.685 2.145-19.745l-7.59-7.425q-4.73-4.4-7.095-5.17-5.83-1.98-13.915-1.54-8.525.495-14.685 3.465-6.215 3.025-15.62 12.98-8.745 9.24-16.72 20.57l-3.135-.11q.11-3.465-.88-8.525-.55-2.255.44-3.63 3.74-5.115 19.03-23.65 11.99-14.465 12.925-17.49.88-3.08.33-13.42-.055-1.98 1.045-2.75 1.155-.77 3.685-2.035.825-.385 1.21-.385.55 0 1.21.77 8.14 9.68 18.315 23.045-3.025-6.38-3.685-15.62-.165-2.695-.935-6.16-.88-4.015-2.09-7.04-.385-1.045-.165-1.485.22-.44 1.155-.605 1.265-.165 3.245-1.21M450.397 492.583q5.006 6.875 6.106 12.155.275 1.155-.605 1.32-.825.11-1.98-.66-4.62-3.025-11.606-5.39-6.38-2.09-11.495-2.64-2.695-3.355-5.61-5.39-2.695-1.87-5.06-2.31-.44-1.1-1.76-1.815-1.155-.605-2.42-.66l-8.415-1.265q-1.54-.33-2.035-1.265-.385-.825.055-1.815 2.365-5.72 8.525-11.935 6.38-6.49 10.89-7.15 1.155-.22 1.375.385.275.605-.495 1.925-3.135 5.28-4.4 9.02-1.265 3.685 3.08 5.72 4.18 1.925 8.195.275 2.09-.88 3.3-.935 1.815-.055 3.63 1.32 5.83 4.29 10.725 11.11M268.456 520.908q2.2 8.25 3.466 17.93.22 1.43-.44 1.76-.605.275-1.43-.77-2.036-2.475-6.656-6.655-4.62-4.235-6.93-5.72-1.925-1.21-7.92-2.035l-10.34-.715q-2.915 0-4.62-1.65-1.375-1.375-1.595-3.3-.66-6.16 3.025-15.015 3.96-9.515 10.395-15.62 1.76-1.65 2.53.55l1.54 5.885q1.1 4.565 1.705 6.325.825 2.53 2.915 3.74 1.87 1.155 3.685.66 3.575-1.1 5.28 1.265 2.86 3.905 5.39 13.365"/><path fill="#fff" d="M219.231 526.628q-2.75 2.31-8.305 11.66-.55.88-1.1.99-.55.055-.99-.605-2.805-4.73-3.3-10.01-.55-5.39 1.155-12.87.605-2.585 4.015-5.28 4.73-4.015 6.38-6.49 1.43-2.2 3.96-.99 2.75 1.265 4.62 5.885 2.145 5.28 1.485 11.77-.165 1.43-.99 2.145-.605.55-1.87.935-2.805.88-5.06 2.86M274.012 508.038q2.585-2.145 4.51-.385 4.07 3.575 7.7 12.265 2.805 6.71 4.18 13.365.715 3.3-1.76 1.65-2.695-1.87-8.965-4.84-5.17-2.475-9.846-4.345-1.045-4.51-2.75-10.175 3.906-5.225 6.93-7.535M412.337 497.478q.44-2.255 2.255-4.565 1.925-2.585 3.85-2.915 4.235-.715 9.9 4.785 4.895 4.785 10.45 13.695 1.1 1.76.66 2.255l-1.595-.165q-5.335-2.53-24.035-10.01-1.98-.715-1.485-3.08M452.543 487.358q3.025 2.09 6.27 12.375.275.77 0 1.1l-.88-.11q-1.375-.88-3.19-1.485-2.145-3.74-4.896-7.315-3.465-4.51-6.545-6.82l5.5.88q2.75.66 3.74 1.375"/><path fill="#b5b5b0" d="m496.928 206.856-3.245 5.335q-1.705 2.97-1.155 4.015 5.94 10.67 9.24 15.51l-19.415 7.755q-14.41 6.105-17.6 8.91-2.475 2.2-8.855 11.55-5.886 8.525-9.846 15.346-1.265 2.2-2.365.44-3.41-5.5-7.59-16.556-4.18-10.89-5.72-18.205-.22-1.155 0-1.98.275-.88 1.1-1.87 9.845-11.495 30.086-19.965 16.28-6.82 35.365-10.285M446.602 310.697q.935 2.75 1.87 6.93 1.76 8.305-4.07 23.265-6.16 15.895-17.05 28.49.99 5.555 4.07 10.175 2.805 4.29 6.215 6.05 8.525 4.51 16.226 9.57 8.965 5.83 14.19 10.725 5.885 5.445 6.545 14.19.66 9.02-5.225 13.365-3.795 2.805-11.33 5.83-7.81 3.135-16.556 5.17-6.655 6.766-14.85 19.526-4.07-1.54-11.825 6.27-6.93 6.985-8.91 12.155-.605 1.65-.055 2.42.33.605 1.705 1.1l3.74.77 4.345.605q4.015.55 4.51 2.365-3.025-.11-5.5 3.3-2.255 3.08-2.585 6.49l-13.86-4.29q-8.305-2.475-10.34-3.575-1.98-.99-6.05-2.31-4.18-1.43-7.315-2.09-.935-.22-1.21-.66-.22-.44.385-.99 2.09-1.87 6.82-4.125 4.345-2.035 6.93-2.585.55-1.705 2.31-3.74 1.43-1.65 2.97-2.86-.605-4.345-.33-10.285.275-5.775 1.1-7.92.66-1.87 5.115-5.776 3.52-3.135 7.59-6.05-.33-1.98-4.29-5.94l-8.58-8.14q-12.485-11.99-13.915-20.68-16.17 7.26-33.99 10.835-15.015 3.025-27.005 2.805-.22 4.565-1.32 11.935-1.1 7.535-1.815 8.91-3.19 5.83-18.425 14.63-15.18 8.856-25.025 10.67-.165 10.176-3.41 15.18-1.43 2.256-6.05 5.94-4.676 3.74-9.35 6.38l-2.53 4.95q-1.376-6.82-2.53-10.01-.716-1.924-2.53-.55-6.546 5.116-11.056 16.61-4.73 11.99-1.155 17.106-3.41.935-7.04.11 2.31-6.105-.22-13.805-2.64-7.92-7.315-6.16-.22-1.155.44-2.365.66-1.155 1.98-2.035l6.765-5.775q.935-5.94.715-16.17l.055-4.95q-.055-3.025.22-4.015.495-1.65 2.915-3.63 1.155-.935 5.005-3.52 2.31-1.815 8.745-5.61.44-1.485.33-3.905l-.33-5.17q-7.315-4.786-10.89-16.5-1.65-5.446-2.75-14.74-1.595-14.136 9.57-29.976 8.305-11.825 16.115-16.61 2.2-1.375 11.605-3.96l8.91-2.365q16.06-7.48 40.92-22.88 23.98-14.905 25.63-17.985 8.251-14.575 7.866-20.46 13.2 4.07 24.585 13.53 11.22 9.295 17.6 21.23.605 1.155 1.815 1.98 1.1.66 2.145.77 1.815.165 1.65-1.54-1.045-13.86-1.045-21.78.055-12.595 2.42-17.82 8.25 6.325 16.5 7.755 9.295 1.595 24.75-1.705 2.255 3.685 3.74 7.92"/><path fill="#b5b5b0" d="M270.767 511.173q-2.42 2.585-3.686 4.84-1.43-4.29-3.08-7.04l5.885-1.375 5.886-.715q-2.64 1.87-5.005 4.29"/><path fill="#b5b5b6" d="M358.052 3.465q1.32.165 1.98.66.88.55 1.485 1.815 4.675 9.9 17.985 34.925 2.585 4.73 3.025 10.285.605 7.59 2.86 21.725 1.815 11.715 4.015 23.156 5.335 6.105 10.505 13.585 6.105 8.8 9.57 16.225 3.41 7.26 6.215 21.89 2.585 13.805 1.485 14.19-2.585-9.735-5.5-18.92-3.08-9.845-5.005-13.805-1.87-3.905-7.865-13.805-5.72-9.35-9.9-15.51-.935-1.43-2.035-1.32-.99.055-1.65 1.43l-3.63 7.865q-1.265 2.97-.77-1.705.495-4.675 1.87-7.7.715-1.595 0-5.72-1.1-6.326-2.915-18.756-1.1-7.975-1.1-14.025l-.275-8.03q-.33-5.06-.825-6.38-.44-1.32-2.585-4.785l-3.85-5.83q-1.32-1.76-5.06-11.605-4.51-11.825-6.82-16.555-.33-.715-1.265-.77L341.552 3.74q-.88-3.465 2.035-2.75l7.425 1.485 7.04.99M278.412 19.855q-1.595-2.64.275-3.63 5.445-2.75 16.445-7.37 2.2-.99 3.52.77 6.875 9.02 22.825 32.505 15.4 22.66 22.825 34.595-7.645-9.9-24.475-32.78l-23.1-31.24q-.495-.66-1.485-.33-5.665 2.09-16.83 7.48"/><path fill="#3f3b3a" d="M253.331 79.86q4.29 9.515 9.295 25.63.44 1.21 1.54 1.54 19.526 6.876 27.336 9.846 17.82 6.71 27.775 11.825l.165 3.52q-11.22-4.895-28.27-11.55-16.665-6.49-28.49-10.615-2.31-.77-2.806-3.08-4.95-21.726-6.545-27.116M358.327 195.911q-4.4-5.995-5.5-8.91-.825-2.2-1.76-3.3-1.1-1.265-3.19-2.31l-9.625-4.07q-8.195-3.41-10.67-4.62l-2.42-1.705q-.99-1.045-1.265-2.695l-2.09-15.07q-1.925-15.07-2.53-24.53 7.425 30.525 9.57 36.63.495 1.375 1.43 1.76 15.565 6.215 19.195 8.14 5.28 2.805 8.03 7.15 5.775 8.91 16.115 13.86 1.375 4.62 1.375 8.525 0 6.875 3.575 14.85-12.925-16.665-18.15-23.045-.385-.55-.99-.715l-1.1.055"/><path fill="#898885" d="M446.712 310.862q1.595 4.84 2.09 7.48.495 2.64-.275 7.755-.825 5.39-2.475 9.735-7.205-8.305-22.605-10.01-13.64-1.43-23.705 2.53-.935-11.66-.66-17.71.275-6.985 2.255-13.86 9.35 6.985 20.13 7.865 7.37.605 22.11-1.87 1.43 3.08 3.135 8.085"/><path fill="#898885" d="M454.083 310.422q4.73 2.145 8.14.55-2.255 3.96-6.875 7.755-3.74 3.08-6.656 4.345.165-4.4-1.54-10.12-1.155-4.015-3.63-9.79h1.265q4.675 5.17 9.296 7.26M501.273 224.511l3.795 6.27q-35.75 12.87-41.525 18.755-4.84 5.005-18.59 27.17-2.586-3.134-4.73-7.755l-4.07-9.735q11.604-12.32 32.23-22.44 16.72-8.25 32.89-12.265M398.257 396.882q9.515-6.215 17.985-15.18-.055 4.125 1.815 8.14 1.87 3.96 6.215 8.965 12.76 14.795 30.8 21.56 7.866 2.915 13.2 2.53 5.666-.33 6.71-4.29.66 10.56-8.414 16.5-6.38 4.235-25.246 9.57l-3.74 4.455q-1.76 2.09-2.915 3.96-5.94-.824-11.77 1.43-6.325 2.42-11.165 7.92 2.42-4.454 3.685-11.22 1.155-6.27.55-9.24-.495-2.42-1.705-2.805l-2.53.275q-2.31.715-5.17 2.695-1.87-3.025-6.05-6.985l-8.085-7.37q-4.95-4.565-8.305-10.395-1.485-2.64-4.73-9.955 14.52-7.755 18.865-10.56"/><path fill="#898885" d="M403.757 469.043q-7.37 5.885-9.68 5.115-2.035-.715-1.815-10.285.165-9.625 2.365-11.495 3.465 13.64 18.26 7.205-1.98 3.74-9.13 9.46M386.322 488.788q-.44-2.31.935-6.82-.22 3.19.88 5.335 1.045 2.09 3.3 2.695 12.815 3.3 21.23 6.27l-.495 2.97-21.34-6.325q-3.905-1.155-4.51-4.125"/><path fill="#b9c3c9" d="M452.543 504.628q-4.236-2.695-10.23-4.84-6.82-2.475-11.44-2.42-2.2-3.08-5.72-5.5 10.394 1.32 17.434 4.29 8.086 3.52 13.64 10.065-1.264-.055-3.684-1.595"/><path fill="#dcdddd" d="M454.853 499.293q-3.135-5.61-7.04-10.12 3.19 1.32 6.49 5.28 2.53 3.135 4.125 6.38-1.65-.99-3.575-1.54"/><path fill="#898885" d="M385.937 485.543q0 2.2.605 5.5-6.875-2.695-13.64-4.73l13.035-.77M381.867 406.232q-31.625 15.895-63.305 14.85l.825-20.13q.165-11.22-.825-17.71 23.375 7.205 54.835 2.585 36.795-5.445 60.94-25.52-19.195 29.095-52.47 45.925M237.216 391.657q.715 11.825 11.77 23.76 9.625 10.395 24.64 18.48 13.916 7.48 26.016 9.735 12.43 2.365 15.895-2.365-.715 5.665-19.91 16.226-18.59 10.23-25.3 9.9l-4.84 3.41q-2.09 3.85-7.536 14.575-3.795-2.86-12.32-.99-8.855 1.98-17.105 7.865 3.135-3.19 5.885-7.04l4.18-6.27 2.695-5.115 1.43-4.015 1.98-7.04q1.155-4.51 1.155-6.93l-.165-4.73q-.33-3.796-.22-5.28l-7.15-8.966q-2.64-3.19-4.455-9.955-1.65-6.05-2.035-12.32-.715-13.255 5.39-22.935"/><path fill="#b9c3c9" d="M268.401 538.178q-9.295-9.57-12.375-10.945-4.895-2.2-18.04-2.53-3.135-.11-4.785-2.365-1.54-2.145-1.265-5.445.605-6.325 3.96-13.86 3.08-6.93 6.325-10.45-3.245 6.545-5.06 12.87-1.595 5.5-1.76 9.68-.055 2.145 1.32 3.41 1.32 1.265 3.74 1.375 11.055.495 16.005 3.575 5.885 3.63 9.24 7.37 3.465 3.905 5.72 9.68-1.044-.385-3.025-2.365"/><path fill="#dcdddd" d="m268.291 520.138-1.595-4.565 1.815-1.76q6.546 4.84 11.276 9.515 5.39 5.225 10.615 12.265-.165.055-7.205-3.795-8.14-4.4-13.64-6.16l-1.266-5.5M414.372 493.353q5.005 2.255 12.98 7.865 7.81 5.445 12.76 10.12-7.315-3.465-26.125-10.78-1.76-.66-1.705-2.255 0-1.76 2.09-4.95M218.296 527.893q-1.595 1.815-5.61 7.92l-1.87 2.64q-.77 1.045-1.265.99-.495-21.175 17.05-26.565.825 4.62.385 7.425-.495 2.805-2.2 3.3-3.52.935-6.49 4.29"/><path fill="#898885" d="m226.931 512.163 2.53.825 3.025-.165q-.825 2.2-.715 4.895.165 3.135 1.595 5.115-4.51.77-7.205 0 1.485-3.85.77-10.67M270.932 476.083q-1.21 6.435-5.226 9.075-2.31 2.475-6.38 5.445-3.685 2.75-6.71 4.4 8.085-14.685 12.87-24.2l6.05-3.74q0 6.05-.604 9.02M238.591 478.943q-4.84 8.195-10.945 13.915 1.1-8.14.825-16.39l-.275-4.455q-.11-2.53.605-4.345.77-1.87 8.8-7.535l7.865-5.225-.44 4.73q-.605 5.39-1.65 8.47-2.145 6.545-4.785 10.835"/><path fill="#b9c3c9" d="M464.918 307.562q2.86 3.795 11.77 4.84 9.405 1.045 19.965-1.65-22.055 13.585-30.91 19.525-5.17 3.465-6.49 9.185l-3.135 15.4q-.33 2.365-2.09.88-8.25-7.26-11.55-10.505 2.474-4.565 4.29-10.78 1.87-6.435 1.924-10.945 4.566-2.585 7.976-5.72 3.795-3.52 5.17-6.875 1.595-1.155 3.08-3.355M418.937 266.146q4.18 4.95 7.04 10.34l-10.505 6.436q-6.655 4.18-8.745 6.16-5.94 5.83-7.315 17.27-1.155 10.065.825 29.81.165 1.87-1.65 1.54-2.64-.33-4.235-3.135-6.875-12.43-21.12-23.155-12.98-9.9-24.585-12.98l1.155-2.035q11-2.97 23.925-7.81 15.015-5.665 16.445-8.25 4.235-7.315 7.755-18.04 4.62-13.806 1.65-17.876l9.13 9.075q5.225 5.225 7.92 9.405l2.31 3.245M320.157 258.556l7.645 4.62-4.4 5.775h-2.255q.11-6.215-.99-10.395"/><path fill="#b5b5b6" d="M513.428 186.946q-19.635 2.915-51.755 13.09-34.926 11-51.92 20.79l-3.63-2.31q15.234-9.185 51.755-20.68 36.355-11.44 54.34-12.815l1.21 1.925"/><path fill="#b9c3c9" d="M473.443 330.827q-.33 2.09.11 2.64l3.795 5.39q2.585 4.015 3.85 6.655-.88 7.81-3.08 17.38-.715.165-2.695 1.32l-2.805 1.54-3.63-22.88q-.44-2.035-2.09-2.035l-8.085-.385q1.045-4.29 3.795-7.315 3.3-3.63 10.945-7.975v3.025l-.11 2.64M444.512 360.307q-2.915-4.73-5.61-7.26l3.85-7.81q4.73 5.06 8.966 8.525l2.2 12.265q-2.64-.055-5.5-1.925-2.586-1.65-3.906-3.795M452.213 373.782q.385-1.65.99-2.53.495-.825 1.485-1.32 1.76 11.99 2.365 13.53.77 1.76 3.795 5.225 2.97 3.41 3.905 3.685.99.275 3.685 0 2.695-.275 3.3-.715.935-.605 1.65-2.31.715-1.705.935-3.795 13.035 19.14 25.63 56.375-3.08.825-3.63 2.97-1.045 4.29-4.345 11-3.025 6.16-6.105 10.78-1.595 2.366 1.155 2.036l9.185-1.65q6.05-1.32 9.13-2.475 2.365-.825 3.96-2.97 1.54-1.98 2.86-5.83.44 4.95 4.125 15.62-.77-.495-1.705-.77l-1.54-.605q-.935-.385-1.87 0-.99.44-1.595 1.705l-2.585 4.84q-2.145 3.96-2.86 5.665-.825 1.87-2.09 2.695l-2.75 1.155q-9.405-1.705-19.085-18.48-.935-1.54-.935-3.3 0-.935.385-3.19l1.265-8.91q.495-3.63-.715-7.206-1.155-3.41-7.535-15.73 2.805-5.115 1.65-11.825-1.265-7.205-6.6-12.045-7.7-6.93-18.81-13.475-1.706-4.51 0-9.24 2.75-6.6 3.3-8.91"/><path fill="#b9c3c9" d="M460.628 464.533q5.83 6.545 12.43 9.57 2.09.935 4.895.715 2.75-.275 5.72-1.595 1.595 2.805 3.795 5.39 2.475 2.915 4.675 4.4-1.32 1.87-5.335 2.805-7.04 1.595-13.475 1.76-2.64.055-3.795-2.31-7.865-16.225-8.91-20.735M494.343 467.503q-7.535 1.485-9.185.66 17.49-4.95 20.295-7.205.935-.715 4.345-7.975 3.795-8.086 5.665-10.616 1.21.77 1.595 1.375.495.99-.275 2.585l-6.82 14.246q-.935 1.87-2.31 2.86-1.1.77-3.63 1.65-3.465 1.21-9.68 2.42M520.083 487.908q-3.245 6.49-4.18 7.37-.935.935-5.115 1.98l-5.115.99q-1.43 0-8.69-2.53-8.085-2.86-11.275-5.005l11.55 2.31 8.195 1.54 4.675-.77q2.97-.715 3.63-1.32.935-.88 4.345-6.16 3.96-6.215 6.16-10.89.385 1.76-.55 4.73l-3.63 7.755"/><path fill="#fff" d="m327.032 247.391-2.035 2.75q-11.22-5.445-17.985-8.47-1.155-.495-.99-.88.165-.33 1.265 0 8.58 2.475 19.745 6.6M330.497 207.131q9.185 2.805 22.275 7.7l-2.145 3.135q-10.78-5.5-20.46-9.845-.935-.44-.825-.88l1.155-.11"/><path fill="#3f3b3a" d="m468.988 342.872 3.465 21.175 2.2 15.62q.055 2.475-.935 6.93-.935 4.345-1.65 5.005l-3.355.825q-2.805.33-3.96-.055-.825-.22-4.015-3.96-3.19-3.685-3.685-4.95-.385-1.045-2.53-13.53l-2.805-16.17 2.695 2.09q.55.44.99.33.495-.11.55-.935 1.32-9.68 2.86-14.795l4.62.165 3.465.22q1.155.11 1.595.605l.495 1.43"/><path fill="#0f141b" d="M512.603 185.736q-20.845 2.585-53.46 12.705-34.376 10.67-52.03 20.845l-2.31-1.87q17.764-10.065 53.02-20.845 33.495-10.23 53.79-12.595l.99 1.76M499.788 206.636q-24.53 6.16-37.4 11.44-19.636 8.03-30.416 19.855-.66.66-.715 1.32-.055.55.22 1.65 6.215 23.65 12.815 33.606l.385.33.385-.33q12.266-19.966 17.326-25.41 3.74-3.96 20.35-10.89 8.745-3.63 21.78-8.69l1.21 1.98q-12.43 4.894-21.395 8.69-17.05 7.26-20.13 10.504-5.445 5.72-17.93 26.29-.77 1.21-1.32 1.266-.66 0-1.65-1.43-4.07-6.05-7.976-16.556-3.3-8.965-5.72-18.865-.385-1.65-.275-2.695.165-1.155 1.045-2.09 10.725-11.77 30.47-19.8 12.43-5.115 37.51-11.55l1.43 1.375"/><path fill="#0f141b" d="M464.148 271.262q1.1 2.585 2.255 15.785 1.155 13.475.495 17.765-.495 3.355-2.75 5.555-2.255 2.2-5.06 2.2-6.655 0-14.3-8.305l-1.046-.605-2.2.22q-12.76 2.805-22 1.705-10.56-1.265-18.37-7.7l.66-2.145q7.535 6.16 16.225 7.645 8.8 1.485 23.21-1.1l2.97-.22q.935.11 1.65.99 2.86 3.135 6.326 5.225 3.74 2.255 6.765 2.31 1.98.055 3.685-1.595 1.815-1.76 2.31-4.51.715-3.74-.66-17.105-1.265-12.98-2.31-15.29-.44-1.1-2.695-3.74l-5.39-5.61 1.045-1.596q8.03 7.535 9.185 10.12"/><path fill="#0f141b" d="M448.307 322.467q6.766-3.63 12.706-11.495l4.07-2.42q-6.765 11.275-16.61 16.225l-.166-2.31M399.302 305.417q4.895 5.335 10.945 9.625 7.205 5.06 11.44 5.06 1.98 0 8.635-5.445 7.15-5.885 11.495-11.715l2.475.165q-3.685 5.335-11.495 11.935-7.92 6.71-10.67 6.71-5.115 0-12.21-4.73-5.445-3.685-10.89-9.295l.275-2.31"/><path fill="#0f141b" d="M449.902 319.552q.88 13.53-8.47 31.185-9.625 18.315-26.73 34.155-18.865 17.435-42.02 27.17-26.235 11-54.395 10.395l.055-2.75q27.885.385 53.57-10.23 22.77-9.46 41.195-26.29 16.665-15.18 26.235-32.945 9.185-17.05 8.745-30.47-.11-2.97-1.43-7.205-1.485-4.84-3.96-9.405l1.76-.22q1.925 3.575 3.575 8.47 1.65 5.06 1.87 8.14M377.467 186.396q.715.22 1.32 1.54 7.7 15.675 16.83 21.615 12.1 7.81 20.13 15.95 8.03 8.085 10.065 14.465.55 1.65.99 13.915.495 12.1.385 21.23 0 1.87-1.65 2.916l-6.05 3.465-5.995 3.575q-10.615 6.875-12.705 17.875-1.54 7.975.22 33.66.11 1.265-.22 1.65-.385.44-1.43.44-1.65 0-3.08-.77-1.43-.825-2.145-2.09-6.655-12.485-19.305-22.275-11.935-9.24-26.4-14.135l.495-1.925q15.29 5.335 27.06 14.52 12.43 9.735 19.58 22.77 1.21 2.255 3.74 2.255l.22-.33q-2.31-25.465-.77-33.88 2.2-12.155 13.805-19.415 2.035-1.265 5.94-3.52l5.94-3.575q.66-.44.66-1.65l-.385-20.956q-.495-11.715-.935-13.145-1.98-6.105-9.735-13.805-7.7-7.7-19.635-15.455-5.72-3.74-11.165-11.99-2.585-3.96-5.94-10.67-.33-.66-.99-.33-1.485.715-3.465 1.21l-.55.33q-.11.165.11.605 3.135 7.425 3.355 12.65.22 8.69 3.905 17.38.495 1.155.11 1.43-.385.22-1.155-.77-13.585-18.04-19.195-24.475-.385-.385-.935 0l-3.795 2.365q-.77.44-.715 1.705l.33 6.105q.165 4.015-.11 6.545-.165 1.43-1.54 3.575-3.85 5.995-11.275 14.52-9.845 11.165-20.185 25.3-.44.55-.11 1.485l.825 4.51.33 5.83-1.76-.11q.055-2.64-.33-5.39-.385-2.64-.99-4.125-.44-1.265-.385-1.925.055-.715.77-1.595 9.79-13.31 20.35-25.3 7.04-8.085 11-14.355 1.155-1.76 1.265-2.75.495-4.675 0-12.32-.165-2.31 1.375-3.19l4.345-2.585q1.375-.99 2.75.55 6.105 7.04 15.675 20.295-1.21-3.355-1.65-6.16-.44-2.585-.55-6.325-.165-4.455-3.135-12.375-.55-1.43-.385-1.98.22-.605 1.54-.935l3.685-1.32q1.045-.55 1.65-.33"/><path fill="#0f141b" d="M321.367 203.226q7.48 10.395 20.845 25.96l-1.32 1.54q-5.005-5.775-11.055-13.53-5.995-7.645-9.79-13.035-3.74-5.225 2.145-3.85 14.795 3.74 31.295 9.79v2.255q-20.295-7.59-31.625-10.56-1.815-.44-.495 1.43M321.037 264.771q-14.575-15.18-24.145-27.115-1.76-2.31-1.32-3.19l3.245-.11q9.735 2.64 31.46 9.35l-1.54 1.705q-14.905-5.225-30.305-9.57-1.045-.385-.165.66 5.445 6.93 11.99 14.025l10.945 11.495-.165 2.75"/><path fill="#0f141b" d="m327.472 263.946-6.71-4.07-.55-2.31 8.195 4.95-.935 1.43M353.597 236.116q0-4.95-.385-5.72-.66-1.1-6.82-6.16l.88-1.43q6.71 5.445 7.48 6.765.495.88.495 5.61l-1.65.935M419.762 266.256q3.3 3.19 6.435 8.636l-.77 2.42q-3.19-6.27-6.49-10.506-.935-1.21-.605-1.43.33-.22 1.43.88M387.477 138.656q-6.215 44.715-6.985 54.395l-1.705-2.805q.715-8.305 6.82-51.865l1.87.275"/><path fill="#0f141b" d="M388.357 93.446q17.71 20.79 22.77 33.11 2.09 5.06 4.29 15.18 2.035 9.57 3.025 18.315.275 2.75-.495 3.135-.77.44-2.86-1.595-6.27-6.27-19.47-18.15-2.255-2.035-6.16-3.355-3.465-1.1-7.425-1.43-1.54-.11-1.54-.605 0-.55 1.595-.66 4.18-.33 8.25.88t6.6 3.575q12.375 11.33 19.25 18.59.825.825.66-.22-1.21-7.755-3.52-17.38-2.53-10.615-4.565-15.455-2.365-5.665-8.91-15.73-5.995-9.13-12.485-17.435-1.045-1.32-.55-1.705.44-.33 1.54.935"/><path fill="#0f141b" d="M358.767 4.345 342.652 1.76q-.66-.055-.495.605 2.805 10.725 4.4 33.165 1.595 22.77.55 38.72-.385 6.49-4.07.935-8.965-13.64-23.045-33.935-15.73-22.715-22.22-30.965-.495-.605-.99-.715l-1.265.165q-7.975 3.355-16.5 7.37l-.55.44.22.825 18.59 36.795 19.14 38.776q.99 2.035.33 2.64-.55.55-2.805 0l-31.295-8.086-27.94-7.315-.66-.055v.605q5.5 19.14 6.764 25.356.165.88.44 1.21.33.385 1.1.66l28.766 10.56q19.305 7.315 28.215 11.825l.055 2.255q-13.75-7.04-57.696-22.935-1.21-.44-1.815-1.155-.605-.715-.935-2.2-1.375-7.04-6.6-25.08-.55-1.87.275-2.64l2.695-.166 27.776 7.535 31.24 8.14h.77l-.055-.494q-4.62-9.736-19.36-38.72l-18.865-36.74q-.66-1.266-.44-2.09.22-.99 1.595-1.596l16.885-7.535q1.54-.605 2.475-.385.935.22 1.98 1.595 6.38 8.085 22.165 31.02 13.2 19.305 22.88 34.1.715 1.045.935 1.045.22-.055.275-1.155.99-15.785-.66-38.445-1.595-22.22-4.345-32.89-.88-3.3 2.365-2.75l16.06 2.53q1.155.165 1.87.825.55.495 1.155 1.705l9.9 19.085 9.405 17.38q1.76 3.19 2.145 7.315.825 8.03 2.97 22.33 2.035 13.805 4.07 25.41l-2.475-2.254q-5.225-30.14-6.82-45.43-.33-3.41-2.035-6.38-2.97-5.336-18.645-36.521-.77-1.595-1.76-1.705"/><path fill="#0f141b" d="M357.172 196.571q-3.19-4.07-5.5-9.68-.77-1.98-1.87-3.08-.99-.99-2.915-1.87l-10.505-4.345q-8.03-3.3-10.835-4.785-1.32-.66-1.925-1.54-.715-1.045-1.045-2.97-2.805-18.865-4.015-38.17-.11-1.76.44-1.815.55-.055.77 1.705 1.76 15.455 5.115 37.675.22 1.54.66 2.31.385.605 1.1.99 5.445 2.86 21.065 9.02 4.235 1.65 5.885 5.775 1.815 4.62 5.61 9.845l-2.035.935M380.107 134.366q-2.09-7.48-2.09-14.795 0-1.43.55-1.485.605 0 .715 1.43.33 5.005 2.035 14.63.275 1.54-.275 1.595-.495.11-.935-1.375M385.827 100.046q-4.29 9.46-6.16 15.29-.55 1.595-1.1 1.43-.495-.11-.11-1.76 1.98-7.755 6.215-15.51.77-1.375 1.265-1.1.495.22-.11 1.65M380.492 73.81l2.75 18.26q.275 1.76-.275 1.87-.55.056-.935-1.65-2.145-9.075-2.75-18.315-.11-1.705.44-1.76.55-.11.77 1.595M379.062 51.425l.055 8.03q-.055 1.76-.66 1.76-.55 0-.55-1.76l-.495-8.03-.77-5.335-2.145-4.4-3.685-6.215q-.935-1.485-.44-1.76.44-.33 1.485 1.1 1.98 2.53 4.015 5.885 2.035 3.355 2.475 4.785.44 1.54.715 5.94M325.327 17.6l-19.525 2.31-.99-1.54 19.965-2.53 18.975-1.65.165 1.76-18.59 1.65M285.012 32.45q-15.016 39.765-18.7 51.15l-1.76-.385q2.914-9.13 8.745-24.915 5.555-15.07 10.67-27.995l1.045 2.145M478.118 261.691q9.295 8.25 10.505 10.616 1.43 2.695 4.785 16.5 3.355 14.08 4.125 20.9.275 2.145-1.98 3.41-6.49 3.63-16.445 9.9-10.12 6.325-13.42 8.855-1.98 1.595-3.025 2.86-1.54 1.98-2.365 4.785l-1.925 7.26q-.66 2.915-1.595 8.525-.275 1.815-1.1 2.035-.715.22-2.09-.88-6.05-4.73-11.66-10.505l1.044-2.035q5.885 6.655 11.496 11.165l.495.22.22-.55q1.815-10.725 3.08-15.675 1.265-5.28 6.105-9.075 3.08-2.365 13.75-8.91l16.335-9.79.825-.715.11-1.045q-.77-6.93-4.235-20.625-3.3-12.98-4.675-15.565-1.1-2.145-9.845-9.9-8.03-7.206-14.52-12.21l1.54-1.816q6.545 5.115 14.465 12.265"/><path fill="#0f141b" d="M459.308 254.706q10.395 7.205 18.37 17.05 1.21 1.486.77 1.816-.385.275-1.705-1.045l-8.525-8.25q-4.18-3.796-9.735-8.086l.825-1.485M445.667 291.612q-.11 1.76-.66 1.705-.605-.11-.55-1.76.165-8.635-.495-15.235l1.87-.22q.385 8.8-.165 15.51M480.758 276.927q6.05 15.95 13.035 30.03.77 1.54.22 1.76-.495.22-1.375-1.21-4.785-8.25-7.37-14.3-2.31-5.39-5.665-15.84-.55-1.705 0-1.87.495-.22 1.155 1.43M474.433 324.557l-.385 5.445q-.055 1.54-.605 1.54-.55 0-.66-1.54v-4.345l1.65-1.1M478.008 341.222q-1.925-3.355-4.51-6.875-.825-1.155-.385-1.485.44-.33 1.375.77 2.42 2.915 4.565 6.93.88 1.54.33 1.815-.495.33-1.375-1.155"/><path fill="#0f141b" d="M481.033 320.652q-1.21 6.16-1.21 7.7 0 1.32.44 2.475l1.595 3.905q.88 2.365.935 3.575.165 3.3-.99 11.495-1.265 8.635-2.805 13.475l-1.925-.275q1.485-4.455 2.695-13.31 1.1-8.195.935-11.165-.055-1.595-2.365-7.04-.66-1.54-.66-3.135 0-1.43.99-6.545l2.365-1.155M229.736 478.118q-.055 10.23-1.045 14.08l-2.2 1.98q1.045-4.73.55-15.73-.44-10.175.275-11.88 1.1-2.695 8.635-7.81l9.24-5.775.055 2.805q-3.08 1.98-8.36 6.05-6.16 4.73-6.765 5.995-.385.715-.385 10.285M379.502 315.427q.385 16.995 1.76 25.355.11.715.385.88l1.265.11q12.375-.66 25.355-2.805 14.63-2.42 21.395-5.5l.825-.165.495.495q2.31 5.17 2.695 13.75.275 8.25-1.32 15.07l-2.695 2.42q1.87-6.215 2.09-14.63.165-9.02-1.87-14.63l-.22-.33-.44.055q-7.755 3.245-21.01 5.555-13.09 2.31-25.3 2.64l-2.585-.385q-.66-.385-.88-2.035-1.815-11.385-2.035-27.61l2.09 1.76"/><path fill="#0f141b" d="M381.812 342.707q-8.36 11.77-26.73 23.1-20.405 12.54-37.84 13.97l-1.045-1.76q16.115-1.1 36.85-13.695 18.81-11.495 27.335-22.99l1.43 1.375M247.116 445.942q1.595 35.476-26.675 54.396-.935.66-.88 2.475l-1.925.88q-.385-3.85 1.54-5.115 15.455-10.395 21.395-24.97 4.785-11.605 4.07-27.776l2.475.11M272.197 467.228q-6.82 4.95-12.376 6.765-1.375.495-1.65 0-.22-.495 1.21-1.155 5.995-2.585 10.175-5.995l2.64.385"/><path fill="#0f141b" d="m258.996 485.323-7.975 15.455-1.045-2.64q2.75-5.5 7.15-13.695l6.985-13.2 3.08-1.485-8.195 15.565"/><path fill="#0f141b" d="M268.126 484.553q-4.675 5.17-16.28 12.43l1.43-3.3q8.965-5.775 13.365-10.67 2.145-2.365 3.19-6.985.606-2.805 1.1-8.8h1.98q-.384 6.16-1.21 9.735-1.154 4.895-3.575 7.59M216.316 503.583q1.815-2.2 3.685-2.035 4.29.55 6.71 6.765 2.42 6.105 1.21 13.145-.385 2.64-3.245 3.245-1.595.33-2.475.935-1.1.605-2.53 2.2-3.905 4.29-8.305 11.055-.935 1.54-1.65 1.485-.77 0-1.705-1.485-3.795-5.885-3.41-15.73.33-9.68 4.125-12.595 4.675-3.63 7.59-6.985m1.595 1.32q-3.85 4.235-7.755 7.315-3.135 2.475-3.575 11.385-.385 9.185 2.86 14.465.33.495.715-.165 5.17-8.415 7.92-11.495 2.585-2.86 6.105-3.685l1.21-.55.495-1.21q1.045-5.94-.99-11.495-2.035-5.5-5.17-5.775-.66-.055-1.815 1.21"/><path fill="#0f141b" d="M269.171 539.993q-3.63-3.795-11.44-10.56-2.255-1.925-6.655-2.64l-11.99-.99q-4.4-.22-6.27-1.925-1.76-1.65-1.87-5.39-.165-7.095 3.96-16.06 4.18-9.185 9.955-13.86 1.485-1.21 2.255-1.1.825.11 1.43 1.76 1.155 2.97 2.42 8.8.935 4.235 3.19 6.05 1.925 1.595 4.125 1.045 3.74-1.045 5.61 1.815 5.885 8.525 8.746 31.735.275 2.365-.715 2.75-.99.33-2.75-1.43m-1.376-18.095q-2.42-9.405-5.5-13.805-.66-.99-1.43-1.155l-2.2.165q-3.245.825-5.665-1.155-2.75-2.255-3.795-7.645-1.32-6.6-2.035-8.525l-.44-.55q-.275 0-.935.55-5.28 4.565-9.13 13.365-3.85 8.635-3.74 15.345.11 2.75 1.54 3.905 1.375 1.1 4.73 1.265l11.99 1.155q4.95.935 7.645 3.08 5.665 4.675 11.33 11.055.99 1.045.826-.11-1.21-9.295-3.19-16.94"/><path fill="#0f141b" d="M276.982 507.928q-1.54-.165-4.455 2.86-2.53 2.585-5.17 6.435l-.77-2.585q2.364-3.41 5.115-5.885 3.355-3.025 5.5-2.86 3.025.33 7.59 8.8 4.895 9.075 6.38 18.865.385 2.31-.385 2.75-.715.385-2.75-.825-9.57-5.555-18.48-8.8l-.44-2.255q9.735 3.74 19.635 9.68l.66.275.055-.55q-1.375-9.295-6.215-18.04-4.18-7.59-6.27-7.865"/><path fill="#0f141b" d="M274.617 508.038q-5.556.66-10.066 2.035l-.825-1.87q3.08-.99 6.71-1.65l6.546-.66-2.365 2.145M234.191 523.548l-4.565.605-4.345-.385 1.375-1.65 6.27-.165 1.265 1.595M459.253 339.682l7.865.275q2.255.165 2.585 2.255 3.52 22.33 5.83 35.255.44 2.42-.055 5.72l-.605 3.355-1.265 4.675q-.33.825-.825 1.21-.605.44-1.65.495l-5.28.495q-1.76.11-2.915-1.155-3.52-3.63-5.83-6.82-1.1-1.54-1.375-3.63-1.54-11.165-5.17-28.82l2.145 1.485q3.135 15.29 4.73 27.06l.385 1.76.77 1.21q2.75 3.685 5.445 6.435l.77.66.99.11 5.005-.55q.825-.055 1.21-.99.66-1.705 1.595-7.205.44-2.97.055-5.225-1.265-6.71-5.72-35.035l-.275-.825-.605-.22-8.25-.275.44-1.705"/><path fill="#0f141b" d="m489.668 373.507 8.58 9.79 1.54 2.475.88 2.915q5.115 26.015 9.24 43.065.44 1.87-.11 1.98-.55.165-1.1-1.65-4.73-16.445-9.955-43.01l-.715-2.42-1.43-2.09q-4.565-5.72-17.93-20.185l-1.87.055-4.07 2.255-.33-1.98 3.465-1.98q2.365-1.595 4.07.275l9.735 10.505M472.123 391.822q3.52 7.26 6.105 17.545.44 1.705-.11 1.87-.605.165-1.045-1.54-2.97-9.68-6.49-17.545l1.54-.33M443.522 357.282q2.42 3.685 4.565 5.39 2.42 1.925 5.83 2.475l.22 1.925q-3.85-.33-6.93-2.695-2.53-2.035-5.225-6.105-2.035-3.025-4.07-4.675l.935-1.65q2.53 1.98 4.675 5.335M453.698 372.572q-2.31 7.26-3.74 10.23-1.21 2.64-.99 4.95.22 2.2 1.925 5.225l-2.806-1.21q-1.265-2.585-1.21-4.84 0-2.2 1.265-4.84 1.815-3.905 3.74-10.285.33-1.1 1.156-2.035.77-.88 1.485-1.21l.33 2.2q-.825.55-1.155 1.815"/><path fill="#0f141b" d="M432.852 379.777q.99 1.595 2.09 2.64 1.155 1.045 3.08 2.09 13.256 7.48 19.91 11.935 8.526 5.665 12.486 10.23 6.105 7.04 5.5 15.62-.605 8.69-7.81 13.2-6.875 4.235-17.545 7.535-11.55 3.52-21.286 3.85-1.43.055-1.485-.55 0-.55 1.43-.715 9.405-.825 20.57-4.455 10.67-3.465 17.216-7.535 5.775-3.63 6.435-11.11.66-7.755-4.895-14.135-4.015-4.62-12.045-10.12-7.096-4.84-19.526-11.825-3.96-2.255-5.885-5.39-2.805-4.51-4.84-10.505l1.705-2.145 2.365 6.435q1.1 2.695 2.53 4.95"/><path fill="#0f141b" d="M474.158 423.777q3.135 1.98 5.83 5.39.935 1.265.55 1.595-.44.33-1.485-.715-2.365-2.42-5.225-4.455l.33-1.815M518.103 446.052q-2.2 4.015-7.15 14.796-1.045 2.145-2.365 3.19-1.155.88-3.575 1.65-7.59 2.53-18.205 3.85-2.09.275-2.53-.55-.44-.825.77-2.64 6.6-9.515 10.45-22.11l.715-1.54 1.1-.77q5.5-2.42 11.44-2.256 6.105.165 8.91 3.135 1.375 1.485.44 3.245m-1.925-1.815q-2.365-2.475-7.755-2.585-5.115-.11-9.955 1.815-.715.33-1.045 1.485-1.54 5.5-4.455 11.606-3.355 6.985-6.71 10.78l-.33.495.66.11q9.735-1.265 17.875-4.015 2.035-.66 2.915-1.375.935-.77 1.76-2.53 3.52-7.59 7.095-14.466.44-.825-.055-1.32"/><path fill="#0f141b" d="M473.168 427.902q5.555 10.56 8.14 17.435.935 2.31.66 6.16-.33 4.29-1.375 9.46-.385 1.98-.165 3.52.33 1.76 1.595 4.126 4.73 8.415 9.13 12.265 4.4 3.96 9.9 4.51l-3.08 1.375q-4.895-1.21-9.13-5.335-4.125-4.07-8.525-11.935-1.43-2.585-1.76-4.675-.275-1.76.22-4.125.88-4.235 1.265-9.24.22-3.466-.55-5.446-2.31-6.325-7.26-15.95l.935-2.145"/><path fill="#0f141b" d="M486.918 435.327q5.225 3.3 10.34 7.48l-.715 1.705q-5.94-5.005-10.45-7.645-.44-.275-.495.275-1.595 9.075-4.235 12.54l-.605-2.42q1.815-3.41 3.135-10.505.275-1.54.935-1.87.715-.385 2.09.44M504.573 483.343q-1.21 2.2-3.52 3.08-6.49 2.53-14.025 4.29-.55.165 0 .44 4.345 1.815 10.78 3.85 6.49 2.09 7.92 2.09l5.445-.88q3.74-.935 4.29-1.705 1.65-2.255 4.455-8.195 2.585-5.61 3.52-8.635.385-1.045-.605-1.76-1.76-1.21-4.895-2.805-3.41-1.65-5.115-2.145-1.32-.33-1.76.44-2.2 3.52-6.49 11.935m4.62-12.98q1.265-1.98 4.07-1.265 1.925.495 5.61 2.31 3.355 1.65 5.06 2.805 2.145 1.54 1.485 3.905-.935 3.08-3.795 9.075-2.915 6.27-4.675 8.69-.825 1.155-5.335 2.31l-5.885.99q-1.98 0-8.745-2.31-6.985-2.365-11.495-4.675-1.43-.715-1.485-1.43 0-.825 1.98-1.375 7.59-2.035 14.355-4.73 1.54-.605 2.475-2.255 4.95-9.735 6.38-12.045"/><path fill="#0f141b" d="M493.133 483.618q-1.265 1.87-4.4 2.805l-7.59 1.485-8.855.66q-1.87 0-2.695-1.375-6.545-12.32-9.9-21.725-.605-1.87-.165-2.31.44-.44 2.255.385 6.655 3.19 12.98 5.94l3.135.385q1.375-.385 2.805-1.925l.99 2.035q-3.3 3.245-7.48 1.43-3.795-1.595-12.485-6.105-.495-.33-.33.22 4.18 10.175 9.79 20.295.33.66 1.375.715l8.415-.66 7.205-1.375q2.145-.605 3.3-2.145l1.65 1.265M520.578 459.088q1.925 7.315 3.96 11.935.825 1.925.99 3.74.165 1.87-.495 2.75l-1.65-2.09q.165-1.265-.88-3.685-1.925-4.345-3.63-11.165-1.705-6.6-2.64-13.09l1.485-2.2q.88 6.325 2.86 13.805"/><path fill="#0f141b" d="M516.948 426.197q.495 5.005 1.815 13.64.77 4.62-1.045 5.72l-.99-1.98q.33-1.045-.055-3.52-.935-6.38-1.705-13.64l-.715-4.07q-.44-1.32-1.485-2.86-4.51-6.875-10.945-19.69l-.55-4.895q2.805 5.5 6.82 12.54 4.4 7.81 6.545 11 1.21 1.815 1.705 3.575l.605 4.18M380.767 406.892q2.365 10.065 14.19 21.395l7.92 7.535q3.63 3.63 4.015 5.885l-1.485 1.485q-.605-2.585-4.4-6.105l-8.14-7.04q-11.88-10.615-14.74-22.055l2.64-1.1M408.212 388.357q13.53 5.225 23.65 15.015 10.065 9.845 10.065 17.82 0 7.7-10.175 13.145l-8.525 4.18q-4.95 2.475-7.15 4.62l-.11-1.705q2.09-2.42 6.545-4.84 2.53-1.375 7.92-3.96 9.46-4.95 9.46-11.55 0-7.26-11.385-17.49-10.89-9.79-21.67-13.53l1.375-1.705M251.186 373.232q10.78-2.695 15.345 16.83 3.795 16.445 1.595 36.41-1.21 11.275-6.49 15.84-4.73 4.125-15.345 4.62-2.145.11-2.145-.825.055-.88 2.145-1.1 10.065-.99 14.025-4.84 4.125-3.96 5.115-13.86 2.255-22.99-1.925-37.51-4.62-16.225-15.29-12.98l2.97-2.585"/><path fill="#0f141b" d="M415.087 443.632q-.11-2.75-1.265-3.41-1.045-.605-3.245.55-3.63 1.98-8.91 6.38-5.39 4.51-6.985 7.04-1.155 1.87-1.43 7.646-.165 4.29.165 8.965.22 2.2 1.045 2.475.66.22 2.805-.935 3.96-2.2 8.25-5.83 4.51-3.85 6.105-6.6 1.925-3.3 2.805-8.195.825-4.126.66-8.086m1.98-.22q.33 11-3.575 17.6-1.65 2.916-6.38 6.876-4.565 3.795-9.075 6.215-3.355 1.815-4.84 1.045-1.43-.715-1.705-4.125-1.1-14.19 1.32-17.985 2.145-3.356 7.59-7.7 5.115-4.07 9.515-6.326 6.93-3.52 7.15 4.4M454.193 506.443q-10.286-6.27-23.21-8.305l-1.32-2.255q14.024 1.87 25.355 9.295.715.495.66-.22-.275-4.4-5.446-11.055-4.4-5.61-11-11.33-1.155-.99-2.365-1.155-1.265-.165-3.245.495-5.555 1.98-10.01-.605-4.4-2.53-3.025-6.545 1.43-4.4 5.115-9.625l.165-.44-.66-.11q-3.685.165-9.735 5.995-5.995 5.83-8.69 11.77-.605 1.32-.385 1.87.22.55 1.375.88l8.69 1.375q1.925.11 3.245 1.155 1.375.99 1.705 2.75l-1.705-.22q-.77-1.815-3.355-2.035-5.83-.495-9.13-1.43-1.925-.55-2.42-1.705-.495-1.155.44-3.245 2.695-5.94 9.075-12.1 6.6-6.38 10.835-6.6 3.74-.165 1.815 2.805-2.805 4.235-4.62 9.405-1.155 3.135 2.64 4.675 3.685 1.595 8.195 0 2.42-.88 4.015-.605 1.54.22 3.3 1.705 6.6 5.61 11.33 12.045 5.226 7.04 5.556 11.825.11 2.035-.66 2.365-.715.275-2.53-.825"/><path fill="#0f141b" d="M425.592 463.818q2.86-4.84 6.82-10.01 3.96-5.17 7.7-9.076l3.245-.385q-3.96 3.85-8.415 9.516-4.565 5.775-7.59 11l-1.76-1.045M452.763 486.313q1.925 1.1 4.235 6.215 1.925 4.29 2.53 7.37.385 1.595-.22 1.98-.605.33-1.925-.55-1.21-.825-2.53-1.155l-.77-1.925q1.54.22 3.52 1.54.385.22.22-.11-.77-3.08-2.585-6.765-1.98-4.015-3.465-4.84-2.64-1.485-7.59-1.87l-1.486-2.09 6.105.825q2.64.605 3.96 1.375M420.477 488.898q2.53.33 5.39 2.255 2.75 1.815 7.205 7.645 3.905 5.06 7.205 10.56 1.21 2.035.77 2.64-.44.605-2.64-.385l-12.265-5.115-13.09-5.115-1.815-1.1q-.385-.55-.165-1.815.825-5.335 5.17-8.58 1.705-1.265 4.235-.99m4.4 4.07q-4.95-3.245-7.48-1.43-1.65 1.21-2.86 3.19-1.21 1.925-1.43 3.63-.165.715.605.99l12.43 5.005q7.92 3.355 12.21 5.5.33.165.11-.22-3.08-4.895-6.875-9.68-4.345-5.39-6.71-6.985"/><path fill="#0f141b" d="M392.977 473.278q-3.63 3.19-5.005 6.875-1.32 3.63-.715 8.47.22 1.375 1.1 2.09.88.66 3.135 1.265 8.03 2.035 20.68 6.545l.66 2.31q-11.605-4.125-21.835-6.71-2.585-.66-4.125-2.035-1.54-1.43-1.815-3.245-.66-5.225 1.32-9.9 1.925-4.565 6.105-8.085l.495 2.42"/><path fill="#0f141b" d="M374.387 486.368q6.765 1.43 12.65 4.015l1.76 2.86q-7.37-3.355-14.85-5.39-3.41-.99-.715-3.135 5.17-4.235 14.63-7.205l-.55 2.09q-8.965 2.75-13.09 6.38-.33.22.165.385M399.357 426.802q4.895 5.39 6.435 7.755 2.53 3.96 1.65 6.93-.055.275-1.155.44-1.1.165-.935-.165 1.265-2.42-1.1-6.16-1.485-2.255-6.27-7.535-6.38-6.985-8.745-10.835-4.015-6.545-3.355-12.485.055-.22 1.43-.99 1.32-.715 1.265-.385-.935 5.72 2.585 12.375 2.64 4.95 8.195 11.055M403.427 250.636q-5.225-6.875-10.56-11.77-1.925-1.76-1.155-2.53.77-.77 2.75 1.1 5.665 5.61 10.67 12.485 5.445 7.535 8.415 14.465.77 1.76.33 1.925-.44.22-1.32-1.485-3.74-7.095-9.13-14.19M241.231 382.912q8.855-12.65 18.645-17.545 10.175-5.06 24.31-5.555 11-.44 16.5 1.485 5.17 3.63 10.56 9.13 5.446 5.555 7.426 9.35 2.64 5.115 1.595 30.745-.99 25.025-3.63 31.68-2.475 6.215-20.735 16.39-17.6 9.79-24.31 9.79-2.75 0-7.81-3.464-4.84-3.355-8.47-7.535-2.806-2.915-2.31-3.575.55-.66 3.684 2.365 3.685 3.96 7.92 6.875 4.51 3.08 6.986 3.08 6.325 0 23.155-9.46 17.38-9.846 19.525-15.676 2.2-5.94 3.355-30.305 1.155-25.245-1.265-29.92-1.925-3.575-6.765-8.745-4.95-5.225-9.79-8.745-2.64-1.925-15.4-1.1-14.41.88-23.43 5.39-9.406 4.73-17.766 16.775-8.195 11.77-9.625 22.22-1.43 10.395 1.485 20.295 3.465 11.77 12.1 18.755.275.22-.55 1.21l-.935.825q-9.02-7.315-12.87-19.91-3.245-10.835-1.815-21.725 1.485-10.67 10.23-23.1"/><path fill="#0f141b" d="M345.677 322.082q-11.33 9.79-31.625 21.835-18.315 10.835-32.835 17.215h-3.52l-3.08-.165q15.18-6.6 34.815-17.82 22.715-12.98 33.825-22.55 2.2-3.355 4.565-10.78 2.365-7.315 2.365-10.505 0-.385 1.43.22 1.43.55 1.375.935-1.1 6.215-3.96 14.025-2.475 6.82-3.355 7.59"/><path fill="#dbe7ed" d="M550.388 107.196q.66-2.2 1.815.165 1.54 3.08 7.865 18.81l8.965 22.88q.605 1.705.44 15.895l-.55 23.65 4.95 8.085q.77 1.265.825 2.365l-.33 2.31q-2.255 9.46-6.765 34.21-.22 1.375-.715 1.54-.55.165-1.32-1.21-5.72-10.23-17.325-20.24-10.615-9.185-27.94-19.69-2.585-1.485-4.345-4.565l-6.49-10.23q-.66-.99-.44-1.43.165-.385 1.1-.385l5.335.55q-2.695-4.4-7.865-17.27-.605-1.375-.33-1.76.275-.385 1.76.275 3.245 1.43 10.395 7.425 5.94 5.005 10.23 9.35 1.265 1.265 3.905 2.145l5.39 1.65 7.37-24.145q-3.63-14.355-5.61-20.13-.44-1.32.055-1.705l1.375.11 5.225 3.19q.275-6.435-.33-21.34-.055-1.65.055-2.42.165-1.265.77-2.31 1.65-2.64 2.53-5.775"/><path fill="#ee869a" d="M539.663 238.921q-3.52-9.405-6.38-14.795l11.66-.77q1.32 3.465 2.2 9.02.99 6.545.385 11.22-3.74-1.87-7.865-4.675"/><path fill="#fff" d="m535.868 228.856-1.98-3.795 3.025-.55 2.145.11q.22.385-.935 1.87l-2.255 2.365M536.308 229.901q1.595-.77 3.355-1.21 1.98-.495 2.31 0 .33.44-.935 2.365-1.155 1.705-2.75 3.3l-1.98-4.455M538.783 235.731q5.61-3.245 6.16-2.475.33.44-.99 3.135-1.32 2.585-2.42 3.85l-1.43-.99-1.32-3.52M553.138 231.166q.22.495-1.815 2.42-2.09 1.925-3.52 2.64-.825-7.81-2.695-12.87l3.74.165q-.605 1.265-1.815 2.53 4.455 0 4.785.825.22.44-.715 1.65l-1.815 1.87q3.52-.22 3.85.77"/><path fill="#fdd23f" d="M543.788 218.131q-4.18.165-6.545-.055-1.375-3.025-4.015-13.42 10.45 6.82 17.435 12.925l-6.875.55"/><path fill="#fff" d="m540.983 209.881 5.5 4.29q-.44 2.035-2.255 4.125l-2.475-.055q-1.155-1.595-1.32-4.345-.11-2.42.55-4.015"/><path fill="#595857" d="M532.238 222.036q.935-6.985.66-16.5l2.42 7.645q1.54 4.675 1.925 4.895l5.115.22 7.865-.77 5.28 5.115-.605 1.045-10.945-.385q-7.425.165-10.34 1.21l-1.375-2.475M540.103 239.251q3.41 2.42 7.04 4.18 3.795 1.815 6.765 2.365-2.86 2.035-4.4 1.54l-3.245-.88-3.96-.935-2.2-6.27M521.788 239.471q3.465 1.32 6.93 4.785 1.155 1.155 3.575 1.155l5.995.055 5.445.495q-1.045 11.11-1.54 23.98-.055 1.266-.605 1.376-.495.11-1.155-1.046-7.535-12.925-18.645-30.8M539.718 174.351l-.77 7.37q-8.69-3.135-11.165-5.445l-9.845-8.69q-5.72-4.62-8.91-6.435-1.1-.66-1.54-.275-.44.44.11 1.76 2.145 5.83 7.865 17.27l-4.51-.605-4.895-5.72-5.06-5.555q-1.21-1.375-1.485-3.08-.165-1.155.11-3.575.44-3.41-1.265-7.15-3.575-7.48-7.81-17.38.88-1.265 2.695-2.53 1.76-1.21 3.3-1.54l11.275 14.245 9.57 11.55q1.375 1.265 5.83 2.42l5.665 1.045q1.485.165 2.035.495.55.33 1.32 1.485 4.84 7.26 7.48 10.34"/><path fill="#dbe7ed" d="M496.543 132.77q-4.015 1.32-5.995 4.07l-6.49-15.564q-.715-1.87.055-2.145.77-.33 1.815.935l10.615 12.705"/><path fill="#fdd23f" d="M541.808 149.71q6.71 11.606 12.925 23.761 7.92 15.455 8.36 19.25.165 1.54-1.21 7.865l-2.585 10.285-3.08-1.485q-1.76-1.32-2.42-3.465l-3.08-9.35q-2.475-7.04-3.575-9.295-1.045-2.09-3.08-3.41-1.21-.715-4.785-2.255.605-6.545.715-16.94l-.055-14.135q0-1.375.55-1.76.55-.44 1.32.935"/><path fill="#dbe7ed" d="M554.623 223.466h1.65q3.63 3.74 7.645 9.68l-4.84 14.08q-.495-4.84-1.815-11.77-1.265-7.04-2.64-11.99M493.188 213.786q1.98-3.685 4.565-7.37.715-1.045 1.43-1.43.88-.55 2.585-.77 3.19-.385 11-.22l1.815-.11 1.595-.88q3.135-2.2 9.295-3.52l7.26 4.675q.385 6.765-.44 17.325 6.82 15.675 9.515 22.605.66 1.54-1.32 1.375-4.62-.33-8.195-.055-2.145.275-3.575-1.155l-2.64-2.2-3.135-2.035q-1.155-.605-5.995-1.32l-8.47-.88-2.31-.44q-.605-.33-1.32-1.485l-11.77-18.645q-.88-1.485.11-3.465"/><path fill="#595857" d="M356.897 230.011q5.72-2.035 13.31-1.705 6.985.33 13.255 2.42 3.025.99 7.48 5.005 3.245 2.86 9.13 9.13 1.815 5.335-2.53 19.36-4.18 13.53-8.03 16.996-3.575 3.245-18.37 8.69-14.63 5.39-22.605 6.545l-40.535 35.695q-.33 2.31-.55 7.59-.33 4.62-1.815 6.71l-6.82 8.47-7.865 9.295-5.005 5.94-4.84 5.72q-1.98 2.255-7.315 21.285-5.006 17.71-5.666 22.66-.22 1.815.495 3.85l2.256 6.49 2.145 6.05 2.42 6.05q-5.336-3.08-8.14-4.84-5.006-3.025-7.426-5.335-3.575-3.41-7.095-10.56-3.52-7.095-3.08-10.065l4.29-30.195 3.3-24.255q.165-3.465-6.05-18.15-.495-1.21-1.705-1.705l-3.135.165q-4.125 1.815-5.06 2.475 12.155-17.05 22-24.86l1.21-6.875 20.736-22.22q15.785-17.38 21.395-21.066 1.98-1.32 5.665-2.585 4.18-1.43 7.425-1.65 8.635-9.9 18.095-18.04 11.33-9.735 19.03-12.485"/><path fill="#595857" d="M276.047 441.707q-3.795-7.865-6.27-15.51 11.495 4.015 17.6 15.51 4.785 9.076 5.775 21.616.11.88-.44 1.155t-1.265-.385q-4.62-4.015-9.185-6.215-6.325-3.08-10.89-1.65l2.53-5.5 2.145-4.786q.88-2.365 0-4.235M275.662 481.913q-8.47.77-15.236-2.145 2.585-6.215 9.35-20.735 4.07 5.995 9.626 10.175 5.28 4.015 11.385 5.885 1.705.55 1.815 1.21.165.715-1.32 1.375-7.92 3.575-15.62 4.235"/><path fill="#31363b" d="M304.042 296.672q3.685-4.29 7.095-6.655 3.41-2.365 8.14-3.96l5.115-1.375q5.06-1.43 14.465.275 9.515 1.76 11.825 4.675.825.99-1.045 5.94-2.31 6.27-7.645 13.09l-6.38 8.14q-5.17 5.995-9.515 8.415-5.115 2.86-9.35 4.345-4.07 1.375-9.13 2.145l.055-7.92q-.055-4.62.055-5.445.22-.99-2.42-3.905l-3.19-3.795q-.44-.88-1.98-1.76l-2.365-1.375 1.265-3.575q.77-2.145 1.375-2.805l3.63-4.455M319.332 259.656l-.495.55q-2.53.55-6.38 1.98-4.18 1.485-5.775 2.585l-7.92 7.426-14.96 15.07q-10.285 10.725-20.076 21.725.385-3.905 5.72-15.455 6.106-13.2 11.276-18.48 7.095-7.206 19.36-11.44 9.68-3.356 19.25-3.96M235.731 354.807q.11-3.355 1.21-6.82 1.32-4.125 3.905-7.535 3.19-1.87 6.82-3.355l1.54-.33q.77.11 1.32.99 3.575 6.105 6.325 15.95.55 2.09 0 5.995l-7.095 48.07q-.495 3.41.275 6.655.605 2.695 2.695 7.205 3.63 7.92 10.12 12.815 1.32.99 7.15 4.62 4.456 2.75 6.49 5.005l-6.93 15.896q-6.49 14.245-8.415 18.81l-1.21 1.595-1.87.055-13.64-3.96-12.87-4.18q-1.65-.605-2.86-1.925l-1.87-2.805q-2.53-4.345-4.51-14.08-1.87-9.35-1.76-15.786.11-5.775 1.485-8.69 7.15-15.455 8.8-21.23 1.265-4.455 3.025-24.64 1.595-18.48 1.87-28.325"/><path fill="#595857" d="m230.011 471.573 5.115 1.98 7.7 2.695 7.865 2.42q5.72 1.815 7.645 2.09-4.18 1.705-9.515 2.805l-8.745.495q-3.63-1.43-7.205-7.095l-2.86-5.39"/><path fill="#b9c3c9" d="M549.068 206.361q5.28 8.085 6.49 16.06-6.16-5.995-15.455-13.035-10.01-7.59-19.03-12.705-1.595-.88-2.805-2.145l-2.145-2.86-6.985-11.055q-.935-1.54.715-1.485l5.5.605q-2.31-4.125-5.06-10.56-3.025-6.875-3.135-8.69 2.64 2.97 5.555 7.975 2.75 2.75 5.83 6.6 2.75 3.465 4.235 5.885 1.65 2.695 4.62 9.57.825 1.87 1.375 2.475.715.715 2.585 1.485 3.905 1.65 13.31 7.48 2.64 1.65 4.4 4.4"/><path fill="#3f3b3a" d="m491.868 135.906 9.24 17.6q1.375 2.585 1.815 4.785.33 1.705.165 3.74-.165 1.265.88 2.365l8.085 8.525 3.3 6.82-3.85-.495q-8.25-8.25-10.89-11.77-.715-.99-.88-1.98-.165-.77 0-2.035.385-2.75.11-4.73-.275-2.145-1.485-4.29l-3.52-7.645-4.455-9.955 1.485-.935"/><path fill="#b9c3c9" d="M540.598 134.916q3.74 4.84 9.24 16.335 5.225 10.835 5.61 13.585.825 6.27.44 10.285l-4.895-8.965-4.18-7.975-4.015-14.025q-2.475-8.25-2.2-9.24M526.738 233.256q1.65.825 3.025 2.365l2.53 3.19 1.43 1.375 1.65.495 3.575 1.1q1.595.66 2.31 1.21l1.21 2.805q-1.76-.33-10.505-.22l-2.09-.44-1.595-1.21q-2.2-2.09-5.115-3.795-1.21-.605-5.61-1.32l-7.865-.88q-2.915-.11-4.07-.99l8.36-8.195q1.98.33 6.215 1.815 4.4 1.54 6.545 2.695"/><path fill="#dcdddd" d="m536.803 224.346 2.475.275-4.51 2.255-.825-2.035 2.86-.495M536.968 232.431l-.715-2.2q1.32-.77 2.86-1.21l2.805-.385q-2.64 1.76-4.95 3.795M539.993 238.316l-1.265-2.365q1.76-1.155 3.685-2.035 2.09-.99 2.86-.935l-5.28 5.335M546.923 229.021l-.66-2.585 2.915-.11 2.64.55-4.895 2.145M547.363 233.256l-.165-2.585 3.41-.11q1.87.11 2.695.605-3.63.88-5.94 2.09"/><path fill="#b9c3c9" d="m549.343 223.246 5.28.22q3.905 16.5 4.07 23.815l-3.685-7.975q-1.045-1.98-1.98-2.035-.55-.055-1.155-1.1-.55-1.045-.77-2.2l1.485-1.485q.825-.88.715-1.32-.275-.88-4.345-.77l1.925-1.76q1.045-1.21.935-1.76-.165-.825-4.84-.825l2.365-2.805"/><path fill="#933000" d="m547.803 235.841 2.2-.935q-.11 4.29 2.145 6.875l2.86 3.63q-3.3-.055-7.425-1.98.44-3.575.22-7.59"/><path fill="#cf7487" d="m536.363 229.901-.33-.935 2.035-2.42q1.155-1.54 1.045-1.925-.22-.77-1.815-1.1l7.425-.275q2.53 5.225 2.86 11.715-.99-2.365-2.64-3.63-1.54-1.1-3.355-1.155.77-.99.44-1.705l-2.31.165q-1.87.55-3.355 1.265"/><path fill="#3f3b3a" d="m534.548 245.301 7.37 26.62-9.24-15.07-10.945-17.27q.935.165 3.025 1.54 2.255 1.43 3.52 2.805 1.1 1.21 2.42 1.43l3.85-.055"/><path fill="#b5b5b6" d="m539.773 174.571-.385 3.96q-4.51-5.94-8.965-13.2-.605-.935-1.595-1.1-4.73-.99-9.845-2.695-1.98-.605-3.025-1.43l-2.145-2.365-8.03-10.615q-6.49-8.69-10.01-14.08 2.97 2.75 9.46 10.615l10.065 12.43q1.925 2.31 4.125 3.52 1.21.605 5.225 1.54l4.895.99 1.595.44 1.155 1.32q2.255 3.85 7.48 10.67"/><path fill="#b9c3c9" d="M520.248 201.136q3.3-1.32 5.665-1.43l7.04 4.455-.11 6.27q-5.94-5.94-12.595-9.295M562.983 194.811q1.76 18.37 1.98 27.335-2.86-9.79-5.61-10.835l1.925-7.92 1.705-8.58"/><path fill="#3f3b3a" d="M307.232 317.242q1.155 3.135.66 14.465t-1.87 13.75l-12.375 15.015q-11.44 13.475-12.54 15.4-2.145 3.96-7.315 21.67-5.336 18.205-5.39 22.495 0 5.335 6.82 20.185 1.65 3.52 1.155 4.785-1.32-2.31-3.135-3.905l-3.85-2.75-5.28-2.97q-3.19-1.705-4.676-3.245-1.76-1.815-3.41-4.455l-2.42-4.235q3.85.825 6.985-1.21 3.575-2.255 4.84-7.37l5.5-23.43q3.41-13.75 5.94-17.325 3.246-4.73 10.89-14.19 5.83-7.205 10.506-12.705 2.2-2.53 4.29-14.135 2.035-11.165 1.265-13.915-.715-2.585-2.42-6.05-1.815-3.63-3.52-5.885 2.75 1.815 5.555 4.785 3.025 3.135 3.795 5.225M274.122 450.287q5.61 1.486 10.67 5.226 5.775 4.29 8.085 9.68-4.62-4.51-10.23-7.15-6.655-3.135-11.385-1.815l2.86-5.94M278.027 481.858q-9.46 1.32-17.326-2.255l2.09-4.84q6.325 3.3 13.97 3.63 7.206.33 16.446-1.98-6.985 4.345-15.18 5.445M394.352 271.757q-3.135 7.81-5.06 9.295-4.18 3.245-18.535 8.745-14.74 5.665-22.22 6.655l1.76-3.63q.77-1.815.715-3.3 8.14-2.255 18.975-6.49 11.88-4.675 14.63-7.04 5.06-4.29 9.405-13.53 4.84-10.286 4.51-18.7 1.87 1.76 2.145 5.28.275 3.19-.88 6.874-2.805 9.24-5.445 15.84"/><path fill="#b5b5b6" d="M393.747 239.251q-7.315-5.39-17.6-6.875-9.02-1.32-16.005.77-12.76 3.85-42.295 29.81 12.595-15.015 24.915-24.31 12.54-9.46 21.285-10.395 10.065-1.045 18.315 2.145 7.81 3.025 11.385 8.855M312.402 262.186l6.435-2.145-1.375 2.805q-7.095 2.42-9.295 4.235-32.45 31.956-44.606 47.466l.33-5.555q8.03-9.515 24.75-26.675 15.676-16.06 18.206-17.766 1.045-.715 5.555-2.365M249.206 329.837q5.775-6.93 10.01-10.725-4.73 6.435-6.71 9.515-3.025 4.51-4.785 8.305-4.62 2.09-6.93 3.63 3.905-5.335 8.415-10.725"/><path fill="#222428" d="m267.356 464.918-4.07 9.185q-2.86 6.05-3.355 6.38-.55.385-5.995-.935l-9.185-2.585-9.68-3.96-5.885-2.695q4.675-.385 17.765-6.49 17.38-8.03 29.26-18.81l-8.855 19.91M342.817 302.062q7.425-8.03 7.975-10.945-.66 3.96-2.805 8.14-1.98 3.795-6.325 9.735l-3.74 5.28q-3.85 4.785-8.14 7.645-7.92 5.335-12.21 7.095-2.805 1.155-9.955 2.695l.55-5.115 4.455-1.43q6.16-2.695 14.63-8.965 7.81-5.72 15.565-14.135"/><path fill="#3f3b3a" d="m230.011 471.573 5.115 1.98 7.7 2.695 7.865 2.42q5.72 1.815 7.645 2.09-4.18 1.705-9.515 2.805l-8.745.495q-3.63-1.43-7.205-7.095l-2.86-5.39"/><path fill="#0f141b" d="m542.908 212.136 1.76 1.32-.825 1.32q-.495.55-.88.385-.385-.165-.385-1.155 0-.88.33-1.87"/><path fill="#0f141b" d="m549.343 216.921 2.2 1.925-8.69.44-5.61-.605q-.825-.44-2.09-3.52-1.43-3.3-2.31-7.15v-3.355l1.815 1.21q.88 3.905 1.98 7.205 1.1 3.3 1.65 3.795l4.07.33 6.985-.275M542.908 184.636q-3.795-1.76-11.495-4.73-2.31-.935-3.85-2.475-12.32-11.88-19.085-15.675l-.385-.11.055.385q4.18 9.955 9.955 21.395.88 1.76.275 2.035-.55.275-1.54-1.43-6.49-11.825-10.395-21.285-2.035-5.005 2.805-2.475 7.81 4.07 19.635 15.51 1.265 1.21 3.41 2.035 8.965 3.52 11.495 4.675 3.025 1.43 4.235 4.51l6.71 18.865q.495 1.375 1.32 2.2l2.42 1.595q1.76.88 2.53 1.65.88.825 1.54 2.365 1.43 3.08 2.31 6.435l1.54 7.15q.275 1.54-.055 1.65-.33.055-.77-1.375-2.035-7.535-4.565-13.31-.715-1.595-3.465-2.805l-2.915-1.815q-1.155-1.1-1.815-2.97l-6.875-18.92q-.44-1.21-1.1-1.87l-1.925-1.21"/><path fill="#0f141b" d="M522.173 180.621q-3.245-4.785-8.69-10.67-1.375-1.54-1.045-1.87.33-.33 1.815 1.1 4.455 4.18 8.58 10.89.88 1.485.605 1.705-.33.165-1.265-1.155M543.788 201.741q-6.325-3.63-14.575-7.26-1.43-.66-2.255-2.805l-.935-2.915-1.43-3.63q-.88-1.76-.44-1.925.44-.11 1.485 1.54l3.08 6.105q.715 1.54 1.815 2.09 7.37 3.63 13.695 7.92 1.76 1.155 1.485 1.485-.22.33-1.925-.605M549.618 206.306q2.585 3.575 4.84 10.395.55 1.65.22 1.705-.33.055-1.045-1.54-1.65-3.96-5.005-9.955-.77-1.32-.33-1.595.44-.275 1.32.99"/><path fill="#0f141b" d="M550.938 107.69q-1.045 3.356-2.64 6.546-.44.825-.33 2.97.715 13.805.55 23.155l-2.145-1.21q.11-13.585-.33-21.835-.22-2.365.66-4.015 1.54-2.86 2.64-6.435.715-2.2 1.705-2.2.99.055 1.98 2.365l10.45 24.695q6.27 15.345 6.71 17.325.33 1.54.11 15.4l-.385 23.98 5.225 8.305q1.21 2.09.605 4.4-1.925 7.535-4.015 17.27-2.2 10.395-3.355 17.325-.77 4.84-3.41.825-8.085-12.375-18.645-21.175-6.93-5.775-24.97-17.38l-3.685-2.805q-1.43-1.32-2.475-3.135l-6.875-10.945q-.825-1.32-.715-1.925.165-.66 1.54-.77l6.05.495.77 2.145-5.555-.935q-.66 0-.275.44l6.765 10.395q1.045 1.705 2.2 2.805l3.3 2.53q18.975 12.265 25.575 17.765 10.45 8.745 18.205 21.12.33.605.495-.11 3.795-23.1 6.655-34.375l.165-1.43-.44-1.32-5.115-8.855-.11-.33q.605-36.41 0-39.215-.385-1.815-6.985-18.48l-9.46-23.32q-.22-.55-.44-.055"/><path fill="#0f141b" d="M542.688 135.026q7.04 4.73 11.385 9.46 1.32 1.43 1.045 1.76-.275.385-1.705-.88-4.125-3.74-11.55-8.635-.66-.495-.385.22 5.005 14.355 7.315 25.575l-3.41-5.5q-2.2-8.745-5.555-19.58-.77-2.475.055-3.135.77-.605 2.805.715"/><path fill="#0f141b" d="M555.118 162.416q.605 1.705.22 1.925-.44.22-1.1-1.43-5.39-13.145-9.625-21.34-.77-1.54-.55-1.76.275-.22 1.155 1.265 5.39 8.305 9.9 21.34M555.668 175.066q.275-3.96-.165-7.7-.22-1.65.22-1.705.385 0 .605 1.595.77 5.335.33 10.065l-.99-2.255"/><path fill="#0f141b" d="M542.413 149.05q6.71 11.496 12.925 23.431 8.36 16.06 8.745 20.02.165 1.87-1.21 8.36l-2.695 11.11-1.705-1.155 2.42-10.45q1.32-6.38 1.155-7.7-.275-3.19-8.085-18.755-7.095-14.025-12.98-23.925-.33-.495-.33.11.88 18.15-.385 32.12l-1.98-.825q1.21-13.365.77-31.24-.055-2.585 1.045-2.915 1.045-.385 2.31 1.815"/><path fill="#0f141b" d="m539.993 173.416-.385 2.915q-3.685-5.005-8.03-11.77l-.99-1.21q-.44-.275-1.375-.385l-5.335-1.1-5.06-1.485q-2.035-.88-3.355-2.53-17.38-22.22-30.58-37.51-.22-.33-.385-.22-.165.11.055.55l8.03 18.535q5.225 11.935 7.48 16.335.825 1.815.825 4.07l-.275 4.51q-.165.935 0 1.43l.935 1.485q2.805 3.575 11.165 12.43l-2.695-.055q-6.325-6.6-10.12-11.22-1.045-1.21-1.265-2.09-.275-.825-.055-2.31l.33-4.125q0-1.815-.715-3.135-3.245-6.49-15.235-35.09-1.1-2.695.165-3.63 1.21-.88 2.915 1.155 10.78 12.705 30.855 37.62 1.045 1.265 2.585 1.98l4.895 1.43 5.17 1.1q1.43.165 2.145.66.66.44 1.43 1.65l6.875 10.01"/><path fill="#0f141b" d="M490.328 135.96q2.2-2.86 5.335-3.684l1.265 1.32q-1.65.275-3.355 1.485-1.54 1.1-2.53 2.53l-.715-1.65M533.723 204.766q.055 9.955-.55 16.61-.33 3.465-2.2 5.39l-1.265.935q-.33-.165.55-1.485 1.375-2.035 1.65-5.06l.22-7.48-.165-9.955 1.76 1.045M539.773 214.611q-.33-3.355.66-4.95l1.1.88q-.605 1.595-.44 3.905.11 2.64 1.21 3.19.99.44 2.2-.935 1.045-1.32 1.375-2.97l1.1.99q-.385 1.98-1.925 3.08-1.43 1.1-3.025.77-1.87-.385-2.255-3.96"/><path fill="#0f141b" d="M500.888 203.061q2.42-.165 12.705-.055 1.045 0 1.925-.605 4.07-2.915 9.295-3.465l1.98 1.76q-1.76-.275-4.785.66-3.135 1.045-5.61 2.805-1.155.825-2.75.825l-12.595.385q-1.265.055-1.925 1.045-1.705 2.31-5.445 8.525-.385.605.055 1.32 5.555 9.515 12.265 19.525.44.66 1.485.715l9.075 1.1q5.39.88 7.095 1.705 1.815.88 6.16 4.785.605.495 1.54.495 5.94-.22 9.735.055-4.125-10.89-9.13-21.23l.935-3.19q5.555 12.43 10.01 24.035.495 1.32.11 1.815-.385.495-1.65.385-3.63-.33-10.065 0-1.65 0-2.53-.825-3.795-3.465-5.885-4.51-1.485-.715-6.6-1.375l-9.075-.935q-1.98-.11-2.97-1.54-7.095-10.67-12.54-20.02-.605-1.045-.605-1.705-.055-.66.495-1.595 2.53-4.235 5.83-8.8 1.32-1.87 3.465-2.09"/><path fill="#0f141b" d="M520.688 215.271q2.42 2.97 5.555 5.665 1.485 1.21 1.155 1.595-.275.385-1.76-.605-6.27-4.235-10.89-13.365-.77-1.54-.33-1.76.44-.22 1.32 1.265 2.585 4.29 4.95 7.205M502.043 207.241q7.59 10.175 12.87 18.92.605.99.55 1.76-.055.715-.77 1.54l-6.38 5.555q-1.045.77-1.155.44-.11-.385.935-1.43l3.135-3.025 2.145-2.42q.495-.605.11-1.21l-5.775-9.625-6.435-9.68q-.99-1.375-.605-1.76.385-.44 1.375.935M533.338 238.701q.715.77 1.595.935 1.265.22 3.355 1.485.99.605.935.935l-1.155-.165q-1.54-.715-3.3-.88-1.485-.165-2.31-1.045l-2.585-2.915q-1.76-1.98-2.86-2.64-3.025-1.87-8.855-4.015-1.595-.605-1.54-.935l1.705.055q6.765 1.76 9.57 3.41 1.65.99 5.445 5.775M532.953 223.081q14.685-1.21 22.77-.275l1.815 2.035-11.44-.66q-7.095-.055-12.485.33l-.66-1.43M539.388 237.766q3.795 2.915 7.92 4.895 4.125 1.98 6.71 2.09l-2.42-2.64q-1.485-1.815-1.815-3.52l-.77-3.63 1.32-.825.99 4.18q.33 1.815 1.32 2.915l2.53 2.75q.88.935.715 1.65-.22.715-1.595.66-3.025-.165-6.93-1.87-3.96-1.76-7.37-4.455l-.605-2.2"/><path fill="#0f141b" d="M552.368 247.776q-.88.495-1.595.55l-1.815-.22-5.115-1.155-5.995-1.1 4.29-.88 7.205 1.375 1.375.165.88-.33 1.65-.77 2.255.66q-1.87.88-3.135 1.705M546.923 243.321q.44-4.895-.385-10.89-.88-6.16-2.53-8.91l1.65-.11q1.705 3.465 2.53 9.46.825 5.94.275 10.89l-1.54-.44"/><path fill="#0f141b" d="m546.978 230.726 2.695-1.98q1.54-1.265 1.485-1.595l-1.76-.22-3.19.275-.66-1.485q3.025-.33 5.005 0 1.65.275 1.87.88.275.495-.33 1.54-.77 1.32-2.53 2.585h-2.585"/><path fill="#0f141b" d="m545.713 226.106 2.915-2.805 1.155.165q-1.54 2.365-3.575 4.015l-.495-1.375M533.503 224.291l4.235-.495q1.595.055 1.87.66.275.715-.88 2.365-1.21 1.76-2.97 3.025l-.605-1.375 2.2-2.035q1.045-1.155.99-1.375l-1.595.055-2.64.66-.605-1.485"/><path fill="#0f141b" d="M541.698 231.056q-1.32 2.255-3.685 4.345l-.55-1.54 2.64-2.86 1.265-1.925-1.815.44q-1.87.605-3.355 1.375l-.605-1.375q2.695-1.32 4.84-1.485 1.65-.165 1.98.33.495.605-.715 2.695M544.448 233.806q-.275-.44-5.885 3.135l-.55-1.54q2.475-1.65 4.675-2.42l2.805-.11q.55.55-.22 2.64-.935 2.365-3.08 5.06l-1.32-.935 2.64-3.905.935-1.925M564.468 234.191l-3.96 11.605q-.605 2.035-1.32 2.145-.66.11-1.705-1.705l-1.76-3.52-1.65-3.52q-.495-1.045-.99-1.045-1.54 0-1.98-.99l-.88-3.025 1.43-1.045.99 3.19.605.33q1.21-.165 2.145 1.76 2.145 4.455 3.355 8.14 2.75-9.515 4.455-14.245l1.265 1.925"/><path fill="#0f141b" d="M555.503 223.686q1.54 5.775 2.53 12.32 1.1 6.655 1.155 11.165l-1.1-.33q-.385-7.15-4.4-23.265l1.815.11M523.053 239.856q10.56 16.39 18.095 30.085l.22.165.11-.22q.55-17.875 1.375-24.145l1.925.275q-1.155 9.735-1.815 23.76-.11 2.75-.99 2.86-.88.11-2.31-2.31-9.845-16.72-19.03-30.8l2.42.33M553.798 230.891q.165.825-1.595 2.695-1.87 2.035-4.4 3.465l-.22-1.76 3.025-2.035 1.815-1.925-1.98-.165-3.41.275-.22-1.485q3.08-.33 5.06 0 1.815.275 1.925.935M411.897 265.266q-5.72-11.55-14.52-21.67-8.965-10.23-14.96-11.935-8.47-2.365-14.41-2.365-6.82.055-13.475 3.135-12.485 5.775-35.75 29.865-1.32 1.375-1.76 1.045-.44-.33.825-1.87 20.57-24.2 34.815-30.91 13.31-6.27 30.415-1.155 6.71 1.98 15.95 12.925 9.24 10.945 13.915 22.495.715 1.76.275 1.98-.44.165-1.32-1.54"/><path fill="#0f141b" d="m398.422 244.641 2.86 2.53q1.485 5.225-3.52 19.195-4.785 13.2-7.81 15.62-3.63 2.916-17.545 8.306-15.07 5.885-24.42 7.315l.825-2.035q8.855-1.65 23.045-7.095 13.805-5.39 16.83-8.14 3.08-2.805 7.645-16.17 5.005-14.74 2.09-19.526"/><path fill="#0f141b" d="M368.997 261.471q-8.36 3.685-14.685 9.846-4.84 4.62-9.46 11.77-.935 1.43-1.375 1.155-.495-.33.33-1.87 4.51-8.195 9.075-12.816 5.885-6.05 15.29-10.12 8.25-3.575 16.06-3.74 6.325-.11 10.78 1.98 1.375.605 1.21 1.1l-1.595.055q-4.785-1.43-11.275-.935-7.48.55-14.355 3.575M318.122 260.701q-7.92.495-18.095 4.4-11.605 4.4-17.27 10.176-7.59 7.755-12.87 19.25-5.06 11.11-5.5 20.02l-1.87 1.045q.44-11.88 5.114-22.825 4.676-11.11 12.87-19.305 6.326-6.326 17.6-10.23 10.176-3.576 21.286-4.236l-1.265 1.705"/><path fill="#0f141b" d="M318.562 261.086q-3.08.825-6.435 2.145-3.63 1.43-4.895 2.365-2.805 2.035-18.7 18.206-17.6 17.875-24.586 26.62l-.055-2.805q7.48-9.075 24.31-26.18 15.18-15.4 17.82-17.38 1.54-1.156 6.6-2.86 4.016-1.376 8.03-2.42l-2.09 2.31M303.217 296.287q4.565-5.5 9.735-8.58 8.525-5.115 23.155-3.905 14.025 1.155 15.895 5.72 1.265 2.97-4.18 12.595-6.105 10.835-15.62 19.69-3.74 3.465-10.56 6.49-6.765 3.025-13.42 4.29-.715.11-.715-.825 0-.99.66-1.1 6.325-1.155 12.595-4.07 6.27-2.86 9.955-6.38 10.725-10.12 16.17-20.68 4.235-8.195 3.08-9.46-3.795-3.96-16.445-4.125-12.815-.22-19.305 3.905-4.675 2.97-9.57 8.69-4.785 5.5-6.16 9.405l-1.705-.825q1.76-5.28 6.435-10.835"/><path fill="#0f141b" d="M274.947 312.292q-.22-.55 1.32-1.1 6.82-2.42 12.705-3.795 7.7-1.87 9.735-.825 1.98.99 5.5 4.895 3.465 3.905 4.29 5.885.825 2.035.715 10.615-.165 9.075-1.32 14.795l-1.155 3.63-2.2 3.08-21.12 25.025q-1.705 2.09-3.135 5.83-3.08 8.085-6.875 21.67-4.07 14.355-4.126 18.04 0 2.31 2.476 9.405 2.475 6.985 5.115 12.155.825 1.54.715 2.695-.055 1.1-.935 2.86-5.995 11.936-14.63 32.45-.66 1.486-1.54 1.98l-1.926.11-14.41-3.96q-9.515-2.804-13.97-5.004-5.83-2.805-9.24-19.14-3.41-16.336.055-24.586l7.48-17.105 1.32-3.795.99-4.785q1.21-7.81 2.53-26.015l1.595-24.695q.33-5.17 4.07-11.22 10.01-16.115 25.025-28.05 1.43-1.155 1.87-.825.385.385-.935 1.65-7.205 7.26-13.365 14.3-7.315 8.415-11 14.08-1.705 2.695-2.53 4.95-.88 2.365-1.155 5.28l-1.485 23.705q-1.21 17.82-2.695 27.335l-1.045 4.95-1.32 3.85-7.26 17.05q-3.08 7.315.605 23.486 3.575 15.73 7.92 17.875 6.71 3.355 26.785 8.525h.935l.715-1.045q7.15-16.775 14.96-32.34l.66-1.926q.056-.825-.55-1.98-2.584-5.115-5.115-12.21-2.695-7.48-2.695-10.065.055-3.795 4.18-18.37 3.85-13.475 6.986-21.945 1.815-4.51 3.52-6.545l20.845-24.97 1.87-2.75q.605-1.21.99-3.245 1.21-5.72 1.32-14.355.165-7.975-.55-9.735-.715-1.87-3.685-5.28-3.025-3.52-4.785-4.4l-8.195.495q-6.325 1.265-13.145 3.465l-1.705-.055"/><path fill="#0f141b" d="m249.316 337.592-1.045.165q-4.51 1.815-8.36 4.565l1.375-2.915q3.245-2.035 6.325-3.355l2.255-.11q.88.33 1.54 1.65 4.015 7.755 6.435 17.05.495 1.76.055 4.235-1.76 10.34-4.235 27.5-2.53 17.38-3.08 23.375-.22 3.245.715 6.05 1.54 4.235 3.08 7.15 2.585 4.84 6.27 8.69 1.705 1.76 8.91 5.775 5.776 3.19 7.096 6.765l-.66 2.035q-1.1-3.52-7.206-7.095-7.7-4.455-9.35-6.215-6.655-6.875-9.845-16.5-1.1-3.245-.77-6.875.55-5.5 3.135-23.375l4.125-27.5q.33-2.255-.055-3.575-2.695-10.12-6.05-16.665l-.66-.825"/><path fill="#0f141b" d="M269.446 424.932q11.55 3.96 17.766 14.19 5.94 9.68 6.6 24.31.11 2.036-.55 2.31-.66.33-2.2-.99-5.83-4.84-10.56-6.6-4.565-1.704-9.68-.99l.825-2.09q10.395-1.044 20.295 8.58.385.33.33-.22-1.375-14.795-6.71-23.43-5.335-8.525-15.51-12.705l-.606-2.365M270.271 458.153q4.84 6.875 11 11.165 3.74 2.585 10.506 5.555 1.98.825 2.09 1.595.11.77-1.815 1.705-8.14 3.905-15.125 4.73-8.8 1.1-16.996-2.42l.935-1.65q7.315 2.86 14.52 2.42 7.37-.495 15.896-4.51.55-.275-.055-.495-6.27-2.145-10.89-5.225-6.325-4.18-11.056-10.835l.99-2.035"/><path fill="#0f141b" d="M276.652 444.182q-9.46.22-27.5 9.79-17.986 9.516-20.296 15.4l-.77-.054q-.77-.22-.66-.55 3.19-8.14 19.085-16.61 15.62-8.36 29.096-9.516l.825.77q.55.715.22.77M233.311 479.548q-3.245-4.51-4.565-8.415-.11-.385.66-.495.825-.11.99.275 1.32 2.75 4.455 6.71 3.465 4.4 5.28 5.06 2.2.77 8.635-.165 6.655-.99 10.78-2.86.33-.165 1.265.44.935.605.55.715-5.555 2.53-11.935 3.905l-10.175.44q-2.53-.88-5.94-5.61"/></svg>