<svg xmlns="http://www.w3.org/2000/svg" width="691" height="577" viewBox="-0.12 -0.07 690.765 577.014"><path fill="#efefef" d="m625.124 310.312 9.1 3.71 8.89 3.99q.91.63 9.03 13.16l10.43 16.66q-3.36-.42-9.94 3.5-1.26.84-3.01 3.22-1.47 2.17-2.59 4.48l-9.1-12.81-10.15-13.86-3.29-2.45-3.22-1.89q-.35-.21-2.59-1.05-1.75-.7-2.31-1.54-1.19-1.82-.14-7.56.63-2.87 4.2-6.3 1.12-.98 2.45-1.33l2.24.07"/><path fill="#efefef" d="m460.343 127.54 10.5 8.96 30.45 28.701 16.94 15.26q13.16 11.55 18.55 15.4 6.79 4.69 17.99 13.23l20.51 16.31 30.661 26.32q22.82 19.88 29.4 26.88 1.33-7 0-28.07-1.26-19.18-1.05-19.18.63 0 6.86 14.21 6.3 14.28 9.59 23.24 3.08 8.47 5.88 19.88 2.52 10.151 3.71 17.781 1.12 6.86 2.8 21.77 1.61 14.84 1.68 19.53l-4.97.35q-6.86-8.61-13.16-15.26-7.14-7.56-34.44-24.99-9.94-6.37-21.21-14.35-11.9-8.4-16.45-12.46-3.99-3.57-46.97-27.79l-45.08-25.06q-2.31-1.19-10.29-4.27l-16.661-6.23q-15.05-5.67-71.54-48.79-20.37-15.541-35.63-29.401-13.02-11.76-12.18-12.46.63-.49 10.43 3.57 9.45 3.85 16.17 7.28 8.61 4.41 28.56 13.3-6.86-11.69-11.9-22.4-3.5-7.28-5.67-14.42-1.89-6.44-1.19-6.72.63-.28 13.23 10.01 12.25 9.94 16.38 13.93l15.19 13.65q11.41 10.01 11.9 9.66.42-.35-3.22-8.19l-5.67-11.76q-2.38-4.9-5.95-13.44-3.85-9.38-3.5-9.87.35-.49 11.62 9.03l15.47 13.37 15.4 13.58q11.2 9.73 11.55 9.52.28-.14-2.73-6.37-3.99-8.26-6.02-13.72-2.66-7-3.43-10.99-.63-3.43.14-3.71.56-.21 7.35 5.18"/><path fill="#0f141b" d="m510.743 176.261-28-26.11-17.99-16.73q-8.82-8.12-11.27-9.52.28 2.59 3.85 11.27l8.4 18.41q3.22 6.65 2.38 7.35-.84.77-6.3-4.2l-28.91-25.76q-15.68-13.72-20.37-16.94 2.8 8.4 17.29 37.45 3.85 7.77 3.01 8.19-.84.42-7.07-5.25-17.43-15.96-31.22-28.07-16.94-14.84-20.86-17.08.28 4.13 7.21 19.04 7.07 15.26 12.6 23.1l-1.68-.14-2.24-.91q-5.88-8.33-13.09-24.64-7.7-17.64-5.11-19.67 1.05-.84 5.6 2.52 7.07 5.18 27.09 23.03l22.68 20.3-3.15-7-3.85-8.54q-7.7-16.24-9.8-22.12-1.47-4.13-.56-4.83.98-.7 5.46 2.94l26.18 22.61 22.12 19.39q-7.77-15.19-10.85-24.78-2.52-7.91-1.12-9.03 1.47-1.26 7.63 3.71 6.72 5.39 26.18 23.8 37.31 35.21 52.36 45.71 19.32 13.3 51.52 40.04 35.771 29.61 45.431 41.86.49-7.63.14-18.62-.35-10.99-1.4-21.14-.77-7.84.21-8.26 1.12-.42 4.55 6.93 15.61 33.39 21.7 57.68 2.8 11.131 4.41 26.531 1.26 11.83 2.03 29.26l-2.45-.49q-1.33-30.38-7.42-54.67-3.92-15.54-10.57-33.32-5.11-13.86-10.15-24.57 1.12 10.92 1.75 22.05.63 12.46.21 19.95-.28 4.48-1.19 4.69-.84.21-3.57-3.15-9.87-12.04-45.01-41.23-32.69-27.23-52.36-40.81-8.54-5.88-24.43-20.23"/><path fill="#0f141b" d="M481.693 229.251q-4.41-2.24-12.32-4.76-9.87-3.22-16.31-6.3-11.34-5.25-24.99-14.7-32.97-22.89-66.57-50.68l-21.42-18.48q-5.67-5.18-7.28-7.42-.98-1.4-.42-2.1 1.33-1.68 12.81 3.15 15.05 6.23 44.66 21.21 24.99 12.67 29.68 15.54 3.08 1.82 2.87 2.45-.28.63-3.5-.91l-51.73-24.78q-22.82-10.92-28.28-12.46 7.42 7.77 31.99 27.37 29.26 23.38 59.5 44.38 14 9.66 24.08 14.91 7.7 3.92 15.68 6.51 8.33 2.73 12.6 4.9.63.35-1.05 2.17"/><path fill="#efefef" d="m175.581 316.262-1.61-6.79q8.26 4.13 26.11 20.51l23.59-1.61q3.36 0 12.11 5.39 2.52-4.48 8.75-13.09l9.8-13.51 16.17 9.52 17.64 10.71q6.23 4.06 14.631 7.91 7.63 3.57 13.65 5.39l-2.59 14.84-62.37 124.951q-9.73 10.43-25.13 20.72-13.58 9.03-25.55 14.21l3.64-13.09q-5.11 4.62-14.56 10.08-7.98 4.62-13.3 6.72.28-5.6 3.15-18.41 2.73-12.11 5.95-23.1-6.51 7.7-20.93 15.12.35-7.98 5.88-20.02 4.83-10.57 9.87-16.73-4.55-4.41-14.7-7.07-3.01-.84-5.671-2.66-2.31-1.68-3.64-3.57-3.71-5.25-10.71-13.93-8.19-10.22-13.09-15.19l-2.94-3.22q-1.26-1.75-1.96-4.13l-3.43-9.24-4.83-12.25-4.55-5.32-4.69-4.69q-1.82-1.54-16.87-9.66l-23.03-12.39-13.51 4.41-2.66.63q-1.26-.07-2.73-1.12-1.26-.84-5.67-6.3l-7.14-8.75q-6.3-7.14-20.3-17.92 8.05-.35 22.12 5.11-12.39-12.81-39.411-22.261 12.11-1.47 28 3.64 12.74 4.06 25.76 11.48 11.34 6.51 23.94 9.59 3.01-1.82 5.18-1.96 2.45-.14 5.53 1.61 4.06 2.31 19.88 6.16l8.61.77 7-1.12 8.75-2.17 10.29-2.24q-2.03-5.6-4.13-12.46l-3.36-10.78q5.25 1.4 13.301 6.09-3.99-10.57-12.95-27.79 7.7 3.99 20.3 13.51 11.9 8.96 18.41 15.47M611.264 300.512q-3.85 1.4-6.44 8.05-2.66 6.72-.98 11.62l-10.85-5.04q.07-5.6 1.68-11.48 1.47-5.18 3.71-9.17 6.02 3.85 12.88 6.02M664.324 382.553l-4.34-3.01q-1.75-.98-2.94-4.69-1.05-3.43-.91-6.37.21-2.52 3.64-4.97 3.22-2.38 6.37-2.8 3.85-.49 9.17 2.52 4.97 2.8 9.31 7.7 2.73 3.15 2.17 7.21l-22.47 4.41"/><path fill="#b5b5b0" d="M579.414 386.193q3.43 27.72-3.43 42.21-10.85 22.89-41.51 32.9-30.1 9.73-60.69 1.4-3.64 5.6-15.051 11.34-11.9 5.88-22.89 7.07.28 10.15-5.39 16.94-4.41 5.32-12.88 9.03-.14 5.39-.77 8.89-.63 4.06-2.24 8.19l-24.29 28.56-6.44.63q-4.27.98-7.77 3.78l-12.25-15.4q1.05-4.69 5.81-9.66 4.34-4.55 10.01-7.56 4.27-2.17 4.9-4.9.56-2.1 2.38-5.95-3.5-4.83-6.72-13.72-3.64-10.08-2.66-15.12 1.05-5.6 6.72-11.97 5.67-6.58 12.32-9.52-5.53-7.98-5.04-19.81.49-11.2 6.16-23.59 12.32-26.81 36.54-40.32l54.81-14.28q4.76-2.66 9.17-6.51 4.27-3.71 4.97-5.67.63-1.89.21-5.88-.49-4.06-1.89-8.75l6.23 6.58 4.48 5.53 2.1 1.82q.98.35 2.1-.49 2.03-1.54.98-6.02-1.05-4.55-2.38-19.46 10.15 13.09 27.02 25.27l2.24 1.96q.84 1.33.98 4.2l-.07 9.17-.77 10.36 10.01-15.61q7.35-10.78 11.06-13.3 1.61-1.19 2.94.63 7.77 11.27 10.99 37.03"/><path fill="#efefef" d="M568.074 41.37q4.2 5.46 6.58 11.55 1.96 5.04 3.15 11.69.91 5.39 3.78 10.08l6.58 8.89 8.61 7.28q6.23 5.11 8.4 8.47l12.39 18.27q9.1 13.93 11.34 21.56 1.68 5.88 2.1 14.351.49 9.59-1.33 14.42 1.75 1.96 2.73 4.55.98 2.52.56 3.85-.49 1.33-4.9 3.78-4.48 2.52-8.19 3.36l-3.64-.98-.98-4.41-.98-5.32-5.04-4.55q-2.8-24.15-6.09-36.4l-3.08-2.45-9.52-10.78q-5.18-6.02-9.17-11.55l-5.67-8.12q-2.38-4.06-3.57-8.75-.98-4.41-3.78-6.79-1.96-1.68-7.07-3.85-12.46-3.57-19.39-7-12.04-5.95-26.11-22.75-7.77-9.31-18.13-14.21-5.67-2.66-19.32-6.44 4.76-1.68 7.77-2.31 4.97-.98 9.38-.14-3.92-5.88-13.51-11.2-5.67-3.08-17.361-7.841l24.5-.98q15.12.91 26.46 4.83-3.43-5.11-14.77-10.5 20.16 2.73 31.43 8.33 18.41 9.1 35.84 32.06"/><path fill="#efefef" d="m576.684 150.641 2.59-3.43q.84 1.54 3.92 3.71l4.55 2.87q5.81 3.43 13.44 8.82 9.52 6.65 13.79 10.85 0 3.99 1.26 9.03l-15.26-4.55q-4.41-1.47-6.65-4.55-10.57-14.35-17.64-22.75"/><path fill="#fdd23f" d="M591.104 155.541q10.08 6.23 16.52 11.55-2.31 1.19-5.18 1.4-3.22.35-5.46-.77-2.52-1.19-4.2-4.48-1.75-3.5-1.68-7.7"/><path fill="#e6e6e6" d="M382.853 235.062q-14.7-9.59-14.42-11.55.28-1.47 18.27-1.12l26.88 1.54q-2.03 2.8-2.45 7.63-.21 3.15-3.57 18.2-11.34-5.95-24.71-14.7M397.133 301.072l7.49 11.55-14-2.45-1.75-1.89q-1.26-1.12-2.31-1.61-2.38-1.19-8.47-6.3l-10.78-9.31q4.34-1.33 15.33-3.64l16.17-3.36-2.94 10.85q-.56 1.96-.21 3.36l1.47 2.8"/><path fill="#dbe7ed" d="m583.054 115.57 20.09 16.24q1.61 6.44 3.71 19.041 2.03 12.18 2.38 17.36-5.46-4.41-12.6-9.1-7-4.62-11.9-7.14-3.15-1.61-6.3-5.39-2.31-2.8-5.88-4.48-4.06-1.82-8.68-1.68l-6.79-.56q-2.8-.98-5.11-.98-2.66 0-5.46-1.82-7.56-4.97-21.14-13.09-2.66-1.54-4.34-6.86-1.68-5.46-5.6-9.38l-14.98-14.28-19.39-18.83q-2.66-2.66-3.08-5.81l-.35-5.95q-.07-1.89.63-2.1.63-.21 2.45 1.12 4.76 3.71 17.92 12.74l-11.06-15.05-8.61-11.55q-1.68-2.38-1.54-3.71l.56-4.9q16.59 13.58 31.85 24.15 20.44 14.07 35.35 20.44 8.33 3.57 17.15 12.81 7.21 7.42 20.72 18.76"/><path fill="#fff" d="m595.304 174.721 2.45-2.38q1.47-1.19 1.96-1.12.56.14 1.19 2.24l.98 4.27-3.36-.98q-2.03-.91-3.22-2.03M602.444 178.291q3.64-5.39 4.69-5.04.56.21 1.19 2.52l.63 4.41q-1.47-.07-6.51-1.89M597.544 159.531l6.51 4.97q-3.29 3.15-5.95 1.33-2.8-1.89-.56-6.3M676.644 378.282q.7 6.58-3.64 15.4-3.78 7.7-7.77 10.92l-.35-14.07-.91-10.71q-.49-2.73 1.4-4.97 1.89-2.31 4.62-2.45 2.73-.07 4.55 1.47 1.82 1.61 2.1 4.41"/><path fill="#fff" d="M679.234 389.273q-1.26 6.79-4.2 14-2.52 6.3-4.9 9.59-1.82-7.42-2.38-10.78 4.9-6.16 7.63-13.37l3.85.56M676.924 382.833v-2.8l4.97-3.92q2.45-1.54 4.13 1.4 3.29 5.95 3.36 14.63.14 7.42-1.89 12.81-5.32-13.16-10.57-22.12M601.674 526.893q9.66 3.78 16.38 12.95 6.23 8.54 6.09 15.75-5.74-3.99-14.28-7.98-7.63-3.57-13.93-5.53-1.33-5.11.49-9.59 1.75-4.2 5.25-5.6M642.694 525.633q4.48.77 9.03 6.02 4.13 4.76 5.39 9.38 1.12 4.13-2.73 2.38-1.33-.56-3.99-1.26l-3.85-.7q-.56-5.32-3.85-15.82M426.393 531.023q9.45 2.24 15.47 11.34 6.02 9.1 5.39 19.95-.07 1.47-.77 1.68-.7.21-1.47-.98-2.8-3.92-8.4-7.35-5.32-3.22-9.73-3.92.42-13.23-.49-20.72M361.082 548.874q4.13-13.65 9.17-14.14 3.71-.42 5.81 5.46 2.03 5.74 1.05 12.81-.56 4.06-4.27 5.81-5.88 2.94-12.04 10.78-1.47 1.89-2.24 1.82-.77-.14-.84-1.82-.28-8.54 3.36-20.72"/><path fill="#dbe7ed" d="M559.464 182.771q-3.15-.07-9.1-5.53-5.32-4.97-6.86-8.12-.91-1.89-.84-4.2.07-2.38 1.12-2.87 4.34-2.1 14.35-5.74 8.4-3.08 15.54-5.39l2.45-.14q.91.28 1.96 1.68l10.01 13.02q7 9.31 8.33 10.29 2.31 1.82 16.1 5.6l16.73 4.41-27.93 10.15-2.66.77q-1.05 0-2.45-.77-3.5-1.89-16.45-6.37l-20.3-6.79M550.014 218.961l13.3 8.4q9.38 5.81 14.35 7.77 4.83 1.96 18.83 17.08 10.29 11.2 20.23 23.45 1.61 1.96.84 3.43-.7 1.33-3.15 1.82-6.86 1.33-12.74 8.4-5.6 6.79-7.21 15.051-8.19-19.25-24.15-35.7-10.99-11.34-24.99-20.65-2.17-5.25-3.29-12.67-1.05-7.56-.56-13.72 2.24-2.31 4.06-3.36 1.05-.63 2.03-.42.91.14 2.45 1.12M498.073 264.672l-17.15-.49q-10.36 1.68-12.81 4.97-6.72 5.04-15.75 15.89-4.97 5.95-12.88 16.59-1.33 1.89-2.94 2.59l-3.36.63-17.57-1.4-16.38-2.94q-4.76-.98-3.36-5.6 4.2-14.28 8.89-33.81 5.32-22.19 6.51-31.5.42-3.78 3.36-6.16l3.64-4.13 3.71-5.81q1.75-3.01 4.55-2.1 13.58 4.55 36.61 15.12 20.51 9.31 36.4 17.78 9.38 5.04 20.44 17.36 10.43 11.69 15.4 21.84-26.18-15.19-37.31-18.83"/><path fill="#dbe7ed" d="M468.113 269.152q3.99-3.78 13.23-4.9 8.26-1.05 16.73.42 4.9 4.9 7.07 16.17 2.03 10.57.63 20.79-.91 6.58-6.72 9.8-5.81 3.29-14.63 2.24l-11.76 12.39q-6.09 5.81-14.98 5.32l3.85-3.43q1.05-1.05.21-1.75l-2.03-1.4-1.19-.56-1.89.21q-2.31.77-7.63 3.15-5.39 2.38-8.33 3.92l-7.91-5.11q.63-2.94 2.52-8.19 1.68-4.97 2.45-6.3l6.3-7.49 7.28-8.26q3.92-4.48 7.56-6.79l2.38-1.54q.84-.7 1.33-2.38l2.03-6.58q1.82-5.53 3.5-9.73"/><path fill="#dbe7ed" d="m455.583 337.542 10.5.63q3.15 1.05 4.83 5.46.56 1.54 1.33 2.45l1.68 1.75 8.26 8.12q4.13 4.55 5.25 6.58 1.82 3.15 5.6 5.67 4.9 3.29 9.03 8.05 2.94.7 6.3 4.2-2.17-1.05-4.27-.7-1.82.35-2.38 1.4-1.26 2.8-.07 7.28 1.26 4.55 3.99 6.23l.7 2.24-6.3-.14q-3.15 1.12-5.04 4.69-1.05-3.99-3.01-7.56-2.31-4.27-4.34-4.2-3.01.07-4.34 5.32-1.26 5.04.14 8.54-3.71-2.94-6.93-7.84-2.45-3.57-7-5.74-4.34-1.96-11.27-8.12-6.23-5.6-11.13-11.34-11.34 1.96-22.26.28-13.16-2.03-22.47-9.03-3.78-2.94-7.28-4.27-2.59-.98-8.12-2.03l-52.57-10.15q-13.51-2.52-22.751-5.95-10.57-3.99-24.78-12.46-42.84-25.76-59.85-33.74l-2.52-1.61q-.91-.84-1.4-2.24l-5.95-13.65q5.32.28 19.67 5.74 10.08 3.78 19.04 7.91-7.35-9.66-25.69-21.77-14.84-9.8-29.82-16.87-2.03-.98-3.08-2.03-1.12-1.12-1.61-2.87-8.89-30.17-11.69-36.19-1.89-4.27-8.96-14.14-6.58-9.31-11.97-15.68-5.251-6.09-9.311-13.3-.91-1.54-.21-2.17l2.45-.14q42.56 11.97 95.83 41.79 48.721 27.16 85.121 56.91l27.09 24.43q18.2 16.73 25.41 21.35 1.75 1.12 7.35 8.68l7.28 9.52q2.17 2.1 9.1 5.18 5.95 2.66 11.06 4.2l-3.36-3.57q-1.47-1.47 0-2.38l3.29-2.03q2.38-1.47 4.69-2.59.84-.42 1.54-.35l2.38 1.12q12.39 9.24 19.111 9.24 2.24 0 3.71 1.89"/><path fill="#dbe7ed" d="M487.643 389.693q4.06.07 7.28 12.04 3.08 11.48 2.17 20.37-3.29-3.29-7.42-8.82-4.2-5.74-6.23-9.73-1.96-3.85-.28-8.96 1.61-4.97 4.48-4.9M495.763 404.393l-.77-2.94q1.47-2.94 4.34-4.41 3.15-1.54 6.86-.63 2.03 6.58 4.9 19.74-6.16-2.87-15.33-11.76M501.923 380.592q1.96-1.54 5.25-.42 3.43 1.12 6.86 4.76 8.47 9.17 10.5 25.76l-9.45-8.19-9.1-7.7q-3.43-3.01-4.76-7.84-1.33-4.76.7-6.37M461.183 384.373q3.5 3.92 10.08 13.02 6.51 9.1 7.21 10.92.63 1.54-3.22 23.03l-5.74 30.17q-2.73 14.21-15.54 38.99-.84 1.75-1.75 1.47-.84-.28-.91-2.1-.56-10.92.28-39.62 4.06-2.52 4.9-13.09.42-5.53 0-22.05-.28-9.66-5.04-17.01-5.11-7.91-16.52-15.05l-1.19-21.84h6.72l6.65-.7q3.64 4.62 14.07 13.86M575.914 368.482l2.8.21q1.61.35 3.71 1.68 12.6 7.84 27.37 18.97 17.01 12.81 19.32 17.22 2.52 4.76 3.92 18.9 1.4 14.07-.21 18.97-1.54 4.76-10.15 16.661-8.33 11.41-14.91 18.13 5.46-31.15 4.06-41.65-1.19-9.1-10.08-18.55-6.58-6.93-15.61-12.46-2.8-1.75-5.67-1.68.35-9.24-.77-18.69-1.26-9.94-3.78-17.71M561.074 490.073q-.56-1.96-.14-3.5.49-1.61 1.75-1.75 1.4 1.96 10.29 9.94 9.31 8.33 12.46 12.32 1.47 1.89 4.83 2.66 10.71 2.31 22.26 5.6 3.36.91 5.81-1.12 2.8-2.31 2.31-7.14-1.05-10.36-3.92-17.08-.7-1.54-.21-2.38.63-.84 2.1.28 10.78 8.19 19.46 26.25 8.75 18.27 8.75 33.11 0 2.03-2.24 1.12-4.9-1.89-11.83-3.71-8.4-2.17-12.81-2.24-4.69-7.56-12.81-12.74-9.45-6.02-19.74-5.81-8.89.14-13.72-7-3.57-5.25-7.49-13.86-3.36-7.42-5.11-12.95M390.693 553.354q-.49-.98-.42-2.52.56-10.43 5.6-29.26 4.9-18.2 8.54-24.64.84-1.54 1.75-1.47.84.07 1.26 1.82 4.41 19.18 7.14 26.88 2.66-8.4 2.87-14.98 0-1.96.7-2.31.63-.35 1.75 1.05 5.81 7.14 7.14 29.47 1.26 21.7-2.73 34.44-1.05 3.57-4.06 2.1-6.23-3.15-14.98-9.03-8.68-5.81-13.02-9.73l-1.54-1.82"/><path fill="#fdd23f" d="M609.864 136.64q-.63-1.75-1.96-2.94l-3.57-2.31q-2.73-7.28-11.41-34.93-.56-1.82.14-2.17.7-.35 1.68.7 6.3 6.65 18.27 23.03 11.76 16.03 13.09 19.46 1.26 3.15.56 15.611-.7 12.25-1.68 12.25l-2.31-1.19-2.8-2.24q-5.32-11.34-10.01-25.27"/><path fill="#b5b5b0" d="M564.084 154.001q-5.18 1.89-15.26 6.16.56-1.89 3.92-7.56-9.8 2.73-16.45 6.16 2.66-4.83 10.22-10.36 3.36-2.52 11.97-7.91l8.89.14q2.87-.07 6.37 2.03 3.43 2.03 5.74 5.04l-2.8 2.94q-3.57.07-12.6 3.36"/><path fill="#efefef" d="M562.894 192.641q1.12-3.64 3.29-7.35l24.43 8.26q-7.28 4.9-20.44 28.35-1.05-7.63.21-18.9-2.87 3.08-7.7 5.25 2.03-7.35 6.51-15.82l-6.3.21"/><path fill="#b5b5b0" d="M543.014 167.721q.63 4.34 12.11 13.44 1.68 1.33 5.25 2.52l5.81 1.61-1.19 2.52q-10.01 7.07-15.19 13.58-6.72 8.61-8.26 19.67-2.8 19.32 12.95 48.3-10.64-4.06-20.86-12.67-11.34-9.59-14.77-19.18-4.34-12.32 1.96-33.39 6.93-23.24 22.19-36.4M630.374 312.132l-4.13-1.82q-3.08-1.19-5.18.42-1.96 1.47-3.43 4.62-1.68 3.43-1.75 7.14 0 1.96 1.33 3.43l3.01 2.17q-.91.91-2.73.7-1.47-.14-2.8-.84l-6.3-2.66q-4.55-2.17-5.11-7.28-.49-4.83 1.33-9.31 1.54-3.85 4.41-6.65 1.89-1.82 4.62-2.03 2.8-.28 5.04 1.26 3.29 2.17 9.24 4.9 2.87 1.33 2.45 5.95M675.944 363.582q-3.22-1.89-5.74-2.52l-5.32-.28q-2.17.35-4.83 2.38-3.01 2.17-3.57 4.41-.7 3.01.63 7.56-2.24.28-4.62-2.24-2.52-3.01-4.62-6.65l-1.26-2.73q-.42-1.4 0-3.01 1.19-5.11 5.81-8.82 4.48-3.64 9.73-4.06 2.66-.21 4.41.77 1.61.77 2.94 2.73l5.81 8.12q.84 1.12.98 2.17l-.35 2.17M567.094 293.442q6.65 6.16 15.68 24.64.91 6.65-1.61 15.61-1.19 4.34-5.18 14.42-1.61 4.13-.91 9.1.56 4.62 0 8.26-1.96-6.58-4.41-12.04-2.52-5.53-3.64-5.67-1.54-.21-6.09 5.39-3.78 4.62-6.44 8.96l.63-7.91q.07-3.85-.63-7.35-.77-4.13-5.46-12.6-4.97-8.96-9.59-13.86 4.2-4.97 8.26-14.21 1.82 3.22 1.96 8.82.14 4.69-.77 8.89 6.65-3.43 11.76-11.13 5.95-8.96 6.44-19.32M580.464 404.883q2.59-.56 6.02 1.68 14.28 8.96 20.16 17.92 6.44 9.8 5.53 23.24-4.41 7.63-15.61 11.41-7.77 2.59-24.5 4.62-9.24 1.12-11.76 7-2.52 5.88 2.38 14.07-1.33 0-1.82 1.4t.07 3.43q2.24 7.28 5.74 14.63 4.27 9.17 8.89 14.98 2.38 3.01 6.02 4.06l6.79.7 7.07.77q3.64.84 5.74 2.17-3.64 1.89-4.97 6.93-1.12 4.2-.28 8.19-7.84-3.01-26.11-7.28l-26.39-5.6q-2.24-.42-3.01-1.47-.77-1.05.14-2.38 1.33-2.1 7.42-6.65 2.17-1.68.7-3.43l-5.95-7.56q-10.43-1.75-20.23-8.96-10.01-7.42-11.27-14.7-.63-3.92 1.12-9.31 1.82-5.81 5.39-9.73 28.07-4.83 44.17-18.41 18.76-15.89 18.55-41.72M223.881 483.913l-4.69.28q-1.68-.63-1.61-3.08.35-6.93 3.36-17.15 2.73-9.45 6.44-17.36-4.69-21.98 1.12-42.56 6.72-23.59 26.18-40.39-2.66-7.21-5.04-17.01l-3.15-14.49q-.56-2.52.42-3.29.98-.84 3.43.7 13.51 8.54 42.63 19.11 26.041 9.45 44.311 13.58 3.64.84 5.53 2.03 2.1 1.26 2.73 3.43 1.4 4.83 3.29 9.8 12.04 4.2 21.14 17.22 7.98 11.48 10.71 24.92 2.52.56 6.86-1.4 5.67-2.38 13.44-4.2-4.41 8.47-7.14 18.34-3.01 10.99-2.1 17.71-6.16-2.1-8.61-3.85-1.05-.7-2.24-.91-1.4-.14-2.45.56l-1.47 4.9q-.98 3.36-1.19 4.9l-.56 10.08-.28 11.27q0 2.8-1.89 3.43l-4.76-.42-19.11-3.85q-8.68 4.76-20.02 7.63-11.2 2.8-20.23 2.52-4.9 4.41-7.21 5.18l-5.53-.49q-15.61-4.76-21.07-6.23-11.76-3.08-20.44-3.92-12.81-1.19-30.8 3.01"/><path fill="#efefef" d="m549.174 160.021-3.43 1.26-2.31 1.4q-.91 1.19-.42 5.04-11.97 10.5-18.97 28-6.58 16.45-6.23 32.41.14 5.74 1.12 9.45 1.19 4.41 4.13 8.33 5.18 6.93 14.14 13.44 8.12 5.88 17.29 10.01-3.5-6.51-9.17-21.35 18.2 11.2 32.9 29.33 15.61 19.18 19.6 37.171-4.48-6.86-16.8-15.75 2.31 4.83 2.73 10.99.35 5.53-.84 8.96-1.75-5.04-6.72-12.95-4.76-7.42-9.1-12.32-.77 9.52-5.46 17.43-4.83 8.26-12.74 13.02 1.19-3.64.77-9.17-.42-5.32-1.96-8.54-3.57 9.1-10.5 16.59-6.3 6.86-11.62 8.61 2.17-4.55 2.73-11.06.56-5.81-.28-10.29-2.45 2.73-6.23 5.53-3.57 2.59-6.72 3.99 0-7.63 6.79-18.13 5.67-8.89 12.11-14.21 2.38-1.89 1.4-3.71-9.31-17.78-22.61-29.26-11.41-9.87-31.64-19.67 4.13-21.7 22.4-47.04 18.2-25.2 34.09-31.501l-1.33 2.73q8.12-3.92 16.45-6.16-1.96 2.87-3.57 7.42"/><path fill="#efefef" d="M515.223 320.252q9.66-6.37 12.81-10.22.77 4.83.14 11.13-.63 6.86-2.59 10.22 3.36-.91 7.49-4.34 3.78-3.08 6.37-6.65 4.69 5.32 9.38 13.44t5.6 12.39q1.26 6.16.35 15.4l-10.15 15.05q.84-8.33.63-18.76-.07-2.73-.84-4.06l-2.38-2.1q-6.51-4.55-13.3-10.64-8.61-7.77-13.72-14.63-.21-2.24.21-6.23M351.632 386.123q10.08.63 17.22 8.54 6.58 7.21 10.43 20.02-5.04-8.33-9.87-12.88-6.65-6.23-13.44-6.02l-4.34-9.66M328.532 387.733l2.8 2.94 2.1 3.15q.7 1.19.28 1.96l-1.89 1.75q-9.8 7.91-13.44 22.82-3.78 15.61 1.89 29.12.84 2.03-1.05 2.66l-12.11 4.34q-8.33-17.15-2.38-39.06 6.3-23.03 23.8-29.68M262.942 410.133q3.64-13.72 11.2-24.36 7.77-10.99 18.13-16.24l1.89-.7q.91-.14 1.82.49l5.6 4.06q-20.65 11.27-28.14 38.78-7.42 27.37 3.29 52.01l-5.81 1.75q-2.31.63-3.29-1.05-12.74-24.57-4.69-54.74"/><path fill="#fff" d="M381.802 227.781q-1.33-.28-1.26-.91 0-.56 1.4-.49l29.82 3.01-.91 4.76q-10.85-3.08-29.05-6.37M396.223 294.212l-23.24 1.75-1.61-1.33q12.53-2.87 26.04-4.97l-1.19 4.55"/><path fill="#b9c3c9" d="M479.523 60.83q24.71 18.2 36.54 25.9 14 9.17 21.91 22.68 3.71 6.23 14.49 13.51 12.04 8.12 24.5 11.2 5.95 1.54 10.57 5.39l19.951 15.821 2.03 12.95-11.34-8.12q-6.37-4.2-9.1-5.6-4.83-2.52-9.24-6.65-3.85-3.78-6.02-5.18-3.5-2.17-7.49-2.17l-10.01-.98-4.2-.56q-2.87-.35-4.55-1.54l-10.71-6.44q-9.24-5.39-11.13-6.72-1.68-1.12-2.38-2.17l-1.26-2.59-2.66-6.86q-1.54-2.8-4.41-5.53l-18.48-17.5-16.66-16.1q-2.45-2.45-2.45-5.81l.14-5.95q.07-1.19.49-1.4.42-.28 1.47.42M629.534 185.431l-8.75-2.1 6.51-2.52 2.24 4.62M564.364 181.861l-6.09.98q-1.61-.14-7.91-6.02-6.16-5.67-6.72-7.14-.63-1.54-.63-4.9 0-2.24 2.38-2.24l12.53-.14 2.1.28 1.54 1.12q5.6 5.18 10.85 14 .91 1.54.42 2.17l-2.31.63-6.16 1.26"/><path fill="#b9c3c9" d="m578.434 189.491-19.39-6.86 13.37-2.52q11.55 2.45 15.96 4.9l5.81 3.01q2.94 1.4 4.83 1.33l10.43-1.47q9.52-2.24 19.04-1.89l-14.42 5.39-12.39 4.55-5.11.21-18.13-6.65M617.494 277.972q.07 2.38-5.67 3.99-4.9 1.33-10.01 7.77-5.04 6.44-7.49 14.49-5.74-14.14-15.75-25.9 8.47 2.59 20.16 2.31 10.71-.21 18.76-2.66M593.484 309.262q-1.33 6.16-.21 13.23t4.06 12.18q3.78 6.3 5.04 9.94.77 2.31.14 3.01l-2.59.14q-3.92-.91-10.08-3.92-5.95-2.87-10.36-5.88 3.01-7.7 3.29-18.55 1.33-4.97.91-10.36-.42-5.46-2.52-9.94 8.33 5.46 12.32 10.15M462.933 284.762q-.63 2.52-3.15 4.06-3.71 2.24-6.3 4.55l-7.98 9.1-7.77 9.45q-1.05 1.47-1.96 4.69l-1.89 6.72q-8.82.42-18.41 3.43l-2.1.21q-.56-.21-1.26-1.54-10.64-18.34-15.68-25.76 18.2 4.69 36.54 5.25 2.59.07 4.13-.84l2.52-2.8q5.11-7.21 13.51-16.87 9.1-10.5 14.84-15.4-2.45 6.37-5.04 15.75M498.913 264.952q7.56 3.15 20.09 9.8 11.06 5.88 17.36 9.8-6.93 4.9-13.09 13.93-5.74 8.47-7.49 15.47-1.19 4.76-.7 14.28.42 10.29 2.59 19.53.91 3.64-1.75 4.48-2.59.77-3.99-1.54-5.11-8.82-15.26-15.96-10.01-7-22.19-10.43l9.94-10.5q8.75.35 13.65-1.89 5.39-2.52 7.49-8.61 2.31-6.65.49-18.76-1.96-12.74-7.14-19.6M580.604 394.383q13.65 2.1 31.22 17.57 19.18 16.87 21.21 33.04-4.62 8.19-11.62 17.64-6.93 9.1-13.79 16.31 2.38-11.13 3.64-22.19 1.54-13.58.42-19.53-2.17-11.27-12.6-21.56-9.59-9.38-18.2-11.13.35-6.58-.28-10.15M456.143 420.213q-.63-7.98-7.14-15.54-4.9-5.67-13.72-11.62l-.21-5.25q9.24 2.87 17.99 10.22 8.75 7.35 11.2 14.28 2.1 6.02 3.71 21.98 1.68 17.43.77 29.68-2.94 10.64-6.65 19.88-4.06 10.01-7.91 15.61-1.19 1.82-2.17 1.75-1.05-.07-.98-2.24l.56-38.5q2.45-2.87 3.57-5.32 1.26-2.66 1.33-5.74.56-16.73-.35-29.19M454.603 378.002l-7.07-7-26.53-.77q-9.52-1.96-19.81-9.17-3.36-2.38-6.44-3.5l-7.77-1.96-35.91-6.86q-25.83-5.11-35.14-8.19-10.991-3.64-18.411-7.35-5.11-2.66-12.18-7.35-8.05-5.32-28.07-16.87-23.17-13.3-30.59-16.17l-2.8-1.68-1.12-2.38-5.53-13.09q14.56 3.29 34.86 12.39 17.43 7.84 27.09 14.21 19.46 12.81 39.9 19.6l15.89 4.76q9.24 2.73 14.77 4.9 8.47 3.36 19.6 8.05l16.59 7.28q4.48 2.17 8.19 2.59l6.16-.28q2.8-.49 7.77.98 4.62 1.4 8.33 3.57 4.06 2.38 12.25 4.62 9.31 2.52 16.31 2.52l4.13.42 2.661 1.68q10.5 9.73 18.2 15.47 9.66 7.21 18.06 10.43-2.38.49-4.13 4.27-1.89 4.27-.77 9.24-3.92-2.8-5.95-5.81-3.36-4.76-6.51-5.95-1.75-.63-4.48-2.38l-4.27-3.22-7.28-7M424.503 327.672q3.78 5.39 12.04 11.9l-6.58-1.4-5.81-1.89-3.5-3.71q-1.61-1.54-.21-2.45l4.06-2.45M455.933 337.752l10.22.63q3.36 1.26 4.83 5.32l1.12 2.31 1.33 1.4q-5.25-.49-10.22-3.29-4.76-2.66-7.28-6.37M482.183 356.302q2.73 2.52 4.83 6.16 1.75 3.01 5.67 5.6l4.9 3.85 5.04 4.83q-1.47-.84-7.21-1.75-2.38-.42-5.46-1.82-3.08-1.4-5.11-3.01-2.8-4.13-2.66-13.86M490.513 390.323q2.52 1.4 6.23 1.75l6.09-.56 2.8 3.36.35 1.75-5.95.35q-3.15 1.12-5.11 3.99-2.59-7.56-4.41-10.64"/><path fill="#b9c3c9" d="M484.423 392.353q7.42 10.5 12.46 29.05-9.38-11.27-12.46-16.38-2.1-3.57-2.03-7.21.07-3.5 2.03-5.46M501.433 381.502q15.4 14 22.54 28.42-15.05-12.53-18.34-15.05-3.36-2.52-4.48-6.72-1.05-3.78.28-6.65M507.313 402.363q-1.26-.84-2.45.49-1.19 1.33-.35 3.08 2.03 4.27 6.09 9.94-9.17-6.16-14.49-10.92l-1.12-3.78q1.75-3.08 4.62-4.34l6.51.21 1.19 5.32M406.373 495.183q.49.56 3.29 11.69 3.08 12.53 4.9 17.15-1.75 4.41-4.34 7.21-1.82-8.89-2.87-18.97-.98-9.66-.98-17.08"/><path fill="#b9c3c9" d="M391.113 547.404q10.22 8.96 18.97 14.77 6.02 3.99 8.89 2.66 2.73-1.19 3.36-7.63 1.4-15.12.7-27.23-.84-15.54-5.11-23.31 6.44 2.24 8.68 25.83 2.24 23.17-2.03 38.92-1.19 4.34-4.69 2.45l-15.61-9.24q-9.17-6.09-12.6-10.01-.98-1.12-1.05-2.59-.07-1.12.49-4.62M615.814 536.694q9.03 1.19 16.1 3.15 7.42 1.96 9.73 1.19 2.1-.77 1.89-4.97-.21-4.97-1.05-9.31 4.2 13.51 4.2 20.23 0 2.17-1.89 1.33-3.57-1.54-10.99-3.5-8.75-2.24-13.93-2.38l-4.06-5.74M562.124 485.103q2.59 9.03 12.25 22.26 10.43 14.35 18.27 17.15-6.16.42-10.85-1.26-4.2-1.47-7.7-5.81-2.66-3.43-6.93-12.6-3.78-8.19-6.23-14.91-.7-1.96-.42-3.22.35-1.26 1.61-1.61"/><path fill="#898885" d="m552.184 144.76 6.58-4.55 7.56.35q3.22-.14 6.79 1.82 3.43 1.96 6.72 5.531l-3.36 2.66q-4.06.7-12.11 3.43-8.89 3.01-15.47 6.23 1.4-3.71 4.27-7.91 4.83-4.69 10.5-7l-5.18-.7-6.3.14"/><path fill="#c9caca" d="M563.244 192.641q.63-3.5 2.8-7.21 15.12 4.97 23.73 8.4-6.37 4.83-11.69 10.64-5.6 6.09-8.12 11.13v-6.16q0-3.57.35-6.16-2.73 2.38-7.56 4.62l2.73-7.56q2.1-5.11 3.64-7.98l-5.88.28"/><path fill="#898885" d="M542.104 168.701q4.41 5.53 9.45 9.8 5.53 4.55 7.91 4.27l7 2.59-1.47 2.38q-8.68 5.53-15.61 14.77-7.7 10.36-8.12 19.11-.42 9.87 3.22 23.66 3.85 14.7 10.01 23.8-3.01-.77-6.23-2.52-3.01-1.61-4.55-3.22-5.04-7.21-7.7-19.95-2.59-12.32-1.54-22.47.91-8.68 3.36-15.68 2.31-6.86 7-14.56-3.85-9.52-2.73-21.98M580.184 385.913q6.16 47.53-28.98 68.25-15.26 9.03-36.12 11.13-20.09 2.03-41.79-2.59l-6.16 7.21q2.87-11.48 6.16-28.35l4.2-23.1q3.22 5.95 4.41 16.73 13.16 4.62 29.47 3.85 16.52-.7 31.15-6.72 15.75-6.51 25.41-17.64 10.78-12.39 12.25-28.77"/><path fill="#898885" d="M533.003 473.273q-5.81-5.25-14.77-8.61 29.26-5.11 44.73-18.97 16.94-15.12 17.92-41.16 11.76 3.29 21.14 14.07 11.481 13.23 10.501 30.03-6.65 7-15.26 10.29-7.84 3.08-19.46 3.71-8.05.42-12.95 3.5-4.69 2.94-5.25 7.49-4.83-.14-9.87 4.48-5.46 5.04-5.46 11.41-4.76-10.29-11.27-16.24"/><path fill="#898885" d="M544.834 507.153q-3.01 2.03-14.07-3.43-11.76-5.88-16.52-13.3 9.8 2.24 15.54-2.45 5.6-4.62 4.41-13.16 7 6.02 10.78 17.92 3.78 11.76-.14 14.42"/><path fill="#898885" d="m548.404 514.363-5.6-6.72q2.38-.14 3.78-2.59 3.92 5.25 6.09 9.24 1.26 2.31 1.05 3.64-.21 1.19-1.96 2.52-5.39 4.2-1.4 4.69 26.32 3.22 45.43 10.36-.42 2.52-.28 6.65-12.88-4.34-27.65-7.98-13.86-3.43-23.87-4.83-6.51-.98-2.73-4.97.91-.98 6.93-6.23 1.89-1.82.21-3.78"/><path fill="#dcdddd" d="M595.514 542.154q-.14-4.13.28-6.65 21.91 8.19 28.21 19.67-7.84-6.09-28.49-13.02"/><path fill="#898885" d="M456.003 452.483q-1.12 4.83-4.41 7.98l-.49 16.73-10.36 3.01-9.45 1.75q0 11.9-5.95 21l-7.63 4.48-1.12 8.05q-.91 5.18-2.17 8.19-3.64-11.2-6.65-26.11-.42-2.17-1.26-2.45-.77-.28-1.68 1.47-3.15 6.3-5.95 14.28-3.22 8.96-4.55 16.1-1.26-4.41-3.78-7.21-2.31-2.59-4.97-3.15l1.26-2.59q-3.64-5.6-6.58-14.56-3.08-9.24-3.08-15.05 4.76 3.71 12.25 3.01 7.49-.77 11.06-5.46l2.59-10.29q-17.85-17.57-8.82-43.61 10.08 14 29.89 17.85 19.04 3.64 32.9-4.27-.35 7.7-1.05 10.85"/><path fill="#dcdddd" d="M358.562 571.274q2.03-8.05 6.72-14.98 4.97-7.28 11.83-11.48.56 6.65-.21 9.59l-.91 2.45-2.52 1.61q-4.55 2.1-9.59 7.77-4.48 5.04-5.32 5.04"/><path fill="#898885" d="M377.112 544.814q6.93-4.27 14.77-4.55-.77 4.27-1.68 12.25-3.08.14-7.21 1.26-4.55 1.33-6.93 2.94.98-2.45 1.26-5.74.35-3.36-.21-6.16M604.474 308.982q5.95 4.2 12.74 6.3-3.64 9.66 2.45 12.25-.84 2.17-5.04.63-4.34-1.75-7.49-3.5-2.94-1.75-3.64-6.72-.7-4.69.98-8.96M653.334 350.912q3.22 6.02 7 11.62-1.61 1.26-2.8 3.08-1.26 1.89-1.4 3.15-.07 2.66.84 6.02-2.73.42-5.04-2.45-2.73-3.43-4.41-6.65-1.82-3.36-.7-6.3 1.89-4.9 6.51-8.47M262.032 411.323q-2.8 9.52-1.75 24.29 1.33 17.71 8.19 29.96-5.04-.07-19.95-3.01t-17.5-4.34q-3.85-2.1-5.32-23.66-1.54-23.17 4.2-34.65 6.3 3.36 15.61 6.58 8.19 2.8 16.52 4.83M293.042 460.743q-9.03 2.38-15.82 3.43-4.34-8.26-6.09-22.4-1.96-15.89 1.33-27.37 16.59 5.04 30.8 7.49-1.19 7.42-.7 15.12.7 10.29 4.34 19.32-4.55 1.96-13.86 4.41"/><path fill="#c9caca" d="M259.932 440.513q-1.75-14.42 2.24-27.79 6.37 2.31 10.36 3.15-3.36 11.06-2.52 21.35.91 11.62 7.21 26.95l-6.65 1.75q-2.1.49-3.64-2.17-5.46-10.5-7-23.24M320.622 449.963q.56.91.35 1.33l-1.4.91-12.39 4.34q-3.71-6.44-4.9-15.61-1.4-10.01 1.19-17.71l6.72 2.03 6.72 1.96q-1.05 5.39-.35 10.92.91 6.37 4.06 11.83"/><path fill="#898885" d="M217.791 479.363q3.15-20.02 9.8-32.76.42 3.64 1.4 7.21 1.05 3.78 2.03 4.41 1.12.77 17.85 4.41 17.15 3.78 19.67 3.57 3.92-.35 7.84-1.75 10.5-2.17 22.681-5.67 12.81-3.64 19.88-6.58 1.54-.63 1.75-1.4.28-.63-.35-2.1-4.41-9.87-2.87-22.68 12.6 7.98 37.17 7.63 23.73-.35 40.74-7.84-2.1 6.37-3.08 12.67-1.12 7.21-.21 11.97l-9.45-4.2-4.55.21q-7.21 5.25-15.96 8.96-8.61 3.71-16.59 5.04-2.1.35-3.57 1.19l-2.59 1.75-17.99 13.93-17.5 12.67q-2.03 1.33-3.57 1.68l-3.99-.42q-23.94-8.96-40.25-10.22-13.72-.98-33.04 3.22-3.01.63-4.41-.63-1.33-1.26-.84-4.27M334.482 396.553q-2.66 4.2-3.78 9.17-.98 4.62-.42 8.89l-7.56-5.6q2.38-4.06 5.74-7.56 3.15-3.29 6.02-4.9"/><path fill="#898885" d="M341.342 462.213q2.03-1.12 5.32-1.89 4.69-1.05 11.76-3.64 7-2.59 12.46-5.32-5.81 11.69-18.69 15.96-11.55 3.85-16.52-.56 3.64-3.36 5.67-4.55M323.772 475.513q10.15 4.2 20.3 2.31-6.79 3.43-15.54 5.81-10.5 2.8-19.81 2.8l15.05-10.92"/><path fill="#898885" d="M347.432 476.423q8.19-2.1 14.91-9.8 6.3-7.14 9.17-16.31 3.71-2.03 7-4.55-2.24 6.37-2.59 10.57l-.56 11.2-.49 9.45q-.35 4.76-5.39 3.43-12.6-3.29-22.05-3.99"/><path fill="#c9caca" d="M335.182 466.763q5.74 3.5 15.12.77 10.5-3.01 19.81-12.67-7.77 15.89-19.81 21.14-11.83 5.11-26.53-.49l11.41-8.75"/><path fill="#b9c3c9" d="M505.633 280.212q3.36 20.37-2.59 28.21-5.11 6.79-18.41 5.04l-11.06 11.69q-2.87 3.15-7.28 4.83-4.27 1.61-8.12 1.05 3.99-3.5 3.92-4.2-.07-.42-1.68-1.54-1.54-1.05-2.24-1.19l-3.08.84q-2.45.91-4.55 2.1.42-12.18 1.54-15.61 2.03-6.3 10.5-14.63 18.27-4.41 22.19-4.97 2.8-.42 5.46-2.17l5.04-4.06 4.55-2.87q3.15-1.68 5.81-2.52M467.973 269.572q4.83-4.69 14.77-5.6 8.68-.84 16.52 1.26 2.52 3.29 3.92 7.42-9.31-5.74-20.02-4.41-11.27 1.4-17.78 10.36l2.59-9.03"/><path fill="#c9caca" d="M515.573 11.48q-3.92-5.25-11.48-9.8 9.94 3.22 17.78 11.83l-6.3-2.03M464.613 7.63q20.72.98 39.48 20.23-4.06-1.12-8.47-1.47-4.83-5.25-12.39-10.15-9.31-6.09-18.62-8.61M569.684 84.91q-3.22-4.55-10.29-6.16-11.27-2.52-19.53-7.35-9.59-5.53-19.6-16.38-10.08-10.92-18.27-16.52-10.71-7.28-23.1-9.38 12.6-1.61 26.39 4.34 14.28 6.23 23.17 17.99 7.49 9.94 15.12 15.05 6.65 4.48 16.94 7.42 6.72 1.96 11.06 6.09 4.69 4.41 5.11 10.01.35 3.99 2.8 8.82 1.96 3.85 5.88 9.17l10.15 11.62q6.23 7.35 8.47 11.69l-5.32-2.66q-2.94-4.27-7.63-9.73l-8.05-9.31-6.44-7.84q-2.52-3.5-3.36-7.21-1.4-6.58-3.5-9.66M628.974 179.831q-3.71 2.45-8.19 3.5l-4.27-.77q-1.89-3.92-1.05-9.66 2.24 3.15 7.21 3.92 5.18.77 10.29-1.47-.35 2.03-3.99 4.48"/><path fill="#dcdddd" d="m599.714 171.501-1.26 5.18-2.73-1.75q1.26-2.87 3.99-3.43M607.134 173.321q-1.12 3.57-1.4 6.02l-3.29-1.05q2.59-4.41 4.69-4.97"/><path fill="#c9caca" d="M594.324 304.222q4.9 4.13 9.8 6.58-1.05 5.18-.28 9.17l-10.99-5.04.63-5.67 3.85 4.48q-.63-4.27-3.01-9.52M633.034 327.952q4.69 5.18 18.2 24.36-2.94 3.71-3.99 6.44-16.24-23.59-19.11-26.11-1.61-1.33-4.9-3.22-3.08-1.82-4.69-2.45-1.68-.63-2.24-3.15-.7-2.8.63-6.37 4.41 1.75 9.31 5.04 4.48 2.94 6.79 5.46M656.064 368.342q.35-1.47.84-2.31.77-1.12 2.52-2.1 3.15 4.48 10.92 7.49 8.47 3.22 16.17 1.96.21 3.43-.07 4.41-1.26-2.1-2.73-1.89-.98.21-2.87 1.33-2.38 1.4-3.92 3.01 0-3.78-2.24-6.02-1.96-1.96-4.76-1.82-2.8.14-4.55 2.45-1.89 2.59-1.4 6.79-2.17-.98-3.29-1.68-2.03-1.19-2.66-2.73-.84-1.96-1.47-4.76-.77-3.01-.49-4.13M675.244 388.783l1.54-5.88 3.71 6.51-5.25-.63"/><path fill="#dcdddd" d="m668.734 408.243-.7-6.37q3.36-4.2 7.42-13.09l3.71.63-1.68 6.86q-4.55 7.14-8.75 11.97M669.924 372.752q.49 7.7-.49 15.47-1.05 9.03-3.92 16.31l-.56-13.02-.77-11.62q-.28-2.8 1.05-4.76 1.54-2.31 4.69-2.38M676.924 380.242l3.5-3.01q6.79 13.79 7 27.65l-5.11-11.76q-3.08-6.51-5.53-10.22l.14-2.66"/><path fill="#c9caca" d="M174.461 309.332q2.24 4.27 7.49 17.01 5.39 12.95 7.28 16.59 1.75 3.36-.63 3.85-2.31.42-3.78-2.66-4.27-9.24-10.36-34.79M137.36 287.422q6.02 6.65 12.881 19.25 7.07 12.74 10.57 23.66.91 2.87-1.4 3.85-2.24.91-3.5-2.45l-7.56-20.09q-5.67-14.42-10.99-24.22M137.22 308.912l13.021 30.87q8.89 19.81 16.59 31.29 2.17 3.29-.14 4.83-2.31 1.47-4.62-2.38-6.16-10.29-13.09-27.51-8.05-20.02-11.76-37.1M118.53 383.673l-5.39-6.3q-2.66-2.8-5.18-4.2l-37.8-20.51-13.3 4.55-3.64.42q-1.4-.35-2.94-2.17-16.03-20.16-30.59-31.36 7.28 2.66 17.43 10.64 8.54 6.72 14.91 13.72 1.33 1.4 3.29 1.4 1.33.07 3.57-.7 4.83-1.61 12.32-2.73l8.82-.63q2.73.7 10.71 5.53 8.82 5.18 16.8 7.98 4.13 1.4 8.89 1.68l7-.14q5.11-.35 9.52 1.89 3.64 1.75 9.38 6.86 18.831 16.52 42.071 28.14 21.63 10.85 42.28 15.26-.91 7.7-.84 16.38.07 10.5 1.68 18.2-3.22 4.27-6.23 15.26-2.8 10.01-3.43 17.71-.14 2.17 1.12 3.15 1.4 1.12 4.06.56 18.34-4.06 27.37-3.29-8.12 9.45-20.79 18.34-13.79 9.73-28.84 15.75l4.27-13.3q-10.5 8.75-28.49 17.29.98-7.63 3.78-20.23 2.87-12.74 5.67-21.7-3.01 3.22-10.85 8.75l-10.43 6.86q.91-8.26 4.9-17.64 4.2-10.01 11.13-19.53-8.12-5.18-13.44-6.09-3.15-.56-5.67-2.17-2.73-1.75-5.32-5.18l-11.27-14.77q-7.42-9.31-12.25-13.79-2.17-1.96-3.36-3.92-.91-1.54-1.89-4.34l-3.92-10.08-5.11-11.55M223.741 358.612q14-.28 18.48 1.68 4.76 2.17 8.4 6.93l-2.45 2.94-3.57-3.64q-2.1-1.82-3.92-2.24l-6.02-.7q-4.2-.28-8.33 0l-2.59-4.97"/><path fill="#898885" d="M371.862 409.993q6.23 4.48 8.96 9.94-12.32-1.33-20.23-15.19 5.53 1.19 11.27 5.25"/><path fill="#dcdddd" d="M426.813 540.334q16.24 8.82 19.32 23.94-10.5-11.55-19.18-12.25.35-4.83-.14-11.69M645.074 534.803q8.82 4.41 11.83 8.61l-4.76-.98-5.88-1.12-1.19-6.51"/><path fill="#c9caca" d="m609.864 169.191 5.11 4.27q-.21 1.75.21 4.55.42 2.59 1.05 4.48l-4.69-1.05q-1.26-6.58-1.68-12.25M577.874 152.251l-1.4-1.68 3.36-2.66q2.03 2.1 6.02 4.69l5.25 2.94.07 1.96q-8.33-2.94-13.3-5.25"/><path fill="#efefef" d="m461.603 328.162-8.61 7.63-6.37-1.33q-3.71-1.33-5.81-2.87 12.74-5.95 15.96-7.14 1.61-.56 2.45 0l2.45 1.54q1.19.98-.07 2.17"/><path fill="#898885" d="M582.564 318.082q.21 3.78-.7 10.5-2.94-10.15-11.2-20.86-1.68 6.16-8.75 11.97-6.02 5.04-13.58 8.05l-2.94.49q-.49-.42-.07-2.66.84-4.69.42-7.49l-3.71 5.11-2.8-2.8q6.02-7.42 8.4-14.42 1.61 2.45 2.1 7.91.42 5.11-.35 9.8 7.98-4.13 13.02-14 4.2-8.19 4.76-16.1 4.34 4.41 9.03 12.25 3.57 6.02 6.37 12.25"/><path fill="#c9caca" d="m525.023 335.022-3.29.28q-.56-.49.14-2.87 1.61-5.25 2.1-12.25-2.45 2.31-4.9 3.57l-4.34 1.89.21-5.95q2.17-.91 6.58-4.2l6.37-5.46q.91 3.57.28 10.15-.63 7.07-2.59 10.85 6.09-1.61 13.65-10.64l2.8 2.8q-7.56 9.03-17.01 11.83"/><path fill="#0f141b" d="M609.234 168.211q-2.1 1.05-5.04 1.4l-6.16-.28q-3.78-.77-6.44-5.11-2.66-4.41-2.17-9.59l2.8 1.75q-.42 3.71 1.4 7.07 1.89 3.43 4.83 4.13l4.34.14q2.59-.35 4.27-1.26l2.17 1.75"/><path fill="#0f141b" d="m600.134 161.841 1.05.77-.84 1.4-.91.14q-.35-.21-.14-1.05.21-.84.84-1.26M544.904 161.351q6.65.42 13.23-.14l2.03.07 1.26.91 5.53 5.88q4.41 5.18 6.72 9.8.98 1.96.49 2.8-.49.84-2.8 1.12l-10.92 2.03-2.66.14q-1.12-.21-2.73-1.26l-6.16-5.11q-3.99-3.78-6.09-6.86-.7-1.05-1.05-3.15l-.07-3.71q.14-1.54.7-2.03.7-.56 2.52-.49m-.14 8.05q1.96 2.94 5.88 6.51l5.95 4.83 1.75.91 1.96-.07 11.41-1.75q.84-.07.42-.77-2.24-4.48-6.51-9.73l-5.39-5.88q-.63-.63-1.61-.56l-13.86.56q-.7 0-.77.49-.28 3.92.77 5.46"/><path fill="#0f141b" d="M572.904 179.481q8.89 1.61 15.12 4.69 1.61.84 1.4 1.33l-1.82-.14q-7.35-2.87-16.24-4.2l1.54-1.68M611.054 188.581q-5.32 1.33-11.62 1.33-1.47 0-1.47-.42t1.4-.56l5.46-.7 5.95-1.33q5.67-1.26 9.03-.98 1.33.14 1.33.49t-1.33.49l-8.75 1.68"/><path fill="#0f141b" d="M542.664 161.631q6.51-3.36 16.24-6.93 8.89-3.29 15.68-5.11l2.31-.14 1.61 1.47 16.87 22.05 2.38 2.31 2.8 1.19q11.69 4.34 27.93 7.98 2.1.42 2.1 1.33 0 .84-2.03 1.4-2.87.77-14.42 5.32l-12.67 4.9-2.59.56-2.59-.56q-9.24-3.85-39.13-13.65l3.92-1.26q30.8 10.36 36.19 12.6l1.82.35 1.75-.49q23.38-8.4 25.41-9.03-17.01-3.78-26.46-7.28-2.17-.77-3.29-1.54l-2.87-2.66-16.94-21.77q-.7-1.05-2.1-.7-6.16 1.68-13.86 4.48-8.26 3.01-14.84 6.16l-3.22-.98"/><path fill="#0f141b" d="M577.104 150.851q-3.08 4.2-6.44 6.37-1.19.77-1.54.42-.35-.28.84-1.33 2.94-2.59 5.32-6.02l1.82.56M558.624 161.561l7.07-2.38 1.54-.14-.98 1.05q-3.15 2.03-5.95 2.94l-1.68-1.47M596.914 159.461l1.26.84q-.91 1.47-.77 2.94.14 1.33 1.05 2.03l2.52.35q1.54-.35 2.1-1.61l1.33.7q-.77 1.61-2.94 2.1-2.1.49-3.71-.56-1.33-.91-1.68-2.8-.35-2.03.84-3.99M601.534 172.621q.84 2.17 1.26 5.32l-1.96-.49-.63-3.64-.7-1.82q-.7-.14-3.15 3.22l-1.33-1.33q1.54-1.89 2.94-2.8 1.33-.91 1.96-.77.77.14 1.61 2.31"/><path fill="#0f141b" d="M608.044 179.901q-.7-5.67-1.05-5.74l-3.71 4.2-1.82-.7q4.13-5.67 5.95-5.32.77.14 1.47 2.38.77 2.38.98 5.67l-1.82-.49M575.704 150.081l2.73-3.01 1.68 1.82-2.24 2.52-2.17-1.33M620.084 173.671l.98 2.87-.14.63-.49-.42-1.4-2.52q-.42-.77.07-1.05.49-.35.98.49M629.744 180.951q-3.78 2.1-7.63 2.87l-3.64-1.19q3.99-.56 8.47-2.8 4.55-2.31 4.83-3.92.56-3.08-3.99-9.1-1.05-1.33-.63-1.68.42-.42 1.68.77 2.66 2.59 4.2 5.67 1.61 2.94 1.26 4.76-.42 2.24-4.55 4.62"/><path fill="#0f141b" d="M628.834 185.921q-.98-2.31-2.94-4.27l1.89-.91q1.96 2.24 2.73 4.83l-1.68.35M604.334 132.51q5.32 24.431 6.3 36.751l-2.38-1.26q-1.26-13.23-5.88-35.07-.42-1.89.49-2.52.84-.7 2.31.28l3.85 2.8q1.26 1.05 1.89 2.87 4.97 14.7 10.78 27.79.91 2.03.35 2.24-.56.28-1.61-1.68-5.81-11.27-11.41-27.58-.7-1.82-1.12-2.17l-3.57-2.45"/><path fill="#0f141b" d="M583.334 135.66q3.08 1.61 7.63 5.39 8.05 6.791 16.52 12.671l.35 3.15q-6.16-4.34-18.13-14.42-4.55-3.92-7.14-5.46-2.66-1.61-5.95-2.31-1.47-.35-1.4-.84l1.61-.28q3.43.49 6.51 2.1M593.764 95.41q-.14.07-.07.35.77 3.22 5.39 16.38l6.86 20.09h-2.45l-11.62-36.05q-.63-2.73.49-3.36 1.05-.63 2.73 1.19 7.07 7.49 19.39 24.36 11.55 15.75 12.74 18.83.91 2.45.42 13.161-.42 8.05-1.12 14-.14 1.68-.91 2.03-.7.35-2.17-.56l-2.66-1.89-1.33-3.5q2.87 2.52 4.76 3.57.42.35.42-.21l.84-14q.28-9.8-.49-11.9-1.05-2.8-12.6-18.76-12.11-16.73-18.34-23.45l-.28-.28"/><path fill="#0f141b" d="M618.264 115.85q11.34 18.41 12.6 27.3 2.24 15.751-.14 25.691l-1.47-1.33q.84-5.81.35-13.09l-1.19-10.92q-1.26-8.89-12.6-27.02-10.36-16.38-16.52-21.98l-9.38-8.26q-4.83-3.85-9.24-6.44-1.61-.98-1.54-1.54l1.75.14q9.59 4.34 20.16 14.07 6.72 6.16 17.22 23.38"/><path fill="#0f141b" d="M577.524 58.1q1.12 6.93 4.34 13.58 3.57 7.42 8.96 12.81l-4.62-2.1q-8.82-9.66-11.13-23.87-.7-4.2-2.31-7.63-1.61-3.64-5.04-8.12-13.72-18.27-27.93-27.79-15.05-10.01-34.09-12.67 8.12 4.2 12.25 9.52l-3.5-.42q-2.66-3.01-6.09-5.32-3.15-2.03-8.05-4.2-1.61-.7-1.33-1.33.21-.63 1.96-.56 21 .7 38.15 11.27 16.03 10.01 30.59 29.96 3.57 4.9 5.32 8.68 1.82 3.92 2.52 8.19"/><path fill="#0f141b" d="M519.283 13.58q-9.52-3.78-25.69-5.39-15.12-1.47-26.11-.21 8.89 2.59 16.87 7.56 7.77 4.83 13.37 11.06l-3.36-.07q-5.67-5.81-13.23-10.22-7.21-4.13-17.36-7.7-1.33-.42-1.33-.98 0-.63 1.54-.98 10.5-2.52 27.23-1.05 17.43 1.54 28.63 6.51 2.59 1.12 2.38 1.82l-2.94-.35"/><path fill="#0f141b" d="m602.024 130.13-2.94-1.26q-25.27-25.69-26.81-34.51-1.05-6.23-4.55-9.59-3.71-3.57-11.83-5.53-10.78-2.59-19.04-7.91-8.26-5.39-17.64-15.89-9.38-10.43-17.29-15.82-10.92-7.42-23.94-9.1-1.82-.28-1.82-.91-.07-.7 1.26-1.4 4.76-2.52 11.62-2.87 7.14-.42 13.72 1.68 2.03.7 1.89 1.33l-2.17.14q-11.62-2.66-21.7.42 12.46 2.17 23.24 9.38 8.19 5.53 17.08 15.4 9.24 10.36 17.08 15.47 7.84 5.18 18.34 7.7 9.38 2.24 13.23 6.51 2.87 3.22 4.48 10.71 1.54 6.72 27.79 36.05"/><path fill="#0f141b" d="M581.304 115.85q-11.83-10.08-20.93-19.18-7.98-8.12-16.59-11.83-26.81-11.48-65.17-43.89l-.14 3.92q0 .84.77 1.89l10.43 13.79 13.37 17.29-5.32-3.01q-11.13-14-20.23-26.95-1.12-1.54-1.12-2.94l.14-4.27q0-1.89.91-2.24.91-.28 2.45 1.05 13.37 11.27 27.16 21.07 21.35 15.05 37.66 22.05 9.03 3.92 17.43 12.46 8.75 8.75 20.58 18.9 11.62 9.94 21.42 17.15l-.56 2.31q-10.43-7.49-22.26-17.57"/><path fill="#0f141b" d="M478.963 68.6q.21 2.1 1.05 3.08 4.13 5.04 17.57 17.85 10.57 10.08 18.2 16.87 3.29 3.01 5.11 7.35l2.45 6.16.84 1.47 1.89 1.47 22.12 13.51q1.75 1.12 3.64 1.33l5.18.98 5.53.7 7.84.56q5.25 1.54 9.73 6.581l2.59 2.66 3.57 2.59q7.07 3.85 15.4 9.66 9.731 6.72 13.931 11.27l.21.49q.21 5.18 1.54 9.17l-2.31-.28q-1.26-3.5-1.47-8.12-4.2-4.48-13.44-10.99-7.84-5.46-14.84-9.38-3.57-1.96-6.79-5.6-2.24-2.45-4.13-3.71-2.03-1.4-4.62-2.1l-7.28-.56-6.02-.77-5.11-.7q-2.45-.14-4.41-1.33l-22.26-13.79q-1.54-.91-2.24-1.82-.7-.84-1.19-2.24l-2.45-6.23q-1.54-3.57-4.69-6.37l-18.2-16.94q-13.51-12.95-17.71-17.92-1.47-1.82-1.61-4.69l-.28-6.72q0-2.24 1.05-2.8 1.05-.56 2.73.7 23.45 17.57 36.4 25.97 2.03 1.33 1.61 1.96-.42.7-2.45-.56-14.14-8.68-36.26-25.2-.56-.49-.56.07l.14 6.37"/><path fill="#0f141b" d="m560.654 140.7-13.51 8.541q-5.81 4.06-8.4 7.35 5.39-2.66 13.79-4.9 2.73-.77 1.12 1.47-2.45 3.5-4.13 7.56l-2.52.91q1.47-4.06 4.06-7.7-6.65 2.03-13.93 5.6-3.01 1.54-1.61-1.54 1.96-4.13 8.82-9.24 4.55-3.43 13.51-8.82l2.8.77M565.694 185.151l1.89.35q-1.82 2.66-3.22 6.09l5.11-.07q1.4 0 .63 1.26-4.06 7.42-5.95 13.65 3.57-1.89 5.88-4.13l.21 2.24q-2.94 2.52-7 4.62-2.38 1.12-1.68-1.4 1.33-4.76 6.44-14.63l-4.83.49-1.26-.07q-.21-.35.07-1.4 1.26-3.43 3.71-7"/><path fill="#0f141b" d="M591.454 194.251q-4.27 3.01-13.02 16.1-7.98 11.9-8.61 11.76-.84-.21-.98-7.84-.14-7.91.91-12.25.49-1.96 1.12-1.82.7.14.42 2.1-1.05 7.98-.56 16.66 5.39-9.66 8.75-14.49 5.11-7.42 9.94-11.06l2.03.84M564.434 189.771q-18.48 13.86-21.42 29.54-3.5 18.55 11.97 47.95 1.26 2.45.63 3.22-.7.84-3.36-.49-13.3-6.44-22.75-15.19-10.36-9.59-12.46-18.76-2.59-11.27 2.1-29.82 6.37-25.13 23.94-39.83l.21 2.73q-15.96 14.49-21.7 38.57-4.2 17.43-2.03 27.79 1.82 8.4 12.04 17.92 9.24 8.61 20.51 13.86-15.47-30.45-11.06-50.26 3.92-17.57 24.99-31.5l-1.61 4.27M537.764 157.151q-18.27 10.57-33.81 32.62-15.54 22.05-21.42 45.78l-3.01-1.4q6.23-24.78 22.75-47.32 16.73-22.89 36.61-33.11l-1.12 3.43M594.604 310.942q-1.61 13.16 3.71 22.75 4.13 7.63 4.97 10.57 1.05 3.5.07 4.41l-4.41-.07q-9.03-2.52-19.88-8.96l.98-2.45q11.76 6.93 19.25 9.1l1.89.14q.28-.35 0-1.75-.35-1.61-1.82-4.41l-3.15-5.74q-2.94-5.67-3.92-12.6-.98-6.79 0-13.65l2.31 2.66"/><path fill="#0f141b" d="M549.594 216.931q16.52 10.99 28.28 16.8 6.3 3.15 11.83 8.89l15.47 17.01q8.33 9.59 12.46 15.33 3.92 5.53-2.66 7.14-7.28 1.89-12.67 8.96-5.04 6.58-7 15.821l-1.75-4.55q2.45-8.54 7.56-14.42 5.6-6.37 13.37-8.4 1.47-.42 1.61-1.12.21-.63-.77-2.03-3.99-5.53-12.32-14.98-7.7-8.82-15.4-16.73-5.11-5.32-10.99-8.26-12.32-6.23-28.21-16.8l-2.1.07q-3.08 2.1-5.25 3.92l-.21-3.5 3.99-2.94q1.47-1.05 2.38-1.05 1.05-.07 2.38.84M530.343 259.632q-5.95-3.64-12.46-6.44-1.33-.63-1.12-1.12l1.61-.07q6.86 2.31 12.6 6.58 1.26.98.98 1.4-.35.42-1.61-.35"/><path fill="#0f141b" d="M544.834 245.982q21.56 14.49 35.28 31.78 13.86 17.5 18.62 36.47.49 2.03-.07 2.24-.56.21-1.82-1.4-6.37-8.54-14.98-14.42l-1.33-3.5 8.26 6.02q3.92 3.29 6.79 7.28-5.46-16.1-18.27-31.71-12.95-15.82-31.78-29.12l-.7-3.64"/><path fill="#0f141b" d="M578.364 295.542q-1.12-2.03-.49-2.38.56-.35 1.89 1.54 3.36 5.04 4.69 11.76 1.26 6.79-.07 12.18-.56 2.17-1.33 2.17-.7-.07-1.47-1.82-6.93-15.4-13.93-23.38-1.12 10.92-6.79 18.83-4.34 6.09-10.99 10.01-1.61.98-2.03.56-.42-.35.07-2.17 1.89-7.07-.28-14.56-2.73 7.56-9.31 15.05-6.65 7.49-11.83 8.75-1.54.35-1.89 0-.28-.28.21-1.75 3.64-10.71 2.66-18.48-4.83 5.32-12.18 9.59l-.07-2.73q6.65-3.99 11.97-9.03.98-.98 1.47-.7l.56 1.4q.63 3.5.14 8.89-.56 5.46-2.03 10.22 4.9-2.1 10.78-9.24 5.88-7.14 8.47-14.14.56-1.4 1.19-1.4.63 0 1.12 1.33 3.08 8.54 1.47 15.4 5.46-3.57 9.24-9.31 5.11-7.7 6.44-18.27.35-2.52 2.1-.7 8.75 10.08 14.42 22.61.7-4.83-.42-10.22-1.12-5.25-3.78-10.01"/><path fill="#0f141b" d="M505.423 246.892q9.03 6.09 16.17 14.28 7.56 8.54 14.91 21.42 1.68 2.8-1.12 4.97-4.55 3.36-9.45 10.01-5.39 7.21-7.98 14.28-2.17 5.95-1.68 17.57.35 10.36 2.31 18.13.98 4.06-2.24 5.53-3.15 1.47-4.9-1.26-5.6-8.68-13.72-14.91-10.5-8.12-24.22-11.41l1.75-2.1q13.65 3.43 24.22 11.9 8.05 6.44 13.72 15.26.98 1.54 2.45.63 1.54-.98.98-3.22-2.1-8.47-2.66-18.69-.7-11.97 1.54-18.06 2.66-7.42 8.33-15.05 5.18-7 10.01-10.64l.63-.7-.35-1.05q-7.28-12.67-14.42-20.86-6.86-7.77-15.68-13.79-12.74-8.68-41.09-21.28-22.89-10.08-37.38-15.05l-1.19-.14-.77.91q-4.83 7.63-8.61 11.48l-1.54 1.96q-.49.91-.7 2.38-1.33 10.64-7.14 34.09l-8.61 32.69q-.28.91-.14 1.54l.7 1.4q9.31 14.07 15.54 26.18.42.91 1.61.56 10.78-3.08 19.67-3.71l-.77 2.45q-8.33.42-18.55 3.57l-2.38.28q-.56-.28-1.33-1.68-6.44-12.95-16.17-26.25-1.54-2.24-.77-4.97 4.06-14.21 8.47-32.69 5.67-23.38 7-34.09.21-1.68 1.05-3.01l1.96-2.31q4.06-4.27 8.33-11.55.98-1.68 2.17-2.1l2.73.14q14.14 4.83 37.73 15.33 28.7 12.88 41.58 21.63"/><path fill="#0f141b" d="M473.433 267.332q-11.27 5.25-33.74 36.19-1.05 1.47-2.31 1.96l-3.29.49-18.2-1.33q-10.01-1.33-18.62-3.71l-1.47-2.66q8.54 2.45 19.04 3.99l19.18 1.47q2.45 0 3.78-1.75 10.29-13.79 16.87-21.35 10.85-12.32 17.85-15.47 4.34-2.03 11.69-2.52l13.23.84q4.62 1.12 17.36 7.63 12.11 6.16 19.88 11.2l.84 3.08q-8.26-5.11-20.51-11.48-13.72-7.07-18.2-8.12l-12.6-.56q-7.42.49-10.78 2.1"/><path fill="#0f141b" d="M453.973 292.602q.7-5.39.21-10.57-.77-6.51-4.76-21.56-4.2-16.03-6.09-17.92-2.24-2.17-11.48-6.72-9.38-4.62-19.67-8.47l.84-2.1q10.78 4.06 20.3 8.75 9.52 4.62 11.83 7 2.24 2.24 6.58 19.18 3.99 15.33 4.69 21.63.49 4.55 0 9.31l-2.45 1.47"/><path fill="#0f141b" d="M470.143 267.962q-4.2 9.66-6.3 17.99-.63 2.59-2.8 3.85-4.9 2.66-7.21 5.32-10.92 12.18-14.91 17.43l-2.38 6.16-2.87 8.68-1.96-1.4q3.99-13.37 5.25-14.98 5.46-7.14 14.98-17.92 2.38-2.59 7.84-5.81 1.05-.63 1.54-2.03 2.17-7.77 5.39-15.26l3.43-2.03"/><path fill="#0f141b" d="M462.933 298.062q-4.97 4.62-8.26 9.24-1.19 1.68-1.68 1.33-.49-.28.56-2.1 2.38-4.27 7.63-9.38l.63-1.05-.21-1.19q-1.05-2.94-.84-6.79l1.47-1.54q.21 4.62 1.33 8.05.7 2.17-.63 3.43M452.993 311.852l-1.4 9.1q-.28 2.24-.91 2.17-.63 0-.49-2.24.42-5.88 1.33-9.24.42-1.54 1.12-1.47.7.07.35 1.68M484.423 292.742l-17.5 3.92-1.96-.14q-.21-.63 1.54-1.19 7.42-2.31 17.5-4.41l4.41-1.47 3.92-2.31q1.33-.91 1.75-.49.35.35-.77 1.47l-3.78 2.94q-2.1 1.12-5.11 1.68M495.693 284.272q2.24-1.96 5.25-3.01 1.75-.56 2.03 0 .28.56-1.33 1.33-2.31.98-5.04 2.94-1.4.98-1.82.42-.42-.56.91-1.68M494.923 304.782q1.82.21 3.57 1.68 1.33 1.12.98 1.68-.35.56-1.82-.35-3.01-1.68-4.62-.49-3.29 2.59-7.35 6.93l-11.2 11.97q-6.51 6.86-17.5 6.51l1.89-2.38q8.4-.49 13.58-6.02l10.92-11.13q4.62-4.55 8.54-7.7 1.26-.98 3.01-.7"/><path fill="#0f141b" d="M500.173 265.232q5.04 4.76 7 17.29 1.82 11.2.14 19.67-1.4 7.77-8.33 10.92-5.88 2.73-14.7 1.82l1.96-2.38q16.1.98 18.27-10.92 1.82-9.73-.63-21.56-2.8-13.37-8.96-15.33l5.25.49M481.063 317.662q6.51 2.24 12.39 9.87 1.4 1.75.77 2.17-.63.49-2.03-1.19-2.73-3.22-6.3-5.74-3.57-2.59-6.58-3.43l1.75-1.68M567.794 350.212l-.98-1.12q-.42-.14-1.19.56-3.08 2.66-6.02 6.79l-6.51 9.87q-8.26 12.81-14.42 20.37-7.63 9.24-15.96 15.75l-.63-2.73q7.84-6.23 15.05-15.19 5.81-7.21 13.86-19.67 4.13-6.37 7.14-10.15 3.15-3.99 6.58-7 1.54-1.26 2.52-1.05 1.19.21 2.45 2.52 11.27 20.86 12.18 48.09 1.12 32.41-16.24 47.67-20.79 18.201-47.74 21.841-19.11 2.59-45.92-2.24l2.1-3.08q28.7 5.39 50.4.84 21.7-4.48 39.41-19.6 16.66-14.14 15.54-46.34-.98-27.23-11.62-46.13"/><path fill="#0f141b" d="m509.273 408.103 7.14-4.27 2.17 1.54q-3.85 2.66-8.82 5.32l-.49-2.59M505.493 412.863l-8.12 3.57-.21-2.66 5.88-2.52 2.45 1.61M493.243 417.973q-5.6 2.1-13.58 4.48l-.7-2.45 12.6-4.06 1.68 2.03M580.674 338.312q-2.66 6.93-3.5 9.94-1.4 4.83-1.05 7.84.63 5.39.07 11.27l-2.31-4.9-.42-6.16q-.35-3.22 1.26-8.54l3.78-10.22q4.27-10.99 2.87-21.56l2.24.84q1.12 10.99-2.94 21.49M540.074 319.412q4.62 4.62 9.38 12.95 4.06 7.21 5.88 12.81.77 2.17.91 6.3.14 4.41-.49 9.03l-2.8 3.22q.98-4.62.84-10.64-.14-5.25-.77-7.07-2.31-6.3-5.74-12.53-4.41-8.12-8.75-12.39l1.54-1.68M515.083 324.592q4.2 6.37 13.37 14.7 7.7 7 14.7 11.83 1.89 1.26 2.59 2.59.7 1.33.84 3.78.49 7.84-.63 17.57l-3.15 3.85 1.26-11.55q.35-5.95.14-9.73-.14-2.03-.56-2.87l-1.68-1.68q-6.58-4.48-13.79-10.99-8.61-7.63-13.23-13.93l.14-3.57M370.532 224.981q9.17 7.14 37.45 23.87l-.84 2.45q-25.9-15.12-37.94-24.64-2.66-2.1-2.45-3.43.28-1.26 3.43-1.61 7-.77 20.58-.35l24.08 1.68-1.68 2.45-23.17-1.75q-13.65-.63-19.67-.07-1.47.14.21 1.4M398.883 285.672q-11.76 1.75-31.01 6.09l-1.61-1.68q15.89-3.85 33.25-7.21l-.63 2.8M405.603 313.952l-13.79-2.38-2.38-2.87q7.14 1.68 14.77 2.59l1.4 2.66M643.954 317.452l1.54 2.1 2.66 4.83q.91 1.47.35 1.89-.49.35-1.61-.91-1.89-2.24-3.15-4.48-1.05-1.68-3.22-2.73l-14.56-6.58q-2.03-.91-3.92 0-2.24 1.05-3.64 4.41-1.54 3.5-1.4 6.23.07 2.66 1.68 3.43 5.25 2.24 8.75 4.76 2.03 1.47 3.99 4.06l16.38 23.31-1.19 2.94q-5.6-8.82-17.22-24.78-1.61-2.24-3.36-3.5l-8.47-4.69q-2.59-1.26-2.8-5.11-.14-3.43 1.61-7.49 1.61-3.78 4.48-5.39 2.94-1.68 6.02-.35l14.63 6.51 2.45 1.54M651.304 328.862q4.76 6.16 7.91 12.04 1.12 2.1.56 2.45-.56.28-1.75-1.61l-7.91-12.11q-1.12-1.61-.56-1.96.63-.35 1.75 1.19"/><path fill="#0f141b" d="M627.574 307.372q-4.06-2.03-9.03-5.04-3.29-1.89-6.51-.84-4.2 1.47-6.44 7.42-1.75 4.48-1.19 8.61.56 4.41 3.5 5.88l7.28 3.43q2.73 1.33 4.83.7l2.1 1.4q-1.82.98-3.99 1.05-2.17.07-3.99-.84l-7.42-3.57q-3.64-1.68-4.41-7.35-.7-5.18 1.26-10.15 1.26-3.29 3.36-5.6 2.1-2.38 4.48-3.22 4.13-1.47 8.26.91l8.96 5.04q1.75.91 2.52 3.08.7 2.1.07 4.27l-2.03-.84q.49-3.15-1.61-4.34"/><path fill="#0f141b" d="M609.584 301.632q-6.02-2.52-11.41-5.88l.91-2.17q5.39 3.43 12.88 6.37l-2.38 1.68M604.614 321.792l-11.2-5.25-.21-3.01q3.71 2.03 10.36 4.97l1.05 3.29M676.224 358.472q.84 1.19 1.12 2.8.21 1.68-.35 3.08l-2.03-1.05q.42-1.75-.63-3.43-3.15-4.83-6.58-8.89-1.89-2.17-6.23-1.96-4.62.21-7.98 3.01-3.22 2.73-4.97 6.44-1.75 3.64-.7 5.53l5.32 8.05q1.26 1.82 3.64 2.38l.63 2.31q-4.41-.56-6.23-3.22l-5.39-8.26q-1.61-2.8.28-7.14 1.82-4.41 6.09-7.77 4.48-3.64 9.94-3.71 5.04-.07 7.28 2.59l6.79 9.24"/><path fill="#0f141b" d="M674.404 361.412q6.02 2.94 11.34 9.17 2.03 2.31 2.17 5.6.14 2.24-.49 3.99l-1.82-2.73q.28-3.15-1.54-5.32-4.69-5.39-9.66-8.05-4.2-2.24-7.63-2.17-3.57.07-6.51 2.59-2.73 2.31-2.94 4.55-.21 2.87.63 5.6 1.05 3.22 3.08 4.34 2.03 1.12 3.15 2.1l.63 4.13q-1.96-2.59-4.76-4.13-2.66-1.4-4.2-5.46-1.33-3.57-1.12-6.72.21-3.29 3.92-6.37 3.78-3.08 7.98-3.22 3.36-.07 7.77 2.1"/><path fill="#0f141b" d="M674.404 372.192q2.59 1.47 3.22 4.62 1.47 7.49-2.94 16.52-3.22 6.72-8.12 11.9-2.31 2.45-2.31-.84.07-11.62-1.47-25.2-.77-6.86 6.37-7.98 2.94-.42 5.25.98m-4.83 1.68q-4.83.77-4.34 5.04 1.12 10.5 1.12 23.31 4.41-5.46 6.93-11.13 3.43-7.84 2.03-13.79-.98-4.27-5.74-3.43"/><path fill="#0f141b" d="M676.924 378.492q2.94-2.94 5.74-3.85 1.4-.49 2.38 0t1.82 2.03q2.73 5.04 3.29 13.37.49 8.19-1.33 15.26-.42 1.61-1.19 1.68-.7 0-1.33-1.47-5.46-14-9.52-20.51l1.05-2.73q2.38 3.57 4.97 9.38l4.55 10.64q1.19-6.44.49-13.37-.7-6.93-2.94-11.06-.63-1.12-1.68-.77-2.45.84-5.81 4.2l-.49-2.8"/><path fill="#0f141b" d="m679.514 390.533-4.2-.42.7-2.38 3.36.35.14 2.45"/><path fill="#0f141b" d="M668.944 400.963q.7 6.23 1.4 9.17 2.8-4.9 5.04-10.92t2.94-10.78q1.05.49 2.1.91-.84 5.25-3.43 11.97-2.59 6.51-5.81 11.69-1.54 2.45-2.38-.49-.98-3.36-1.75-9.31l1.89-2.24M502.693 381.502q-1.12 1.05-.28 5.25.84 4.48 2.87 6.09l17.71 15.12q-2.59-14.84-10.29-22.68-3.01-3.08-5.88-4.06-2.73-.91-4.13.28m3.78-2.66q3.64.84 7.28 4.27 9.17 8.75 11.55 26.81.28 1.89-.28 2.03-.42.14-1.68-.91l-9.8-8.47-9.73-7.98q-3.22-2.73-3.99-7.98-.77-5.04 1.26-6.86 1.96-1.75 5.39-.91M487.713 390.813q-2.24 0-3.64 4.13-1.54 4.69 1.19 9.24 5.39 8.75 11.06 15.4.14-10.64-3.22-20.16-3.01-8.61-5.39-8.61m0-2.66q4.06-.21 7.63 10.36 3.64 10.92 3.01 23.17-.21 3.15-2.24.91-7.84-8.89-12.88-17.15-3.36-5.6-1.19-11.55 2.03-5.53 5.67-5.74"/><path fill="#0f141b" d="M506.963 396.133q2.87 9.94 4.76 19.53.35 1.54-.07 1.89-.42.28-1.75-.49-6.09-3.71-13.86-10.64l-.56-3.5q8.89 7.98 13.93 11.34-1.82-8.61-4.69-17.99l2.24-.14"/><path fill="#0f141b" d="M508.083 396.763q-.49.56-1.68.77l-1.75-.07q-2.87-.63-5.53 1.12-2.73 1.89-3.64 5.32l-.91-3.5q1.19-2.87 3.78-4.34 2.87-1.68 6.37-.98l1.75-.28 1.61 1.96M506.403 377.232q2.94 1.96 4.62 4.83l-4.62-1.82q-2.73-2.73-7.98-3.64l-6.02-1.4q-2.59-.84-5.39-2.52-1.54-.91-1.33-1.54.28-.56 1.89.21 5.11 2.38 11.2 3.08 4.2.49 7.63 2.8"/><path fill="#0f141b" d="m454.813 336.352 12.25.91q3.36 1.33 5.18 6.51.63 1.54 1.4 2.24 10.22 8.89 14.49 15.47 2.31 3.43 4.62 5.04 7.77 5.18 11.83 10.15l-4.13-.42q-3.57-3.71-9.52-7.7l-2.66-2.24-2.24-3.15q-3.71-6.02-14.35-15.75-1.05-1.05-1.75-2.87-.84-2.38-1.61-3.43-.77-1.12-1.96-1.61l-10.57-.84-.98-2.31"/><path fill="#0f141b" d="M502.973 339.642q1.19 3.71 1.68 7.63.49 3.99 0 6.09-.7 2.73-5.74 6.93-4.48 3.64-9.31 6.16l-1.54-1.96q4.48-2.38 8.82-5.88 4.69-3.85 5.25-5.88.63-2.1-.07-7-.7-5.04-2.31-8.33l3.22 2.24M467.483 345.452q2.1.91 1.75 1.54l-2.38-.07q-8.68-3.01-12.39-8.89-.7-.98-1.82-1.05-9.24-.56-21.49-10.5l-1.12-.21q-4.55 1.96-8.75 4.83-.49.49.14.98 2.17 1.68 4.62 4.83l-3.36-.91-3.15-2.94q-2.31-1.89 0-3.5 4.27-3.15 9.45-5.32l1.89-.49q.7.07 1.61.84 12.04 9.45 20.23 9.94 2.1.14 3.64 2.52 3.22 4.9 11.13 8.4"/><path fill="#0f141b" d="M259.932 212.101q-62.65-36.33-105.421-46.9 1.47 5.18 13.44 18.69 4.34 4.97 10.29 13.93 5.39 8.12 7.28 12.04 2.1 4.41 6.44 18.69l5.39 17.22.98 1.82 1.82 1.33q17.43 8.47 31.78 18.2 18.06 12.18 27.3 23.73l-5.32-1.82q-9.59-10.5-25.76-21.14-13.23-8.68-29.12-16.38l-2.73-1.82q-.7-.84-1.47-2.73-1.12-2.87-5.6-18.06-4.13-13.79-6.02-17.92-1.82-3.85-7-11.69-5.74-8.68-10.01-13.58-14.49-16.73-14.49-21.35 0-2.24 2.24-1.75 42.91 10.29 106.4 46.83 60.481 34.79 91.281 64.75l18.2 17.29q12.46 11.271 19.11 15.331 1.96 1.12 3.08 2.66l11.27 14.77q1.47 1.82 2.94 2.8 5.32 3.36 12.88 6.51 8.19 3.36 15.61 5.04 2.31.56 2.17 1.26-.07.77-2.45.28-7.49-1.47-15.96-4.76-7.84-3.01-13.58-6.44l-3.36-3.15-11.62-14.63q-.98-1.4-2.38-2.31-11.55-7-37.59-32.48-30.59-29.75-90.02-64.26"/><path fill="#0f141b" d="M484.703 406.353q-4.83-3.5-8.4-8.61l-2.87-3.57-3.64-2.38q-4.55-2.1-11.41-8.12-6.02-5.25-11.76-11.62-16.45 1.4-25.76-.56-10.29-2.1-20.58-9.66-2.52-1.82-4.62-2.73-2.38-1.12-5.88-1.75-36.19-7.35-54.74-10.64-12.6-2.24-24.781-6.72-11.97-4.48-20.65-10.01-13.16-8.54-31.99-19.251-20.93-12.04-32.34-17.22l-1.96-1.19-1.05-1.82-5.88-14q-.49-1.12-.14-1.54l1.68-.14q12.95 2.17 32.55 10.99 17.57 7.91 28.91 15.68 2.17 1.4 1.75 2.03-.42.7-2.59-.7-10.99-6.93-28.49-14.7-19.11-8.47-31.08-11.06l5.6 12.46.63 1.12 1.26.84q11.48 5.18 32.41 17.15 18.9 10.71 32.06 19.18 8.47 5.46 20.16 9.8 11.83 4.41 24.29 6.65l28.98 5.53 25.9 4.83q3.57.63 6.37 1.96 2.17.98 4.9 2.94 10.57 7.49 20.44 9.52 8.96 1.82 25.27.49l.7.28q5.881 6.51 11.551 11.62 6.79 6.02 11.27 8.05 4.55 2.1 7.42 6.3 2.8 4.06 5.11 5.81l1.4 4.76M462.373 328.652l-8.26 7.7-2.87-.56 9.66-8.54q.35-.35 0-.56l-2.1-1.54q-.56-.35-1.4 0-7.63 3.01-15.96 7.28l-2.24-1.4q8.82-4.13 17.57-7.7l1.47-.35q.63 0 1.4.42l2.87 1.96q.91.91.98 1.61 0 .77-1.12 1.68M446.903 343.912q-2.87-4.97-6.3-7.07-1.54-.91-1.26-1.54l1.89.07q2.38 1.05 3.92 2.73 1.75 1.82 3.08 5.04 1.05 2.45.49 2.73-.56.28-1.82-1.96M483.933 370.302q-7.56-1.89-15.96-7.07-8.68-5.39-15.54-12.74-1.75-1.96-1.26-2.45.49-.49 2.38 1.33 6.37 6.37 14.21 11.27 7.63 4.76 14.77 6.93-.56-1.68-.77-4.55-.07-1.89.49-1.96.63-.07.91 1.82.35 2.94 1.82 5.95.63 1.19.35 1.47t-1.4 0"/><path fill="#0f141b" d="M387.613 346.292q5.39 2.38 13.44 1.89 3.22-.21 7.14.91 4.2 1.19 7.91 3.64 2.1 1.4 1.75 1.96-.35.49-2.52-.56-7.91-3.85-14.14-3.5h-6.58q-4.41-.42-7.91-2.1-18.41-8.89-36.75-15.89-2.24-.84-1.96-1.54l2.59.07q14.77 5.25 37.03 15.12M332.242 266.702q13.72 11.9 29.12 27.58 13.86 14.07 24.08 26.04 5.46 6.37 12.18 9.8 5.04 2.52 13.37 4.41 2.45.56 2.17 1.26l-2.52.28q-7.84-1.12-13.79-3.99-7.49-3.5-13.23-10.15-10.15-11.62-23.73-25.76-15.33-15.89-28.7-28.35-1.75-1.54-1.19-2.1.49-.56 2.24.98M480.013 408.243q.42 2.17-4.55 29.05-4.97 26.81-6.86 32.62-2.66 8.33-5.74 15.26-3.29 7.28-8.05 15.33-1.82 3.08-3.15 2.8-1.33-.28-1.47-3.78-.77-15.33 0-39.55l.28-.63q3.78-2.87 4.27-7.42 1.26-10.22.14-30.31-.56-9.17-6.86-16.24-3.5-3.99-13.79-11.34l-.35-.56q-.77-7.98-1.33-21.91l2.24-.21q.49 9.8 1.54 21 10.08 7.21 14.07 11.97 6.37 7.56 6.93 17.29 1.26 20.44 0 30.8-.56 5.32-4.62 8.61l-.63 22.82q-.21 10.29 0 15.54.07 1.12.35 1.12l.84-.98q8.33-14.63 13.02-30.31 1.82-6.09 6.58-32.27 4.76-26.11 4.41-28.14-.28-1.61-6.09-9.31l-13.93-17.29 6.93 4.55q15.26 18.76 15.82 21.49"/><path fill="#0f141b" d="M477.983 415.803q4.13 6.44 4.41 17.64.14 2.31-.63 2.38-.7 0-.91-2.24-.84-8.19-3.85-14.14l.98-3.64M467.763 467.393q7.49-7.63 14.21-22.4.91-2.03 1.54-1.75.7.28-.07 2.38-6.44 17.5-16.38 26.32l.7-4.55M416.593 482.933q-2.73-1.33-5.53-3.64-1.61-1.33-1.19-1.89.35-.56 2.1.56 6.09 3.92 9.52 3.71l14.35-2.1q9.59-1.89 15.54-4.27l-.21 3.22q-6.3 2.38-15.75 4.06l-13.93 1.68q-1.96.07-4.9-1.33M434.303 381.082q-15.33 8.26-27.51 26.25-13.09 19.18-13.72 37.52-.21 7.911 3.99 16.451 3.64 7.35 8.96 12.46 1.75 1.75 1.33 2.38-.49.56-2.24-1.05-6.72-6.09-10.64-13.23-4.69-8.61-4.41-17.15.63-19.18 14-38.71 12.74-18.76 29.96-27.86l.28 2.94"/><path fill="#0f141b" d="M405.043 406.773q4.2-2.45 8.61-1.4 4.41 1.05 7.7 5.32 5.32 6.93 8.4 19.95 2.8 11.76 1.75 17.78-1.05 5.88-7.21 13.72-6.58 8.4-14 12.11-1.75.84-2.1.28-.35-.56 1.47-1.68 5.95-3.71 12.11-11.9 5.95-8.05 6.86-13.23.98-5.53-1.75-16.8-3.01-12.18-7.63-18.41-3.22-4.27-7.35-4.69-4.13-.49-8.89 3.01l2.03-4.06M379.002 484.683q-.63 4.55 1.82 12.88 2.52 8.26 6.44 14.77l-1.33 2.66q-4.76-7.35-7.56-16.52-2.8-9.03-2.03-14.14.77-5.18 7.28-12.39 6.02-6.72 12.25-10.15l1.26 2.1q-5.74 3.15-11.48 9.59-6.02 6.72-6.65 11.2"/><path fill="#0f141b" d="M392.933 503.793q-4.62 8.54-7.42 16.52-1.19 3.36-3.92 4.76-7.28 3.57-11.13 7-3.99 3.57-5.04 7.77l-3.08 4.69q-.14-6.37 4.34-11.83 4.34-5.18 13.51-10.08l1.82-1.33 1.19-2.1q3.92-9.52 8.4-16.17 1.19-1.82 1.82-1.54.63.35-.49 2.31M404.063 473.273q-1.68 5.95-5.53 22.61-.63 2.73-1.33 2.59-.7-.14-.21-2.94 2.1-11.76 5.04-24.71l2.03 2.45M422.823 482.793q-3.22 3.99-4.83 9.31-1.26 4.34-2.1 11.76-.28 2.24-.98 2.1-.7-.07-.63-2.31.42-7.21 1.54-11.76 1.26-5.32 3.99-9.03l3.01-.07"/><path fill="#0f141b" d="M436.823 480.833q.28 9.24-2.52 14.28-4.27 7.91-17.85 13.72-1.96.84-2.38.28-.42-.56 1.61-1.68 6.79-3.71 10.5-6.72 3.99-3.29 5.95-7 2.45-4.48 2.24-12.6l2.45-.28"/><path fill="#0f141b" d="M392.303 553.494q4.55 4.55 13.09 10.29 7.56 5.18 14.84 9.03 2.38 1.26 3.01-.84 3.36-10.92 2.59-32.55-.77-23.45-6.44-30.73-.84-1.05-.98.07-.28 7-2.38 13.65-2.66 8.19-7.21 11.48-1.75 1.26-2.17.63-.42-.56 1.26-1.89 3.01-2.45 5.18-7.63-4.69-16.52-6.65-28.07l-.35-.49-.56.49q-3.99 6.79-7.77 21.7-3.64 14.49-6.16 32.62-.21 1.33.7 2.24m3.15-35.28q3.85-14.7 8.47-22.33 1.26-2.03 2.52-1.82 1.33.14 1.82 2.52 1.12 5.39 3.22 13.58l2.94 10.99q1.75-5.88 2.1-11.83.14-2.45 1.68-2.73 1.61-.35 3.29 1.89 5.74 7.7 6.65 30.73.77 21.49-2.87 33.39-1.4 4.34-5.81 2.17-7.28-3.57-15.61-9.03-8.82-5.88-13.44-10.36-1.05-1.05-1.33-1.96-.28-.91 0-2.45 2.66-18.83 6.37-32.76M361.432 552.864q-2.73 9.87-2.73 16.38 0 1.68 1.26-.07 5.67-7.98 13.51-12.25 1.12-.63 1.54-1.33l.63-1.96q1.82-11.13-2.73-16.17-1.4-1.61-2.66-1.54-1.12.14-2.45 1.82-3.5 4.48-6.37 15.12m4.34-16.66q2.1-2.59 4.48-2.73 2.45-.14 4.48 2.17 2.59 2.94 3.57 7.7.91 4.9-.07 10.71l-1.05 3.01-2.66 2.17q-4.06 2.31-7 4.76-3.01 2.66-6.02 6.44-4.69 5.95-4.9-1.33-.14-7.28 2.45-17.22 2.8-10.71 6.72-15.68"/><path fill="#0f141b" d="M390.693 553.914q-6.16-1.05-16.31 5.04l1.89-3.5q7.91-4.48 13.93-3.92l.49 2.38M426.533 550.624q5.39.49 10.85 4.2 4.55 3.01 8.12 7.49.42.49.49-.28.42-10.64-4.48-18.06-4.83-7.35-15.33-12.11l-.14-2.73q23.38 9.45 22.05 33.04-.21 3.29-1.26 3.57-.98.28-2.94-2.1-3.01-3.92-7.07-6.65-4.9-3.29-10.29-4.06v-2.31M580.534 403.483q3.15-.07 5.32 1.26 10.64 6.58 16.45 12.46 7.98 8.05 10.15 17.5 1.68 7.63.21 21.28-1.19 11.13-3.71 20.51 6.16-7.14 12.88-16.45 7.91-10.85 9.52-15.26 1.61-4.55.56-18.27-1.12-13.72-3.5-18.62-2.31-4.69-19.39-17.78-17.15-13.09-29.26-19.53-1.75-.91-3.43-.63l-.49-2.66q2.73-.49 4.9.7 12.53 6.58 30.1 20.23 17.57 13.58 20.02 18.55 2.52 5.11 3.57 19.67 1.12 14.49-.63 19.39-1.75 4.76-9.8 15.68-7.7 10.29-13.79 16.59-2.73 2.8-3.36 2.31-.63-.49.14-3.92 2.31-9.73 3.43-21.21 1.33-13.93-.35-20.09-2.59-9.17-11.27-17.64-6.09-5.88-14.14-10.64-1.82-1.05-4.13-.98v-2.45M534.963 475.023q-.84-18.06 16.8-18.2 9.1 0 16.52-3.01 8.05-3.29 10.5-8.82 1.4-3.08.77-7.56-.77-4.97-3.85-8.89l1.26-3.08q3.57 4.62 4.76 10.85 1.05 5.88-.63 9.52-2.8 6.16-11.2 9.8-7.84 3.36-18.13 3.64-7.28.21-11.13 4.34-4.2 4.34-4.27 12.81l-1.4-1.4"/><path fill="#0f141b" d="M562.334 481.743q1.33 3.22 4.41 5.95 10.92 9.8 19.39 18.76 1.54 1.54 3.78 1.96l23.66 5.88q2.59.7 4.55-2.17 1.75-2.73 1.47-5.81-.98-8.82-3.78-15.54-1.68-3.99-.42-4.76 1.26-.77 4.55 1.89 11.34 9.1 19.18 25.9 7.84 16.66 8.68 33.39.14 1.96-.63 2.45l-2.66-.21q-15.54-5.67-24.5-5.74l-1.19-2.45q4.48-.21 12.53 1.75 7.14 1.82 13.72 4.48.7.28.7-.28-.91-15.89-8.61-32.41-7.7-16.52-18.34-25.34-2.31-1.96-1.19.63 3.29 7.84 4.06 16.17.35 4.83-2.24 8.19-2.66 3.43-6.37 2.38-12.88-3.64-23.66-6.16l-2.66-.84-2.03-1.61q-8.75-9.24-19.11-18.55-7.28-6.44-7.28-15.12 0-5.46 4.27-8.61 5.32-3.92 18.2-5.11 23.31-2.1 31.36-15.12l-.14 4.9q-8.89 11.27-30.94 13.3-11.97 1.12-16.59 4.2-3.43 2.31-3.43 6.51 0 4.13 1.26 7.14"/><path fill="#0f141b" d="M645.704 540.194q4.48.49 9.24 2.17 1.4.56 1.19-.77-1.05-4.13-4.69-8.33-3.92-4.48-8.96-6.86l-.7-2.94q6.02 2.31 10.78 7.56 4.41 4.9 5.6 9.94.63 2.73-.21 3.5l-3.57-.07q-4.41-1.47-8.26-1.96l-.42-2.24M559.534 485.383q.7-1.47 2.73-1.4l1.33 2.38q-1.26-.35-1.68.42-.42.7.07 2.24 2.66 9.17 7.28 18.2 4.97 9.59 9.03 12.74 2.03 1.54 4.34 2.24l5.6.63q12.6 0 23.45 8.68 11.2 8.96 13.44 21.63.91 5.53-3.5 2.17-10.85-8.26-39.48-16.24-17.78-4.97-38.85-8.96-3.01-.56-3.92-2.03-.98-1.4.28-3.29 1.4-2.17 7.91-7.28.84-.63.07-1.75-2.45-3.64-6.65-7.98l2.94-.14q3.01 3.08 5.53 6.58 1.19 1.54 1.12 2.73 0 1.19-1.47 2.31l-4.62 3.64q-2.17 1.75-2.94 3.01-1.12 1.54 2.1 2.24 22.19 4.06 39.62 8.96 28.28 7.84 39.62 16.59l.21-.14q-2.52-11.83-12.81-20.09-10.22-8.19-22.05-8.19-7.28 0-11.34-3.22-4.34-3.43-9.66-13.65-4.9-9.52-7.63-18.9-.84-2.66-.07-4.13"/><path fill="#0f141b" d="M594.604 541.664q-1.05-4.97.56-9.38 1.75-4.83 5.74-5.74l2.52 1.75q-4.41-.21-6.16 5.25-1.54 4.83-.14 9.03l-2.52-.91M518.303 467.113q-1.12.35-2.03 1.68-2.24 3.29-3.36 7.91-1.12 4.9-.14 8.4 2.17 7.35 12.81 14.07 7.56 4.69 15.12 7.07 2.31.7 3.57-.35 1.26-1.05 1.26-3.57 0-6.02-2.87-13.44-3.08-7.84-7.7-12.95-1.96-2.03-1.54-2.52.42-.49 2.52 1.47 5.32 5.04 8.75 13.37 3.29 7.77 3.29 14.07 0 4.13-2.1 5.81-2.1 1.61-5.81.56-8.33-2.38-16.45-7.56-11.06-7.14-13.44-15.33-1.19-3.99.14-9.38 1.19-5.04 3.92-8.96 1.47-2.17 3.22-2.8l4.55.35q3.64 1.4 6.72 3.78 1.4 1.12 1.12 1.61-.28.56-1.82-.42-2.38-1.47-6.86-2.8l-2.87-.07M386.003 417.553q6.51-2.52 15.47-5.04l-1.19 3.36q-6.51 1.61-13.65 4.34l-5.46.77q-2.87-.21-5.04-1.54-1.61-.91-1.33-1.54l1.96.07q4.06 1.61 9.24-.42M342.602 365.892q-1.61-1.61-4.69-2.31-45.36-10.64-88.27-32.9l-1.89-.35q-.35.49.07 2.73 1.19 6.23 3.64 15.33 2.24 8.12 4.41 14.63l-2.31 1.82q-2.03-6.09-4.48-15.33-2.45-9.38-3.78-16.17-.84-4.27.56-5.6 1.26-1.26 4.48.42 43.19 22.4 88.13 32.9 3.71.84 5.67 2.8 2.1 1.96 3.36 5.95 4.34 13.72 9.38 24.71 6.93 15.26 13.09 20.37 2.1 1.75 1.68 2.24-.49.49-2.59-.98-6.86-4.76-14.14-19.88-5.39-11.27-9.87-25.69-1.05-3.22-2.45-4.69"/><path fill="#0f141b" d="M317.612 341.112q-1.68 7.77-2.45 15.05l-2.94-.84q.77-6.65 2.73-15.05l2.66.84M262.312 326.552q.21-7.56 1.12-13.72l2.52 1.12q-1.26 6.79-2.03 12.74-.35 2.73-.98 2.66-.7-.07-.63-2.8M198.541 328.722l14.77-1.19 10.92-.42q1.61.21 4.9 1.68 3.22 1.47 6.16 3.29 10.36-15.26 18.13-25.2l1.96 1.47q-10.01 13.16-18.76 26.46l-.77.63-.84-.35q-7.14-4.83-11.13-5.46-1.47-.14-9.31.21l-14 1.05-2.03-2.17M210.231 341.252q13.16-.28 23.1-.07l3.36.42q1.33.35 3.08 1.61l11.34 7.77.7 3.5q-3.64-2.03-13.3-8.89l-2.73-1.61-2.45-.42q-12.67-.28-21.28 0l-1.82-2.31M226.821 364.492l-1.12-2.31q4.06-.14 8.54.14l6.37.77q2.17.56 4.48 2.24 2.38 1.68 3.99 3.92l-1.82 1.61q-3.78-4.69-7.21-5.53l-13.23-.84M329.512 388.713q-17.64 7.7-23.66 29.19-5.81 20.37 2.31 37.87l-2.59.84q-8.33-16.94-2.45-38.71 6.23-23.1 24.29-30.94l2.1 1.75"/><path fill="#0f141b" d="M299.832 372.822q-2.31-1.33-4.55-2.31l-1.96.14q-22.82 11.41-29.89 41.23-6.93 28.91 5.6 52.431.35.56 1.05.42l5.11-1.12-.14-.28q-10.08-24.78-3.22-50.54 6.79-25.62 26.74-39.2l1.26-.77m2.1 2.03q-.77.14-1.96.91-19.04 12.74-25.48 37.8-6.37 25.06 3.22 48.93l.35.42.49-.07q18.83-3.78 40.53-11.9.35-.07.21-.42-6.3-13.72-2.03-30.52 4.06-15.89 14.35-23.66l1.05-.98q.14-.35-.28-1.05l-2.38-3.43-2.24-2.24q-3.78-2.66-10.85-6.72-7.56-4.34-12.88-6.79l-2.1-.28m-73.92 26.6q8.89-29.05 32.62-43.26 1.19-.7 2.1-.84l2.31.21q16.1 3.5 35.91 13.02 16.24 7.77 28.07 16.03l2.94 2.94 2.45 3.64q.91 1.75.7 2.73-.28 1.05-2.1 2.45-9.87 7.49-13.51 22.19-3.92 15.47 2.17 28.77.77 1.68.56 2.52-.28.91-2.1 1.61-9.1 3.43-23.45 7.56-16.45 4.76-26.25 6.37l-13.58-1.4q-11.9-2.1-25.06-5.95-1.4-.42-2.03-1.05l-1.05-2.03q-9.45-27.3-.7-55.51m49.63-37.52q-7.7-2.52-13.16-3.71-1.4-.35-2.66.42-21.77 13.09-30.66 40.88-8.89 27.79.14 54.46.35 1.19 1.54 1.47l16.38 4.06q11.27 2.52 16.94 3.15-12.18-23.94-5.11-53.27 7.28-30.52 30.38-42.42-6.02-2.52-13.79-5.04"/><path fill="#0f141b" d="M239.632 415.243q1.26 4.62 3.99 5.32 2.59.63 5.32-2.31 3.08-3.43 5.04-10.36 1.61-5.53 1.19-10.08-.42-5.18-3.36-5.95-3.29-.91-6.51 2.03-3.64 3.29-5.32 9.73-1.75 6.58-.35 11.62m12.67-25.34q3.78 1.05 4.97 6.16 1.19 5.18-.91 12.46-2.38 8.26-6.58 11.9-3.43 2.87-6.79 2.03-4.06-.98-5.67-6.37-1.61-5.53.35-13.02 1.96-7.42 6.58-11.06 4.13-3.29 8.05-2.1M285.972 402.643q-3.22 3.22-4.69 9.45-1.68 7-.77 11.55.91 4.2 3.64 4.83 2.66.56 5.6-2.66 3.43-3.57 4.97-10.01 1.61-6.51.91-10.85-.7-3.99-3.15-4.62-3.43-.84-6.51 2.31m11.76 1.61q1.12 4.9-.63 12.11-1.75 7.07-5.81 11.13-3.78 3.78-7.56 2.94-3.99-.84-5.32-5.53-1.47-5.04.49-13.3 1.54-6.37 5.25-10.15 4.06-4.2 8.82-3.08 3.64.91 4.76 5.88M203.511 331.872q18.69 19.11 27.09 38.15 1.05 2.31.35 2.59-.63.28-1.75-1.89-8.96-17.64-26.53-35.91-14.63-15.19-27.02-23.1 1.96 8.54 10.01 30.73 1.12 3.01.49 3.22-.63.28-1.96-2.59-8.54-18.62-11.2-33.32-.28-1.75.07-1.89.21-.07 1.82.77 13.09 7.21 28.63 23.24"/><path fill="#0f141b" d="M176.771 320.112q-8.05-8.4-18.48-16.87-10.43-8.4-18.9-13.44 8.82 16.8 17.43 40.39.91 2.52.21 2.73-.7.28-1.68-2.1-11.2-27.16-19.18-43.05-.7-1.54-.35-1.82t1.89.49q8.68 4.55 19.11 12.46 11.13 8.33 18.9 16.45l1.05 4.76"/><path fill="#0f141b" d="M150.101 316.962q-6.51-4.13-11.83-6.09 5.53 17.99 10.01 29.96 7.42 19.67 14.98 31.92 1.54 2.38.84 2.73-.7.42-2.17-1.89-8.19-12.32-15.68-31.85-5.88-15.26-10.43-32.27-.28-1.05-.07-1.33l1.33.07q7 2.31 12.32 5.81l.7 2.94"/><path fill="#0f141b" d="M116.08 339.082q-4.06-.14-9.45-1.4l-11.2-3.15q-5.04-1.75-7.91-3.22-1.89-.91-3.85-.77-2.03.14-3.78 1.4l-2.66-1.05q2.8-2.17 5.88-2.52 2.8-.28 5.25.98 2.8 1.33 7.91 3.08l10.78 3.15q9.31 2.1 16.45.28l20.3-4.76.77 2.17-20.58 4.9-7.91.91"/><path fill="#0f141b" d="M127.63 351.122q-11.62.7-17.64-2.17-15.12-7.28-28.56-14.98-2.73-1.61-6.44-2.45-9.73-2.59-21.21-9.1-12.46-7.07-24.85-11.06-13.02-4.2-23.45-4.27 10.5 3.57 19.95 8.89 11.27 6.44 17.99 13.93l-4.13-.98q-13.51-12.39-38.01-21.49-1.4-.56-1.33-1.19.07-.7 1.61-.84 11.48-1.05 25.13 2.73 13.93 3.85 28.14 12.25 6.23 3.64 11.62 5.81l9.1 2.94q4.48 1.26 7 2.66 14.49 8.33 28.28 14.98 2.73 1.33 6.72 1.75 3.85.42 10.01.07l9.87-1.12 11.551-2.38 1.05 2.45-12.04 2.31-10.36 1.26"/><path fill="#0f141b" d="m166.131 413.493 3.78 3.08q1.89 1.19 5.11 2.59l20.79 9.52q2.8 1.33 4.27 2.31l4.06 3.78q3.85 4.69 6.79 7.49 3.85 3.71 7.49 3.71l9.24.49.56 2.8-9.87-.49q-4.69 0-9.17-4.27l-7-7.7-3.57-3.43q-1.26-.91-3.78-2.03-13.79-6.65-20.72-9.73-6.3-2.73-9.8-6.09-8.05-7.77-18.2-19.39-9.87-11.41-16.73-20.79-1.4-2.03-3.15-3.01-1.54-.91-3.99-1.33l-11.48-1.54q-3.01-.28-6.02-1.54-2.45-.98-5.95-3.08-8.54-5.11-17.85-11.76-1.12-.84-1.82-.98-.7-.21-1.61 0-7.84 1.4-20.93 6.44-1.89.7-2.94.56-1.26-.14-2.8-1.54-2.52-2.1-7-7.98l-6.65-8.26q-4.06-4.34-9.24-8.89-5.39-4.76-9.8-7.84-2.73-2.03.56-2.03 5.25-.07 12.32 2.03 6.44 1.89 12.95 5.18 2.17 1.12 1.82 1.75-.28.7-2.45-.28-12.32-5.6-21.91-6.65 8.05 6.09 17.15 15.19 2.24 2.24 7 8.33 4.27 5.46 6.58 7.49.98.84 1.75.98l1.96-.35q13.16-5.04 21.35-6.51l2.52-.07q1.05.28 2.52 1.33 10.71 7.56 17.64 11.83 3.85 2.38 5.95 3.15 2.24.91 5.11 1.05l11.62 1.4q3.01.56 4.9 1.54 2.38 1.19 4.06 3.57 6.86 9.38 16.59 20.65 10.01 11.55 17.99 19.32M351.282 384.513q11.48 1.05 19.67 10.57 8.12 9.52 10.78 24.78l-2.59-.21q-2.87-14.07-9.87-22.47-7-8.4-17.15-9.87l-.84-2.8"/><path fill="#0f141b" d="M355.412 394.313q7.84.14 14.98 6.51 7.91 7.07 11.41 18.9l-2.66.14q-3.15-10.29-10.08-16.52-5.88-5.32-12.53-6.3l-1.12-2.73M348.062 375.622q7.49 2.24 15.33 9.59 7.63 7.14 11.06 14.77l-8.26-7.07q-7.14-9.8-17.08-13.79l-1.05-3.5M317.332 441.353q20.65-4.48 33.25-8.33l5.25-.98 6.72.49 14.98 1.68q6.37-.07 16.52-3.01l-.84 2.8q-8.75 2.1-15.68 2.45l-6.79-.56-8.47-1.19-11.2.42q-12.81 3.99-33.39 8.54l-.35-2.31"/><path fill="#0f141b" d="m323.142 408.033 33.74 25.13-3.22.49-31.71-23.38 1.19-2.24M225.491 447.723l2.66.14q-8.05 17.5-9.03 32.97-.07 1.4.84 1.82l3.71-.07q9.94-1.96 17.01-2.66 8.33-.77 15.68-.21 7.28.56 19.46 3.92l21.77 6.58 2.521.35q1.05-.07 2.31-.98 11.13-7.42 36.75-27.65 2.73-2.1 6.23-2.8 7.91-1.54 16.45-5.11 9.59-4.06 15.61-8.96 2.52-2.03 5.46-.35l9.1 4.41.35 3.22q-5.88-2.38-10.64-4.97-1.05-.63-1.68-.63-.63 0-1.33.56-6.16 4.97-16.03 9.17-8.89 3.78-16.87 5.39l-2.8.77-2.45 1.61q-26.88 21.07-36.82 27.65-1.68 1.19-3.29 1.33l-3.57-.49-21.49-6.58q-11.97-3.22-19.18-3.85l-15.4.42q-6.65.7-16.73 2.8l-6.02-.35q-1.75-1.12-1.54-4.34.49-7.49 2.87-16.24 2.31-8.61 6.09-16.87"/><path fill="#0f141b" d="M324.682 474.743q9.52 3.78 19.95 1.26 8.82-2.17 14.28-7.42 2.59-2.52 5.53-7 3.22-4.83 5.74-10.29l3.43-1.4q-3.08 6.72-6.51 12.25-3.57 5.88-6.37 8.47-6.23 6.02-16.73 8.12-11.69 2.31-21.42-2.17l2.1-1.82"/><path fill="#0f141b" d="M335.812 466.063q8.05 3.92 18.97-1.19 10.29-4.9 15.96-14l-1.4 6.09q-7.35 8.4-17.43 11.69-10.57 3.43-18.2-.84l2.1-1.75M310.262 485.313q16.66-1.4 32.48-7.98l9.31-.98q-8.12 4.83-20.93 8.33-13.3 3.57-23.94 3.64l3.08-3.01"/><path fill="#0f141b" d="M380.052 445.483q-.98 2.38-1.89 5.88-.91 3.43-1.05 5.11l-1.05 21.07q-.28 6.16-7.28 4.06-11.41-3.22-23.17-3.78l3.5-2.31q10.57.84 20.23 3.64l3.22.14q.84-.42.84-1.96 0-6.16 1.05-21.07.28-3.15 2.1-8.75l3.5-2.03M145.271 413.703q2.38 2.8 5.39 4.41l10.85 5.11q2.17 1.05 4.34 3.43l12.6 14.21q2.66 2.87 5.67 4.13 2.52 1.12 8.19 2.1 7.84 1.33 15.68 4.41 6.86 2.66 15.47 3.92l-.56 2.87q-7.84-1.12-15.82-4.2-6.86-2.87-15.19-4.34-5.88-1.05-8.82-2.31-3.64-1.47-6.51-4.62l-12.67-14.14-1.61-1.75-1.89-1.12-10.92-5.6q-3.36-1.82-5.95-4.9l-15.61-18.83-15.54-18.27q-2.1-2.31-5.32-4.27-23.8-13.44-38.36-20.72l3.08-.98 36.05 19.67q3.71 2.1 6.3 4.9 7 7.84 31.15 36.89"/><path fill="#0f141b" d="M133.02 411.953q7.42 6.79 24.081 28.98 4.2 5.67 8.61 6.72 10.57 2.73 15.89 7.49l-1.68 2.03q-4.69-4.41-14.84-6.93-5.74-1.47-9.87-7.14-5.67-7.84-12.18-15.82-7.63-9.38-11.69-13.16-3.08-2.8-4.06-5.81-2.52-8.19-10.36-25.9l4.62 4.34q5.88 12.74 8.26 20.58.77 2.38 3.22 4.62"/><path fill="#0f141b" d="M185.731 479.643q-9.24 8.54-20.51 14.07l-1.47.28q-.35-.28-.28-1.47.98-10.5 7.14-22.61 5.81-11.27 13.3-18.83 1.54-1.54 2.03-1.05.56.56-.91 2.17-6.65 7.42-11.97 17.99-5.67 11.2-7.07 20.65 11.55-6.44 21.07-16.1l-1.33 4.9"/><path fill="#0f141b" d="M190.561 467.393q-4.13 11.27-7.77 25.69-3.22 12.81-5.04 24.08 18.48-8.4 33.04-21.49 1.68-1.47 2.17-.98.42.49-1.12 2.17-6.65 7-16.52 13.44-9.24 6.02-18.55 9.73l-1.4.21-.14-1.47q1.61-12.95 5.04-26.18 3.64-14 8.82-25.76.91-2.03 1.61-1.82.63.28-.14 2.38"/><path fill="#0f141b" d="M202.251 513.733q10.71-4.41 25.55-14.84 13.93-9.73 22.33-18.2l3.01.14q-9.45 9.94-24.43 20.23-15.61 10.85-27.65 15.33-1.82.63-1.33-1.05 1.82-7.14 3.85-12.74l3.08-1.82q-2.94 7.56-4.41 12.95M198.961 189.141q-14.28-9.24-42.91-18.55l-.77-2.59q11.97 3.64 23.38 8.54 13.23 5.74 21.21 11.27 2.31 1.68 1.82 2.24-.42.56-2.73-.91"/></svg>