<svg xmlns="http://www.w3.org/2000/svg" width="297" height="319" viewBox="-1.419 -0.602 296.528 319.49"><path fill="#fff3c3" d="M145.211 21.328q.43-1.806 1.376-2.064.946-.301 1.204 1.505 2.064 16.168-3.225 30.487-5.203 13.975-17.2 25.671 1.763 1.376 1.806 3.827.043 2.365-1.462 4.085-1.59 1.85 2.236 2.107 6.536-3.655 12.642-3.096 6.622.602 8.772 6.106 3.57 9.116-2.88 16.684-5.935 6.923-14.965 7.482-2.365 3.913-7.267 7.826-8.213 2.28-16.856.344-8.127-1.763-14.792-6.794-6.665-4.988-10.019-11.739-3.569-7.138-2.494-14.448 8.686-3.225 17.974-3.225 9.847 0 14.835 3.741 1.85 1.333 3.526.731 1.85-.688 4.214-2.15 1.29-.774.903-1.462-.344-.688-2.02-.774l-1.635-.3q-.688-.345-1.118-1.248 3.268-6.063 2.71-11.825-.474-4.515-3.14-8.17 11.567-9.331 18.361-21.242 5.332-9.374 8.514-22.059"/><path fill="#3e4e57" d="M110.21 87.548q2.364 2.752 3.353 6.966 1.118 4.601.301 8.127-.86 3.526-3.31 4.085-2.452.516-5.032-2.408-2.45-2.752-3.526-6.622-1.118-4.214-.344-7.912.817-3.999 3.483-4.6 2.58-.56 5.074 2.364"/><path fill="#ee869a" d="M132.44 114.122q-1.505 2.322-4.214 3.44-2.666 1.118-5.848.86-2.795-.258-4.945-3.053-1.849-2.408-1.505-3.569.215-.774 1.806-.73 1.462 0 2.451.558 2.021 1.161 5.418 1.892 3.655.817 6.837.602"/><path fill="#e8390e" d="M122.077 39.044q5.031-.172 7.783 2.494 2.623 2.537 2.967 7.396-3.784 6.579-14.49 15.695 3.697 3.784 3.267 10.621-.387 5.72-2.838 9.374L21.543 71.122q-7.267-8.256-5.16-17.2 2.064-8.729 12.384-15.996-3.225-.86-7.267-.946l-6.407.387q-2.365.387-2.838-.43-.387-.602.258-2.064 1.118-2.623 4.171-4.343 3.268-1.892 7.482-1.978-5.59-3.182-8.299-8.643-2.365-4.687-1.72-8.686.344-2.107 1.333-2.537.989-.387 2.451 1.032 6.923 6.794 15.824 8.342 8.944 1.548 19.436-2.322 23.693-8.815 41.41-4.472 20.811 5.16 27.476 27.778M47.257 122.206q4.257 8.385-1.204 14.706-4.644 5.418-15.222 8.385-9.503 2.666-13.502 8.858-3.483 5.418-1.892 11.782.731 2.924-2.021 1.42-3.311-1.85-4.945-4.989-1.419-2.752-1.72-7.052-2.709-1.935-3.956-5.719-1.548-4.73.043-10.406-2.924-3.225-1.505-9.288 1.591-7.009 8.643-10.535l36.335-20.64q3.87 1.333 8.471 2.365 5.934 1.29 9.374 1.075.344 5.848 5.59 8.815.731.387.559 1.032-.172.645-1.204 1.204-4.085 2.15-7.783.731-3.827-1.462-5.246-6.192-2.623.043-5.633 3.053-2.924 2.924-3.956 6.407-.387 1.247-.172 2.451.172 1.075.946 2.537"/><path fill="#00568b" d="M125.431 39.173q1.462-4.558 4.601-2.924 3.354 1.72 4.86 9.804l-2.065 2.881q-.043-3.87-2.322-6.751-2.193-2.838-5.074-3.01"/><path fill="#fff3c3" d="M87.677 212.55q2.451-3.484 5.72-9.977.644 2.537 2.106 5.848 1.42 3.225 3.053 5.848-1.548 5.074-5.676 15.523l-5.719 14.362q-2.709 7.353-5.59 53.535-6.75 3.483-14.835 2.881-6.665-.516-12.47-3.526 2.021-8.514 8.041-23.736 4.515-11.352 7.439-17.415l2.924-6.708q1.376-3.44 2.666-7.912 1.161-4.17 2.15-9.546l1.72-10.879q4.687-2.967 8.471-8.299M141.642 167.313l1.677-.559.817-.817q15.652-3.87 27.09 3.14 10.32 6.32 13.201 21.327 1.85 9.675.86 28.94-.645 13.501 5.504 27.734 4.343 9.976 7.44 20.64 3.611 12.298 4.041 20.726-5.977 3.14-13.459 3.354-7.826.215-13.63-2.924.988-9.804 1.418-23.822.387-12.126.215-18.834-.129-4.214-1.376-7.955-1.333-3.913-3.354-5.719-4.128-3.655-9.03-10.836-4.773-6.966-7.31-12.9-2.537-.3-5.977.817-2.236.688-5.848 2.408-7.224 3.397-13.459 4.085.13 4.515-.516 14.233-.602 8.428-1.204 12.943-1.204 9.202.99 20.124 1.332 6.794 2.966 18.834 1.763 13.287 2.28 21.371-6.15 3.913-14.32 4.128-8.04.215-13.846-3.268 1.591-14.92 7.095-37.41 1.118-4.558 1.634-11.352.387-5.762.215-9.847l-.817-7.912-1.763-11.739q1.247-3.01.903-10.019-.172-3.655-1.032-10.32 3.096 4.171 6.58 6.88 3.654 2.838 5.16 1.978 2.493-1.376-.044-20.554-2.537-19.006-5.805-25.026-.559-.989-3.655-10.406 2.924 4 7.01 7.052 3.396 2.58 7.18 4.128 1.935.817 3.526.645 1.376-.129 2.924-1.118 1.677-1.075 5.72-2.15"/><path fill="#fff3c3" d="M128.312 250.045q-.043-4.085.645-8.987.99-7.31 1.505-24.94 3.44-.258 9.03-2.193 5.72-1.978 10.535-4.687-1.849 8.041-6.235 19.995-1.849 5.074-2.322 9.59-.516 4.987.516 10.921 1.118 6.708 2.236 16.641 1.247 10.88 1.72 18.748-4.214 2.322-12.34 3.225-.603-4.988-2.237-14.964l-2.279-13.975q-.774-4.988-.774-9.374"/><path fill="#59bded" d="M142.803 164.948q1.42.172 1.29.903-.129.731-1.247 1.032-4.429.946-6.923 2.58-1.72 1.118-3.182 1.204-1.419.043-3.87-.774-2.408-.817-6.665-4.3-4.257-3.483-6.923-6.837.645 2.58 1.72 5.59 1.118 3.268 1.935 4.816 3.784 7.181 5.977 26.144 2.15 18.533-.129 19.436-1.677.688-5.504-2.58-2.88-2.45-6.536-6.708 1.548 6.622 1.29 14.362-.258 7.224-1.505 7.568-4.085 1.161-10.75-8.213-6.149-8.643-8.385-16.598-3.096 8.944-10.836 15.523-2.967 2.537-5.633 3.827-2.58 1.247-3.526.731-1.634-.86-.86-7.826.301-2.494 2.236-13.76-2.064 2.365-4.429 3.741-2.322 1.376-3.311.86-1.548-.774-1.247-5.246.301-4.6 2.408-11.137 5.246-16.168 16.383-29.928 7.654-9.503 9.89-18.576 1.247-4.988.043-8.428-1.075-2.967-3.526-4.042-14.706-6.45-21.887-15.093 1.204-.516 1.247-1.16.043-.646-.86-1.076-3.053-1.505-4.386-4.816-1.204-2.967-.946-6.794 6.192-5.504 17.931-10.062-.645 7.353 2.71 14.32 3.224 6.75 9.502 11.61 6.407 4.987 14.491 6.836 8.6 1.935 17.458-.129-2.88 2.28-8.514 4.86-2.279 1.074-3.74 3.353-1.678 2.58-1.678 5.977 0 8.213 3.741 13.072 4.386 5.633 13.46 6.063 4.944.215 8.212 1.333 3.268 1.118 3.268 2.623 0 2.494-6.235 3.655 3.44 1.591 8.041 2.064M291.153 164.518q3.096 6.665.817 15.91-2.322 9.331-8.772 15.48-3.139 13.545-16.297 20.167-11.266 5.676-25.026 4.472-18.275-1.634-29.11-13.545-10.493-11.61-9.848-28.165.301-7.654-2.537-12.986-2.709-5.117-7.654-6.923-4.988-1.806-10.922.344-6.364 2.322-12.427 8.815-1.935-.989-5.16-2.02 1.591-14.707 9.546-25.156 8.557-11.309 21.973-13.803 9.202-1.72 11.481-8.342 2.15-6.149-2.45-13.502-.947-1.505-.732-2.45.215-.947 1.591-1.205 2.451-.473 5.117.645 2.71 1.161 5.16 3.784 3.698.645 6.45 3.612 2.666 2.881 3.784 6.966 2.537 9.417-3.569 15.867 5.29-.387 9.632 2.795 4.171 3.053 6.15 8.256 2.45 6.45 4.73 8.987 2.622 2.881 5.804 1.462 2.408-1.118 2.666-4.214.344-3.698-3.397-7.18-1.204-1.119-1.333-2.409-.129-1.462 1.548-1.677 8.084-1.032 13.158 3.956 4.601 4.558 4.945 11.868.301 7.353-3.913 13.072-4.73 6.364-13.33 7.654 3.182 3.268 8.17 4.515 5.031 1.247 10.406.13 12.6-2.58 18.705-14.879 1.032-2.064 2.28-2.236 1.332-.215 2.364 1.935"/><path fill="#fff3c3" d="M95.976 161.508q1.204.13 2.408 4.945 1.204 4.601 1.118 8.084-.086 3.483-1.634 8.772-1.634 5.461-2.795 5.418-2.107-.086-4.644-4.343-2.666-4.558-2.537-9.116.086-3.139 3.354-8.557 3.225-5.375 4.73-5.203"/><path fill="#e8390e" d="M148.952 86.688q.903.86 1.763 2.537.903 1.85 1.075 3.311-1.204.645-2.064.301-.903-.3-1.677-1.763-.73-1.419-.43-2.752.301-1.376 1.333-1.634M136.912 89.655q.946-.043 1.548 1.075.516.99.56 2.451.085 1.462-.388 2.451-.516 1.118-1.548 1.204-1.032.043-1.677-1.118-.602-1.118-.602-2.709 0-1.505.56-2.408.601-.903 1.547-.946"/><path fill="#fff" d="M107.2 105.694q1.633 1.204 3.525.774 1.591-.387 3.01-1.806-.473 1.161-1.548 2.236-1.118 1.161-2.279 1.505-3.182.86-5.117.602-2.58-.344-3.397-.903-4.3-3.01-5.418-10.535-1.075-6.966 1.161-11.352 2.28-.215 5.891.086-2.15 4.816-1.376 9.976.86 5.934 5.547 9.417"/><path fill="#00568b" d="M53.148 303.924q0-2.494 1.333-6.75 4.816 2.923 12.642 3.31 8.557.43 14.448-2.795-.086 4.3-.817 6.536-.817 2.408-2.838 3.655-4.085 2.494-10.277 2.795-6.321.258-11.653-1.892-2.795-1.16-2.838-4.859M106.812 304.483q5.117 3.612 13.76 3.397 8.73-.215 14.147-4.214.301 4.988 0 7.052-.559 3.612-3.01 4.558-5.332 2.107-10.836 2.494-6.235.473-10.75-1.505-2.408-1.075-3.182-3.397-.817-2.666-.129-8.385M134.59 297.517l-.989-9.159q6.665-.387 12.17-3.182.43 9.288-1.205 10.75-.903.817-4.558 1.247l-5.418.344M175.354 288.788q4.773 3.182 13.416 2.924 8.3-.258 13.631-3.31 1.204 12.942-5.074 13.931l-10.019.688q-5.89-.129-9.374-1.333-3.44-1.204-3.397-5.074.086-2.193.817-7.826"/><path fill="#28343b" d="M110.897 87.72q1.591 2.924 2.365 5.762-5.074-2.107-11.954-1.29.301-3.655 1.677-6.106 4.386.344 7.912 1.634"/><path fill="#fff" d="M107.758 86.731q.946-.258 1.978.731 1.118 1.075 1.462 2.838.344 1.72-.086 2.881-.43 1.204-1.462 1.462-.989.258-1.935-.602-1.032-.903-1.419-2.709-.3-1.548.043-2.88.344-1.463 1.42-1.72"/><path fill="#bae3f9" d="M208.937 139.88q-1.806 1.805-4.902 2.665l-5.504.387q-2.838-.473-3.31-2.064-.517-1.72 1.332-3.44 1.85-1.763 4.988-2.58l5.633-.344q2.537.43 3.01 1.935.516 1.677-1.247 3.44M235.941 181.718q2.881 4.644 3.57 8.6.687 3.741-.86 4.73l-3.01-.129q.644 1.85.558 3.225-.129 1.333-.903 1.892-1.118.86-3.698-.258-2.88-1.247-5.203-4.257-2.322-3.053-3.31-6.794-.947-3.74.386-4.644l2.71-.086q-1.463-3.612-1.678-6.579-.215-3.096 1.032-3.74 1.72-.947 4.816 1.504 2.967 2.365 5.59 6.536"/><path fill="#c93008" d="M46.182 98.642q8.385 3.14 17.63 3.741-.258 3.526.688 6.665.946 3.14 2.795 4.816-3.225 1.032-5.934 0-3.612-1.419-5.289-6.32-2.623.687-4.687 2.622-1.849 1.677-4.343 5.418-.559.86-.731 2.193-.172 1.634.43 3.096-3.01 3.741-12.943 4.644-10.793 1.032-17.372-3.354 10.32 1.763 18.963-2.494 4.042-1.978 4.988-4.6 1.075-2.925-2.021-5.978 7.138-.258 9.46-3.526 2.236-3.225-1.634-6.923M1.075 132.87q.043-3.956 2.537-7.998-1.548 7.353.172 11.481l-1.032 2.752q-1.763-2.752-1.677-6.235"/><path fill="#c93008" d="M3.698 136.611q-.387 4.386.473 8.342.86 4.085 2.709 6.235v4.042q-3.526-2.279-4.601-7.31-1.161-5.46 1.419-11.309"/><path fill="#c93008" d="M8.213 145.813q-.258 5.461 1.677 10.234 1.892 4.687 5.203 7.052l.602 3.741q.301 1.462-1.677.817-4.73-1.59-6.45-7.74-1.806-6.32.645-14.104M117.003 63.296q4.386 3.784 4.773 10.707.387 6.708-3.225 10.45l-1.849-4.344q1.72-4.3 1.892-7.912.172-4.128-1.59-8.901M14.663 10.621q.172 5.461 4.902 11.008 4.128 4.902 10.406 8.342-3.655-1.29-6.235-1.419-4.214-2.666-6.536-6.493-3.053-4.988-2.537-11.438M12.126 36.636q3.612-1.462 9.417-1.677 5.504-.172 10.664.774l-3.139 2.064-6.837-.774q-3.655-.172-5.848.129-3.526.516-4.257-.516"/><path fill="#c93008" d="M16.727 53.234q2.752-10.32 15.48-17.501-5.375 4.773-6.665 13.459-1.204 8.514 2.494 13.029.215 2.193 1.763 4.558 1.462 2.322 3.913 4.43-7.912-.947-12.384.042-7.181-8.256-4.601-18.017"/><path fill="#004370" d="M140.61 73.66q-2.408 7.137-7.568 11.781l-3.655 1.591q-3.182-.387-1.72-2.279 1.42-1.849 1.548-4.042.13-2.537-1.892-3.784 4.73-4.988 7.525-8.428 3.612-4.558 5.934-8.772 2.451 6.192-.172 13.932"/><path fill="#4da5ce" d="M67.338 109.306q-3.225-2.709-3.397-10.019 7.525-6.192 18.232-9.976-.258 5.633.602 9.374-7.998 4.343-15.437 10.621"/><path fill="#dcd2a9" d="M82.173 89.311Q90 86.602 97.266 86.086q-1.333 3.225-1.634 7.267-6.149 1.677-12.857 5.332-.86-3.74-.602-9.374"/><path fill="#dcdddd" d="M97.266 86.086q2.924-.215 5.72 0-1.377 2.451-1.678 6.106-2.752.344-5.676 1.161.301-4.042 1.634-7.267"/><path fill="#dcd2a9" d="M140.18 49.622q6.536-13.932 7.396-29.455 2.881 15.996-3.31 31.476-5.333 13.33-16.943 25.284 1.892 1.42 1.806 4-.086 2.278-1.462 3.826-.774.86 0 1.548.688.645 2.28.731-2.194 1.161-6.193 4.515-3.268 2.107-6.278 2.623l-1.806.043-2.193-.645-.215-.086q-.774-2.838-2.365-5.762 2.408.903 4.43 2.236 1.848 1.204 3.396.516 2.924-1.333 4.128-2.107.99-.645.731-1.333-.258-.774-1.72-.817l-1.806-.43q-1.032-.387-1.419-.946 1.29-2.107 2.15-5.246.731-2.838.86-5.547 11.696-9.89 18.533-24.424"/><path fill="#dcdddd" d="M111.198 90.3q.258 1.42 0 2.494l-4.687-.774-.215-.688q-.3-1.548.043-2.88.344-1.463 1.42-1.72.945-.259 1.977.73 1.118 1.075 1.462 2.838"/><path fill="#cf7487" d="M126.678 113.95q-3.225-.043-5.074.903-1.806.86-2.02 2.408-1.29-.602-2.624-2.623-1.333-2.02-1.032-3.01.172-.645 1.376-.645 1.118 0 2.322.473l3.225 1.333 3.827 1.161"/><path fill="#dcd2a9" d="M152.005 93.482q1.075 6.15-1.978 11.18-2.752 4.558-8.256 7.138-5.332 2.494-11.395 2.322-6.32-.215-11.266-3.354 9.933 3.096 21.027-2.107 11.696-5.504 11.868-15.179"/><path fill="#4da5ce" d="M113.176 122.808q5.72.602 12.04-.258-3.225 2.28-6.407 3.827-3.31 1.634-4.773 3.827-1.419 2.107-1.505 5.461-3.784 2.752-8.772 3.096-4.988.301-8.557-1.978-.215-6.665-4.644-8.686-4.6-2.107-9.03-4.687-5.074-2.88-7.912-5.203 9.546 4.73 21.285 5.762 10.277.903 18.275-1.16"/><path fill="#dcd2a9" d="M132.612 115.197q-2.365 3.698-7.396 7.353-6.32.86-12.04.258 5.977-1.505 10.922-4.3 1.806.043 4.214-.903 2.322-.903 4.3-2.408"/><path fill="#4da5ce" d="M142.674 166.883q-4.343 1.161-6.364 2.28-2.193 1.246-3.74 1.375-1.549.13-3.57-.73-6.235-2.667-12.298-9.375 5.805 3.87 13.674 5.16 7.31 1.247 13.373-.129.387.99-1.075 1.42"/><path fill="#4da5ce" d="M135.708 162.67q-4.085.644-7.61-.646-1.506-.559-.775-1.59.731-1.033 2.107-.603 2.924.903 6.106.731 3.053-.215 5.418-1.376-.774 2.752-5.246 3.483M71.251 204.207q-2.537 1.677-4.343 1.376 2.924-1.935 5.977-6.149 2.451-3.397 4.386-7.267l-2.365 8.772q-1.59 1.892-3.655 3.268M93.31 202.315q-2.709 7.826-9.288 14.534-6.75 6.837-10.879 5.504 5.332-2.365 11.18-9.675 6.278-7.826 7.826-15.093l1.161 4.73"/><path fill="#4da5ce" d="M108.231 225.836q-2.967-2.02-5.934-5.59-7.912-9.589-9.933-23.048 3.57 11.051 10.621 20.21 6.15 7.955 8.084 7.181.903-.387 1.247-9.03.344-8.514-.258-13.502 1.935 8.73 1.978 16.555.086 8.084-1.978 8.686-1.16.344-3.827-1.462"/><path fill="#4da5ce" d="M111.972 201.197q5.074 7.31 12.9 13.287-1.419.645-4.988-1.849-3.784-2.666-7.138-7.095l-.774-4.343"/><path fill="#dcd2a9" d="M88.58 174.537q.215 4.171 2.666 7.998 2.064 3.311 3.268 3.268.774-.043 2.365-3.827 1.634-3.87 2.365-7.61-.043 3.74-1.505 8.814t-2.58 5.375q-1.59.473-4.429-3.999-3.268-5.03-2.15-10.019M130.591 210.098q4.73-1.29 8.17-3.784l5.59-4.73q2.752-2.365 8.213-3.268l1.505 5.891q.731 2.71 1.548 4.43-2.107-.173-5.59.86-3.053.902-5.418 2.192-2.193 1.247-5.805 2.408-3.913 1.247-8.299 2.021l.086-6.02M89.397 210.356q2.365-3.74 3.913-8.04 2.28 7.137 5.461 12.942l-.774-.215-4.042 11.782q-1.935-4.214-3.096-8.342-5.03 4-12.212 7.181.344-1.29.344-4.816 2.236-1.118 5.676-4.73 3.01-3.139 4.73-5.762M112.961 205.798q3.01 3.483 4.945 5.203 2.15 1.935 4.73 3.311 2.107 1.075 3.182-.73l-.387 3.44q-.387 1.633-.903 2.02-1.118.817-5.03-1.935 0 3.053-1.72 7.224-1.592 3.784-3.785 6.665l-.645-4.515q.817-3.87.731-9.245-.086-5.547-1.118-11.438"/><path fill="#dcd2a9" d="M160.691 218.053q-6.278-10.148-8.127-19.737 3.311 8.385 8.987 16.813 5.031 7.482 10.45 12.9 4.17 4.171 5.46 9.503 1.462 6.02 0 15.867-.172-8.772-1.892-14.147-1.505-4.73-4.558-7.869-5.633-5.719-10.32-13.33M93.783 227.513q-6.45 15.222-8.084 24.51-.86 4.86-2.279 20.726-1.376 15.18-1.892 24.811-3.569 1.763-7.138 2.494 4.902-34.185 8.428-49.708 1.677-7.353 10.965-22.833M125.26 249.1q.214-2.968 1.246-6.45 1.634-5.72 3.44-18.49.13 7.911-.989 18.188-.559 5.29-.688 8.084-.129 3.956.387 6.751 1.978 10.88 3.57 22.016 2.15 15.18 2.622 24.64-4.042 2.106-8.084 3.095.731-12.04.43-24.983-.3-13.459-1.677-24.983-.516-4.6-.258-7.869"/><path fill="#004370" d="m73.014 309.643 1.376-9.589q3.57-.73 7.138-2.494l-.172 3.57q-.086 3.482-2.666 5.675-1.849 1.591-5.676 2.838M132.741 314.588q-1.118.731-2.752 1.247l-4.042 1.118.817-10.019q4.042-.989 8.084-3.096l.13 4.816q0 4.43-2.237 5.934"/><path fill="#dcd2a9" d="M134.246 251.464q-2.709-1.032-6.106-.086-.043-4.257.731-9.589 1.376-9.288 1.634-25.67 4.3-.259 10.234-2.667l9.073-3.999q-.817 4-3.096 11.051l-4.214 12.685q-1.118 3.397-1.16 7.095-.087 3.225.644 8.385 3.01 22.618 3.655 36.593-2.924 1.376-6.278 2.15.387-9.03-.215-18.619-.473-8.17-1.419-13.287-.516-2.967-3.483-4.042"/><path fill="#004370" d="M138.546 297.603q.56-4.644.817-10.19 3.354-.775 6.278-2.15l.215 6.621q0 1.505-.645 2.838-.73 1.591-2.064 2.021l-4.6.86"/><path fill="#dcd2a9" d="M187.652 246.863q-1.806-6.493-2.365-10.105-.774-5.16-.645-12.255 1.032 6.321 1.935 10.062 1.333 5.676 3.44 10.793 4.988 11.997 7.654 20.683 3.741 12.255 4.515 22.575-3.397 1.892-7.439 2.537-.43-20.21-7.095-44.29"/><path fill="#004370" d="M194.747 291.153q4.042-.645 7.44-2.537.3 4.386.171 7.912-.129 2.838-2.45 4.43-2.108 1.418-5.376 1.375.344-5.805.215-11.18"/><path fill="#4da5ce" d="M212.248 103.071q4.085 2.623 6.106 7.611 2.021 5.031 1.72 12.126-.086 1.763-1.462 1.763-1.419 0-1.204-2.02.602-5.333-.559-10.106-1.29-5.332-4.6-9.374M223.127 110.94q3.655 5.203 3.612 11.481-.043 6.536-4.257 10.148l-3.053.301q4.343-3.74 5.246-9.46.86-5.504-1.548-12.47M260.623 142.03q3.44 2.493 4.902 7.61 1.462 5.074.344 10.406-1.247 5.805-5.203 9.675-4.515 4.386-11.653 5.246l-1.204-1.118q-.73-.86-.258-1.677.43-.86 1.85-1.16 9.158-1.764 12.813-10.02 3.913-8.815-1.59-18.963M292.228 180.041q-2.236 8.686-9.288 15.867-7.138 7.224-16.168 9.89-9.847 2.924-18.834-.774 19.737-.602 32.422-14.362 5.59-6.063 8.3-13.373 2.665-7.31 1.891-14.276 4.128 7.697 1.677 17.028"/><path fill="#4da5ce" d="M271.416 204.121q7.568-3.225 11.782-8.213-2.02 11.008-13.029 18.103-10.793 7.01-24.94 6.923-17.458-.086-29.24-11.008-12.083-11.223-12.77-29.068 4.772 17.2 21.886 24.811 7.654 3.397 16.082 3.784 8.514.43 16.082-2.365 6.708.172 14.147-2.967M166.324 166.711q4-6.235 11.094-8.729 7.01-2.408 14.233-.215-6.536-.215-12.04 2.28-5.805 2.622-9.76 7.954l-3.527-1.29"/><path fill="#0f141b" d="M112.79 94.686q-1.162-4.945-3.484-7.353-2.02-2.107-4.042-1.548-2.322.645-3.01 4.128-.688 3.397.473 7.611t3.57 6.665q2.235 2.322 4.17 1.85 2.15-.517 2.795-3.785.602-3.182-.473-7.568m1.505-.387q1.204 4.902.215 8.514-.989 3.655-3.827 4.343-2.494.602-5.16-1.763-2.967-2.623-4.3-7.482-1.376-4.988-.215-8.9 1.118-3.87 4-4.473 2.794-.602 5.374 1.978 2.71 2.71 3.913 7.783M96.45 86.344l1.805-.043q-2.752 4.988-1.548 11.61 1.075 6.106 4.515 9.417.86.817.56 1.118-.259.258-1.119-.3-4.17-2.667-5.59-9.848-1.419-7.224 1.376-11.954M145.512 110.553q-5.074 3.698-11.696 4.257l-.645.043q-4.6 4.988-10.019 4.472-2.752-.258-4.73-1.849-2.02-1.59-3.096-4.3-.516-1.376-.086-2.064.387-.645 1.72-.73 1.591-.173 3.053.515 6.536 3.053 13.201 2.537 6.192-.473 10.965-3.827 4.73-3.31 6.45-8.342 1.892-5.289-.215-10.879-2.107-5.719-9.417-5.805-7.912-.129-16.555 6.966-.946.817-1.247.473-.3-.344.602-1.204 8.084-7.61 17.071-7.697 8.686-.086 11.223 6.622 2.236 6.02.258 11.74-1.849 5.46-6.837 9.072m-28.939 2.193q1.85 4.644 6.751 5.117 4.042.344 7.697-2.924-5.762-.129-11.48-2.795-1.248-.602-2.495-.43-.903.086-.473 1.032"/><path fill="#0f141b" d="M138.804 90.128q.817 1.161.86 3.096.043 2.064-.817 3.182-.73.946-1.849.946-1.118 0-1.892-1.16-.817-1.205-.86-3.183-.043-1.548.731-2.709.774-1.118 1.935-1.16 1.118-.087 1.892.988m-.258 3.096q-.043-1.548-.516-2.408-.473-.73-1.075-.73t-1.118.816q-.516.903-.473 2.107.043 1.634.56 2.537.43.774 1.074.774.688 0 1.118-.817.473-.903.43-2.279M151.876 92.837q-.688.99-2.02.602-1.506-.387-2.323-2.279-.946-2.15-.387-3.612.473-1.29 1.677-1.032l.946.99q-1.118-.56-1.59.257-.517.86.386 2.924.817 1.85 1.892 1.892 1.032 0 1.075-1.204l.344 1.462M134.504 114.165q-2.107 3.956-6.923 7.654-3.483 2.623-9.073 5.547-2.494 1.333-3.913 3.483-1.333 2.064-1.376 4.472-.387 18.275 15.18 19.178 6.062.344 9.803 1.677 3.827 1.333 3.784 3.268-.086 2.494-4.558 3.655-4.773 1.247-9.116-.903-.989-.473-.774-.903l1.247.043q3.913 1.72 7.955.516 3.526-1.075 3.57-2.58.042-1.075-3.054-2.02-3.44-1.076-9.03-1.42-8.127-.473-12.427-5.633-4.343-5.246-4.17-14.878.085-2.795 1.59-5.246 1.634-2.537 4.558-4.085 5.117-2.666 8.213-4.945 4.171-3.182 6.321-6.794l2.193-.086"/><path fill="#0f141b" d="M142.674 167.614q-3.182.645-6.364 2.537-4.128 2.537-9.245-.3-7.826-4.3-11.524-9.59l-.645-3.74q4.214 7.094 12.814 11.867 2.408 1.29 3.913 1.505 1.935.215 3.913-.989 2.193-1.376 6.923-2.537.817-.172.731-.516-.043-.3-.903-.387-5.46-.516-9.847-2.279l2.752-.473q3.655 1.075 7.224 1.548 2.623.344 2.666 1.591.043 1.247-2.408 1.763M125.302 122.636q-7.439 2.193-15.91.301-8.127-1.763-14.964-6.708-6.966-5.03-10.492-11.782-3.784-7.31-2.494-14.92l1.634-.43q-1.204 7.696 2.71 15.05 3.611 6.793 10.75 11.652 7.051 4.816 15.221 6.192 8.686 1.462 16.082-1.462l-2.537 2.107M69.574 112.961q3.612 4.128 9.331 7.998 5.633 3.827 12.47 6.751 5.59 2.365 4.386 11.18-1.333 9.847-11.008 21.672-3.87 4.73-8.6 13.115-5.03 8.858-6.966 14.792-1.763 5.676-2.322 10.922-.516 5.074.473 5.547.989.473 3.483-1.16 2.58-1.72 4.171-4.086l-.129 2.193q-1.978 2.28-4.601 3.741-2.58 1.42-3.698.903-1.763-.817-1.161-7.095.516-5.504 2.322-11.395 2.064-6.75 7.095-15.652 4.343-7.654 8.557-12.986 8.6-10.793 10.492-19.78 1.763-8.47-3.139-10.535-14.663-6.278-22.403-15.394l1.247-.73"/><path fill="#0f141b" d="M93.611 203.132q-3.01 9.073-10.578 15.824-7.009 6.235-10.449 4.902-2.236-.86-.559-12.169 1.548-10.535 4.601-19.35.473-1.419.903-1.29.43.086.043 1.548-2.58 9.331-3.827 18.877-1.29 9.59 0 10.105 3.053 1.204 9.59-5.074 7.051-6.794 9.588-15.265l.688 1.892"/><path fill="#0f141b" d="M112.617 202.401q1.978 6.536 2.322 15.351.344 9.288-1.849 10.664-1.548.946-4.558-.989-3.096-1.978-6.364-6.149-8.04-10.19-10.492-23.52-.215-1.248.258-1.29.43-.087.731 1.117 2.967 13.201 10.535 22.403 2.838 3.44 5.504 5.246 2.451 1.677 3.354 1.118 1.462-.86 1.247-9.159-.172-8.084-1.634-14.577-.3-1.505.086-1.59.43-.087.86 1.375"/><path fill="#0f141b" d="M120.1 169.936q3.654 8.17 5.632 26.445 2.021 18.232-.559 19.393-1.505.688-5.203-1.935-3.827-2.752-7.009-6.966l-.129-2.666q2.537 3.698 6.407 6.923t5.117 2.666q1.591-1.247-.344-18.06-2.02-17.458-5.289-25.198-2.193-5.246-3.44-9.374-1.29-4.3-1.978-9.03-.258-1.72.172-1.806.473-.086.774 1.634.86 4.644 2.236 8.858 1.29 3.913 3.612 9.116M99.631 168.56q.645 3.268.56 6.278-.044 3.397-1.119 7.095-.989 3.397-2.537 6.235-.645 1.118-1.204 1.247-.645.13-1.849-.774-2.58-1.849-4.343-5.203-1.935-3.612-1.935-7.396 0-3.182 2.15-7.396 2.064-4.042 4.902-6.923 1.247-1.204 1.978-1.118.731.13 1.462 1.677 1.247 2.795 1.935 6.278m-4.558-5.934q-2.408 2.537-4.343 6.493-2.064 4.171-2.064 6.966 0 3.311 1.677 6.708 1.591 3.14 3.784 4.816.903.688 1.376-.172 1.204-2.236 2.15-5.848.99-3.784 1.075-6.837.086-2.838-.473-6.02-.602-3.31-1.72-5.848-.516-1.16-1.462-.258M56.373 108.36q-2.838.688-4.902 2.537-2.15 1.935-4.042 5.59-1.161 2.236.129 4.644 4.472 8.858.602 14.878-4.3 6.622-19.35 10.922-7.31 2.064-10.922 7.611-3.483 5.375-1.763 11.18.774 2.494-.086 2.967-.817.473-3.139-.73-4.042-2.065-5.848-7.268-1.634-4.859-.774-10.535.903-5.805 4.085-9.718 3.483-4.386 8.729-4.902 1.333-.129 1.333.301t-1.29.645q-4.601.731-7.697 4.902-2.752 3.741-3.569 9.116-.774 5.246.602 9.675 1.505 4.73 4.988 6.536 1.204.645 1.505.473.258-.172-.086-1.204-2.021-6.063 1.505-11.91 3.784-6.279 12.04-8.687 14.233-4.128 18.275-10.578 3.526-5.547-.473-13.072-1.548-3.01-.043-5.89 1.806-3.613 4.3-5.935 2.623-2.494 5.59-3.096l.301 1.548"/><path fill="#0f141b" d="M11.696 127.065q.301.344-.731 1.161-7.568 6.106-8.256 14.75-.602 8.083 4.644 12.168l-.043 1.806q-6.536-4.257-5.934-13.63.559-9.848 8.987-15.868 1.075-.774 1.333-.387"/><path fill="#0f141b" d="M2.924 127.667q-2.752 5.934.086 10.793l-.688 1.978q-3.741-5.289-1.419-12.04 2.279-6.579 8.514-9.675l1.333 1.032q-5.246 2.322-7.826 7.912M121.948 70.778q1.85 8.686-2.924 14.792l-.946-1.505q3.956-5.719 2.451-13.072-1.634-7.998-9.073-9.761-1.204-.258-1.118-.688.043-.43 1.29-.258 8.342 1.247 10.32 10.492M129.86 80.367q.13 3.01-1.892 5.031-.172.172-.129.387l.258.258 3.311.215-1.935 1.247-1.935-.43q-.86-.3-1.032-1.032-.215-.73.516-1.462 1.72-1.72 1.505-4.128-.215-2.322-1.978-2.838l.99-1.247q2.15.99 2.321 4"/><path fill="#0f141b" d="M145.727 21.457q-2.58 12.599-9.374 23.779-6.923 11.524-17.5 20.167l-1.033-1.376q10.234-8.256 17.157-19.393 6.966-11.18 9.46-23.435.56-2.709 2.15-2.709 1.591.043 1.935 2.709 1.978 14.276-2.752 28.552-5.547 16.77-19.178 28.466-1.118.946-1.419.645-.344-.344.774-1.376 13.201-12.556 18.533-28.853 4.558-13.932 2.623-27.262-.172-1.247-.645-1.247-.43.043-.73 1.333"/><path fill="#0f141b" d="M141.341 58.437q2.537 6.149.43 14.147-2.236 8.256-8.084 12.728l-3.01.817q6.407-4.085 9.116-12.126 2.537-7.568.56-14.104l.988-1.462M31.777 36.679q-12.126 7.654-14.405 17.286-2.15 9.116 5.074 16.985l-1.935.516q-6.966-7.568-4.859-17.415 2.408-10.922 15.609-18.232 1.204-.688 1.462-.258.215.387-.946 1.118M132.741 38.27q2.15 3.182 2.666 7.482l-1.29 1.72q-.129-3.87-1.892-7.396-1.806-3.612-3.655-3.569-.817.043-1.59 1.032-.732.903-1.033 2.064l-1.247-.344q.344-1.462 1.42-2.709 1.203-1.333 2.407-1.376 2.15-.043 4.214 3.096M143.792 165.25q10.277-2.71 19.522-.388 9.03 2.28 14.448 8.643 6.536 7.654 8.256 21.63 1.247 10.104-.043 25.971-.817 9.632 4.472 23.134 6.923 17.501 9.546 26.79 3.655 13.028 3.354 23.778-.258 7.482-6.665 8.342l-8.772.602q-6.106.043-9.073-.86-3.44-.989-4.515-2.752-.946-1.548-.559-4.902 1.204-10.449 1.892-25.8.602-13.76.473-22.23-.086-5.29-1.247-8.472-1.118-3.139-3.913-5.934-7.095-7.138-12.255-16.254-5.246-9.288-6.45-17.157-.172-1.333.258-1.376.43-.086.731 1.204 2.064 8.643 7.396 17.501 4.902 8.256 11.481 14.921 2.838 2.881 4.171 6.622 1.333 3.741 1.42 9.03.171 8.815-.388 22.274-.602 15.523-1.806 25.843-.3 2.838.43 3.956.688 1.075 3.354 1.85 2.494.73 7.955.773l9.245-.516q4.945-.688 5.117-6.75.301-10.622-3.268-23.479-2.58-9.288-9.417-26.53-2.064-5.204-3.268-10.364-1.72-7.439-1.29-13.33 1.118-15.35-.086-25.198-1.677-13.932-7.955-21.07-5.246-6.02-13.846-8.127-8.6-2.064-18.834.258l.13-1.634"/><path fill="#0f141b" d="M202.401 289.218q-4.257 3.053-13.416 3.268-9.417.258-13.717-2.967l.215-1.548q3.44 3.354 13.717 3.01 10.02-.3 12.986-3.354l.215 1.591M130.42 215.215q5.718-.215 15.48-5.03 4.987-2.452 9.545-2.495l.731 1.85-4.6.43q-2.108.515-4.946 1.891-3.483 1.72-7.18 3.053-5.462 1.935-9.074 2.064l.043-1.763"/><path fill="#0f141b" d="M130.978 211.13q.172 19.221-1.548 32.766-.645 5.031-.344 9.59.258 3.912 1.548 11.007 2.752 15.351 3.956 25.456 1.42 11.782 1.161 19.608-.129 3.182-1.118 4.558-.774 1.118-3.31 2.236-5.118 2.236-11.998 2.365-7.525.172-11.18-2.58-2.795-2.107-2.537-7.095.903-15.609 7.525-42.57 1.29-5.203 1.72-11.48.387-5.978-.086-11.095-.86-8.858-2.15-16.555l1.29-2.02q1.677 9.244 2.451 18.49.43 5.03-.043 11.265-.43 6.321-1.634 11.782-2.838 12.986-4.257 20.554-2.666 13.932-3.096 21.715-.129 2.15.301 3.44t1.548 2.107q3.483 2.58 10.535 2.322 6.278-.3 11.008-2.365 1.892-.817 2.58-1.892.688-1.075.731-3.268.258-7.353-1.333-20.038-.989-7.869-3.698-24.768-1.204-7.439-1.419-10.922-.344-4.902.301-9.933.946-7.482 1.42-14.534.515-7.654.687-18.146.043-1.677.516-1.677.43 0 .473 1.677"/><path fill="#0f141b" d="m134.375 296.7 7.74-.645q1.548-.344 2.107-1.16.56-.818.645-3.14.56-14.104-2.924-36.765-1.462-9.89-1.376-14.19.13-5.46 2.58-12.169 3.698-10.105 5.72-18.834l1.977-.387q-.903 4.343-2.45 9.16l-3.699 10.577q-2.408 6.58-2.537 11.782-.086 4 1.42 13.932 1.633 10.88 2.45 20.77.817 10.061.56 16.21-.13 2.838-1.076 4.171-.946 1.29-3.01 1.763l-7.998.688-.129-1.763"/><path fill="#0f141b" d="m133.386 287.584 6.622-.903q3.655-.86 5.633-2.322l.043 1.505q-2.45 1.548-6.536 2.451l-5.676.731-.086-1.462M134.891 304.44q-6.235 3.913-14.706 4.128-8.342.172-13.373-3.31l.13-1.678q4.944 3.827 13.802 3.44 8.428-.344 14.018-4.042l.13 1.462M92.837 212.248q2.322 1.376 5.848 2.193l.946 2.021-3.612-.946q-1.978-.688-3.74-1.806-1.678-1.118-1.377-1.763.258-.688 1.935.301"/><path fill="#0f141b" d="m94.213 228.89-5.246 13.2q-2.02 4.902-3.397 16.727-1.505 12.728-3.354 42.226-.215 3.182-.989 4.644-.688 1.376-2.795 2.71-4.257 2.794-10.707 3.052-5.59.215-10.836-1.462-2.623-.903-3.655-2.666-1.075-1.806-.688-4.988 1.032-9.159 7.783-26.402 2.58-6.536 10.277-24.037l2.365-5.504q.99-2.623 1.85-6.063 2.751-11.266 3.568-19.264l1.763-.86q-.559 5.246-1.419 9.804l-2.45 10.664-1.85 6.235-2.322 5.547q-6.536 14.921-10.148 24.338-6.665 17.33-7.697 25.714-.301 2.537.473 3.87.731 1.247 2.666 1.892 4.472 1.462 9.331 1.462 6.45.043 10.75-2.795 1.72-1.075 2.365-2.537.56-1.247.645-3.483.602-10.879 1.505-22.403 1.032-12.857 1.935-19.866 1.591-11.782 3.57-17.028l5.331-14.147 4.43-12.599 1.676.516q-2.02 6.407-4.73 13.502"/><path fill="#0f141b" d="M54.696 296.4q4.171 3.138 12.9 3.482 9.202.344 14.018-3.096v1.505q-5.246 3.311-13.803 3.14-8.385-.216-13.459-3.57l.344-1.462M204.38 103.157q-.13.56.644 1.591 2.71 3.784 3.397 7.697.645 3.827-.774 7.224-2.838 6.708-10.836 8.041-12.728 2.193-21.37 12.728-8.6 10.492-10.45 25.972l-1.72-.473q1.763-16.039 10.793-26.789 9.03-10.836 22.575-13.029 3.397-.559 5.891-2.322 2.537-1.849 3.741-4.687 2.71-6.536-2.408-13.588-1.247-1.763-.86-3.01.473-1.29 2.623-1.634 6.665-.989 11.051 5.29 4.515 6.363 3.57 16.038-.173 1.462-.603 1.462-.43-.043-.387-1.505.301-9.245-3.612-15.007-3.913-5.719-9.76-4.816-1.334.215-1.506.817"/><path fill="#0f141b" d="M227.341 125.216q-.86 4.644-4.042 7.267l-2.193.13q3.311-2.194 4.472-6.322 1.032-3.784.043-8.17-.989-4.257-3.483-7.396-2.709-3.31-6.192-4.085l-.989-1.634q4.085.258 7.353 3.57 3.01 3.052 4.43 7.696 1.375 4.644.601 8.944"/><path fill="#0f141b" d="M240.628 146.845q3.311 8.643 7.912 6.321 2.193-1.075 2.107-4.17-.129-3.269-2.967-5.806-2.322-2.064-1.892-3.698.473-1.677 3.526-1.935 8.084-.645 13.115 4.644 5.074 5.332 4.816 14.362-.215 7.353-4.859 12.6-4.859 5.503-12.642 6.406l-1.118-1.333q7.697-.516 12.384-6.235 4.085-4.988 4.3-11.524.215-8.127-4.17-13.029-4.43-4.988-11.697-4.386-1.849.172-2.064.99-.172.816 1.247 2.106 3.44 3.096 3.526 7.224.086 3.913-2.795 5.375-6.32 3.096-10.105-7.353-6.149-16.942-19.092-13.932l-1.333-.129q-.129-.473 1.075-.817 13.631-4.128 20.726 14.32"/><path fill="#0f141b" d="M292.142 164.905q2.967 8.256.13 17.372-2.624 8.6-9.504 15.308-6.966 6.837-15.78 9.202-9.59 2.58-18.749-.946-1.333-.559-1.16-.946l1.547.043q8.772 2.623 17.845-.043 8.428-2.45 15.007-8.815 6.536-6.278 9.116-14.276 2.71-8.47.086-16.383-.73-2.15-1.806-2.107-1.032.086-1.935 2.193-2.58 6.02-7.869 10.02-4.902 3.74-11.008 4.987-5.934 1.247-11.223-.258-5.547-1.548-8.686-5.676-.73-.946-.387-1.204.301-.3 1.118.56 3.311 3.654 8.686 4.901 5.074 1.118 10.664-.215 12.642-2.967 17.415-13.889 1.42-3.268 3.354-3.268 1.935.043 3.14 3.44"/><path fill="#0f141b" d="M284.746 194.016q-3.698 15.824-17.63 23.005-11.954 6.192-27.219 4.43-15.867-1.893-25.886-11.826-11.782-11.61-11.739-31.433 0-7.826-3.139-12.814-2.88-4.6-7.869-5.89-4.859-1.205-10.363 1.117-5.762 2.451-10.664 8.17l-1.763-.86q5.29-6.407 11.696-9.116 6.063-2.537 11.567-1.118 5.547 1.462 8.815 6.58 3.483 5.503 3.354 13.974-.215 18.748 11.61 30.057 9.847 9.417 24.553 11.18 14.405 1.72 25.585-3.655 12.814-6.149 17.071-19.995l2.021-1.806M104.877 109.435q-.86-.129-.86-.559.043-.43.946-.387l4.73-.43q.903-.172.99.215.085.43-.775.731-2.408.86-5.03.43M121.303 39.388q-6.235-20.081-23.263-26.101-18.36-6.536-47.214 4.214-9.116 3.397-18.834 1.118-9.417-2.236-14.663-8.6-.989-1.204-1.677-.688-.645.473-.86 2.408-.43 4.902 3.096 10.062 3.397 4.988 8.213 6.966l-2.881.043q-4.472-2.494-7.353-7.267-3.053-5.074-2.623-9.933.301-3.225 2.021-3.827 1.591-.559 3.096 1.29 5.16 6.106 13.975 8.084 9.073 2.021 17.931-1.29 29.154-10.879 48.074-4.472 18.017 6.063 24.166 26.832 4.472-.344 7.697 2.537 3.311 3.01 3.311 7.869l-1.634 1.591q.645-5.031-2.709-8.127-3.053-2.838-7.353-2.365-.43.086-.516-.344"/><path fill="#0f141b" d="M14.448 36.636q7.955-.989 15.136.645l-1.204 1.161-13.76-.43q-2.408.344-3.139-.731-.774-1.075.516-2.967 2.924-4.3 7.611-5.676 4.988-1.462 10.277.989 1.118.516.946.903l-1.376-.043q-4.859-1.935-9.503-.473-4.343 1.333-6.751 4.988-.602.903-.258 1.333.301.473 1.505.301"/><path fill="#00568b" d="M82.001 60.071q-1.333-3.569-.258-5.332 1.118-1.849 4.515-1.118 7.826 1.72 18.19 11.352 10.577 9.847 13.63 18.748.817 2.494 4.43 2.58.945.043 1.16.602.215.516-.387 1.075-1.462 1.29-4.214 2.408-1.72.774-3.999-.645-8.858-5.074-22.962-2.795-15.093 2.451-28.079 12.341l-.086 3.096-8.6-1.118q-5.203-1.032-9.03-2.494 3.956 4.386 1.118 7.353-2.58 2.71-9.202 2.967 4.472 3.225 1.333 7.267-3.354 4.3-12.943 5.805-6.794 1.032-12.384-.645-5.719-1.72-6.02-5.117-.301-3.268 4.042-6.149 4.042-2.666 9.632-3.526-4.257-.989-8.342-4.042-4.515-3.397-4.687-6.622-.129-3.182 4.902-5.246 4.257-1.763 9.976-2.064-4.042-2.623-6.88-5.977-3.526-4.214-2.709-7.267.86-3.182 7.568-4.3 6.063-1.075 12.298.043-6.579-6.106-5.891-9.288.86-3.827 9.503-4.085 8.901-.258 17.243 3.698-1.677-2.279-2.58-4.73-.946-2.58-.301-3.44 2.279-3.01 12.298-.516 9.245 2.322 17.716 7.181"/><path fill="#e8390e" d="M103.888 19.135q3.44 4.988 4.73 12.986.344 2.279-19.178 2.451-19.565.172-21.285-2.494-2.881-4.515-4.73-9.503-1.978-5.418-.688-6.321 1.505-.989 5.504.946 4.343 2.064 7.568 5.805L70.09 7.095q-1.806-4.816-.387-5.805 1.333-.903 4.687.258t7.353 3.913q9.761 6.88 13.932 16.426.688-3.139 1.29-4.558.903-2.15 2.193-2.15 2.021 0 4.73 3.956"/><path fill="#004370" d="M77.916 65.188q7.267 3.354 14.233 7.998-4.773-3.612-8.385-9.417.13-2.279 3.311-2.021 3.053.258 6.493 2.494 6.15 3.913 13.072 10.32 6.88 6.321 9.761 10.664 1.161 1.72 3.01 2.15l4.3-.215q-.559.946-2.408 2.064l-2.666 1.247q-1.505.56-3.354-.559-9.288-5.59-24.209-2.795-14.706 2.752-26.832 12.083l-.129 3.096-8.471-.946q-3.612-.688-9.245-2.58 3.397 3.87 1.419 6.837-2.107 3.14-9.589 3.44 2.752 2.58 2.322 5.074-.43 2.451-4.042 4.945-4.214 2.924-11.739 3.44-7.138.516-11.094-1.376-3.44-1.978-.215-6.75 3.397-5.032 11.094-7.44l-2.752-.258q-4.73-1.548-7.482-3.612-3.784-2.838-.688-7.224 3.354-4.73 12.427-6.536l-2.537-.516q-1.978-1.376-4.472-4.042-1.677-1.892-1.032-3.655.688-1.806 3.44-2.666 3.698-1.118 10.406-.903 6.751.215 14.104 1.72-6.063-3.182-12.126-8.127-.903-1.634.473-3.096 1.419-1.462 4.3-1.892l11.094.344q7.998 1.075 13.459 3.526-2.752-1.892-7.052-6.837-.774-2.021.559-2.967l5.719-.258q7.31 1.462 15.523 5.246"/><path fill="#0f141b" d="M76.368 24.553q-2.838-3.655-7.31-6.149-4.257-2.365-5.547-1.548-1.075.645.301 4.945 1.419 4.429 4.386 9.245.731 1.204.344 1.419-.387.215-1.204-.903-3.397-4.73-5.031-10.062-1.677-5.375 0-6.407 1.892-1.204 6.837 1.634 5.16 2.924 8.041 7.267.774 1.161.43 1.419-.387.258-1.247-.86"/><path fill="#0f141b" d="M83.076 5.461q10.965 8.213 14.061 19.479.387 1.376-.043 1.505-.387.086-.86-1.247-3.74-10.449-13.889-18.189-3.956-3.053-7.525-4.515-3.44-1.376-4.73-.602-.989.602 2.064 8.858 3.956 10.75 4.472 13.115l-1.892-2.021-4.386-11.696Q67.166 1.634 69.101.43q1.677-1.032 5.59.344 4 1.462 8.385 4.687"/><path fill="#0f141b" d="M108.145 31.691q-1.505-6.536-4.386-11.309-2.838-4.644-4.859-4.3-1.075.172-1.806 2.709-.645 2.365-.645 5.418l-1.204-2.967q.13-2.666.99-4.644.945-2.15 2.321-2.365 3.053-.516 6.407 5.16 3.182 5.418 4.171 12.126.215 1.333-.215 1.376-.43.086-.774-1.204M100.19 60.415q14.276 11.008 18.705 23.521.301.903 1.075 1.29l2.236.387q1.763.043 2.107 1.075.301.903-.73 1.72-1.807 1.42-4.774 2.71-1.849.816-3.569-.345-8.127-5.805-23.134-3.31-15.824 2.622-28.939 13.114-.946.774-1.29.43-.301-.344.645-1.16 12.728-10.923 29.24-13.675 15.695-2.623 24.21 3.397 1.117.774 2.321.344l2.537-1.032 1.85-1.204.386-.602-.86-.258-2.666-.473q-1.376-.516-1.849-1.892-4.257-11.696-17.93-22.446-5.677-4.429-10.364-6.45-4.859-2.064-6.579-.645-1.763 1.462 1.075 7.482 3.053 6.407 8.127 9.59 1.376.86 1.118 1.29-.215.386-1.59-.43-5.978-3.441-9.289-10.364-3.182-6.665-.645-8.858 2.193-1.849 7.482.172 5.074 1.935 11.094 6.622"/><path fill="#0f141b" d="M82.947 61.748q-8.557-5.547-18.791-8.084-9.89-2.494-11.438.172-1.075 1.763 2.279 6.837 3.44 5.246 8.299 8.471 1.032.731.774 1.118-.258.387-1.29-.258-5.289-3.225-9.116-8.815-3.87-5.676-2.451-8.299 1.763-3.268 12.212-.946 10.363 2.322 18.92 7.74l.602 2.064M77.357 80.066q-3.87-3.225-8.385-6.063-1.032-.645-.774-1.032t1.29.215q5.031 2.967 8.471 6.15 1.032.945.731 1.29-.3.343-1.333-.56"/><path fill="#0f141b" d="M27.262 61.533q.86-4.085 9.417-4.601 9.073-.516 17.931 3.913l1.333 2.408Q47.3 58.48 38.141 58.566q-8.385.129-9.073 3.44-.602 2.795 4.042 7.439 4.902 4.902 13.029 8.987 1.032.516.774.903l-1.204-.043q-8.514-3.698-13.846-8.772-5.418-5.16-4.601-8.987"/><path fill="#0f141b" d="M17.372 82.173q3.01 4.128 7.611 6.708l-1.849.043q-4.3-2.236-7.353-6.536-2.967-4.128-2.537-6.837.559-3.397 7.568-4.902 6.837-1.505 13.029.13l1.806 2.02q-5.848-2.279-13.201-1.032-7.095 1.204-7.525 4.042-.344 2.494 2.451 6.364"/><path fill="#0f141b" d="M26.832 89.01q-.043.43-1.333.387-6.45-.086-11.094 1.85-4.558 1.848-4.816 4.514-.215 2.623 3.612 5.805 3.999 3.397 9.89 4.988l-2.021.387q-5.633-1.462-9.546-4.773-3.956-3.354-3.612-6.579.344-3.354 5.719-5.59 5.504-2.279 11.911-1.548 1.29.13 1.29.56"/><path fill="#0f141b" d="M38.7 108.876q1.075.56 1.892 1.85.86 1.29.903 2.536.129 3.483-4.257 6.321-4.773 3.053-12.427 3.655-6.751.516-11.696-1.29-5.418-1.935-5.719-5.848-.301-3.655 4.773-6.708 5.074-3.096 11.696-3.268 1.29-.043 1.333.387.043.43-1.247.56-6.493.644-10.965 3.568-4.171 2.71-3.913 5.332.258 3.096 4.644 4.644 4.3 1.548 11.051 1.075 6.923-.516 11.309-3.354 3.827-2.494 3.784-5.074-.043-1.462-.903-2.58t-2.365-1.72l2.107-.086"/><path fill="#0f141b" d="M47.042 98.814q1.419 1.247 1.935 2.881.559 1.634.086 3.053-1.075 3.397-7.181 4.515-5.203.903-10.449-.086-1.204-.215-1.118-.645.043-.43 1.247-.3l10.621-.474q4.644-1.16 5.418-3.569.473-1.462-.602-3.31-1.118-1.936-3.268-3.054l3.311.99"/><path fill="#0f141b" d="M64.156 102.985q-5.031-.086-10.535-1.333-5.891-1.333-10.277-3.612-1.247-.645-1.075-1.032l1.462.13q4.601 1.977 10.148 3.181 5.461 1.204 10.234 1.29l.043 1.376M55.126 84.882q1.849 1.247 5.676 2.752 1.075.473.903.86l-1.29.043q-2.752-.86-5.805-2.838-.946-.602-.688-1.032.258-.387 1.204.215"/><path fill="#0f141b" d="M65.145 98.6q-.774 3.568.215 6.707 1.118 3.483 4.171 4.988 1.548.774 1.548 1.72.043.946-1.548 1.806-5.117 2.795-9.546.344-4.601-2.494-4.558-8.815.043-1.419.43-1.419.43 0 .559 1.376.43 5.504 4.171 7.611 3.655 2.064 8.256-.387 1.032-.516 0-1.075-3.225-1.548-4.644-5.074-1.204-3.096-.731-6.794l1.677-.989"/></svg>