<svg xmlns="http://www.w3.org/2000/svg" width="395" height="349" viewBox="-0.172 -1.462 395.385 349.203"><path fill="#6fba2c" d="M257.183 39.431q8.987-2.494 19.48-1.634 1.203.086 1.332.817.086.774-1.29 1.505-2.02 1.118-9.46 3.698-7.052 2.408-10.62 4.601-11.052-.129-22.705 2.408 12.513-8.471 23.263-11.395"/><path fill="#0f141b" d="M276.19 37.238q2.536.215 2.58 1.333.085 1.118-2.495 2.451-2.666 1.376-9.202 3.526-6.235 2.107-9.804 4.042l-2.537-.129q5.031-2.924 11.696-5.16 7.654-2.537 9.503-3.44 1.032-.473 1.032-.86t-.903-.473q-9.675-.731-17.114 1.204-9.46 2.494-23.22 10.621l-5.547 1.849q14.362-10.105 26.617-13.416 8.987-2.408 19.393-1.548"/><path fill="#f3993a" d="M250.733 31.003q11.008-4.472 23.134-5.332 1.204-.086 1.677.731.516.86-.903 1.591-10.922 6.02-19.565 11.524-9.03 5.719-13.588 9.632-6.149.86-9.976 2.494l-5.504 1.677q-3.74 1.247-5.633 2.494l4.773-6.321q10.363-12.298 25.585-18.49"/><path fill="#0f141b" d="m254.99 40.721-13.287 8.385-2.666.43 14.233-9.46q8.944-5.762 20.425-12.04 1.075-.602.817-1.161-.215-.602-1.333-.43-16.21 2.15-27.305 7.568-14.706 7.138-24.166 21.242-.559.774-2.365 1.075 9.16-14.835 23.908-22.79 12.986-7.009 29.627-8.299 2.838-.215 3.397 1.118.516 1.419-2.193 2.881-9.03 4.902-19.092 11.481"/><path fill="#5ec2d0" d="M247.035 25.929q-9.46 9.933-12.857 13.846-6.88 7.869-11.008 14.577-7.095 3.01-14.49 10.019l-4.86 5.031q4.085-16.34 13.588-27.606 11.094-13.158 28.552-17.974l1.978.129q.387.602-.903 1.978"/><path fill="#0f141b" d="m247.293 26.703-10.406 11.61q-8.514 9.589-13.2 16.254l-2.667 1.032q7.568-12.255 25.241-29.799.903-.903.688-1.247l-1.419.043q-16.383 4.859-27.133 17.716-9.03 10.836-12.47 24.94l-3.225 4.257q2.623-15.179 11.825-27.434 11.74-15.652 30.874-20.769 2.623-.688 3.14.301.472.989-1.248 3.096"/><path fill="#fff3c3" d="m191.135 103.501 11.18 12.298q4.085-3.483 11.223-4.17 6.837-.689 13.03 1.461 4.686 8.17 2.364 15.91-2.107 6.966-9.33 12.298-6.795 5.031-15.954 7.095-9.288 2.107-17.544.301-17.07-6.708-24.897-19.264-3.526-5.633-3.956-11.008-.473-5.46 2.28-9.503 3.955-5.89 12.082-5.805 8.127.086 15.093 6.15 1.85-3.656 4.43-5.763"/><path fill="#59bded" d="M198.015 166.797q.688-5.117.817-10.148.043-1.548-.559-2.322-.516-.688-1.935-1.247-2.623-.946-10.75-4.558 8.041 1.634 17.372-.258 9.417-1.892 16.383-6.622 7.568-5.117 9.718-12.04 2.494-7.783-2.494-16.512 3.655 1.333 7.654 3.096 4 1.806 4.902 2.494l1.806 1.204q1.72 11.352-6.708 25.07-3.397 5.59-7.18 9.03-3.828 3.525-6.236 3.267l-3.483 16.254.043 7.783q0 1.935.817 3.311 6.45 10.922 10.32 21.93 4.73 13.287 7.181 30.53.473 3.096 2.795 13.502 1.72 9.03 0 9.761-1.247.56-5.332-4.6-3.612-4.602-5.762-8.73-1.118 6.063-4.472 12.341-3.354 6.15-4.988 5.504-1.505-.516-2.45-7.224-.86-5.977-.689-11.395-1.075-1.075-2.45-4.6-1.29-3.14-2.237-6.709-.86 4.128-2.709 8.815-1.892 4.73-2.709 4.773-.903.086-3.01-2.279-2.193-2.408-4.085-5.719-1.032 7.482-3.698 15.394-2.795 8.342-4.644 8.3-1.763-.044-3.87-7.139-1.806-6.32-2.45-12.47-2.925 6.15-7.354 11.782-4.257 5.332-5.46 4.902-1.377-.473-1.592-8.084-.258-8.213 1.161-18.662 3.913-28.466 16.211-46.268-7.74 6.02-16.21 5.934-5.419-2.408-5.763-3.956-.3-1.204 1.978-1.333l6.966-.73q3.913-.732 5.203-2.15-2.064-1.248-3.354-2.538-1.462-1.419-2.88-3.698-.689-1.16-.087-1.59l1.72.042q6.063 2.15 10.277 3.053 2.967.645 5.59-.774 4.73-2.537 6.708-5.719 1.161-1.892 1.978-7.998"/><path fill="#3e4e57" d="M201.24 122.593q.301-3.827 1.032-7.18 5.977-3.269 10.363-3.57.215 7.31-3.354 13.373-3.612 6.15-7.998 5.203-.344-3.483-.043-7.826"/><path fill="#00568b" d="M155.574 13.717q11.438 8.256 17.2 14.706 1.677 1.892.258 2.58-1.247.645-5.504.559 6.106 4.214 13.072 10.707 7.267 6.88 11.094 12.255.99 1.376.731 1.978-.3.688-2.236.817-4.085.215-9.804-1.591 3.096 6.02 12.083 15.222 7.568 7.783 14.491 13.158 1.29 1.032 1.075 2.236-.172 1.075-1.505 1.978-1.118.817-3.397 1.333l-3.827.56 1.118 4.213q-2.408.817-5.246 4.43-2.322 3.01-3.354 5.546-2.58-3.397-6.063-6.192-2.967-2.408-7.267-4.859-1.376-.817-1.935-1.806-.516-.989-.473-2.58.215-9.976-4.773-19.436-5.074-9.675-13.889-15.609-4.773-3.225-6.708-6.794-4.644-8.6-10.32-21.715-5.719-13.287-8.772-22.446-.516-1.505-.043-2.064.473-.559 1.935 0 9.503 3.741 22.06 12.814"/><path fill="#e8390e" d="M378.228 81.4q3.44-4.215 6.235-8.773 3.14-5.203 4.171-8.815.43-1.591 1.333-1.849t1.376 1.376q3.87 13.115-1.29 25.198-4.902 11.438-14.749 15.566 4.816-.645 15.351-5.59 1.591-.73 2.537-.387 1.118.43.602 2.193-2.537 8.858-12.04 12.943-7.912 3.44-19.049 3.096-8.04-.258-11.438-.129l-8.514.86q-8.385 6.794-16.125 16.813-8.17 10.664-16.813 14.878-8.299 4.042-19.65 3.354 5.288 1.505 12.04 2.623l10.19 1.161q2.838.172 3.526 1.333.774 1.247-1.376 2.881-5.074 3.913-14.62 5.29-11.18 1.676-22.66-1.463 2.02 2.15 6.148 4.085 4.515 2.107 8.557 2.365 1.978.086 2.365.903.43.903-1.72 1.806-7.267 3.053-18.877 1.204-13.674-2.15-23.693-10.363-4.945 7.267-11.997 10.45-6.493 2.923-13.33 1.891-6.622-.989-11.567-5.289-5.117-4.429-6.75-11.094-.345-1.419.515-1.548.817-.129 1.677.86l3.87 3.741q-2.623-3.225-3.569-7.138-.73-3.01-.559-7.009.043-1.29.774-1.548t1.505.903q5.203 7.697 13.502 7.353 8.342-.344 12.083-8.772-3.655-1.763-5.504-4.6-2.064-3.226-2.322-8.472-.043-1.247.516-1.677.602-.473 1.505.344 3.956 3.397 8.256 3.311 1.85-2.02 2.365-7.052.387-4.17-.258-8.6-.344-2.494-3.44-4.945-3.139-2.58-8.04-4.214-12.04-3.913-25.414.215-1.935 4.515-2.408 11.567-.473 6.58.473 12.728.215 1.42-.3 1.85-.56.386-1.678-.517-4.902-3.87-7.396-10.277-2.322-5.934-2.15-12.599.215-6.536 2.752-11.696 2.71-5.46 7.267-7.697-.946-2.408-1.118-4.214l3.612-.559q2.107-.473 3.311-1.247 1.548-.946 1.85-1.978.343-1.204-1.119-2.322l-7.396-6.235q4.3-9.89 13.33-16.985 8.6-6.708 20.253-10.019 11.438-3.268 23.865-2.709 12.685.602 24.166 5.074 11.352 4.472 21.285 1.29 9.245-3.01 12.986-10.965.731-1.505 1.677-1.548 1.032-.043 1.42 1.548 1.074 4.171-.732 9.331-2.107 6.149-7.439 10.062 5.72-2.064 8.041-5.504.86-1.333 1.634-1.29.774 0 .731 1.505-.258 7.654-6.063 13.588-5.46 5.59-12.384 6.493 7.353 2.15 14.19 5.59 7.955 3.956 13.76 9.03 4.86 4.171 11.438 5.203 6.622 1.032 13.03-1.419 15.092-5.719 19.564-24.725.43-1.849 1.42-2.107.988-.215 1.418 1.462 1.462 5.504 1.075 10.621M184.642 97.094l3.483 3.096 3.01 3.311q-2.623 2.28-4.429 5.762-2.795-2.45-7.138-4.644.43-2.064 1.85-4.128 1.332-1.978 3.224-3.397M159.014 109.435q1.29-2.02 3.14-3.44.86 2.193.558 4.386-.258 2.15-1.419 2.322-.86.086-1.419-.645-.688-.817-.86-2.623M177.074 108.876q.516.602.215 1.806-.3 1.118-1.247 2.193-.946 1.075-2.107 1.462-1.247.43-1.892-.172-.688-.602-.258-2.02.387-1.334 1.462-2.409 1.075-1.032 2.15-1.247 1.075-.258 1.677.387"/><path fill="#59bded" d="m202.272 115.412 1.29-3.913 1.29-3.44q11.481-6.45 33.24-8.213 20.08-1.59 34.098 1.591 1.462.301 1.634 1.247.172.86-.946 1.72-4.17 3.311-12.427 7.44-9.03 4.557-17.544 7.31l-1.935.343q-.817-.086-1.849-.817-9.202-6.278-19.823-7.138-10.406-.817-17.028 3.87"/><path fill="#e8390e" d="M165.507 151.962q-.3-2.623.86-2.02l1.333 1.16 2.15 1.505q-1.763-3.31-1.763-6.192 0-1.16.645-1.419.645-.215 1.462.602 5.29 5.29 11.524 6.235 4.988.774 9.116-1.333l6.063 2.838q1.247.56 1.677 1.462.344.774.344 2.537 0 4.43-1.075 11.137-10.535 5.117-20.984-.559-10.19-5.504-11.352-15.953"/><path fill="#59bded" d="M89.354 124.227q1.204-1.59 2.193-1.333 1.075.301 1.161 2.58.946 20.468 7.095 32.035 5.676 10.75 20.511 21.844 11.18 8.428 14.534 13.416-2.537 1.161-4.343 2.623-8.385-5.547-19.35-4.687-10.75.817-19.393 7.353-2.623 5.504-2.623 15.781 0 21.371-12.298 33.454-5.46 5.375-12.298 7.44-6.837 2.063-13.674.386-9.675 7.44-21.586 5.203-12.169-2.279-17.243-13.115-4.816-2.45-7.998-7.267-3.053-4.6-3.268-9.116-.129-3.31 2.236-2.02 3.784 2.063 9.718 2.02 5.762-.086 11.481-2.064 5.977-2.064 9.804-5.547 4.214-3.827 4.73-8.47 1.075-9.547 5.16-17.373 3.87-7.31 11.18-14.577-4.687.602-9.288 2.322-3.354 1.29-8.127 3.827-1.763.946-2.58.172-.688-.73-.258-2.02 3.44-10.364 16.77-17.76 11.954-6.665 22.49-6.665-4.688-6.235-5.204-14.878-.387-6.45 1.462-12.169.731-2.279 1.806-1.978.99.301 1.42 2.408.945 4.3 3.31 8.557 2.28 4.085 5.375 7.31-.215-8.084 1.548-15.265 1.85-7.482 5.547-12.427"/><path fill="#fff" d="m201.584 133.343-.3-2.924q3.826 1.29 7.61-4.6 3.913-6.064 3.741-13.976 2.795-.258 5.848-.129.86 6.02-.989 11.524-2.064 6.106-6.88 9.46-2.02 1.42-4.902 1.548-2.623.086-4.128-.903"/><path fill="#fff3c3" d="M212.506 191.995q1.591 2.021 2.967 5.504 1.634 4.128 1.591 7.181-.043 2.15-1.204 5.16-1.204 3.096-3.31 6.235-.56.86-.99.903-.387.086-.86-.645-1.72-2.709-3.139-6.622-1.462-3.913-1.376-5.719.086-2.45 4.257-11.91.473-1.033.99-.99.386.043 1.074.903M119.927 210.313q3.526-8.17 9.546-14.19 4.902-4.902 15.652-5.89 10.45-.947 18.533 2.407 5.16 2.15 11.653.516 5.332-1.333 10.578-4.902-6.837 9.245-11.266 24.21-3.87 12.9-4.988 26.23-7.654-.43-14.706-3.57-4.773 12.384-17.243 22.747-12.34 10.191-22.962 10.922-1.634.13-2.58 1.075-.86.86-1.634 2.881-2.537 6.493-6.063 19.393-3.483 12.771-5.762 23.78l-3.01-.087q.602-4.515.903-12.384.344-8.514-.3-8.686-.603-.129-5.806 7.095-4.3 6.02-8.47 12.384-1.592-.387-4.43-1.505-2.838-1.16-5.375-2.45 3.87-9.633 11.911-24.64 7.052-13.2 12.642-22.016 1.376-2.15 2.71-3.096 1.332-.989 3.095-.989 4.214 0 7.998-7.267 4.257-8.213 4.73-20.468.516-11.954 4.644-21.5"/><path fill="#00568b" d="m95.675 315.835 3.01.086-1.677 9.202q-.3 2.107-1.505 3.01-1.247.903-3.999.946-4.515.086-9.46-.989-5.375-1.16-9.976-3.397-1.763-.86-2.322-3.053-.516-2.064.129-4.558.774-3.01 2.322-6.794 2.537 1.29 5.375 2.451 2.838 1.118 4.43 1.505 4.17-6.364 8.47-12.384 5.203-7.224 5.805-7.095.645.172.301 8.686-.3 7.87-.903 12.384"/><path fill="#fff3c3" d="M123.238 266.428q5.074-2.064 9.417-4.859 3.913-2.494 8.385-6.32l4.558.085q1.161-2.02 2.064-4.73.774-2.365 1.032-4.17 3.053-4.516 6.235-11.31 5.676 2.666 14.405 3.483-.989 8.772-.86 15.308.215 7.654 2.064 7.138-3.655 7.181-11.438 9.202-6.579 1.72-12.857-.688-2.838 6.192-7.18 13.244l.128-3.139q-.129-1.204-.43-1.376-.903-.516-7.095 3.268-5.547 3.44-9.374 6.45-3.268-1.634-5.117-5.719-1.462-3.268-2.15-8.47l4.214-3.699 4-3.698"/><path fill="#00568b" d="M107.285 283.37q1.118-3.096 3.655-5.676l4.085-3.87q.688 5.203 2.15 8.471 1.85 4.085 5.117 5.72 3.827-3.01 9.374-6.45 6.192-3.785 7.095-3.269.301.172.43 1.376l-.129 3.14q-5.676 9.373-11.438 16.64-1.29 1.677-3.526 2.365l-3.698.301q-5.074-1.032-8.47-4.085-3.527-3.182-4.946-8.256-.86-3.096.301-6.407"/><path fill="#fff3c3" d="M182.922 244.584q.13 3.612 1.333 8.514 1.075 4.386 2.28 7.095-1.85 5.203-3.398 13.846-1.29 7.31-1.849 13.975-.688 8.944-1.075 43.516l-6.923 1.032q.215-6.75-1.118-16.254-1.29-9.073-2.15-9.159-.73-.043-5.246 9.847-4.257 9.331-6.063 14.362-4.042-1.16-8.729-3.913 3.096-10.234 10.277-28.208l8.213-19.909q3.225-8.084 3.741-19.22 4.773-4.774 10.707-15.524"/><path fill="#00568b" d="M148.307 339.442q-.688-2.064-.215-4.558.602-3.139 1.892-7.439 4.687 2.752 8.73 3.913 1.805-5.03 6.062-14.362 4.515-9.89 5.246-9.847.86.086 2.15 9.16 1.333 9.502 1.118 16.253l6.923-1.032-.086 7.998q-.043 2.408-1.032 3.827-.903 1.29-2.752 1.85-5.719 1.848-12.814 1.074-6.579-.688-12.126-3.31-2.279-1.119-3.096-3.527"/><path fill="#fff3c3" d="M210.313 234.393q.688 3.44 1.85 6.622 1.29 3.612 2.622 5.203-.172 6.536.731 12.341.946 6.235 2.408 6.278 1.634.043 4.601-4.859.516 3.784 1.72 8.041 1.29 4.515 2.838 7.955 7.052 15.523 12.9 33.798-3.139-3.526-4.128-3.268-.645.13-1.075 9.116l-.516 13.846q-7.912.602-18.963-2.193-1.849-28.294-1.763-41.409.086-8.428-2.15-20.554-1.935-10.664-4.73-19.522 2.193-5.504 3.655-11.395"/><path fill="#00568b" d="m215.602 331.874-.3-4.6q11.05 2.794 18.962 2.192l.516-13.846q.43-8.987 1.075-9.116.99-.258 4.128 3.268 4 12.427 5.72 21.156.73 3.698-.216 6.106t-3.354 3.14q-3.44 1.074-9.675 1.332-5.246.215-9.675-.258-6.622-.73-7.18-9.374"/><path fill="#bae3f9" d="M57.319 202.788q1.333-.387 1.849 1.978.559 2.838-1.591 6.88-1.634 3.01-3.569 4.43-1.72 1.246-2.795.687-.989-.516-.731-3.096-1.505 1.505-2.795 2.15-1.29.602-2.064.172-1.333-.73-.688-4.6.645-4.086 3.139-8.816 2.365-4.429 5.461-6.923 2.881-2.279 4.257-1.376 1.075.688.946 3.01-.172 2.28-1.419 5.504M33.368 238.65q-1.806-.086-2.107-1.032-.344-1.075.774-2.45 1.204-1.506 3.311-2.366 2.15-.946 4.085-.774 1.892.13 2.279 1.118.387 1.032-.86 2.451-1.333 1.505-3.44 2.322-2.193.86-4.042.731"/><path fill="#28343b" d="m201.8 118.637.644-3.225q4-3.01 10.02-3.74l-.044 3.095q-6.106.817-10.62 3.87"/><path fill="#fff" d="M204.207 114.853q1.935-1.419 4.257-2.064.688 1.333.086 3.44-.559 1.72-1.548 2.451-.817.602-1.763.387-.817-.172-1.16-1.333-.345-1.247.128-2.88"/><path fill="#dcdddd" d="M204.207 114.853q1.935-1.419 4.257-2.064.56.99.215 2.752-2.494.688-4.687 1.806-.172-1.29.215-2.494M218.44 111.628l.086 2.967-6.106.172.043-3.096q2.795-.3 5.977-.043"/><path fill="#dcd2a9" d="M218.44 111.628q4.214.301 8.6 1.72l1.376 3.096q-5.246-1.59-9.89-1.849l-.086-2.967"/><path fill="#4da5ce" d="M241.273 119.798q-1.16 1.333-2.537.602-3.526-1.849-10.32-3.956l-1.376-3.096q7.955 2.451 12.126 5.332 1.42.99 2.107 1.118"/><path fill="#dcd2a9" d="m191.866 104.361-.946 3.397q-.817-1.204-1.806-2.193l2.021-2.193.731.99"/><path fill="#c93008" d="M228.932 132.311q1.462 7.912 7.01 10.793 5.503 2.881 12.254-.602 1.806-.946 2.408.258.56 1.204-.989 2.107-4.214 2.537-8.514 2.666-3.999.086-7.18-1.892-3.14-1.935-4.516-5.375-1.419-3.612-.473-7.955M209.453 157.681q-2.236-5.805-.258-10.664.258 6.321 2.365 10.664 2.365 4.86 7.138 7.697 2.15 1.29 1.677 2.15-.516.903-2.666-.344-5.89-3.31-8.256-9.503"/><path fill="#c93008" d="m208.378 158.842 1.806 2.236q1.204 1.505 2.881 3.01 2.451 5.16 7.74 7.138 4.988 1.892 11.31.645 6.234-1.204 11.867-5.117 5.977-4.17 9.59-10.234-3.312 9.718-10.32 15.05-6.365 4.816-14.19 4.945-7.569.13-13.76-4.085-6.45-4.472-8.945-12.169-.516-1.548.258-2.064.731-.473 1.763.645M168.818 145.168q2.537 8.73 12.341 12.298 8.3 3.053 17.673 1.462-.344 5.72-.989 9.503-4.558 2.408-10.105 2.322-5.418-.086-10.32-2.537-11.137-5.547-12.04-17.372 1.72 3.268 4.128 5.203 1.935 1.591 5.633 3.268-3.612-3.01-5.762-7.955-2.107-4.859-.559-6.192M303.967 66.263q-1.59.43-1.935-.86-.344-1.29 1.032-1.806 6.493-2.451 10.578-8.17 4.515-6.235 3.741-13.588 1.42 1.892 1.42 5.332 0 3.612-1.549 7.31-3.87 9.202-13.287 11.782"/><path fill="#c93008" d="M297.13 78.131q-2.064-.129-2.064-1.59.043-1.506 2.021-1.463 7.611.172 14.964-6.02 7.224-6.106 8.084-13.029 1.204 3.311-.086 7.353-1.247 3.956-4.429 7.396-7.525 8.041-18.49 7.353M375.863 69.445q1.505 1.204 2.15 5.29.56 3.482.258 6.836l-3.139 3.612q1.29-3.784 1.42-7.525.128-3.397-.689-8.213M390.053 61.834q2.494 2.752 2.967 9.073.516 6.536-1.462 13.416-4.988 17.501-20.21 21.027-1.806.43-2.02-.946-.216-1.376 1.461-1.849 10.793-3.01 16.426-14.49 5.848-11.826 2.838-26.231"/><path fill="#c93008" d="M344.645 116.66q-6.407.945-13.975 3.998 6.321-4.945 19.436-6.278l19.522-.946q7.224-.516 14.405-4.988 7.525-4.687 9.632-10.492.258 8.385-9.202 13.717-9.718 5.461-24.51 4.601-9.073-.516-15.308.387M316.093 157.681q-3.182 6.708-18.318 7.912-13.932 1.118-25.972-2.795-1.935-.645-1.548-2.236.43-1.548 2.494-.989 12.47 3.354 23.693 3.01 11.954-.344 19.651-4.902M294.55 171.226q-1.978 2.322-7.095 3.268-5.03.903-11.524.13-15.222-1.764-25.37-10.149l2.15-3.483q8.471 7.224 20.554 9.89 11.137 2.451 21.285.344M201.928 135.58q.215 1.418-.3 1.59-.474.172-1.42-.602-3.397-9.976-1.032-20.94 2.451-11.439 10.02-17.889 1.676-1.462 2.751-.3 1.118 1.203-.258 2.407-12.986 11.653-9.76 35.733"/><path fill="#004370" d="M148.608 29.283q3.87 10.062 6.407 15.609.645 1.419 1.806 2.107 1.075.645 3.053.86 16.082 1.892 31.734 8.858-1.118.774-5.203.344-4.3-.473-8.557-1.978-11.266-3.956-17.544-3.87 7.654 4.73 13.502 14.792 5.59 9.59 6.15 17.888.085 1.591.86 2.236.687.645 2.493.903l12.771.56q6.923-.302 12.17-1.678-.474 2.494-6.279 3.741-5.418 1.161-13.373.903l3.14 3.956 3.482 4q-1.72 2.58-3.096 5.804-2.279-2.58-5.89-5.633-4.3-3.612-7.956-5.633-1.333-.73-1.806-1.59-.516-.818-.473-2.28.13-12.298-6.407-22.919-5.547-8.944-12.943-12.814-3.827-2.021-6.106-6.665Q129.817 3.87 131.967.688q7.568 15.523 11.567 23.091.817 1.505 1.85 2.064.816.43 2.45.516 14.491.688 25.585 4.558l-5.676.516-8.17-1.075q-5.676-1.204-10.965-1.075"/><path fill="#4da5ce" d="M198.703 162.067q.344-3.268.215-4.816-.215-1.806-.688-2.709-.602-1.075-1.935-1.548-5.289-1.935-10.363-4.343l10.793.43q6.708-.344 12.04-1.892-1.075 4.86.301 8.987.86 2.71 3.612 6.665l-2.365-2.064-1.849-1.892q-.817-.774-1.462-.688-.688.086-.602 1.333.344 3.956 4.171 8.557 3.397 4.171 7.052 6.063l-.043 6.15q.215 3.611 1.333 5.16-15.308-3.914-21.156-15.997l.946-7.396"/><path fill="#dcd2a9" d="M202.66 148.393q-7.225 1.333-16.427.43l-6.75-3.397q-3.613-1.978-6.537-4.472 10.363 4.902 22.704 5.074 10.535.172 21.5-3.053-6.966 4.042-14.49 5.418"/><path fill="#4da5ce" d="m240.5 131.28-.86 2.235-.86 2.236-3.398-.73q2.924-1.807 5.117-3.742M228.89 138.546q2.321 6.15 7.395 8.6-1.892 4.257-5.59 6.536-3.784 2.28-7.998 1.591-4.558-.172-8.557-3.397-2.838-2.365-4.3-5.117 2.71-.774 7.31-3.784 6.02-1.763 11.74-4.429M203.82 110.854q16.34-6.923 34.873-8.643 18.877-1.763 33.712 2.451-6.278 4.257-13.459 7.955-8.342 4.3-15.394 6.407l-2.45.387q-.86-.086-1.936-.73-10.062-5.849-19.092-6.967-10.19-1.29-17.802 3.698l1.548-4.558M175.01 183.868q-3.44-3.096-3.354-5.89 4 5.46 10.277 7.438 1.634.516 1.29 1.634-.344 1.118-1.72.688-3.397-1.032-6.493-3.87M164.002 189.76q2.58 1.375 6.966 2.02l8.342.301q-4.816 1.892-9.03 1.978-2.02-.344-4.085-1.634-2.279-1.419-2.193-2.666M177.375 253.743q-5.805 7.912-7.482 6.708 2.408-1.978 6.536-9.116 3.784-6.493 6.235-12.255.645-1.59 2.064-1.075 1.376.473.516 2.494-2.494 5.848-7.869 13.244"/><path fill="#4da5ce" d="M183.954 242.477q1.118 6.966 2.623 12.384 1.634 5.762 2.623 5.762 1.42 0 5.16-12.9 3.698-12.728 4.644-20.296-.903 11.782-3.784 23.736-3.225 13.115-5.977 12.986-1.849-.129-3.956-6.923-2.107-6.837-2.193-12.943l.86-1.806"/><path fill="#4da5ce" d="M198.23 238.35q1.462 2.58 3.354 4.643 1.85 2.064 2.666 2.021.99-.086 3.354-5.16 2.408-5.246 3.354-9.847-.688 5.848-2.666 11.696-2.02 6.106-3.612 6.665-.73.258-3.182-2.58-2.322-2.709-3.87-5.375l.602-2.064M215.731 247.164q-1.032.043-2.838-4.214-1.677-3.87-2.537-7.61l.301-2.194q1.204 4.515 2.71 7.396 1.418 2.71 2.364 2.71 1.075 0 2.795-4.043 1.892-4.472 2.752-10.062-.215 5.891-1.978 11.868-1.849 6.063-3.569 6.15"/><path fill="#4da5ce" d="M216.204 246.992q.086 5.074.86 9.331.774 4.386 1.72 4.558 1.29.215 4.3-5.332 3.225-5.848 4.43-11.438-.775 7.955-4.258 14.706-3.182 6.063-5.332 5.891-1.677-.129-2.58-7.439-.645-5.375-.645-11.008.387.688.731.817l.774-.086M227.943 243.51q1.892 4.127 5.418 9.201 3.354 4.816 4 4.601.472-.172.73-1.72l.258-3.483q.731 3.01.774 5.461.043 2.537-.688 2.71-1.29.3-5.246-4.73-3.74-4.688-5.805-8.687.516-1.806.56-3.354"/><path fill="#dcd2a9" d="M214.957 211.732q-2.365 5.332-3.354 5.246-1.247-.129-3.612-6.32-2.45-6.322-1.075-7.698.043 2.795 2.021 6.751 1.806 3.655 2.666 3.698.774.043 2.795-3.612 2.107-3.74 2.365-6.02.688 2.408-1.806 7.955"/><path fill="#4da5ce" d="m132.655 193.844-2.193 1.591q-10.19-7.095-24.424-3.913-15.265 3.354-24.338 16.856 1.978-6.278 7.654-11.524 5.547-5.074 12.943-7.61 7.783-2.667 15.437-1.72 8.342 1.031 14.921 6.32"/><path fill="#4da5ce" d="M86.817 202.23q2.322-2.323 5.16-4.3-1.333 3.138-2.15 7.868-.774 4.3-.774 7.611 0 22.016-12.599 34.185-5.504 5.29-12.212 7.224-6.622 1.892-12.9.086l6.45-6.32q10.277-.603 18.533-11.267 7.654-9.89 8.428-20.769.731-9.46 2.064-14.319M.989 228.717q3.698 13.46 18.189 16.598 13.588 2.924 26.402-4.687 2.236-1.333 3.612.258 1.376 1.548-.903 3.053-8.514 5.633-17.501 6.751-8.17 1.032-15.265-1.763-6.794-2.709-10.707-8.084Q.774 235.34.989 228.717"/><path fill="#4da5ce" d="M33.798 250.518q4.644 1.376 12.814.301 8.557-1.075 12.298-3.87-4.472 6.192-11.008 9.847-6.407 3.526-13.244 3.784-7.052.258-12.857-3.01-6.278-3.526-9.933-10.62 4.3 2.622 9.933 3.611 6.02 1.032 11.997-.043M35.131 189.157q3.827-3.827 9.761-6.493 6.45-2.967 12.771-3.31 1.978-.087 1.978 1.504.043 1.634-2.021 1.85-5.547.644-11.18 2.45-4.945 1.591-7.697 3.225-2.236 1.376-3.612.774M83.12 140.137q1.461-8.17 5.16-14.018-4.3 16.254-3.097 29.068l-2.795-2.838q-.387-5.848.731-12.212M69.961 154.327q-2.58-8.9.172-17.544-.473 10.234 2.021 16.856 2.193 5.762 7.44 10.535 1.633 1.462.773 2.752-.903 1.29-2.623-.129-5.46-4.343-7.783-12.47"/><path fill="#dcd2a9" d="M177.762 253.184q2.795-4.085 5.074-8.514.344 3.526 1.376 8.127 1.118 4.816 2.236 7.353l-1.849 7.353q-3.182-5.676-4.257-9.718-2.494 2.494-8.514 6.622l.258-4.128q2.537-2.408 5.676-7.095M115.154 268.793q-1.892.215-2.88.946-.904.688-1.592 2.28-2.15 4.944-5.633 18.06-3.483 12.942-6.149 25.842l-3.182-.129q.731-5.46 1.032-12.857.301-8.084-.516-8.213-.344-.043-1.505 1.333 7.353-17.243 12.341-25.714 1.548-2.709 2.795-3.698 1.376-1.075 3.784-1.376 11.524-1.462 23.091-13.889 11.18-11.954 13.03-23.349.343-2.107 2.278-1.376 2.666.99 8.686 1.505 6.235.56 10.062.043l-1.462 10.578q-8.6-.73-14.49-3.74-3.527 10.534-15.309 21.155-12.642 11.31-24.38 12.6"/><path fill="#004370" d="M94.73 296.055q1.16-1.376 1.504-1.333.817.13.516 8.213-.3 7.396-1.032 12.857l3.182.13-1.677 8.556q-.688 4.171-4.558 4.644-2.924.43-10.363-.989 5.461-15.867 12.427-32.078"/><path fill="#dcd2a9" d="M139.148 282.295q.215-3.74-.559-4.042-.559-.215-6.665 3.354-6.063 3.57-9.976 6.407-1.247-.73-2.236-1.72 4.816-6.622 10.578-13.115 5.074-5.719 12.47-13.072 2.623-3.87 3.913-6.794 1.333-3.096 2.021-6.966 3.57-4.687 6.15-11.309 4.342 2.451 14.49 3.741-.774 6.364-.645 13.588.172 8.815 1.935 8.815-4.042 6.58-10.75 8.686-6.278 1.935-13.674-.3-2.279 5.03-7.052 12.727"/><path fill="#004370" d="M138.59 278.253q.773.301.558 4.042-4.3 7.052-10.879 16.598-1.29 1.892-3.569 2.71l-4.515.386q-4.257-.73-8.342-4.042 4-6.32 7.87-11.653.988.99 2.235 1.72 3.913-2.838 9.976-6.407 6.106-3.569 6.665-3.354"/><path fill="#dcd2a9" d="M177.418 288.917q3.655-21.199 7.611-32.379l1.204 3.01q-2.365 10.105-2.88 12.814-1.678 8.385-2.065 15.136-.989 18.275-1.29 44.032l-6.794 1.032q0-6.278-.86-14.534l2.71-15.695 2.364-13.416"/><path fill="#004370" d="M172.344 318.028q.86 8.256.86 14.534l6.794-1.032-.086 7.87q-.043 4.3-2.236 5.503-1.849 1.032-9.589 1.72 1.548-12.169 4.257-28.595"/><path fill="#dcd2a9" d="M210.27 234.91q2.537 9.33 4.43 11.351 0 5.375.86 11.18.945 6.751 2.364 7.267.602.258 2.021-1.075 1.505-1.419 2.494-3.354-.258 3.053-2.193 5.676-1.892 2.58-4.042 2.924 1.978 10.535 2.494 17.76.99 13.028 2.494 23.133 1.505 10.062 3.827 19.393l-9.546-1.763-1.032-26.187q-.473-14.663-.774-17.93-.989-10.32-2.537-19.394-1.935-11.739-4.343-18.232l3.483-10.75"/><path fill="#004370" d="M218.956 339.442q-2.838-2.279-3.139-6.579l-.344-5.46 9.546 1.762q1.42 5.762 3.354 12.083-6.106.774-9.417-1.806"/><path fill="#c93008" d="M327.488 123.023q3.14-2.279 7.396-3.913 4.042-1.505 7.87-2.02-3.01 2.321-6.88 6.148-3.742 3.698-5.462 6.02-10.578 14.104-20.296 19.135-10.148 5.203-24.424 3.225 25.37 1.032 41.796-28.595"/><path fill="#0f141b" d="M176.472 113.176q-1.16 1.333-2.752 1.677-1.419.301-2.064-.3-.645-.603-.516-1.893.215-1.505 1.548-3.01 1.075-1.204 2.537-1.548 1.333-.344 2.021.258.774.645.602 1.978-.129 1.42-1.376 2.838m-1.16-4.17q-.947.343-1.85 1.332-1.16 1.247-1.376 2.365-.172.86.215 1.161l1.29.086q1.032-.344 1.978-1.462 1.032-1.16 1.247-2.279.172-.86-.172-1.16l-1.333-.044M160.863 113.133q-.688-.043-1.29-.645-.73-.73-.989-2.02l.903-1.463q-.043 1.462.516 2.451.473.774.903.774 1.118.043 1.376-2.236.215-2.193-.602-3.569l.86-.516q1.204 1.72.731 4.472-.516 2.838-2.408 2.752M204.938 147.103q9.417-2.279 15.953-7.998 6.321-5.547 7.74-12.47 1.462-7.267-3.182-13.63l2.193.386q4.171 6.407 2.752 13.588-1.376 6.88-7.353 12.556-6.149 5.805-15.179 8.514-9.76 2.881-20.64 1.376l-3.698-2.064q11.137 2.28 21.414-.258"/><path fill="#0f141b" d="M190.361 114.08q-7.826-8.988-17.114-9.762-8.084-.688-12.47 4.43-4.945 5.847-1.118 15.264 3.612 8.815 12.341 15.48 4.687 3.612 11.74 7.138 4.858 2.451 13.415 6.063 2.537 1.032 2.537 3.784-.043 6.063-.989 11.61-.817 4.601-1.72 6.536-.903 1.806-2.838 3.44l-4.17 2.881q-2.495 1.591-6.924.903-3.698-.602-9.89-3.053l-.903-.043q-.086.258.473 1.247 1.591 2.623 3.698 4.257 2.021 1.591 4.86 2.58 1.29.43 1.117.86l-1.376.086q-6.149-1.634-9.46-7.095-1.333-2.236-.688-3.139.602-.86 2.795.043 5.375 2.28 9.374 2.881 4.128.56 6.235-.774 4.86-3.096 6.235-5.848.903-1.763 1.634-6.235.903-5.246.946-11.18.043-1.806-1.462-2.365-8.385-3.44-13.717-6.063-7.138-3.569-12.04-7.138-9.933-7.267-13.373-16.985-3.44-9.847 1.978-16.297 4.902-5.762 13.717-5.16 9.718.731 17.33 9.546l-.173 2.107"/><path fill="#0f141b" d="M174.838 139.32q-.989-.473-.817-.86l1.161-.043q4.43 1.462 8.127.99 3.87-.56 7.482-3.312.99-.774 1.247-.473.258.258-.602 1.204-3.096 3.354-7.869 4-4.6.601-8.729-1.506M227.685 133.687q.13-3.827 3.311-1.59 5.074 3.568 8.901 2.88 4.43-.774 5.461-7.138.215-1.333.688-1.29.43.086.258 1.42-.774 7.481-6.235 8.341-4.687.688-9.76-3.182-1.29-1.032-1.334.602-.215 7.74 5.805 11.524 6.364 3.956 13.89-.774 1.203-.774 1.418-.387.258.387-.903 1.204-7.654 5.461-14.792 1.376-7.009-4.042-6.708-12.986"/><path fill="#0f141b" d="M208.937 146.243q1.032-.129 2.28 1.763 3.998 5.805 11.308 6.58 8.471.86 12.986-7.827l1.548.215q-4.644 9.804-13.975 9.331-3.913-.215-7.482-2.365-3.526-2.107-5.547-5.418-.43-.73-.688-.688-.3.043-.344.99-.258 5.503 1.333 9.33 2.193 5.332 8.17 8.815 1.161.688.86 1.032-.3.344-1.462-.258-6.493-3.397-8.944-9.374-1.806-4.386-1.29-9.632.215-2.365 1.247-2.494"/><path fill="#0f141b" d="M207.217 160.304q2.58 7.611 8.901 11.868 6.063 4.085 13.33 3.698 12.6-.645 20.898-13.502 7.955-12.384 6.407-26.789-.129-1.29.301-1.419.43-.086.645 1.161 2.537 14.32-5.633 27.477-8.6 13.846-22.532 14.706-7.74.43-14.104-3.827-6.966-4.687-9.589-13.373-.645-2.193.473-2.709 1.161-.559 2.795 1.247l2.322 2.623 2.15 1.978 2.58 3.053q-2.322-1.075-4.343-3.01l-3.612-3.784q-.73-.774-1.032-.516-.258.258.043 1.118M154.37 13.631q-10.535-7.525-20.167-11.782-1.462-.645-1.806-.344-.3.258.043 1.591 1.204 4.386 4.171 11.61l6.192 14.233q2.365 5.375 8.858 18.232 1.118 2.279 2.71 3.698 1.031.989 4.041 2.881 8.514 5.289 13.717 15.394 5.246 10.191 4.644 20.425-.086 1.161.344 1.763l1.462 1.118q3.741 1.978 7.44 4.988 3.998 3.225 6.148 6.235l-.602 1.505q-2.15-3.182-6.063-6.45-3.913-3.268-7.525-4.945-1.419-.688-2.02-1.59-.646-.99-.56-2.624.43-9.933-5.117-20.21-5.203-9.761-12.599-14.405-3.053-1.892-4.214-2.924-1.806-1.634-3.096-4.171-5.16-10.234-8.9-18.361-7.784-16.684-10.407-26.015-1.333-4.945 3.655-2.838 10.02 4.3 20.726 11.911 10.406 7.396 17.587 15.093 2.021 2.15 1.72 3.182-.344 1.032-3.053 1.419l-6.02-.344q-1.29-.301-1.204-.645.043-.344 1.376-.301l5.676-.172q1.161-.172 1.204-.602.086-.473-.86-1.548-7.009-7.525-17.5-15.007"/><path fill="#0f141b" d="M160.347 31.003q-5.504-1.161-10.535-1.204-1.462-.043-1.462-.473 0-.473 1.462-.516 6.106-.086 10.707 1.204 1.42.43 1.29.86l-1.462.129M168.302 31.476q6.278 4.343 12.857 10.363 7.568 6.966 11.094 12.255 1.376 1.978.86 2.924-.473.903-2.709.989l-5.375-.473q-3.526-.602-6.45-1.763-1.333-.559-1.204-.946.086-.387 1.462 0l6.278 1.333 5.246.43q1.72-.043.56-1.763-3.57-5.332-11.697-12.728-6.794-6.149-12.857-10.363l1.935-.258"/><path fill="#0f141b" d="M161.035 50.783q7.396.086 14.62 2.881 1.333.559 1.161.946-.215.387-1.462 0-7.697-2.451-14.319-2.838-1.204-.043-1.204-.516 0-.473 1.204-.473M181.073 55.857q4.3 6.579 12.255 14.921 8.17 8.6 14.19 12.685 2.064 1.42 1.72 3.096-.43 1.85-3.87 3.01-4.773 1.634-10.707 1.806l-11.137-.688q-1.505-.172-1.462-.602.043-.473 1.548-.344 6.235.43 11.696.043 5.934-.387 9.632-1.634 1.892-.645 2.365-1.634.473-.989-.688-1.763-6.493-4.429-15.007-13.502-8.6-9.245-12.34-15.867l1.805.473"/><path fill="#0f141b" d="M199.692 94.73q-.946-2.022-1.16-4.73l1.547-.13q.13 2.021 1.032 4.214l-1.419.645M185.33 97.74q-3.999 2.493-5.074 7.395l-1.462-.602q.473-1.978 1.548-3.827 1.505-2.45 3.827-3.999l1.161 1.032M186.233 108.79q1.462-3.182 4.558-5.934l.731 1.204q-3.053 2.838-4.17 5.59l-1.119-.86M280.962 54.137q-10.836-4.171-22.833-4.988-12.169-.817-23.306 2.064-25.155 6.45-34.658 27.477l-1.333-1.118q9.675-21.457 35.432-28.079 11.395-2.967 23.865-2.107 12.298.817 23.392 5.203 7.654 2.967 14.878 2.365 11.954-.989 18.748-11.997 1.204-1.892 2.365-1.806 1.247.086 1.806 2.537 1.505 6.794-2.709 13.631-4.429 7.224-12.212 8.944l-1.333-.129q-.129-.43 1.075-.817 7.267-2.279 11.352-8.944 3.87-6.364 2.494-12.384-.215-1.032-.73-1.118-.474-.043-.99.817-6.579 11.395-19.006 12.771-8.127.86-16.297-2.322"/><path fill="#0f141b" d="M311.191 62.221q4.687-2.064 6.794-5.289 1.333-2.064 2.365-1.763 1.032.301 1.075 2.838.215 8.514-7.18 14.921-7.483 6.45-16.642 5.332-1.204-.172-1.16-.602.042-.43 1.29-.387 8.427.602 15.264-5.203 6.923-5.891 7.095-14.104 0-1.849-1.075-.215-1.333 2.064-4.386 3.956-2.88 1.763-6.579 2.924l3.14-2.408"/><path fill="#0f141b" d="M377.712 70.65q1.978 6.105 1.204 10.19l-1.806 1.935q.688-3.225.473-6.192-.215-2.494-1.118-5.504-.258-.817-.602-.817-.387 0-.602.903-2.623 9.16-6.708 14.964-4.128 5.848-10.406 9.116-6.75 3.526-14.448 3.096-8.299-.43-14.147-5.504-5.719-4.945-13.674-8.944-7.955-3.956-15.78-5.805l3.31-.817q7.396 1.935 14.663 5.805 7.01 3.698 12.556 8.471 5.547 4.816 13.631 5.16 7.224.344 13.158-2.838 5.805-3.139 9.847-8.858 4.042-5.633 6.708-14.276.688-2.365 1.85-2.408 1.117 0 1.891 2.322"/><path fill="#0f141b" d="M385.108 73.315q-2.623 4.472-5.203 7.267-3.569 3.87-7.654 10.02-.774 1.117-1.16.902-.345-.258.343-1.462 3.483-5.719 7.396-10.406 2.666-3.182 5.031-7.052 3.01-5.031 4.085-9.03.688-2.451 1.978-2.494 1.247 0 2.193 2.365 2.15 5.504 1.72 12.47-.43 6.837-3.182 13.158-6.364 14.577-18.877 16.426-1.419.215-1.548-.258-.172-.43 1.376-.688 11.438-2.02 17.501-15.78 5.848-13.288 1.591-24.812-.3-.946-.73-.946t-.689.946q-1.118 4.257-4.17 9.374"/><path fill="#0f141b" d="M336.39 117.95q5.374-1.807 12.47-2.323 2.278-.172 10.792 0 8.084.172 11.395-.215 7.568-.903 13.588-4.816 6.278-4.085 8.213-9.89.473-1.419.13-1.806l-1.29.043-8.687 3.784q-5.934 2.322-10.062 2.236l3.526-1.677q2.193-.3 6.923-2.279l7.826-3.354 3.053-.129q.774.817-.086 3.612-1.935 6.321-8.47 10.664-6.322 4.171-14.535 5.031-3.225.344-11.223.215-8.772-.172-11.008-.043-6.536.344-12.212 2.28-5.375 1.848-11.48 5.59-1.377.86-1.635.515-.3-.344 1.075-1.333 5.848-4.128 11.696-6.106"/><path fill="#0f141b" d="M344.903 116.831q-4.042 2.537-8.213 6.708-3.182 3.225-8.213 9.374-10.062 12.255-17.372 16.125-9.417 4.945-24.768 3.268-1.333-.129-1.29-.602.043-.473 1.376-.344 15.05 1.204 24.51-4.042 6.966-3.87 16.34-15.394 4.902-6.02 7.353-8.6 3.44-3.612 7.181-6.192l3.096-.3"/><path fill="#0f141b" d="m291.626 152.005 10.45 2.193 10.964 1.161q3.14.258 3.784 1.72.688 1.42-1.419 3.225-7.095 6.15-21.414 6.278-12.212.086-21.93-3.655-1.247-.43-1.075-.903.13-.43 1.376 0 9.89 3.354 21.844 3.053 13.803-.3 20.382-5.977.946-.817.56-1.505-.388-.688-2.194-.86-14.62-1.118-26.1-4.687l4.772-.043"/><path fill="#0f141b" d="M293.217 173.677q-8.256 3.87-21.586 1.376-13.588-2.58-21.285-9.804l.903-1.677q7.267 6.794 20.468 9.632 13.201 2.795 20.941-.86.946-.43.774-.817-.129-.344-1.032-.43-9.503-.559-17.329-7.61l2.623.343q7.01 5.332 14.706 5.934 2.623.172 2.967 1.42.387 1.29-2.15 2.493M178.794 186.62q-2.15 1.548-5.805 2.28l-7.439.73q-.645 0-.817.301-.215.301.215.731 2.537 2.365 7.568 3.14l-3.526.472q-3.44-1.032-5.074-2.752-1.247-1.29-.946-2.193.344-.989 2.494-1.075l7.052-.602q3.182-.559 5.117-1.806l1.161.774M187.824 186.577q-12.298 15.91-16.727 45.494-1.59 10.492-1.634 19.393-.086 7.998.903 8.514 1.118.56 5.375-5.203 4.644-6.32 8.6-14.577.56-1.118.99-.946.386.172-.087 1.376-3.397 8.643-8.6 15.61-4.988 6.664-7.052 5.976-1.59-.516-1.763-9.202-.172-9.202 1.548-20.683 4.644-31.003 17.716-46.397 1.118-1.29 1.42-.989.343.301-.689 1.634"/><path fill="#0f141b" d="M183.61 243.08q.172 6.191 2.28 13.243 1.977 6.837 3.396 6.923 1.85.043 5.203-12.814 3.354-12.728 4.3-23.09.13-1.377.56-1.334.472 0 .43 1.376-.388 10.707-3.785 23.951-3.612 14.233-6.75 14.19-2.065-.043-4.344-7.052-2.193-6.794-2.45-13.244l1.16-2.15"/><path fill="#0f141b" d="M208.98 241.918q-2.45 7.611-4.257 7.611-1.204.043-3.612-2.752-2.279-2.623-3.784-5.59l.43-2.365q1.677 3.311 4 6.02 2.063 2.451 2.837 2.451t3.096-6.794q2.408-6.966 3.182-11.782.215-1.419.645-1.376.43.043.301 1.462-.516 5.934-2.838 13.115"/><path fill="#0f141b" d="M221.235 224.46q.43-.043.602 1.462.817 6.966-1.548 14.835-2.236 7.482-4.6 7.568-1.076.043-2.796-3.483-1.849-3.74-3.096-8.9l.817-2.882q1.677 6.493 3.225 9.976 1.247 2.924 1.935 2.881 1.376 0 3.311-6.278 2.15-7.009 1.763-13.588-.043-1.505.387-1.59"/><path fill="#0f141b" d="M215.43 246.95q.086 6.45.99 11.61.816 4.815 1.676 5.073 1.85.516 5.246-6.88 3.741-8.084 4.257-16.512.086-1.462.516-1.462.43.043.43 1.505.172 9.288-4.17 18.19-4.043 8.255-6.924 7.438-1.59-.43-2.623-6.794-.989-6.02-.946-13.932l1.548 1.763"/><path fill="#0f141b" d="M219.43 185.244q5.718 10.277 8.685 17.76 3.655 9.072 5.848 20.08l1.72 8.901 2.15 10.88q1.634 7.352 2.021 12.297.473 5.934-1.032 6.364-1.59.473-5.719-4.6-3.87-4.688-5.89-8.902l.472-2.537q1.935 4.515 5.762 9.417 3.57 4.601 4.601 4.43.774-.13.13-5.59-.603-5.118-1.893-10.622-.817-3.44-2.193-10.707l-1.677-9.073q-2.236-10.922-5.719-19.78-2.967-7.439-8.6-17.544-.903-1.634-1.16-2.365-.345-.903-.302-2.02l-.3-8.128 1.891.946q.215 2.537.043 7.138-.043 1.032.13 1.505l1.031 2.15M170.796 145.383q3.14 3.397 7.396 4.988 5.72 2.107 11.61-.129l1.763.946q-6.407 2.795-12.943.688-5.289-1.677-8.729-5.633-.688-.774-.946-.516-.3.258-.129 1.42 1.42 9.158 11.438 14.49 1.333.645 1.075 1.032-.215.344-1.505-.172-5.246-2.193-8.6-6.45-3.225-4.085-3.74-8.772-.302-2.494.773-3.01 1.032-.516 2.537 1.118"/><path fill="#0f141b" d="M169.807 160.734q3.01 4.042 7.525 6.493 10.406 5.676 20.726.086l-.344 2.064q-10.535 5.203-21.199-.774-10.363-5.805-11.61-16.512-.258-2.193.473-2.795.688-.559 1.85.602 1.16 1.161 2.751 2.193l.516 1.806q-2.064-1.204-3.698-2.924-.387-.43-.602-.172-.258.258-.086 1.204.645 4.601 3.698 8.73M217.795 203.992q.172 4.86-4.6 12.255-1.033 1.591-1.592 1.591-.602 0-1.59-1.634-1.764-2.795-3.01-5.89-1.377-3.44-1.506-5.72-.172-3.698 4.128-12.47.903-1.849 1.72-1.849.774-.043 1.85 1.677 2.321 3.655 3.353 6.235 1.118 2.881 1.247 5.805m-7.052-11.309q-1.59 3.526-2.666 6.751-1.247 3.698-1.16 5.074.085 1.935 1.375 5.332 1.204 3.14 2.752 5.805.344.602.602.602l.56-.602q4.3-7.525 4.127-11.61-.129-2.709-1.16-5.418-.904-2.365-3.054-6.106-.43-.73-.688-.688-.3.043-.688.86M120.314 211.517q-3.44 8.385-3.827 17.63-.43 10.45-3.784 19.737-3.956 10.75-9.503 11.266-2.365.215-3.784 1.376-1.419 1.161-3.354 4.43-7.61 12.77-14.233 25.8-7.783 15.393-10.75 24.681-.946 3.01-.645 4.558.344 1.591 2.28 2.838 3.181 1.978 8.642 3.268 5.891 1.333 11.266 1.032 1.806-.129 2.537-.946.731-.817 1.118-3.182 1.935-11.653 6.02-27.004 3.698-13.846 7.396-24.51.774-2.236 1.806-3.225 1.075-.989 2.838-1.16 8.901-.646 20.124-8.73 13.76-9.89 19.651-24.639l1.634.774q-6.02 14.964-20.382 25.155-11.696 8.3-20.812 8.944-1.376.086-2.064.774-.688.645-1.376 2.666-3.612 10.363-7.267 24.381-3.956 15.136-5.934 26.918-.559 3.311-1.677 4.386-.946.99-3.483 1.118-4.816.301-10.879-.946-6.364-1.333-10.105-3.655-2.365-1.505-2.881-3.483-.559-2.15.602-5.762 3.01-9.288 10.922-24.854 6.622-12.857 14.405-25.929 2.064-3.44 3.87-4.859t4.43-1.634q4.944-.43 8.341-10.535 2.967-8.643 3.397-19.092.387-9.417 4.042-18.232 3.612-8.858 9.59-14.792 6.02-6.02 17.887-6.708 10.578-.602 18.232 2.967 2.107.99 5.074 1.032l4.085-.387q3.01-.645 5.633-1.763 3.526-1.59 7.396-4.515l-1.59 2.752q-3.527 2.537-6.322 3.655-1.72.688-4.859 1.333l-4.472.387q-3.268-.043-5.504-1.118-7.439-3.44-17.415-2.88-11.18.644-17.028 6.45-5.848 5.847-9.288 14.232"/><path fill="#0f141b" d="m97.395 296.184-.215 9.59-.645 9.33 2.365-.043-.387 1.505h-2.838q-.774 0-.73-.774l.816-9.675q.473-6.235.387-9.976l-.129-.516-.473.43q-8.729 11.74-12.9 18.62-.3.43-.774.3-5.16-1.29-9.675-3.956l.43-1.247q4.3 2.28 9.073 3.57 3.827-5.978 12.814-18.06 1.29-1.72 2.064-1.506.774.215.817 2.408M169.42 239.596q-10.492-1.075-17.07-5.117-1.205-.688-.904-1.16.301-.43 1.548.171 6.665 3.354 16.426 4.3v1.806M150.2 244.498q-2.065 9.202-6.58 15.093-.817.99-1.204.774-.387-.215.344-1.29 3.655-5.418 4.945-11.782l2.494-2.795"/><path fill="#0f141b" d="m145.727 254.474-.559 1.462-4.945.13 1.075-1.506 4.43-.086M125.818 265.482l-7.869 7.01q-5.805 5.073-7.525 7.051-1.806 2.107-2.408 4.472-.645 2.322-.215 5.332.516 3.741 3.14 6.708 3.095 3.57 8.513 4.86l5.16-.173q2.021-.946 4.515-4.558 11.223-16.039 16.426-26.875l1.462.473q-5.805 12.17-16.512 27.434-2.838 4.085-5.676 5.246l-5.719.172q-5.762-1.376-9.417-5.547-3.053-3.483-3.612-7.482-.43-3.01.473-6.106.86-3.139 2.623-5.117 1.806-2.02 6.751-6.32l6.235-5.333 3.655-1.247"/><path fill="#0f141b" d="M172.903 259.591q-5.16 9.632-14.534 11.567-7.18 1.505-13.502-1.505-1.29-.602-1.075-1.032l1.548.043q6.063 1.978 11.567 1.075 7.998-1.333 12.9-8.772l3.096-1.376M115.713 273.394q1.204 11.051 6.45 13.803 3.655-2.795 8.084-5.504 3.827-2.322 6.751-3.698 1.634-.73 2.193-.43.602.301.602 1.978l-.129 2.881-1.806 2.322q.688-2.88.688-5.203 0-.516-.172-.602l-.86.215q-2.494 1.161-6.579 3.741-4.515 2.838-8.213 5.72l-.989.042q-6.192-3.268-7.224-14.147l1.204-1.118M154.284 226.18q-.43-6.579-1.505-11.223-.258-1.204.172-1.29.387-.129.774 1.032 1.548 4.687 1.548 11.481 0 1.376-.43 1.376-.473 0-.559-1.376"/><path fill="#0f141b" d="m186.878 260.838-2.494 10.621q-.688 3.311-1.333 7.74-.817 5.375-1.032 9.288-.86 15.265-1.204 50.568-.043 3.354-1.032 4.945-1.032 1.548-3.655 2.236-5.977 1.505-12.212 1.075-6.966-.516-12.556-3.31-5.117-2.538-3.999-8.945 1.505-8.342 7.568-24.338 4.085-10.836 12.126-29.713l2.064-5.547 1.247-5.46q.774-4.602.903-9.547l1.677-1.16q-.043 4.858-1.075 11.007-.559 3.182-1.29 5.633l-2.064 5.72q-7.998 18.876-12.04 29.54-5.977 15.781-7.439 24.08-.473 2.752.258 4.43.688 1.72 2.795 2.751 5.074 2.537 11.266 3.096 6.235.56 12.341-1.032 1.892-.473 2.537-1.462.774-1.16.817-4.042.301-33.368 1.376-50.697.215-3.913 1.075-9.417.645-4.343 1.376-7.826.774-3.74 2.967-12.47l1.032 2.236"/><path fill="#0f141b" d="M171.7 308.74q.988 4.988 1.633 11.954.602 6.407.645 11.051 2.666-.129 6.063-.946l-.043 1.462q-3.483.903-6.622.99-.86.042-.86-.689 0-4.773-.516-11.223-.602-7.396-1.59-12.384-.388-1.72-.99-.344-6.794 14.577-9.976 22.876l-.344.516h-.645q-4.042-1.118-8.557-3.698l.344-1.376q4 2.236 7.998 3.44 1.892-4.859 10.02-22.274.902-1.935 1.934-1.806 1.032.13 1.505 2.451M207.303 244.37l2.494 9.244q.903 3.827 1.806 9.03l1.935 11.31q.774 5.331.903 10.276.817 32.68 2.021 47.214.344 4.128 1.591 6.02 1.204 1.892 4.085 2.666l9.847.602q6.923-.3 10.406-1.548 1.892-.688 2.365-2.838.387-1.892-.258-5.547-3.483-20.038-18.275-54.696-3.31-7.783-4.386-15.437l1.29-1.806q.86 7.955 4.558 16.555 15.136 35.604 18.576 55.17.817 4.815-.086 7.266-.817 2.15-3.182 3.01-3.87 1.376-11.309 1.591l-10.019-.645q-3.397-.946-4.945-3.182-1.548-2.279-1.978-7.052-1.075-13.072-1.892-47.257-.129-4.988-.86-10.363l-1.892-11.05-1.763-8.558-2.279-7.955 1.247-2.02"/><path fill="#0f141b" d="M241.488 314.674q-2.236-4.257-4.472-6.88-.516-.645-.86-.559-.344.086-.43.903-.516 10.535-.473 21.285l-.172.731-.688.172q-11.309.172-19.049-2.365l-.086-1.419q4.128 1.333 9.59 1.935l8.9.344q-.043-9.46.731-20.769.13-2.15 1.075-2.494.946-.344 2.365 1.29l2.365 3.096 1.204 4.73M89.741 124.958q-7.869 12.298-6.579 28.08l-1.548-1.42q-1.118-15.35 6.923-27.52 1.591-2.322 3.096-2.064 1.634.301 1.806 3.612 1.118 19.264 6.063 29.498 5.762 11.954 21.543 23.736l8.858 7.095q3.784 3.397 5.762 6.407l-1.59.774q-1.979-2.967-5.462-6.149-3.139-2.838-8.557-6.837-16.168-11.91-22.059-24.295-4.945-10.492-5.934-30.143-.086-1.935-.73-2.107-.646-.172-1.592 1.333"/><path fill="#0f141b" d="M69.445 136.01q1.075-3.269 2.451-3.183 1.29.086 2.236 3.053 1.806 5.934 3.87 9.46 1.892 3.268 6.622 8.73.946 1.117.645 1.418-.344.301-1.376-.73-4.859-4.989-7.052-8.6-2.365-3.957-3.956-9.934-.473-1.72-1.075-1.59-.559.085-1.032 1.762-2.451 8.514-.344 16.942 2.107 8.3 7.654 12.728 1.161.903.86 1.204-.258.344-1.419-.387-6.536-4.386-8.729-13.63-2.107-8.816.645-17.244"/><path fill="#0f141b" d="M74.691 163.658q-11.223-.645-23.736 7.01-12.169 7.438-15.308 16.124-.516 1.333.043 1.72.559.344 1.849-.3 5.375-2.753 9.073-4 4.257-1.419 10.535-2.279 1.462-.172 1.505.258.086.43-1.333.731-6.45 1.29-10.363 2.623-4.128 1.376-8.858 3.913-2.494 1.376-3.612.602-1.118-.817-.172-3.784 2.924-9.03 15.308-16.684 12.427-7.697 24.037-7.439l1.032 1.505"/><path fill="#0f141b" d="M57.104 182.535q-6.364 4.601-11.223 12.771-5.461 9.116-6.192 18.318-.387 4.86-4.085 9.03-3.526 3.956-9.116 6.364-5.547 2.451-11.653 2.71-6.407.257-11.782-2.022-1.204-.516-1.505-.344-.258.172-.129 1.29.731 6.708 5.461 11.653 4.515 4.687 11.481 6.708 7.009 2.021 14.534.731 7.998-1.419 14.706-6.32 1.032-.732 1.29-.388.301.344-.688 1.161-6.708 5.504-15.136 7.052-7.826 1.462-15.308-.774-7.439-2.193-12.169-7.267-4.988-5.375-5.547-12.47-.215-2.193.559-2.709.817-.559 2.967.387 9.761 4.343 21.715-.602 5.461-2.279 8.858-5.89 3.698-3.87 4.042-8.386.731-9.159 5.633-17.93 4.343-7.784 10.363-12.729l2.924-.344"/><path fill="#0f141b" d="M12.814 247.293q2.881 5.375 8.213 8.686 5.332 3.311 11.696 3.741 14.706.946 25.499-12.427.817-.989 1.161-.73.344.3-.387 1.332-5.59 7.611-13.158 11.094-6.923 3.14-14.362 2.408-7.052-.73-12.814-4.816-5.805-4.085-8.514-10.449l2.666 1.161"/><path fill="#0f141b" d="M93.44 197.026q-3.097 5.504-3.44 15.996-.603 23.908-12.729 35.475-11.094 10.578-27.52 7.44l1.72-1.506q15.05 2.28 25.327-8.428 10.965-11.395 11.524-32.98.258-9.289 2.666-14.664l2.451-1.333"/><path fill="#0f141b" d="M129.86 195.951q-11.137-6.665-24.639-3.44-14.018 3.354-22.403 15.824-.817 1.204-1.204.99-.387-.259.387-1.506 7.87-13.158 22.876-16.856 14.62-3.655 26.316 3.827l-1.333 1.161M201.154 129.731q3.827 1.204 7.353-4.429 3.612-5.762 3.311-13.416l1.548-.086q.344 8.041-3.655 14.362-3.999 6.321-8.514 4.86l-.043-1.29M216.72 111.542l3.096.13q.99 5.718-1.29 11.437-2.279 5.762-7.052 9.374-1.075.817-1.462.516-.344-.344.602-1.29 4-4.085 5.676-9.546 1.72-5.547.43-10.62"/><path fill="#0f141b" d="M202.401 114.81q7.224-5.547 19.436-3.612 10.664 1.677 17.974 7.224.602.473 1.29.43l1.978-.473q9.804-3.827 15.652-6.579 7.095-3.397 13.115-7.396 1.161-.774.99-1.505-.173-.73-1.549-1.032-14.405-2.88-34.099-1.032-20.683 1.935-32.336 7.912l.946-2.107q11.008-5.46 31.562-7.31 20.425-1.849 34.4 1.29 2.623.56 2.752 2.107.13 1.42-1.935 2.881-6.149 4.214-13.2 7.611-5.763 2.71-15.868 6.536-1.634.645-2.537.602-.989 0-1.978-.774-6.794-5.203-17.673-6.837-12.642-1.849-19.264 4.085l.344-2.02"/><path fill="#0f141b" d="M193.586 126.764q2.494 6.235 6.58 9.288 1.29.946 1.117-.43-1.677-11.825.688-20.94 2.365-9.332 8.772-15.18 1.161-1.075 1.462-.73.301.3-.774 1.418-6.063 6.321-8.256 15.093-2.064 8.557-.645 20.21.301 2.236-.473 2.58-.73.344-2.537-.86-4.515-2.967-7.267-9.632-2.666-6.493-2.58-13.76.086-7.697 3.311-13.158 3.655-6.149 10.578-7.912l1.42.13q.085.472-1.205.816-6.407 1.935-9.718 7.783-2.924 5.16-2.967 12.384 0 6.751 2.494 12.9M239.811 119.841l1.677-.172q.817 4.43.301 8.944-.602 4.86-2.45 6.88h-1.807q2.15-2.967 2.666-7.353.43-3.87-.387-8.299"/></svg>