<svg xmlns="http://www.w3.org/2000/svg" width="166" height="208" viewBox="-0.819 -0.156 165.516 207.714"><path fill="#fff" d="M95.238 22.503q6.864 3.12 11.544 9.048 4.68 5.889 5.928 12.87 1.287 7.37-1.677 14.04-2.691 6.045-4.134 10.374-6.318 6.747-15.21 9.087-8.19 2.184-16.77.234-8.346-1.872-14.47-7.06-6.395-5.381-8.306-12.791-4.134-15.795 4.64-26.793 8.152-10.218 23.245-11.622 7.956-.702 15.21 2.613"/><path fill="#933000" d="M85.137 66.105q-2.106-.585-3.354-.585-1.833.039-3.354 1.053l-.195-.663q-.507-1.833 0-3.432.507-1.638 1.677-1.95 1.443-.351 2.964 1.014 1.482 1.365 2.028 3.393l.234 1.17"/><path fill="#ee869a" d="M78.429 66.573q1.52-1.014 3.354-1.053 1.248 0 3.354.585.156 1.716-.43 3.042-.584 1.326-1.598 1.638-1.21.429-2.574-.78-1.365-1.248-2.106-3.432"/><path fill="#968c87" d="M63.18 7.566q1.599 6.435 1.209 12.792-5.304 3.744-7.995 8.073-2.301 3.705-1.794 6.045-4.407 6.59-3.588 17.589.936 12.753 9.672 19.188-1.794 1.014-3.627 1.56-.624 3.822 1.404 7.059 1.794 2.769 4.095 3.393.507-4.758 5.967-5.85 2.223-.468 4.212.039 2.028.468 2.769 1.716 1.677 2.847-.546 5.694-2.418 3.159-7.995 3.432-5.772.273-9.906-4.524-4.017-4.641-3.94-10.647-4.484-.585-8.111-4.524-3.51-3.822-4.914-9.321-1.482-5.733-.117-11.115 1.599-5.967 6.396-9.906-6.435-4.875-8.658-19.734-.936-6.084-.39-10.569.585-4.719 2.535-5.343 2.145-.702 5.733 3.237 3.12 3.432 5.187 7.683.624-3.861 3.354-8.385Q57.057.312 59.24.624q2.3.312 3.939 6.942"/><path fill="#968c87" d="m27.924 100.776-.975-.04q-.39.118-.78.625-4.524 5.655-13.533 7.293-9.399 1.677-11.622-3.861-.897-2.262.663-4.485 1.56-2.184 5.07-3.588 8.346-3.354 20.124-.04 8.775 2.458 24.492 0 17.394-2.69 29.523-9.827.858-2.535 1.755-7.683l5.655-.234-1.014 7.839.858 1.833 1.287 2.028q-2.457-.624-4.914.273-2.457.858-3.393 2.613-1.21 2.3-.04 4.914 1.17 2.535 3.862 3.9l-.234 1.91q-2.574-2.105-5.772-2.34-2.73-.194-5.538.937 3.354-5.928 5.148-10.608-9.477 5.42-26.325 7.995-15.834 2.418-24.297.546"/><path fill="#968c87" d="M95.745 93.21q3.588 2.223 7.605 9.32 3.822 6.709 4.368 11.038.234 1.91-1.21 2.457-1.364.507-2.612-.507-1.794-1.443-4.758-4.797-2.77-3.16-5.031-6.24-6.28.39-10.647-3.354-4.212-3.627-2.574-7.371 1.248-2.77 5.772-3.003 4.64-.234 9.087 2.457M66.729 113.568q4.992-1.794 9.672-1.326 5.07.507 9.243 3.588.78 3.237 2.106 6.2 1.365 3.043 4.446 8.386 3.237 5.538 5.616 12.987 2.535 7.839 2.69 13.455.352 9.36 4.29 17.238-3.431-2.73-6.746-8.073-2.418-3.94-6.28-8.424-4.874-5.655-10.1-9.906-5.772-4.641-11.466-10.18-5.694-5.46-9.516-10.022 1.209-4.251 2.73-7.644 1.287-2.964 3.315-6.28"/><path fill="#d7e8af" d="M129.87 80.69q1.989 6.514 8.58 12.09 13.416 11.35 14.703 22.309.663 5.42-1.053 12.597-1.404 5.967-5.187 15.912-3.627 9.555-.078 16.965 4.25 8.853 17.706 10.88-3.471 7.333-12.753 11.662-10.023 4.64-22.113 3.198-14.625-10.296-16.497-27.612-1.6-14.781 6.045-30.81 3.939-8.23 3.08-14.274-1.013-7.06-8.774-15.6-7.956-8.736-8.112-18.525-.156-7.917 5.187-20.046 3.08-7.06 2.3-13.104-1.52-11.973-10.412-19.461-9.75-8.19-24.024-6.825-7.644.741-14.001 4.719-6.24 3.861-9.828 9.945-.351-1.911 1.092-4.914 3.198-6.591 11.427-11.427 9.75-5.694 21.45-5.226 22.62.936 33.735 18.525 9.945 15.756 6.942 37.128-.975 6.864.585 11.895"/><path fill="#d7e8af" d="M73.437 102.648q3.432-1.014 5.889-.78 2.925.312 5.382 2.379-.078 7.527.936 11.583-3.354-2.808-8.424-3.471-5.343-.741-10.686 1.17 4.134-6.084 6.903-10.881"/><path fill="#fff" d="M75.543 145.548q-.351-1.131-1.092-1.053-.663.078-.975 1.17-2.106 7.722-2.106 27.768 0 11.076.468 31.239 0 1.95-1.248 1.91-1.21-.038-1.677-1.52-6.045-19.15-8.62-42.705-2.612-24.024.39-34.866 4.798 6.318 14.626 14.742 10.53 9.048 16.302 15.015.78 10.842 4.797 25.038 2.3 7.995 7.098 21.45.585 1.56-.351 2.184-.936.663-2.067-.78-5.031-6.28-10.647-17.316-6.084-11.856-8.19-20.514-1.794-7.41-6.708-21.762"/><path fill="#a1d8e6" d="M68.913 42.783q3.276 5.07 3.159 11.544-.117 6.903-4.641 7.76-2.847.547-5.07-1.793-2.028-2.106-3.003-5.85-.975-3.666-.507-7.137.507-3.744 2.496-5.733 4.095-.234 7.566 1.209M89.583 53.469q-2.925-6.084-.43-13.416 1.912-2.34 5.422-3.354 1.833-.546 5.499-.936 4.446 6.903 3.315 14.703-1.17 7.644-6.201 8.229-4.797.585-7.605-5.226"/><path fill="#fff" d="M64.467 41.496q2.613.468 4.446 1.287 1.833 3.783.663 6.825-1.014 2.652-2.925 2.613-3.16-.117-3.783-4.407-.585-4.134 1.599-6.318M94.224 48.204q-2.73.312-4.017-2.808-1.21-2.964-.234-6.201 1.833-1.482 4.485-2.535 3.159 2.223 2.925 6.786-.273 4.485-3.16 4.758"/><path fill="#a1d8e6" d="M118.91 53.157q1.015.234 1.522 1.794.507 1.638 0 3.744-.507 2.223-1.833 3.354-1.17.975-2.418.663-1.131-.273-1.677-1.755-.624-1.677 0-4.095.546-1.99 1.872-3.003 1.209-.975 2.535-.702M120.198 70.863q1.365.039 2.184 1.52.702 1.288.702 3.16 0 2.028-.858 3.393-.82 1.365-2.106 1.404-1.365.078-2.301-1.248-.936-1.365-.936-3.51 0-2.145.858-3.432.897-1.326 2.457-1.287M127.842 100.932q1.248-.507 2.69.468 1.366.975 2.146 2.808.897 2.145.585 4.056-.312 1.794-1.482 2.262-1.326.546-2.691-.234-1.56-.858-2.38-2.964-.74-1.872-.467-3.783.273-2.067 1.599-2.613M146.913 121.407q1.17.234 1.56 1.716.429 1.482-.078 3.588-.43 1.794-1.755 3.042-1.326 1.287-2.574 1.014-1.248-.273-1.872-1.755-.702-1.638-.117-3.822.546-1.99 1.91-3.042 1.366-1.092 2.926-.741M131.313 145.509q1.404-.04 2.379 1.248 1.053 1.287 1.092 3.432.078 2.223-1.014 3.705-1.014 1.365-2.34 1.443-1.365.078-2.34-1.092-1.014-1.287-1.131-3.471-.156-2.38.936-3.861.936-1.365 2.418-1.404"/><path fill="#766e6b" d="M39 3.159q-.312 9.204 1.52 18.174 2.302 11.388 7.45 17.94-5.89-3.588-9.126-14.937Q35.412 12.207 39 3.159M63.219 8.931q1.443 6.357 1.13 11.31l-1.754 1.209q.156-5.811-.624-11.427-.897-6.162-2.574-9.321 2.262 1.287 3.822 8.229M41.613 43.758q-2.262 8.307 2.925 16.575 5.265 8.346 12.87 7.995Q59.67 70.59 60.8 71.33l-3.744 1.404q-.43 3.627 1.17 6.864 1.638 3.315 4.212 3.822 2.496 2.418 7.488 1.287 4.953-1.131 6.006-4.29.507 2.418-1.092 4.446-1.716 2.145-5.07 2.964-5.967 1.443-10.881-2.184-5.538-4.095-5.733-12.597-8.073-1.17-11.7-10.296-3.666-9.165.156-18.993M.78 102.414q2.067 3.705 9.867 3.159 8.19-.624 14.82-5.811.663-.507 1.17-.624l1.209.078q10.413 2.145 27.066-.702 14.82-2.496 24.024-6.786-6.084 4.524-21.567 7.683-17.082 3.549-29.406 1.365l-1.053-.04-.663.547q-2.418 2.964-6.708 5.109-4.173 2.028-8.385 2.496-4.446.468-7.215-1.053-3.042-1.638-3.159-5.421M97.617 104.247q-7.527.74-12.636-1.99-5.811-3.041-3.55-8.696.547 3.9 6.124 6.59 5.148 2.536 10.335 2.224 2.34-.117 3.393 1.56 2.223 3.783 3.237 9.555-2.808-7.06-4.407-8.463-1.014-.897-2.496-.78"/><path fill="#766e6b" d="M96.213 104.286q3.978 5.46 7.995 9.243.468.819 1.52 1.053 1.093.234 1.873-.351-.04 1.326-1.326 1.716-1.404.429-3.042-.897-2.964-2.34-9.087-10.57l2.067-.194M75.582 142.155q5.616 3.627 10.452 7.683 3.627 3.042 7.76 7.176 1.873 1.872 3.784 2.184 1.794.273 2.847-.936.39 3.705 1.56 8.307 1.287 5.226 2.574 7.293-3.55-3.12-7.332-8.931-3.588-5.421-9.516-11.622-5.694-5.928-12.13-11.154M75.465 145.665q1.404 3.783 3.9 12.05l3.237 11.155q-2.223-1.833-5.265-5.382-3.315-3.822-5.382-7.098.702-6.28 1.599-10.842.234-1.17.858-1.131.624.078 1.053 1.248"/><path fill="#766e6b" d="M99.84 168.87q1.52 2.379 3.822 4.407 2.457 2.145 4.836 3.08 1.17.469 1.326 1.015.117.468-.585.858-2.574 1.443-7.137.585-3.588-.663-7.332-2.457-.82-3.276-1.794-9.165-.858-5.5-1.326-10.023 3.744 4.602 8.19 11.7"/><path fill="#dcdddd" d="M68.64 136.266q4.875 4.602 8.463 7.566 5.499 4.602 8.19 7.098 3.9 3.588 6.435 6.63.078 1.91.975 8.502-3.432-6.864-16.575-20.046-13.3-13.377-15.678-17.823l8.19 8.073"/><path fill="#766e6b" d="M81.276 85.878q1.13-3.94 1.443-6.552l5.499-.195-1.053 7.293-3.042.195q-1.677-.156-2.847-.741"/><path fill="#dcdddd" d="M107.055 68.757q-6.903 7.527-16.575 9.672-8.775 1.95-17.784-.858-8.658-2.691-14.508-8.775-6.045-6.357-6.747-14.118 3.354 8.619 10.725 13.962 6.98 5.03 15.912 5.967 8.93.936 17.277-2.574 8.853-3.705 14.82-11.583-1.716 3.822-3.12 8.307"/><path fill="#0f141b" d="M108.498 34.047q-5.11-2.535-13.065-3.432-7.722-.897-16.068.039-19.11 2.106-27.495 10.959l.507-1.794q8.58-8.268 26.676-10.296 17.316-1.95 28.548 3.08l.897 1.444M77.57 62.556q.469-1.911 1.95-2.38 1.873-.545 3.667.937 1.677 1.404 2.184 3.627.585 2.379 0 4.173-.624 1.794-2.223 2.262-1.404.39-2.925-.663-1.638-1.17-2.34-3.432-.82-2.574-.312-4.524m2.223-1.404q-.897.312-1.131 1.872-.234 1.599.429 3.705.585 1.91 1.833 2.964 1.092.897 1.989.624.936-.273 1.326-1.638.429-1.482-.078-3.588-.468-2.145-1.99-3.315-1.325-.975-2.378-.624"/><path fill="#0f141b" d="M129.363 81.588q-1.716-5.11-.663-13.026 2.886-21.333-7.527-36.855Q109.94 15.054 88.53 14.118q-11.778-.546-21.411 5.226-7.878 4.68-10.92 10.881-1.365 2.886-1.248 4.095l-.975 1.56q-.546-2.535 1.13-6.24 3.199-6.786 11.467-11.739 9.867-5.889 22.035-5.343 22.659.975 34.047 18.096 10.49 15.834 7.254 38.064-.975 6.747.39 11.505 1.91 6.474 8.463 11.895 14 11.66 15.249 22.893.585 5.46-1.248 12.753-1.482 5.85-5.421 15.95-3.666 9.36.35 16.966 4.29 8.19 15.6 10.14 1.17.195 1.288.663.117.429-1.131.273-11.934-1.794-16.614-10.023-4.485-7.878-.585-18.486 3.666-9.906 4.992-15.444 1.716-7.098 1.17-12.402-1.17-11.076-14.47-22.347-6.63-5.577-8.58-11.466"/><path fill="#0f141b" d="M131.703 118.56q-.936 3.939-3.861 10.686-8.58 19.617-4.29 34.203 4.134 13.923 19.46 21.333 1.249.585 1.015.936l-1.443-.195q-16.497-7.332-20.631-22.152-4.173-14.898 4.836-34.632 5.655-12.441 3.705-19.617-1.794-6.474-13.026-17.98-5.304-5.381-5.616-11.777-.351-6.552 4.173-19.032 4.68-12.948.312-23.712-3.94-9.672-13.962-15.327-9.633-5.382-20.904-5.031-11.31.39-19.734 6.513l5.187-4.017q9.282-4.563 20.24-3.51 10.648 1.014 19.033 6.903 8.814 6.201 11.934 15.717 3.51 10.569-.975 22.893-4.134 11.349-3.94 17.862.196 6.786 5.07 11.7 12.09 12.246 13.69 19.578.858 3.939-.273 8.658"/><path fill="#0f141b" d="M129.05 93.756q-8.267-7.02-9.671-12.987-1.443-6.318 2.847-18.837 4.173-12.363.039-23.907-4.992-13.923-21.255-22.23l3.12.741q14.82 8.268 19.46 21.372 4.057 11.466-.233 24.375-4.056 12.246-2.457 18.603 1.365 5.577 8.97 11.973 9.165 7.76 10.452 16.887 1.326 9.555-5.187 25.428-6.513 15.95-1.326 29.133 5.07 12.948 18.876 17.082 1.13.312 1.014.74-.078.43-1.248.118-14.976-4.095-20.085-17.511-5.031-13.26 1.677-29.991 6.162-15.327 5.03-24.414-1.13-9.087-10.022-16.575"/><path fill="#0f141b" d="M129.246 50.037q.507 4.134-.04 8.19-.467 3.588-2.144 9.438-2.067 7.293-.741 12.129 1.599 5.81 8.814 12.519 11.193 10.374 12.597 18.993 1.326 8.229-4.953 24.258-6.786 17.277-1.755 27.222 4.446 8.814 19.032 13.182 1.092.312.975.74l-1.21.118q-15.794-3.978-20.396-14.001-4.797-10.374 2.262-27.73 6.24-15.248 4.797-23.477-1.443-8.268-12.13-18.486-7.643-7.254-9.281-12.948-1.443-5.031.897-12.87 2.028-6.786 2.223-12.012.195-5.382-1.443-12.558l2.496 7.293M39.975 3.237q-1.014.39-1.521 2.964-1.365 7.176.858 16.731 2.535 10.959 8.346 15.834.702.624.429.897-.273.312-.975-.195-6.825-4.914-9.438-16.653-2.223-10.023-.468-17.043.819-3.198 2.34-3.744 1.599-.546 4.329 1.56 4.68 3.549 7.995 9.984 4.017 7.878 3.627 16.38l-.975 1.716q.273-8.58-3.861-16.926-3.354-6.864-7.605-10.257-2.067-1.638-3.081-1.248"/><path fill="#0f141b" d="M63.648 20.358q.35-6.513-1.326-12.909-1.6-6.123-3.315-6.24-1.677-.117-4.368 4.29-2.808 4.68-3.276 9.204l-.975-1.56q.546-4.446 3.432-8.853Q56.745-.156 59.085 0q2.418.156 4.368 6.474 1.989 6.396 1.482 12.753l-1.287 1.131M39.858 46.488q1.872-5.616 6.24-8.541l.74.702q-3.86 2.613-5.537 8.034-1.6 5.07-.702 10.725.897 5.81 4.056 9.789 3.432 4.446 8.658 5.265.429.078.35.468-.311 5.343 3.277 9.867 3.939 4.914 9.984 4.797 4.953-.117 7.293-2.886 2.028-2.34 1.092-4.563-1.092-2.613-5.967-2.028-5.11.663-6.396 4.953l-.273.585-.507.117q-2.028-.468-3.9-3.432-2.262-3.55-1.716-7.722l.312-.312q1.872-.468 3.47-1.56l.976.78q-1.521 1.053-3.783 1.677-.195 3.354 1.404 6.2 1.365 2.419 3.159 3.316 1.248-5.07 7.059-5.772 2.379-.273 4.407.429 2.067.78 2.769 2.3 1.404 3.043-1.092 5.968-2.73 3.159-8.23 3.315-6.317.156-10.53-4.602-3.977-4.485-4.055-10.764-5.5-1.17-9.126-5.811-3.354-4.251-4.29-10.18-.897-5.888.858-11.114M124.76 36.62q-3.314-3.002-8.891-3.51-5.343-.467-6.942 1.56l-.43-.896q1.717-2.067 6.748-1.794 5.187.273 8.658 2.925l.858 1.716M143.052 97.266q-10.14-7.176-20.553-7.176-8.541 0-12.09 3.9l-.702-.741q3.549-4.095 11.895-4.33 9.828-.272 19.5 6.007l1.95 2.34M147.303 142.155q-6.28-5.694-15.444-7.254-9.087-1.521-15.99 1.833l.39-1.326q6.63-3.081 15.249-1.794 9.399 1.404 16.224 7.566l-.43.975"/><path fill="#0f141b" d="M97.968 76.518q-5.655 2.808-11.466 3.354-10.686.975-21.1-4.602-12.83-6.825-14.936-20.007-2.223-13.884 5.616-24.102 7.956-10.374 22.347-11.739 14.78-1.404 24.648 6.825 9.048 7.566 10.374 19.773.74 6.669-2.301 13.533-5.382 12.324-5.226 20.124.195 9.32 7.917 17.784 8.19 8.93 9.204 16.107.858 5.928-3.198 14.625-7.293 15.483-6.045 29.874 1.52 17.277 15.56 27.144 1.093.78.82 1.13-.273.313-1.326-.428-14.937-10.062-16.614-27.3-1.443-14.547 6.513-30.888 3.705-7.683 2.964-13.533-.897-7.332-8.736-15.912-8.307-9.087-8.541-18.37-.078-3.821 1.287-8.93-2.925 3.159-7.761 5.538m12.09-17.472q2.925-6.591 2.145-12.831-1.404-11.466-9.984-18.72-9.516-7.995-23.712-6.669-12.792 1.209-20.475 10.296-8.19 9.789-5.85 23.946 2.067 12.519 14.313 19.07 9.867 5.266 19.89 4.408Q92 78.039 97.812 74.88q5.499-3.003 8.892-7.215 1.287-3.978 3.354-8.62M82.992 169.923q-6.747-5.265-10.881-12.48l.156-1.794q4.25 7.332 10.296 12.363l.429 1.91"/><path fill="#0f141b" d="M14.703 107.523q7.059-1.755 11.115-6.67.546-.662 1.053-.78l1.404.157q8.268 2.028 25.389-.858 17.082-2.847 24.609-7.527 1.365-.82.819.702-1.677 4.875-5.11 10.764l-6.317 10.023q-1.755 2.769-3.55 6.903-1.637 3.744-2.573 6.942 5.265 7.449 18.135 17.94 6.903 5.616 11.076 10.14 4.056 4.407 7.683 10.179 5.616 8.853 10.335 10.335 1.91.585 1.755 1.794-.117 1.287-2.691 1.755-2.808.546-6.045 0-3.627-.585-6.747-2.38l-.273-1.637q3.198 1.872 6.474 2.652l6.318.234q1.443-.273 1.638-.702.195-.39-.702-.663-3.12-1.092-5.772-3.55-2.73-2.495-5.5-6.902-3.314-5.343-7.565-9.984-4.095-4.446-10.842-10.257l-10.257-9.01q-5.811-5.46-8.62-9.476l-.077-.351q.936-3.276 2.73-7.41 1.95-4.563 3.783-7.41l5.694-8.775q3.198-5.187 5.538-10.296-7.098 4.563-24.18 7.332-17.238 2.808-25.389.624l-.936-.078q-.234.078-.507.39-2.34 2.847-4.992 4.524-2.808 1.794-6.591 2.73-5.109 1.248-9.126.39-4.524-.975-5.616-4.29-1.092-3.237 1.95-6.201 3.159-3.081 9.204-4.134 6.669-1.17 15.912 1.443 9.555 2.73 27.69-.741Q72.618 92 80.262 86.54q1.053-2.73 1.755-7.332l1.287.078q-1.014 5.577-1.911 7.878l-.156.195q-7.956 5.928-25.857 9.32-18.291 3.472-28.353.625-8.58-2.418-15.405-1.248-5.616.975-8.385 3.627-2.496 2.418-1.599 4.953.936 2.574 4.914 3.315 3.666.663 8.151-.43"/><path fill="#0f141b" d="m85.722 115.518.39 1.677q-4.017-3.666-9.711-4.33-5.304-.584-10.218 1.444l.819-1.326q4.914-1.872 9.594-1.404 5.226.546 9.126 3.939"/><path fill="#0f141b" d="M85.449 102.414q-1.326 12.558 5.226 23.829 5.46 9.36 7.527 15.366 2.262 6.474 3.08 15.912.625 7.176 1.99 11.427 1.52 4.719 4.29 6.98l-2.964-1.715q-1.833-2.223-2.886-5.89-1.131-3.821-1.872-10.607-1.014-9.126-3.315-15.64-2.106-5.888-7.215-14.858-3.822-6.63-4.875-13.962-.741-5.07-.156-11.505l1.17.663"/><path fill="#0f141b" d="M84.669 104.91q-1.716-1.794-5.11-2.301-3.704-.546-6.551.975l.663-1.326q2.847-1.326 6.006-.858 2.964.468 5.07 2.3l-.078 1.21M61.23 127.959q-3.471 15.6 1.287 45.006 1.443 8.853 3.237 17.394 2.223 10.686 3.744 14.43.507 1.248 1.014 1.209.507-.04.585-1.326.195-2.808-.117-15.366l-.39-16.068q-.04-7.644.546-14.86.624-8.267 1.872-13.025.39-1.482 1.365-1.521.936-.04 1.56 1.365 1.677 3.705 4.992 14.742l4.368 14.04q3.705 9.945 8.15 17.979 3.355 6.162 7.879 12.44.858 1.17 1.404.937.546-.273.156-1.638L98.28 190.28q-3.744-10.842-4.992-16.965-1.638-8.307-2.652-16.614l1.95 2.067q.663 6.2 2.223 14.313 1.092 5.538 4.797 16.614l4.485 13.689q.624 2.3-.78 3.042-1.404.74-2.886-1.287-5.421-7.371-8.658-13.026-4.29-7.527-8.112-17.628-.897-2.34-4.212-14.235-3.198-11.544-4.524-14.703-.234-.507-.468-.468-.234.039-.351.546-1.053 4.524-1.56 12.597-.43 6.942-.39 15.015l.273 16.107q.156 12.48-.078 15.444-.156 2.262-1.638 2.535-1.521.234-2.34-2.067-1.95-5.655-4.212-15.444-2.067-9.01-3.315-16.653-2.535-15.483-2.847-25.896-.351-11.544 1.872-19.968l1.365.663M94.029 47.814q2.769-.312 2.925-4.72.156-4.406-2.574-5.81l.936-.351q2.925 2.145 2.574 6.786-.39 4.64-3.627 4.992-2.925.35-4.368-3.042-1.404-3.276-.117-6.552l1.014-.546q-1.443 2.535-.351 6.006 1.092 3.549 3.588 3.237M69.225 43.017q1.599 2.925.78 6.2-.858 3.277-3.315 3.472-3.198.234-4.173-4.017-.936-4.212 1.443-6.981l.819.234q-2.145 1.716-1.443 5.889.663 4.212 3.354 3.939 2.067-.195 2.613-3.432.546-3.198-.975-5.421l.897.117M88.764 90.792q-1.443-1.99-2.106-3.861l-.04-.234.898-7.722 1.287-.04-.936 7.723q.39.936 1.209 2.223l1.404 1.989-1.716-.078"/><path fill="#0f141b" d="M70.59 44.772q1.443 3.042 1.91 5.967.703 4.329-.623 7.76-1.326 3.433-4.017 4.096-2.886.74-5.421-1.326-2.925-2.457-4.056-7.878-.624-3.081-.156-6.006.468-2.925 1.872-4.836-3.315.585-4.602 2.379-.507.74-.624 2.262-.156 1.482.156 2.652.234.858-.04.819-.272-.04-.545-.702-.585-1.443-.663-3.12-.078-1.716.468-2.73 1.56-2.925 6.396-3.432 4.524-.507 7.917 1.404 1.13.624 2.028 2.69m.663 6.163q-.585-3.276-1.6-5.85l-.662-1.092-.936-.78q-3.003-1.248-6.63-.858-1.521 1.599-1.99 4.602-.467 2.925.196 6.24 1.053 5.109 3.47 7.215 2.029 1.716 4.525 1.092 2.028-.507 3.12-3.51 1.13-3.12.507-7.06M99.996 36.777q-2.457.039-4.914.663-2.77.663-4.33 1.833-1.286.936-1.754 2.925-1.482 5.967 1.365 11.427 2.925 5.694 7.566 4.25 4.64-1.442 4.992-9.203.35-7.254-2.925-11.895m3.588.312-2.38-.312q3.51 4.953 2.965 12.48-.585 8.073-6.006 9.672-5.694 1.677-9.01-4.992-3.236-6.357-1.052-12.636.819-2.301 2.574-3.588 1.989-1.482 5.967-2.223 4.095-.741 7.176-.156 2.028.35 3.315 1.677 1.209 1.248 1.326 2.73.195 1.91-.234 3.47-.234.82-.468.82-.195 0-.156-.858.117-1.794-.351-3.276-.741-2.223-3.666-2.808M95.16 104.988q6.63 8.58 9.243 10.062 1.209.663 2.028.234.819-.43.624-1.794-.624-4.485-4.056-10.257-3.393-5.733-7.215-8.853-3.94-3.237-8.62-3.081-4.367.078-5.576 2.73-1.755 3.9 2.925 7.176 4.914 3.432 12.753 2.457l1.794.039q.663.195 1.404 1.053.975 1.17 2.106 3.51 1.13 2.262 1.833 4.485.429 1.248.039 1.365-.39.156-.858-1.053-1.99-5.226-3.861-7.488-.546-.663-1.014-.82-.43-.116-1.287 0l-2.262.235m13.104 8.346q.35 2.262-1.17 3.08-1.404.742-3.237-.272-3.042-1.716-10.218-11.076-6.201 0-10.335-3.12-5.07-3.822-3.003-8.502 1.56-3.471 6.59-3.666 5.266-.195 9.79 3.549 4.056 3.354 7.527 9.399 3.393 5.928 4.056 10.608"/><path fill="#a1d8e6" d="M77.532 24.453q1.91.078 3.198 2.223 1.209 1.989 1.13 4.524-.077 2.73-1.364 4.836-1.482 2.457-3.861 2.34-2.418-.117-3.627-2.613-1.092-2.301-.702-5.304.312-2.808 1.755-4.446 1.404-1.677 3.47-1.56"/><path fill="#8bbbc8" d="M72.462 30.849q.858 4.758 4.056 4.875 3.198.078 5.343-4.719-.273 3.12-1.794 5.265-1.482 2.106-3.276 2.145-1.911.039-3.198-1.95-1.482-2.184-1.131-5.616"/><path fill="#0f141b" d="M71.409 31.356q.078-3.276 1.755-5.421 1.677-2.145 4.134-2.145 2.262 0 3.783 2.067 1.52 2.067 1.443 5.226-.04 3.51-1.911 5.772-1.794 2.145-4.017 1.989-2.223-.117-3.666-2.028-1.6-2.106-1.521-5.46m1.482.078q-.04 2.613 1.014 4.407 1.053 1.872 2.769 1.95 1.716.078 3.003-1.833 1.326-1.99 1.365-4.992.078-2.535-.975-4.29-1.092-1.794-2.73-1.794-2.028 0-3.276 2.067-1.092 1.833-1.17 4.485M78.702 67.236l-.624-.663q1.209-1.248 3.042-1.521 1.989-.312 3.822.663l-.312.819q-1.404-.741-3.315-.468-1.755.273-2.613 1.17"/></svg>