<svg xmlns="http://www.w3.org/2000/svg" width="139" height="263" viewBox="-1.326 0 138.645 263.406"><path fill="#968c87" d="M130.962 138.918q2.184 2.69 1.833 6.2-.507 4.68-7.8 3.51-7.06-1.13-12.52-7.253-1.676-1.911-3.041-4.095l-.975-1.794-1.092.195q-24.297 5.577-30.225 7.722-5.89 2.145-8.736 4.368-3.12 2.418-3.12 5.343l.156 20.865q7.8-2.613 17.628-2.223 8.619.312 14.78 2.613 4.798 1.755 14.82 7.995 8.58 5.343 10.375 6.942 1.13.975 3.159 1.794 2.067.858 3.12.702.975-.117 1.13-1.99.118-1.442-.233-3.041-.312-1.404.936-1.287 1.287.078 2.652 2.184 1.248 1.91 1.755 5.187l.234 2.925q-1.248 5.81-6.63 8.385-3.12 1.482-5.967 1.482h-2.691q-2.808 4.524-11.778 5.42l-5.85.157-2.535-.156q-10.335-.351-22.737-4.33L67.236 202.8q-10.92-6.084-15.405-15.132-1.248-2.496-2.106-5.538-.585-2.184-.82-2.184L28.588 181.7q2.886-7.371 11.427-9.828 4.29-1.21 7.995-.936.624-3.276 3.08-10.647 2.575-7.683 3.589-8.97.897-1.131 1.053-2.574v-1.21q-4.953-8.657-17.823-19.304L26.052 119.3q-10.179 2.3-15.717 2.106-4.68-.195-7.332-2.301-4.329-3.471-1.794-7.566.819-1.248 2.184-2.457l1.248-.936q10.413-3.705 17.823.468 3.978 2.262 7.644 7.644.819.546 7.41 6.318l8.15 7.332q2.38 2.496 13.768 12.714l3.744-6.162 4.797.624-1.092 2.184q-.351.897 0 3.432l39.234-12.246q11.193-1.131 18.486 2.886 3.354 1.872 6.357 5.577"/><path fill="#fff" d="M37.4 109.239q-1.91-8.541 3.628-18.33 1.716-3.081 4.017-5.89l1.91-2.183q13.729-2.38 31.513 4.563 8.892 3.47 15.054 7.41 3.822 11.544-.234 22.776-1.99 5.616-4.797 8.93-9.01 8.19-17.98 9.868l-5.303.312-1.911-.312q-12.792-3.55-18.603-10.335-4.797-5.538-7.293-16.81"/><path fill="#ea545e" d="M46.527 96.642q4.056 1.13 5.733 6.084.858 2.574 1.13 5.967.313 1.404-.233 4.368-.624 3.315-1.755 4.797-1.404 1.872-3.55.819-2.495-1.21-3.977-6.045-1.365-4.368.507-10.608l2.145-5.382"/><path fill="#ef856e" d="M72.462 30.225q9.32-.078 18.564 2.457 4.602 1.287 7.332 2.574 10.1 4.914 19.89 15.717 10.725 11.739 10.725 20.124 0 7.488-6.24 14.976-3.276 3.939-7.995 7.839-1.326 1.365-3.783 1.95-2.067.546-2.145.78-.195.702-4.485 7.02-2.34-3.276-11.74-9.087-9.476-5.85-16.691-8.385-6.396-2.262-16.42-3.276l-11.27-.468q-1.794.234-3.627 2.3-.897 1.054-1.443 2.068l-.975-11.622q-3.471-1.56-4.797-3.393-1.131-1.521-1.6-4.33l-.194-2.495q-5.265-1.17-10.062-3.705-6.006-3.198-8.814-7.41.312-8.736 3.744-18.252 3.822-10.686 10.608-19.422l3.276 4.68q.663.975 3.315 3.159 2.964 2.418 4.797 3.159 1.872.78 9.087 2.028 6.903 1.209 8.697 1.209l12.246-.195"/><path fill="#968c87" d="M72.306 10.608q3.978-.741 4.329 1.443.468 2.457-3.978 8.307-3.94 5.187-11.74 9.048l-6.98 2.808q1.794 1.287 2.652 6.435.975 5.81-.858 10.49-1.677 4.252-7.371 9.478-2.847 2.613-5.382 4.368.897 5.616 2.613 8.346.858 1.326 1.52 1.56-.506-1.521-.39-3.237.079-1.911 1.21-3.51 1.443-2.067 3.86-1.716 2.458.39 3.706 3.627 1.053 2.847.585 5.382-.585 3.237-2.886 5.226-3.081 2.69-7.371-.04-4.056-2.573-5.655-9.632l-.82-6.552q-4.016-3.315-5.225-7.06-1.17-3.665-.507-10.217.546-5.382 5.46-11.154 2.457-2.886 4.797-4.68-.897-1.599-2.34-6.279-.897-2.925-.624-7.254l.429-3.744q-.156-3.354 1.833-7.527Q45.162.351 46.917.351q1.833 0 2.886 1.872 1.13 2.028 1.794 6.981.546 4.251-.468 12.441l-1.131 7.332q2.34-7.761 10.686-13.26 6.045-4.056 11.622-5.109M94.302 96.72l-.663-2.184 9.906 8.112q.468 5.343-2.184 13.182-3.12 9.32-8.736 14.079-5.148 4.407-14.86 6.24l-8.696.975q9.204-1.794 16.146-7.761 3.47-2.964 5.07-5.577 5.304-10.686 4.836-21.021-.117-3.237-.82-6.045"/><path fill="#ef856e" d="M60.8 87.32q1.405-1.013 2.73-.623 1.132.35 1.717 2.652l.39 2.223-.546 5.499q-1.21 5.42-4.33 4.875-2.807-.468-2.846-5.304-.04-3.393.936-6.513.546-1.755 1.95-2.808"/><path fill="#fff" d="M50.427 100.659q1.014-.507 2.067 4.64l.858 5.266q-1.99 0-3.12-.936-.858-.741-1.404-2.262-.82-2.184-.117-4.33.585-1.832 1.716-2.378"/><path fill="#ea545e" d="M75.699 107.055q.156-.897 2.3-1.404l6.163-.39q3.354.234 4.407 3.47.546 1.639.39 3.199-5.343 14.78-12.363 12.402-4.563-1.6-3.198-9.594.429-2.496 1.404-5.343l.897-2.34"/><path fill="#fff" d="M85.956 106.587q2.652.468 2.106 5.889-.195 2.028-1.443 3.354-1.131 1.209-2.34 1.13-1.21-.077-1.872-1.52-.663-1.521-.43-3.978.157-1.872 1.288-3.432 1.248-1.677 2.69-1.443"/><path fill="#ee869a" d="M55.73 126.126q0-.663 4.525.507l4.485 1.287-.39 2.34q-.741 2.34-2.301 2.34-1.6 0-4.095-3.237l-2.223-3.237"/><path fill="#ef856e" d="m65.09 156.897.196.897-.39 12.05-1.677-.935q-2.418-1.092-6.045-2.106l-6.201.195-1.872 1.404 2.145-8.97 1.248-2.34q2.574-2.808 7.839-1.794 2.652.507 4.758 1.599"/><path fill="#766e6b" d="m54.483 200.81-2.457 1.327q-2.457 1.677-2.223 3.354.195 1.365 1.365 2.457.858.78.429 1.482-.585.936-3.51.468l-4.602-1.014q-1.521-.351-4.563-2.652l-3.51-3.081q-.507-.585-1.482-2.691l-1.404-2.73q-.507-.78-.312-1.56t.858-.78l8.93.858q8.776 1.092 11.389 2.223l1.092 2.34"/><path fill="#968c87" d="m71.76 205.49 2.496.547q3.393 1.91 15.093 3.666l10.998 1.365.546 1.755q.819 2.067 2.184 3.627 1.443 1.716 3.51 1.52 1.56-.116 3.12-1.17 1.365-.857 1.794.274.507 1.17-.897 3.354-1.911 2.964-6.591 4.524-6.006 1.989-13.377-.04-7.06-1.95-12.168-5.46-3.237-2.222-4.72-4.25-.662-.897-1.403-5.382l-.585-4.33"/><path fill="#fff" d="M72.969 217.23q1.443 12.597 2.574 16.848 1.365 5.226 2.106 16.653.74 11.505-.312 11.778-.897.234-1.872-1.131l-.82-1.365q-8.657-31.512-11.348-39.234-1.677-4.836-5.967-14.04l-3.94-8.268-7.955-1.482q-8.463-1.443-10.92-1.21-2.613.235-2.691.664-.078.273.702 1.287l4.524 9.71q4.134 8.425 6.279 10.804l.78 1.95q.663 2.028.117 2.379-.897.546-2.34-.702-9.01-9.01-16.926-18.72-7.878-9.633-8.736-15.25-.312-2.066-.234-2.3.507-1.482 3.939-2.418 4.329-1.131 14.742-2.34 10.803-1.248 13.494-.741l.429.507.663 1.287q.819 2.613 2.418 5.616 2.73 5.265 6.045 7.878 5.226 4.173 14.04 10.1l1.209 11.74"/><path fill="#766e6b" d="M94.458 225.42q-6.24-1.053-11.388-3.198-3.705-1.6-7.137-4.914l-2.73-3.003q-.741-2.691-.897-4.134l-.546-3.432q-.351-2.145 0-1.248.78 2.028 9.71 8.112 10.453 7.137 17.629 7.722 6.98.546 10.023-2.106.975-.82 1.404-1.872l.273-.897q.78 0 .78.78l-.43 2.106q-.818 2.73-6.668 5.772-2.847 1.482-10.023.312"/><path fill="#766e6b" d="M120.12 195.156q1.677 1.092 1.833 3.12.156 2.262-.507 4.602-1.17 4.173-4.641 6.747-.702.507-6.552 1.443-5.148.312-12.324-.195-14.352-1.053-24.375-5.226-11.271-4.68-17.94-12.441-5.85-6.825-6.903-14.352l.858 2.3q1.365 2.926 3.783 5.85 7.76 9.4 23.244 15.6 16.497 6.592 29.718 5.578 10.374-.82 13.104-4.875 1.833-2.613 1.13-5.46-.545-2.223-2.027-3.354l1.599.663"/><path fill="#766e6b" d="m48.71 178.854.196 1.092-19.266 1.599q-1.443.117.585-2.34l2.3-2.496.664.819q1.014.897 2.925 1.326 3.08.702 12.597 0M128.076 149.526q-4.758.156-10.764-3.783-6.591-4.29-8.853-10.257l-12.831 2.808q-13.767 3.198-18.486 5.109-5.928 2.418-8.073 3.86-2.496 1.678-3.783 4.408l.35-1.6q.976-1.754 4.213-4.094 6.396-4.68 17.55-7.605 17.823-4.68 20.319-4.992l.819-.04q.897.157 1.326.898 1.482 2.613 3.86 5.226 4.213 4.602 8.776 5.928l3.822.468q4.212-.117 6.123-3.16l-.04 3.355q-.74 3.354-4.328 3.47M.39 113.958q0-1.56.507-2.691.507-1.131.507-.234 0 1.989 1.326 3.549 1.872 2.184 6.045 3.08l10.257.625 6.396-.585q1.092-.312 1.872.273 7.176 3.588 19.422 15.95 6.123 6.163 10.803 11.623l-1.443 3.276-.351-1.287q-8.23-11.778-19.773-21.177-3.588-2.964-7.098-5.304l-2.808-1.755-1.989.546q-2.769.897-6.552 1.443-7.488 1.053-12.324-.741-4.836-1.794-4.797-6.591M61.152 139.815q.234-.546 1.209-1.794l.936-1.092 4.329.35-.741 1.99q-1.326-.43-3.666 0l-2.067.546M69.342 23.829q-4.875 4.446-7.683 5.694l-5.07 1.872-2.652.819-.546-1.131 7.995-4.446q8.502-5.187 11.076-9.009 2.574-3.783 3.08-6.045v-1.482l1.015 1.053q.74 1.599-.507 4.524-1.365 3.237-6.708 8.151M53.43 31.98l1.91 1.755q1.249 1.209 1.6 4.095.429 3.9-1.014 10.023-1.17 5.03-5.967 9.789-2.964 2.925-6.357 4.953l-1.014-.04q-.156-.233.585-.974l1.092-.936q2.028-1.404 4.056-4.134 2.457-3.354 4.212-7.878 2.574-6.67 1.989-12.324-.156-1.755-.663-3.237l-.43-1.092M55.73 70.16q.235 4.057-1.832 7.177-1.911 2.808-4.29 3.08-1.794.235-4.134-2.183l-1.99-2.457 1.6 1.326q2.145 1.248 5.07.819 3.315-.507 3.705-6.474.39-5.85-2.067-7.02l1.833.702q1.872 1.443 2.106 5.03"/><path fill="#cf725f" d="m48.36 65.87-1.248 2.419q-1.014 2.808 0 4.602l-1.755-2.262q-1.755-2.691-1.872-4.602l1.833-.195q2.028-.195 3.042.039M38.025 65.403h1.404q.234 2.535 1.13 5.382l.898 2.34v1.989q-.585-.117-1.365-.624-1.56-.936-2.574-2.613-1.014-1.677-.351-4.251l.858-2.223M61.737 66.183q8.814.702 16.653 3.276 9.945 3.276 19.5 9.672 10.179 6.864 14.352 13.728l.507 1.56q.234 1.677-1.248 2.223h-2.691l-1.794 2.496q-3.55-5.031-11.7-10.764-16.263-11.466-39.234-14.937 0-1.99-.351-3.276l-1.248-4.134 7.254.156M43.914 77.142q2.145 2.223 4.25 2.769 2.146.546 4.29-.585l1.6-1.17-1.638 1.833q-2.106 1.989-4.017 2.418-3.354.702-5.11-3.276l-1.052-4.095 1.677 2.106"/><path fill="#cf725f" d="M43.212 76.4q1.053 1.366 2.379 2.419 2.145 1.677 4.563 1.833l-4.095 2.379-2.574 3.9q-.975-4.602-1.014-5.655l-.04-6.045.78 1.17"/><path fill="#766e6b" d="m102.53 104.364 1.249.897-.702 6.63q-1.638 7.722-6.123 13.338-4.524 5.655-13.3 9.165-4.406 1.755-8.657 2.535l-3.16.156q-1.988-.117.469-.702 2.34-.546 7.8-3.588l4.953-2.886q8.658-5.928 13.923-16.341 2.652-5.187 3.549-9.204"/><path fill="#dcdddd" d="m71.76 205.49 1.443 8.815q-14.976-10.803-21.138-23.673-1.911-4.017-2.73-7.761l-.43-2.925 2.146 6.474.702 1.443 1.482 2.69q1.13 1.678 2.925 3.706 2.418 2.69 4.446 4.017l11.154 7.215"/><path fill="#766e6b" d="M111.072 192.465q5.694 5.109 7.098 5.265l-.312 1.716q-.624 1.716-2.223 1.716-1.521 0-3.744-2.691-2.067-2.886-2.535-3.237-3.822-4.758-10.491-9.321-13.182-9.048-30.186-10.296l9.399.39q10.998 1.287 18.876 5.889 6.825 4.017 14.118 10.569M121.758 199.173l3.354.975q3.939.546 6.747-1.521 2.808-2.028 2.223-6.864l-1.17-4.446 1.794 2.613q1.638 3.159 1.092 5.85-.82 4.017-4.212 6.747-4.29 3.47-11.076 3.12 1.638-2.496 1.638-3.393l-.195-1.872-.195-1.21"/><path fill="#933000" d="m58.383 129.558-1.248-1.833q-1.17-1.872-.858-2.223.195-.195 4.68 1.13l4.446 1.327-.82 2.028q-1.715-1.404-4.133-1.053l-2.067.624"/><path fill="#cf725f" d="m58.422 93.132.195 2.73q.468 2.886 1.677 3.432 1.443.624 2.925-1.014 1.404-1.56 1.872-3.861.78-3.861.234 1.326-.43 3.666-1.56 4.953-1.17 1.365-2.574 1.365-1.131-.04-1.872-.858-.546-.585-1.053-2.418-.43-1.404-.507-2.301-.04-.468.312-1.95l.35-1.404"/><path fill="#dcdddd" d="M57.29 134.862q-4.913-1.872-7.76-4.407 6.98 4.212 17.277 4.017 8.93-.195 15.717-3.237-1.794 1.482-4.68 2.886-5.772 2.886-11.115 2.769-4.407-.117-9.438-2.028"/><path fill="#766e6b" d="m45.396 28.899-1.755.624q-1.131-2.379-1.872-6.045-.702-3.315-.585-4.992.156 2.418 1.833 6.123 1.365 3.042 2.379 4.29"/><path fill="#0f141b" d="M1.287 114.582q-.039 1.404.351 2.145 1.248 2.106 5.265 3.003 6.669 1.443 19.032-1.21l.234-.077.195.117 2.613 1.56q3.276 2.145 6.786 4.992 11.232 9.165 21.06 22.425l-.82 1.248q-9.203-12.441-19.772-21.411-6.123-5.226-10.257-7.527-11.583 3.042-18.564 1.833-5.031-.897-6.63-3.588-.819-1.287-.78-3.315 0-2.301 1.092-4.095 1.209-2.106 3.666-3.315 3.198-1.6 8.151-1.521 7.878.156 13.065 4.446 3.003 2.457 4.29 5.265 5.616 3.86 17.745 15.522l11.622 11.544-.195 1.014-11.817-11.388q-12.714-11.973-18.252-15.717l-.156-.117-.078-.156q-1.014-2.38-3.471-4.602-4.875-4.33-12.753-4.485-8.112-.117-10.686 4.173-.858 1.482-.936 3.237"/><path fill="#0f141b" d="M57.68 146.445q-7.058 13.494-9.36 26.559-.311 1.13-.584 1.13-.39 0-.312-1.442 2.535-16.263 9.399-26.754l.468-.741q.546-.663.819-.507.429.35-.43 1.755M59.436 143.676l-.78-1.053 4.134-6.708.975.74-1.248 1.873-3.081 5.148M91.728 182.442q-7.41-3.783-14.937-5.187-5.85-1.053-12.402-.741-.897.117-.936-.195-.04-.273.468-.43l.468-.077q7.449-.43 12.987.35 8.19 1.093 15.6 4.915 6.59 3.393 12.129 8.658l6.786 7.41.936 1.092q1.053 1.209 1.599 1.638 1.677 1.287 2.535.429.702-.702.195-2.38l-.585-2.3q-.156-1.404.468-1.911 1.52-1.248 3.705 1.092 2.3 2.457 1.989 6.045-.78 8.814-12.09 10.842-10.491 1.872-28.041-2.38-8.58-2.027-15.873-6.005-10.14-5.577-15.21-14.82-1.6-2.925-2.535-5.928l-.624-2.613-.117-.82q-.078-.818.273-.857.507-.078.74 1.482l.625 2.3q.975 2.809 2.574 5.578 5.109 8.853 14.82 14.196 6.98 3.9 15.873 6.084 18.29 4.485 28.04 2.496 9.517-1.872 10.219-9.672.195-2.886-1.287-4.914-1.404-1.794-2.223-1.092-.273.273.39 2.535.702 2.457-.546 3.705-2.301 2.3-7.02-3.198-3.9-4.446-6.981-7.176-5.421-4.797-12.012-8.151"/><path fill="#0f141b" d="m48.75 179.244-.117 1.287q-16.302.897-24.531 2.3-5.811 1.015-7.098 2.146-1.911 1.677 5.928 13.61 8.229 12.559 17.862 21.295 2.847 2.535 3.12 2.34.195-.156-.585-1.872-.897-1.99-2.38-4.173-1.598-2.34-5.615-10.647-4.29-8.931-3.978-9.945l.429-.468q1.248-.585 10.686.74 9.243 1.288 11.895 2.302l-.117.897q-2.301-.897-10.881-1.911l-10.608-.858q.663 2.145 4.056 9.282 3.549 7.332 5.226 9.867 1.365 2.028 2.262 3.86 1.52 3.199.585 4.057-.975.858-4.992-2.496-11.115-9.477-19.071-21.957-7.878-12.363-4.758-15.093 3.354-2.925 32.682-4.563"/><path fill="#0f141b" d="m73.125 220.7-2.184-15.677 1.326-.195 2.184 15.717 2.847 21.879q1.287 11.427 1.13 16.302-.038 1.716-.428 2.964-.39 1.365-1.053 1.52-.741.196-1.638-1.013-.858-1.17-1.365-2.77-7.84-26.52-11.778-38.375-3.198-9.594-7.098-18.564l-3.276-7.137-.39-.82q-.351-.818-.078-1.052.234-.234 1.248 1.365l3.86 7.059q4.408 8.93 7.528 18.72 4.446 14 11.232 38.298l.858 2.3q.35.742.585.742.468-.04.507-3.276.078-5.187-1.17-16.107l-2.847-21.88M127.257 135.876q-3.237-2.886-7.371-3.978-5.577-1.521-11.466-.82-3.198.39-7.488 1.756l-.897.273-18.057 5.343q-14.976 4.485-16.107 5.07-1.014.507-1.248.156-.117-.156.35-.468l.469-.273q1.404-.78 17.823-5.967l16.38-5.11.897-.272q4.29-1.404 7.76-1.833 6.085-.702 11.935.858 4.446 1.17 7.878 4.29 2.886 2.613 4.407 5.81.74 1.6.936 3.16.195 1.56-.195 2.418-1.287 2.769-3.94 3.588-3.51 1.053-9.047-1.404-7.176-3.16-12.52-12.48-4.796.936-15.638 3.783-12.675 3.276-17.316 5.109-5.226 2.106-7.215 4.29-1.95 2.145-1.872 5.655l.312 18.525q3.978-1.404 8.775-2.028 7.995-1.014 16.029.546 9.438 1.833 21.099 8.775 7.605 4.563 11.7 8.19 1.404 1.248 3.08 1.95 1.678.702 2.653.429.585-.117.624-1.287.039-1.014-.312-2.223-.312-.936-.273-1.716 0-1.014.546-1.326.78-.468 2.145.468 1.677 1.17 3.276 4.134 1.95 3.666.585 8.034-1.404 4.68-5.85 7.215-1.833.975-4.407 1.443-2.691.429-5.304.117l.35-.975q3.355.39 6.553-.585l2.535-1.092q3.9-2.223 5.03-6.396 1.054-3.861-.662-7.137-1.404-2.574-2.457-3.588-.741-.702-1.131-.507-.234.35.039 1.248.663 2.145.312 3.549-.39 1.326-1.56 1.638-2.613.624-6.903-2.691-5.538-4.212-11.74-7.8-11.582-6.786-20.786-8.58-9.01-1.755-17.472-.39l-6.747 1.716-.897.39-.585-20.007q-.156-3.94 2.106-6.435 2.262-2.496 7.956-4.758 4.797-1.911 18.174-5.382 11.583-3.003 15.483-3.705l.507-.078.234.429 3.198 4.758q4.095 5.07 8.892 7.176 8.697 3.86 11.232-1.521.546-1.248-.741-4.095-1.365-2.964-4.056-5.382"/><path fill="#0f141b" d="m67.119 142.779-1.17.39q0-1.248.312-2.925.468-2.77 1.52-3.94l1.054.78q-.741.82-1.248 2.848-.43 1.599-.468 2.847M66.027 27.534q-5.148 3.471-11.115 4.797l-.975-1.014 3.51-.975q4.173-1.443 7.839-4.056 6.357-4.485 9.204-9.399 2.379-4.056 1.248-5.655-.897-1.248-6.084.546-5.772 1.95-11.037 6.084-5.655 4.407-8.502 11.232-.624 1.404-.858 1.326-.585-.156.039-1.794 2.925-7.098 8.775-11.778 5.655-4.524 11.7-6.435 5.733-1.794 7.02.039 1.326 1.833-.975 6.552-2.847 5.85-9.79 10.53"/><path fill="#0f141b" d="M52.455 14.313q-.273 6.357-1.677 12.987l-1.053.468q1.13-6.864 1.248-13.494.078-6.006-1.014-9.516-1.092-3.432-2.925-3.432-2.145 0-3.861 4.485-1.716 4.524-1.716 10.452-.078 7.02 2.925 13.104-.585.312-1.21.585-3.12-6.435-3.041-13.689.039-6.942 2.145-11.7Q44.304 0 47.034 0q2.574 0 4.173 4.29 1.52 4.173 1.248 10.023M17.784 55.809l-1.131-1.482q-.234-.468 0-.702.156-.156.936.663l.741.819q7.176 8.034 20.904 9.438l-.117 1.326q-13.611-1.404-21.333-10.062M43.329 66.144l.039-1.326 4.758.039v1.326l-4.797-.04M77.649 68.406q18.876 6.435 29.328 16.263 3.666 3.51 5.577 6.747 1.56 2.69 1.248 3.705-.585 1.872-3.55 1.872l-1.793-.195.234-1.287 2.223.078q1.404-.117 1.638-.858.195-.858-1.482-3.354-2.028-3.042-5.694-6.318-10.413-9.36-28.12-15.405l-7.526-1.638q-8.814-1.677-15.444-1.833l.039-1.326q7.332.117 15.99 1.833l7.332 1.716"/><path fill="#0f141b" d="M42.354 27.729q-6.786-3.393-11.271-10.608l-.195-.429q-.156-.468.039-.585.312-.156.858.585 3.783 6.123 11.154 9.828l-.585 1.209M126.906 81.86q-2.808 4.057-8.424 9.478l-5.382 4.836-.351-1.755 4.563-4.017q5.03-4.758 7.722-8.697 4.056-5.85 2.73-12.48-1.833-9.282-14.001-21.957-10.413-10.881-24.492-14.47-7.878-2.027-19.968-1.871l-10.374.156.585-1.326.624-.078 9.165-.078q12.48-.156 20.709 1.95 14.742 3.705 25.428 14.859 12.636 13.182 14.39 22.854 1.21 6.63-2.924 12.597M19.5 42.86q5.889 5.617 14.157 9.517l-.546 1.209q-6.786-3.237-14.235-10.296-.819-.741-.507-.975.312-.273 1.131.546"/><path fill="#0f141b" d="M71.799 56.667q-6.981-.858-17.2-.234l-3.587.156v-1.326l3.51-.156q10.725-.624 17.589.156 12.753 1.482 23.283 7.527 12.909 7.41 19.812 17.433 3.47 5.07 4.485 9.009l-.858.234q-1.053-3.55-4.602-8.424-7.06-9.711-19.617-16.926-10.335-5.928-22.815-7.45M22.776 32.33q2.262 4.252 11.232 8.58.585.274.39.78-.234.547-.82.235-3.782-1.794-5.459-2.847-4.251-2.77-6.045-6.201-.39-1.053-.156-1.326.156-.156.507.234l.351.546"/><path fill="#0f141b" d="M121.407 74.334q3.198 5.382 3.549 9.165l-.936.156q-.468-3.354-3.705-8.541-6.474-10.374-20.397-19.93-8.892-6.122-20.67-8.19-7.02-1.247-20.358-1.442l-2.613-.04.039-1.325 2.613.039q13.767.195 20.709 1.404 12.05 2.067 21.177 8.307 14.313 9.789 20.592 20.397M38.57 34.32q-6.98-3.276-11.894-10.413l-.312-.468q-.234-.507 0-.624.273-.156 1.053.78 4.212 6.045 11.739 9.516l-.585 1.209"/><path fill="#0f141b" d="M127.686 77.532q-.312-2.535-3.003-7.06-5.343-9.008-17.16-19.148-10.335-8.892-27.69-12.246-9.477-1.833-23.634-2.106l.039-1.326q14.625.273 23.985 2.028 17.628 3.354 28.197 12.44 12.207 10.492 17.277 19.54 2.574 4.602 2.73 7.332l-.741.546"/><path fill="#0f141b" d="M96.915 34.788q-5.811 5.967-12.402 21.138-3.315 7.605-5.538 14.196l-.897-.507q2.34-7.722 6.045-16.068 5.967-13.455 12.05-19.734l.742.975M103.35 105.573l-.585-.936q1.326-1.404 2.964-3.94 3.198-5.03 4.68-10.763l1.287.35q-1.56 6.007-5.031 11.155-1.716 2.574-3.315 4.134M43.056 75.426q-.234 3.51.273 7.644l.507 3.47-1.287.703q-1.21-6.552-.82-12.285l1.327.468"/><path fill="#0f141b" d="M38.18 71.33q.04.898 1.483 1.873 1.053.702 2.184 1.13l.624 1.678q-5.5-2.028-5.616-4.641-.117-2.106 2.613-3.783-.04.507.35 1.365-1.715 1.248-1.637 2.379"/><path fill="#0f141b" d="M37.44 72.93q-1.716-1.911-2.184-4.992l-.117-3.003 1.326-.04q.078 2.926.273 3.823.35 1.833 1.716 3.354l-1.014.858M61.503 72.345q6.2.78 12.597 2.69 19.929 5.929 34.944 20.67l-.936.937Q93.093 81.9 73.086 76.089q-6.28-1.794-12.285-2.496l-4.914-.351-.04-1.326h.079l5.577.429"/><path fill="#0f141b" d="M69.849 67.626q-2.496 3.51-4.407 9.906-.975 3.198-1.443 5.772l-.82-.43q.43-2.73 1.366-5.966 1.794-6.396 4.446-10.101l.858.819"/><path fill="#0f141b" d="M100.815 115.518q2.028-6.162 1.599-12.558-.078-.702-2.262-2.613-2.34-2.028-5.89-4.368 1.639 3.549 1.795 8.229.195 6.552-2.613 14.39-2.535 7.06-8.346 11.818-4.33 3.549-10.101 5.577 7.956-1.131 14.274-5.265 6.396-4.134 9.36-10.18 1.17-1.91 2.184-5.03M45.084 83.46l-.82.156q-.506.156-.506-.312 0-.234.819-.546l.819-.312 1.755-.39 4.719-.468q8.268-.234 19.032 2.457 11.505 2.886 22.815 9.867 10.179 6.318 10.335 9.009.429 6.669-1.755 13.182-1.092 3.276-2.418 5.42-4.68 9.478-16.731 13.65-10.491 3.628-20.32 1.717-13.415-2.613-20.903-13.962-6.864-10.335-5.226-21.216.858-5.85 3.9-11.583 1.95-3.627 4.485-6.67m2.067-.311-.546.546-2.535 3.159q-2.77 3.939-4.368 8.346-5.11 13.962 3.237 27.105 3.51 5.538 9.087 9.048 5.46 3.51 12.207 4.563 6.396 1.014 14.43-2.964 9.945-4.914 13.533-14.781 3.198-8.853 2.574-15.912-.39-4.407-2.067-7.293-11.193-6.942-22.113-9.633-13.455-3.393-23.44-2.184"/><path fill="#0f141b" d="M62.595 85.917q4.095.234 3.744 7.956-.078 2.106-1.17 4.836-1.6 4.095-4.29 3.86-1.638-.116-2.652-2.183-1.131-2.262-.858-5.85.234-3.822 1.95-6.357 1.56-2.34 3.276-2.262m-1.56 15.6q1.599.195 2.769-2.847.858-2.223 1.092-4.602.273-3.12-.312-5.11-.585-1.91-1.677-1.91-1.638 0-2.808 1.91-1.131 1.795-1.56 4.837-.39 2.964.468 5.343.819 2.223 2.028 2.379"/><path fill="#0f141b" d="M90.558 98.63q-15.912 0-25.506-2.612l.35-1.287q6.787 1.872 16.888 2.574 8.424.624 12.246.156l.156 1.014-4.134.156M57.642 93.288q-4.836-2.067-9.477-5.07l-3.705-2.652.507-.702 3.783 2.379q4.68 2.808 9.399 4.836l-.507 1.209M91.182 224.094q9.009 2.223 14.859-.936 4.017-2.145 4.875-5.11.312-1.052-.156-1.286-.43-.273-1.404.74-.702.742-1.872.976l-2.418-.156q-2.067-.624-3.471-2.535-1.443-1.911-1.872-4.68l.897-.195q.819 4.836 4.797 6.162l1.716.117q.819-.117 1.248-.585 1.677-1.794 3.042-1.014.624.35.819 1.13.195.742-.078 1.678-.663 2.418-3.783 4.836-4.29 3.315-10.608 3.315-3.237 0-7.176-.975-9.126-2.262-14.313-6.981-1.404-1.287-2.691-3.003l-1.092-1.17.35-.702.469-.546.78 1.248q1.13 1.482 2.847 2.925 5.343 4.563 14.235 6.747M55.029 200.85q-1.911.624-3.354 1.755-1.248 1.053-1.482 1.989-.156.74 1.326 2.574 1.443 1.794 1.053 2.69-.43.859-2.847.859-2.496 0-5.577-.975-4.134-1.326-7.761-5.07l-3.003-3.705.819-.663 2.886 3.393q3.627 3.588 7.449 4.797 3.08.975 5.148 1.053 1.599.039 1.716-.351.117-.351-1.248-1.911-1.443-1.638-1.248-2.964.35-2.418 5.577-4.173l.546.702M83.109 107.289q1.287-1.521 2.808-1.287 1.56.195 2.34 2.028.819 1.833.468 4.25-.351 2.263-1.833 3.9-1.404 1.522-2.691 1.327-1.521-.234-2.34-2.067-.82-1.833-.43-4.251.352-2.38 1.678-3.9m2.496-.351q-.897 0-1.794 1.209-.936 1.287-1.21 3.237-.311 2.028.274 3.549.546 1.443 1.482 1.599.936.117 1.872-1.092 1.014-1.287 1.326-3.315.273-2.028-.312-3.588-.546-1.443-1.482-1.56l-.156-.04M64.974 170.508q-6.318-4.134-11.74-3.51-1.715.195-3.158.858l-1.21.702-.077-1.287q2.769-1.99 6.98-1.56 4.759.468 9.907 4.017l-.702.78M65.09 157.872q-4.913-3.081-9.125-2.223-1.326.273-2.418.936l-.858.585-.04-1.131q2.263-1.833 5.422-1.716 3.47.156 7.605 2.652l-.585.897M49.296 102.96q-.585 1.638-.078 3.9.39 1.794 1.677 2.613 1.053.702 2.145.507l.663 1.014q-1.56.35-3.081-.468-1.911-1.014-2.496-3.432-.585-2.262 0-4.212.546-1.872 1.833-2.691l.858.897q-1.053.429-1.521 1.872"/><path fill="#0f141b" d="M85.76 106.82q-2.105-.857-5.03-.74l-4.33.585q-2.885 7.137-2.378 12.246.468 4.329 2.808 5.03 4.329 1.21 8.736-5.81 1.755-2.73 2.574-5.46.819-2.77.195-3.861-.741-1.248-2.574-1.99m-16.81 7.138q.43-4.524 2.146-6.357 2.145-2.301 6.708-3.12l7.527.234q2.847.78 4.017 2.886.858 1.52.078 4.758-.741 3.159-2.613 6.24-4.72 7.76-10.218 6.279-3.042-.78-3.744-5.538-.78-5.304 2.535-12.402-2.184.702-3.51 1.91-1.404 1.366-1.95 5.812-.546 4.836.74 8.736.235.74-.077.819-.273.039-.546-.702-1.56-4.602-1.092-9.555M46.76 97.46q-1.17 1.483-1.95 4.369-.935 3.47-.818 7.605.117 4.446 1.91 7.098 1.522 2.184 3.199 2.184 1.482 0 2.613-2.73 1.053-2.574 1.053-5.733 0-4.134-1.716-7.84-1.404-3.002-4.056-4.835l-.195-.156-.04.039m-5.108-1.638q1.014-1.755 2.69-1.482 2.458.312 4.837 2.496 2.379 2.145 3.393 4.953 1.482 3.978 1.52 7.839.04 4.368-1.598 7.332-1.482 2.69-3.354 2.69h-.04q-2.183 0-4.055-2.417-2.184-2.886-2.301-7.605-.234-8.385 3.198-12.714-1.638-.897-2.574-.39-.975.546-1.6 2.535l-.545 2.028-.39.78q-.468-.078-.117-3.081.273-1.833.936-2.964M64.857 174.876l-.78.35q-.624.274-.741 0-.117-.194.702-.78l1.248-.78q.312-.194-.04.508l-.39.702M45.903 28.275q.819-.195.858.156.039.234-1.404.897-1.911.897-4.173 2.925-4.524 4.134-6.435 10.179-2.145 6.747-.156 12.636 1.638 4.797 4.914 7.02.507.35.468.936-.156 2.379.507 5.187 1.053 4.836 4.095 8.19 3.198 3.549 6.123 2.769 1.482-.351 2.613-1.716.975-1.17 1.287-2.574 1.053-4.251.273-6.903-.78-2.574-3.12-3.042-3.276-.624-4.29 3.12-.975 3.627 1.053 6.474.312.39.039.546-.234.195-.663-.195-2.925-2.535-4.095-5.226-1.053-2.34-1.443-6.747-.04-.39.039-.507.078-.156.468-.312 2.379-1.092 4.914-3.393 4.602-4.29 6.864-10.57 1.833-5.108 1.248-9.632-.546-4.134-3.003-7.098-.82-.741-.43-1.092.352-.312 1.21.507 2.73 2.73 3.627 6.903 1.092 5.109-1.053 10.959-2.496 6.864-7.06 10.959-2.144 1.91-5.46 3.549.547 5.499 2.419 7.956-.195-4.251 1.833-6.28 1.755-1.676 4.056-1.208 2.73.546 3.822 3.588 1.17 3.237.078 7.917-.468 1.872-1.638 3.393-1.404 1.794-3.237 2.262l-1.365.195q-3.081 0-6.084-3.354-3.198-3.55-4.33-8.736-.623-2.925-.506-5.85-3.588-2.496-5.343-7.605-2.184-6.318.078-13.416 2.067-6.474 6.825-10.53 2.418-2.067 4.64-2.925l.937-.312M32.877 175.07q4.64-3.782 10.413-4.796l5.07-.234-.312 1.326-4.407.195q-5.187.897-9.477 4.368-1.638 1.404-3.042 3.042-1.404 1.599-1.404 2.028l-1.599.156q-.117-.936 1.638-2.964 1.326-1.6 3.12-3.12M60.372 125.93l5.07 1.444q.546.117.39.663-.351 1.443-1.443 3.042-1.326 1.95-2.613 1.95-1.21 0-3.432-2.613-2.301-2.652-3.16-5.187-.194-.585-.038-.741l.74.039 4.486 1.404m1.482 6.435q.546 0 1.443-1.365.819-1.287 1.326-2.73-3.276-.858-7.917-2.34.975 1.95 2.769 4.173t2.379 2.262"/><path fill="#0f141b" d="M61.308 128.544q2.145.117 3.393 1.053.234.195-.507.663-.936-.663-2.964-.702-1.911-.04-2.457.39-.156.156-.43-.156-.272-.273-.116-.43.897-.896 3.08-.818M43.134 65.793q.507-.312 1.248-.43l1.677-.155 1.248.897q-2.067.195-3.783 1.092-.273-.273-.351-.858l-.04-.546"/></svg>