<svg xmlns="http://www.w3.org/2000/svg" width="288" height="347" viewBox="-1.317 0 288.274 346.711"><path fill="#a688bd" d="M168.468 135.191q-3.357-2.252-6.035-.892l2.508-4.123q7.352 4.548 11.135 13.812-3.995-6.374-7.608-8.797"/><path fill="#28343b" d="M94.094 72.164q-3.995 0-12.027 7.565-8.883 8.288-10.668 16.022l-3.995 1.19-.85-2.422q.213-2.337 1.275-6.162 1.063-3.868 2.04-5.865 3.74-3.273 13.43-9.223 9.265-5.695 13.472-7.48h3.018q11.645 6.46 20.697 13.005 13.983 10.158 14.025 15.555-7.735-1.275-12.537-.978-.808-4.377-10.285-12.452-10.328-8.755-17.595-8.755"/><path fill="#a688bd" d="M144.966 62.05q7.31 2.89 19.592 16.192 12.325 13.302 18.53 24.99l-8.415 8.924-1.147-.85-5.313.085q-2.422-3.74-5.227-6.715-3.06-3.23-5.355-4.207-3.103-1.318-9.393-3.06-7.182-1.955-13.727-3.06-.042-5.397-14.025-15.555-9.052-6.545-20.697-13.005l23.885-.765 17.34-.935q3.187-.382 3.952-2.04M144.456 167.533q-1.913-6.12-1.87-11.177 9.137-7.523 15.81-16.363-2.38 7.225-.68 16.788 1.827 10.327 7.437 15.852 3.868 3.783 7.268 3.783 3.357 0 5.227-3.655-1.53 5.567-4.335 9.435-2.932 3.994-6.8 5.44-9.01 3.314-16.872-8.883-3.273-5.015-5.185-11.22"/><path fill="#fabe00" d="M168.468 63.75q0-4.038.128-4.463l8.287.382 8.882.553q6.248 7.947 12.028 17.34 5.057 8.117 7.182 13.005-7.607-8.925-16.83-15.598-8.584-6.205-19.677-11.22"/><path fill="#a688bd" d="m178.966 165.833 11.687 1.743q7.65.722 15.767.382l1.148-1.402 6.63 1.742q-2.295 2.423-3.57 3.06-5.95 1.275-16.235.425-8.415-.722-15.937-2.422l.51-3.528"/><path fill="#e7d5e8" d="M157.673 156.95q-1.742-9.477.723-16.957l4.037-5.694q3.4-1.743 8.5 3.102 5.398 5.142 7.183 13.132-9.563 1.19-8.925 4.038.68 2.847 9.945 3.4.765 13.09-3.358 17.17-4.037 3.952-10.625-2.508-5.61-5.525-7.48-15.682"/><path fill="#3e4e57" d="M166.556 52.912q2.082.51 4.165 1.742 1.955 1.148 2.847 2.21.553.595.638 2.55l-1.658-.085-5.992-6.417"/><path fill="#a688bd" d="m232.387 168.086-3.74-14.365-4.207-14.662q-1.445-4.378 3.103-1.02 6.077 4.59 13.387 13.387 8.16 9.902 15.13 21.93 17.637 30.557 20.23 61.751.17 2.38-1.148 5.1-1.275 2.593-3.06 3.783.808-5.143.085-8.033-1.232-5.014-9.137-10.072-3.103-1.997-5.738-2.975-2.677-.977-3.315-.34-.765.34-1.7 9.902-.935 9.648-.212 11.645l1.36 4.42q-2.635-2.465-3.528-3.74-1.02-1.402-1.232-3.23-.68-5.27-5.228-26.052-4.335-19.635-9.35-40.544.553.255 1.488.85-.638-3.655-3.188-7.735M85.382 254.36q2.082 2.635 4.76.552 2.252-1.742 7.564-5.1 6.673 8.755 12.07 28.05 5.865 20.825 4.463 35.657-7.778-.765-19.338-6.842-9.817-5.185-15.98-10.498l-5.27 7.013-2.124.382q5.865-7.947 5.907-30.344.043-20.825-4.207-31.62 8.16 7.735 12.155 12.75"/><path fill="#a688bd" d="M133.661 216.068q-2.337 4.25-3.57 7.607-1.657 4.505-1.912 8.712-4.165 1.488-20.188 11.178-14.662 8.882-17.85 11.347-2.677 2.083-4.76-.552-3.272-4.165-8.712-9.563-6.077-6.077-10.2-8.925-.34-.212-1.147-.297-.893-.043-1.19.297-2.593 2.678-5.908 7.48-4.037 5.865-5.78 10.243-2.337-.51 1.403-8.543 3.995-8.542 10.455-14.577 7.692-4.887 29.75-9.307 21.122-4.25 39.61-5.1"/><path fill="#a688bd" d="m73.227 241.61 1.445 4.335q-4.675 1.487-10.71 3.57-7.523 2.592-11.348 4.122l-.17-.042q1.743-4.378 5.78-10.243 3.315-4.802 5.908-7.48.297-.34 1.19-.297.807.085 1.147.297 2.423 1.658 6.758 5.738"/><path fill="#e7d5e8" d="M78.922 296.18q3.57 3.102 9.69 6.8 6.544 3.952 12.834 6.714-4.08 2.083-21.462 7.098-17.255 4.972-20.782 5.142.85-1.572 19.72-25.755"/><path fill="#a688bd" d="M168.596 154.783q-1.233-6.502.935-7.055 3.272-.807 12.197 1.36 6.035 1.488 17.765 5.27l1.742 9.053q-7.522-1.488-17.084-1.573-10.413-.042-12.028-.297-2.252-.34-3.527-6.758"/><path fill="#28343b" d="M168.426 83.087q-12.623-14.96-20.953-19.805 7.99 3.145 20.57 9.35 14.705 7.225 17.51 10.115l.892 7.225q.765 6.332.638 8.712l-3.995 4.547q-3.825-7.267-14.662-20.144"/><path fill="#a688bd" d="M164.006 70.89q-16.065-7.736-19.04-8.84.977-2.083-1.02-7.056 13.175 3.655 25.032 9.138 13.6 6.247 23.12 13.897 12.325 9.903 20.4 22.312 10.242 15.64 16.49 38.845-3.103-2.55-4.463-2.295-1.275.213-.085 2.168.85 1.402 3.655 11.942l-5.057 6.842-3.868-2.975q-.935-2.465-17.255-16.277l-24.82-20.4q-2.592-2.125-2.89-3.867-.212-1.488 1.148-2.975l11.73-12.665q.127-2.38-.638-8.712l-.892-7.225q-2.635-2.72-21.547-11.858M201.193 262.817q.382-6.375 1.275-7.182 1.275-1.105 13.09 2.422 10.922 3.23 17.68 6.205.552 0 1.614-1.232 14.663 13.09 30.09 31.917 19.72 24.097 21.122 35.997-5.355-3.91-20.697-11.22-16.957-8.117-22.525-8.415-.637.383-5.95 9.053l-5.567 9.18q-.807 1.19-1.53.764-.637-.382-.722-1.402-1.658-24.055-8.033-39.482-6.63-16.022-19.847-26.605M130.941 191.46q-4.675-1.062-9.52-5.1-5.992-5.1-8.882-12.622 16.49-6.205 30.047-17.382-.085 7.31 3.91 16.447 4.42 10.2 10.625 13.855-3.57 3.06-11.433 4.632-8.244 1.658-14.747.17"/><path fill="#a688bd" d="M168.596 59.287q-.128.425-.128 4.462-11.135-5.057-24.522-8.755-3.4-8.5-8.372-17.382-5.653-10.242-8.925-12.537 8.415 3.315 25.33 16.277 15.64 12.027 20.57 17.977l-3.953-.042M157.63 100.469q4.038 1.742 8.288 7.352 3.443 4.59 5.228 9.053-4.08 11.22-12.325 22.27-7.395 9.944-16.235 17.212-15.257 12.58-34.212 18.657-13.813 4.42-25.372 4.42-9.648 0-20.06-6.97-10.795-7.182-14.365-16.702 3.272 5.355 6.927 7.395 2.465 4.462 10.328 8.712 8.16 4.42 14.79 4.42 10.795 0 21.972-2.89 11.22-2.932 18.87-7.735 6.205-1.742 11.177-4.42 5.058-2.72 6.163-4.972 2.082-4.293 3.4-13.77 1.402-10.412-.17-14.832-6.333 2.252-16.405 10.71-8.968 7.522-10.455 10.37-1.488 2.804-3.4 9.18-1.743 5.822-2.168 8.84-8.627 2.422-17.467 3.867-8.5 1.36-14.492 1.36-2.975 0-10.03-2.975-7.098-3.018-9.945-5.483.467-6.8-2.89-17.85-3.57-11.73-7.948-15.47-1.657 1.828-2.507 4.803-.935 3.358-.552 7.31-2.38-7.012-1.53-19.167.425-5.61 4.08-12.283 2.55-4.675 5.227-7.607 1.7-.893 10.37-4.123 8.075-3.017 9.477-3.4-1.955 8.33 2.125 19.89 3.825 10.71 8.5 13.813 3.103-.255 9.01-3.655 6.035-3.443 12.24-8.543 15.47-12.707 18.7-23.885 5.27-.34 16.957 1.913 12.112 2.337 18.7 5.185M132.641 242.46q-4.717-6.673-4.462-10.073.382-6.204 5.015-15.257l5.95-11.772q1.232-3.783.807-7.268-.425-3.442-2.38-5.992 5.397.042 10.37-1.148 5.907-1.445 9.18-4.292l1.36.68q.085 8.372 4.08 11.475 3.315 2.635 12.877 3.57 1.275.34 2.89 3.952l2.125 5.568q-4.42-2.848-8.415-5.27-2.635-1.615-3.612-1.275-.893.297-.51 2.38 1.19 6.375 4.122 15.64-3.187 7.012-12.622 15.724-9.775 8.968-18.148 12.155-4.037-2.21-8.627-8.797"/><path fill="#a688bd" d="M87.464 184.236q.213-.255 2.848-2.423l3.994-3.315 5.1-.935q2.635 4.335 5.78 7.608-13.642.68-17.722-.935M79.602 179.136q-2.848 2.21-6.163 5.525-3.485 3.484-4.335 5.057l4.633-.213q-7.14 4.803-23.588 21.675-7.14 7.268-25.542 26.987-.85.935-3.102 1.36l-4.123-.255 1.488-2.04q.85-3.357 0-9.392-.893-5.907-2.593-8.882-6.332 1.657-10.2 7.225-.722-5.228 5.44-12.835 5.738-7.14 16.023-14.663 10.2-7.48 21.802-13.174 12.24-5.993 22.78-8.33 3.782 1.445 7.48 1.955"/><path fill="#a688bd" d="m86.062 179.178 8.244-.68-3.994 3.315q-2.635 2.168-2.848 2.423 3.57 1.402 11.772 1.232-4.037 1.062-15.894 2.72l-14.238 1.53q.85-1.573 4.335-5.057 3.315-3.315 6.163-5.525 1.445.255 6.46.042M112.539 173.738q1.955 5.1 5.652 9.478 4.208 4.93 9.308 7.14-1.36 2.592-4.59 3.144-3.188.553-7.225-.977-9.393-3.655-16.278-14.96 6.588-1.402 13.133-3.825"/><path fill="#fff" d="M55.504 163.156q1.53.892 1.913.68l.255-.298q2.847 2.465 9.945 5.483 7.055 2.975 10.03 2.975 5.992 0 14.492-1.36 8.84-1.445 17.467-3.868l-.042.595q5.057.17 11.9-1.7-7.65 4.803-18.87 7.735-11.177 2.89-21.972 2.89-6.63 0-14.79-4.42-7.863-4.25-10.328-8.712"/><path fill="#e7d5e8" d="m233.237 326.651 5.823-9.69q3.145-5.312 3.782-5.652 3.103.17 13.728 4.548 10.795 4.377 20.06 9.35l-5.44 10.157q-4.378 7.692-6.673 10.795-3.782-1.913-16.15-9.818l-15.13-9.69M131.409 247.56q-3.443-7.735-3.273-14.11 4.845 13.26 13.132 17.807 8.373-3.187 18.148-12.155 9.435-8.712 12.622-15.724 2.635 8.5 6.545 18.827-5.015 8.712-15.852 16.872-9.138 6.843-14.493 8.16-.722-.297-4.25-2.592l-4.632-3.273q-5.397-8.16-7.947-13.812"/><path fill="#a688bd" d="M96.771 65.79q-4.207 1.784-13.472 7.48-9.69 5.95-13.43 9.222-.977 1.997-2.04 5.865-1.062 3.825-1.275 6.162l.85 2.422-5.482 1.913-1.275-2.253q-.595-1.275-.51-2.252.085-1.063 2.635-8.032l3.145-8.203q1.572-2.125 10.412-8.117 6.63-4.463 13.685-8.798l4.207 4.505 2.55.085M185.34 259.077q-.467 9.733-3.612 20.315-3.017 9.987-6.8 15.64-10.115-5.228-18.657-13.26-8.84-8.287-16.915-20.4 2.125 2.04 4.887 3.783 2.295 1.445 3.995 2.082 5.355-1.317 14.493-8.16 10.837-8.16 15.852-16.872 3.23 8.712 6.758 16.872"/><path fill="#a688bd" d="M82.067 79.73q8.032-7.566 12.027-7.566 7.607 0 18.572 9.945 4.208 3.825 6.97 7.438 2.72 3.57 2.295 4.632-5.1 12.962-21.717 25.542-6.163 4.675-11.73 7.608-5.227 2.72-6.46 2.125-1.232-.595-3.4-3.825-2.38-3.613-4.292-8.16-5.143-12.24-2.933-21.718 1.785-7.734 10.668-16.022"/><path fill="#e7d5e8" d="M138.464 43.01q7.777 14.747 6.672 18.572-.255.977-1.02 1.53-1.02.722-3.103.977l-23.97 1.275q-22.142.935-22.822.34L61.54 30.684q-.595-4.462 4.548-15.682 5.397-11.9 10.242-14.28 8.458 1.02 29.495 12.283 17.085 9.137 21.845 12.835 3.612 3.527 10.795 17.17"/><path fill="#e95477" d="M142.033 127.669q2.253 6.29 1.445 14.577-.765 8.117-4.165 15.087-2.38 4.76-13.472 7.778-9.137 2.465-16.277 2.252.255-4.887 1.572-9.222 1.275-4.208 4.038-9.393 2.89-5.482 9.647-11.177 7.82-6.587 17.212-9.902"/><path fill="#e7d5e8" d="M16.277 218.958q1.7 2.975 2.593 8.882.85 6.035 0 9.392l-6.843 7.863-9.647 10.922q-3.442-12.24.382-23.205 3.995-11.347 13.515-13.854"/><path fill="#a688bd" d="M167.916 207.738q-.383-2.083.51-2.38.977-.34 3.612 1.275 15.597 9.52 27.327 18.445 23.163 17.68 36.975 36.082l-1.53 1.742q-1.275 1.36-1.573 1.36-6.757-2.975-17.68-6.205-11.814-3.527-13.09-2.422-.934.807-2.507 12.537l-1.572 12.792q-.255 1.233-.68 1.913-.553.935-1.02.085-7.863-13.43-17.127-37.74-9.053-23.842-11.645-37.484"/><path fill="#e7d5e8" d="M252.065 244.117q-.723-1.997.212-11.645.935-9.562 1.7-9.902.638-.637 3.315.34 2.635.978 5.738 2.975 7.905 5.058 9.137 10.072 1.53 5.993-2.507 16.788-3.57 9.52-8.67 16.362-1.105-1.445-4.93-12.835l-3.995-12.155"/><path fill="#a688bd" d="m201.49 164.983-3.825-21.675q11.985 4.76 21.76 11.858 14.152 10.157 16.15 20.655-4.08-2.465-16.66-6.12l-17.425-4.718"/><path fill="#e95477" d="M46.877 130.176q5.865 6.035 9.095 19.337 2.89 11.73 1.445 14.323-4.25-1.488-7.013-4.973-2.04-2.592-4.462-8.202-2.592-5.95-2.337-11.602.297-5.61 3.272-8.883"/><path fill="#3e4e57" d="M76.627 6.757q1.445 0 6.035 6.843 4.547 6.842 3.867 8.032-.552.893-9.392 2.338-8.883 1.487-9.435.765-.595-.85 3.57-9.393 4.122-8.585 5.355-8.585M116.406 122.611q1.53-1.19 3.655-1.912 2.508-.85 3.528 0 1.105.977.17 3.017-.85 1.87-2.635 3.188-1.998 1.487-4.42 1.997l-2.89-.127q-1.105-.935-.213-2.805.808-1.785 2.805-3.358M57.63 121.846q1.104-.637 2.634.723 1.275 1.147 2.253 3.102.935 1.913.977 3.868.043 2.167-1.19 2.72-1.275.595-2.847-.553-1.53-1.105-2.295-3.102-.808-2.083-.765-3.995.085-2.083 1.232-2.763"/><path fill="#28343b" d="m173.526 111.306 1.147.85q-.68.723-.17 2.593.51 1.827 1.488 2.592l22.312 17.638q13.77 11.432 20.867 19.89-9.605-6.843-21.505-11.56.425 3.697 1.828 11.05l-10.625-3.57q-7.012-2.296-11.177-2.593-1.36-6.078-4.335-10.327-3.103-4.42-8.415-7.693 3.697-6.46 6.205-13.302-.893-2.21-2.933-5.483l5.313-.085M94.094 72.164q-3.995 0-12.027 7.565-8.883 8.288-10.668 16.022l-3.995 1.19-.85-2.422q.213-2.337 1.275-6.162 1.063-3.868 2.04-5.865 3.74-3.273 13.43-9.223 9.265-5.695 13.472-7.48h3.018q11.645 6.46 20.697 13.005 13.983 10.158 14.025 15.555-7.735-1.275-12.537-.978-.808-4.377-10.285-12.452-10.328-8.755-17.595-8.755"/><path fill="#9075a4" d="M144.966 62.05q7.31 2.89 19.592 16.192 12.325 13.302 18.53 24.99l-8.415 8.924-1.147-.85-5.313.085q-2.422-3.74-5.227-6.715-3.06-3.23-5.355-4.207-3.103-1.318-9.393-3.06-7.182-1.955-13.727-3.06-.042-5.397-14.025-15.555-9.052-6.545-20.697-13.005l23.332-1.19 16.745-1.317q3.017-.383 5.1-1.233M174.248 176.076q2.083-.765 3.4-3.315-1.53 5.567-4.335 9.435-2.932 3.994-6.8 5.44-3.867 1.444-7.82-.298-3.527-1.53-6.8-5.482 5.908.765 10.243-.765 4.122-1.488 7.437-5.313 2.55 1.105 4.675.298M156.483 142.416q-2.72 12.41-12.92 21.845-.977-4.293-.977-7.905 7.82-6.46 13.897-13.94"/><path fill="#d8a500" d="M195.115 80.367q-5.44-4.973-10.624-8.458.807-7.947.85-11.772 14.407 18.53 19.634 30.43-4.505-5.313-9.86-10.2"/><path fill="#c8b8c9" d="M176.458 174.29q-2.592 3.57-6.97 1.53 7.31-6.417 9.733-13.854-.043 8.627-2.763 12.325"/><path fill="#9075a4" d="M265.24 203.998q-9.903-30.387-10.073-33.235 18.53 34.552 21.123 64.344.17 2.38-1.148 5.1-1.275 2.593-3.06 3.783.808-5.143.085-8.033-.68-2.847-3.995-6.077 5.568 2.465-2.932-25.882M93.626 260.267q-8.67-5.185-17.51-6.502-1.147-7.82-2.89-12.155 8.16 7.735 12.156 12.75 2.082 2.635 4.76.552 2.252-1.742 7.564-5.1 2.635 3.443 5.44 9.563 2.72 5.992 5.143 13.472-6.333-7.522-14.663-12.58"/><path fill="#9075a4" d="M77.817 243.225q9.137 6.927 12.027 5.61l19.125-10.965q11.22-5.992 19.55-8.33-.298 1.573-.34 2.847-4.165 1.488-20.188 11.178-14.662 8.882-17.85 11.347-2.677 2.083-4.76-.552-1.87-2.338-8.754-9.01-7.565-7.268-11.348-10.03 2.508.255 12.538 7.905"/><path fill="#9075a4" d="m73.227 241.61 1.445 4.335q-4.675 1.487-10.71 3.57-7.523 2.592-11.348 4.122l-.17-.042q1.743-4.378 5.78-10.243 3.315-4.802 5.908-7.48.297-.34 1.19-.297.807.085 1.147.297 2.423 1.658 6.758 5.738"/><path fill="#c8b8c9" d="M78.922 296.18q3.57 3.102 9.69 6.8 6.544 3.952 12.834 6.714-1.275.68-5.312 2.083-13.175-8.585-24.522-6.205l7.31-9.393"/><path fill="#9075a4" d="M170.296 159.67q-1.233-1.954-1.488-3.272 12.155-1.232 31.832 4.548l.425 2.295q-4.887-.978-14.322-1.275-4.25-.17-14.365-.213-.765 0-2.082-2.082"/><path fill="#28343b" d="M168.426 83.087q-12.623-14.96-20.953-19.805 7.99 3.145 20.57 9.35 14.705 7.225 17.51 10.115l.892 7.225q.765 6.332.638 8.712l-3.995 4.547q-3.825-7.267-14.662-20.144M178.966 165.833l.255-2.082-.043-2.168 10.88.595 11.22.935.212 1.87 6.078 1.573-1.148 1.402q-8.117.34-15.767-.382l-11.687-1.743"/><path fill="#9075a4" d="M174.928 116.704q-.892-.68-.892-1.148 0-.425.807-.085 8.075 3.74 17.935 11.348 13.175 10.2 21.122 21.717-6.587-6.673-20.612-17.637l-18.36-14.195M201.193 262.817q.382-6.375 1.275-7.182 1.062-.893 16.66 3.357 15.554 4.25 15.724 4.038l8.968 8.585q-7.353-2.933-15.895-2.295-8.542.68-15.682 4.717-4.548-5.992-11.05-11.22M142.586 156.356q0 3.485 1.02 7.82-5.992 5.567-13.6 9.095-7.65 3.485-15.682 4.377l-1.785-3.91q16.49-6.205 30.047-17.382M42.245 123.164q.255-3.528 3.017-9.988 3.06-7.267 5.95-9.35-2.508 4.59-3.74 12.58-1.19 7.565-.638 13.813-1.572 1.742-2.38 4.717-.85 3.103-.68 6.97-2.38-7.055-1.53-18.742M159.118 193.118q-7.097 8.925-19.677 11.262.977-3.527.467-6.715-.467-3.187-2.337-5.567 5.397.042 10.37-1.148 5.907-1.445 9.18-4.292l1.36.68q.085 3.612.637 5.78M98.641 185.765q-5.652.213-9.902-1.402 6.587 0 13.472-2.677l2.975 3.485-6.545.594"/><path fill="#9075a4" d="M88.272 184.49q3.697 1.148 10.964.978-4.717 1.232-14.194 2.635-10.88 1.572-16.15 1.36l10.2-2.635 9.18-2.337M112.539 173.738l1.062 2.423q-6.12 2.592-14.152 1.53l-.043-.128q6.588-1.402 13.133-3.825M123.716 188.23q1.828 1.233 3.783 2.125-1.828 3.4-6.588 3.273-4.887-.128-10.327-3.868 4.207 1.573 8.16 1.148 3.91-.468 4.972-2.678"/><path fill="#c8b8c9" d="m238.932 330.306-5.695-3.655 5.823-9.69q3.145-5.312 3.782-5.652 3.103.17 13.728 4.548 10.795 4.377 20.06 9.35l-1.445 2.804q-8.798-5.61-19.21-5.482-11.475.085-17.043 7.777"/><path fill="#9075a4" d="M185.34 259.077q-.467 9.733-3.612 20.315-3.017 9.987-6.8 15.64-7.437-3.868-16.702-11.773-9.095-7.777-15.598-15.64 2.635 2.466 5.568 4.548 3.017 2.168 4.207 2.338 9.478-.808 17.468-7.14 7.99-6.29 12.282-16.32l3.188 8.032M73.354 115.046q6.545 9.69 23.077.893 10.753-5.738 24.31-18.403-7.862 13.09-22.865 23.885-5.567 3.995-10.37 6.375-4.42 2.168-5.482 1.658-1.402-.68-3.91-4.633-2.805-4.42-4.76-9.775"/><path fill="#c8b8c9" d="M145.136 61.582q-.213.765-1.615 1.105l-3.655.595-23.375 1.657-22.27.765Q65.237 33.787 61.624 30.727l16.618-2.55 15.852-2.21q11.177 5.015 30.387 18.828 17.68 12.75 20.655 16.787"/><path fill="#ca4768" d="M143.138 138.081q-.255 6.545-1.02 10.922-.85 4.675-2.422 7.905-2.04 4.123-11.092 7.395-9.35 3.358-18.488 2.805 16.575-4.165 24.395-12.58 4.972-5.397 8.627-16.447"/><path fill="#c8b8c9" d="M.85 245.987q11.05-3.952 18.402-13.557.085 3.102-.382 4.802l-6.843 7.863-9.647 10.922q-1.403-4.972-1.53-10.03M266.812 248.24q3.995-6.248 5.015-13.345l.34 1.062q1.53 5.993-2.507 16.788-3.57 9.52-8.67 16.362-.935-1.275-4.208-10.71 6.035-4.037 10.03-10.157"/><path fill="#9075a4" d="m201.49 164.983-1.02-5.652q18.148 2.677 34.722 14.152l.383 2.338q-4.08-2.465-16.66-6.12l-17.425-4.718"/><path fill="#ca4768" d="M43.817 138.931q1.615 7.437 5.482 14.365 3.698 6.757 8.118 10.54-6.8-2.423-11.475-13.175-1.105-2.55-1.445-3.74-1.02-3.655-.68-7.99"/><path fill="#9075a4" d="M19.72 235.362q7.097-4.547 27.242-24.607 17.68-17.68 23.757-19.422-3.57 2.252-19.252 18.742l-23.205 24.947q-2.21 2.38-4.802 3.4-2.338.935-5.44.935-.128-1.147 1.7-3.995M162.178 134.809q-12.282 20.144-36.167 32.724-21.76 11.475-43.944 12.325-3.4-.127-6.418-1.02-1.572-.425-5.482-1.955 13.812 1.573 25.5-.765 12.07-2.422 23.672-9.307 7.99-1.445 12.877-3.953 5.993-3.06 8.67-8.287 5.397-4.038 10.497-8.798 4.845-4.547 10.795-10.964M202.468 255.635q-.935.807-2.635 13.132l-1.7 13.345q-.213.85-.68 1.105-.468.297-.765-.255-.468-.638.722-13.897 1.233-13.983 3.23-15.683 1.148-.977 13.26 1.743 11.39 2.592 15.853 4.42 3.484 1.402-8.118-11.645-10.37-11.603-20.527-21.462 21.93 17 35.232 34.722l-1.53 1.742q-1.275 1.36-1.573 1.36-6.757-2.975-17.68-6.205-11.814-3.527-13.09-2.422"/><path fill="#f4b2ba" d="M116.661 155.846q-1.02-.553-1.19-1.913-.17-1.317.553-2.677.637-1.148 1.7-1.743l2.55-.085q.977.595 1.19 1.913.17 1.36-.553 2.677-.722 1.318-1.87 1.87l-2.38-.042M50.32 147.983q-.213-1.317.127-2.422.34-1.063 1.062-1.275.893-.213 1.573.807.51.808.722 1.998.213 1.36-.127 2.422-.34 1.063-1.063 1.233-.807.212-1.445-.638-.595-.807-.85-2.125"/><path fill="#0f141b" d="M172.378 117.171q-10.625 29.027-37.824 46.792-24.82 16.193-51.552 16.193-11.773-.383-22.228-8.118-10.115-7.522-13.6-17.68l1.488 1.615 1.742 2.083q5.27 9.095 14.408 14.875 9.095 5.78 18.19 5.78 12.027 0 25.074-4.208 13.218-4.292 25.203-12.197 26.902-17.765 37.102-45.39-1.785-4.335-5.78-9.307-4.165-5.185-7.225-6.46-5.44-2.338-15.81-4.718-12.367-2.847-19.252-2.337-.298.042-.383-.68-.042-.722.255-.765 7.098-.552 19.762 2.125 10.965 2.295 16.193 4.547 3.357 1.445 7.99 7.183 4.377 5.482 6.247 10.115v.552M48.407 113.134q-1.275 5.482-1.19 12.537.042 2.975-.425 2.89-.467-.085-.552-2.805-.255-7.225 1.36-12.707.467-1.53.807-1.573.34-.042 0 1.658"/><path fill="#0f141b" d="M94.094 71.442q7.905 0 19.465 9.817 4.632 3.91 7.437 7.608 2.89 3.74 2.295 5.27-5.015 12.707-20.527 25.074-6.163 4.93-11.942 8.033-5.61 3.017-8.33 3.017-1.913 0-4.505-3.442-2.508-3.358-4.675-8.585-5.185-12.623-3.443-21.973 1.488-8.117 11.178-16.872 8.712-7.947 13.047-7.947m-11.942 9.137q-8.798 8.415-10.2 15.98-1.743 9.307 3.187 21.292 1.87 4.633 4.08 7.82 2.125 3.103 3.273 3.145 1.827.043 6.97-2.805 5.567-3.102 11.432-7.692 15.597-12.24 20.357-24.395.383-1.063-2.252-4.462-2.72-3.443-6.843-7.098-10.752-9.477-18.062-9.477-3.91 0-11.942 7.692M77.052 70.337q-8.628 5.737-10.285 7.82-1.318 1.827-3.57 8.33-2.168 6.12-2.338 7.947-.085.85.553 1.997l1.147 1.955q.128.255-.51.51l-.807.128q-2.168-2.933-1.955-4.888.255-2.592 2.507-8.924 2.168-6.205 3.485-8.203.893-1.36 10.2-7.437l14.025-8.84q.255-.17.638.467.382.638.127.765-7.055 4.25-13.217 8.373M170.21 83.384q11.306 13.26 13.728 18.955.085.297-.68.807-.722.51-.807.255-2.635-6.332-15.3-20.994-14.28-16.49-22.483-19.72l1.36-.128q1.785.043 2.55.51 8.925 5.483 21.633 20.315"/><path fill="#0f141b" d="M144.328 61.71q.765-1.446-6.034-16.15-7.055-15.215-11.135-19.21-6.035-4.633-23.46-13.643Q84.022 2.465 76.457 1.445q-4.59 2.465-9.733 13.812-4.802 10.583-4.462 15.045 1.87 1.658 16.957 18.02l15.385 16.702 26.562-.807q22.525-1.275 23.162-2.508m26.69-2.55q-4.377-5.355-17.977-15.64-11.475-8.712-21.632-15.172 4.377 6.375 9.732 18.742 5.525 12.75 4.675 15.258-.723 2.125-26.18 3.4-25.032 1.232-25.967.467l-15.64-16.787-16.957-18.19-.255-.467q-.638-4.76 4.505-16.108Q70.804 2.635 75.989.042L76.414 0q17.212 2.04 51.722 23.63 14.832 9.265 27.03 18.785 12.622 9.86 18.275 16.744l-1.063.17-1.36-.17"/><path fill="#0f141b" d="M165.408 51.722q5.78 1.785 8.67 4.632.808.765.808 2.848 0 .34-.723.34-.765 0-.765-.34l-.085-1.488-.212-.722q-1.955-2.168-5.355-2.89-.34-.043-1.488-1.275-1.147-1.19-.85-1.105"/><path fill="#0f141b" d="M168.17 58.692q.468-.34 9.053.17l8.627.637q.298 0 .468.255 6.545 8.33 12.92 18.7 5.227 8.458 6.927 12.368.17.34-1.062-.298-1.233-.637-1.53-1.232-2.72-5.313-7.055-12.325-5.568-8.925-11.135-16.065l-7.99-.553-8.117-.425h-.043l-.042 4.25-1.445-.935q0-3.57.127-4.165.085-.255.298-.382"/><path fill="#0f141b" d="M143.436 54.144q34.85 9.563 53.762 26.605 22.397 20.23 32.895 58.734l-.935-.127-1.063-.637q-9.222-33.958-29.155-53.635-19.932-19.635-54.824-29.197-.298-.043-.638-.935-.34-.85-.042-.808M213.135 168.383l1.7.34q-2.975 3.06-3.867 3.485-2.38 1.105-12.24.808-11.05-.383-20.315-2.508-.297-.085-.255-1.02.043-.935.34-.892 8.457 1.997 17.467 2.635 9.478.637 14.45-.595l2.72-2.253M227.543 150.576q.17-.213.51.51.382.722.255.935l-4.59 6.162-1.148-.892 4.973-6.715M174.036 112.709q-2.04-.978-5.823-.468-.297.043-.297-.68 0-.722.297-.765 5.398-.297 6.758.808.212.212-.298.722l-.637.383M138.889 158.863q-4.505 5.44-16.788 8.203-4.717 1.062-8.627 1.19-3.825.127-4.59-.68-.298-.298-.17-2.465.17-2.635.977-5.78 2.465-9.223 9.35-17.255 6.63-7.735 15.173-12.07 6.502-3.357 8.032-2.762 1.147.425 1.87 4.037.765 3.698.595 8.5-.34 12.452-5.822 19.082m2.677-30.26q-.298-.212-2.89.893-3.145 1.36-6.545 3.57-10.115 6.46-16.32 16.022-2.592 3.953-4.42 10.498-1.7 6.035-1.02 7.055.34.425 4.165.042 4.25-.425 8.755-1.53 12.75-3.145 15.428-8.585 4.377-9.01 4.25-19.124-.043-3.443-.596-6.29-.467-2.338-.807-2.55M68.637 158.31q5.525 3.23 7.607 3.23 8.373-1.062 17.977-4.76 9.563-3.697 17.553-8.967 2.55-1.7 1.827-.722-.765.977-3.4 2.677-8.075 5.27-16.66 8.585-8.67 3.315-17.212 4.378-2.507 0-7.65-2.933-5.312-3.06-9.35-6.927-1.36-1.36-1.615-2.168-.255-.85 1.148.468 3.995 3.74 9.775 7.14"/><path fill="#0f141b" d="M76.074 166.173q-.382-2.422-.467-4.037 0-.383.595-.383.552-.042.552.383l.17 3.867q.128 2.125-.255 1.87-.382-.212-.595-1.7"/><path fill="#0f141b" d="M56.524 163.24q2.635 4.038 9.818 7.99 7.862 4.336 14.28 4.336 9.562 0 19.677-2.338 9.987-2.38 17.595-6.332.425-.255 2.21-.383l1.402.043q-7.735 4.632-18.997 7.522-11.347 2.933-21.887 2.933-6.97 0-15.13-4.633-7.693-4.335-10.37-9.01-.17-.255.552-.297l.85.17M145.22 121.931q2.466-2.847 5.653-8.032 3.188-5.27 4.973-9.563.722-1.785 1.02-1.657.297.127-.298 1.87-1.657 4.887-4.972 10.242-3.018 4.845-5.653 7.48-.977.978-1.36.935-.34-.085.638-1.275M163.836 69.912q19.21 9.18 22.227 12.325 1.062 1.105 1.912 8.032.893 7.225-.297 8.882-2.04 2.763-11.985 13.005-.85.893-.765 2.295.085 1.36.978 1.998 16.404 12.707 23.97 18.912 17.594 14.492 20.4 19.55l-1.19-.043q-1.318-.34-1.573-.68-4.675-5.95-20.358-18.912l-21.802-17.467q-1.615-1.275-1.827-3.358-.17-1.997 1.062-3.357 8.203-9.01 11.39-13.048.807-2.507.127-8.584-.594-5.61-1.232-6.418-3.06-2.847-21.42-11.56l-18.7-8.5q-.297-.127-.042-.935.212-.85.467-.722l18.658 8.585M206.08 167.236l.765-1.02.808.085q.637.34.467.595l-1.19 1.53q-.935 1.02-10.115.595-10.115-.425-18.147-2.508-.297-.042-.17-.765.128-.68.425-.637 7.267 1.615 14.705 2.252 8.032.68 12.452-.127"/><path fill="#0f141b" d="M141.651 157.333q.042-.34.892-.637l.893-.043q-.255 5.78 3.102 14.365 3.868 9.903 9.605 14.195 4.888 3.612 10.115 1.742 5.78-2.082 9.095-10.114 2.72-6.588 3.06-14.833.043-.68.978-.552.977.127.977.467-.382 8.628-3.4 15.555-3.74 8.5-10.242 10.837-3.23 1.19-6.205.553-2.55-.553-5.228-2.508-6.077-4.504-10.242-14.407-3.655-8.712-3.4-14.62M164.686 130.856q-.128-.085.212-.722l.468-.553q4.972 3.103 8.457 7.99 3.23 4.547 4.845 10.242.085.213-.935.17-.977-.042-1.062-.255-3.443-11.517-11.985-16.872"/><path fill="#0f141b" d="M131.111 190.738q5.653 1.275 12.877.255 8.288-1.19 12.24-4.888.213-.17.723.34.467.553.255.723-4.505 4.207-12.665 5.567-7.31 1.19-13.812-.255-5.61-1.275-11.178-6.63-5.737-5.524-7.48-11.644-.042-.298.51-.723.595-.425.638-.127 1.827 6.417 7.65 11.645 5.185 4.632 10.242 5.737"/><path fill="#0f141b" d="M111.051 191.163q-7.352-4.718-11.985-13.09-.17-.255.638-.467l.892.042q2.933 6.205 9.818 11.007 6.672 4.633 11.56 4.42 3.485-.212 4.76-3.102.127-.298.807 0 .638.297.51.595-.807 1.827-2.507 2.975-1.743 1.19-3.868 1.275-4.547.255-10.625-3.655M130.261 165.663q-1.487 1.275-2.89 5.1-1.19 3.23-1.827 6.97l-.468.893q-.425.212-.892-.723l-2.848-2.422q-2.762-1.998-4.547-2.763-.255-.127.212-.51.425-.382.723-.297.935.425 3.4 2.295l3.527 2.89 1.573-5.738q1.105-3.527 2.04-4.632l1.19-.723q1.062-.552.807-.34"/><path fill="#0f141b" d="M130.176 184.236q4.08 4.164 8.5 5.95l1.147.68q.043.254-2.082-.468-4.165-1.445-8.372-5.61-3.613-3.57-4.803-6.417-.127-.298.34-.553.425-.297.553 0 1.232 2.89 4.717 6.418M167.873 135.659q-3.357-2.083-5.737-.34l.51-1.063.722-1.062q5.058-1.148 11.263 7.352.722.977 1.19 4.25-4.208-6.757-7.948-9.137M157.163 158.268q-2.295-9.817.043-17.467l1.317-1.275 1.36-1.317q-3.187 6.46-1.445 17.34 1.785 11.177 7.225 16.532 8.628 8.542 12.325-2.848.128 3.57-.212 4.208-1.955 3.697-5.44 3.74-3.613 0-7.693-4.038-5.185-5.142-7.48-14.875M193.415 82.747q1.275 4.59 1.913 10.454.595 5.738 0 7.225-.808 2.04-5.228 6.375-4.335 4.293-9.732 8.373-1.445 1.105-1.615.68-.127-.383.893-1.403l9.604-9.137q3.995-3.995 4.718-5.525.595-1.658 0-7.31-.51-4.76-1.53-9.69-.383-1.827 0-1.912.425-.085.977 1.87M146.07 148.068q6.886-6.885 14.366-16.532 3.485-4.462 3.527-3.91.043.595-2.762 4.335-8.16 10.965-14.365 16.66-1.615 1.445-1.913 1.147-.255-.297 1.148-1.7M199.28 102.424q7.353 5.652 13.515 13.77 5.27 6.885 10.2 16.32.935 1.742.468 1.87-.468.127-1.318-1.318-4.632-8.245-10.115-15.47-7.48-9.817-14.535-15.002-1.997-1.445-1.105-1.573.893-.127 2.89 1.403M183.003 119.084q8.882 5.355 18.7 14.705 9.18 8.797 16.15 18.147-4.76-3.868-5.483-4.76-7.14-8.372-14.28-15.002-8.882-8.245-16.787-12.75-2.337-1.36-1.742-1.743.552-.34 3.442 1.403M92.139 20.442q-2.762-6.12-7.607-11.942-4.888-5.865-8.415-7.225-.255-.085.297-.383.553-.297.765-.17 3.528 1.785 7.863 7.013 4.335 5.185 7.14 10.88 1.062 2.167 1.02 3.06-.086.935-1.063-1.233M140.503 57.672q-8.287-7.14-21.547-16.32-15.597-10.837-25.075-15.087l-11.39 1.827-16.022 2.593-2.805-.128q.043-.467 2.338-.807l15.81-2.55 12.282-1.828q2.89.213 19.847 11.603 17 11.432 25.755 19.04 1.785 1.53 2.125 2.337.382.807-1.318-.68M70.464 82.96q-1.19 1.87-2.21 5.439-1.105 3.698-.977 6.035l.722 2.295q.085.297-.595.51l-.765-.043-.765-2.465q-.51-1.53 1.02-7.054 1.445-5.313 2.295-5.993 3.443-3.017 12.325-8.33 8.075-4.845 13.09-7.182l2.55-.298 1.615.085q-2.593.638-13.302 7.013-10.965 6.502-15.003 9.987"/><path fill="#0f141b" d="m100.384 65.322 6.077 3.527q6.588 3.91 12.028 7.693 16.957 11.73 16.915 17.552 0 .297-.808.297-.85.043-.85-.255.043-4.25-12.197-13.472-9.945-7.437-22.568-14.492-.255-.17.468-.595.68-.425.935-.255M140.546 94.816q.085-3.102-10.455-15.724-1.317-1.573-.637-1.36.68.17 2.252 1.827 4.208 4.42 7.183 9.223 2.762 4.504 2.677 6.374l-.51.085q-.553-.17-.51-.425M105.866 186.105l-9.095.255q-5.567-.212-8.542-1.104-1.572-.468-1.615-.893-.042-.382 1.105-1.36l4.378-3.655q.212-.255 1.572-.425l1.147.043-5.95 4.972q2.848.808 8.925.808l6.8-.383q.298-.042.935.808.638.892.34.934"/><path fill="#0f141b" d="m86.104 189.208-15.81 1.232q-1.7-.042-1.912-.425-.17-.382.722-1.742 1.7-2.423 3.825-4.802 2.593-2.848 4.59-4.208.255-.17 1.828 0l1.275.255q-2.72 1.53-5.95 4.633-2.72 2.634-4.25 4.802 8.372-.255 25.754-3.57l2.763.17q2.167.297 1.87.382-5.143 1.913-14.705 3.273M72.504 177.946q-21.292 4.76-43.477 20.697-9.945 7.14-15.937 14.025-6.248 7.225-6.418 12.282l-.68.935q-.68.638-.722.383-.723-6.163 5.652-14.11 5.823-7.268 16.448-14.79 10.03-7.14 21.76-12.665 11.857-5.61 21.717-7.82.297-.085 1.105.468.85.51.552.595"/><path fill="#0f141b" d="M74.502 189.845q-7.183 4.42-24.353 22.483l-23.247 25.117q-1.87 1.997-5.1 2.635l-4.76-.298q-.297-.17 0-.892.255-.765.51-.638 1.445.723 4.123-.042 2.507-.723 3.74-1.998 38.037-41.182 47.472-47.047l1.062.17q.808.34.553.51M49.724 188.315q-7.31 3.485-16.702 12.113-8.627 7.905-13.005 14.322-1.062 1.615-1.445 1.36-.34-.297.68-1.827 4.378-6.673 12.58-14.323 9.138-8.457 16.872-12.027 1.785-.85 2.295-.68.553.17-1.275 1.062"/><path fill="#0f141b" d="M14.28 218.83q1.827-.722 2.295-.552 1.275.51 2.847 6.545 1.828 6.97.468 12.282-.255 1.02-4.718 6.162l-11.007 11.9q-1.573 1.615-1.998 1.573-.425-.043-.892-2.04-2.592-11.263.042-20.698 2.21-7.904 8.585-12.622 2.168-1.657 4.378-2.55m-3.698 3.953q-5.355 4.462-7.48 11.687-1.36 4.675-1.445 9.945-.085 5.227 1.105 10.157 2.933-2.762 8.925-9.605 6.333-7.225 6.545-8.245.935-4.292-.34-10.752-1.147-5.737-1.955-6.162-.255-.128-1.742.595-1.785.892-3.613 2.38M136.721 191.8q1.573.043 1.743.298 1.87 2.635 2.252 6.12.34 3.527-.893 7.352-.467 1.573-1.572 3.655l-2.252 4.123q-4.93 8.67-6.248 13.855-2.337 8.882 1.275 17.382 5.908 13.982 16.915 27.072 12.495 14.875 26.732 22.397 3.613-5.695 6.46-15.342 3.06-10.54 3.358-20.23 0-.34 1.02 1.063 1.02 1.402.977 1.7-.425 9.01-3.697 18.7-2.72 8.032-6.545 14.322-.723 1.147-1.19 1.275-.468.127-1.7-.553-14.365-7.82-27.158-22.822-11.56-13.515-17.382-27.285-3.74-8.84-.892-18.19 1.317-4.377 6.8-14.067 3.017-5.312 3.74-7.522 1.274-3.953.467-7.565-.85-3.698-3.527-5.568l1.317-.17M179.093 205.4l2.635 6.97q.128.34-1.105-.467l-1.36-1.148q-2.55-7.182-3.995-7.692-9.52-.893-13.132-3.868-4.208-3.357-4.208-11.687 0-.298.978-.213.977.128.935.425-.553 7.225 3.272 10.328 3.443 2.762 12.75 3.697 1.573.128 3.23 3.655"/><path fill="#0f141b" d="M74.714 247.092q-21.717 7.268-22.525 7.14-3.57-.765 1.53-11.305 5.015-10.497 10.285-13.77 7.778-4.93 30.047-9.137 20.485-3.825 39.1-4.632.298-.043.34.68.043.722-.255.765-17.977.765-38.717 4.93-21.93 4.377-29.792 9.307-5.355 3.91-9.733 12.962-4.122 8.458-2.465 8.84 4.08-1.615 11.348-4.122l10.242-3.358q.298-.085.595.765.298.85 0 .935"/><path fill="#0f141b" d="M109.224 244.287q-13.728 8.288-18.657 12.07-1.658 1.275-2.975.85-1.148-.382-2.763-2.422-2.975-3.74-9.137-9.775-6.418-6.333-9.648-8.543-.552-.34-.807-.34-.213 0-.595.255-2.168 2.21-4.973 6.035-3.357 4.548-5.27 8.415-1.105 2.253-1.317 1.615-.255-.68.807-2.89 1.998-4.25 5.1-8.542 2.423-3.4 4.633-5.653.722-.722 1.445-.765.765-.042 1.827.68 3.273 2.295 9.818 8.67 6.247 6.163 9.265 9.945 1.275 1.658 1.997 1.743.638.042 2.295-1.105 6.842-4.718 19.635-12.58 15.045-9.265 18.275-10.242.255-.085.127 1.147-.17 1.19-.34 1.275-4.25 1.445-18.742 10.157M167.958 204.72q1.318-.552 4.42 1.275 44.072 25.755 64.514 54.74 1.275 1.742.808 2.21l-3.06-.213q-9.095-2.507-19.295-4.505-10.837-2.125-12.155-1.445-.977.935-2.635 14.323-1.615 12.75-3.23 12.92-1.36.127-7.607-12.835-6.12-12.708-11.305-26.223-8.287-21.632-11.22-37.102-.467-2.635.765-3.145m.68 2.89q1.063 5.78 3.91 15.045 2.933 9.562 6.715 19.465 5.44 14.28 11.602 27.965 5.738 12.707 6.418 12.537.595-.17 1.997-13.132 1.403-13.303 2.72-14.408 1.19-1.02 17.298 2.635 15.98 3.655 16.15 3.443-21.123-27.923-63.792-53.932-2.168-1.275-2.72-1.233-.595.043-.298 1.615"/><path fill="#0f141b" d="M74.204 242.46q4.633 12.495 3.825 32.98-.85 20.314-6.205 28.857l-1.912 2.89q-.638-.808-.51-2.04.127-1.233.977-2.38 5.355-7.225 6.078-28.05.765-22.1-5.44-34.935l1.487 1.02q1.573 1.318 1.7 1.658"/><path fill="#0f141b" d="M79.687 316.197q13.854-3.953 19.55-6.205-5.696-2.465-11.178-5.993-5.185-3.315-9.01-6.757l-18.36 23.757q5.483-.977 18.998-4.802m17.807-65.407q-.085-.17.595-.68.68-.553.765-.425 7.097 9.69 12.155 27.03 5.78 19.762 4.08 35.657-.17 1.402-.468 1.657l-1.615.043q-4.76-.553-10.582-2.805-5.653 2.592-21.122 6.587-13.303 3.4-20.655 4.633l-2.083-.17q-.297-.425.723-1.87 12.452-17.128 17.85-23.545 1.062-1.19 1.572-1.233.595-.085 1.955 1.02 6.333 5.015 15.682 9.775 10.455 5.313 17.255 6.248 1.148-14.705-4.547-34.807-5.185-18.275-11.56-27.115M283.727 330.221q-7.947-5.27-22.482-11.432-13.685-5.865-18.105-6.332-.425.425-5.228 8.117l-5.992 9.392q-1.105 1.615-2.55 1.275-1.445-.34-1.53-1.997-1.742-25.33-7.565-39.312-5.737-13.855-19.21-25.627-.212-.17.043-1.36.255-1.148.467-.978 13.6 11.858 20.06 27.115 6.46 15.342 8.16 39.78.128 1.444.935.254l6.12-9.987q4.845-7.99 5.652-8.457 1.403-.808 16.83 5.61 16.533 6.885 25.712 13.047-2.592-12.197-23.374-37.187-18.19-21.93-29.707-30.685l1.402.298q1.53.382 1.742.552 14.578 12.368 29.41 30.175 18.657 22.397 21.887 36.252.553 2.422.085 2.677-.467.298-2.762-1.19"/><path fill="#0f141b" d="M277.437 326.056q-2.677 6.035-7.225 13.388-4.505 7.267-5.525 7.267-1.36 0-15.002-8.287-11.985-7.268-16.958-10.668-.17-.127.128-1.105.255-.977.467-.807 3.188 2.635 16.703 11.05 13.345 8.33 14.28 8.33.85 0 4.717-6.715 3.825-6.715 6.885-13.6.128-.297.893.297.765.553.637.85M143.776 203.19q.212-6.332-3.953-11.262-.17-.213.68-.128.85.085 1.02.34 3.783 5.1 3.23 11.73-.382 4.76-3.612 13.43-1.785 4.845-2.337 9.648-.383 3.017-.68 2.677-.298-.297-.085-3.102.042-1.19.595-3.74.722-3.443 1.784-6.375 3.145-8.5 3.358-13.218M138.081 242.417q-.637-3.74-.127-3.4.552.383 1.275 4.25 3.23 17.298 18.7 39.057.17.255-1.063-.425l-1.615-1.232q-14.025-20.57-17.17-38.25"/><path fill="#0f141b" d="M178.838 242.97q-5.312 8.967-17.34 17.552-10.2 7.31-13.26 7.31-.977-.212-3.57-1.742-3.017-1.828-4.717-3.57-.468-.468-.765-1.658-.34-1.19-.127-.935 1.444 1.955 4.037 4.038 2.55 2.04 4.42 2.805 5.61-1.53 14.875-8.415 11.007-8.203 15.767-16.618.128-.212.468.425l.212.808M128.391 231.665q1.403 5.1 5.058 10.667 3.91 5.95 7.862 8.245 7.055-2.805 16.065-10.37 10.625-8.967 14.237-17.382l.468.425.255.85q-3.995 8.542-14.79 17.467-9.18 7.608-16.065 10.243-1.318.51-5.482-3.953-4.93-5.27-7.608-12.325-.255-.765-.17-2.465.085-1.784.17-1.402M79.22 291.122q.977-5.483 1.36-9.605.297-2.763.722-2.21.425.51.127 3.272l-.425 3.868-.552 3.697q-.553 2.763-1.105 3.188-.553.467-.128-2.21M79.05 247.39q2.252 9.265 2.72 20.145.17 2.932-.256 3.995-.425 1.062-.51-1.615-.382-11.348-3.357-23.205l.637.085.765.595M238.677 298.007q3.06 5.95 4.675 13.09l-.467.722q-.51.51-.553.298-1.317-6.375-4.845-14.663-.807-1.912-.34-1.742.468.212 1.53 2.295M229.625 281.814q-8.202-13.642-18.955-24.48-.17-.212.255-.594.468-.425.638-.255 9.902 10.03 18.275 23.757 1.742 2.805 1.615 3.57-.17.765-1.828-1.998M197.453 248.707l-16.362-23.034q-1.148-1.615-.893-1.743.298-.127 1.53 1.488 12.962 17.042 16.532 22.694 1.36 2.21.978 2.423-.425.17-1.785-1.828M176.926 219.17q-3.358-4.037-6.078-8.16-1.19-1.827-.892-1.912.255-.128 1.572 1.487l6.035 8.288q1.19 1.572.893 1.7-.298.085-1.53-1.403M232.727 174.12l2.083.893q5.057 21.037 9.392 40.757 4.59 20.782 5.185 25.712.17 1.488.893 2.635l2.55 2.848q.382.382.297 2.252-3.102-2.805-3.952-3.867-1.318-1.7-1.573-3.655-.722-5.823-5.44-27.03-4.25-19.21-9.435-40.544M277.395 234.512q.255 2.55-1.318 5.738-1.53 3.017-3.145 3.825-.297.17-.595-.51-.34-.638-.042-.765 1.147-.595 2.252-2.933 1.19-2.55 1.02-4.717-2.295-27.667-17.51-56.864-14.407-27.54-30.94-39.652-1.87-1.36-2.167-1.233-.212.128.255 1.658l3.06 10.454q2.763 9.988 5.397 20.825l-1.19-1.487-1.36-1.403q-2.337-9.902-4.674-18.53l-2.635-9.35q-1.785-6.544 4.165-2.082 17.594 13.217 31.662 39.397 15.342 28.517 17.765 57.63"/><path fill="#0f141b" d="M254.445 223.08q-.935.34-1.87 8.755-.978 8.755.17 12.027l3.442 10.923q3.4 10.412 4.845 13.005 6.503-8.968 9.265-19.125 2.253-8.245 1.19-12.538-1.402-5.737-8.882-10.03-2.593-1.487-5.27-2.422-2.338-.765-2.89-.595m2.465-.892q3.017.807 6.162 2.55 8.755 4.717 10.498 11.772 1.147 4.547-1.53 13.005-3.018 9.52-9.563 18.742-1.105 1.53-1.615 1.488-.467-.043-1.275-1.573-1.827-3.612-5.312-13.685l-3.4-10.242q-1.233-3.528-.17-12.197 1.02-8.755 2.847-10.073l3.358.213M231.75 154.146q3.357 7.565 10.285 28.39 6.63 20.102 8.755 28.644.51 2.125.51 3.485-.043 1.403-.553-.595-2.21-8.585-9.52-30.472-7.692-23.162-10.922-30.217-.722-1.7-.042-1.318.722.34 1.487 2.083M77.307 24.735q-9.35 1.615-10.2.382-.893-1.275 3.527-10.157 4.42-8.925 5.993-8.925 1.657 0 6.545 7.14 4.93 7.182 3.952 8.84-.637 1.105-9.817 2.72m-5.228-9.393q-3.272 6.715-3.655 8.84 2.295.17 9.265-1.02 6.843-1.147 8.203-1.912 0-1.53-3.868-7.353-3.91-5.78-5.312-6.375-1.275.893-4.633 7.82M124.439 123.801q-.808 2.423-3.103 3.868-2.422 1.53-4.717 1.997-2.21.425-3.23-.425-1.275-1.105-.553-3.272.765-2.253 3.315-4.208 1.7-1.36 4.208-1.87 2.55-.51 3.612.34 1.318 1.148.468 3.57m-7.565-.977q-1.955 1.53-2.72 3.272-.68 1.615.042 2.21.595.553 2.72.043 2.253-.553 4.08-1.913 1.785-1.275 2.338-3.06.51-1.615-.17-2.21l-2.465-.17q-1.998.425-3.825 1.828M133.449 143.223q-.893-1.955-1.828-1.955-.935.043-1.572 2.295-.765 2.508-.51 5.95.255 3.698 1.487 5.695.978 1.573 1.658 1.36.765-.212 1.402-1.742.935-2.253.68-5.993-.255-3.442-1.317-5.61m-1.785-3.102q1.402-.043 2.72 2.295 1.402 2.55 1.572 6.332.213 4.08-.807 6.588-.935 2.337-2.508 2.422-1.53.128-2.805-2.252-1.317-2.38-1.572-5.993-.213-3.23.722-6.162 1.02-3.23 2.678-3.23M119.806 148.748q1.063-2.252 2.38-2.337 1.318-.085 2.55 1.955 1.488 2.38 1.913 6.417.382 3.783-.85 6.248-.978 2.04-2.253 2.125-1.615.085-3.017-2.21-1.445-2.338-1.658-5.653-.255-3.867.935-6.545m2.38-1.147q-.977.085-1.657 2.295-.68 2.337-.468 5.355.213 3.06 1.445 5.057 1.02 1.7 1.913 1.658.935-.043 1.572-2.38.595-2.295.34-4.803-.382-3.527-1.445-5.567-.892-1.658-1.7-1.615M170.508 159.373q1.063 1.998 1.7 1.955 9.435-.297 15.725-.085l13.132 1.02q.34.043.468 1.998-4.845-.978-12.92-1.275l-16.617-.213q-1.19 0-2.508-2.295-1.317-2.252-1.912-5.142-.595-2.933-.17-5.313.425-2.465 1.827-2.89 3.698-1.232 13.898 1.275 8.712 2.125 16.32 5.313.297.127.424 1.105.17.935-.127.807-8.075-3.315-16.235-5.525-10.327-2.762-13.855-1.615-.892.298-1.105 2.253-.212 1.912.298 4.25.552 2.38 1.657 4.377"/><path fill="#0f141b" d="M199.45 143.223q12.155 4.76 21.548 11.9 10.582 8.033 14.067 16.49 1.402 3.358 1.02 4.293-.34.85-2.125-.17-3.782-2.21-16.405-5.568-11.602-3.06-16.617-3.57-.51 0-.51-.68l-1.53-10.115-1.785-11.135q-.298-1.785.127-1.997.34-.17 2.21.552m2.72 21.165 6.12 1.615 13.94 3.825q8.118 2.423 12.282 4.548-2.464-8.713-13.77-17.383-9.434-7.267-22.184-12.58l1.87 10.243 1.742 9.732M78.242 176.033l-.893-3.655q-.042-.255.553-.382l.637.127.935 4.038-.552.127q-.595-.042-.68-.255M91.034 175.906l-.552-2.338-.34-1.997q-.043-.255.51-.34.51-.085.552.17.383 2.805.808 4.165.085.212-.425.382l-.553-.042M103.316 173.058l-.977-3.91q-.043-.212.467-.34l.553.085 1.147 3.825q.043.255-.51.383l-.68-.043M50.192 133.109q2.677 4.207 5.015 11.134 1.615 4.803 2.465 9.478.892 4.887.765 8.372-.043 2.125-.765 2.338-.51.17-1.615-.34-2.338-1.02-5.058-3.868-3.655-3.952-6.204-9.86-3.018-6.927-1.403-14.194.595-2.678 1.7-4.59.978-1.785 1.7-1.87 1.147-.128 3.4 3.4M44.54 135.7q-1.53 6.417 1.445 14.067 2.124 5.398 6.417 9.988 3.782 3.952 4.76 3.485.467-.213-.51-6.673-1.105-6.97-2.72-11.857-2.338-6.97-4.675-11.007-1.743-2.975-2.38-2.933-.255 0-.935 1.275-.892 1.573-1.402 3.655"/><path fill="#0f141b" d="M52.062 103.826q-3.273 3.23-6.077 9.01-2.805 5.823-3.145 10.37-.553 7.778 1.147 16.66.17.85-.085 2.55-.255 1.7-.382 1.232-3.145-12.154-2.55-20.314.34-4.675 4.08-12.113 3.697-7.31 6.162-8.585 3.697-1.955 9.01-4.08 5.78-2.337 11.517-4.037.298-.085-.127.977l-.638 1.105q-11.985 3.57-18.912 7.225M67.83 168.213q6.842 3.018 9.774 3.018 6.8 0 15.3-1.403 9.095-1.53 16.66-4.122.297-.085.34.85.085.935-.213 1.02-8.245 2.38-16.83 3.782-8.584 1.36-15.214 1.36-3.273 0-10.583-3.145-7.267-3.145-9.69-5.61-.212-.212.213-.935.467-.722.68-.51 2.55 2.593 9.562 5.695"/><path fill="#0f141b" d="M63.027 125.416q1.02 2.04.892 4.42-.127 2.423-1.36 2.975-1.36.638-3.145-.425-1.87-1.19-2.805-3.527-.935-2.295-.807-4.42.127-2.338 1.53-3.103 1.02-.595 2.677.468 1.785 1.147 3.018 3.612m-5.1-3.017q-.85.467-.935 2.252-.043 1.785.722 3.74.723 1.828 2.04 2.805 1.275.978 2.295.51.638-.297.765-1.912.128-1.87-.85-3.825-1.02-2.04-2.295-3.06-1.147-.893-1.742-.51M50.277 151.808q.297-2.805 1.275-4.207.765-1.148 1.53-1.063.807.085 1.275 1.318.595 1.53.425 4.165-.17 2.507-.893 4.08-.765 1.657-1.827 1.53-1.063-.085-1.573-1.573-.51-1.53-.212-4.25m1.062 3.74q.298 1.148.808 1.148.467.042.977-1.233.553-1.36.68-3.357.17-2.168-.085-3.4-.255-1.148-.765-1.19-.425-.043-.85.935-.595 1.232-.85 3.527-.212 2.21.085 3.57"/><path fill="#0f141b" d="M48.11 139.993q.764-1.104 1.614-1.02.765.043 1.275 1.318.68 1.7.34 4.887-.51 4.93-2.805 4.675-.977-.085-1.445-1.402-.595-1.53-.297-4.293.297-2.762 1.317-4.165m-.34 4.165q-.255 2.423.085 3.74.298 1.063.808 1.148.552.042 1.062-1.148.553-1.275.765-3.4.17-1.7-.127-3.187-.298-1.36-.723-1.445-.51-.043-1.062 1.147-.595 1.275-.808 3.145M69.7 173.738l.34-3.612q.042-.255.552-.128.552.085.51.34l-.213 3.4q0 .255-.595.255t-.595-.255M64.6 167.873q-.596 1.19-.808 2.465l-.595.128q-.553-.128-.51-.383.212-.977.977-2.677.128-.213.595 0 .468.255.34.467"/></svg>