<svg xmlns="http://www.w3.org/2000/svg" xmlns:xlink="http://www.w3.org/1999/xlink" width="1920" height="1080" preserveAspectRatio="xMidYMid" style="margin:auto;background:#222b34;display:block;z-index:1;position:relative"><g><defs><path id="c" fill="none" stroke="inherit" stroke-width="4.333" d="M-35-35h70v70h-70Z" transform="scale(.3)"/><path id="e" fill="none" stroke="inherit" stroke-width="4.333" d="M0-37a37 37 0 0 1 0 74 37 37 0 0 1 0-74" transform="scale(.3)"/><path id="a" fill="none" stroke="inherit" stroke-width="4.333" d="m0-34.641 40 69.282h-80Z" transform="scale(.3)"/></defs><path id="b" fill="none" stroke="none" d="M121.907 601.935c0 42.727-10.455 12.272-22.727 12.272s-22.728 30.455-22.728-12.272 10.455-12.273 22.728-12.273 22.727-30.454 22.727 12.273"/><use xlink:href="#a" stroke="#84206b"><animateMotion begin="-6.036844996014809s" calcMode="linear" dur="12.5s" keyPoints="0;1" keyTimes="0;1" repeatCount="indefinite"><mpath xlink:href="#b"/></animateMotion></use><path id="d" fill="none" stroke="none" d="M169.465 378.59c0 26.687-6.53 7.666-14.195 7.666s-14.195 19.02-14.195-7.665 6.53-7.666 14.195-7.666 14.195-19.02 14.195 7.666"/><use xlink:href="#c" stroke="#e55c30"><animateMotion begin="-6.4373479941290555s" calcMode="linear" dur="12.5s" keyPoints="1;0" keyTimes="0;1" repeatCount="indefinite"><mpath xlink:href="#d"/></animateMotion></use><path id="f" fill="none" stroke="none" d="M270.52 637.526c0 49.523-12.118 14.225-26.342 14.225s-26.342 35.298-26.342-14.225 12.117-14.224 26.342-14.224 26.341-35.298 26.341 14.224"/><use xlink:href="#e" stroke="#e55c30"><animateMotion begin="-8.252052030222623s" calcMode="linear" dur="12.5s" keyPoints="1;0" keyTimes="0;1" repeatCount="indefinite"><mpath xlink:href="#f"/></animateMotion></use><path id="g" fill="none" stroke="none" d="M448.802 268.563c0 59.45-14.546 17.076-31.622 17.076s-31.623 42.375-31.623-17.076 14.546-17.076 31.623-17.076 31.622-42.374 31.622 17.076"/><use xlink:href="#c" stroke="#140b34"><animateMotion begin="-8.601435017441094s" calcMode="linear" dur="12.5s" keyPoints="0;1" keyTimes="0;1" repeatCount="indefinite"><mpath xlink:href="#g"/></animateMotion></use><path id="h" fill="none" stroke="none" d="M490.45 419.993c0 36.84-9.014 10.582-19.595 10.582s-19.596 26.258-19.596-10.582 9.014-10.582 19.596-10.582 19.595-26.258 19.595 10.582"/><use xlink:href="#e" stroke="#140b34"><animateMotion begin="-8.880231781015265s" calcMode="linear" dur="12.5s" keyPoints="0;1" keyTimes="0;1" repeatCount="indefinite"><mpath xlink:href="#h"/></animateMotion></use><path id="i" fill="none" stroke="none" d="M610.279 273.808c0 32.79-8.024 9.419-17.442 9.419s-17.442 23.372-17.442-9.419 8.023-9.419 17.442-9.419 17.442-23.372 17.442 9.419"/><use xlink:href="#e" stroke="#84206b"><animateMotion begin="-8.078785941975914s" calcMode="linear" dur="12.5s" keyPoints="1;0" keyTimes="0;1" repeatCount="indefinite"><mpath xlink:href="#i"/></animateMotion></use><path id="j" fill="none" stroke="none" d="M710.199 639.14c0 52.311-12.8 15.026-27.825 15.026s-27.825 37.285-27.825-15.026 12.8-15.025 27.825-15.025 27.825-37.285 27.825 15.025"/><use xlink:href="#a" stroke="#e55c30"><animateMotion begin="-7.43657024303542s" calcMode="linear" dur="12.5s" keyPoints="1;0" keyTimes="0;1" repeatCount="indefinite"><mpath xlink:href="#j"/></animateMotion></use><path id="k" fill="none" stroke="none" d="M866.853 792.295c0 34.633-8.475 9.948-18.423 9.948s-18.422 24.685-18.422-9.948 8.474-9.948 18.422-9.948 18.423-24.686 18.423 9.948"/><use xlink:href="#c" stroke="#e55c30"><animateMotion begin="-11.852895941755357s" calcMode="linear" dur="12.5s" keyPoints="1;0" keyTimes="0;1" repeatCount="indefinite"><mpath xlink:href="#k"/></animateMotion></use><path id="l" fill="none" stroke="none" d="M947.302 840.879c0 45.76-11.196 13.144-24.34 13.144s-24.34 32.615-24.34-13.144 11.197-13.144 24.34-13.144 24.34-32.616 24.34 13.144"/><use xlink:href="#e" stroke="#140b34"><animateMotion begin="-0.5181639108283814s" calcMode="linear" dur="12.5s" keyPoints="0;1" keyTimes="0;1" repeatCount="indefinite"><mpath xlink:href="#l"/></animateMotion></use><path id="m" fill="none" stroke="none" d="M1010.56 990.397c0 30.211-7.392 8.678-16.07 8.678s-16.069 21.533-16.069-8.678 7.392-8.677 16.07-8.677 16.07-21.533 16.07 8.677"/><use xlink:href="#c" stroke="#140b34"><animateMotion begin="-0.452495004586595s" calcMode="linear" dur="12.5s" keyPoints="0;1" keyTimes="0;1" repeatCount="indefinite"><mpath xlink:href="#m"/></animateMotion></use><path id="n" fill="none" stroke="none" d="M1161.368 246.279c0 52.232-12.78 15.002-27.783 15.002s-27.783 37.23-27.783-15.002 12.78-15.003 27.783-15.003 27.783-37.229 27.783 15.003"/><use xlink:href="#e" stroke="#140b34"><animateMotion begin="-10.681124505661103s" calcMode="linear" dur="12.5s" keyPoints="1;0" keyTimes="0;1" repeatCount="indefinite"><mpath xlink:href="#n"/></animateMotion></use><path id="o" fill="none" stroke="none" d="M1293.305 49.083c0 45.722-11.187 13.132-24.32 13.132s-24.32 32.59-24.32-13.132 11.187-13.133 24.32-13.133 24.32-32.59 24.32 13.133"/><use xlink:href="#a" stroke="#140b34"><animateMotion begin="-2.6927752434240784s" calcMode="linear" dur="12.5s" keyPoints="0;1" keyTimes="0;1" repeatCount="indefinite"><mpath xlink:href="#o"/></animateMotion></use><path id="p" fill="none" stroke="none" d="M1323.444 559.752c0 57.05-13.96 16.387-30.346 16.387s-30.347 40.664-30.347-16.387 13.96-16.387 30.347-16.387 30.346-40.664 30.346 16.387"/><use xlink:href="#e" stroke="#84206b"><animateMotion begin="-9.771453656126235s" calcMode="linear" dur="12.5s" keyPoints="0;1" keyTimes="0;1" repeatCount="indefinite"><mpath xlink:href="#p"/></animateMotion></use><path id="q" fill="none" stroke="none" d="M1492.556 789.436c0 63.172-15.457 18.146-33.602 18.146s-33.602 45.026-33.602-18.146 15.457-18.145 33.602-18.145 33.602-45.026 33.602 18.145"/><use xlink:href="#c" stroke="#e55c30"><animateMotion begin="-8.367563427900555s" calcMode="linear" dur="12.5s" keyPoints="1;0" keyTimes="0;1" repeatCount="indefinite"><mpath xlink:href="#q"/></animateMotion></use><path id="r" fill="none" stroke="none" d="M1559.905 133.092c0 64.504-15.783 18.527-34.31 18.527s-34.31 45.977-34.31-18.527 15.782-18.528 34.31-18.528 34.31-45.976 34.31 18.528"/><use xlink:href="#a" stroke="#84206b"><animateMotion begin="-3.2252395972137555s" calcMode="linear" dur="12.5s" keyPoints="0;1" keyTimes="0;1" repeatCount="indefinite"><mpath xlink:href="#r"/></animateMotion></use><path id="s" fill="none" stroke="none" d="M1607.669 351.498c0 26.366-6.451 7.573-14.025 7.573s-14.024 18.793-14.024-7.573 6.451-7.574 14.024-7.574 14.025-18.793 14.025 7.574"/><use xlink:href="#c" stroke="#e55c30"><animateMotion begin="-0.5973993944672323s" calcMode="linear" dur="12.5s" keyPoints="1;0" keyTimes="0;1" repeatCount="indefinite"><mpath xlink:href="#s"/></animateMotion></use><path id="t" fill="none" stroke="none" d="M1767.68 278.332c0 47.13-11.532 13.537-25.07 13.537s-25.07 33.594-25.07-13.537 11.533-13.538 25.07-13.538 25.07-33.593 25.07 13.538"/><use xlink:href="#c" stroke="#e55c30"><animateMotion begin="-11.056281089254025s" calcMode="linear" dur="12.5s" keyPoints="1;0" keyTimes="0;1" repeatCount="indefinite"><mpath xlink:href="#t"/></animateMotion></use><path id="u" fill="none" stroke="none" d="M1840.412 27.87c0 62.676-15.336 18.003-33.338 18.003s-33.338 44.673-33.338-18.002 15.335-18.003 33.338-18.003 33.338-44.673 33.338 18.003"/><use xlink:href="#a" stroke="#140b34"><animateMotion begin="-4.239663712455877s" calcMode="linear" dur="12.5s" keyPoints="1;0" keyTimes="0;1" repeatCount="indefinite"><mpath xlink:href="#u"/></animateMotion></use></g></svg>