<svg xmlns="http://www.w3.org/2000/svg" xmlns:xlink="http://www.w3.org/1999/xlink" style="margin:auto;background:#f1f2f3;display:block;z-index:1;position:relative" width="1920" height="1080" preserveAspectRatio="xMidYMid" viewBox="0 0 1920 1080">
    <g transform="translate(960,540) scale(1,1) translate(-960,-540)"><defs>
        <path id="path-yaebzuqxi6-1" d="M-35 -35L35 -35L35 35L-35 35Z" fill="none" stroke="inherit" stroke-width="4.333333333333334" transform="scale(0.3)"></path>
        <path id="path-yaebzuqxi6-2" d="M0 -37A37 37 0 0 1 0 37A37 37 0 0 1 0 -37" fill="none" stroke="inherit" stroke-width="4.333333333333334" transform="scale(0.3)"></path>
        <path id="path-yaebzuqxi6-3" d="M0 -34.641L40 34.641L-40 34.641Z" fill="none" stroke="inherit" stroke-width="4.333333333333334" transform="scale(0.3)"></path>
    </defs><path id="path0" d="M 145.51428198746152 970.7145949129355
c 0 51.33142207549279 -12.559816039748235 14.74413187274793 -27.303947912496163 14.74413187274793
S 90.9063861624692 1022.0460169884283 90.9063861624692 970.7145949129355
s 12.559816039748235 -14.74413187274793 27.303947912496163 -14.74413187274793
S 145.51428198746152 919.3831728374427 145.51428198746152 970.7145949129355
z" fill="none" stroke="none"></path>
        <use xlink:href="#path-yaebzuqxi6-2" x="0" y="0" stroke="#912623">
            <animateMotion begin="-6.062555539728541s" dur="10s" keyPoints="0;1" keyTimes="0;1" repeatCount="indefinite" calcMode="linear">
                <mpath xlink:href="#path0"></mpath>
            </animateMotion>
        </use><path id="path1" d="M 252.97172110595216 911.0361160964002
c 0 63.31384700041453 -15.491685968186534 18.185892223523325 -33.677578191709856 18.185892223523325
S 185.61656472253242 974.3499630968147 185.61656472253242 911.0361160964002
s 15.491685968186534 -18.185892223523325 33.677578191709856 -18.185892223523325
S 252.97172110595216 847.7222690959857 252.97172110595216 911.0361160964002
z" fill="none" stroke="none"></path>
        <use xlink:href="#path-yaebzuqxi6-1" x="0" y="0" stroke="#a2b4bc">
            <animateMotion begin="-8.566707091571292s" dur="10s" keyPoints="1;0" keyTimes="0;1" repeatCount="indefinite" calcMode="linear">
                <mpath xlink:href="#path1"></mpath>
            </animateMotion>
        </use><path id="path2" d="M 311.488647798985 119.38955693506452
c 0 50.61080903962649 -12.38349582884478 14.537147277339525 -26.920643106184304 14.537147277339525
S 257.64736158661646 170.00036597469102 257.64736158661646 119.38955693506452
s 12.38349582884478 -14.537147277339525 26.920643106184304 -14.537147277339525
S 311.488647798985 68.77874789543803 311.488647798985 119.38955693506452
z" fill="none" stroke="none"></path>
        <use xlink:href="#path-yaebzuqxi6-1" x="0" y="0" stroke="#912623">
            <animateMotion begin="-2.9636937292282695s" dur="10s" keyPoints="1;0" keyTimes="0;1" repeatCount="indefinite" calcMode="linear">
                <mpath xlink:href="#path2"></mpath>
            </animateMotion>
        </use><path id="path3" d="M 372.9213879330912 484.8982736936201
c 0 47.37995827539828 -11.592968514193196 13.609136951444189 -25.202105465637384 13.609136951444189
S 322.51717700181644 532.2782319690184 322.51717700181644 484.8982736936201
s 11.592968514193196 -13.609136951444189 25.202105465637384 -13.609136951444189
S 372.9213879330912 437.51831541822185 372.9213879330912 484.8982736936201
z" fill="none" stroke="none"></path>
        <use xlink:href="#path-yaebzuqxi6-1" x="0" y="0" stroke="#912623">
            <animateMotion begin="-6.07858018370832s" dur="10s" keyPoints="0;1" keyTimes="0;1" repeatCount="indefinite" calcMode="linear">
                <mpath xlink:href="#path3"></mpath>
            </animateMotion>
        </use><path id="path4" d="M 516.5901356060016 260.23968666325607
c 0 29.761679908004286 -7.282113168979771 8.548567633150167 -15.83068080212994 8.548567633150167
S 484.92877400174166 290.00136657126035 484.92877400174166 260.23968666325607
s 7.282113168979771 -8.548567633150167 15.83068080212994 -8.548567633150167
S 516.5901356060016 230.47800675525178 516.5901356060016 260.23968666325607
z" fill="none" stroke="none"></path>
        <use xlink:href="#path-yaebzuqxi6-2" x="0" y="0" stroke="#a2b4bc">
            <animateMotion begin="-2.2406011373139867s" dur="10s" keyPoints="0;1" keyTimes="0;1" repeatCount="indefinite" calcMode="linear">
                <mpath xlink:href="#path4"></mpath>
            </animateMotion>
        </use><path id="path5" d="M 642.6845996364925 85.68251844824357
c 0 28.525075788800088 -6.979539820663851 8.193372832953218 -15.172912653617068 8.193372832953218
S 612.3387743292583 114.20759423704365 612.3387743292583 85.68251844824357
s 6.979539820663851 -8.193372832953218 15.172912653617068 -8.193372832953218
S 642.6845996364925 57.15744265944348 642.6845996364925 85.68251844824357
z" fill="none" stroke="none"></path>
        <use xlink:href="#path-yaebzuqxi6-1" x="0" y="0" stroke="#f0f5f6">
            <animateMotion begin="-1.4063198115987818s" dur="10s" keyPoints="1;0" keyTimes="0;1" repeatCount="indefinite" calcMode="linear">
                <mpath xlink:href="#path5"></mpath>
            </animateMotion>
        </use><path id="path6" d="M 738.4449996251591 706.1938832228396
c 0 49.162051392494185 -12.029012574759214 14.12101476167386 -26.150027336433077 14.12101476167386
S 686.144944952293 755.3559346153338 686.144944952293 706.1938832228396
s 12.029012574759214 -14.12101476167386 26.150027336433077 -14.12101476167386
S 738.4449996251591 657.0318318303455 738.4449996251591 706.1938832228396
z" fill="none" stroke="none"></path>
        <use xlink:href="#path-yaebzuqxi6-3" x="0" y="0" stroke="#a2b4bc">
            <animateMotion begin="-7.023473728068272s" dur="10s" keyPoints="1;0" keyTimes="0;1" repeatCount="indefinite" calcMode="linear">
                <mpath xlink:href="#path6"></mpath>
            </animateMotion>
        </use><path id="path7" d="M 825.1766855531495 349.03709431035566
c 0 60.72674186178938 -14.858670881076122 17.442787556045886 -32.30145843712201 17.442787556045886
S 760.5737686789054 409.76383617214503 760.5737686789054 349.03709431035566
s 14.858670881076122 -17.442787556045886 32.30145843712201 -17.442787556045886
S 825.1766855531495 288.3103524485663 825.1766855531495 349.03709431035566
z" fill="none" stroke="none"></path>
        <use xlink:href="#path-yaebzuqxi6-3" x="0" y="0" stroke="#f0f5f6">
            <animateMotion begin="-0.5806198389413897s" dur="10s" keyPoints="0;1" keyTimes="0;1" repeatCount="indefinite" calcMode="linear">
                <mpath xlink:href="#path7"></mpath>
            </animateMotion>
        </use><path id="path8" d="M 878.9241805386134 302.46341558757666
c 0 22.234717148527515 -5.440409515065243 6.386567691598329 -11.826977206663571 6.386567691598329
S 855.2702261252862 324.6981327361042 855.2702261252862 302.46341558757666
s 5.440409515065243 -6.386567691598329 11.826977206663571 -6.386567691598329
S 878.9241805386134 280.22869843904914 878.9241805386134 302.46341558757666
z" fill="none" stroke="none"></path>
        <use xlink:href="#path-yaebzuqxi6-1" x="0" y="0" stroke="#f0f5f6">
            <animateMotion begin="-6.400738785031681s" dur="10s" keyPoints="0;1" keyTimes="0;1" repeatCount="indefinite" calcMode="linear">
                <mpath xlink:href="#path8"></mpath>
            </animateMotion>
        </use><path id="path9" d="M 1012.5955957973997 259.0442706821056
c 0 30.712754586489226 -7.514822930736725 8.821748657821374 -16.336571588558098 8.821748657821374
S 979.9224526202836 289.7570252685948 979.9224526202836 259.0442706821056
s 7.514822930736725 -8.821748657821374 16.336571588558098 -8.821748657821374
S 1012.5955957973997 228.3315160956164 1012.5955957973997 259.0442706821056
z" fill="none" stroke="none"></path>
        <use xlink:href="#path-yaebzuqxi6-2" x="0" y="0" stroke="#912623">
            <animateMotion begin="-7.53454984854354s" dur="10s" keyPoints="0;1" keyTimes="0;1" repeatCount="indefinite" calcMode="linear">
                <mpath xlink:href="#path9"></mpath>
            </animateMotion>
        </use><path id="path10" d="M 1106.1422993134536 149.7695963401196
c 0 28.936293247974202 -7.080156858546879 8.31148848612025 -15.391645344667129 8.31148848612025
S 1075.3590086241195 178.70588958809378 1075.3590086241195 149.7695963401196
s 7.080156858546879 -8.31148848612025 15.391645344667129 -8.31148848612025
S 1106.1422993134536 120.83330309214539 1106.1422993134536 149.7695963401196
z" fill="none" stroke="none"></path>
        <use xlink:href="#path-yaebzuqxi6-1" x="0" y="0" stroke="#912623">
            <animateMotion begin="-9.294042059561729s" dur="10s" keyPoints="1;0" keyTimes="0;1" repeatCount="indefinite" calcMode="linear">
                <mpath xlink:href="#path10"></mpath>
            </animateMotion>
        </use><path id="path11" d="M 1214.21455795614 259.44221280683473
c 0 57.400087161973396 -14.044702177929658 16.487259078439166 -30.531961256368824 16.487259078439166
S 1153.1506354434025 316.8422999688081 1153.1506354434025 259.44221280683473
s 14.044702177929658 -16.487259078439166 30.531961256368824 -16.487259078439166
S 1214.21455795614 202.04212564486133 1214.21455795614 259.44221280683473
z" fill="none" stroke="none"></path>
        <use xlink:href="#path-yaebzuqxi6-2" x="0" y="0" stroke="#a2b4bc">
            <animateMotion begin="-8.731768140259788s" dur="10s" keyPoints="0;1" keyTimes="0;1" repeatCount="indefinite" calcMode="linear">
                <mpath xlink:href="#path11"></mpath>
            </animateMotion>
        </use><path id="path12" d="M 1336.9439271422077 726.220705419526
c 0 63.49421289798914 -15.535818049507979 18.23769944942241 -33.77351749893039 18.23769944942241
S 1269.3968921443468 789.7149183175151 1269.3968921443468 726.220705419526
s 15.535818049507979 -18.23769944942241 33.77351749893039 -18.23769944942241
S 1336.9439271422077 662.7264925215369 1336.9439271422077 726.220705419526
z" fill="none" stroke="none"></path>
        <use xlink:href="#path-yaebzuqxi6-1" x="0" y="0" stroke="#f0f5f6">
            <animateMotion begin="-4.121777378460825s" dur="10s" keyPoints="1;0" keyTimes="0;1" repeatCount="indefinite" calcMode="linear">
                <mpath xlink:href="#path12"></mpath>
            </animateMotion>
        </use><path id="path13" d="M 1433.751157795649 509.9201960895528
c 0 29.2499110137646 -7.156893120389209 8.401570184804726 -15.558463305193936 8.401570184804726
S 1402.6342311852611 539.1701071033174 1402.6342311852611 509.9201960895528
s 7.156893120389209 -8.401570184804726 15.558463305193936 -8.401570184804726
S 1433.751157795649 480.67028507578823 1433.751157795649 509.9201960895528
z" fill="none" stroke="none"></path>
        <use xlink:href="#path-yaebzuqxi6-2" x="0" y="0" stroke="#912623">
            <animateMotion begin="-8.962276686750863s" dur="10s" keyPoints="1;0" keyTimes="0;1" repeatCount="indefinite" calcMode="linear">
                <mpath xlink:href="#path13"></mpath>
            </animateMotion>
        </use><path id="path14" d="M 1525.3605613408365 52.12284907759327
c 0 34.056097833519445 -8.332875001818586 9.782070654308777 -18.114945656127365 9.782070654308777
S 1489.1306700285816 86.17894691111272 1489.1306700285816 52.12284907759327
s 8.332875001818586 -9.782070654308777 18.114945656127365 -9.782070654308777
S 1525.3605613408365 18.066751244073828 1525.3605613408365 52.12284907759327
z" fill="none" stroke="none"></path>
        <use xlink:href="#path-yaebzuqxi6-2" x="0" y="0" stroke="#f0f5f6">
            <animateMotion begin="-8.714998389056607s" dur="10s" keyPoints="1;0" keyTimes="0;1" repeatCount="indefinite" calcMode="linear">
                <mpath xlink:href="#path14"></mpath>
            </animateMotion>
        </use><path id="path15" d="M 1654.890261546368 539.1975867023544
c 0 41.4940496935394 -10.152799393100064 11.91850363537834 -22.071303028478404 11.91850363537834
S 1610.747655489411 580.6916363958939 1610.747655489411 539.1975867023544
s 10.152799393100064 -11.91850363537834 22.071303028478404 -11.91850363537834
S 1654.890261546368 497.70353700881503 1654.890261546368 539.1975867023544
z" fill="none" stroke="none"></path>
        <use xlink:href="#path-yaebzuqxi6-1" x="0" y="0" stroke="#912623">
            <animateMotion begin="-3.4079028811285728s" dur="10s" keyPoints="0;1" keyTimes="0;1" repeatCount="indefinite" calcMode="linear">
                <mpath xlink:href="#path15"></mpath>
            </animateMotion>
        </use><path id="path16" d="M 1731.7762999998142 266.9888158197531
c 0 46.950838643957375 -11.487971157564038 13.485879184966482 -24.97385034253052 13.485879184966482
S 1681.828599314753 313.93965446371044 1681.828599314753 266.9888158197531
s 11.487971157564038 -13.485879184966482 24.97385034253052 -13.485879184966482
S 1731.7762999998142 220.0379771757957 1731.7762999998142 266.9888158197531
z" fill="none" stroke="none"></path>
        <use xlink:href="#path-yaebzuqxi6-2" x="0" y="0" stroke="#912623">
            <animateMotion begin="-8.001453692489127s" dur="10s" keyPoints="1;0" keyTimes="0;1" repeatCount="indefinite" calcMode="linear">
                <mpath xlink:href="#path16"></mpath>
            </animateMotion>
        </use><path id="path17" d="M 1810.9658162892351 960.3088539804206
c 0 35.501382883129686 -8.68650857778705 10.197205721750016 -18.88371429953707 10.197205721750016
S 1773.1983876901609 995.8102368635504 1773.1983876901609 960.3088539804206
s 8.68650857778705 -10.197205721750016 18.88371429953707 -10.197205721750016
S 1810.9658162892351 924.8074710972909 1810.9658162892351 960.3088539804206
z" fill="none" stroke="none"></path>
        <use xlink:href="#path-yaebzuqxi6-2" x="0" y="0" stroke="#a2b4bc">
            <animateMotion begin="-2.7175408740886s" dur="10s" keyPoints="0;1" keyTimes="0;1" repeatCount="indefinite" calcMode="linear">
                <mpath xlink:href="#path17"></mpath>
            </animateMotion>
        </use></g>
</svg>