<svg xmlns="http://www.w3.org/2000/svg" xmlns:xlink="http://www.w3.org/1999/xlink" width="1920" height="1080" preserveAspectRatio="xMidYMid" style="margin:auto;background:#f1f2f3;display:block;z-index:1;position:relative"><g><defs><path id="c" fill="none" stroke="inherit" stroke-width="4.333" d="M-35-35h70v70h-70Z" transform="scale(.3)"/><path id="a" fill="none" stroke="inherit" stroke-width="4.333" d="M0-37a37 37 0 0 1 0 74 37 37 0 0 1 0-74" transform="scale(.3)"/><path id="i" fill="none" stroke="inherit" stroke-width="4.333" d="m0-34.641 40 69.282h-80Z" transform="scale(.3)"/></defs><path id="b" fill="none" stroke="none" d="M145.514 970.715c0 51.331-12.56 14.744-27.304 14.744s-27.304 36.587-27.304-14.744 12.56-14.745 27.304-14.745 27.304-36.587 27.304 14.745"/><use xlink:href="#a" stroke="#912623"><animateMotion begin="-6.062555539728541s" calcMode="linear" dur="10s" keyPoints="0;1" keyTimes="0;1" repeatCount="indefinite"><mpath xlink:href="#b"/></animateMotion></use><path id="d" fill="none" stroke="none" d="M252.972 911.036c0 63.314-15.492 18.186-33.678 18.186s-33.677 45.128-33.677-18.186 15.491-18.186 33.677-18.186 33.678-45.128 33.678 18.186"/><use xlink:href="#c" stroke="#a2b4bc"><animateMotion begin="-8.566707091571292s" calcMode="linear" dur="10s" keyPoints="1;0" keyTimes="0;1" repeatCount="indefinite"><mpath xlink:href="#d"/></animateMotion></use><path id="e" fill="none" stroke="none" d="M311.489 119.39c0 50.61-12.384 14.537-26.921 14.537s-26.92 36.073-26.92-14.537 12.383-14.538 26.92-14.538 26.92-36.073 26.92 14.538"/><use xlink:href="#c" stroke="#912623"><animateMotion begin="-2.9636937292282695s" calcMode="linear" dur="10s" keyPoints="1;0" keyTimes="0;1" repeatCount="indefinite"><mpath xlink:href="#e"/></animateMotion></use><path id="f" fill="none" stroke="none" d="M372.921 484.898c0 47.38-11.593 13.61-25.202 13.61s-25.202 33.77-25.202-13.61 11.593-13.609 25.202-13.609 25.202-33.77 25.202 13.61"/><use xlink:href="#c" stroke="#912623"><animateMotion begin="-6.07858018370832s" calcMode="linear" dur="10s" keyPoints="0;1" keyTimes="0;1" repeatCount="indefinite"><mpath xlink:href="#f"/></animateMotion></use><path id="g" fill="none" stroke="none" d="M516.59 260.24c0 29.761-7.282 8.548-15.83 8.548s-15.831 21.213-15.831-8.548 7.282-8.549 15.83-8.549 15.831-21.213 15.831 8.549"/><use xlink:href="#a" stroke="#a2b4bc"><animateMotion begin="-2.2406011373139867s" calcMode="linear" dur="10s" keyPoints="0;1" keyTimes="0;1" repeatCount="indefinite"><mpath xlink:href="#g"/></animateMotion></use><path id="h" fill="none" stroke="none" d="M642.685 85.683c0 28.525-6.98 8.193-15.173 8.193s-15.173 20.332-15.173-8.193 6.98-8.194 15.173-8.194 15.173-20.332 15.173 8.194"/><use xlink:href="#c" stroke="#f0f5f6"><animateMotion begin="-1.4063198115987818s" calcMode="linear" dur="10s" keyPoints="1;0" keyTimes="0;1" repeatCount="indefinite"><mpath xlink:href="#h"/></animateMotion></use><path id="j" fill="none" stroke="none" d="M738.445 706.194c0 49.162-12.029 14.12-26.15 14.12s-26.15 35.042-26.15-14.12 12.029-14.121 26.15-14.121 26.15-35.041 26.15 14.12"/><use xlink:href="#i" stroke="#a2b4bc"><animateMotion begin="-7.023473728068272s" calcMode="linear" dur="10s" keyPoints="1;0" keyTimes="0;1" repeatCount="indefinite"><mpath xlink:href="#j"/></animateMotion></use><path id="k" fill="none" stroke="none" d="M825.177 349.037c0 60.727-14.859 17.443-32.302 17.443s-32.301 43.284-32.301-17.443 14.858-17.443 32.301-17.443 32.302-43.284 32.302 17.443"/><use xlink:href="#i" stroke="#f0f5f6"><animateMotion begin="-0.5806198389413897s" calcMode="linear" dur="10s" keyPoints="0;1" keyTimes="0;1" repeatCount="indefinite"><mpath xlink:href="#k"/></animateMotion></use><path id="l" fill="none" stroke="none" d="M878.924 302.463c0 22.235-5.44 6.387-11.827 6.387s-11.827 15.848-11.827-6.387 5.44-6.386 11.827-6.386 11.827-15.848 11.827 6.386"/><use xlink:href="#c" stroke="#f0f5f6"><animateMotion begin="-6.400738785031681s" calcMode="linear" dur="10s" keyPoints="0;1" keyTimes="0;1" repeatCount="indefinite"><mpath xlink:href="#l"/></animateMotion></use><path id="m" fill="none" stroke="none" d="M1012.596 259.044c0 30.713-7.515 8.822-16.337 8.822s-16.337 21.891-16.337-8.822 7.515-8.821 16.337-8.821 16.337-21.891 16.337 8.821"/><use xlink:href="#a" stroke="#912623"><animateMotion begin="-7.53454984854354s" calcMode="linear" dur="10s" keyPoints="0;1" keyTimes="0;1" repeatCount="indefinite"><mpath xlink:href="#m"/></animateMotion></use><path id="n" fill="none" stroke="none" d="M1106.142 149.77c0 28.936-7.08 8.311-15.391 8.311s-15.392 20.625-15.392-8.311 7.08-8.312 15.392-8.312 15.391-20.625 15.391 8.312"/><use xlink:href="#c" stroke="#912623"><animateMotion begin="-9.294042059561729s" calcMode="linear" dur="10s" keyPoints="1;0" keyTimes="0;1" repeatCount="indefinite"><mpath xlink:href="#n"/></animateMotion></use><path id="o" fill="none" stroke="none" d="M1214.215 259.442c0 57.4-14.045 16.487-30.532 16.487s-30.532 40.913-30.532-16.487 14.044-16.487 30.532-16.487 30.532-40.913 30.532 16.487"/><use xlink:href="#a" stroke="#a2b4bc"><animateMotion begin="-8.731768140259788s" calcMode="linear" dur="10s" keyPoints="0;1" keyTimes="0;1" repeatCount="indefinite"><mpath xlink:href="#o"/></animateMotion></use><path id="p" fill="none" stroke="none" d="M1336.944 726.22c0 63.495-15.536 18.238-33.774 18.238s-33.773 45.257-33.773-18.237 15.536-18.238 33.773-18.238 33.774-45.257 33.774 18.238"/><use xlink:href="#c" stroke="#f0f5f6"><animateMotion begin="-4.121777378460825s" calcMode="linear" dur="10s" keyPoints="1;0" keyTimes="0;1" repeatCount="indefinite"><mpath xlink:href="#p"/></animateMotion></use><path id="q" fill="none" stroke="none" d="M1433.751 509.92c0 29.25-7.157 8.402-15.558 8.402s-15.559 20.848-15.559-8.402 7.157-8.401 15.559-8.401 15.558-20.849 15.558 8.401"/><use xlink:href="#a" stroke="#912623"><animateMotion begin="-8.962276686750863s" calcMode="linear" dur="10s" keyPoints="1;0" keyTimes="0;1" repeatCount="indefinite"><mpath xlink:href="#q"/></animateMotion></use><path id="r" fill="none" stroke="none" d="M1525.36 52.123c0 34.056-8.332 9.782-18.114 9.782s-18.115 24.274-18.115-9.782 8.333-9.782 18.115-9.782 18.115-24.274 18.115 9.782"/><use xlink:href="#a" stroke="#f0f5f6"><animateMotion begin="-8.714998389056607s" calcMode="linear" dur="10s" keyPoints="1;0" keyTimes="0;1" repeatCount="indefinite"><mpath xlink:href="#r"/></animateMotion></use><path id="s" fill="none" stroke="none" d="M1654.89 539.198c0 41.494-10.153 11.918-22.071 11.918s-22.071 29.576-22.071-11.918 10.152-11.919 22.071-11.919 22.071-29.575 22.071 11.919"/><use xlink:href="#c" stroke="#912623"><animateMotion begin="-3.4079028811285728s" calcMode="linear" dur="10s" keyPoints="0;1" keyTimes="0;1" repeatCount="indefinite"><mpath xlink:href="#s"/></animateMotion></use><path id="t" fill="none" stroke="none" d="M1731.776 266.989c0 46.95-11.488 13.486-24.974 13.486s-24.973 33.465-24.973-13.486 11.488-13.486 24.973-13.486 24.974-33.465 24.974 13.486"/><use xlink:href="#a" stroke="#912623"><animateMotion begin="-8.001453692489127s" calcMode="linear" dur="10s" keyPoints="1;0" keyTimes="0;1" repeatCount="indefinite"><mpath xlink:href="#t"/></animateMotion></use><path id="u" fill="none" stroke="none" d="M1810.966 960.309c0 35.501-8.687 10.197-18.884 10.197s-18.884 25.304-18.884-10.197 8.687-10.197 18.884-10.197 18.884-25.305 18.884 10.197"/><use xlink:href="#a" stroke="#a2b4bc"><animateMotion begin="-2.7175408740886s" calcMode="linear" dur="10s" keyPoints="0;1" keyTimes="0;1" repeatCount="indefinite"><mpath xlink:href="#u"/></animateMotion></use></g></svg>