<svg xmlns="http://www.w3.org/2000/svg" xmlns:xlink="http://www.w3.org/1999/xlink" width="1139.238" height="1146.144"><defs><pattern xlink:href="#a" id="m" patternTransform="matrix(-2.13806 0 0 34.24634 708.435 454.96)"/><pattern xlink:href="#b" id="f" patternTransform="translate(-1.055 -1.642)scale(10.02286)"/><pattern id="b" width="2" height="1" patternTransform="scale(10)" patternUnits="userSpaceOnUse"><path d="M0-.5h1v2H0z" style="fill:#000;stroke:none"/></pattern><pattern xlink:href="#c" id="a" patternTransform="matrix(3.39862 0 0 22.3349 555.435 454.96)"/><pattern id="c" width="2" height="1" patternTransform="scale(10)" patternUnits="userSpaceOnUse"><path d="M0-.5h1v2H0z" style="fill:#000;stroke:none"/></pattern><pattern xlink:href="#d" id="o" patternTransform="matrix(-.96284 0 0 -1.49427 890.369 563.655)"/><pattern id="d" width="2" height="1" patternTransform="scale(10)" patternUnits="userSpaceOnUse"><path d="M0-.5h1v2H0z" style="fill:#000;stroke:none"/></pattern><pattern xlink:href="#e" id="p" patternTransform="matrix(.6358 0 0 2.25318 1042.634 563.561)"/><pattern id="e" width="2" height="1" patternTransform="scale(10)" patternUnits="userSpaceOnUse"><path d="M0-.5h1v2H0z" style="fill:#000;stroke:none"/></pattern></defs><g transform="translate(-270.38 45.545)"><path d="M1333 947.17h75.847v76.329H1333Z" style="fill:gray;fill-rule:evenodd;stroke:#fff;stroke-width:1.54100001;stroke-linecap:square"/><path d="M1333 527.11V947.18h75.844V527.11Z" style="fill:#8000ff;fill-opacity:1;fill-rule:evenodd"/><path d="M1333 107.55v419.557h75.844V107.55Z" style="fill:#80ff00;fill-opacity:1;fill-rule:evenodd"/><path d="M1257.2 947.17h75.847v76.329H1257.2Z" style="fill:gray;fill-rule:evenodd;stroke:#fff;stroke-width:1.54100001;stroke-linecap:square"/><path d="M1257.2 792.16v152.656h75.844V792.16Z" style="fill:#ff8000;fill-opacity:1;fill-rule:evenodd" transform="translate(0 2.362)"/><path d="M1257.2 718.18h75.847v76.329H1257.2Z" style="fill:gray;fill-rule:evenodd;stroke:#fff;stroke-width:1.54100001;stroke-linecap:square"/><path d="M1257.2 701.78v14.031h75.844v-76.312h-54.688c-1.768 6.786-3.648 13.529-5.719 20.188a450.017 450.017 0 0 1-7.125 21.062 448.992 448.992 0 0 1-8.093 20.562c-.068.16-.152.31-.22.469z" style="fill:gray;fill-rule:evenodd;stroke:#fff;stroke-width:1.54100001;stroke-linecap:square" transform="translate(0 2.362)"/><path d="M1278.3 639.5h54.688v-76.344h-41.75c-.227 2.714-.35 5.456-.625 8.156a452.676 452.676 0 0 1-2.875 22.656 451.513 451.513 0 0 1-4 22.312 449.575 449.575 0 0 1-5.062 21.906c-.114.442-.26.871-.375 1.313z" style="fill:gray;fill-rule:evenodd;stroke:#fff;stroke-width:1.54100001;stroke-linecap:square" transform="translate(0 2.362)"/><path d="M1291.2 563.16h41.75v-76.312h-41.75c.412 4.939.872 9.861 1.125 14.844.391 7.72.594 15.495.594 23.312 0 7.817-.203 15.592-.594 23.312-.253 4.982-.713 9.905-1.125 14.844z" style="fill:gray;fill-rule:evenodd;stroke:#fff;stroke-width:1.54100001;stroke-linecap:square" transform="translate(0 2.362)"/><path d="M1257.2 412.87h75.847v76.329H1257.2ZM1257.2 336.54h75.847v76.329H1257.2ZM1257.2 260.21h75.847v76.329H1257.2Z" style="fill:gray;fill-rule:evenodd;stroke:#fff;stroke-width:1.54100001;stroke-linecap:square"/><path d="M1257.2 105.19v152.656h75.844V105.19Z" style="fill:#0080ff;fill-opacity:1;fill-rule:evenodd" transform="translate(0 2.362)"/><path d="M1181.3 947.17h75.847v76.329H1181.3ZM1181.3 870.84h75.847v76.329H1181.3Z" style="fill:gray;fill-rule:evenodd;stroke:#fff;stroke-width:1.54100001;stroke-linecap:square"/><path d="M1181.3 822.59v45.875h75.844v-76.312h-51.469c-.927 1.267-1.78 2.587-2.719 3.844a454.95 454.95 0 0 1-13.438 17.125c-2.66 3.223-5.472 6.321-8.218 9.469z" style="fill:gray;fill-rule:evenodd;stroke:#fff;stroke-width:1.54100001;stroke-linecap:square" transform="translate(0 2.362)"/><path d="M1205.7 792.16h51.469v-76.344h-6.344c-.858 1.845-1.648 3.731-2.531 5.563a451.217 451.217 0 0 1-32.687 56.875c-3.19 4.722-6.545 9.313-9.906 13.906zM1250.8 715.81h6.344v-14.031c-2.008 4.733-4.181 9.383-6.344 14.031z" style="fill:gray;fill-rule:evenodd;stroke:#fff;stroke-width:1.54100001;stroke-linecap:square" transform="translate(0 2.362)"/><path d="M1181.3 412.87h75.847v76.329H1181.3Z" style="fill:gray;fill-rule:evenodd;stroke:#fff;stroke-width:1.54100001;stroke-linecap:square"/><path d="M1181.3 489.2h75.847v76.329H1181.3Z" style="fill:#000;fill-rule:evenodd"/><path d="M1181.3 336.54h75.847v76.329H1181.3Z" style="fill:gray;fill-rule:evenodd;stroke:#fff;stroke-width:1.54100001;stroke-linecap:square"/><path d="M1250.8 334.19h6.344v-76.344h-51.47c3.362 4.593 6.717 9.184 9.907 13.906a453.162 453.162 0 0 1 22.687 37.344 451.68 451.68 0 0 1 10 19.531c.882 1.831 1.673 3.718 2.531 5.563z" style="fill:gray;fill-rule:evenodd;stroke:#fff;stroke-width:1.54100001;stroke-linecap:square" transform="translate(0 2.362)"/><path d="M1250.8 334.19c-.858-1.845-1.649-3.731-2.531-5.562a451.217 451.217 0 0 0-32.687-56.875c-3.19-4.723-6.545-9.314-9.907-13.906H1181.3v76.344z" style="fill:#bfbfbf;fill-rule:evenodd;stroke-width:0" transform="translate(0 2.362)"/><path d="M1205.7 257.84h51.469v-76.312h-75.844v45.875c2.747 3.148 5.559 6.245 8.219 9.469a455.775 455.775 0 0 1 13.438 17.125c.94 1.256 1.792 2.577 2.718 3.844z" style="fill:gray;fill-rule:evenodd;stroke:#fff;stroke-width:1.54100001;stroke-linecap:square" transform="translate(0 2.362)"/><path d="M1181.3 107.55h75.847v76.329H1181.3ZM1105.5 947.17h75.847v76.329H1105.5ZM1105.5 870.84h75.847v76.329H1105.5Z" style="fill:gray;fill-rule:evenodd;stroke:#fff;stroke-width:1.54100001;stroke-linecap:square"/><path d="M1135.1 868.47h46.188v-45.875c-2.019 2.314-3.966 4.697-6.031 6.969a455.362 455.362 0 0 1-15 15.719 454.998 454.998 0 0 1-15.72 15c-3.08 2.8-6.28 5.473-9.437 8.187z" style="fill:gray;fill-rule:evenodd;stroke:#fff;stroke-width:1.54100001;stroke-linecap:square" transform="translate(0 2.362)"/><path d="M1105.5 412.87h75.847v76.329H1105.5Z" style="fill:gray;fill-rule:evenodd;stroke:#fff;stroke-width:1.54100001;stroke-linecap:square"/><path d="M1105.5 489.2h75.847v76.329H1105.5Z" style="fill:#000;fill-rule:evenodd"/><path d="M1105.5 336.54h75.847v76.329H1105.5ZM1105.5 260.21h75.847v76.329H1105.5Z" style="fill:gray;fill-rule:evenodd;stroke:#fff;stroke-width:1.54100001;stroke-linecap:square"/><path d="M1291.2 563.16c.412-4.939.872-9.861 1.125-14.844.391-7.72.594-15.495.594-23.312 0-7.818-.203-15.592-.594-23.312-.253-4.982-.713-9.905-1.125-14.844h-34.094v76.312z" style="fill:#000;fill-rule:evenodd" transform="translate(0 2.362)"/><path d="M1143.4 334.19v152.656h147.969c-4.517-54.15-18.518-105.6-40.406-152.66H1143.4z" style="fill:#00f;fill-opacity:1;fill-rule:evenodd" transform="translate(0 2.362)"/><path d="M1181.3 227.41v-45.875h-46.188c3.156 2.715 6.358 5.388 9.437 8.188a455.362 455.362 0 0 1 15.72 15 455.09 455.09 0 0 1 15 15.718c2.064 2.272 4.012 4.656 6.03 6.97z" style="fill:gray;fill-rule:evenodd;stroke:#fff;stroke-width:1.54100001;stroke-linecap:square" transform="translate(0 2.362)"/><path d="M1105.5 107.55h75.847v76.329H1105.5ZM1029.6 947.17h75.847v76.329H1029.6ZM1029.6 870.84h75.847v76.329H1029.6ZM1029.6 412.87h75.847v76.329H1029.6Z" style="fill:gray;fill-rule:evenodd;stroke:#fff;stroke-width:1.54100001;stroke-linecap:square"/><path d="M1029.6 489.2h75.847v76.329H1029.6Z" style="fill:#000;fill-rule:evenodd"/><path d="M1029.6 336.54h75.847v76.329H1029.6ZM1029.6 260.21h75.847v76.329H1029.6ZM1029.6 107.55h75.847v76.329H1029.6ZM953.77 947.17h75.847v76.329H953.77ZM953.77 870.84h75.847v76.329H953.77Z" style="fill:gray;fill-rule:evenodd;stroke:#fff;stroke-width:1.54100001;stroke-linecap:square"/><path d="M991.74 718.18h151.17v76.329H991.74Z" style="fill:#ccc;fill-rule:evenodd"/><path d="M953.77 412.87h75.847v76.329H953.77Z" style="fill:gray;fill-rule:evenodd;stroke:#fff;stroke-width:1.54100001;stroke-linecap:square"/><path d="M953.77 489.2h75.847v76.329H953.77Z" style="fill:#000;fill-rule:evenodd"/><path d="M953.77 336.54h75.847v76.329H953.77ZM953.77 260.21h75.847v76.329H953.77ZM953.77 183.88h75.847v76.329H953.77ZM953.77 107.55h75.847v76.329H953.77ZM877.92 947.17h75.847v76.329H877.92ZM877.92 870.84h75.847v76.329H877.92ZM877.92 412.87h75.847v76.329H877.92Z" style="fill:gray;fill-rule:evenodd;stroke:#fff;stroke-width:1.54100001;stroke-linecap:square"/><path d="M877.92 489.2h75.847v76.329H877.92Z" style="fill:#000;fill-rule:evenodd"/><path d="M877.92 336.54h75.847v76.329H877.92ZM877.92 260.21h75.847v76.329H877.92ZM877.92 183.88h75.847v76.329H877.92ZM877.92 107.55h75.847v76.329H877.92ZM802.08 947.17h75.847v76.329H802.08ZM802.08 870.84h75.847v76.329H802.08Z" style="fill:gray;fill-rule:evenodd;stroke:#fff;stroke-width:1.54100001;stroke-linecap:square"/><path d="M840 718.18h151.74v76.329H840Z" style="fill:#999;fill-rule:evenodd"/><path d="M802.08 565.53h75.847v76.329H802.08Z" style="fill:gray;fill-rule:evenodd;stroke:#fff;stroke-width:1.54100001;stroke-linecap:square"/><path d="M802.08 489.2h75.847v76.329H802.08Z" style="fill:#000;fill-rule:evenodd;stroke:#fff;stroke-width:1.54100001;stroke-linecap:square"/><path d="M802.08 412.87h75.847v76.329H802.08ZM802.08 336.54h75.847v76.329H802.08ZM802.08 260.21h75.847v76.329H802.08ZM802.08 183.88h75.847v76.329H802.08ZM802.08 107.55h75.847v76.329H802.08ZM726.23 947.17h75.847v76.329H726.23ZM726.23 870.84h75.847v76.329H726.23ZM726.23 412.87h75.847v76.329H726.23Z" style="fill:gray;fill-rule:evenodd;stroke:#fff;stroke-width:1.54100001;stroke-linecap:square"/><path d="M726.23 489.2h75.847v76.329H726.23Z" style="fill:#000;fill-rule:evenodd"/><path d="M726.23 336.54h75.847v76.329H726.23ZM726.23 260.21h75.847v76.329H726.23ZM726.23 183.88h75.847v76.329H726.23ZM726.23 107.55h75.847v76.329H726.23ZM650.38 947.17h75.847v76.329H650.38ZM650.38 870.84h75.847v76.329H650.38Z" style="fill:gray;fill-rule:evenodd;stroke:#fff;stroke-width:1.54100001;stroke-linecap:square"/><path d="M687.37 718.18H840v76.329H687.37Z" style="fill:#666;fill-rule:evenodd"/><path d="M650.38 412.87h75.847v76.329H650.38Z" style="fill:gray;fill-rule:evenodd;stroke:#fff;stroke-width:1.54100001;stroke-linecap:square"/><path d="M650.38 489.2h75.847v76.329H650.38Z" style="fill:#000;fill-rule:evenodd"/><path d="M650.38 336.54h75.847v76.329H650.38ZM650.38 260.21h75.847v76.329H650.38ZM650.38 183.88h75.847v76.329H650.38ZM650.38 107.55h75.847v76.329H650.38ZM574.54 947.17h75.847v76.329H574.54ZM574.54 870.84h75.847v76.329H574.54ZM574.54 412.87h75.847v76.329H574.54Z" style="fill:gray;fill-rule:evenodd;stroke:#fff;stroke-width:1.54100001;stroke-linecap:square"/><path d="M574.54 489.2h75.847v76.329H574.54Z" style="fill:#000;fill-rule:evenodd"/><path d="M574.54 336.54h75.847v76.329H574.54ZM574.54 260.21h75.847v76.329H574.54ZM574.54 107.55h75.847v76.329H574.54ZM498.69 947.17h75.847v76.329H498.69ZM498.69 870.84h75.847v76.329H498.69Z" style="fill:gray;fill-rule:evenodd;stroke:#fff;stroke-width:1.54100001;stroke-linecap:square"/><path d="M498.69 822.59v45.875h46.188c-3.156-2.715-6.358-5.388-9.437-8.187a455.362 455.362 0 0 1-15.72-15 455.09 455.09 0 0 1-15-15.72c-2.064-2.271-4.012-4.655-6.03-6.968z" style="fill:gray;fill-rule:evenodd;stroke:#fff;stroke-width:1.54100001;stroke-linecap:square" transform="translate(0 2.362)"/><path d="M537.64 718.18h149.73v76.329H537.64Z" style="fill:#333;fill-rule:evenodd"/><path d="M498.69 412.87h75.847v76.329H498.69Z" style="fill:gray;fill-rule:evenodd;stroke:#fff;stroke-width:1.54100001;stroke-linecap:square"/><path d="M498.69 489.2h75.847v76.329H498.69Z" style="fill:#000;fill-rule:evenodd"/><path d="M498.69 336.54h75.847v76.329H498.69ZM498.69 260.21h75.847v76.329H498.69Z" style="fill:gray;fill-rule:evenodd;stroke:#fff;stroke-width:1.54100001;stroke-linecap:square"/><path d="M544.88 181.53h-46.188v45.875c2.019-2.314 3.966-4.697 6.031-6.969a455.362 455.362 0 0 1 15-15.719 455.09 455.09 0 0 1 15.72-15c3.08-2.8 6.28-5.473 9.437-8.187z" style="fill:gray;fill-rule:evenodd;stroke:#fff;stroke-width:1.54100001;stroke-linecap:square" transform="translate(0 2.362)"/><path d="M498.69 107.55h75.847v76.329H498.69ZM422.84 947.17h75.847v76.329H422.84ZM422.84 870.84h75.847v76.329H422.84Z" style="fill:gray;fill-rule:evenodd;stroke:#fff;stroke-width:1.54100001;stroke-linecap:square"/><path d="M474.31 792.16h-51.469v76.312h75.844v-45.875c-2.747-3.148-5.559-6.245-8.219-9.469a455.982 455.982 0 0 1-13.438-17.125c-.94-1.256-1.792-2.577-2.719-3.844zM429.19 715.81h-6.344v76.344h51.47c-3.362-4.593-6.717-9.184-9.907-13.906a453.053 453.053 0 0 1-22.687-37.344 451.906 451.906 0 0 1-10-19.531c-.882-1.831-1.673-3.718-2.531-5.562z" style="fill:gray;fill-rule:evenodd;stroke:#fff;stroke-width:1.54100001;stroke-linecap:square" transform="translate(0 2.362)"/><path d="M422.84 701.78v14.031h6.344c-2.163-4.649-4.336-9.299-6.344-14.031z" style="fill:gray;fill-rule:evenodd;stroke:#fff;stroke-width:1.54100001;stroke-linecap:square" transform="translate(0 2.362)"/><path d="M422.84 412.87h75.847v76.329H422.84Z" style="fill:gray;fill-rule:evenodd;stroke:#fff;stroke-width:1.54100001;stroke-linecap:square"/><path d="M422.84 489.2h75.847v76.329H422.84Z" style="fill:#000;fill-rule:evenodd"/><path d="M422.84 336.54h75.847v76.329H422.84Z" style="fill:gray;fill-rule:evenodd;stroke:#fff;stroke-width:1.54100001;stroke-linecap:square"/><path d="M474.31 257.84h-51.469v76.344h6.344c.858-1.845 1.649-3.731 2.531-5.563a451.443 451.443 0 0 1 32.687-56.875c3.19-4.722 6.545-9.313 9.906-13.906z" style="fill:gray;fill-rule:evenodd;stroke:#fff;stroke-width:1.54100001;stroke-linecap:square" transform="translate(0 2.362)"/><path d="M498.69 227.41v-45.875h-75.844v76.312h51.469c.927-1.267 1.78-2.587 2.719-3.844a454.95 454.95 0 0 1 13.438-17.125c2.66-3.223 5.472-6.321 8.219-9.469z" style="fill:gray;fill-rule:evenodd;stroke:#fff;stroke-width:1.54100001;stroke-linecap:square" transform="translate(0 2.362)"/><path d="M474.31 257.84c-3.361 4.593-6.716 9.184-9.906 13.906a453.053 453.053 0 0 0-22.687 37.344 451.906 451.906 0 0 0-10 19.531c-.883 1.831-1.673 3.718-2.531 5.563h69.5v-76.345z" style="fill:#000;fill-rule:evenodd;stroke-width:0" transform="translate(0 2.362)"/><path d="M422.84 107.55h75.847v76.329H422.84ZM346.99 947.17h75.847v76.329H346.99Z" style="fill:gray;fill-rule:evenodd;stroke:#fff;stroke-width:1.54100001;stroke-linecap:square"/><path d="M347 792.16v152.656h75.844V792.16Z" style="fill:#ff7f00;fill-opacity:1;fill-rule:evenodd" transform="translate(0 2.362)"/><path d="M346.99 718.18h75.847v76.329H346.99Z" style="fill:gray;fill-rule:evenodd;stroke:#fff;stroke-width:1.54100001;stroke-linecap:square"/><path d="M401.69 639.5h-54.688v76.312h75.844v-14.031c-.067-.159-.151-.31-.219-.469a449.628 449.628 0 0 1-8.094-20.562 450.373 450.373 0 0 1-7.125-21.062c-2.07-6.658-3.95-13.4-5.718-20.188z" style="fill:gray;fill-rule:evenodd;stroke:#fff;stroke-width:1.54100001;stroke-linecap:square" transform="translate(0 2.362)"/><path d="M388.75 563.16H347v76.344h54.688c-.115-.442-.261-.87-.375-1.313a449.962 449.962 0 0 1-5.062-21.906 451.702 451.702 0 0 1-4-22.312 452.81 452.81 0 0 1-2.875-22.656c-.275-2.7-.399-5.442-.625-8.156zM388.75 486.84H347v76.312h41.75c-.412-4.939-.872-9.861-1.125-14.844a460.519 460.519 0 0 1-.594-23.312c0-7.818.203-15.592.594-23.312.253-4.982.713-9.905 1.125-14.844z" style="fill:gray;fill-rule:evenodd;stroke:#fff;stroke-width:1.54100001;stroke-linecap:square" transform="translate(0 2.362)"/><path d="M388.76 562.1c.227 2.714.35 6.509.625 9.209a452.667 452.667 0 0 0 2.869 22.656 451.513 451.513 0 0 0 4 22.312c1.508 7.371 3.2 14.67 5.062 21.906.114.442.26.87.375 1.312 1.768 6.786 3.648 13.53 5.719 20.188a449.9 449.9 0 0 0 7.125 21.062 448.877 448.877 0 0 0 8.094 20.562c.067.16.151.31.219.469 2.008 4.733 4.18 9.383 6.343 14.031h32.25v-76.312h-.093v-77.396h-38.5z" style="fill:#000;fill-rule:evenodd" transform="translate(0 2.362)"/><path d="M346.99 412.87h75.847v76.329H346.99Z" style="fill:gray;fill-rule:evenodd;stroke:#fff;stroke-width:1.54100001;stroke-linecap:square"/><path d="M388.75 486.84c-.412 4.939-.872 9.861-1.125 14.844a460.519 460.519 0 0 0-.594 23.312c0 7.818.203 15.592.594 23.312.253 4.982.713 9.905 1.125 14.844h34.094V486.84Z" style="fill:#000;fill-rule:evenodd" transform="translate(0 2.362)"/><path d="M346.99 336.54h75.847v76.329H346.99ZM346.99 260.21h75.847v76.329H346.99Z" style="fill:gray;fill-rule:evenodd;stroke:#fff;stroke-width:1.54100001;stroke-linecap:square"/><path d="M347 105.19v152.656h75.844V105.19Z" style="fill:#0080ff;fill-opacity:1;fill-rule:evenodd" transform="translate(0 2.362)"/><path d="M271.15 947.17h75.847v76.329H271.15Z" style="fill:gray;fill-rule:evenodd;stroke:#fff;stroke-width:1.54100001;stroke-linecap:square"/><path d="M271.16 527.84V947.175h75.844V527.84Z" style="fill:#ff0080;fill-opacity:1;fill-rule:evenodd"/><path d="M271.16 107.55v420.29h75.844V107.55Z" style="fill:#00ff80;fill-opacity:1;fill-rule:evenodd"/><path d="M1257.2 31.225h75.847v76.329H1257.2ZM1181.3 31.225h75.847v76.329H1181.3Z" style="fill:gray;fill-rule:evenodd;stroke:#fff;stroke-width:1.54100001;stroke-linecap:square"/><path d="M1105.5 31.225h75.847v76.329H1105.5ZM1029.6 31.225h75.847v76.329H1029.6Z" style="fill:gray;fill-rule:evenodd;stroke:#fff;stroke-width:1.54100001;stroke-linecap:square"/><path d="M953.77 31.225h75.847v76.329H953.77ZM877.92 31.225h75.847v76.329H877.92Z" style="fill:gray;fill-rule:evenodd;stroke:#fff;stroke-width:1.54100001;stroke-linecap:square"/><path d="M802.08 31.225h75.847v76.329H802.08ZM726.23 31.225h75.847v76.329H726.23ZM650.38 31.225h75.847v76.329H650.38Z" style="fill:gray;fill-rule:evenodd;stroke:#fff;stroke-width:1.54100001;stroke-linecap:square"/><path d="M574.54 31.225h75.847v76.329H574.54ZM498.69 31.225h75.847v76.329H498.69ZM422.84 31.225h75.847v76.329H422.84ZM346.99 31.225h75.847v76.329H346.99ZM1333 31.225h75.847v76.329H1333Z" style="fill:gray;fill-rule:evenodd;stroke:#fff;stroke-width:1.54100001;stroke-linecap:square"/><path d="M271.15 31.225h75.847v76.329H271.15Z" style="fill:gray;fill-rule:evenodd;stroke:#fff;stroke-width:1.54100001;stroke-linecap:square"/><path d="M1136.204 867.686a452.957 452.957 0 0 1-592.353.047" style="fill:#ff0;fill-opacity:1;fill-rule:evenodd" transform="translate(0 2.362)"/><path d="M474.31 792.16c.927 1.267 1.78 2.587 2.719 3.844a454.95 454.95 0 0 0 13.438 17.125c2.66 3.223 5.472 6.321 8.219 9.469 2.019 2.313 3.966 4.696 6.03 6.968a455.362 455.362 0 0 0 15 15.72 455.09 455.09 0 0 0 15.72 15c3.08 2.799 6.28 5.472 9.437 8.187h68.281V792.16H498.685z" style="fill:#fff;fill-rule:evenodd" transform="translate(0 2.362)"/><path d="M429.19 715.81c.858 1.845 1.649 3.731 2.531 5.563a451.443 451.443 0 0 0 32.687 56.874c3.19 4.723 6.545 9.314 9.906 13.906h63.33V715.81z" style="fill:#000;fill-rule:evenodd" transform="translate(0 2.362)"/><path d="M1067.3 792.16v76.312h67.781c3.156-2.715 6.358-5.388 9.438-8.187a455.362 455.362 0 0 0 15.718-15 454.994 454.994 0 0 0 15-15.72c2.066-2.271 4.013-4.655 6.032-6.968 2.747-3.148 5.559-6.246 8.219-9.47a455.775 455.775 0 0 0 13.437-17.124c.94-1.257 1.792-2.577 2.72-3.844h-100.22z" style="fill:#fff;fill-rule:evenodd" transform="translate(0 2.362)"/><path d="M613.2 794.51h454.15v76.329H613.2Z" style="fill:#000;fill-rule:evenodd"/><path d="M536.62 336.55v152.656h151.688V336.55h-75.844z" style="fill:#0ff;fill-opacity:1;fill-rule:evenodd"/><path d="M688.31 336.55v152.656h151.688V336.55h-75.844z" style="fill:#0f0;fill-opacity:1;fill-rule:evenodd"/><path d="M840 336.55v152.656h151.688V336.55h-75.844z" style="fill:#f0f;fill-opacity:1;fill-rule:evenodd"/><path d="M991.69 336.55v152.656h151.688V336.55h-75.844z" style="fill:#ff0002;fill-opacity:1;fill-rule:evenodd"/><path d="M536.61 336.54v152.656H388.641c4.517-54.15 18.518-105.6 40.406-152.66H536.61z" style="fill:#ff0;fill-opacity:1;fill-rule:evenodd"/><path d="M802.08 527.35h75.844" style="fill:#000;fill-rule:evenodd;stroke:#fff;stroke-width:1.51400006;stroke-linecap:square"/><path d="m422.84 562.1-.003-75.268" style="fill:none;stroke:#fff;stroke-width:1.50999999" transform="translate(0 2.362)"/><path d="m498.69 565.53-.003-76.329M574.54 565.53l-.003-76.329M650.39 565.53l-.003-76.329M726.23 565.53l-.003-76.329M802.08 565.53l-.003-76.329M953.77 565.53l-.003-76.329M1029.6 565.53v-76.329M1105.5 565.53v-76.329M1181.3 565.53v-76.329M1257.2 565.53v-76.329" style="fill:none;stroke:#fff;stroke-width:1.50999999"/><path d="M1291.3 564.47c-.227 2.714-.35 6.509-.625 9.209a452.784 452.784 0 0 1-2.869 22.656 451.397 451.397 0 0 1-4 22.312 449.458 449.458 0 0 1-5.062 21.906c-.114.442-.26.87-.375 1.312-1.768 6.786-3.648 13.53-5.719 20.188a449.9 449.9 0 0 1-7.125 21.062 448.877 448.877 0 0 1-8.094 20.562c-.067.16-.151.31-.219.469-2.008 4.733-4.18 9.383-6.343 14.031h-32.25v-76.312h.094v-77.396h38.5z" style="fill:#000;fill-rule:evenodd"/><path d="M802.08 412.85v229h75.844v-229Z" style="fill:#000;fill-rule:evenodd;stroke:#fff;stroke-width:1.54100001;stroke-linecap:square"/><path d="M387.04 525h905.91" style="fill:#000;fill-rule:evenodd;stroke:#fff;stroke-width:1.51400006;stroke-linecap:square" transform="translate(0 2.362)"/><path d="M840 413.37v228.48" style="fill:#000;fill-rule:evenodd;stroke:#fff;stroke-width:1.51400006;stroke-linecap:square"/><path d="M545.42 183.892c-3.14 2.715-6.325 5.388-9.39 8.188a454.365 454.365 0 0 0-15.637 15 454.208 454.208 0 0 0-14.923 15.719c-2.055 2.272-3.992 4.655-6 6.968-2.733 3.148-5.53 6.246-8.177 9.47a454.826 454.826 0 0 0-13.368 17.124c-.935 1.257-1.783 2.577-2.705 3.844h175.155v-76.312H545.42zM1029.6 183.892v76.312H1204.565c-.922-1.266-1.769-2.587-2.702-3.844a454.783 454.783 0 0 0-13.354-17.125c-2.644-3.223-5.438-6.32-8.168-9.468-2.006-2.314-3.941-4.697-5.993-6.97a453.544 453.544 0 0 0-14.907-15.718 453.669 453.669 0 0 0-15.621-15c-3.061-2.8-6.242-5.473-9.38-8.188H1029.6z" style="fill:#000;fill-rule:evenodd;stroke:#000;stroke-width:1.54100001;stroke-linecap:square"/><path d="M835.22 74.987c-103.03 1.082-205.76 37.235-289.1 108.44l587.97.188c-85.9-73.52-192.58-109.74-298.88-108.62zm-222.75 108.91v76.312h455.06v-76.312z" style="fill:#fff;stroke:#fff;stroke-width:1.54100001;stroke-linecap:square"/><path d="M-892.324 260.202h52.251v76.334h-52.251z" style="fill:#000;fill-rule:evenodd;stroke-width:0" transform="scale(-1 1)"/><path d="M-840.072 260.202h52.251v76.334h-52.251z" style="fill:#0f0;fill-rule:evenodd;stroke-width:0;fill-opacity:1" transform="scale(-1 1)"/><path d="M-735.569 260.212h52.251v76.334h-52.251z" style="fill:#ff0;fill-rule:evenodd;stroke-width:0;fill-opacity:1" transform="scale(-1 1)"/><path d="M-787.821 260.212h52.251v76.334h-52.251zM-683.318 260.212h52.251v76.334h-52.251z" style="fill:#000;fill-rule:evenodd;stroke-width:0" transform="scale(-1 1)"/><path d="M-631.066 260.212h52.251v76.334h-52.251z" style="fill:#ff8000;fill-rule:evenodd;stroke-width:0;fill-opacity:1" transform="scale(-1 1)"/><path d="M-526.563 260.212h52.251v76.334h-52.251z" style="fill:red;fill-rule:evenodd;stroke-width:0;fill-opacity:1" transform="scale(-1 1)"/><path d="M-578.814 260.212h52.251v76.334h-52.251zM-1205.826 260.202h52.251v76.334h-52.251z" style="fill:#000;fill-rule:evenodd;stroke-width:0" transform="scale(-1 1)"/><path d="M-1153.574 260.202h52.251v76.334h-52.251z" style="fill:#f0f;fill-rule:evenodd;stroke-width:0;fill-opacity:1" transform="scale(-1 1)"/><path d="M-1049.071 260.212h52.251v76.334h-52.251z" style="fill:#00f;fill-rule:evenodd;stroke-width:0;fill-opacity:1" transform="scale(-1 1)"/><path d="M-1101.322 260.212h52.251v76.334h-52.251zM-996.819 260.212h52.251v76.334h-52.251z" style="fill:#000;fill-rule:evenodd;stroke-width:0" transform="scale(-1 1)"/><path d="M-944.567 260.212h52.251v76.334h-52.251z" style="fill:#0ff;fill-rule:evenodd;stroke-width:0;fill-opacity:1" transform="scale(-1 1)"/><path d="M647.37 183.892h5.003v78.604h-5.003zM688.31 107.552v76.312h303.376v-76.312H764.154z" style="fill:#000;fill-rule:evenodd"/><path d="M1251.4 718.18c-.858 1.845-1.649 3.731-2.531 5.563a451.443 451.443 0 0 1-32.687 56.874c-3.19 4.723-6.545 9.314-9.906 13.906h-63.33V718.18z" style="fill:#fff;fill-rule:evenodd"/><path id="g" d="M461.348 565.18h153v153h-153z" style="fill:url(#f);fill-opacity:1;stroke-width:1.0022862"/><use xlink:href="#g" id="h" width="100%" height="100%" x="0" y="0"/><use xlink:href="#h" id="i" width="100%" height="100%" x="0" y="0"/><use xlink:href="#i" id="j" width="100%" height="100%" x="0" y="0"/><use xlink:href="#j" id="k" width="100%" height="100%" x="0" y="0"/><use xlink:href="#k" width="100%" height="100%"/><path id="l" d="M611.804 565.18h153v153h-153z" style="fill:url(#a);fill-opacity:1;stroke-width:.33402592"/><use xlink:href="#l" width="100%" height="100%"/><path id="n" d="M764.804 565.18h153v153h-153z" style="fill:url(#m);fill-opacity:1;stroke-width:.33402592"/><use xlink:href="#n" width="100%" height="100%"/><path d="M917.804 565.18h153v153h-153z" style="fill:url(#o);fill-opacity:1;stroke:none;stroke-width:1.15653551;stroke-linejoin:round;stroke-miterlimit:4;stroke-dasharray:none;stroke-opacity:1"/><path d="M1070.069 565.086h153v153h-153z" style="fill:url(#p);fill-opacity:1;stroke:none;stroke-width:1.15653551;stroke-linejoin:round;stroke-miterlimit:4;stroke-dasharray:none;stroke-opacity:1"/><path d="M1333.003 1023.499h75.847v76.329h-75.847z" style="fill:#000020;fill-rule:evenodd;stroke:#fff;stroke-width:1.54100001;stroke-linecap:square;fill-opacity:1"/><path d="M1257.203 1023.499h75.847v76.329h-75.847z" style="fill:#000040;fill-rule:evenodd;stroke:#fff;stroke-width:1.54100001;stroke-linecap:square;fill-opacity:1"/><path d="M1181.303 1023.499h75.847v76.329h-75.847z" style="fill:#000060;fill-rule:evenodd;stroke:#fff;stroke-width:1.54100001;stroke-linecap:square;fill-opacity:1"/><path d="M1105.503 1023.499h75.847v76.329h-75.847z" style="fill:navy;fill-rule:evenodd;stroke:#fff;stroke-width:1.54100001;stroke-linecap:square;fill-opacity:1"/><path d="M1029.603 1023.499h75.847v76.329h-75.847z" style="fill:#0000a0;fill-rule:evenodd;stroke:#fff;stroke-width:1.54100001;stroke-linecap:square;fill-opacity:1"/><path d="M953.773 1023.499h75.847v76.329h-75.847z" style="fill:#0000c0;fill-rule:evenodd;stroke:#fff;stroke-width:1.54100001;stroke-linecap:square;fill-opacity:1"/><path d="M877.923 1023.499h75.847v76.329h-75.847z" style="fill:#00f;fill-rule:evenodd;stroke:#fff;stroke-width:1.54100001;stroke-linecap:square;fill-opacity:1"/><path d="M802.083 1023.499h75.847v76.329h-75.847z" style="fill:#0020ff;fill-rule:evenodd;stroke:#fff;stroke-width:1.54100001;stroke-linecap:square;fill-opacity:1"/><path d="M726.233 1023.499h75.847v76.329h-75.847z" style="fill:#0040ff;fill-rule:evenodd;stroke:#fff;stroke-width:1.54100001;stroke-linecap:square;fill-opacity:1"/><path d="M650.383 1023.499h75.847v76.329h-75.847z" style="fill:#0060ff;fill-rule:evenodd;stroke:#fff;stroke-width:1.54100001;stroke-linecap:square;fill-opacity:1"/><path d="M574.543 1023.499h75.847v76.329h-75.847z" style="fill:#0080ff;fill-rule:evenodd;stroke:#fff;stroke-width:1.54100001;stroke-linecap:square;fill-opacity:1"/><path d="M498.693 1023.499h75.847v76.329h-75.847z" style="fill:#00a0ff;fill-rule:evenodd;stroke:#fff;stroke-width:1.54100001;stroke-linecap:square;fill-opacity:1"/><path d="M422.843 1023.499h75.847v76.329h-75.847z" style="fill:#00c0ff;fill-rule:evenodd;stroke:#fff;stroke-width:1.54100001;stroke-linecap:square;fill-opacity:1"/><path d="M346.993 1023.499h75.847v76.329h-75.847z" style="fill:#00f0ff;fill-rule:evenodd;stroke:#fff;stroke-width:1.54100001;stroke-linecap:square;fill-opacity:1"/><path d="M271.153 1023.499H347v76.329h-75.847z" style="fill:#0ff;fill-rule:evenodd;stroke:#fff;stroke-width:1.54100001;stroke-linecap:square;fill-opacity:1"/><path d="M1333-45.104h75.847v76.329H1333Z" style="fill:#f0f;fill-rule:evenodd;stroke:#fff;stroke-width:1.54100001;stroke-linecap:square;fill-opacity:.94117647"/><path d="M1257.2-45.104h75.847v76.329H1257.2Z" style="fill:#ff00f0;fill-rule:evenodd;stroke:#fff;stroke-width:1.54100001;stroke-linecap:square;fill-opacity:1"/><path d="M1181.3-45.104h75.847v76.329H1181.3Z" style="fill:#ff00c0;fill-rule:evenodd;stroke:#fff;stroke-width:1.54100001;stroke-linecap:square;fill-opacity:1"/><path d="M1105.5-45.104h75.847v76.329H1105.5Z" style="fill:#ff00a0;fill-rule:evenodd;stroke:#fff;stroke-width:1.54100001;stroke-linecap:square;fill-opacity:1"/><path d="M1029.6-45.104h75.847v76.329H1029.6Z" style="fill:#ff0080;fill-rule:evenodd;stroke:#fff;stroke-width:1.54100001;stroke-linecap:square;fill-opacity:1"/><path d="M953.77-45.104h75.847v76.329H953.77Z" style="fill:#ff0060;fill-rule:evenodd;stroke:#fff;stroke-width:1.54100001;stroke-linecap:square;fill-opacity:1"/><path d="M877.92-45.104h75.847v76.329H877.92Z" style="fill:#ff0040;fill-rule:evenodd;stroke:#fff;stroke-width:1.54100001;stroke-linecap:square;fill-opacity:1"/><path d="M802.08-45.104h75.847v76.329H802.08Z" style="fill:#ff0020;fill-rule:evenodd;stroke:#fff;stroke-width:1.54100001;stroke-linecap:square;fill-opacity:1"/><path d="M726.23-45.104h75.847v76.329H726.23Z" style="fill:red;fill-rule:evenodd;stroke:#fff;stroke-width:1.54100001;stroke-linecap:square;fill-opacity:1"/><path d="M650.38-45.104h75.847v76.329H650.38Z" style="fill:#c00000;fill-rule:evenodd;stroke:#fff;stroke-width:1.54100001;stroke-linecap:square;fill-opacity:1"/><path d="M574.54-45.104h75.847v76.329H574.54Z" style="fill:#a00000;fill-rule:evenodd;stroke:#fff;stroke-width:1.54100001;stroke-linecap:square;fill-opacity:1"/><path d="M498.69-45.104h75.847v76.329H498.69Z" style="fill:maroon;fill-rule:evenodd;stroke:#fff;stroke-width:1.54100001;stroke-linecap:square;fill-opacity:1"/><path d="M422.84-45.104h75.847v76.329H422.84Z" style="fill:#600000;fill-rule:evenodd;stroke:#fff;stroke-width:1.54100001;stroke-linecap:square;fill-opacity:1"/><path d="M346.99-45.104h75.847v76.329H346.99Z" style="fill:#400000;fill-rule:evenodd;stroke:#fff;stroke-width:1.54100001;stroke-linecap:square;fill-opacity:1"/><path d="M271.15-45.104h75.847v76.329H271.15Z" style="fill:#200000;fill-rule:evenodd;stroke:#fff;stroke-width:1.54100001;stroke-linecap:square;fill-opacity:1"/></g></svg>