<svg xmlns="http://www.w3.org/2000/svg" xml:space="preserve" width="800" height="800" viewBox="0 0 361.245 361.245"><path d="M180.623 173.783c-5.523 0-10 4.477-10 10v167.462c0 5.523 4.477 10 10 10s10-4.477 10-10V183.783c0-5.523-4.477-10-10-10" style="fill:#a47d73"/><path d="m322.353 94.684-141.73 48.047-20.582-60.712 84.776-28.739z" style="fill:#fdfadd"/><path d="m180.623 142.731-20.582-60.712 21.581-7.316z" style="fill:#f4f1d7"/><path d="m227.669 283.461-48.046-141.73 60.712-20.582 28.738 84.776z" style="fill:#fad0b0"/><path d="m133.576 0 48.047 141.731-60.712 20.581-28.739-84.776z" style="fill:#c76a6c"/><path d="M180.623 173.783c-5.523 0-10 4.477-10 10v167.462c0 5.523 4.477 10 10 10z" style="fill:#80635b"/><path d="m38.892 188.777 141.731-48.046 20.581 60.711-84.776 28.739z" style="fill:#c8f9ec"/><path d="m38.892 188.777 141.731-48.046v67.688l-64.195 21.762z" style="fill:#c9e4df"/><circle cx="180.623" cy="141.731" r="26.232" style="fill:#91c8f5"/><path d="M180.623 167.963c-14.488 0-26.232-11.745-26.232-26.232s11.745-26.232 26.232-26.232z" style="fill:#84b2d3"/></svg>