<svg xmlns="http://www.w3.org/2000/svg" xmlns:xlink="http://www.w3.org/1999/xlink" style="margin:auto;background:#7aceff;display:block;z-index:1;position:relative" width="1920" height="963" preserveAspectRatio="xMidYMid" viewBox="0 0 1920 963">
    <g transform="translate(960,481.5) scale(1,1) translate(-960,-481.5)"><g transform="translate(-100 21.727357709432123) rotate(0)">
        <animateTransform attributeName="transform" type="translate" keyTimes="0;1" values="-100 21.727357709432123;1920 21.727357709432123" dur="66.66666666666667s" repeatCount="indefinite" begin="-30.92987145974195s"></animateTransform>
        <path d="M84.717,33.597c0.791-2.503,1.186-5.138,1.186-7.773C85.903,11.594,74.308,0,60.079,0 c-9.881,0-18.445,5.534-22.793,13.702c-1.581-0.527-3.426-0.791-5.138-0.791c-9.486,0-17.128,7.642-17.128,17.128 c0,1.186,0.132,2.372,0.395,3.426C6.719,34.783,0,42.424,0,51.515C0,61.66,8.169,69.829,18.314,69.829h63.373 C91.831,69.829,100,61.66,100,51.515C99.868,42.556,93.281,35.046,84.717,33.597z" fill="#bddeff" transform="scale(0.55)"></path>
    </g><g transform="translate(-100 176.34493079719525) rotate(0)">
        <animateTransform attributeName="transform" type="translate" keyTimes="0;1" values="-100 176.34493079719525;1920 176.34493079719525" dur="66.66666666666667s" repeatCount="indefinite" begin="-27.60199440686686s"></animateTransform>
        <path d="M84.717,33.597c0.791-2.503,1.186-5.138,1.186-7.773C85.903,11.594,74.308,0,60.079,0 c-9.881,0-18.445,5.534-22.793,13.702c-1.581-0.527-3.426-0.791-5.138-0.791c-9.486,0-17.128,7.642-17.128,17.128 c0,1.186,0.132,2.372,0.395,3.426C6.719,34.783,0,42.424,0,51.515C0,61.66,8.169,69.829,18.314,69.829h63.373 C91.831,69.829,100,61.66,100,51.515C99.868,42.556,93.281,35.046,84.717,33.597z" fill="#bddeff" transform="scale(0.55)"></path>
    </g><g transform="translate(-100 623.3963637446633) rotate(0)">
        <animateTransform attributeName="transform" type="translate" keyTimes="0;1" values="-100 623.3963637446633;1920 623.3963637446633" dur="66.66666666666667s" repeatCount="indefinite" begin="-25.101777780327s"></animateTransform>
        <path d="M84.717,33.597c0.791-2.503,1.186-5.138,1.186-7.773C85.903,11.594,74.308,0,60.079,0 c-9.881,0-18.445,5.534-22.793,13.702c-1.581-0.527-3.426-0.791-5.138-0.791c-9.486,0-17.128,7.642-17.128,17.128 c0,1.186,0.132,2.372,0.395,3.426C6.719,34.783,0,42.424,0,51.515C0,61.66,8.169,69.829,18.314,69.829h63.373 C91.831,69.829,100,61.66,100,51.515C99.868,42.556,93.281,35.046,84.717,33.597z" fill="#bddeff" transform="scale(0.55)"></path>
    </g><g transform="translate(-100 144.29103282314418) rotate(0)">
        <animateTransform attributeName="transform" type="translate" keyTimes="0;1" values="-100 144.29103282314418;1920 144.29103282314418" dur="66.66666666666667s" repeatCount="indefinite" begin="-30.073522474880498s"></animateTransform>
        <path d="M84.717,33.597c0.791-2.503,1.186-5.138,1.186-7.773C85.903,11.594,74.308,0,60.079,0 c-9.881,0-18.445,5.534-22.793,13.702c-1.581-0.527-3.426-0.791-5.138-0.791c-9.486,0-17.128,7.642-17.128,17.128 c0,1.186,0.132,2.372,0.395,3.426C6.719,34.783,0,42.424,0,51.515C0,61.66,8.169,69.829,18.314,69.829h63.373 C91.831,69.829,100,61.66,100,51.515C99.868,42.556,93.281,35.046,84.717,33.597z" fill="#bddeff" transform="scale(0.55)"></path>
    </g><g transform="translate(-100 16.193350707478636) rotate(0)">
        <animateTransform attributeName="transform" type="translate" keyTimes="0;1" values="-100 16.193350707478636;1920 16.193350707478636" dur="66.66666666666667s" repeatCount="indefinite" begin="-8.554973956831233s"></animateTransform>
        <path d="M84.717,33.597c0.791-2.503,1.186-5.138,1.186-7.773C85.903,11.594,74.308,0,60.079,0 c-9.881,0-18.445,5.534-22.793,13.702c-1.581-0.527-3.426-0.791-5.138-0.791c-9.486,0-17.128,7.642-17.128,17.128 c0,1.186,0.132,2.372,0.395,3.426C6.719,34.783,0,42.424,0,51.515C0,61.66,8.169,69.829,18.314,69.829h63.373 C91.831,69.829,100,61.66,100,51.515C99.868,42.556,93.281,35.046,84.717,33.597z" fill="#bddeff" transform="scale(0.55)"></path>
    </g><g transform="translate(-100 99.8741016611923) rotate(0)">
        <animateTransform attributeName="transform" type="translate" keyTimes="0;1" values="-100 99.8741016611923;1920 99.8741016611923" dur="66.66666666666667s" repeatCount="indefinite" begin="-24.674017134329443s"></animateTransform>
        <path d="M84.717,33.597c0.791-2.503,1.186-5.138,1.186-7.773C85.903,11.594,74.308,0,60.079,0 c-9.881,0-18.445,5.534-22.793,13.702c-1.581-0.527-3.426-0.791-5.138-0.791c-9.486,0-17.128,7.642-17.128,17.128 c0,1.186,0.132,2.372,0.395,3.426C6.719,34.783,0,42.424,0,51.515C0,61.66,8.169,69.829,18.314,69.829h63.373 C91.831,69.829,100,61.66,100,51.515C99.868,42.556,93.281,35.046,84.717,33.597z" fill="#bddeff" transform="scale(0.55)"></path>
    </g><g transform="translate(-100 232.14177870981513) rotate(0)">
        <animateTransform attributeName="transform" type="translate" keyTimes="0;1" values="-100 232.14177870981513;1920 232.14177870981513" dur="66.66666666666667s" repeatCount="indefinite" begin="-10.491266521227399s"></animateTransform>
        <path d="M84.717,33.597c0.791-2.503,1.186-5.138,1.186-7.773C85.903,11.594,74.308,0,60.079,0 c-9.881,0-18.445,5.534-22.793,13.702c-1.581-0.527-3.426-0.791-5.138-0.791c-9.486,0-17.128,7.642-17.128,17.128 c0,1.186,0.132,2.372,0.395,3.426C6.719,34.783,0,42.424,0,51.515C0,61.66,8.169,69.829,18.314,69.829h63.373 C91.831,69.829,100,61.66,100,51.515C99.868,42.556,93.281,35.046,84.717,33.597z" fill="#bddeff" transform="scale(0.55)"></path>
    </g><g transform="translate(-100 544.4696635976733) rotate(0)">
        <animateTransform attributeName="transform" type="translate" keyTimes="0;1" values="-100 544.4696635976733;1920 544.4696635976733" dur="66.66666666666667s" repeatCount="indefinite" begin="-45.67226673538679s"></animateTransform>
        <path d="M84.717,33.597c0.791-2.503,1.186-5.138,1.186-7.773C85.903,11.594,74.308,0,60.079,0 c-9.881,0-18.445,5.534-22.793,13.702c-1.581-0.527-3.426-0.791-5.138-0.791c-9.486,0-17.128,7.642-17.128,17.128 c0,1.186,0.132,2.372,0.395,3.426C6.719,34.783,0,42.424,0,51.515C0,61.66,8.169,69.829,18.314,69.829h63.373 C91.831,69.829,100,61.66,100,51.515C99.868,42.556,93.281,35.046,84.717,33.597z" fill="#bddeff" transform="scale(0.55)"></path>
    </g><g transform="translate(-100 840.7622147659883) rotate(0)">
        <animateTransform attributeName="transform" type="translate" keyTimes="0;1" values="-100 840.7622147659883;1920 840.7622147659883" dur="66.66666666666667s" repeatCount="indefinite" begin="-15.148047850389938s"></animateTransform>
        <path d="M84.717,33.597c0.791-2.503,1.186-5.138,1.186-7.773C85.903,11.594,74.308,0,60.079,0 c-9.881,0-18.445,5.534-22.793,13.702c-1.581-0.527-3.426-0.791-5.138-0.791c-9.486,0-17.128,7.642-17.128,17.128 c0,1.186,0.132,2.372,0.395,3.426C6.719,34.783,0,42.424,0,51.515C0,61.66,8.169,69.829,18.314,69.829h63.373 C91.831,69.829,100,61.66,100,51.515C99.868,42.556,93.281,35.046,84.717,33.597z" fill="#bddeff" transform="scale(0.55)"></path>
    </g><g transform="translate(-100 279.014706529068) rotate(0)">
        <animateTransform attributeName="transform" type="translate" keyTimes="0;1" values="-100 279.014706529068;1920 279.014706529068" dur="66.66666666666667s" repeatCount="indefinite" begin="-56.2571824966033s"></animateTransform>
        <path d="M84.717,33.597c0.791-2.503,1.186-5.138,1.186-7.773C85.903,11.594,74.308,0,60.079,0 c-9.881,0-18.445,5.534-22.793,13.702c-1.581-0.527-3.426-0.791-5.138-0.791c-9.486,0-17.128,7.642-17.128,17.128 c0,1.186,0.132,2.372,0.395,3.426C6.719,34.783,0,42.424,0,51.515C0,61.66,8.169,69.829,18.314,69.829h63.373 C91.831,69.829,100,61.66,100,51.515C99.868,42.556,93.281,35.046,84.717,33.597z" fill="#bddeff" transform="scale(0.55)"></path>
    </g><g transform="translate(-100 773.0627439589882) rotate(0)">
        <animateTransform attributeName="transform" type="translate" keyTimes="0;1" values="-100 773.0627439589882;1920 773.0627439589882" dur="66.66666666666667s" repeatCount="indefinite" begin="-9.841170300102942s"></animateTransform>
        <path d="M84.717,33.597c0.791-2.503,1.186-5.138,1.186-7.773C85.903,11.594,74.308,0,60.079,0 c-9.881,0-18.445,5.534-22.793,13.702c-1.581-0.527-3.426-0.791-5.138-0.791c-9.486,0-17.128,7.642-17.128,17.128 c0,1.186,0.132,2.372,0.395,3.426C6.719,34.783,0,42.424,0,51.515C0,61.66,8.169,69.829,18.314,69.829h63.373 C91.831,69.829,100,61.66,100,51.515C99.868,42.556,93.281,35.046,84.717,33.597z" fill="#bddeff" transform="scale(0.55)"></path>
    </g><g transform="translate(-100 355.45153497378897) rotate(0)">
        <animateTransform attributeName="transform" type="translate" keyTimes="0;1" values="-100 355.45153497378897;1920 355.45153497378897" dur="33.333333333333336s" repeatCount="indefinite" begin="-24.616169821136275s"></animateTransform>
        <path d="M84.717,33.597c0.791-2.503,1.186-5.138,1.186-7.773C85.903,11.594,74.308,0,60.079,0 c-9.881,0-18.445,5.534-22.793,13.702c-1.581-0.527-3.426-0.791-5.138-0.791c-9.486,0-17.128,7.642-17.128,17.128 c0,1.186,0.132,2.372,0.395,3.426C6.719,34.783,0,42.424,0,51.515C0,61.66,8.169,69.829,18.314,69.829h63.373 C91.831,69.829,100,61.66,100,51.515C99.868,42.556,93.281,35.046,84.717,33.597z" fill="#ffffff" transform="scale(0.7)"></path>
    </g><g transform="translate(-100 562.0071909001184) rotate(0)">
        <animateTransform attributeName="transform" type="translate" keyTimes="0;1" values="-100 562.0071909001184;1920 562.0071909001184" dur="33.333333333333336s" repeatCount="indefinite" begin="-3.9254822444672492s"></animateTransform>
        <path d="M84.717,33.597c0.791-2.503,1.186-5.138,1.186-7.773C85.903,11.594,74.308,0,60.079,0 c-9.881,0-18.445,5.534-22.793,13.702c-1.581-0.527-3.426-0.791-5.138-0.791c-9.486,0-17.128,7.642-17.128,17.128 c0,1.186,0.132,2.372,0.395,3.426C6.719,34.783,0,42.424,0,51.515C0,61.66,8.169,69.829,18.314,69.829h63.373 C91.831,69.829,100,61.66,100,51.515C99.868,42.556,93.281,35.046,84.717,33.597z" fill="#ffffff" transform="scale(0.7)"></path>
    </g><g transform="translate(-100 709.1264337717666) rotate(0)">
        <animateTransform attributeName="transform" type="translate" keyTimes="0;1" values="-100 709.1264337717666;1920 709.1264337717666" dur="33.333333333333336s" repeatCount="indefinite" begin="-17.684267093266197s"></animateTransform>
        <path d="M84.717,33.597c0.791-2.503,1.186-5.138,1.186-7.773C85.903,11.594,74.308,0,60.079,0 c-9.881,0-18.445,5.534-22.793,13.702c-1.581-0.527-3.426-0.791-5.138-0.791c-9.486,0-17.128,7.642-17.128,17.128 c0,1.186,0.132,2.372,0.395,3.426C6.719,34.783,0,42.424,0,51.515C0,61.66,8.169,69.829,18.314,69.829h63.373 C91.831,69.829,100,61.66,100,51.515C99.868,42.556,93.281,35.046,84.717,33.597z" fill="#ffffff" transform="scale(0.7)"></path>
    </g><g transform="translate(-100 313.1485599159) rotate(0)">
        <animateTransform attributeName="transform" type="translate" keyTimes="0;1" values="-100 313.1485599159;1920 313.1485599159" dur="33.333333333333336s" repeatCount="indefinite" begin="-41.15916329380063s"></animateTransform>
        <path d="M84.717,33.597c0.791-2.503,1.186-5.138,1.186-7.773C85.903,11.594,74.308,0,60.079,0 c-9.881,0-18.445,5.534-22.793,13.702c-1.581-0.527-3.426-0.791-5.138-0.791c-9.486,0-17.128,7.642-17.128,17.128 c0,1.186,0.132,2.372,0.395,3.426C6.719,34.783,0,42.424,0,51.515C0,61.66,8.169,69.829,18.314,69.829h63.373 C91.831,69.829,100,61.66,100,51.515C99.868,42.556,93.281,35.046,84.717,33.597z" fill="#ffffff" transform="scale(0.7)"></path>
    </g><g transform="translate(-100 447.71824560030217) rotate(0)">
        <animateTransform attributeName="transform" type="translate" keyTimes="0;1" values="-100 447.71824560030217;1920 447.71824560030217" dur="33.333333333333336s" repeatCount="indefinite" begin="-2.621369494376495s"></animateTransform>
        <path d="M84.717,33.597c0.791-2.503,1.186-5.138,1.186-7.773C85.903,11.594,74.308,0,60.079,0 c-9.881,0-18.445,5.534-22.793,13.702c-1.581-0.527-3.426-0.791-5.138-0.791c-9.486,0-17.128,7.642-17.128,17.128 c0,1.186,0.132,2.372,0.395,3.426C6.719,34.783,0,42.424,0,51.515C0,61.66,8.169,69.829,18.314,69.829h63.373 C91.831,69.829,100,61.66,100,51.515C99.868,42.556,93.281,35.046,84.717,33.597z" fill="#ffffff" transform="scale(0.7)"></path>
    </g><g transform="translate(-100 375.5802938729097) rotate(0)">
        <animateTransform attributeName="transform" type="translate" keyTimes="0;1" values="-100 375.5802938729097;1920 375.5802938729097" dur="33.333333333333336s" repeatCount="indefinite" begin="-23.98082359470623s"></animateTransform>
        <path d="M84.717,33.597c0.791-2.503,1.186-5.138,1.186-7.773C85.903,11.594,74.308,0,60.079,0 c-9.881,0-18.445,5.534-22.793,13.702c-1.581-0.527-3.426-0.791-5.138-0.791c-9.486,0-17.128,7.642-17.128,17.128 c0,1.186,0.132,2.372,0.395,3.426C6.719,34.783,0,42.424,0,51.515C0,61.66,8.169,69.829,18.314,69.829h63.373 C91.831,69.829,100,61.66,100,51.515C99.868,42.556,93.281,35.046,84.717,33.597z" fill="#ffffff" transform="scale(0.7)"></path>
    </g><g transform="translate(-100 765.263556624693) rotate(0)">
        <animateTransform attributeName="transform" type="translate" keyTimes="0;1" values="-100 765.263556624693;1920 765.263556624693" dur="33.333333333333336s" repeatCount="indefinite" begin="-40.81155003213111s"></animateTransform>
        <path d="M84.717,33.597c0.791-2.503,1.186-5.138,1.186-7.773C85.903,11.594,74.308,0,60.079,0 c-9.881,0-18.445,5.534-22.793,13.702c-1.581-0.527-3.426-0.791-5.138-0.791c-9.486,0-17.128,7.642-17.128,17.128 c0,1.186,0.132,2.372,0.395,3.426C6.719,34.783,0,42.424,0,51.515C0,61.66,8.169,69.829,18.314,69.829h63.373 C91.831,69.829,100,61.66,100,51.515C99.868,42.556,93.281,35.046,84.717,33.597z" fill="#ffffff" transform="scale(0.7)"></path>
    </g><g transform="translate(-100 683.0904715435471) rotate(0)">
        <animateTransform attributeName="transform" type="translate" keyTimes="0;1" values="-100 683.0904715435471;1920 683.0904715435471" dur="33.333333333333336s" repeatCount="indefinite" begin="-43.4055275695272s"></animateTransform>
        <path d="M84.717,33.597c0.791-2.503,1.186-5.138,1.186-7.773C85.903,11.594,74.308,0,60.079,0 c-9.881,0-18.445,5.534-22.793,13.702c-1.581-0.527-3.426-0.791-5.138-0.791c-9.486,0-17.128,7.642-17.128,17.128 c0,1.186,0.132,2.372,0.395,3.426C6.719,34.783,0,42.424,0,51.515C0,61.66,8.169,69.829,18.314,69.829h63.373 C91.831,69.829,100,61.66,100,51.515C99.868,42.556,93.281,35.046,84.717,33.597z" fill="#ffffff" transform="scale(0.7)"></path>
    </g><g transform="translate(-100 726.2077862709614) rotate(0)">
        <animateTransform attributeName="transform" type="translate" keyTimes="0;1" values="-100 726.2077862709614;1920 726.2077862709614" dur="33.333333333333336s" repeatCount="indefinite" begin="-43.872978208807446s"></animateTransform>
        <path d="M84.717,33.597c0.791-2.503,1.186-5.138,1.186-7.773C85.903,11.594,74.308,0,60.079,0 c-9.881,0-18.445,5.534-22.793,13.702c-1.581-0.527-3.426-0.791-5.138-0.791c-9.486,0-17.128,7.642-17.128,17.128 c0,1.186,0.132,2.372,0.395,3.426C6.719,34.783,0,42.424,0,51.515C0,61.66,8.169,69.829,18.314,69.829h63.373 C91.831,69.829,100,61.66,100,51.515C99.868,42.556,93.281,35.046,84.717,33.597z" fill="#ffffff" transform="scale(0.7)"></path>
    </g><g transform="translate(-100 225.78539829167667) rotate(0)">
        <animateTransform attributeName="transform" type="translate" keyTimes="0;1" values="-100 225.78539829167667;1920 225.78539829167667" dur="33.333333333333336s" repeatCount="indefinite" begin="-40.87962646858912s"></animateTransform>
        <path d="M84.717,33.597c0.791-2.503,1.186-5.138,1.186-7.773C85.903,11.594,74.308,0,60.079,0 c-9.881,0-18.445,5.534-22.793,13.702c-1.581-0.527-3.426-0.791-5.138-0.791c-9.486,0-17.128,7.642-17.128,17.128 c0,1.186,0.132,2.372,0.395,3.426C6.719,34.783,0,42.424,0,51.515C0,61.66,8.169,69.829,18.314,69.829h63.373 C91.831,69.829,100,61.66,100,51.515C99.868,42.556,93.281,35.046,84.717,33.597z" fill="#ffffff" transform="scale(0.7)"></path>
    </g><g transform="translate(-100 101.39745041313452) rotate(0)">
        <animateTransform attributeName="transform" type="translate" keyTimes="0;1" values="-100 101.39745041313452;1920 101.39745041313452" dur="33.333333333333336s" repeatCount="indefinite" begin="-22.110879288606867s"></animateTransform>
        <path d="M84.717,33.597c0.791-2.503,1.186-5.138,1.186-7.773C85.903,11.594,74.308,0,60.079,0 c-9.881,0-18.445,5.534-22.793,13.702c-1.581-0.527-3.426-0.791-5.138-0.791c-9.486,0-17.128,7.642-17.128,17.128 c0,1.186,0.132,2.372,0.395,3.426C6.719,34.783,0,42.424,0,51.515C0,61.66,8.169,69.829,18.314,69.829h63.373 C91.831,69.829,100,61.66,100,51.515C99.868,42.556,93.281,35.046,84.717,33.597z" fill="#ffffff" transform="scale(0.7)"></path>
    </g><g transform="translate(-100 463.31684951690966) rotate(0)">
        <animateTransform attributeName="transform" type="translate" keyTimes="0;1" values="-100 463.31684951690966;1920 463.31684951690966" dur="22.222222222222225s" repeatCount="indefinite" begin="-24.784400946222238s"></animateTransform>
        <path d="M84.717,33.597c0.791-2.503,1.186-5.138,1.186-7.773C85.903,11.594,74.308,0,60.079,0 c-9.881,0-18.445,5.534-22.793,13.702c-1.581-0.527-3.426-0.791-5.138-0.791c-9.486,0-17.128,7.642-17.128,17.128 c0,1.186,0.132,2.372,0.395,3.426C6.719,34.783,0,42.424,0,51.515C0,61.66,8.169,69.829,18.314,69.829h63.373 C91.831,69.829,100,61.66,100,51.515C99.868,42.556,93.281,35.046,84.717,33.597z" fill="#f1f2f3" transform="scale(0.85)"></path>
    </g><g transform="translate(-100 586.209205048772) rotate(0)">
        <animateTransform attributeName="transform" type="translate" keyTimes="0;1" values="-100 586.209205048772;1920 586.209205048772" dur="22.222222222222225s" repeatCount="indefinite" begin="-51.19136927637436s"></animateTransform>
        <path d="M84.717,33.597c0.791-2.503,1.186-5.138,1.186-7.773C85.903,11.594,74.308,0,60.079,0 c-9.881,0-18.445,5.534-22.793,13.702c-1.581-0.527-3.426-0.791-5.138-0.791c-9.486,0-17.128,7.642-17.128,17.128 c0,1.186,0.132,2.372,0.395,3.426C6.719,34.783,0,42.424,0,51.515C0,61.66,8.169,69.829,18.314,69.829h63.373 C91.831,69.829,100,61.66,100,51.515C99.868,42.556,93.281,35.046,84.717,33.597z" fill="#f1f2f3" transform="scale(0.85)"></path>
    </g><g transform="translate(-100 149.69439096028682) rotate(0)">
        <animateTransform attributeName="transform" type="translate" keyTimes="0;1" values="-100 149.69439096028682;1920 149.69439096028682" dur="22.222222222222225s" repeatCount="indefinite" begin="-30.139483554684226s"></animateTransform>
        <path d="M84.717,33.597c0.791-2.503,1.186-5.138,1.186-7.773C85.903,11.594,74.308,0,60.079,0 c-9.881,0-18.445,5.534-22.793,13.702c-1.581-0.527-3.426-0.791-5.138-0.791c-9.486,0-17.128,7.642-17.128,17.128 c0,1.186,0.132,2.372,0.395,3.426C6.719,34.783,0,42.424,0,51.515C0,61.66,8.169,69.829,18.314,69.829h63.373 C91.831,69.829,100,61.66,100,51.515C99.868,42.556,93.281,35.046,84.717,33.597z" fill="#f1f2f3" transform="scale(0.85)"></path>
    </g><g transform="translate(-100 759.0656039013791) rotate(0)">
        <animateTransform attributeName="transform" type="translate" keyTimes="0;1" values="-100 759.0656039013791;1920 759.0656039013791" dur="22.222222222222225s" repeatCount="indefinite" begin="-17.16663565924235s"></animateTransform>
        <path d="M84.717,33.597c0.791-2.503,1.186-5.138,1.186-7.773C85.903,11.594,74.308,0,60.079,0 c-9.881,0-18.445,5.534-22.793,13.702c-1.581-0.527-3.426-0.791-5.138-0.791c-9.486,0-17.128,7.642-17.128,17.128 c0,1.186,0.132,2.372,0.395,3.426C6.719,34.783,0,42.424,0,51.515C0,61.66,8.169,69.829,18.314,69.829h63.373 C91.831,69.829,100,61.66,100,51.515C99.868,42.556,93.281,35.046,84.717,33.597z" fill="#f1f2f3" transform="scale(0.85)"></path>
    </g><g transform="translate(-100 559.5767245554449) rotate(0)">
        <animateTransform attributeName="transform" type="translate" keyTimes="0;1" values="-100 559.5767245554449;1920 559.5767245554449" dur="22.222222222222225s" repeatCount="indefinite" begin="-52.354007299305s"></animateTransform>
        <path d="M84.717,33.597c0.791-2.503,1.186-5.138,1.186-7.773C85.903,11.594,74.308,0,60.079,0 c-9.881,0-18.445,5.534-22.793,13.702c-1.581-0.527-3.426-0.791-5.138-0.791c-9.486,0-17.128,7.642-17.128,17.128 c0,1.186,0.132,2.372,0.395,3.426C6.719,34.783,0,42.424,0,51.515C0,61.66,8.169,69.829,18.314,69.829h63.373 C91.831,69.829,100,61.66,100,51.515C99.868,42.556,93.281,35.046,84.717,33.597z" fill="#f1f2f3" transform="scale(0.85)"></path>
    </g><g transform="translate(-100 149.869974433434) rotate(0)">
        <animateTransform attributeName="transform" type="translate" keyTimes="0;1" values="-100 149.869974433434;1920 149.869974433434" dur="22.222222222222225s" repeatCount="indefinite" begin="-46.51105144452887s"></animateTransform>
        <path d="M84.717,33.597c0.791-2.503,1.186-5.138,1.186-7.773C85.903,11.594,74.308,0,60.079,0 c-9.881,0-18.445,5.534-22.793,13.702c-1.581-0.527-3.426-0.791-5.138-0.791c-9.486,0-17.128,7.642-17.128,17.128 c0,1.186,0.132,2.372,0.395,3.426C6.719,34.783,0,42.424,0,51.515C0,61.66,8.169,69.829,18.314,69.829h63.373 C91.831,69.829,100,61.66,100,51.515C99.868,42.556,93.281,35.046,84.717,33.597z" fill="#f1f2f3" transform="scale(0.85)"></path>
    </g><g transform="translate(-100 575.093423959751) rotate(0)">
        <animateTransform attributeName="transform" type="translate" keyTimes="0;1" values="-100 575.093423959751;1920 575.093423959751" dur="22.222222222222225s" repeatCount="indefinite" begin="-3.023479128862746s"></animateTransform>
        <path d="M84.717,33.597c0.791-2.503,1.186-5.138,1.186-7.773C85.903,11.594,74.308,0,60.079,0 c-9.881,0-18.445,5.534-22.793,13.702c-1.581-0.527-3.426-0.791-5.138-0.791c-9.486,0-17.128,7.642-17.128,17.128 c0,1.186,0.132,2.372,0.395,3.426C6.719,34.783,0,42.424,0,51.515C0,61.66,8.169,69.829,18.314,69.829h63.373 C91.831,69.829,100,61.66,100,51.515C99.868,42.556,93.281,35.046,84.717,33.597z" fill="#f1f2f3" transform="scale(0.85)"></path>
    </g><g transform="translate(-100 320.85139809031887) rotate(0)">
        <animateTransform attributeName="transform" type="translate" keyTimes="0;1" values="-100 320.85139809031887;1920 320.85139809031887" dur="22.222222222222225s" repeatCount="indefinite" begin="-32.79485259360535s"></animateTransform>
        <path d="M84.717,33.597c0.791-2.503,1.186-5.138,1.186-7.773C85.903,11.594,74.308,0,60.079,0 c-9.881,0-18.445,5.534-22.793,13.702c-1.581-0.527-3.426-0.791-5.138-0.791c-9.486,0-17.128,7.642-17.128,17.128 c0,1.186,0.132,2.372,0.395,3.426C6.719,34.783,0,42.424,0,51.515C0,61.66,8.169,69.829,18.314,69.829h63.373 C91.831,69.829,100,61.66,100,51.515C99.868,42.556,93.281,35.046,84.717,33.597z" fill="#f1f2f3" transform="scale(0.85)"></path>
    </g><g transform="translate(-100 160.56005865030775) rotate(0)">
        <animateTransform attributeName="transform" type="translate" keyTimes="0;1" values="-100 160.56005865030775;1920 160.56005865030775" dur="22.222222222222225s" repeatCount="indefinite" begin="-17.025520921829017s"></animateTransform>
        <path d="M84.717,33.597c0.791-2.503,1.186-5.138,1.186-7.773C85.903,11.594,74.308,0,60.079,0 c-9.881,0-18.445,5.534-22.793,13.702c-1.581-0.527-3.426-0.791-5.138-0.791c-9.486,0-17.128,7.642-17.128,17.128 c0,1.186,0.132,2.372,0.395,3.426C6.719,34.783,0,42.424,0,51.515C0,61.66,8.169,69.829,18.314,69.829h63.373 C91.831,69.829,100,61.66,100,51.515C99.868,42.556,93.281,35.046,84.717,33.597z" fill="#f1f2f3" transform="scale(0.85)"></path>
    </g><g transform="translate(-100 872.0053635921005) rotate(0)">
        <animateTransform attributeName="transform" type="translate" keyTimes="0;1" values="-100 872.0053635921005;1920 872.0053635921005" dur="22.222222222222225s" repeatCount="indefinite" begin="-63.5407902690008s"></animateTransform>
        <path d="M84.717,33.597c0.791-2.503,1.186-5.138,1.186-7.773C85.903,11.594,74.308,0,60.079,0 c-9.881,0-18.445,5.534-22.793,13.702c-1.581-0.527-3.426-0.791-5.138-0.791c-9.486,0-17.128,7.642-17.128,17.128 c0,1.186,0.132,2.372,0.395,3.426C6.719,34.783,0,42.424,0,51.515C0,61.66,8.169,69.829,18.314,69.829h63.373 C91.831,69.829,100,61.66,100,51.515C99.868,42.556,93.281,35.046,84.717,33.597z" fill="#f1f2f3" transform="scale(0.85)"></path>
    </g><g transform="translate(-100 511.9695062998457) rotate(0)">
        <animateTransform attributeName="transform" type="translate" keyTimes="0;1" values="-100 511.9695062998457;1920 511.9695062998457" dur="22.222222222222225s" repeatCount="indefinite" begin="-12.48667031717438s"></animateTransform>
        <path d="M84.717,33.597c0.791-2.503,1.186-5.138,1.186-7.773C85.903,11.594,74.308,0,60.079,0 c-9.881,0-18.445,5.534-22.793,13.702c-1.581-0.527-3.426-0.791-5.138-0.791c-9.486,0-17.128,7.642-17.128,17.128 c0,1.186,0.132,2.372,0.395,3.426C6.719,34.783,0,42.424,0,51.515C0,61.66,8.169,69.829,18.314,69.829h63.373 C91.831,69.829,100,61.66,100,51.515C99.868,42.556,93.281,35.046,84.717,33.597z" fill="#f1f2f3" transform="scale(0.85)"></path>
    </g><g transform="translate(-100 929.6241021316526) rotate(0)">
        <animateTransform attributeName="transform" type="translate" keyTimes="0;1" values="-100 929.6241021316526;1920 929.6241021316526" dur="16.666666666666668s" repeatCount="indefinite" begin="-54.902544280925284s"></animateTransform>
        <path d="M84.717,33.597c0.791-2.503,1.186-5.138,1.186-7.773C85.903,11.594,74.308,0,60.079,0 c-9.881,0-18.445,5.534-22.793,13.702c-1.581-0.527-3.426-0.791-5.138-0.791c-9.486,0-17.128,7.642-17.128,17.128 c0,1.186,0.132,2.372,0.395,3.426C6.719,34.783,0,42.424,0,51.515C0,61.66,8.169,69.829,18.314,69.829h63.373 C91.831,69.829,100,61.66,100,51.515C99.868,42.556,93.281,35.046,84.717,33.597z" fill="#bddeff" transform="scale(1)"></path>
    </g><g transform="translate(-100 286.64230055504567) rotate(0)">
        <animateTransform attributeName="transform" type="translate" keyTimes="0;1" values="-100 286.64230055504567;1920 286.64230055504567" dur="16.666666666666668s" repeatCount="indefinite" begin="-40.50685791323948s"></animateTransform>
        <path d="M84.717,33.597c0.791-2.503,1.186-5.138,1.186-7.773C85.903,11.594,74.308,0,60.079,0 c-9.881,0-18.445,5.534-22.793,13.702c-1.581-0.527-3.426-0.791-5.138-0.791c-9.486,0-17.128,7.642-17.128,17.128 c0,1.186,0.132,2.372,0.395,3.426C6.719,34.783,0,42.424,0,51.515C0,61.66,8.169,69.829,18.314,69.829h63.373 C91.831,69.829,100,61.66,100,51.515C99.868,42.556,93.281,35.046,84.717,33.597z" fill="#bddeff" transform="scale(1)"></path>
    </g><g transform="translate(-100 544.042205364043) rotate(0)">
        <animateTransform attributeName="transform" type="translate" keyTimes="0;1" values="-100 544.042205364043;1920 544.042205364043" dur="16.666666666666668s" repeatCount="indefinite" begin="-7.19330023986086s"></animateTransform>
        <path d="M84.717,33.597c0.791-2.503,1.186-5.138,1.186-7.773C85.903,11.594,74.308,0,60.079,0 c-9.881,0-18.445,5.534-22.793,13.702c-1.581-0.527-3.426-0.791-5.138-0.791c-9.486,0-17.128,7.642-17.128,17.128 c0,1.186,0.132,2.372,0.395,3.426C6.719,34.783,0,42.424,0,51.515C0,61.66,8.169,69.829,18.314,69.829h63.373 C91.831,69.829,100,61.66,100,51.515C99.868,42.556,93.281,35.046,84.717,33.597z" fill="#bddeff" transform="scale(1)"></path>
    </g><g transform="translate(-100 646.5980134239117) rotate(0)">
        <animateTransform attributeName="transform" type="translate" keyTimes="0;1" values="-100 646.5980134239117;1920 646.5980134239117" dur="16.666666666666668s" repeatCount="indefinite" begin="-59.9607925885521s"></animateTransform>
        <path d="M84.717,33.597c0.791-2.503,1.186-5.138,1.186-7.773C85.903,11.594,74.308,0,60.079,0 c-9.881,0-18.445,5.534-22.793,13.702c-1.581-0.527-3.426-0.791-5.138-0.791c-9.486,0-17.128,7.642-17.128,17.128 c0,1.186,0.132,2.372,0.395,3.426C6.719,34.783,0,42.424,0,51.515C0,61.66,8.169,69.829,18.314,69.829h63.373 C91.831,69.829,100,61.66,100,51.515C99.868,42.556,93.281,35.046,84.717,33.597z" fill="#bddeff" transform="scale(1)"></path>
    </g><g transform="translate(-100 915.0097311271958) rotate(0)">
        <animateTransform attributeName="transform" type="translate" keyTimes="0;1" values="-100 915.0097311271958;1920 915.0097311271958" dur="16.666666666666668s" repeatCount="indefinite" begin="-43.53995828126744s"></animateTransform>
        <path d="M84.717,33.597c0.791-2.503,1.186-5.138,1.186-7.773C85.903,11.594,74.308,0,60.079,0 c-9.881,0-18.445,5.534-22.793,13.702c-1.581-0.527-3.426-0.791-5.138-0.791c-9.486,0-17.128,7.642-17.128,17.128 c0,1.186,0.132,2.372,0.395,3.426C6.719,34.783,0,42.424,0,51.515C0,61.66,8.169,69.829,18.314,69.829h63.373 C91.831,69.829,100,61.66,100,51.515C99.868,42.556,93.281,35.046,84.717,33.597z" fill="#bddeff" transform="scale(1)"></path>
    </g><g transform="translate(-100 259.0686710647956) rotate(0)">
        <animateTransform attributeName="transform" type="translate" keyTimes="0;1" values="-100 259.0686710647956;1920 259.0686710647956" dur="16.666666666666668s" repeatCount="indefinite" begin="-20.560015666680087s"></animateTransform>
        <path d="M84.717,33.597c0.791-2.503,1.186-5.138,1.186-7.773C85.903,11.594,74.308,0,60.079,0 c-9.881,0-18.445,5.534-22.793,13.702c-1.581-0.527-3.426-0.791-5.138-0.791c-9.486,0-17.128,7.642-17.128,17.128 c0,1.186,0.132,2.372,0.395,3.426C6.719,34.783,0,42.424,0,51.515C0,61.66,8.169,69.829,18.314,69.829h63.373 C91.831,69.829,100,61.66,100,51.515C99.868,42.556,93.281,35.046,84.717,33.597z" fill="#bddeff" transform="scale(1)"></path>
    </g><g transform="translate(-100 892.013859008068) rotate(0)">
        <animateTransform attributeName="transform" type="translate" keyTimes="0;1" values="-100 892.013859008068;1920 892.013859008068" dur="16.666666666666668s" repeatCount="indefinite" begin="-61.469859937127545s"></animateTransform>
        <path d="M84.717,33.597c0.791-2.503,1.186-5.138,1.186-7.773C85.903,11.594,74.308,0,60.079,0 c-9.881,0-18.445,5.534-22.793,13.702c-1.581-0.527-3.426-0.791-5.138-0.791c-9.486,0-17.128,7.642-17.128,17.128 c0,1.186,0.132,2.372,0.395,3.426C6.719,34.783,0,42.424,0,51.515C0,61.66,8.169,69.829,18.314,69.829h63.373 C91.831,69.829,100,61.66,100,51.515C99.868,42.556,93.281,35.046,84.717,33.597z" fill="#bddeff" transform="scale(1)"></path>
    </g><g transform="translate(-100 404.24482381595755) rotate(0)">
        <animateTransform attributeName="transform" type="translate" keyTimes="0;1" values="-100 404.24482381595755;1920 404.24482381595755" dur="16.666666666666668s" repeatCount="indefinite" begin="-52.437082203275985s"></animateTransform>
        <path d="M84.717,33.597c0.791-2.503,1.186-5.138,1.186-7.773C85.903,11.594,74.308,0,60.079,0 c-9.881,0-18.445,5.534-22.793,13.702c-1.581-0.527-3.426-0.791-5.138-0.791c-9.486,0-17.128,7.642-17.128,17.128 c0,1.186,0.132,2.372,0.395,3.426C6.719,34.783,0,42.424,0,51.515C0,61.66,8.169,69.829,18.314,69.829h63.373 C91.831,69.829,100,61.66,100,51.515C99.868,42.556,93.281,35.046,84.717,33.597z" fill="#bddeff" transform="scale(1)"></path>
    </g><g transform="translate(-100 4.178897156087119) rotate(0)">
        <animateTransform attributeName="transform" type="translate" keyTimes="0;1" values="-100 4.178897156087119;1920 4.178897156087119" dur="16.666666666666668s" repeatCount="indefinite" begin="-35.07046392411679s"></animateTransform>
        <path d="M84.717,33.597c0.791-2.503,1.186-5.138,1.186-7.773C85.903,11.594,74.308,0,60.079,0 c-9.881,0-18.445,5.534-22.793,13.702c-1.581-0.527-3.426-0.791-5.138-0.791c-9.486,0-17.128,7.642-17.128,17.128 c0,1.186,0.132,2.372,0.395,3.426C6.719,34.783,0,42.424,0,51.515C0,61.66,8.169,69.829,18.314,69.829h63.373 C91.831,69.829,100,61.66,100,51.515C99.868,42.556,93.281,35.046,84.717,33.597z" fill="#bddeff" transform="scale(1)"></path>
    </g><g transform="translate(-100 322.9386596251306) rotate(0)">
        <animateTransform attributeName="transform" type="translate" keyTimes="0;1" values="-100 322.9386596251306;1920 322.9386596251306" dur="16.666666666666668s" repeatCount="indefinite" begin="-29.072345224195285s"></animateTransform>
        <path d="M84.717,33.597c0.791-2.503,1.186-5.138,1.186-7.773C85.903,11.594,74.308,0,60.079,0 c-9.881,0-18.445,5.534-22.793,13.702c-1.581-0.527-3.426-0.791-5.138-0.791c-9.486,0-17.128,7.642-17.128,17.128 c0,1.186,0.132,2.372,0.395,3.426C6.719,34.783,0,42.424,0,51.515C0,61.66,8.169,69.829,18.314,69.829h63.373 C91.831,69.829,100,61.66,100,51.515C99.868,42.556,93.281,35.046,84.717,33.597z" fill="#bddeff" transform="scale(1)"></path>
    </g><g transform="translate(-100 471.1487574867058) rotate(0)">
        <animateTransform attributeName="transform" type="translate" keyTimes="0;1" values="-100 471.1487574867058;1920 471.1487574867058" dur="16.666666666666668s" repeatCount="indefinite" begin="-50.08702510727488s"></animateTransform>
        <path d="M84.717,33.597c0.791-2.503,1.186-5.138,1.186-7.773C85.903,11.594,74.308,0,60.079,0 c-9.881,0-18.445,5.534-22.793,13.702c-1.581-0.527-3.426-0.791-5.138-0.791c-9.486,0-17.128,7.642-17.128,17.128 c0,1.186,0.132,2.372,0.395,3.426C6.719,34.783,0,42.424,0,51.515C0,61.66,8.169,69.829,18.314,69.829h63.373 C91.831,69.829,100,61.66,100,51.515C99.868,42.556,93.281,35.046,84.717,33.597z" fill="#bddeff" transform="scale(1)"></path>
    </g><g transform="translate(-100 41.13656493162115) rotate(0)">
        <animateTransform attributeName="transform" type="translate" keyTimes="0;1" values="-100 41.13656493162115;1920 41.13656493162115" dur="16.666666666666668s" repeatCount="indefinite" begin="-48.63029352345962s"></animateTransform>
        <path d="M84.717,33.597c0.791-2.503,1.186-5.138,1.186-7.773C85.903,11.594,74.308,0,60.079,0 c-9.881,0-18.445,5.534-22.793,13.702c-1.581-0.527-3.426-0.791-5.138-0.791c-9.486,0-17.128,7.642-17.128,17.128 c0,1.186,0.132,2.372,0.395,3.426C6.719,34.783,0,42.424,0,51.515C0,61.66,8.169,69.829,18.314,69.829h63.373 C91.831,69.829,100,61.66,100,51.515C99.868,42.556,93.281,35.046,84.717,33.597z" fill="#bddeff" transform="scale(1)"></path>
    </g></g>
</svg>