<svg xmlns="http://www.w3.org/2000/svg" xml:space="preserve" height="auto" viewBox="0 0 1920 1080"><path fill="#F0CF48" d="M797 771c3.8-4.8 11.1-11.4 11.5-13 0 0 69.7-54.4 54.5-109.8-7.5-27.2-22.8-33-36.2-31.9-14.3 1.1-26.8 10.2-33 23.1-7.3 15.2-19.3 45-34.6 100 0 0-2.2 13-4.5 15.9l-6.8 11.4c-.4 5.7 4.1 10.5 9.7 10.6l15.5 1.2c5.4.1 20.4-3.2 23.9-7.5M1007.6 582.9s33.4-31.4 61.9 2.9c44.5 53.4 16.1 95.6 15.5 107.7-.6 12.1 6.7.7 12.4 10.4 11.8 20.1-44.4 51.3-66.7 67.1-11.9 8.4-19.1 4.8-37.5 5.5-2.4.1-8.4-7.3-7.5-9.5 5.1-12.8 16 5.3 49.8-35.4-43.5 17.5-98.7-76.6-27.9-148.7"/><g><g><path fill="#f0cf48" d="m1353.9 483.6-90 10.9 3.3 22.9 5.5 37.7-60-2.7 8.9 29.3-51.1-6.1-8.9-22.5 36.8 9.5-10.9-36.8 48.4 5.5-6.8-17.3-19.1-48.2 77.7-8.2-70.2-105S1424 176.8 1449.9 174c0 0 27.9 134.3 28.6 158.1l-149.3 70.2z"/><path fill="#ba692d" d="m1236 531.3-6.8-17.3 3.4 4.3v-18.4l11.6 19.8-.7-19.8 11.6 20.5v-15.7l10.2 17.7 2-5 5.5 37.7-59.9-2.7 8.8 29.3-51.1-6.1-8.9-22.5 36.8 9.5-10.9-36.8z"/><animateTransform attributeName="transform" begin="0s" dur="1.5s" repeatCount="indefinite" type="rotate" values="0 1159.3 565.9;-10 1159.3 565.9;0 1159.3 565.9"/></g><path fill="#f0cf48" d="M1178.8 683c-37 69-103.6 42.5-103.6 42.5-65.4-31.4-147.2-40.2-147.2-40.2-113.1-5.5-175.2-26.6-175.2-26.6-66.6-24.1-71.1-79.8-70.7-99 .1-4.2.5-6.6.5-6.6s4.7 0 8.9-1.9c1.8-.8 3.5-1.9 4.7-3.6 4.1-5.5 8.9-15.7 8.9-22.5l12.3-34.1c25.2-45.7 84.3-41.8 84.3-41.8 15.1-4.9 91.3 20.6 125.4 32.5 10.9 3.8 22.4 5.4 34 4.9 4.9-.2 9.6-.4 14.2-.5 13.6-.4 26.1-.3 37.5.2 23.5.9 42.5 3.2 57.4 6 16.5 3.1 28.1 6.7 35.7 9.5 7.5 2.8 10.9 4.9 10.9 4.9 69.2 39 70.7 122.3 68.7 153.1-.6 8.2-2.9 16.1-6.7 23.2"/><path fill="#040000" d="M691.5 551.2c-1 2.9-3.6 6.1-9.4 8.5.1-4.2.5-6.6.5-6.6s4.7 0 8.9-1.9"/><path fill="#ba692d" d="M1020.2 558.1c-1 5.1-.2 8.4-4.8 17.8-1.8 3.8-6.9 4.1-8.4.1l-4.3-15.9c-7.7-27.7-18.9-59-27.5-74 13.6-.4 26.1-.3 37.5.2 7.1 24.1 9 64 7.5 71.8M1102.7 568.3c-2.9 7.7-3 8.7-5.4 12.5-2.2 3.6-7.7 2.4-8.3-1.8l-1.5-10.3c-3-35.2-10.9-60.7-17.3-76.4 16.5 3.1 28.1 6.7 35.7 9.5 2.4 26.7-.2 58.6-3.2 66.5"/><circle cx="772.2" cy="593.6" r="26.9" fill="#d14d2b"/><ellipse cx="730.3" cy="545" fill="#221714" rx="7" ry="22.1"/><ellipse cx="727.9" cy="537" fill="#fff" rx="3.1" ry="8.5"/><g><path fill="#f0cf48" d="M948.8 340.6c-4.7 11.5-19.2 38.1-61.1 72.7-16.3 13.5-36.9 28.1-62.6 43.6L796 471.1l-17.7-20.4s40-60.9 108.8-95.4c17.4-8.7 36.6-15.8 57.5-19.8 2.9-.7 5.4 2.3 4.2 5.1"/><path fill="#040000" d="M948.8 340.6c-4.7 11.5-19.2 38.1-61.1 72.7 4.3-27 1.7-47.3-.6-58.2 17.4-8.7 36.6-15.8 57.5-19.8 2.9-.5 5.4 2.5 4.2 5.3"/><animateTransform attributeName="transform" begin="0s" dur="1.5s" repeatCount="indefinite" type="rotate" values="0 798 449;-13 798 449;0 798 449"/></g><g><path fill="#f0cf48" d="M1001 393.8c-7.2 9.7-27.7 32.1-74.8 54.4-25.5 12.1-58.7 24.1-101.9 34l-25.9-26.6s50.5-47 136.3-62.3c19.5-3.5 40.8-5.4 63.8-4.7 2.6.1 4.1 3.1 2.5 5.2"/><path fill="#040000" d="M1001 393.8c-7.2 9.7-27.7 32.1-74.8 54.4 12.1-29.6 11.6-46 8.5-54.9 19.5-3.5 40.8-5.4 63.8-4.7 2.6.1 4.1 3.1 2.5 5.2"/><animateTransform attributeName="transform" begin="0s" dur="1.5s" repeatCount="indefinite" type="rotate" values="0 837 454;-10 837 454;0 837 454"/></g><animateTransform attributeName="transform" begin="0s" dur="1.5s" repeatCount="indefinite" type="translate" values="0 0;0 10;0 0"/></g><path fill="#F0CF48" d="M855.8 793.7c3.8-4.8 11.1-11.4 11.5-13 0 0 69.7-54.4 54.5-109.8-7.5-27.2-22.8-33-36.2-31.9-14.3 1.1-26.8 10.2-33 23.1-7.3 15.2-19.3 45-34.6 100 0 0-2.2 13-4.5 15.9l-6.8 11.4c-.4 5.7 4.1 10.5 9.7 10.6l15.5 1.2c5.5 0 20.5-3.2 23.9-7.5M1086.3 603.5s33.4-31.4 61.9 2.9c44.5 53.4 16.1 95.6 15.5 107.7-.6 12.1 6.7.7 12.4 10.4 11.8 20.1-44.4 51.3-66.7 67.1-11.9 8.4-19.1 4.8-37.5 5.5-2.4.1-8.4-7.3-7.5-9.5 5.1-12.8 16 5.3 49.8-35.4-43.5 17.4-98.8-76.6-27.9-148.7"/></svg>