<?xml version="1.0" encoding="UTF-8" standalone="no"?>
<!DOCTYPE svg PUBLIC "-//W3C//DTD SVG 1.1//EN" "http://www.w3.org/Graphics/SVG/1.1/DTD/svg11.dtd">
<svg xmlns="http://www.w3.org/2000/svg" version="1.1" viewBox="0.00 0.00 512.00 512.00">
<g stroke-width="2.00" fill="none" stroke-linecap="butt">
<path stroke="#4b1b14" vector-effect="non-scaling-stroke" d="
  M 100.08 51.61
  Q 67.33 73.06 47.50 106.53
  C 5.99 176.60 20.78 265.35 82.01 318.73
  Q 122.39 353.93 178.98 359.35
  Q 181.56 359.60 184.18 359.47
  Q 184.69 359.45 184.78 358.95
  Q 188.11 339.57 203.34 325.74"
/>
<path stroke="#63231b" vector-effect="non-scaling-stroke" d="
  M 203.34 325.74
  Q 217.05 313.91 235.97 312.25
  Q 236.49 312.20 236.86 311.83
  L 359.23 189.52
  Q 359.81 188.95 359.79 188.13
  Q 358.92 153.54 344.68 122.29
  C 322.35 73.29 276.44 36.66 223.22 26.96
  Q 168.88 17.05 118.99 40.70
  Q 109.40 45.25 100.08 51.61"
/>
<path stroke="#ae3e2f" vector-effect="non-scaling-stroke" d="
  M 203.34 325.74
  Q 164.35 318.95 132.86 297.39
  C 85.80 265.17 57.25 212.66 56.09 155.41
  Q 55.28 115.50 75.36 82.35
  Q 85.08 66.30 100.08 51.61"
/>
<path stroke="#5b5953" vector-effect="non-scaling-stroke" d="
  M 267.27 304.08
  L 257.12 314.24
  Q 256.88 314.48 257.19 314.60
  Q 288.77 326.19 295.35 359.41
  Q 295.49 360.06 296.15 360.08
  C 316.89 360.62 335.76 367.27 351.41 380.38
  Q 351.89 380.78 352.34 380.34
  L 380.36 352.33
  Q 380.66 352.02 380.38 351.70
  Q 374.59 344.84 370.50 337.51"
/>
<path stroke="#6d6b65" vector-effect="non-scaling-stroke" d="
  M 370.50 337.51
  Q 363.65 325.21 361.22 311.92
  Q 359.89 304.68 359.93 293.78
  Q 360.08 252.04 359.97 211.83
  A 0.19 0.19 0.0 0 0 359.64 211.70
  L 267.27 304.08"
/>
<path stroke="#c8c3b8" vector-effect="non-scaling-stroke" d="
  M 370.50 337.51
  Q 362.17 347.36 359.55 349.60
  Q 345.11 361.93 326.95 355.60
  Q 313.61 350.95 304.87 339.99
  C 301.57 335.84 298.05 328.84 294.72 324.78
  Q 283.78 311.44 267.27 304.08"
/>
<path stroke="#806b2f" vector-effect="non-scaling-stroke" d="
  M 279.96 367.99
  A 39.96 39.96 0.0 0 0 240.00 328.03
  A 39.96 39.96 0.0 0 0 200.04 367.99
  A 39.96 39.96 0.0 0 0 240.00 407.95
  A 39.96 39.96 0.0 0 0 279.96 367.99"
/>
<path stroke="#1d1d1d" vector-effect="non-scaling-stroke" d="
  M 434.25 470.80
  Q 438.52 475.54 442.43 479.11
  C 455.61 491.18 474.12 491.03 484.32 475.19
  C 492.33 462.75 485.16 449.14 475.73 440.42
  Q 434.25 402.04 392.43 363.42
  A 0.34 0.34 0.0 0 0 391.96 363.43
  L 363.36 392.04
  A 0.40 0.40 0.0 0 0 363.35 392.59
  Q 399.01 431.71 434.25 470.80"
/>
<path stroke="#63231b" vector-effect="non-scaling-stroke" d="
  M 192.30 64.02
  C 234.54 64.29 272.69 86.02 294.58 121.87
  Q 311.52 149.61 312.01 183.48
  A 0.54 0.53 89.4 0 0 312.54 184.01
  L 327.48 184.01
  A 0.50 0.50 0.0 0 0 327.98 183.50
  C 327.17 108.44 267.76 48.90 192.54 48.00
  Q 192.00 47.99 192.00 48.53
  L 192.00 63.71
  A 0.31 0.30 -90.0 0 0 192.30 64.02"
/>
<path stroke="#ffeaae" vector-effect="non-scaling-stroke" d="
  M 270.9718 365.2007
  A 21.17 9.45 40.4 0 0 260.9747 344.2835
  A 21.17 9.45 40.4 0 0 238.7282 337.7593
  A 21.17 9.45 40.4 0 0 248.7253 358.6765
  A 21.17 9.45 40.4 0 0 270.9718 365.2007"
/>
</g>
<path fill="#000000" d="
  M 184.69 376.22
  Q 184.63 375.80 184.21 375.78
  C 72.48 370.51 -10.01 268.09 11.32 157.32
  C 31.80 50.97 139.69 -14.98 243.72 15.46
  C 321.75 38.30 375.67 110.09 375.95 191.69
  Q 376.11 237.40 375.92 293.05
  Q 375.88 303.24 377.08 309.63
  C 379.69 323.61 386.84 336.54 397.40 346.28
  Q 442.39 387.77 485.96 428.10
  C 502.07 443.01 510.57 464.51 497.28 484.56
  C 485.98 501.61 466.43 508.51 447.07 500.70
  C 437.56 496.86 430.67 490.70 423.14 482.38
  Q 384.78 439.94 346.39 397.75
  C 333.69 383.79 314.68 376.54 295.90 376.06
  Q 295.36 376.05 295.27 376.57
  Q 291.58 397.61 275.86 410.88
  C 255.08 428.41 224.32 428.27 203.80 410.58
  Q 187.96 396.92 184.69 376.22
  Z
  M 100.08 51.61
  Q 67.33 73.06 47.50 106.53
  C 5.99 176.60 20.78 265.35 82.01 318.73
  Q 122.39 353.93 178.98 359.35
  Q 181.56 359.60 184.18 359.47
  Q 184.69 359.45 184.78 358.95
  Q 188.11 339.57 203.34 325.74
  Q 217.05 313.91 235.97 312.25
  Q 236.49 312.20 236.86 311.83
  L 359.23 189.52
  Q 359.81 188.95 359.79 188.13
  Q 358.92 153.54 344.68 122.29
  C 322.35 73.29 276.44 36.66 223.22 26.96
  Q 168.88 17.05 118.99 40.70
  Q 109.40 45.25 100.08 51.61
  Z
  M 267.27 304.08
  L 257.12 314.24
  Q 256.88 314.48 257.19 314.60
  Q 288.77 326.19 295.35 359.41
  Q 295.49 360.06 296.15 360.08
  C 316.89 360.62 335.76 367.27 351.41 380.38
  Q 351.89 380.78 352.34 380.34
  L 380.36 352.33
  Q 380.66 352.02 380.38 351.70
  Q 374.59 344.84 370.50 337.51
  Q 363.65 325.21 361.22 311.92
  Q 359.89 304.68 359.93 293.78
  Q 360.08 252.04 359.97 211.83
  A 0.19 0.19 0.0 0 0 359.64 211.70
  L 267.27 304.08
  Z
  M 279.96 367.99
  A 39.96 39.96 0.0 0 0 240.00 328.03
  A 39.96 39.96 0.0 0 0 200.04 367.99
  A 39.96 39.96 0.0 0 0 240.00 407.95
  A 39.96 39.96 0.0 0 0 279.96 367.99
  Z
  M 434.25 470.80
  Q 438.52 475.54 442.43 479.11
  C 455.61 491.18 474.12 491.03 484.32 475.19
  C 492.33 462.75 485.16 449.14 475.73 440.42
  Q 434.25 402.04 392.43 363.42
  A 0.34 0.34 0.0 0 0 391.96 363.43
  L 363.36 392.04
  A 0.40 0.40 0.0 0 0 363.35 392.59
  Q 399.01 431.71 434.25 470.80
  Z"
/>
<path fill="#c64635" d="
  M 203.34 325.74
  Q 164.35 318.95 132.86 297.39
  C 85.80 265.17 57.25 212.66 56.09 155.41
  Q 55.28 115.50 75.36 82.35
  Q 85.08 66.30 100.08 51.61
  Q 109.40 45.25 118.99 40.70
  Q 168.88 17.05 223.22 26.96
  C 276.44 36.66 322.35 73.29 344.68 122.29
  Q 358.92 153.54 359.79 188.13
  Q 359.81 188.95 359.23 189.52
  L 236.86 311.83
  Q 236.49 312.20 235.97 312.25
  Q 217.05 313.91 203.34 325.74
  Z
  M 192.30 64.02
  C 234.54 64.29 272.69 86.02 294.58 121.87
  Q 311.52 149.61 312.01 183.48
  A 0.54 0.53 89.4 0 0 312.54 184.01
  L 327.48 184.01
  A 0.50 0.50 0.0 0 0 327.98 183.50
  C 327.17 108.44 267.76 48.90 192.54 48.00
  Q 192.00 47.99 192.00 48.53
  L 192.00 63.71
  A 0.31 0.30 -90.0 0 0 192.30 64.02
  Z"
/>
<path fill="#000000" d="
  M 294.58 121.87
  C 272.69 86.02 234.54 64.29 192.30 64.02
  A 0.31 0.30 -90.0 0 1 192.00 63.71
  L 192.00 48.53
  Q 192.00 47.99 192.54 48.00
  C 267.76 48.90 327.17 108.44 327.98 183.50
  A 0.50 0.50 0.0 0 1 327.48 184.01
  L 312.54 184.01
  A 0.54 0.53 89.4 0 1 312.01 183.48
  Q 311.52 149.61 294.58 121.87
  Z"
/>
<path fill="#953528" d="
  M 100.08 51.61
  Q 85.08 66.30 75.36 82.35
  Q 55.28 115.50 56.09 155.41
  C 57.25 212.66 85.80 265.17 132.86 297.39
  Q 164.35 318.95 203.34 325.74
  Q 188.11 339.57 184.78 358.95
  Q 184.69 359.45 184.18 359.47
  Q 181.56 359.60 178.98 359.35
  Q 122.39 353.93 82.01 318.73
  C 20.78 265.35 5.99 176.60 47.50 106.53
  Q 67.33 73.06 100.08 51.61
  Z"
/>
<path fill="#d9d5ca" d="
  M 370.50 337.51
  Q 362.17 347.36 359.55 349.60
  Q 345.11 361.93 326.95 355.60
  Q 313.61 350.95 304.87 339.99
  C 301.57 335.84 298.05 328.84 294.72 324.78
  Q 283.78 311.44 267.27 304.08
  L 359.64 211.70
  A 0.19 0.19 0.0 0 1 359.97 211.83
  Q 360.08 252.04 359.93 293.78
  Q 359.89 304.68 361.22 311.92
  Q 363.65 325.21 370.50 337.51
  Z"
/>
<path fill="#b6b1a5" d="
  M 267.27 304.08
  Q 283.78 311.44 294.72 324.78
  C 298.05 328.84 301.57 335.84 304.87 339.99
  Q 313.61 350.95 326.95 355.60
  Q 345.11 361.93 359.55 349.60
  Q 362.17 347.36 370.50 337.51
  Q 374.59 344.84 380.38 351.70
  Q 380.66 352.02 380.36 352.33
  L 352.34 380.34
  Q 351.89 380.78 351.41 380.38
  C 335.76 367.27 316.89 360.62 296.15 360.08
  Q 295.49 360.06 295.35 359.41
  Q 288.77 326.19 257.19 314.60
  Q 256.88 314.48 257.12 314.24
  L 267.27 304.08
  Z"
/>
<path fill="#ffd55d" d="
  M 279.96 367.99
  A 39.96 39.96 0.0 0 1 240.00 407.95
  A 39.96 39.96 0.0 0 1 200.04 367.99
  A 39.96 39.96 0.0 0 1 240.00 328.03
  A 39.96 39.96 0.0 0 1 279.96 367.99
  Z
  M 270.9718 365.2007
  A 21.17 9.45 40.4 0 0 260.9747 344.2835
  A 21.17 9.45 40.4 0 0 238.7282 337.7593
  A 21.17 9.45 40.4 0 0 248.7253 358.6765
  A 21.17 9.45 40.4 0 0 270.9718 365.2007
  Z"
/>
<ellipse fill="#ffffff" cx="0.00" cy="0.00" transform="translate(254.85,351.48) rotate(40.4)" rx="21.17" ry="9.45"/>
<path fill="#393a3a" d="
  M 434.25 470.80
  Q 399.01 431.71 363.35 392.59
  A 0.40 0.40 0.0 0 1 363.36 392.04
  L 391.96 363.43
  A 0.34 0.34 0.0 0 1 392.43 363.42
  Q 434.25 402.04 475.73 440.42
  C 485.16 449.14 492.33 462.75 484.32 475.19
  C 474.12 491.03 455.61 491.18 442.43 479.11
  Q 438.52 475.54 434.25 470.80
  Z"
/>
</svg>
