<svg xmlns="http://www.w3.org/2000/svg" viewBox="0 0 512 512"><g fill="none" stroke-width="2"><path stroke="#4b1b14" d="M100.08 51.61Q67.33 73.06 47.5 106.53C5.99 176.6 20.78 265.35 82.01 318.73q40.38 35.2 96.97 40.62 2.58.25 5.2.12.51-.02.6-.52 3.33-19.38 18.56-33.21" vector-effect="non-scaling-stroke"/><path stroke="#63231b" d="M203.34 325.74q13.71-11.83 32.63-13.49.52-.05.89-.42l122.37-122.31q.58-.57.56-1.39-.87-34.59-15.11-65.84c-22.33-49-68.24-85.63-121.46-95.33q-54.34-9.91-104.23 13.74-9.59 4.55-18.91 10.91" vector-effect="non-scaling-stroke"/><path stroke="#ae3e2f" d="M203.34 325.74q-38.99-6.79-70.48-28.35c-47.06-32.22-75.61-84.73-76.77-141.98q-.81-39.91 19.27-73.06 9.72-16.05 24.72-30.74" vector-effect="non-scaling-stroke"/><path stroke="#5b5953" d="m267.27 304.08-10.15 10.16q-.24.24.07.36 31.58 11.59 38.16 44.81.14.65.8.67c20.74.54 39.61 7.19 55.26 20.3q.48.4.93-.04l28.02-28.01q.3-.31.02-.63-5.79-6.86-9.88-14.19" vector-effect="non-scaling-stroke"/><path stroke="#6d6b65" d="M370.5 337.51q-6.85-12.3-9.28-25.59-1.33-7.24-1.29-18.14.15-41.74.04-81.95a.19.19 0 0 0-.33-.13l-92.37 92.38" vector-effect="non-scaling-stroke"/><path stroke="#c8c3b8" d="M370.5 337.51q-8.33 9.85-10.95 12.09-14.44 12.33-32.6 6-13.34-4.65-22.08-15.61c-3.3-4.15-6.82-11.15-10.15-15.21q-10.94-13.34-27.45-20.7" vector-effect="non-scaling-stroke"/><path stroke="#806b2f" d="M279.96 367.99A39.96 39.96 0 0 0 240 328.03a39.96 39.96 0 0 0-39.96 39.96A39.96 39.96 0 0 0 240 407.95a39.96 39.96 0 0 0 39.96-39.96" vector-effect="non-scaling-stroke"/><path stroke="#1d1d1d" d="M434.25 470.8q4.27 4.74 8.18 8.31c13.18 12.07 31.69 11.92 41.89-3.92 8.01-12.44.84-26.05-8.59-34.77q-41.48-38.38-83.3-77a.34.34 0 0 0-.47.01l-28.6 28.61a.4.4 0 0 0-.01.55q35.66 39.12 70.9 78.21" vector-effect="non-scaling-stroke"/><path stroke="#63231b" d="M192.3 64.02c42.24.27 80.39 22 102.28 57.85q16.94 27.74 17.43 61.61a.54.53 89.4 0 0 .53.53h14.94a.5.5 0 0 0 .5-.51c-.81-75.06-60.22-134.6-135.44-135.5q-.54-.01-.54.53v15.18a.31.3-90 0 0 .3.31" vector-effect="non-scaling-stroke"/><path stroke="#ffeaae" d="M270.972 365.2a21.17 9.45 40.4 0 0-9.997-20.916 21.17 9.45 40.4 0 0-22.247-6.525 21.17 9.45 40.4 0 0 9.997 20.917 21.17 9.45 40.4 0 0 22.247 6.525" vector-effect="non-scaling-stroke"/></g><path d="M184.69 376.22q-.06-.42-.48-.44C72.48 370.51-10.01 268.09 11.32 157.32 31.8 50.97 139.69-14.98 243.72 15.46c78.03 22.84 131.95 94.63 132.23 176.23q.16 45.71-.03 101.36-.04 10.19 1.16 16.58c2.61 13.98 9.76 26.91 20.32 36.65q44.99 41.49 88.56 81.82c16.11 14.91 24.61 36.41 11.32 56.46-11.3 17.05-30.85 23.95-50.21 16.14-9.51-3.84-16.4-10-23.93-18.32q-38.36-42.44-76.75-84.63c-12.7-13.96-31.71-21.21-50.49-21.69q-.54-.01-.63.51-3.69 21.04-19.41 34.31c-20.78 17.53-51.54 17.39-72.06-.3q-15.84-13.66-19.11-34.36M100.08 51.61Q67.33 73.06 47.5 106.53C5.99 176.6 20.78 265.35 82.01 318.73q40.38 35.2 96.97 40.62 2.58.25 5.2.12.51-.02.6-.52 3.33-19.38 18.56-33.21 13.71-11.83 32.63-13.49.52-.05.89-.42l122.37-122.31q.58-.57.56-1.39-.87-34.59-15.11-65.84c-22.33-49-68.24-85.63-121.46-95.33q-54.34-9.91-104.23 13.74-9.59 4.55-18.91 10.91m167.19 252.47-10.15 10.16q-.24.24.07.36 31.58 11.59 38.16 44.81.14.65.8.67c20.74.54 39.61 7.19 55.26 20.3q.48.4.93-.04l28.02-28.01q.3-.31.02-.63-5.79-6.86-9.88-14.19-6.85-12.3-9.28-25.59-1.33-7.24-1.29-18.14.15-41.74.04-81.95a.19.19 0 0 0-.33-.13zm12.69 63.91A39.96 39.96 0 0 0 240 328.03a39.96 39.96 0 0 0-39.96 39.96A39.96 39.96 0 0 0 240 407.95a39.96 39.96 0 0 0 39.96-39.96M434.25 470.8q4.27 4.74 8.18 8.31c13.18 12.07 31.69 11.92 41.89-3.92 8.01-12.44.84-26.05-8.59-34.77q-41.48-38.38-83.3-77a.34.34 0 0 0-.47.01l-28.6 28.61a.4.4 0 0 0-.01.55q35.66 39.12 70.9 78.21"/><path fill="#c64635" d="M203.34 325.74q-38.99-6.79-70.48-28.35c-47.06-32.22-75.61-84.73-76.77-141.98q-.81-39.91 19.27-73.06 9.72-16.05 24.72-30.74 9.32-6.36 18.91-10.91 49.89-23.65 104.23-13.74c53.22 9.7 99.13 46.33 121.46 95.33q14.24 31.25 15.11 65.84.02.82-.56 1.39L236.86 311.83q-.37.37-.89.42-18.92 1.66-32.63 13.49M192.3 64.02c42.24.27 80.39 22 102.28 57.85q16.94 27.74 17.43 61.61a.54.53 89.4 0 0 .53.53h14.94a.5.5 0 0 0 .5-.51c-.81-75.06-60.22-134.6-135.44-135.5q-.54-.01-.54.53v15.18a.31.3-90 0 0 .3.31"/><path d="M294.58 121.87c-21.89-35.85-60.04-57.58-102.28-57.85a.31.3-90 0 1-.3-.31V48.53q0-.54.54-.53c75.22.9 134.63 60.44 135.44 135.5a.5.5 0 0 1-.5.51h-14.94a.54.53 89.4 0 1-.53-.53q-.49-33.87-17.43-61.61"/><path fill="#953528" d="M100.08 51.61q-15 14.69-24.72 30.74-20.08 33.15-19.27 73.06c1.16 57.25 29.71 109.76 76.77 141.98q31.49 21.56 70.48 28.35-15.23 13.83-18.56 33.21-.09.5-.6.52-2.62.13-5.2-.12-56.59-5.42-96.97-40.62C20.78 265.35 5.99 176.6 47.5 106.53q19.83-33.47 52.58-54.92"/><path fill="#d9d5ca" d="M370.5 337.51q-8.33 9.85-10.95 12.09-14.44 12.33-32.6 6-13.34-4.65-22.08-15.61c-3.3-4.15-6.82-11.15-10.15-15.21q-10.94-13.34-27.45-20.7l92.37-92.38a.19.19 0 0 1 .33.13q.11 40.21-.04 81.95-.04 10.9 1.29 18.14 2.43 13.29 9.28 25.59"/><path fill="#b6b1a5" d="M267.27 304.08q16.51 7.36 27.45 20.7c3.33 4.06 6.85 11.06 10.15 15.21q8.74 10.96 22.08 15.61 18.16 6.33 32.6-6 2.62-2.24 10.95-12.09 4.09 7.33 9.88 14.19.28.32-.02.63l-28.02 28.01q-.45.44-.93.04c-15.65-13.11-34.52-19.76-55.26-20.3q-.66-.02-.8-.67-6.58-33.22-38.16-44.81-.31-.12-.07-.36z"/><path fill="#ffd55d" d="M279.96 367.99A39.96 39.96 0 0 1 240 407.95a39.96 39.96 0 0 1-39.96-39.96A39.96 39.96 0 0 1 240 328.03a39.96 39.96 0 0 1 39.96 39.96m-8.988-2.79a21.17 9.45 40.4 0 0-9.997-20.916 21.17 9.45 40.4 0 0-22.247-6.525 21.17 9.45 40.4 0 0 9.997 20.917 21.17 9.45 40.4 0 0 22.247 6.525"/><ellipse fill="#fff" rx="21.17" ry="9.45" transform="rotate(40.4 -350.222 522.071)"/><path fill="#393a3a" d="M434.25 470.8q-35.24-39.09-70.9-78.21a.4.4 0 0 1 .01-.55l28.6-28.61a.34.34 0 0 1 .47-.01q41.82 38.62 83.3 77c9.43 8.72 16.6 22.33 8.59 34.77-10.2 15.84-28.71 15.99-41.89 3.92q-3.91-3.57-8.18-8.31"/></svg>